<?xml version="1.0" standalone="no"?>
<!DOCTYPE svg PUBLIC "-//W3C//DTD SVG 1.1//EN" "http://www.w3.org/Graphics/SVG/1.1/DTD/svg11.dtd" >
<svg xmlns="http://www.w3.org/2000/svg">
<metadata></metadata>
<defs>
<font id="seoulnamsanjungmregular" horiz-adv-x="900" >
<font-face units-per-em="1000" ascent="800" descent="-200" />
<missing-glyph horiz-adv-x="330" />
<glyph unicode=" "  horiz-adv-x="330" />
<glyph unicode="&#x09;" horiz-adv-x="330" />
<glyph unicode="&#xa0;" horiz-adv-x="330" />
<glyph unicode="!" horiz-adv-x="310" d="M189 725h-84l7 -559h70zM197 -78v100h-100v-100h100z" />
<glyph unicode="&#x22;" horiz-adv-x="410" d="M309 763h-94l16 -221h60zM157 763h-94l18 -221h60z" />
<glyph unicode="#" horiz-adv-x="640" d="M593 432h-123l59 222h-67l-59 -222h-117l58 222h-67l-58 -222h-116l-16 -57h118l-25 -97h-117l-15 -57h118l-57 -220h67l57 220h116l-55 -220h66l56 220h122l16 57h-124l26 97h122zM389 375l-25 -97h-117l25 97h117z" />
<glyph unicode="$" horiz-adv-x="540" d="M487 176q0 27 -8 51t-17 40.5t-29 32.5t-31 24t-37 19t-33 13t-32 10l-9 3v275q44 -7 70 -36t26 -68h88q0 59 -56.5 103.5t-127.5 44.5v76h-51v-76q-65 -4 -122 -47t-57 -123q0 -40 14 -72.5t31.5 -51t46.5 -33.5t45.5 -20t41.5 -12v-293q-50 10 -75 38t-25 65h-88 q9 -67 56 -107t132 -43v-87h51v87q50 2 92 19.5t73 60.5t31 107zM240 385q-46 16 -73 46t-27 91q0 56 32.5 87.5t67.5 34.5v-259zM407 169q0 -62 -38 -97.5t-78 -35.5v275q53 -25 84.5 -57t31.5 -85z" />
<glyph unicode="%" horiz-adv-x="860" d="M824 211q0 216 -155 216q-44 0 -76 -18.5t-48.5 -50.5t-24 -68.5t-7.5 -80.5q0 -101 37.5 -161t118.5 -60q45 0 77 20t48 54.5t23 70.5t7 78zM564 654h-58l-214 -654h58zM348 448q0 216 -156 216q-44 0 -75.5 -18.5t-48 -51t-24 -69t-7.5 -80.5q0 -101 37 -160.5 t118 -59.5q45 0 77 20t48.5 54.5t23.5 70.5t7 78zM760 211q0 -171 -91 -171t-91 169q0 167 91 167q53 0 72 -44t19 -121zM283 448q0 -171 -91 -171t-91 168t91 168q53 0 72 -44t19 -121z" />
<glyph unicode="&#x26;" horiz-adv-x="790" d="M744 -11l-130 158l97 97l-56 50l-90 -90l-168 206q36 27 50 39q90 70 90 143q-2 48 -31 81t-66 46t-79 13q-77 0 -124.5 -44.5t-45.5 -109.5q1 -26 17.5 -58t29.5 -49t39 -47q-108 -77 -142 -111q-45 -48 -56 -107.5t16 -112.5q28 -55 85.5 -85.5t122.5 -30.5 q117 5 251 114l86 -102h104zM455 592q0 -22 -10.5 -40.5t-21 -28t-31.5 -25.5l-48 -33q-8 8 -20 21t-32 45t-20 55q0 34 27 56.5t63 22.5t64.5 -21t28.5 -52zM504 149q-121 -103 -205 -103q-42 2 -78 26t-53 56q-17 43 -7 78.5t38 63.5q12 12 44 36t58 42l26 19z" />
<glyph unicode="'" horiz-adv-x="320" d="M171 763h-93l17 -221h60z" />
<glyph unicode="(" horiz-adv-x="330" d="M292 -147v46q-94 47 -102 327q-3 134 0 203q2 108 26.5 198t75.5 118v46q-61 -14 -103.5 -70.5t-59.5 -125.5t-20 -149q-2 -55 -2 -187q0 -47 3 -89.5t14.5 -97t30.5 -96.5t54.5 -76.5t82.5 -46.5z" />
<glyph unicode=")" horiz-adv-x="330" d="M216 260q0 130 -2 185q-2 59 -13 113t-31.5 103.5t-56 84.5t-82.5 45v-46q51 -28 75.5 -118t26.5 -199q3 -68 0 -201q-8 -281 -102 -328v-46q47 12 82.5 47t54.5 76.5t30.5 96.5t14.5 97.5t3 89.5z" />
<glyph unicode="*" horiz-adv-x="360" d="M347 562v56h-77l-45 -4l25 38l40 69l-51 29l-39 -69l-20 -41l-20 41l-39 69l-50 -29l39 -69l25 -38l-46 4h-77v-56h77l46 3l-24 -37l-40 -68l50 -30l40 68l19 38l20 -38l39 -68l51 30l-40 68l-25 37l45 -3h77z" />
<glyph unicode="+" horiz-adv-x="575" d="M525 332v63h-203v202h-70v-202h-203v-63h203v-219h70v219h203z" />
<glyph unicode="," horiz-adv-x="300" d="M184 93h-107l-24 -229h69z" />
<glyph unicode="-" horiz-adv-x="420" d="M371 329v70h-324v-70h324z" />
<glyph unicode="." horiz-adv-x="300" d="M179 -72v114h-114v-114h114z" />
<glyph unicode="/" horiz-adv-x="360" d="M334 784h-74l-247 -923h73z" />
<glyph unicode="0" horiz-adv-x="500" d="M465 352q-8 364 -215 364q-61 0 -105 -33.5t-67 -89.5t-33 -115.5t-10 -125.5q0 -73 11.5 -136t35.5 -115.5t67 -82.5t101 -30q64 0 108.5 33.5t66.5 90.5t31 115t9 125zM385 352q0 -305 -135 -305t-135 305t135 305t135 -305z" />
<glyph unicode="1" horiz-adv-x="500" d="M304 -4v715h-66l-135 -84v-73l123 78v-636h78z" />
<glyph unicode="2" horiz-adv-x="500" d="M460 0v67h-310l39.5 39.5l48.5 48.5t43.5 45.5t48 55t38 50t37.5 57t23 52.5q18 46 18 110q0 86 -58.5 138.5t-138.5 52.5q-45 0 -81.5 -13t-58 -32.5t-35.5 -44.5t-19.5 -46t-5.5 -39h82q-2 45 30.5 80.5t86.5 35.5q60 0 89.5 -41t29.5 -83q0 -59 -17 -102 q-58 -135 -250 -323q-17 -15 -46 -39v-69h406z" />
<glyph unicode="3" horiz-adv-x="500" d="M460 193q0 81 -43.5 124t-94.5 54v2q44 12 85 54.5t41 103.5q0 84 -60 134t-142 50q-95 0 -147.5 -47t-52.5 -97h79q5 35 37.5 60.5t88.5 25.5q50 0 84 -36t34 -91q0 -59 -41.5 -94.5t-127.5 -35.5v-59q30 0 58 -6.5t56.5 -21t45.5 -44.5t17 -71q0 -68 -35 -109.5 t-100 -41.5q-58 0 -88.5 28.5t-32.5 59.5h-87q7 -62 60.5 -104.5t151.5 -42.5q101 0 157.5 58t56.5 147z" />
<glyph unicode="4" horiz-adv-x="500" d="M486 194v68h-114v454h-80l-280 -459v-63h285v-193h75v193h114zM297 262h-209l207 350h2v-350z" />
<glyph unicode="5" horiz-adv-x="500" d="M465 208q0 98 -57 158t-152 60q-64 0 -113 -33l11 241h269v70h-340l-18 -388h78q42 56 107 52q58 -4 96.5 -46t38.5 -112q-2 -73 -42.5 -118t-103.5 -45q-55 0 -82.5 29.5t-27.5 59.5h-92q0 -53 52 -100t151 -47t162 64t63 155z" />
<glyph unicode="6" horiz-adv-x="500" d="M477 210q0 91 -51 152.5t-138 61.5q-116 0 -165 -77h-2v48q0 110 39 186.5t109 76.5q50 0 78 -30t28 -58h87q0 50 -49 98t-140 48q-55 0 -97 -22t-67 -57t-41 -83.5t-21.5 -96t-5.5 -101.5q0 -67 7 -137q35 -231 222 -231q99 4 153 68.5t54 153.5zM396 210 q0 -73 -36 -118t-90 -45q-62 0 -99 49.5t-37 114.5q2 66 39 110t95 44q59 0 93.5 -43.5t34.5 -111.5z" />
<glyph unicode="7" horiz-adv-x="500" d="M469 635v66h-418v-70h333l-255 -635h82z" />
<glyph unicode="8" horiz-adv-x="500" d="M467 187q0 81 -42 127t-81 52v2q45 14 77.5 59.5t32.5 112.5q0 74 -60.5 124.5t-141.5 50.5q-91 0 -147.5 -52.5t-56.5 -124.5q0 -136 109 -170v-2q-47 -11 -85 -56t-38 -120q1 -98 61.5 -150t154.5 -52q99 2 158 54.5t59 144.5zM376 530q-2 -58 -34.5 -95.5t-86.5 -37.5 q-34 0 -55 9q-74 35 -74 126q0 57 36 93t88 36q57 0 91.5 -35.5t34.5 -95.5zM388 194q-1 -71 -36.5 -109.5t-98.5 -38.5q-76 0 -108 45t-32 104q1 63 40.5 103t96.5 40q65 -1 101.5 -43t36.5 -101z" />
<glyph unicode="9" horiz-adv-x="500" d="M451 338q0 77 -7 147q-14 103 -65 167t-148 64q-91 0 -150 -65.5t-59 -158.5q0 -94 53 -158t138 -64q106 0 156 76h3v-46q0 -43 -6.5 -83.5t-21 -80.5t-44 -64.5t-69.5 -24.5q-52 0 -78 29.5t-26 58.5h-91q0 -53 53 -99.5t140 -46.5q222 0 222 349zM360 494 q-2 -69 -36.5 -117.5t-91.5 -48.5q-63 1 -97.5 48.5t-34.5 118.5q3 73 39 117.5t92 44.5q68 -3 98.5 -50.5t30.5 -112.5z" />
<glyph unicode=":" horiz-adv-x="400" d="M257 470v113h-114v-113h114zM257 103v113h-114v-113h114z" />
<glyph unicode=";" horiz-adv-x="400" d="M257 471v113h-113v-113h113zM256 207h-101l-24 -230h68z" />
<glyph unicode="&#x3c;" horiz-adv-x="585" d="M523 42v70l-354 203l354 203v70l-424 -241v-64z" />
<glyph unicode="=" horiz-adv-x="585" d="M525 435v63h-466v-63h466zM525 223v63h-466v-63h466z" />
<glyph unicode="&#x3e;" horiz-adv-x="585" d="M476 283v64l-424 241v-70l354 -203l-354 -203v-70z" />
<glyph unicode="?" horiz-adv-x="435" d="M407 543q0 81 -67 125.5t-148 44.5q-58 0 -158 -25v-77q18 10 69 23t86 13q54 -2 95.5 -32.5t41.5 -74.5q0 -28 -21.5 -61.5t-43.5 -56.5t-51 -50q-5 -4 -7 -6q-37 -36 -54 -71t-17 -92v-72h74v51q0 19 1.5 34t5 27.5t6.5 21t10.5 19t11 15t14 16t14.5 16.5t33 33.5 t48.5 50.5t38 58.5t18.5 69.5zM222 -81v100h-101v-100h101z" />
<glyph unicode="@" horiz-adv-x="1000" d="M915 383q-2 111 -63.5 194t-159.5 115q-138 41 -260 9.5t-214 -121.5q-93 -92 -122 -223t20 -236q48 -103 150 -153.5t241 -50.5q73 1 137 18t104 40.5t61 40.5t30 28l-28 24q-28 -29 -110.5 -67t-189.5 -38q-123 2 -209 49.5t-123 127.5q-39 92 -15.5 199.5t98.5 191.5 q52 55 117.5 89t142.5 43t156 -18q88 -30 139 -98.5t51 -163.5q-2 -91 -42.5 -157t-97.5 -98q-55 -30 -81.5 -16.5t-10.5 64.5l136 347h-82l-23 -55q-14 26 -24.5 39.5t-35 25t-59.5 11.5q-53 0 -105 -33.5t-88 -85.5q-50 -72 -66.5 -139.5t-5.5 -113t41 -75.5 q39 -39 97 -37q77 2 131 67q0 -4 1 -11.5t2 -11.5q5 -29 19 -42t55 -12q16 0 28 1.5t22.5 5t16 5.5t18 8.5t17.5 8.5q86 44 135 125.5t49 178.5zM634 438q0 -23 -14.5 -77.5t-38.5 -111.5q-69 -147 -150 -147q-25 0 -45 15q-34 34 -25 102.5t52 148.5q34 60 78 98t79 38 q31 0 47.5 -20t16.5 -46z" />
<glyph unicode="A" horiz-adv-x="615" d="M604 1l-251 711h-95l-249 -711h79l78 219h275l74 -219h89zM418 287h-231l114 340h2z" />
<glyph unicode="B" horiz-adv-x="590" d="M554 199q0 48 -16.5 83t-46 53.5t-48.5 26t-46 13.5v3q2 1 8 2.5t12 3.5t11 4q96 52 96 147q-3 91 -65.5 133.5t-153.5 42.5h-217v-711h217q55 0 94 9q71 18 113 66t42 124zM445 530q0 -61 -39 -91t-87 -33q-18 -2 -52 -2h-98v242h109q30 0 56 -3q111 -19 111 -113z M472 201q-3 -68 -41.5 -98t-88.5 -36q-19 -2 -53 -2h-120v274h130q45 0 72 -10q101 -29 101 -128z" />
<glyph unicode="C" horiz-adv-x="640" d="M602 517q0 92 -70.5 148.5t-170.5 56.5q-102 0 -176 -51t-108.5 -130t-34.5 -173q0 -71 19.5 -136.5t57.5 -121t102 -89t145 -33.5q115 0 209 43v80q-72 -59 -189 -58q-53 1 -95.5 17.5t-70 43.5t-47 58.5t-29.5 68t-14 66.5t-4 58q0 135 67 213.5t168 78.5 q66 -2 111 -36.5t45 -103.5h85z" />
<glyph unicode="D" horiz-adv-x="660" d="M611 357q0 126 -49.5 208t-134.5 118q-67 27 -148 27h-190v-710h165q84 0 132 13q99 28 162 114t63 230zM531 356q0 -63 -15 -114.5t-40.5 -84t-53 -52t-57.5 -28.5q-35 -10 -110 -10h-86v576h76q61 0 113 -9q73 -14 122.5 -82t50.5 -196z" />
<glyph unicode="E" horiz-adv-x="525" d="M482 0v66h-313v272h291v67h-291v238h304v67h-384v-710h393z" />
<glyph unicode="F" horiz-adv-x="490" d="M475 643v66h-385v-711h80v339h293v67h-293v239h305z" />
<glyph unicode="G" horiz-adv-x="670" d="M603 518q-1 93 -71 149t-170 56q-152 0 -236 -103.5t-84 -250.5q0 -71 19.5 -136.5t57.5 -121t102.5 -89t145.5 -33.5q8 2 29 -0.5t80 10.5t119 39v338h-254v-69h174v-230q-59 -22 -129 -21q-62 1 -110 24.5t-75 57t-43.5 77.5t-22 79.5t-5.5 70.5q0 136 65.5 213.5 t166.5 77.5q68 -2 110 -35t42 -103h89z" />
<glyph unicode="H" horiz-adv-x="660" d="M573 0v710h-80v-308h-325v308h-80v-710h80v335h325v-335h80z" />
<glyph unicode="I" horiz-adv-x="260" d="M170 0v710h-83v-710h83z" />
<glyph unicode="J" horiz-adv-x="365" d="M280 158v557h-80v-548q0 -91 -85 -107q-12 -2 -30 -2q-61 3 -99 18v-72q45 -12 93 -12q58 0 99.5 15t62.5 40.5t30 52.5t9 58z" />
<glyph unicode="K" horiz-adv-x="580" d="M587 -1l-340 378l298 333h-93l-282 -318h-2v318h-78v-711h78v348h2l313 -348h104z" />
<glyph unicode="L" horiz-adv-x="500" d="M497 0v67h-326v642h-81v-709h407z" />
<glyph unicode="M" horiz-adv-x="840" d="M752 0v710h-120l-212 -605h-2l-212 605h-121v-710h72v621h2l220 -621h79l220 621h2v-621h72z" />
<glyph unicode="N" horiz-adv-x="670" d="M582 0v710h-76v-600h-2l-313 600h-103v-710h76v598h2l313 -598h103z" />
<glyph unicode="O" horiz-adv-x="730" d="M683 357q0 159 -83.5 262t-235.5 103q-149 0 -234 -106.5t-85 -259.5q0 -160 84 -264t235 -104q81 0 144 30t100 82t56 117t19 140zM599 358q0 -137 -60 -222t-175 -85q-112 0 -174 89t-62 217q0 130 65 215.5t170 86.5q114 1 175 -85t61 -216z" />
<glyph unicode="P" horiz-adv-x="560" d="M536 508q0 56 -23 97t-62 62.5t-83 31.5t-95 10h-183v-709h79v643h103q46 0 85 -12.5t67 -44t28 -78.5q0 -40 -15 -69t-41 -44.5t-55 -22.5t-64 -7h-63v-70h64q49 0 92.5 11t82 34.5t61 66.5t22.5 101z" />
<glyph unicode="Q" horiz-adv-x="750" d="M730 2v75q-49 -23 -145 -26q-29 1 -31 0q64 49 95.5 130.5t31.5 178.5q0 159 -83.5 261.5t-236.5 102.5q-100 0 -174 -52t-109.5 -133.5t-35.5 -179.5q0 -160 84 -264t235 -104q47 0 91 11h278zM596 361q0 -137 -60 -222t-175 -85q-111 0 -173 89t-62 217q0 130 64.5 215 t169.5 86q114 2 175 -84t61 -216z" />
<glyph unicode="R" horiz-adv-x="590" d="M550 0l-37 175q-20 99 -91 159q113 52 113 179q0 197 -264 197h-182v-710h78v643h103q75 0 128 -30.5t53 -99.5q0 -52 -28.5 -84t-66.5 -42.5t-86 -10.5h-56v-70l57 -1q37 0 65 4q83 -60 101 -166l25 -143h88z" />
<glyph unicode="S" horiz-adv-x="520" d="M485 188q0 26 -5.5 48t-17 39.5t-21.5 30.5t-29 26.5t-29 20t-32 18.5t-28 16l-78 36q-33 19 -46 26.5t-34.5 24.5t-30 34t-8.5 38q0 52 37 82t97 30q58 -3 109.5 -16t68.5 -21v73q-5 1 -27.5 6t-42 9.5t-48 8t-51.5 3.5q-104 0 -166 -46t-62 -136q0 -20 6.5 -39t15 -34 t26.5 -31t30 -25.5t36.5 -23.5t35.5 -20t38 -19t34 -17q25 -13 32 -16.5t29 -16.5t30.5 -22.5t21 -25t17.5 -33.5t5 -39q0 -64 -47 -93.5t-119 -29.5q-29 0 -62.5 6.5t-55.5 13.5t-43 14.5t-23 8.5v-80q104 -29 175 -29q124 0 193.5 50t68.5 150z" />
<glyph unicode="T" horiz-adv-x="510" d="M505 639v67h-502v-67h211v-644h80v644h211z" />
<glyph unicode="U" horiz-adv-x="675" d="M589 260v449h-82v-447q0 -88 -42 -148t-132 -60q-92 0 -131 59.5t-39 148.5v447h-82v-449q0 -49 11 -93t37 -86.5t78.5 -68t125.5 -25.5q59 0 105 18t73.5 45.5t45.5 65t25 73t7 71.5z" />
<glyph unicode="V" horiz-adv-x="570" d="M580 710h-83l-208 -611h-2l-212 611h-86l247 -711h98z" />
<glyph unicode="W" horiz-adv-x="865" d="M834 710h-72l-115 -610h-2l-171 610h-87l-160 -607h-2l-123 607h-72l142 -711h98l162 604h2l170 -604h99z" />
<glyph unicode="X" horiz-adv-x="560" d="M554 0l-234 372l211 338h-87l-167 -267l-169 267h-87l212 -338l-234 -372h87l191 299l190 -299h87z" />
<glyph unicode="Y" horiz-adv-x="530" d="M546 708h-86l-193 -309l-187 309h-90l237 -383v-328h80v328z" />
<glyph unicode="Z" horiz-adv-x="540" d="M523 0v67h-406l382 574v69h-455v-67h366l-383 -574v-69h496z" />
<glyph unicode="[" horiz-adv-x="350" d="M311 -139v58h-110v807h110v58h-186v-923h186z" />
<glyph unicode="\" horiz-adv-x="360" d="M15 781l248 -923h73l-247 923h-74z" />
<glyph unicode="]" horiz-adv-x="350" d="M224 -139v923h-186v-58h110v-807h-110v-58h186z" />
<glyph unicode="^" horiz-adv-x="408" d="M386 563l-135 221h-83l-136 -221h76l102 158l99 -158h77z" />
<glyph unicode="_" horiz-adv-x="500" d="M500 -115v50h-500v-50h500z" />
<glyph unicode="`" horiz-adv-x="300" d="M214 565l-64 175h-90l89 -175h65z" />
<glyph unicode="a" horiz-adv-x="510" d="M445 4v338q0 72 -49 118t-141 46q-89 0 -142.5 -42.5t-53.5 -96.5h88q0 36 30 58t78 22q35 0 59.5 -11.5t35.5 -30.5t15 -35t4 -32v-49q-4 0 -25 0.5t-39 0.5t-43.5 -1t-51.5 -5.5t-49 -11.5q-49 -15 -82.5 -56.5t-33.5 -93.5q0 -57 42.5 -93t96.5 -36q66 0 119 26t64 47 h2v-62h76zM369 187q0 -33 -10 -53q-15 -35 -57 -59t-76 -24q-98 0 -98 81q0 38 32.5 63t73.5 35q55 13 135 8v-51z" />
<glyph unicode="b" horiz-adv-x="550" d="M512 242q0 60 -12 106q-19 75 -69.5 114.5t-128.5 39.5q-63 0 -103 -31t-53 -63h-2v303h-73v-495q0 -42 9 -78t30.5 -71.5t66 -56.5t107.5 -21q103 0 165.5 65t62.5 188zM428 237q0 -84 -38.5 -137.5t-105.5 -53.5t-101 50.5t-34 118.5q0 85 40 155t104 70q58 0 90 -37 t39 -93q6 -32 6 -73z" />
<glyph unicode="c" horiz-adv-x="510" d="M483 340q0 77 -56.5 120.5t-140.5 43.5q-113 0 -178 -68t-65 -177q0 -121 77 -200q55 -54 157.5 -65.5t190.5 32.5v59q-40 -24 -92 -30t-89 0t-57 16q-106 60 -106 201q0 77 44.5 125t114.5 48q57 0 87 -30.5t30 -74.5h83z" />
<glyph unicode="d" horiz-adv-x="550" d="M476 2v711h-73v-302h-2q-42 92 -146 93q-71 1 -125 -40.5t-75 -127.5q-11 -38 -11 -100q0 -107 55 -176t141 -69q75 0 114.5 32t46.5 62h2v-83h73zM395 277q0 -62 -8 -97q-11 -58 -44.5 -95.5t-81.5 -37.5q-65 0 -99 57t-34 129q2 43 6 80q9 63 46 97.5t80 34.5 q46 0 78.5 -31.5t44.5 -68t12 -68.5z" />
<glyph unicode="e" horiz-adv-x="525" d="M482 240v53q0 84 -51.5 147.5t-144.5 63.5q-114 0 -178.5 -67t-64.5 -178q1 -124 78 -201q54 -54 156.5 -65t190.5 33v59q-40 -24 -92 -30t-89 0t-57 17q-94 52 -104 168h356zM401 299h-276q7 69 50 107.5t108 38.5q62 0 90 -45t28 -101z" />
<glyph unicode="f" horiz-adv-x="360" d="M373 639v61q-42 10 -94 10q-102 -3 -144 -61q-28 -43 -28 -131v-32h-90v-59h90v-431h77v431h152v59h-152v53q-1 46 15 76q25 36 85 36q52 -3 89 -12z" />
<glyph unicode="g" horiz-adv-x="550" d="M477 31v464h-77v-82h-2q-16 39 -52 66.5t-93 27.5q-78 0 -130.5 -45t-66.5 -111q-10 -50 -10 -111q0 -109 56 -169.5t144 -60.5q49 0 85 20.5t49 39t18 34.5h2q3 -93 -1 -112q-17 -115 -153 -115q-101 0 -164 35v-76q60 -24 154 -24q119 0 180 52.5t61 166.5zM396 262 q0 -87 -38 -140.5t-98 -53.5q-45 0 -75 27.5t-41.5 63.5t-11.5 77q4 86 5 91q12 59 47.5 91t75.5 32q61 0 98.5 -57t37.5 -131z" />
<glyph unicode="h" horiz-adv-x="545" d="M474 1v360q0 73 -47 107.5t-111 34.5q-32 0 -59 -10t-44.5 -24.5t-32 -33.5t-21.5 -33t-12 -28h-2v338h-72v-711h72v216q0 36 9 72q17 64 59 107t90 43q36 0 59 -20t30.5 -43.5t7.5 -48.5v-326h74z" />
<glyph unicode="i" horiz-adv-x="230" d="M162 611v96h-96v-96h96zM155 -3v490h-80v-490h80z" />
<glyph unicode="j" horiz-adv-x="250" d="M184 614v97h-96v-97h96zM177 1v490h-78v-515q0 -28 -10 -48t-21.5 -29.5t-33 -14.5t-32.5 -5.5t-31 -0.5h-9v-66q46 0 80 7t67 26t50.5 58.5t17.5 97.5z" />
<glyph unicode="k" horiz-adv-x="470" d="M482 2l-255 273l235 217h-100l-217 -205v425h-73v-710h73v253h3l235 -253h99z" />
<glyph unicode="l" horiz-adv-x="230" d="M153 0v710h-76v-710h76z" />
<glyph unicode="m" horiz-adv-x="805" d="M734 2v350q0 73 -40.5 112.5t-106.5 39.5q-36 0 -65 -13.5t-46 -33.5t-26 -36.5t-12 -29.5h-2q-30 113 -144 113q-63 0 -99.5 -40.5t-48.5 -84.5h-2v113h-70v-490h70v202q0 77 31 147q18 38 45 60.5t57 22.5q31 0 51 -14t28.5 -40.5t11 -49t2.5 -56.5v-272h70v202 q2 36 7 73q15 68 49.5 112.5t76.5 44.5q26 0 44.5 -10.5t28 -24.5t14.5 -39t5.5 -41.5t0.5 -44.5v-272h70z" />
<glyph unicode="n" horiz-adv-x="550" d="M475 2v350q0 66 -45 109t-112 43q-40 0 -73 -14t-53 -36t-31 -40t-17 -35h-2v113h-70v-490h70v202q2 39 8 73q19 72 61 116t91 41q29 -2 49.5 -13t31 -24.5t15.5 -38t6 -40.5t1 -44v-272h70z" />
<glyph unicode="o" horiz-adv-x="560" d="M518 246q0 117 -64.5 187t-176.5 70q-114 0 -175.5 -73.5t-61.5 -184.5q0 -118 66 -185.5t173 -67.5q111 0 175 69.5t64 184.5zM434 246q0 -83 -38.5 -139.5t-115.5 -56.5q-79 0 -118.5 55.5t-39.5 139.5q0 87 38.5 143.5t115.5 56.5q81 0 119.5 -57t38.5 -142z" />
<glyph unicode="p" horiz-adv-x="535" d="M499 243q0 123 -57.5 192.5t-145.5 69.5q-59 0 -96 -30.5t-53 -73.5h-2v93h-73v-681h73v278h2q37 -99 144 -99q97 0 152.5 74t55.5 177zM419 244q0 -81 -33 -136.5t-97 -55.5q-47 0 -80.5 35t-46 78.5t-12.5 87.5q0 85 39.5 139t97.5 54q63 0 97.5 -57.5t34.5 -144.5z " />
<glyph unicode="q" horiz-adv-x="540" d="M465 -187v681h-73v-87h-2q-13 39 -50.5 68.5t-96.5 29.5q-88 0 -146.5 -69.5t-58.5 -192.5q0 -103 56 -176.5t151 -73.5q56 0 96.5 30t48.5 64h2v-274h73zM385 254q0 -45 -11.5 -88t-42.5 -78t-77 -35q-64 0 -98.5 55t-37.5 136q0 86 36 144t99 58q53 0 92.5 -54 t39.5 -138z" />
<glyph unicode="r" horiz-adv-x="370" d="M361 427v75q-153 0 -212 -120h-2v109h-73v-490h73v203q2 53 10 90q17 66 75 99.5t129 33.5z" />
<glyph unicode="s" horiz-adv-x="410" d="M381 130q0 43 -28.5 77t-61 49.5t-78 33.5t-57.5 25q-43 27 -43 72q0 29 29.5 44t66.5 15q69 0 140 -33v74q-59 17 -130 17q-87 0 -134 -35t-47 -99q0 -79 86 -119q20 -9 56 -24t52 -22.5t36.5 -20.5t28 -28t7.5 -34q0 -38 -37.5 -55.5t-90.5 -17.5q-26 0 -51.5 6t-41 12 t-31 14t-16.5 8v-77q52 -23 143 -23q111 0 156.5 36.5t45.5 104.5z" />
<glyph unicode="t" horiz-adv-x="355" d="M327 427v59h-144v166l-76 -46v-120h-87v-59h87v-314q0 -124 146 -124q38 0 71 4v62q-20 -6 -57 -6q-52 0 -68 29.5t-16 84.5v264h144z" />
<glyph unicode="u" horiz-adv-x="565" d="M488 4v490h-71v-208q-2 -43 -8 -76q-15 -65 -57.5 -109t-99.5 -44q-108 0 -108 125v312h-73v-350q0 -63 43.5 -107t108.5 -44q79 0 128 35t66 91h2v-115h69z" />
<glyph unicode="v" horiz-adv-x="490" d="M481 492h-74l-154 -394l-166 394h-79l210 -491h71z" />
<glyph unicode="w" horiz-adv-x="700" d="M680 493h-70l-99 -381h-2l-128 381h-63l-127 -381h-2l-98 381h-72l129 -490h76l125 375h2l126 -375h78z" />
<glyph unicode="x" horiz-adv-x="480" d="M471 3l-187 257l169 233h-84l-127 -172l-127 172h-84l167 -233l-188 -257h85l147 198l144 -198h85z" />
<glyph unicode="y" horiz-adv-x="470" d="M461 493h-75l-144 -381h-2l-162 381h-75l203 -483l-73 -198h76z" />
<glyph unicode="z" horiz-adv-x="450" d="M422 3v59h-306l293 365v66h-361v-59h276l-295 -373v-58h393z" />
<glyph unicode="{" horiz-adv-x="450" d="M404 -165v35q-80 20 -101 94q-10 38 -3 89t12 81t-18 77q-27 43 -54 62.5t-60 30.5q76 25 114 90q23 27 10.5 119.5t-1.5 130.5q22 74 101 94v35q-58 -4 -105 -32t-73 -72q-18 -30 -17 -67.5t11.5 -69.5t14 -71.5t-8.5 -73.5q-8 -22 -27.5 -37.5t-33 -20.5t-40.5 -13v-24 q110 -36 110 -118q0 -23 -7.5 -56t-14 -58t-4.5 -58.5t17 -62.5q27 -52 80.5 -79t97.5 -25z" />
<glyph unicode="|" horiz-adv-x="333" d="M201 -126v897h-68v-897h68z" />
<glyph unicode="}" horiz-adv-x="450" d="M323 292v24q-26 7 -40.5 13t-33 21.5t-26.5 37.5q-13 33 -9 73.5t14 71t11 69t-17 67.5q-26 44 -73 72t-105 32v-35q79 -20 101 -94q11 -38 -1.5 -129t10.5 -119q21 -36 42.5 -54t66.5 -40q-21 -9 -35.5 -17t-35 -27.5t-38.5 -48.5q-21 -33 -18 -76.5t12.5 -79.5 t-3.5 -89q-21 -74 -101 -94v-35q44 -2 97.5 25t80.5 79q15 29 17 62.5t-4.5 58.5t-14 58t-7.5 56q0 82 110 118z" />
<glyph unicode="~" horiz-adv-x="585" d="M525 346v59h-60v-42q0 -76 -44 -76q-9 0 -18.5 3.5t-13.5 5.5t-16.5 12t-14.5 11l-104 77q-55 41 -93 40q-52 -1 -76.5 -35.5t-24.5 -84.5v-55h60v47q0 33 13 50t33 17q7 0 12.5 -1t12.5 -5t9.5 -6t11.5 -9t11 -8l107 -79q55 -40 88 -40q34 0 57.5 13.5t33 35t13 38 t3.5 32.5z" />
<glyph unicode="&#xac00;" d="M889 366v68h-169v355h-75v-901h75v478h169zM470 660h-384v-68h301q-24 -125 -121.5 -240t-234.5 -167l51 -51q63 24 128 72t123 114.5t95.5 156t41.5 183.5z" />
<glyph unicode="&#xac01;" d="M881 470v70h-162v249h-75v-569h75v250h162zM461 723h-378v-68h286q-18 -99 -108.5 -197.5t-230.5 -141.5l51 -56q153 53 257 178.5t123 284.5zM706 -159v327h-469v-69h395v-258h74z" />
<glyph unicode="&#xac04;" d="M881 433v69h-162v287h-75v-636h75v280h162zM461 713h-378v-68h286q-12 -63 -52 -129.5t-116 -128.5t-171 -91l51 -56q151 52 255.5 182.5t124.5 290.5zM731 -138v70h-402v240h-75v-310h477z" />
<glyph unicode="&#xac07;" d="M882 470v70h-162v249h-75v-569h75v250h162zM462 723h-378v-68h286q-18 -99 -108.5 -197.5t-230.5 -141.5l51 -56q153 53 257 178.5t123 284.5zM722 -143v69h-403v178h393v68h-469v-315h479z" />
<glyph unicode="&#xac08;" d="M881 498v69h-162v222h-75v-497h75v206h162zM460 733h-378v-68h286q-18 -96 -107.5 -186t-231.5 -133l51 -56q155 54 258 170.5t122 272.5zM726 -148v71h-391v98h370v223h-456v-68h379v-89h-372v-235h470z" />
<glyph unicode="&#xac09;" d="M883 498v69h-163v222h-75v-493h75v202h163zM461 733h-378v-68h286q-18 -96 -107.5 -186t-231.5 -133l51 -56q155 54 258 170.5t122 272.5zM732 -148v394h-270v-71h194v-323h76zM485 -148v71h-263v98h214v225h-298v-68h221v-91h-215v-235h341z" />
<glyph unicode="&#xac0a;" d="M883 498v69h-163v222h-75v-500h75v209h163zM461 733h-378v-68h286q-18 -96 -107.5 -186t-231.5 -133l51 -56q155 54 258 170.5t122 272.5zM728 -148v392h-270v-392h270zM442 -148v71h-232v96h198v225h-279v-68h201v-90h-199v-234h311zM652 -80h-119v255h119v-255z" />
<glyph unicode="&#xac10;" d="M882 464v70h-162v255h-75v-560h75v235h162zM462 723h-378v-68h286q-18 -99 -108.5 -197.5t-230.5 -141.5l51 -56q153 53 257 178.5t123 284.5zM706 -141v320h-457v-320h457zM630 -72h-303v183h303v-183z" />
<glyph unicode="&#xac11;" d="M882 491v69h-162v229h-75v-526h75v228h162zM462 733h-378v-68h286q-18 -96 -107.5 -186t-231.5 -133l51 -56q155 54 258 170.5t122 272.5zM712 -146v372h-78v-124h-312v124h-76v-372h466zM634 -78h-312v112h312v-112z" />
<glyph unicode="&#xac12;" d="M881 486v69h-162v234h-75v-531h75v228h162zM461 733h-378v-68h286q-18 -97 -108 -191.5t-231 -137.5l51 -56q154 53 257.5 174.5t122.5 278.5zM814 -98l-147 151q13 46 13 91v78h-78v-79q0 -69 -33.5 -133.5t-95.5 -92.5v309h-78v-124h-164v124h-76v-372h318v39l33 -40 q32 9 68.5 43.5t63.5 84.5l125 -130zM395 -78h-164v112h164v-112z" />
<glyph unicode="&#xac13;" d="M882 469v70h-162v250h-75v-611h75v291h162zM462 713h-378v-68h286q-12 -63 -52 -129.5t-116 -128.5t-171 -91l51 -56q151 52 255.5 182.5t124.5 290.5zM758 -97q-253 202 -254 202q16 44 16 87v47h-79v-39q0 -91 -65 -173t-176 -116l49 -57q71 23 129 72t95 112l235 -185 z" />
<glyph unicode="&#xac14;" d="M882 480v70h-162v239h-75v-542h75v233h162zM462 723h-378v-68h286q-18 -99 -108.5 -197.5t-230.5 -141.5l51 -56q153 53 257 178.5t123 284.5zM812 -93l-178 162q9 37 10 70v56h-77v-53q0 -61 -25.5 -116t-75.5 -87l-122 122q10 40 13 78v56h-78v-53q0 -75 -44.5 -140 t-120.5 -89l47 -60q99 44 153 137l144 -142q100 43 150 148l157 -141z" />
<glyph unicode="&#xac15;" d="M881 472v69h-162v248h-75v-558h75v241h162zM461 713h-378v-68h286q-18 -99 -108.5 -197.5t-230.5 -141.5l51 -56q153 53 257 178.5t123 284.5zM711 32q0 84 -64.5 138t-156.5 54q-89 0 -155 -56.5t-66 -135.5q0 -83 64 -138t158 -55q91 0 155.5 54.5t64.5 138.5zM634 32 q0 -54 -41.5 -89.5t-102.5 -35.5t-101.5 34.5t-40.5 91.5q0 54 40 89t102 35q65 0 104.5 -33t39.5 -92z" />
<glyph unicode="&#xac16;" d="M879 471v71h-161v247h-74v-532h74v214h161zM460 723h-378v-68h286q-18 -99 -108.5 -197.5t-230.5 -141.5l51 -56q153 53 257 178.5t123 284.5zM772 -88l-217 120q101 86 126 177h-441v-67h315q-58 -77 -162 -139t-215 -86l46 -59q131 29 268 125l235 -129z" />
<glyph unicode="&#xac17;" d="M882 491v69h-162v229h-75v-510h75v212h162zM462 733h-378v-68h286q-18 -96 -107.5 -186t-231.5 -133l51 -56q155 54 258 170.5t122 272.5zM618 230v68q-103 -6 -201 -1q-54 9 -99 24l-23 -57q33 -20 116 -35q81 -3 207 1zM782 -93l-207 102q85 71 119 149h-448v-65h311 q-60 -61 -154 -112.5t-213 -72.5l44 -59q147 27 277 113l223 -111z" />
<glyph unicode="&#xac19;" d="M882 498v69h-162v222h-75v-514h75v223h162zM461 733h-378v-68h286q-18 -96 -107.5 -186t-231.5 -133l51 -56q155 54 258 170.5t122 272.5zM713 -148v68h-395v87h372v69h-372v81h383v68h-458v-373h470z" />
<glyph unicode="&#xac1a;" d="M882 484v70h-162v235h-75v-544h75v239h162zM462 723h-378v-68h286q-18 -99 -108.5 -197.5t-230.5 -141.5l51 -56q153 53 257 178.5t123 284.5zM723 -138v69h-101v200h99v68h-513v-68h96v-200h-98v-69h517zM546 -69h-167v200h167v-200z" />
<glyph unicode="&#xac1b;" d="M881 501v69h-162v219h-75v-505h75v217h162zM461 733h-378v-68h286q-18 -96 -107.5 -186t-231.5 -133l51 -56q155 54 258 170.5t122 272.5zM617 229v68q-117 -6 -201 0q-41 2 -99 24l-23 -57q51 -31 115 -35q80 -4 208 0zM752 95v65h-578v-65h156q-26 -14 -41.5 -42.5 t-15.5 -61.5q0 -67 57 -110.5t137 -43.5q81 0 136.5 41.5t55.5 114.5q0 69 -57 102h150zM577 -5q0 -41 -32.5 -66.5t-78.5 -25.5q-47 0 -79 25.5t-32 66.5q0 40 32 64.5t78 24.5q45 0 78.5 -24.5t33.5 -64.5z" />
<glyph unicode="&#xac1c;" d="M831 -112v902h-74v-356h-148v336h-75v-819h75v414h148v-477h74zM437 661h-350v-69h259q-13 -118 -101.5 -238.5t-211.5 -175.5l59 -50q157 86 245 227t100 306z" />
<glyph unicode="&#xac1d;" d="M831 220v570h-74v-242h-149v221h-76v-528h76v239h149v-260h74zM437 723h-344v-68h256q-20 -104 -95.5 -196.5t-206.5 -143.5l52 -54q145 60 235.5 184t102.5 278zM788 -159v327h-470v-69h396v-258h74z" />
<glyph unicode="&#xac20;" d="M830 147v643h-74v-271h-149v250h-76v-581h76v263h149v-304h74zM436 713h-344v-68h256q-20 -106 -96 -202.5t-206 -147.5l52 -54q144 59 235 188t103 284zM822 -138v70h-403v240h-75v-310h478z" />
<glyph unicode="&#xac24;" d="M831 287v503h-74v-232h-149v211h-76v-462h76v183h149v-203h74zM437 733h-344v-68h256q-20 -104 -95.5 -196.5t-206.5 -143.5l52 -54q145 60 235.5 184t102.5 278zM808 -148v71h-391v98h371v223h-456v-68h378v-89h-373v-235h471z" />
<glyph unicode="&#xac2c;" d="M831 231v559h-74v-242h-149v221h-76v-518h76v229h149v-249h74zM437 723h-344v-68h256q-20 -104 -95.5 -196.5t-206.5 -143.5l52 -54q145 60 235.5 184t102.5 278zM797 -141v320h-457v-320h457zM721 -72h-304v183h304v-183z" />
<glyph unicode="&#xac2d;" d="M830 264v526h-74v-230h-149v209h-76v-484h76v207h149v-228h74zM436 733h-344v-68h256q-20 -104 -95.5 -196.5t-206.5 -143.5l52 -54q145 60 235.5 184t102.5 278zM779 -146v372h-76v-124h-302v124h-78v-372h456zM703 -78h-302v112h302v-112z" />
<glyph unicode="&#xac2f;" d="M831 220v570h-74v-252h-149v231h-76v-507h76v207h149v-249h74zM437 713h-344v-68h256q-20 -104 -95.5 -196.5t-206.5 -143.5l52 -54q145 60 235.5 184t102.5 278zM821 -97q-253 202 -254 202q16 44 16 87v27h-79v-19q0 -91 -65 -173t-176 -116l49 -57q71 23 129 72 t95 112l235 -185z" />
<glyph unicode="&#xac30;" d="M830 232v558h-74v-252h-149v231h-76v-518h76v219h149v-238h74zM436 723h-344v-68h256q-20 -104 -95.5 -196.5t-206.5 -143.5l52 -54q145 60 235.5 184t102.5 278zM869 -93l-178 162q9 37 10 70v56h-77v-53q0 -57 -28 -112t-73 -90l-122 121q11 33 13 78v56h-79v-53 q0 -71 -47 -136.5t-118 -92.5l48 -60q99 44 153 137l144 -142q40 16 82 55t68 93l157 -141z" />
<glyph unicode="&#xac31;" d="M830 221v559h-74v-242h-149v221h-76v-497h76v208h149v-249h74zM436 713h-344v-68h256q-20 -104 -95.5 -196.5t-206.5 -143.5l52 -54q145 60 235.5 184t102.5 278zM779 32q0 84 -64.5 138t-156.5 54q-89 0 -155 -56.5t-66 -135.5q0 -83 64 -138t158 -55q91 0 155.5 54.5 t64.5 138.5zM702 32q0 -54 -41.5 -89.5t-102.5 -35.5t-101.5 34.5t-40.5 91.5q0 54 40 89t102 35q65 0 104.5 -33t39.5 -92z" />
<glyph unicode="&#xac38;" d="M888 221v68h-169v173h169v69h-169v259h-75v-902h75v333h169zM477 660h-384v-68h301q-24 -125 -121.5 -240t-234.5 -167l51 -51q63 24 128 72t123 114.5t95.5 156t41.5 183.5z" />
<glyph unicode="&#xac39;" d="M884 361v68h-166v134h166v68h-166v158h-74v-567h74v139h166zM469 723h-378v-68h286q-18 -99 -108.5 -197.5t-230.5 -141.5l51 -56q153 53 257 178.5t123 284.5zM710 -159v327h-469v-69h395v-258h74z" />
<glyph unicode="&#xac3c;" d="M884 341v68h-166v133h166v68h-166v179h-74v-635h74v187h166zM470 713h-378v-68h286q-12 -63 -52 -129.5t-116 -128.5t-171 -91l51 -56q151 52 255.5 182.5t124.5 290.5zM733 -138v70h-402v240h-75v-310h477z" />
<glyph unicode="&#xac40;" d="M884 396v68h-166v109h166v69h-166v147h-74v-511h74v118h166zM469 733h-378v-68h286q-18 -96 -107.5 -186t-231.5 -133l51 -56q155 54 258 170.5t122 272.5zM726 -148v71h-391v94h370v220h-456v-68h379v-85h-374v-232h472z" />
<glyph unicode="&#xac4b;" d="M884 341v68h-166v134h166v68h-166v178h-74v-609h74v161h166zM465 713h-378v-68h286q-12 -63 -52 -129.5t-116 -128.5t-171 -91l51 -56q151 52 255.5 182.5t124.5 290.5zM751 -97q-253 202 -254 202q16 44 16 87v47h-79v-39q0 -91 -65 -173t-176 -116l49 -57q71 23 129 72 t95 112l235 -185z" />
<glyph unicode="&#xac4d;" d="M884 362v68h-166v133h166v69h-166v157h-74v-555h74v128h166zM465 723h-378v-68h286q-18 -99 -108.5 -197.5t-230.5 -141.5l51 -56q153 53 257 178.5t123 284.5zM715 32q0 84 -64.5 138t-156.5 54q-89 0 -155 -56.5t-66 -135.5q0 -83 64 -138t158 -55q91 0 155.5 54.5 t64.5 138.5zM638 32q0 -54 -41.5 -89.5t-102.5 -35.5t-101.5 34.5t-40.5 91.5q0 54 40 89t102 35q65 0 104.5 -33t39.5 -92z" />
<glyph unicode="&#xac54;" d="M831 -112v902h-74v-239h-153v219h-75v-819h75v290h153v-353h74zM438 661h-350v-69h262q-13 -117 -102.5 -238t-213.5 -177l59 -49q157 86 245 227t100 306zM757 310h-153v171h153v-171z" />
<glyph unicode="&#xac58;" d="M831 147v642h-74v-180h-150v159h-76v-580h76v153h150v-194h74zM436 713h-344v-68h256q-20 -106 -96 -202.5t-206 -147.5l52 -54q144 59 235 188t103 284zM822 -138v70h-403v240h-75v-310h478zM757 410h-150v131h150v-131z" />
<glyph unicode="&#xac5c;" d="M830 287v502h-74v-147h-150v126h-76v-461h76v91h150v-111h74zM435 733h-344v-68h256q-20 -104 -95.5 -196.5t-206.5 -143.5l52 -54q145 60 235.5 184t102.5 278zM806 -148v71h-391v98h366v223h-451v-68h373v-89h-368v-235h471zM756 466h-150v107h150v-107z" />
<glyph unicode="&#xac70;" horiz-adv-x="850" d="M741 -112v902h-74v-355h-206v-69h206v-478h74zM463 660h-384v-68h301q-24 -125 -121.5 -240t-234.5 -167l51 -51q63 24 128 72t123 114.5t95.5 156t41.5 183.5z" />
<glyph unicode="&#xac71;" horiz-adv-x="850" d="M743 220v570h-74v-265h-206v-68h206v-237h74zM453 723h-378v-68h286q-18 -99 -108.5 -197.5t-230.5 -141.5l51 -56q153 53 257 178.5t123 284.5zM730 -159v327h-469v-69h395v-258h74z" />
<glyph unicode="&#xac74;" horiz-adv-x="850" d="M751 157v633h-74v-286h-206v-69h206v-278h74zM461 713h-378v-68h284q-12 -63 -51.5 -129.5t-115.5 -128.5t-170 -91l51 -56q151 52 255.5 182.5t124.5 290.5zM763 -138v70h-402v240h-77v-310h479z" />
<glyph unicode="&#xac77;" horiz-adv-x="850" d="M750 220v570h-74v-265h-206v-68h206v-237h74zM460 723h-378v-68h284q-18 -99 -107.5 -197.5t-229.5 -141.5l51 -56q153 53 257 178.5t123 284.5zM744 -143v69h-403v178h392v69l-467 -1v-315h478z" />
<glyph unicode="&#xac78;" horiz-adv-x="850" d="M735 294v496h-74v-233h-206v-68h206v-195h74zM445 733h-378v-68h284q-18 -98 -107 -192t-230 -137l51 -56q154 53 257.5 174.5t122.5 278.5zM738 -148v71h-390v98h370v223h-456v-68h378v-89h-373v-235h471z" />
<glyph unicode="&#xac7a;" horiz-adv-x="850" d="M757 288v502h-74v-233h-206v-68h206v-201h74zM467 733h-378v-68h284q-18 -96 -106.5 -186t-230.5 -133l51 -56q155 54 258 170.5t122 272.5zM757 -148v390h-268v-390h268zM475 -148v71h-231v96h201v225h-280v-68h202v-90h-200v-234h308zM681 -80h-116v253h116v-253z" />
<glyph unicode="&#xac80;" horiz-adv-x="850" d="M736 227v562h-74v-264h-206v-68h206v-230h74zM446 723h-378v-68h284q-18 -98 -109 -197t-228 -142l51 -56q153 53 257 178.5t123 284.5zM717 -141v320h-457v-320h457zM640 -72h-304v183h304v-183z" />
<glyph unicode="&#xac81;" horiz-adv-x="850" d="M736 273v516h-74v-242h-206v-69h206v-205h74zM446 733h-378v-68h284q-18 -95 -107.5 -190.5t-229.5 -138.5l51 -56q154 53 257.5 174.5t122.5 278.5zM716 -146v372h-77v-124h-303v124h-76v-372h456zM639 -78h-303v112h303v-112z" />
<glyph unicode="&#xac83;" horiz-adv-x="850" d="M742 168v621h-74v-274h-206v-68h206v-279h74zM452 713h-378v-68h285q-19 -98 -109 -197t-229 -142l51 -56q153 53 257 178.5t123 284.5zM758 -97q-253 202 -254 202q16 44 16 87v47h-79v-39q0 -91 -65 -173t-176 -116l49 -57q71 23 129 72t95 112l235 -185z" />
<glyph unicode="&#xac84;" horiz-adv-x="850" d="M744 242v547h-74v-264h-206v-68h206v-215h74zM454 723h-378v-68h285q-18 -99 -108 -197.5t-230 -141.5l51 -56q153 53 257 178.5t123 284.5zM812 -93l-178 162q9 37 10 70v56h-77v-53q0 -61 -25.5 -116t-75.5 -87l-122 122q10 40 13 78v56h-78v-53q0 -75 -44.5 -140 t-120.5 -89l47 -60q99 44 153 137l144 -142q100 43 150 148l157 -141z" />
<glyph unicode="&#xac85;" horiz-adv-x="850" d="M743 231v558h-74v-264h-206v-68h206v-226h74zM453 723h-378v-68h286q-18 -99 -108.5 -197.5t-230.5 -141.5l51 -56q153 53 257 178.5t123 284.5zM723 32q0 84 -64.5 138t-156.5 54q-89 0 -155 -56.5t-66 -135.5q0 -83 64 -138t158 -55q91 0 155.5 54.5t64.5 138.5z M646 32q0 -54 -41.5 -89.5t-102.5 -35.5t-101.5 34.5t-40.5 91.5q0 54 40 89t102 35q65 0 104.5 -33t39.5 -92z" />
<glyph unicode="&#xac86;" horiz-adv-x="850" d="M736 254v535h-74v-264h-206v-68h206v-203h74zM446 723h-378v-68h286q-18 -99 -108.5 -197.5t-230.5 -141.5l51 -56q153 53 257 178.5t123 284.5zM778 -88l-217 120q101 86 126 177h-441v-67h315q-58 -77 -162 -139t-215 -86l46 -59q131 29 268 125l235 -129z" />
<glyph unicode="&#xac89;" horiz-adv-x="850" d="M757 275v514h-74v-242h-206v-69h206v-203h74zM467 733h-378v-68h284q-21 -97 -109 -191t-228 -137l51 -57q154 53 257.5 174.5t122.5 278.5zM745 -148v68h-395v87h373v69h-373v81h384v68h-458v-373h469z" />
<glyph unicode="&#xac8a;" horiz-adv-x="850" d="M743 259v530h-74v-264h-206v-68h206v-198h74zM453 723h-378v-68h286q-18 -99 -108.5 -197.5t-230.5 -141.5l51 -56q153 53 257 178.5t123 284.5zM734 -138v69h-101v200h99v68h-513v-68h96v-200h-98v-69h517zM557 -69h-167v200h167v-200z" />
<glyph unicode="&#xac8b;" horiz-adv-x="850" d="M735 305v484h-74v-232h-206v-68h206v-184h74zM445 733h-378v-68h283q-18 -93 -106.5 -184.5t-229.5 -134.5l51 -56q155 54 258 170.5t122 272.5zM753 95v65h-578v-65h156q-26 -14 -41.5 -42.5t-15.5 -61.5q0 -67 57 -110.5t137 -43.5q81 0 136.5 41.5t55.5 114.5 q0 69 -57 102h150zM578 -5q0 -41 -32.5 -66.5t-78.5 -25.5q-47 0 -79 25.5t-32 66.5q0 40 32 64.5t78 24.5q45 0 78.5 -24.5t33.5 -64.5zM623 230v68q-108 -6 -201 1q-41 2 -99 24l-23 -57q51 -31 115 -35q91 -5 208 -1z" />
<glyph unicode="&#xac8c;" d="M811 -112v902h-74v-902h74zM619 -49v819h-74v-335h-182v-69h182v-415h74zM407 661h-340v-69h249q-12 -116 -95.5 -236.5t-197.5 -178.5l59 -51q148 90 230.5 232t94.5 303z" />
<glyph unicode="&#xac90;" d="M802 147v643h-74v-643h74zM615 188v581h-75v-261h-181v-68h181v-252h75zM408 713h-344v-68h255q-20 -104 -95 -196t-206 -143l52 -55q145 60 235.5 184t102.5 278zM794 -138v70h-403v240h-75v-310h478z" />
<glyph unicode="&#xac94;" d="M802 287v503h-74v-503h74zM615 307v462h-75v-216h-178q39 86 46 180h-344v-68h256q-20 -104 -95.5 -196.5t-206.5 -143.5l52 -54q97 40 171.5 111.5t117.5 163.5v-62h181v-177h75zM779 -148v71h-391v98h371v223h-456v-68h378v-89h-373v-235h471z" />
<glyph unicode="&#xac9c;" d="M802 231v559h-74v-559h74zM615 251v518h-75v-243h-181v-68h181v-207h75zM408 723h-344v-68h256q-20 -104 -95.5 -196.5t-206.5 -143.5l52 -54q145 60 235.5 184t102.5 278zM768 -141v320h-457v-320h457zM692 -72h-304v183h304v-183z" />
<glyph unicode="&#xac9d;" d="M809 264v526h-74v-526h74zM622 285v484h-75v-221h-180q41 91 48 185h-344v-68h256q-23 -102 -98 -196t-204 -144l52 -54q97 40 171.5 111.5t117.5 163.5v-67h181v-194h75zM758 -146v372h-76v-124h-302v124h-78v-372h456zM682 -78h-302v112h302v-112z" />
<glyph unicode="&#xac9f;" d="M811 210v580h-74v-580h74zM624 261v508h-75v-253h-181v-68h181v-187h75zM407 713h-344v-68h256q-20 -101 -96 -195t-206 -145l52 -54q145 60 235.5 184t102.5 278zM801 -97q-253 202 -254 202q16 44 16 87v27h-79v-19q0 -91 -65 -173t-176 -116l49 -57q71 23 129 72 t95 112l235 -185z" />
<glyph unicode="&#xaca0;" d="M806 242v548h-74v-548h74zM619 261v508h-75v-243h-181v-68h181v-197h75zM402 723h-344v-68h256q-20 -104 -95.5 -196.5t-206.5 -143.5l52 -54q145 60 235.5 184t102.5 278zM835 -93l-178 162q9 37 10 70v56h-77v-53q0 -57 -28 -112t-73 -90l-122 121q11 33 13 78v56h-79 v-53q0 -71 -47 -136.5t-118 -92.5l48 -60q99 44 153 137l144 -142q40 16 82 55t68 93l157 -141z" />
<glyph unicode="&#xaca1;" d="M807 231v559h-74v-559h74zM620 272v497h-75v-243h-181v-68h181v-186h75zM392 723h-333v-68h246q-21 -102 -93 -196t-199 -144l52 -54q145 67 230 186t97 276zM770 32q0 84 -64.5 138t-156.5 54q-89 0 -155 -56.5t-66 -135.5q0 -83 64 -138t158 -55q91 0 155.5 54.5 t64.5 138.5zM693 32q0 -54 -41.5 -89.5t-102.5 -35.5t-101.5 34.5t-40.5 91.5q0 54 40 89t102 35q65 0 104.5 -33t39.5 -92z" />
<glyph unicode="&#xaca8;" horiz-adv-x="850" d="M752 -112v902h-75v-266h-206v-68h206v-147h-206v-68h206v-353h75zM452 660h-384v-68h301q-24 -125 -121.5 -240t-234.5 -167l51 -51q63 24 128 72t123 114.5t95.5 156t41.5 183.5z" />
<glyph unicode="&#xaca9;" horiz-adv-x="850" d="M743 212v577h-73v-178h-204v-68h204v-124h-204v-68h204v-139h73zM453 723h-378v-68h285q-18 -99 -108 -197.5t-230 -141.5l51 -56q153 53 257 178.5t123 284.5zM726 -159v327h-469v-69h395v-258h74z" />
<glyph unicode="&#xacaa;" horiz-adv-x="850" d="M750 224v565h-73v-178h-204v-68h204v-113h-204v-68h204v-138h73zM460 723h-378v-68h286q-18 -99 -108.5 -197.5t-230.5 -141.5l51 -56q153 53 257 178.5t123 284.5zM747 -159v337h-258v-69h184v-268h74zM464 -159v337h-281v-69h206v-268h75z" />
<glyph unicode="&#xacac;" horiz-adv-x="850" d="M738 154v635h-73v-199h-204v-69h204v-133h-204v-69h204v-165h73zM449 713h-378v-68h286q-12 -63 -52 -129.5t-116 -128.5t-171 -91l51 -56q151 52 255.5 182.5t124.5 290.5zM747 -138v70h-402v240h-77v-310h479z" />
<glyph unicode="&#xacaf;" horiz-adv-x="850" d="M750 222v568h-73v-179h-204v-68h204v-124h-204v-68h204v-129h73zM460 723h-378v-68h283q-18 -100 -107 -198t-229 -141l51 -56q153 53 257 178.5t123 284.5zM740 -143v69h-403v178h392v69l-467 -1v-315h478z" />
<glyph unicode="&#xacb0;" horiz-adv-x="850" d="M737 288v502h-73v-158h-204v-69h204v-102h-204v-68h204v-105h73zM443 733h-378v-68h282q-18 -98 -106 -192t-229 -137l51 -56q154 53 257.5 174.5t122.5 278.5zM739 -148v71h-390v98h365v223h-451v-68h373v-89h-368v-235h471z" />
<glyph unicode="&#xacb8;" horiz-adv-x="850" d="M743 222v567h-73v-178h-204v-68h204v-113h-204v-68h204v-140h73zM453 723h-378v-68h285q-18 -99 -108 -197.5t-230 -141.5l51 -56q153 53 257 178.5t123 284.5zM727 -141v320h-457v-320h457zM651 -72h-303v183h303v-183z" />
<glyph unicode="&#xacb9;" horiz-adv-x="850" d="M738 269v520h-73v-157h-204v-69h204v-108h-204v-68h204v-118h73zM444 733h-378v-68h284q-18 -98 -107 -192t-230 -137l51 -56q154 53 257.5 174.5t122.5 278.5zM714 -146v372h-77v-124h-303v124h-76v-372h456zM637 -78h-303v112h303v-112z" />
<glyph unicode="&#xacbb;" horiz-adv-x="850" d="M749 170v620h-73v-190h-204v-68h204v-113h-204v-68h204v-181h73zM459 713h-378v-68h284q-18 -99 -108.5 -197.5t-228.5 -141.5l51 -56q153 53 257 178.5t123 284.5zM765 -97q-253 202 -254 202q16 44 16 87v47h-79v-39q0 -91 -65 -173t-176 -116l49 -57q71 23 129 72 t95 112l235 -185z" />
<glyph unicode="&#xacbc;" horiz-adv-x="850" d="M736 234v556h-73v-179h-204v-68h204v-113h-204v-68h204v-128h73zM446 723h-378v-68h286q-18 -99 -108.5 -197.5t-230.5 -141.5l51 -56q153 53 257 178.5t123 284.5zM804 -93l-178 162q9 37 10 70v56h-77v-53q0 -61 -25.5 -116t-75.5 -87l-122 122q10 40 13 78v56h-78v-53 q0 -75 -44.5 -140t-120.5 -89l47 -60q99 44 153 137l144 -142q100 43 150 148l157 -141z" />
<glyph unicode="&#xacbd;" horiz-adv-x="850" d="M743 225v565h-73v-179h-204v-68h204v-121h-204v-68h204v-129h73zM453 723h-378v-68h286q-18 -99 -108.5 -197.5t-230.5 -141.5l51 -56q153 53 257 178.5t123 284.5zM723 32q0 84 -64.5 138t-156.5 54q-89 0 -155 -56.5t-66 -135.5q0 -83 64 -138t158 -55q91 0 155.5 54.5 t64.5 138.5zM646 32q0 -54 -41.5 -89.5t-102.5 -35.5t-101.5 34.5t-40.5 91.5q0 54 40 89t102 35q65 0 104.5 -33t39.5 -92z" />
<glyph unicode="&#xacc1;" horiz-adv-x="850" d="M736 264v526h-73v-169h-204v-68h204v-112h-204v-69h204v-108h73zM446 733h-378v-68h282q-18 -98 -106 -192t-229 -137l51 -56q154 53 257.5 174.5t122.5 278.5zM730 -148v68h-394v87h372v69h-372v81h383v68h-458v-373h469z" />
<glyph unicode="&#xacc4;" d="M811 -112v902h-74v-902h74zM620 -49v819h-75v-261h-166q24 79 28 152h-340v-69h249q-12 -116 -95.5 -236.5t-197.5 -178.5l59 -51q207 124 288 356v-41h175v-146h-177v-69h177v-275h75z" />
<glyph unicode="&#xacc8;" d="M809 147v643h-74v-643h74zM623 188v581h-75v-186h-160q22 65 26 130h-344v-68h256q-20 -104 -95.5 -196.5t-206.5 -143.5l52 -54q95 39 168.5 108.5t116.5 158.5v-4h187v-115h-187v-68h187v-143h75zM796 -138v70h-403v240h-75v-310h478z" />
<glyph unicode="&#xaccc;" d="M809 279v511h-74v-511h74zM623 296v473h-75v-145h-154q16 55 20 109h-344v-68h256q-20 -104 -95.5 -196.5t-206.5 -143.5l52 -54q100 42 175.5 116t117.5 169h179v-100h-187v-68h187v-92h75zM785 -148v71h-391v93h371v223h-456v-68h378v-89h-373v-230h471z" />
<glyph unicode="&#xacd5;" d="M802 269v521h-74v-521h74zM616 286v483h-75v-145h-154q16 55 20 109h-344v-68h256q-20 -104 -95.5 -196.5t-206.5 -143.5l52 -54q100 42 175.5 116t117.5 169h179v-100h-187v-68h187v-102h75zM768 -146v372h-77v-124h-303v124h-76v-372h456zM691 -78h-303v112h303v-112z " />
<glyph unicode="&#xacd7;" d="M805 213v577h-74v-577h74zM619 261v508h-75v-186h-166q22 65 26 130h-344v-68h256q-20 -104 -95.5 -196.5t-206.5 -143.5l52 -54q99 41 174 113.5t117 165.5v-16h187v-110h-187v-68h187v-75h75zM790 -97q-253 202 -254 202q16 44 16 87v27h-79v-19q0 -91 -65 -173 t-176 -116l49 -57q71 23 129 72t95 112l235 -185z" />
<glyph unicode="&#xace0;" d="M689 496v189h-500v-68h425v-110q0 -183 -52 -299h79q48 108 48 288zM866 3v69h-444v308h-76v-308h-326v-69h846z" />
<glyph unicode="&#xace1;" d="M680 752h-473v-69h395q0 -174 -28 -272h78q11 45 19.5 145t8.5 196zM873 285v67h-438v175h-77v-175h-332v-67h847zM678 -159v326h-470v-69h395v-257h75z" />
<glyph unicode="&#xace4;" d="M680 752h-473v-69h395q0 -62 -7.5 -149t-20.5 -134h78q11 45 19.5 150t8.5 202zM873 263v67h-439v193h-77v-193h-331v-67h847zM703 -137v70h-409v217h-75v-287h484z" />
<glyph unicode="&#xace7;" d="M680 752h-473v-69h395q0 -171 -28 -269h78q11 45 19.5 143.5t8.5 194.5zM873 288v67h-438v175h-77v-175h-332v-67h847zM695 -143v69h-402v178h392v68h-469v-315h479z" />
<glyph unicode="&#xace8;" d="M680 763h-473v-68h395q0 -152 -28 -250h78q28 110 28 318zM873 322v68h-438v171h-77v-171h-332v-68h847zM702 -148v70h-399v89h374v222h-459v-68h380v-88h-373v-225h477z" />
<glyph unicode="&#xacea;" d="M684 763h-474v-68h395q0 -152 -28 -250h78q29 114 29 318zM873 322v68h-435v171h-76v-171h-336v-68h847zM743 -148v370h-268v-370h268zM460 -148v71h-229v87h194v217h-274v-67h197v-84h-195v-224h307zM666 -80h-115v234h115v-234z" />
<glyph unicode="&#xacec;" d="M686 763h-474v-68h396q0 -149 -29 -250h78q29 114 29 318zM873 322v68h-433v171h-76v-171h-338v-68h847zM807 -98l-147 151q13 46 13 91v78h-78v-79q0 -66 -32 -127.5t-90 -92.5h-232v87h206v217h-286v-67h208v-84h-206v-224h313v29l23 -28q33 9 70 44t62 84l125 -130z " />
<glyph unicode="&#xacef;" d="M685 763h-474v-68h396q0 -141 -29 -242h78q29 116 29 310zM873 330v68h-434v171h-76v-171h-337v-68h847zM813 58v62h-379v-62h100q-26 -7 -46.5 -36t-20.5 -63q0 -58 44 -90.5t110 -33.5t111 33t45 93q0 34 -19 60t-47 37h102zM455 -148v71h-236v87h196v217h-275v-67h198 v-84h-196v-224h313zM701 -41q-1 -30 -23 -46t-57 -15q-33 1 -54.5 17t-22.5 46t23 48t57 17q34 -1 56 -18.5t21 -48.5zM735 175v66q-90 -9 -147 0q-53 6 -86 21l-23 -54q39 -25 104 -33q63 -9 152 0z" />
<glyph unicode="&#xacf0;" d="M680 752h-473v-69h395q0 -171 -28 -269h78q11 45 19.5 143.5t8.5 194.5zM873 282v68h-438v175h-77v-175h-332v-68h847zM688 -141v309h-469v-309h469zM611 -72h-314v172h314v-172z" />
<glyph unicode="&#xacf1;" d="M683 763h-474v-68h395q0 -158 -28 -256h78q29 116 29 324zM873 311v67h-436v172h-76v-172h-335v-67h847zM688 -146v372h-77v-124h-313v124h-77v-372h467zM611 -78h-313v112h313v-112z" />
<glyph unicode="&#xacf3;" d="M680 752h-473v-69h395q0 -174 -28 -272h78q11 45 19.5 145t8.5 196zM873 277v68h-438v191h-77v-191h-332v-68h847zM738 -90l-263 180q16 45 16 84v28h-77v-20q0 -85 -66 -158.5t-179 -107.5l49 -58q146 45 225 169l247 -171z" />
<glyph unicode="&#xacf5;" d="M686 752h-474v-69h396q0 -59 -7.5 -141.5t-21.5 -130.5h78q12 45 20.5 145.5t8.5 195.5zM873 291v67h-433v174h-76v-174h-338v-67h847zM680 32q0 86 -66 137.5t-164 51.5q-96 0 -161.5 -53.5t-65.5 -136.5q0 -88 65.5 -136.5t161.5 -48.5t163 50.5t67 135.5zM602 32 q0 -57 -45 -89t-107 -32q-61 0 -105 32t-44 89q0 55 42.5 88.5t106.5 33.5q66 0 109 -32t43 -90z" />
<glyph unicode="&#xacf6;" d="M680 752h-473v-69h395q0 -163 -28 -262h78q28 112 28 331zM873 302v66h-438v175h-77v-175h-332v-66h847zM761 -89l-216 121q103 86 126 171h-447v-66h320q-52 -72 -161.5 -133.5t-221.5 -84.5l46 -59q62 13 135.5 46t139.5 78l234 -130z" />
<glyph unicode="&#xacfc;" horiz-adv-x="920" d="M905 366v68h-169v356h-75v-902h75v478h169zM502 679h-420v-68h339q0 -202 -38 -308h80q39 140 39 376zM623 145v67q-67 -14 -167.5 -23.5t-177.5 -8.5v242h-75v-242h-188v-68h192q108 0 192 5.5t119 10.5t105 17z" />
<glyph unicode="&#xacfd;" horiz-adv-x="920" d="M895 477v71h-159v241h-75v-577h75v265h159zM496 723h-398v-68h320q-3 -142 -35 -243h76q22 74 29.5 139.5t7.5 171.5zM619 290v65q-113 -22 -340 -28v194h-75v-194h-179v-68h183q43 0 82.5 1t68 2t60.5 3.5t48.5 3.5t44.5 5t37 5t36.5 5.5t33.5 5.5zM724 -159v316h-469 v-69h395v-247h74z" />
<glyph unicode="&#xad00;" horiz-adv-x="920" d="M897 453v69h-163v268h-75v-657h75v320h163zM494 712h-398v-68h320q-3 -157 -35 -257h76q37 126 37 325zM617 264v64q-95 -18 -340 -25v199h-75v-199h-179v-68h183q49 0 91 0.5t80 3t60 3.5t56 5l42.5 5t44 6.5t37.5 5.5zM747 -138v70h-403v219h-75v-289h478z" />
<glyph unicode="&#xad04;" horiz-adv-x="920" d="M897 501v69h-163v220h-75v-509h75v220h163zM494 733h-398v-68h320q-2 -118 -35 -221h76q37 101 37 289zM617 333v67q-65 -13 -166 -21.5t-174 -6.5v170h-75v-170h-179v-67h183q39 0 73 0.5t65 1.5t53 2t49 3.5t39.5 3.5t38 4t31.5 4t32.5 5t29.5 4zM740 -148v71h-392v92 h366v219h-451v-68h374v-84h-368v-230h471z" />
<glyph unicode="&#xad06;" horiz-adv-x="920" d="M907 501v69h-163v220h-75v-515h75v226h163zM504 733h-398v-68h320q-2 -118 -35 -221h76q37 101 37 289zM627 333v67q-65 -13 -166 -21.5t-174 -6.5v170h-75v-170h-179v-67h183q39 0 73 0.5t65 1.5t53 2t49 3.5t39.5 3.5t38 4t31.5 4t32.5 5t29.5 4zM746 -148v369h-271 v-369h271zM460 -148v71h-232v86h197v217h-278v-67h201v-84h-199v-223h311zM669 -80h-118v233h118v-233z" />
<glyph unicode="&#xad0c;" horiz-adv-x="920" d="M894 477v71h-159v241h-75v-571h75v259h159zM495 723h-398v-68h320q-3 -138 -35 -239h76q22 75 29.5 138.5t7.5 168.5zM619 300v65q-102 -20 -341 -26v182h-75v-182h-178v-69h182q57 0 108 1.5t82 3t72 6t53.5 6t52 7t44.5 6.5zM726 -141v311h-457v-311h457zM649 -72h-304 v174h304v-174z" />
<glyph unicode="&#xad0d;" horiz-adv-x="920" d="M896 501v69h-163v220h-75v-523h75v234h163zM493 733h-398v-68h320q-2 -119 -35 -222h76q22 76 29.5 132t7.5 158zM617 321v67q-65 -13 -165.5 -21.5t-175.5 -7.5v170h-75v-170h-178v-67h182q49 0 91 0.5t79.5 3t60.5 3.5t56 5t43 5.5t44 6t38 5.5zM723 -146v368h-77v-120 h-303v120h-76v-368h456zM646 -78h-303v112h303v-112z" />
<glyph unicode="&#xad0f;" horiz-adv-x="920" d="M894 477v71h-159v241h-75v-609h75v297h159zM495 723h-398v-68h320q-3 -142 -35 -243h76q22 74 29.5 139.5t7.5 171.5zM619 290v65q-115 -22 -341 -28v194h-75v-194h-178v-68h182q49 0 91 0.5t80 3t60 4t56.5 6t42.5 5t44.5 6.5t37.5 6zM775 -94l-254 181q15 43 15 89v32 h-78v-29q0 -85 -65 -159t-176 -109l49 -58q147 47 223 168l59 -42l118 -84l59 -42z" />
<glyph unicode="&#xad11;" horiz-adv-x="920" d="M894 477v71h-159v241h-75v-573h75v261h159zM495 723h-398v-68h320q-3 -140 -35 -241h76q22 75 29.5 139.5t7.5 169.5zM619 295v65q-94 -18 -341 -28v189h-75v-189h-178v-68h182q49 0 91 0.5t80 3t60 4t56.5 6t42.5 5t44.5 6.5t37.5 6zM737 31q0 83 -65 135.5t-158 52.5 q-90 0 -156 -53t-66 -135q0 -84 66 -137t156 -53q92 0 157.5 53t65.5 137zM661 31q0 -55 -44.5 -86.5t-102.5 -31.5t-102 32.5t-44 85.5q0 55 43.5 86.5t102.5 31.5q58 0 102.5 -32.5t44.5 -85.5z" />
<glyph unicode="&#xad18;" horiz-adv-x="920" d="M843 -112v902h-74v-356h-122v336h-75v-819h75v414h122v-477h74zM465 679h-370v-68h289q0 -202 -38 -308h80q39 140 39 376zM541 145v67q-131 -34 -268 -32v247h-74v-247h-166v-68h159q65 0 112 1.5t82.5 5.5t54 7t51.5 9.5t49 9.5z" />
<glyph unicode="&#xad1c;" horiz-adv-x="920" d="M835 137v653h-75v-271h-122v250h-75v-591h75v273h122v-314h75zM453 712h-356v-68h278q-3 -157 -35 -257h76q37 126 37 325zM535 264v64q-116 -22 -278 -25v199h-74v-199h-149v-68h153q83 0 142 3t84 6t63.5 10t58.5 10zM821 -138v70h-402v219h-76v-289h478z" />
<glyph unicode="&#xad20;" horiz-adv-x="920" d="M835 267v523h-75v-222h-122v201h-75v-482h75v213h122v-233h75zM453 733h-356v-68h278q-2 -124 -35 -226h76q22 76 29.5 134t7.5 160zM535 333v65q-114 -23 -278 -26v172h-74v-172h-149v-68h153q83 0 142 3t84 6t63.5 10t58.5 10zM810 -148v71h-391v92h366v219h-451v-68 h373v-84h-368v-230h471z" />
<glyph unicode="&#xad29;" horiz-adv-x="920" d="M835 257v533h-75v-222h-122v201h-75v-492h75v223h122v-243h75zM453 733h-356v-68h278q-3 -141 -35 -229h76q37 112 37 297zM535 317v65q-114 -23 -278 -26v172h-74v-172h-149v-68h153q57 0 104 1.5t75 3t59 5.5t41 5.5t37 7t32 6.5zM796 -146v368h-77v-120h-309v120h-76 v-368h462zM719 -78h-309v112h309v-112z" />
<glyph unicode="&#xad2c;" horiz-adv-x="920" d="M833 220v570h-75v-242h-122v221h-75v-528h75v238h122v-259h75zM451 723h-356v-68h278q-3 -137 -34 -237h76q22 74 29 136.5t7 168.5zM533 292v64q-127 -24 -278 -27v184h-74v-184h-149v-68h153q83 0 142.5 3t84 6.5t63 11t58.5 10.5zM858 -93l-178 162q9 37 10 70v46h-78 v-43q0 -60 -26.5 -115.5t-74.5 -86.5l-121 119q8 26 12 80v46h-77v-43q0 -68 -44.5 -132.5t-124.5 -99.5l50 -57q41 19 82 54.5t67 84.5l147 -144q101 44 152 148l156 -141z" />
<glyph unicode="&#xad2d;" horiz-adv-x="920" d="M845 221v569h-75v-242h-122v221h-75v-518h75v228h122v-258h75zM463 723h-356v-68h278q-3 -137 -34 -237h76q22 74 29 136.5t7 168.5zM545 294v64q-127 -24 -278 -27v184h-74v-184h-149v-68h153q83 0 142.5 3t84 6.5t63 11t58.5 10.5zM797 31q0 83 -65 135.5t-158 52.5 q-90 0 -156 -53t-66 -135q0 -84 66 -137t156 -53q92 0 157.5 53t65.5 137zM721 31q0 -55 -44.5 -86.5t-102.5 -31.5t-102 32.5t-44 85.5q0 55 43.5 86.5t102.5 31.5q58 0 102.5 -32.5t44.5 -85.5z" />
<glyph unicode="&#xad34;" horiz-adv-x="870" d="M783 -112v902h-75v-902h75zM539 679h-426v-68h345q0 -204 -39 -308h81q39 140 39 376zM670 145v67q-67 -14 -173 -23.5t-183 -8.5v247h-74v-247h-203v-68h207q108 0 193.5 5.5t125.5 11t107 16.5z" />
<glyph unicode="&#xad35;" horiz-adv-x="870" d="M768 202v587h-74v-587h74zM518 723h-404v-68h326q-3 -143 -36 -243h78q21 76 28.5 141.5t7.5 169.5zM652 290v65q-114 -22 -354 -28v194h-74v-194h-192v-68h196q109 0 199 6t121.5 10t103.5 15zM747 -159v316h-470v-69h396v-247h74z" />
<glyph unicode="&#xad38;" horiz-adv-x="870" d="M771 133v657h-74v-657h74zM521 712h-404v-68h326q-3 -158 -36 -257h78q36 132 36 325zM655 264v64q-96 -18 -354 -25v199h-74v-199h-192v-68h196q109 0 199.5 5.5t121 9.5t103.5 14zM784 -138v70h-402v219h-76v-289h478z" />
<glyph unicode="&#xad3c;" horiz-adv-x="870" d="M778 281v509h-75v-509h75zM527 733h-404v-68h326q-2 -124 -36 -225h79q21 77 28 134t7 159zM661 330v67q-65 -13 -170.5 -21.5t-181.5 -7.5v174h-74v-174h-194v-66h198q224 0 422 28zM772 -148v71h-390v92h365v219h-451v-68h373v-84h-368v-230h471z" />
<glyph unicode="&#xad44;" horiz-adv-x="870" d="M765 222v567h-74v-567h74zM515 723h-398v-68h320q-3 -139 -36 -239h78q21 77 28.5 140.5t7.5 166.5zM648 296v65q-101 -19 -351 -26v182h-74v-182h-189v-69h193q43 0 83 1t68.5 2t62.5 3.5t50 3.5t47 5t38 5l38.5 5.5t33.5 4.5zM745 -141v311h-457v-311h457zM669 -72 h-303v174h303v-174z" />
<glyph unicode="&#xad45;" horiz-adv-x="870" d="M768 266v524h-75v-524h75zM517 733h-404v-68h326q-2 -124 -36 -225h79q21 77 28 134t7 159zM651 317v67q-65 -13 -170.5 -21.5t-181.5 -7.5v174h-74v-174h-194v-66h198q224 0 422 28zM747 -146v368h-76v-120h-302v120h-78v-368h456zM671 -78h-302v112h302v-112z" />
<glyph unicode="&#xad47;" horiz-adv-x="870" d="M766 187v603h-75v-603h75zM514 723h-403v-68h325q-3 -143 -36 -243h78q21 76 28.5 141.5t7.5 169.5zM648 291v65q-115 -22 -352 -28v191h-74v-191h-193v-68h197q109 0 199 6t120 10t103 15zM791 -94l-254 181q15 43 15 89v32h-78v-29q0 -85 -65 -159t-176 -109l49 -58 q147 47 223 168l59 -42l118 -84l59 -42z" />
<glyph unicode="&#xad49;" horiz-adv-x="870" d="M769 230v560h-75v-560h75zM517 723h-404v-68h326q-3 -141 -36 -241h78q21 76 28.5 141t7.5 168zM651 303v64q-102 -19 -352 -26v185h-74v-185h-194v-69h198q109 0 199 6t120 10t103 15zM754 31q0 83 -65 135.5t-158 52.5q-90 0 -156 -53t-66 -135q0 -84 66 -137t156 -53 q92 0 157.5 53t65.5 137zM678 31q0 -55 -44.5 -86.5t-102.5 -31.5t-102 32.5t-44 85.5q0 55 43.5 86.5t102.5 31.5q58 0 102.5 -32.5t44.5 -85.5z" />
<glyph unicode="&#xad50;" d="M701 496v189h-500v-68h425v-110q0 -183 -52 -299h79q48 108 48 288zM873 3v69h-356v280h-74v-280h-114v280h-76v-280h-226v-69h846z" />
<glyph unicode="&#xad54;" d="M680 752h-473v-69h395q0 -62 -7.5 -149t-20.5 -134h78q11 45 19.5 150t8.5 202zM873 249v67h-356v203h-75v-203h-103v203h-76v-203h-237v-67h847zM703 -137v70h-409v217h-75v-287h484z" />
<glyph unicode="&#xad58;" d="M680 763h-473v-68h395q0 -152 -28 -250h78q28 110 28 318zM873 314v67h-356v182h-75v-182h-103v182h-76v-182h-237v-67h847zM702 -148v70h-399v89h374v222h-459v-68h380v-88h-373v-225h477z" />
<glyph unicode="&#xad61;" d="M683 763h-474v-68h395q0 -158 -28 -256h78q29 116 29 324zM873 298v67h-356v193h-75v-193h-103v193h-76v-193h-237v-67h847zM688 -146v372h-77v-124h-313v124h-77v-372h467zM611 -78h-313v112h313v-112z" />
<glyph unicode="&#xad63;" d="M678 763h-473v-68h395q0 -63 -7.5 -150t-20.5 -134h78q11 44 19.5 149.5t8.5 202.5zM873 272v68h-358v202h-75v-202h-103v202h-76v-202h-235v-68h847zM738 -90l-263 180q16 45 16 84v28h-77v-20q0 -85 -66 -158.5t-179 -107.5l49 -58q146 45 225 169l247 -171z" />
<glyph unicode="&#xad6c;" d="M688 734h-493v-68h415q-1 -127 -46 -304h75q49 188 49 372zM874 255v69h-848v-69h370v-386h77v386h401z" />
<glyph unicode="&#xad6d;" d="M873 341v67h-229q33 167 33 344h-473v-69h394q0 -151 -31 -275h-541v-67h377v-162h-190v-68h395v-270h75v338h-205v162h395z" />
<glyph unicode="&#xad70;" d="M873 305v67h-230q34 181 34 380h-473v-69h394q0 -59 -8.5 -154t-23.5 -157h-540v-67h397v-245h76v245h374zM703 -137v70h-408v249h-76v-319h484z" />
<glyph unicode="&#xad73;" d="M873 333v68h-231q35 170 35 351h-473v-69h394q0 -158 -32 -282h-540v-68h384v-150h-194v-326h479v69h-402v188h392v70h-199v149h387z" />
<glyph unicode="&#xad74;" d="M873 366v67h-229q31 164 31 330h-471v-68h392q0 -138 -27 -262h-543v-67h379v-120h-187v-68h380v-94h-373v-232h477v70h-399v95h374v229h-196v120h392z" />
<glyph unicode="&#xad75;" d="M873 365v67h-229q31 164 31 331h-471v-68h392q0 -139 -27 -263h-543v-67h379v-119h-254v-68h218v-93h-216v-233h329v71h-251v95h216v157h215v-323h77v394h-258v119h392z" />
<glyph unicode="&#xad76;" d="M873 365v67h-227q31 164 31 331h-473v-68h394q0 -139 -27 -263h-545v-67h379v-109h-254v-68h197v-96h-195v-240h307v71h-229v102h194v163h50v-336h268v403h-262v110h392zM666 -80h-116v266h116v-266z" />
<glyph unicode="&#xad7b;" d="M874 365v67h-225q31 164 31 331h-473v-68h394q0 -141 -28 -263h-547v-67h382v-112h-265v-68h198v-96h-196v-237h313v71h-236v99h196v171h66v172h390zM813 58v62h-379v-62h100q-26 -7 -46.5 -36t-20.5 -63q0 -58 44 -90.5t110 -33.5t111 33t45 93q0 34 -19 60t-47 37h102z M701 -41q-1 -30 -23 -46t-57 -15q-33 1 -54.5 17t-22.5 46t23 48t57 17q34 -1 56 -18.5t21 -48.5zM742 182v66q-90 -9 -147 0q-53 6 -86 21l-23 -54q39 -25 104 -33q63 -9 152 0z" />
<glyph unicode="&#xad7c;" d="M873 333v68h-231q35 170 35 351h-473v-69h394q0 -158 -32 -282h-540v-68h383v-154h-188v-320h469v320h-205v154h388zM613 -72h-314v183h314v-183z" />
<glyph unicode="&#xad7d;" d="M873 364v67h-231q35 165 35 332h-473v-68h394q0 -141 -33 -264h-539v-67h388v-192h76v192h383zM688 -146v387h-77v-136h-313v136h-77v-387h467zM611 -78h-313v115h313v-115z" />
<glyph unicode="&#xad7f;" d="M873 324v66h-224q31 169 31 362h-473v-69h394q0 -164 -28 -293h-546v-66h385v-137q0 -82 -67 -160t-178 -111l49 -58q71 22 130 68t95 104l247 -174l47 55l-261 185q14 38 14 93v135h385z" />
<glyph unicode="&#xad81;" d="M873 333v68h-231q35 170 35 351h-473v-69h394q0 -158 -32 -282h-540v-68h384v-123q-82 -7 -135 -59t-53 -125q0 -86 65.5 -134t161.5 -48t163 50t67 133q0 78 -53.5 127.5t-139.5 57.5v121h387zM601 27q0 -56 -45 -87.5t-107 -31.5q-61 0 -105 31.5t-44 87.5 q0 54 42.5 87t106.5 33q66 0 109 -31t43 -89z" />
<glyph unicode="&#xad82;" d="M873 345v67h-228q32 171 32 340h-473v-69h394q0 -143 -29 -271h-543v-67h379v-142h-181v-66h320q-52 -72 -161.5 -133.5t-221.5 -84.5l46 -59q62 13 135.5 46t139.5 78l234 -130l45 57l-216 121q103 86 126 171h-190v142h392z" />
<glyph unicode="&#xad88;" horiz-adv-x="870" d="M794 -112v902h-74v-619h-215v-69h215v-214h74zM539 712h-413v-68h337q-2 -153 -41 -266h77q40 137 40 334zM653 292v69q-165 -32 -401 -32h-207v-68h171q48 0 70 1v-361h75v362q149 7 292 29z" />
<glyph unicode="&#xad89;" horiz-adv-x="870" d="M784 190v600h-72v-472h-201v-65h201v-63h72zM643 401v67q-56 -11 -147 -20q26 103 26 285h-398v-67h320q-3 -134 -26 -224q-87 -5 -175 -5h-197v-65h219v-182h73v184q133 3 305 27zM761 -159v300h-470v-70h395v-230h75z" />
<glyph unicode="&#xad8c;" horiz-adv-x="870" d="M784 116v674h-72v-510h-201v-65h201v-99h72zM643 369v68q-80 -13 -149 -21q28 116 28 307h-398v-67h320q-3 -151 -27 -246q-85 -5 -174 -5h-197v-64h219v-172h73v173q133 3 305 27zM784 -138v70h-403v199h-75v-269h478z" />
<glyph unicode="&#xad90;" horiz-adv-x="870" d="M782 253v537h-72v-434h-201v-65h201v-38h72zM631 422v68q-59 -14 -137 -21q26 96 26 264h-398v-67h320q-3 -117 -26 -203q-87 -5 -175 -5h-197v-65h209v-140h73v142q171 4 305 27zM781 -148v71h-391v84h366v207h-451v-67h373v-74h-368v-221h471z" />
<glyph unicode="&#xad9c;" horiz-adv-x="870" d="M771 194v596h-72v-471h-211v-65h211v-60h72zM630 405v67q-46 -9 -146 -19q25 101 25 280h-398v-67h320q-3 -128 -25 -219q-87 -5 -176 -5h-197v-66h209v-182h73v184q145 4 315 27zM826 -93l-178 162q9 39 10 59v30h-78v-26q0 -55 -28 -108.5t-73 -82.5l-120 118 q9 28 12 69v30h-79v-26q0 -63 -44 -126.5t-121 -97.5l47 -55q101 46 150 138l144 -143q44 19 86 56.5t68 91.5l156 -141z" />
<glyph unicode="&#xad9d;" horiz-adv-x="870" d="M774 211v579h-72v-442h-211v-66h211v-71h72zM623 417v67q-64 -13 -135 -20q24 99 24 269h-398v-67h320q-3 -124 -24 -208q-87 -5 -177 -5h-207v-65h217v-177h75v178q144 4 305 28zM757 21q0 83 -65 135.5t-158 52.5q-90 0 -156 -53t-66 -135q0 -84 66 -137t156 -53 q92 0 157.5 53t65.5 137zM681 21q0 -55 -44.5 -86.5t-102.5 -31.5t-102 32.5t-44 85.5q0 55 43.5 86.5t102.5 31.5q58 0 102.5 -32.5t44.5 -85.5z" />
<glyph unicode="&#xada4;" horiz-adv-x="920" d="M847 -112v902h-74v-902h74zM663 -70v840h-75v-597h-187v-69h187v-174h75zM452 712h-347v-68h271q-2 -156 -41 -266h78q39 139 39 334zM552 292v69q-165 -32 -345 -32h-164v-68h195v-360h74v362q58 2 95.5 6t86 12.5t58.5 10.5z" />
<glyph unicode="&#xadb7;" horiz-adv-x="920" d="M838 189v601h-76v-601h76zM662 209v560h-75v-443h-181v-68h181v-49h75zM537 405v67q-78 -14 -129 -21q26 101 26 282h-341v-67h263q-3 -126 -27 -221q-54 -3 -132 -3h-170v-66h191v-182h74v184q62 2 102 6t84.5 11.5t58.5 9.5zM331 -144q147 46 224 157l248 -159l48 54 l-263 167q16 42 16 81v22h-77v-14q0 -83 -65 -149.5t-180 -101.5z" />
<glyph unicode="&#xadc0;" horiz-adv-x="870" d="M769 -112v902h-74v-902h74zM534 712h-413v-68h338q-2 -153 -41 -266h78q38 135 38 334zM659 292v69q-165 -32 -400 -32h-229v-68h252v-360h75v362q148 5 302 29z" />
<glyph unicode="&#xadc1;" horiz-adv-x="870" d="M749 190v600h-72v-600h72zM629 396v67q-65 -12 -150 -21q28 102 28 291h-398v-67h320q-3 -136 -28 -230q-85 -5 -171 -5h-209v-65h221v-172h73v173q147 5 314 29zM736 -159v296h-470v-70h395v-226h75z" />
<glyph unicode="&#xadc4;" horiz-adv-x="870" d="M749 106v684h-72v-684h72zM629 364v67q-64 -12 -151 -21q29 116 29 313h-398v-67h320q-3 -152 -28 -251q-87 -5 -171 -5h-209v-65h229v-166h73v168q150 4 306 27zM749 -138v70h-403v199h-75v-269h478z" />
<glyph unicode="&#xadc8;" horiz-adv-x="870" d="M747 260v530h-72v-530h72zM627 419v67q-61 -13 -149 -21q27 98 27 268h-398v-67h320q-3 -122 -27 -207q-104 -4 -172 -4h-209v-65h229v-130h73v131q138 3 306 28zM751 -148v71h-391v87h366v211h-451v-67h373v-78h-368v-224h471z" />
<glyph unicode="&#xadd0;" horiz-adv-x="870" d="M752 218v572h-72v-572h72zM632 397v67q-112 -17 -150 -21q28 102 28 290h-398v-67h320q-3 -135 -28 -229q-85 -5 -171 -5h-209v-65h229v-145h73v146q137 4 306 29zM731 -141v311h-457v-311h457zM654 -72h-304v174h304v-174z" />
<glyph unicode="&#xadd1;" horiz-adv-x="870" d="M749 257v533h-72v-533h72zM629 419v67q-61 -13 -149 -21q27 98 27 268h-398v-67h320q-3 -122 -27 -207q-104 -4 -172 -4h-209v-65h229v-133h73v134q138 3 306 28zM726 -146v358h-76v-112h-303v112h-76v-358h455zM650 -78h-303v110h303v-110z" />
<glyph unicode="&#xadd3;" horiz-adv-x="870" d="M747 167v623h-72v-623h72zM627 371v68q-59 -13 -151 -22q29 111 29 306h-398v-67h320q-3 -149 -29 -245q-106 -4 -174 -4h-205v-65h227v-170h73v171q140 3 308 28zM771 -94l-254 181q15 43 15 89v32h-78v-29q0 -85 -65 -159t-176 -109l49 -58q147 47 223 168l59 -42 l118 -84l59 -42z" />
<glyph unicode="&#xaddc;" d="M688 734h-493v-68h415q-1 -127 -46 -304h75q49 188 49 372zM874 255v69h-848v-69h235v-386h76v386h201v-386h75v386h261z" />
<glyph unicode="&#xade0;" d="M873 323v68h-228q32 168 32 361h-473v-69h394q0 -169 -29 -292h-543v-68h321v-245h75v245h117v-245h74v245h260zM693 -137v70h-410v249h-74v-319h484z" />
<glyph unicode="&#xade4;" d="M873 372v67h-227q31 160 31 324h-473v-68h394q0 -136 -28 -256h-544v-67h263v-126h-71v-68h380v-94h-373v-232h477v70h-399v95h374v229h-60v126h256zM543 246h-178v126h178v-126z" />
<glyph unicode="&#xadf8;" d="M678 485v200h-500v-68h425v-120q0 -185 -53 -299h80q48 108 48 287zM868 13v70h-841v-70h841z" />
<glyph unicode="&#xadf9;" d="M873 321v68h-229q33 172 33 363h-473v-69h394q0 -55 -8 -143.5t-23 -150.5v0v0v0v0v0h-1v0v0v0h-1v0v0h-1v0h-1v0h-1v0h-1v0h-1v0h-1h-1v0h-1h-1v0h-1h-1h-1h-1h-1h-1h-1h-1h-1h-1h-1h-1h-1h-1h-1h-1h-1h-1h-1h-1h-1h-1h-1h-1h-1h-1h-1h-1h-1h-1h-1h-1h-1h-1h-1h-1h-1h-1 h-1h-1h-1h-1h-1h-1h-1h-1h-1h-1h-1h-1h-1h-1h-1h-1h-1h-1h-1h-1h-1h-1h-1h-1h-1h-1h-1h-1h-1h-1h-1h-1h-1h-1h-1h-1h-1h-1h-1h-1h-1h-1h-1h-1h-1h-1h-1h-1h-1h-1h-1h-1h-1h-1h-1h-1h-2h-1h-1h-1h-1h-1h-1h-1h-1h-1h-2h-1h-1h-1h-1h-1h-1h-2h-1h-1h-1h-1h-1h-2h-1h-1h-1h-1 h-1h-2h-1h-1h-1h-2h-1h-1h-1h-1h-2h-1h-1h-1h-2h-1h-1h-1h-2h-1h-1h-1h-2h-1h-1h-1h-2h-1h-1h-2h-1h-1h-1h-2h-1h-1h-2h-1h-1h-2h-1h-1h-2h-1h-1h-2h-1h-1h-2h-1h-1h-2h-1h-2h-1h-1h-2h-1h-1h-2h-1h-2h-1h-1h-2h-1h-2h-1h-1h-2h-1h-2h-1h-2h-1h-1h-2h-1h-2h-1h-2h-1h-2h-1 h-1h-2h-1h-2h-1h-2h-1h-2h-1h-2h-1h-2h-1h-2h-1h-2h-1h-2h-1h-2h-1h-2h-1h-2h-1h-2h-1h-2h-1h-2h-2h-1h-2h-1h-2h-1h-2h-1h-2h-2h-1h-2h-1h-2h-1h-2h-2h-1h-2h-1h-2h-2h-1h-2h-1h-2h-2h-1h-2h-1h-2h-2h-1h-2h-2h-1h-2h-1h-2h-2h-1h-2h-2h-1h-2h-2h-1h-2h-2h-1h-2h-2h-1h-2 h-2h-1h-2h-2h-1h-2h-2h-2h-1h-2h-2h-1h-2h-2h-1h-2h-2h-2h-1h-2h-2h-2h-1h-2h-2h-2h-1h-2h-2h-2h-1h-2h-2h-2h-1h-2h-2h-2h-1h-2h-2h-2h-2h-1h-2h-2h-2h-2h-1h-2h-2h-2h-2h-1h-2h-2h-2h-2h-2h-1h-2h-2h-2h-2h-2h-1h-2h-2h-2h-2h-2h-2h-1h-2h-2h-2h-2h-2h-2h-2h-1h-2h-2h-2 h-10v-68h847zM678 -159v347h-470v-69h395v-278h75z" />
<glyph unicode="&#xadfc;" d="M873 295v67h-241q34 172 34 390h-462v-69h384q0 -58 -8.5 -158.5t-23.5 -162.5h-530v-67h847zM703 -137v70h-409v249h-75v-319h484z" />
<glyph unicode="&#xadff;" d="M873 323v68h-230q34 175 34 361h-473v-69h394q0 -56 -8 -143.5t-24 -148.5h-540v-68h847zM695 -143v69h-402v188h392v70l-469 -1v-326h479z" />
<glyph unicode="&#xae00;" d="M873 363v67h-227q31 164 31 333h-473v-68h394q0 -141 -27 -265h-545v-67h847zM702 -148v70h-399v101h374v233h-459v-67h380v-100h-373v-237h477z" />
<glyph unicode="&#xae01;" d="M873 365v67h-227q31 164 31 331h-473v-68h394q0 -139 -27 -263h-545v-67h847zM739 -148v404h-271v-70h194v-334h77zM482 -148v71h-251v101h216v232h-296v-67h218v-99h-216v-238h329z" />
<glyph unicode="&#xae08;" d="M873 321v68h-231q35 171 35 363h-473v-69h394q0 -57 -8.5 -145t-23.5 -149h-540v-68h847zM688 -141v331h-469v-331h469zM611 -72h-314v193h314v-193z" />
<glyph unicode="&#xae09;" d="M873 342v67h-231q35 170 35 354h-473v-68h394q0 -164 -33 -286h-539v-67h847zM688 -146v391h-77v-136h-313v136h-77v-391h467zM611 -78h-313v119h313v-119z" />
<glyph unicode="&#xae0b;" d="M873 298v67h-233q34 172 34 387h-472v-69h394q0 -60 -8.5 -157.5t-23.5 -160.5h-538v-67h847zM738 -90l-263 187q16 45 16 80v48h-77v-40q0 -75 -67.5 -154.5t-176.5 -112.5l48 -60q69 21 127.5 67.5t97.5 104.5l247 -174z" />
<glyph unicode="&#xae0d;" d="M873 326v68h-231q35 170 35 358h-473v-69h394q0 -56 -8 -142.5t-24 -146.5h-540v-68h847zM680 32q0 86 -66 137.5t-164 51.5q-96 0 -161.5 -53.5t-65.5 -136.5q0 -88 65.5 -136.5t161.5 -48.5t163 50.5t67 135.5zM602 32q0 -57 -45 -89t-107 -32q-61 0 -105 32t-44 89 q0 55 42.5 88.5t106.5 33.5q66 0 109 -32t43 -90z" />
<glyph unicode="&#xae14;" horiz-adv-x="870" d="M770 -112v902h-75v-902h75zM523 679h-416v-68h335q0 -218 -38 -324h80q39 140 39 392zM654 154v67q-19 -4 -54.5 -9.5t-146.5 -14t-223 -7.5h-200v-69h204q107 0 194.5 6t117 10.5t108.5 16.5z" />
<glyph unicode="&#xae30;" horiz-adv-x="850" d="M755 -112v902h-74v-902h74zM493 660h-384v-68h301q-24 -125 -121.5 -240t-234.5 -167l51 -51q63 24 128 72t123 114.5t95.5 156t41.5 183.5z" />
<glyph unicode="&#xae31;" horiz-adv-x="850" d="M731 220v570h-74v-570h74zM472 723h-378v-68h286q-18 -97 -113 -196.5t-236 -142.5l51 -56q158 56 266.5 181.5t123.5 281.5zM709 -159v327h-471v-69h396v-258h75z" />
<glyph unicode="&#xae34;" horiz-adv-x="850" d="M737 157v633h-74v-633h74zM478 713h-378v-68h286q-18 -99 -113.5 -202.5t-235.5 -146.5l51 -56q157 56 266 186t124 287zM747 -138v70h-403v240h-75v-310h478z" />
<glyph unicode="&#xae37;" horiz-adv-x="850" d="M731 220v570h-74v-570h74zM472 723h-378v-68h286q-18 -97 -113 -196.5t-236 -142.5l51 -56q158 56 266.5 181.5t123.5 281.5zM725 -143v69h-402v178h392v69l-467 -1v-315h477z" />
<glyph unicode="&#xae38;" horiz-adv-x="850" d="M729 294v496h-74v-496h74zM470 733h-378v-68h286q-18 -96 -112.5 -191t-236.5 -138l51 -56q159 57 267 177.5t123 275.5zM733 -148v71h-392v98h367v223h-451v-68h373v-89h-368v-235h471z" />
<glyph unicode="&#xae3a;" horiz-adv-x="850" d="M733 288v502h-74v-502h74zM469 733h-378v-68h286q-18 -96 -112.5 -191t-236.5 -138l51 -56q159 57 267 177.5t123 275.5zM733 -148v387h-267v-387h267zM451 -148v71h-231v96h195v225h-274v-68h197v-90h-194v-234h307zM657 -80h-117v250h117v-250z" />
<glyph unicode="&#xae40;" horiz-adv-x="850" d="M731 226v564h-74v-564h74zM472 723h-378v-68h286q-18 -97 -113 -196.5t-236 -142.5l51 -56q158 56 266.5 181.5t123.5 281.5zM713 -141v320h-457v-320h457zM636 -72h-304v183h304v-183z" />
<glyph unicode="&#xae41;" horiz-adv-x="850" d="M733 273v517h-74v-517h74zM469 733h-378v-68h286q-18 -96 -112.5 -191t-236.5 -138l51 -56q159 57 267 177.5t123 275.5zM714 -146v372h-77v-124h-303v124h-76v-372h456zM637 -78h-303v112h303v-112z" />
<glyph unicode="&#xae43;" horiz-adv-x="850" d="M732 168v622h-74v-622h74zM473 713h-378v-68h286q-18 -99 -113.5 -202.5t-235.5 -146.5l51 -56q157 56 266 186t124 287zM751 -97l-256 202q16 42 16 87v47h-79v-39q0 -91 -65 -173t-176 -116l49 -57q70 22 128 71t96 112l59 -46q59 -46 119 -92l59 -46z" />
<glyph unicode="&#xae45;" horiz-adv-x="850" d="M731 231v559h-74v-559h74zM472 723h-378v-68h286q-18 -97 -113 -196.5t-236 -142.5l51 -56q158 56 266.5 181.5t123.5 281.5zM717 32q0 84 -64.5 138t-156.5 54q-89 0 -155 -56.5t-66 -135.5q0 -83 64 -138t158 -55q91 0 155.5 54.5t64.5 138.5zM640 32 q0 -54 -41.5 -89.5t-102.5 -35.5t-101.5 34.5t-40.5 91.5q0 54 40 89t102 35q65 0 104.5 -33t39.5 -92z" />
<glyph unicode="&#xae46;" horiz-adv-x="850" d="M729 255v535h-74v-535h74zM465 723h-378v-68h286q-18 -97 -113 -196.5t-236 -142.5l51 -56q158 56 266.5 181.5t123.5 281.5zM782 -88l-217 120q101 86 126 177h-441v-67h315q-58 -77 -162 -139t-215 -86l46 -59q131 29 268 125l235 -129z" />
<glyph unicode="&#xae4a;" horiz-adv-x="850" d="M733 252v538h-74v-538h74zM469 723h-378v-68h286q-18 -97 -113 -196.5t-236 -142.5l51 -56q158 56 266.5 181.5t123.5 281.5zM731 -138v69h-101v200h99v68h-513v-68h96v-200h-98v-69h517zM554 -69h-167v200h167v-200z" />
<glyph unicode="&#xae4c;" horiz-adv-x="920" d="M917 366v68h-169v356h-75v-902h75v478h169zM574 661h-238v-68h154q-13 -110 -67 -225t-153 -184l60 -44q105 76 169 214t75 307zM329 661h-270v-68h188q-6 -45 -19 -91t-38.5 -104t-72 -111.5t-107.5 -89.5l59 -47q113 72 183.5 210.5t76.5 300.5z" />
<glyph unicode="&#xae4d;" horiz-adv-x="920" d="M906 470v70h-163v250h-75v-570h75v250h163zM557 723h-237v-68h150q-35 -238 -210 -326l52 -51q65 33 113.5 88.5t75.5 118.5t40.5 122t15.5 116zM315 723h-258v-68h170q-4 -35 -15.5 -72.5t-34.5 -82.5t-66.5 -87t-101.5 -71l52 -52q70 41 119 92t76 109t40 111.5 t19 120.5zM732 -159v335h-470v-69h395v-266h75z" />
<glyph unicode="&#xae4e;" horiz-adv-x="920" d="M910 470v70h-163v250h-75v-560h75v240h163zM561 723h-237v-68h150q-5 -33 -14.5 -67t-32 -85.5t-66 -97.5t-102.5 -76l52 -51q65 33 114.5 88.5t77 118.5t42 122t16.5 116zM319 723h-258v-68h170q-4 -35 -16.5 -72.5t-36.5 -82.5t-68 -87t-102 -71l52 -52q70 42 120 92.5 t77.5 108.5t41.5 112t20 120zM749 -159v347h-257v-69h182v-278h75zM465 -159v347h-280v-69h206v-278h74z" />
<glyph unicode="&#xae50;" horiz-adv-x="920" d="M913 443v69h-163v278h-75v-637h75v290h163zM564 713h-237v-68h150q-5 -34 -14.5 -69t-32 -88.5t-66 -101t-102.5 -77.5l52 -51q65 33 114.5 90t77 122t42 125.5t16.5 117.5zM322 713h-258v-68h170q-6 -49 -24.5 -102t-70.5 -118.5t-128 -102.5l52 -52q70 41 120 93.5 t77.5 112.5t41.5 115t20 122zM773 -138v70h-403v240h-75v-310h478z" />
<glyph unicode="&#xae54;" horiz-adv-x="920" d="M913 498v69h-163v223h-75v-498h75v206h163zM565 733h-237v-68h150q-5 -31 -15 -63.5t-32 -79t-65.5 -90t-102.5 -73.5l52 -51q65 34 114.5 86t77 111t42 115.5t16.5 112.5zM323 733h-258v-68h170q-4 -34 -16.5 -69t-36.5 -76t-68 -80t-102 -68l52 -52q71 42 120 89.5 t77 101t42 105.5t20 117zM754 -149v71h-392v95h367v224h-451v-68h373v-89h-368v-233h471z" />
<glyph unicode="&#xae56;" horiz-adv-x="920" d="M914 498v69h-162v223h-74v-503h74v211h162zM566 733h-237v-68h150q-5 -31 -15 -63.5t-32 -79t-65.5 -90t-102.5 -73.5l52 -51q65 34 114.5 86t77 111t42 115.5t16.5 112.5zM324 733h-258v-68h170q-4 -34 -16.5 -69t-36.5 -76t-68 -80t-102 -68l52 -52q71 42 120 89.5 t77 101t42 105.5t20 117zM758 -148v392h-271v-392h271zM473 -148v71h-234v96h199v225h-279v-68h201v-90h-199v-234h312zM682 -80h-119v255h119v-255z" />
<glyph unicode="&#xae5c;" horiz-adv-x="920" d="M903 480v70h-163v240h-75v-559h75v249h163zM554 723h-237v-68h150q-35 -238 -210 -326l52 -51q65 33 113.5 88.5t75.5 118.5t40.5 122t15.5 116zM312 723h-258v-68h170q-4 -35 -15.5 -72.5t-34.5 -82.5t-66.5 -87t-101.5 -71l52 -52q70 41 119 92t76 109t40 111.5 t19 120.5zM732 -141v320h-468v-320h468zM655 -72h-314v183h314v-183z" />
<glyph unicode="&#xae5d;" horiz-adv-x="920" d="M904 501v69h-163v219h-75v-516h75v228h163zM556 733h-237v-68h150q-31 -216 -210 -306l52 -51q65 34 113.5 85.5t75.5 111t40.5 115.5t15.5 113zM314 733h-258v-68h170q-4 -34 -15.5 -69t-34.5 -76t-66.5 -80t-101.5 -68l52 -52q71 42 119.5 89.5t75.5 101.5t40 105 t19 117zM733 -146v372h-77v-124h-313v124h-76v-372h466zM656 -78h-313v112h313v-112z" />
<glyph unicode="&#xae5f;" horiz-adv-x="920" d="M903 469v70h-163v250h-75v-611h75v291h163zM554 713h-237v-68h150q-35 -238 -210 -326l52 -51q65 33 113.5 88.5t75.5 118.5t40.5 122t15.5 116zM312 713h-258v-68h170q-4 -35 -15.5 -72.5t-34.5 -82.5t-66.5 -87t-101.5 -71l52 -52q70 41 119 92t76 109t40 111.5 t19 120.5zM780 -97l-254 204q16 40 16 89v43h-79v-39q0 -91 -65 -173t-176 -116l49 -57q71 23 129 72t95 112l235 -185z" />
<glyph unicode="&#xae60;" horiz-adv-x="920" d="M903 480v70h-163v239h-75v-542h75v233h163zM554 723h-237v-68h150q-35 -238 -210 -326l52 -51q65 33 113.5 88.5t75.5 118.5t40.5 122t15.5 116zM312 723h-258v-68h170q-4 -35 -15.5 -72.5t-34.5 -82.5t-66.5 -87t-101.5 -71l52 -52q70 41 119 92t76 109t40 111.5 t19 120.5zM827 -93l-178 162q9 37 10 70v66h-77v-63q0 -59 -26.5 -114.5t-74.5 -88.5l-122 122q10 40 13 78v66h-78v-63q0 -73 -46.5 -139t-118.5 -90l47 -60q99 44 153 137l144 -142q100 43 150 148l157 -141z" />
<glyph unicode="&#xae61;" horiz-adv-x="920" d="M898 480v70h-163v240h-75v-559h75v249h163zM550 723h-237v-68h150q-35 -238 -210 -326l52 -51q65 33 113.5 88.5t75.5 118.5t40.5 122t15.5 116zM308 723h-258v-68h170q-4 -35 -15.5 -72.5t-34.5 -82.5t-66.5 -87t-101.5 -71l52 -52q70 41 119 92t76 109t40 111.5 t19 120.5zM731 32q0 82 -64.5 135t-156.5 53q-89 0 -155 -55.5t-66 -132.5q0 -81 64 -135t158 -54q91 0 155.5 53.5t64.5 135.5zM654 32q0 -53 -41.5 -87.5t-102.5 -34.5t-101.5 33.5t-40.5 88.5q0 53 40 87.5t102 34.5q65 0 104.5 -32.5t39.5 -89.5z" />
<glyph unicode="&#xae65;" horiz-adv-x="920" d="M894 501v69h-163v219h-75v-516h75v228h163zM545 733h-237v-68h150q-32 -219 -205 -306l52 -51q65 34 113 85.5t73.5 111t38.5 115.5t15 113zM303 733h-258v-68h170q-4 -35 -14.5 -69t-33 -76t-65 -80.5t-100.5 -67.5l52 -52q71 42 118.5 89.5t74 102t38.5 104.5t18 117z M734 -148v68h-394v87h372v69h-372v81h384v68h-458v-373h468z" />
<glyph unicode="&#xae68;" horiz-adv-x="940" d="M855 -112v902h-74v-356h-112v336h-74v-819h74v414h112v-477h74zM538 661h-224v-68h138q-11 -110 -63.5 -225t-150.5 -184l60 -44q104 75 165.5 212t74.5 309zM308 661h-242v-68h159q-37 -287 -221 -396l59 -47q111 70 175 208t70 303z" />
<glyph unicode="&#xae69;" horiz-adv-x="940" d="M848 220v570h-75v-242h-113v221h-75v-528h75v239h113v-260h75zM531 723h-220v-68h135q-37 -231 -208 -326l51 -51q64 36 112 91t74.5 117.5t40 121t15.5 115.5zM306 723h-235v-68h147q-4 -34 -16.5 -72t-35.5 -83t-65 -87t-96 -71l53 -52q218 133 248 433zM805 -159v337 h-470v-69h394v-268h76z" />
<glyph unicode="&#xae6c;" horiz-adv-x="940" d="M850 150v640h-75v-272h-113v251h-75v-578h75v259h113v-300h75zM533 713h-220v-68h135q-39 -242 -208 -336l51 -51q64 36 112 93t74.5 121.5t40 124t15.5 116.5zM308 713h-235v-68h147q-4 -34 -16.5 -73.5t-35.5 -86.5t-65 -90.5t-96 -72.5l53 -52q217 132 248 443z M842 -138v70h-403v240h-76v-310h479z" />
<glyph unicode="&#xae70;" horiz-adv-x="940" d="M850 280v510h-75v-222h-113v201h-75v-468h75v199h113v-220h75zM533 733h-220v-68h135q-34 -209 -208 -306l51 -51q64 36 112 88t74.5 110.5t40 114.5t15.5 112zM308 733h-235v-68h147q-8 -75 -59 -156.5t-154 -136.5l53 -52q123 75 179 177.5t69 235.5zM826 -148v71h-390 v98h365v223h-450v-68h372v-89h-367v-235h470z" />
<glyph unicode="&#xae78;" horiz-adv-x="940" d="M849 220v570h-75v-242h-113v221h-75v-528h75v239h113v-260h75zM532 723h-220v-68h135q-37 -231 -208 -326l51 -51q64 36 112 91t74.5 117.5t40 121t15.5 115.5zM307 723h-235v-68h147q-4 -34 -16.5 -72t-35.5 -83t-65 -87t-96 -71l53 -52q218 133 248 433zM815 -141v320 h-468v-320h468zM739 -72h-315v183h315v-183z" />
<glyph unicode="&#xae79;" horiz-adv-x="940" d="M850 260v530h-75v-222h-113v201h-75v-488h75v219h113v-240h75zM533 733h-220v-68h135q-34 -209 -208 -306l51 -51q64 36 112 88t74.5 110.5t40 114.5t15.5 112zM308 733h-235v-68h147q-8 -75 -59 -156.5t-154 -136.5l53 -52q123 75 179 177.5t69 235.5zM809 -151v371h-77 v-123h-300v123h-77v-371h454zM732 -82h-300v111h300v-111z" />
<glyph unicode="&#xae7b;" horiz-adv-x="940" d="M850 230v560h-75v-242h-113v221h-75v-508h75v219h113v-250h75zM533 723h-220v-68h135q-37 -231 -208 -326l51 -51q64 36 112 91t74.5 117.5t40 121t15.5 115.5zM308 723h-235v-68h147q-4 -34 -16.5 -72t-35.5 -83t-65 -87t-96 -71l53 -52q218 133 248 433zM843 -93 l-255 203q16 46 16 86v35h-78v-27q0 -87 -67 -169.5t-173 -119.5l49 -57q68 23 128 72t95 110l235 -183z" />
<glyph unicode="&#xae7c;" horiz-adv-x="940" d="M850 230v560h-75v-242h-113v221h-75v-518h75v229h113v-250h75zM533 723h-220v-68h135q-37 -231 -208 -326l51 -51q64 36 112 91t74.5 117.5t40 121t15.5 115.5zM308 723h-235v-68h147q-4 -34 -16.5 -72t-35.5 -83t-65 -87t-96 -71l53 -52q218 133 248 433zM886 -89 l-179 163q10 32 11 69v56h-78v-53q0 -61 -25.5 -115t-75.5 -86l-120 120q9 35 12 78v56h-78v-53q0 -72 -47.5 -138t-119.5 -92l49 -59q100 46 153 137l142 -142q102 46 152 148l156 -141z" />
<glyph unicode="&#xae7d;" horiz-adv-x="940" d="M850 230v560h-75v-242h-113v221h-75v-508h75v219h113v-250h75zM533 723h-220v-68h135q-37 -231 -208 -326l51 -51q64 36 112 91t74.5 117.5t40 121t15.5 115.5zM308 723h-235v-68h147q-4 -34 -16.5 -72t-35.5 -83t-65 -87t-96 -71l53 -52q218 133 248 433zM809 32 q0 84 -64.5 138t-156.5 54q-89 0 -155 -56.5t-66 -135.5q0 -83 64 -138t158 -55q91 0 155.5 54.5t64.5 138.5zM732 32q0 -54 -41.5 -89.5t-102.5 -35.5t-101.5 34.5t-40.5 91.5q0 54 40 89t102 35q65 0 104.5 -33t39.5 -92z" />
<glyph unicode="&#xae84;" horiz-adv-x="920" d="M899 243v68h-160v171h160v69h-160v240h-74v-901h74v353h160zM574 668h-238v-68h154q-13 -110 -67 -225t-153 -184l60 -44q105 76 169 214t75 307zM329 668h-270v-68h188q-6 -45 -19 -91t-38.5 -104t-72 -111.5t-107.5 -89.5l59 -47q113 72 183.5 210.5t76.5 300.5z" />
<glyph unicode="&#xae85;" horiz-adv-x="920" d="M896 362v69h-157v132h157v69h-157v160h-73v-568h73v138h157zM563 723h-237v-68h150q-5 -33 -14.5 -67t-32 -85.5t-66 -97.5t-102.5 -76l52 -51q65 33 114.5 88.5t77 118.5t42 122t16.5 116zM321 723h-258v-68h170q-4 -35 -16.5 -72.5t-36.5 -82.5t-68 -87t-102 -71 l52 -52q70 42 120 92.5t77.5 108.5t41.5 112t20 120zM732 -159v333h-470v-69h395v-264h75z" />
<glyph unicode="&#xae8c;" horiz-adv-x="920" d="M890 410v69h-157v102h157v68h-157v143h-73v-503h73v121h157zM558 733h-237v-68h150q-5 -31 -15 -63.5t-32 -79t-65.5 -90t-102.5 -73.5l52 -51q65 34 114.5 86t77 111t42 115.5t16.5 112.5zM316 733h-258v-68h170q-4 -34 -16.5 -69t-36.5 -76t-68 -80t-102 -68l52 -52 q71 42 120 89.5t77 101t42 105.5t20 117zM745 -147v72h-389v96h364v222h-449v-67h371v-89h-366v-234h469z" />
<glyph unicode="&#xaebc;" horiz-adv-x="890" d="M790 -110v901h-74v-355h-173q36 108 43 225h-242v-68h158q-13 -110 -67 -225t-153 -184l60 -44q131 94 198 287v-60h176v-477h74zM337 661h-266v-68h184q-6 -45 -19 -91t-38.5 -104t-72 -111.5t-107.5 -89.5l59 -47q113 72 183.5 210.5t76.5 300.5z" />
<glyph unicode="&#xaebd;" horiz-adv-x="890" d="M792 224v568h-74v-255h-166v-69h166v-244h74zM575 723h-237v-68h150q-5 -33 -14.5 -67t-32 -85.5t-66 -97.5t-102.5 -76l52 -51q65 33 114.5 88.5t77 118.5t42 122t16.5 116zM333 723h-258v-68h170q-4 -35 -16.5 -72.5t-36.5 -82.5t-68 -87t-102 -71l52 -52 q70 42 120 92.5t77.5 108.5t41.5 112t20 120zM769 -156v337h-467v-70h392v-267h75z" />
<glyph unicode="&#xaebe;" horiz-adv-x="890" d="M791 234v558h-74v-255h-166v-69h166v-234h74zM574 723h-237v-68h150q-5 -33 -14.5 -67t-32 -85.5t-66 -97.5t-102.5 -76l52 -51q65 33 114.5 88.5t77 118.5t42 122t16.5 116zM332 723h-258v-68h170q-4 -35 -16.5 -72.5t-36.5 -82.5t-68 -87t-102 -71l52 -52 q70 42 120 92.5t77.5 108.5t41.5 112t20 120zM783 -156v348h-257v-70h183v-278h74zM501 -156v348h-280v-70h205v-278h75z" />
<glyph unicode="&#xaec0;" horiz-adv-x="890" d="M792 160v632h-74v-267h-166v-68h166v-297h74zM575 713h-237v-68h150q-5 -34 -14.5 -68.5t-32 -87.5t-66 -101t-102.5 -79l52 -51q66 39 115.5 96.5t77 121t41.5 122t16 115.5zM333 713h-258v-68h170q-4 -34 -16.5 -73.5t-37 -85.5t-68.5 -90t-101 -74l52 -52 q69 43 118.5 95.5t77.5 111.5t42.5 114.5t20.5 121.5zM802 -136v70h-401v240h-75v-310h476z" />
<glyph unicode="&#xaec4;" horiz-adv-x="890" d="M796 287v505h-74v-234h-166v-68h166v-203h74zM579 733h-237v-68h150q-4 -31 -14.5 -62.5t-32.5 -75.5t-65.5 -86t-102.5 -72l52 -51q65 34 114.5 84t77 107.5t42 112.5t16.5 111zM337 733h-258v-68h170q-5 -46 -24.5 -91.5t-70.5 -99.5t-128 -92l52 -52q137 81 192 175.5 t67 227.5zM788 -146v72h-389v98h365v222h-449v-67h370v-89h-365v-236h468z" />
<glyph unicode="&#xaecc;" horiz-adv-x="890" d="M792 224v568h-74v-255h-166v-69h166v-244h74zM575 723h-237v-68h150q-5 -33 -14.5 -67t-32 -85.5t-66 -97.5t-102.5 -76l52 -51q65 33 114.5 88.5t77 118.5t42 122t16.5 116zM333 723h-258v-68h170q-4 -35 -16.5 -72.5t-36.5 -82.5t-68 -87t-102 -71l52 -52 q70 42 120 92.5t77.5 108.5t41.5 112t20 120zM778 -139v322h-455v-322h455zM701 -70h-302v184h302v-184z" />
<glyph unicode="&#xaecd;" horiz-adv-x="890" d="M796 276v516h-74v-244h-176v-68h176v-204h74zM575 733h-237v-68h150q-5 -31 -15 -63.5t-32 -79t-65.5 -90t-102.5 -73.5l52 -51q65 34 114.5 86t77 111t42 115.5t16.5 112.5zM333 733h-258v-68h170q-4 -34 -16.5 -69t-36.5 -76t-68 -80t-102 -68l52 -52q71 42 120 89.5 t77 101t42 105.5t20 117zM776 -144v374h-77v-126h-301v126h-76v-374h454zM699 -75h-301v111h301v-111z" />
<glyph unicode="&#xaecf;" horiz-adv-x="890" d="M792 174v618h-74v-265h-166v-69h166v-284h74zM575 713h-237v-68h150q-5 -33 -14.5 -67t-32 -85.5t-66 -97.5t-102.5 -76l52 -51q65 33 114.5 88.5t77 118.5t42 122t16.5 116zM333 713h-258v-68h170q-4 -35 -16.5 -72.5t-36.5 -82.5t-68 -87t-102 -71l52 -52 q70 42 120 92.5t77.5 108.5t41.5 112t20 120zM819 -96l-254 203q16 46 16 86v47h-79v-39q0 -92 -64 -173.5t-175 -115.5l49 -57q70 22 129.5 72.5t92.5 111.5l235 -185z" />
<glyph unicode="&#xaed0;" horiz-adv-x="890" d="M791 234v558h-74v-255h-166v-69h166v-234h74zM574 723h-237v-68h150q-5 -33 -14.5 -67t-32 -85.5t-66 -97.5t-102.5 -76l52 -51q65 33 114.5 88.5t77 118.5t42 122t16.5 116zM332 723h-258v-68h170q-4 -35 -16.5 -72.5t-36.5 -82.5t-68 -87t-102 -71l52 -52 q70 42 120 92.5t77.5 108.5t41.5 112t20 120zM848 -82l-179 163q10 32 11 69v56h-78v-53q0 -61 -25.5 -115t-75.5 -86l-120 120q9 34 12 78l-1 54l-77 1v-52q0 -71 -47.5 -136.5t-118.5 -94.5l48 -58q99 46 151 138l144 -143q38 14 82 54t70 94l156 -141z" />
<glyph unicode="&#xaed1;" horiz-adv-x="890" d="M792 224v568h-74v-255h-166v-69h166v-244h74zM575 723h-237v-68h150q-5 -33 -14.5 -67t-32 -85.5t-66 -97.5t-102.5 -76l52 -51q65 33 114.5 88.5t77 118.5t42 122t16.5 116zM333 723h-258v-68h170q-4 -35 -16.5 -72.5t-36.5 -82.5t-68 -87t-102 -71l52 -52 q70 42 120 92.5t77.5 108.5t41.5 112t20 120zM775 39q0 82 -64.5 135t-156.5 53q-89 0 -155 -55.5t-66 -132.5q0 -81 64 -135t158 -54q91 0 155.5 53.5t64.5 135.5zM698 39q0 -53 -41.5 -87.5t-102.5 -34.5t-101.5 33.5t-40.5 88.5q0 53 40 87.5t102 34.5q65 0 104.5 -32.5 t39.5 -89.5z" />
<glyph unicode="&#xaed8;" horiz-adv-x="940" d="M858 -110v901h-74v-901h74zM688 -47v817h-75v-334h-115q34 103 43 225h-224v-69h139q-11 -109 -63 -223t-150 -183l60 -44q102 73 168 225h142v-414h75zM311 661h-239v-69h156q-37 -282 -221 -393l59 -46q111 70 175 206.5t70 301.5z" />
<glyph unicode="&#xaed9;" horiz-adv-x="940" d="M849 214v578h-75v-578h75zM681 233v536h-75v-221h-110q31 90 34 175h-213v-68h128q-5 -32 -15 -67.5t-32 -86t-64 -96.5t-97 -73l51 -52q61 30 109.5 88t72.5 112h136v-247h75zM312 723h-235v-68h147q-4 -34 -16 -72t-35 -83t-64.5 -87t-95.5 -71l51 -52q218 133 248 433 zM806 -156v327h-468v-70h393v-257h75z" />
<glyph unicode="&#xaedc;" horiz-adv-x="940" d="M849 154v638h-75v-638h75zM681 193v576h-75v-244h-114q34 96 38 188h-213v-68h128q-5 -29 -15 -64t-32.5 -89.5t-64.5 -103.5t-97 -76l52 -52q61 30 107.5 86t70.5 111h140v-264h75zM312 713h-235v-68h147q-6 -49 -24 -102t-67 -118.5t-120 -102.5l51 -52 q217 132 248 443zM842 -136v70h-402v240h-75v-310h477z" />
<glyph unicode="&#xaee8;" horiz-adv-x="940" d="M849 224v568h-75v-568h75zM681 243v526h-75v-221h-110q31 90 34 175h-213v-68h128q-5 -32 -15 -67.5t-32 -86t-64 -96.5t-97 -73l51 -52q61 30 109.5 88t72.5 112h136v-237h75zM312 723h-235v-68h147q-4 -34 -16 -72t-35 -83t-64.5 -87t-95.5 -71l51 -52q218 133 248 433 zM821 -139v322h-460v-322h460zM745 -70h-308v184h308v-184z" />
<glyph unicode="&#xaeeb;" horiz-adv-x="940" d="M849 214v578h-75v-578h75zM681 263v506h-75v-231h-110q31 90 34 175h-213v-68h128q-5 -32 -15 -67.5t-32 -86t-64 -96.5t-97 -73l51 -52q61 30 109.5 88t72.5 112h136v-207h75zM312 713h-235v-68h147q-4 -34 -16 -72t-35 -83t-64.5 -87t-95.5 -71l51 -52q218 133 248 433 zM844 -94l-254 203q16 46 16 86v37h-79v-29q0 -86 -65.5 -170.5t-174.5 -118.5l49 -57q69 24 127.5 73t95.5 111l235 -185z" />
<glyph unicode="&#xaeed;" horiz-adv-x="940" d="M849 234v558h-75v-558h75zM681 263v506h-75v-221h-110q31 90 34 175h-213v-68h128q-5 -32 -15 -67.5t-32 -86t-64 -96.5t-97 -73l51 -52q61 30 109.5 88t72.5 112h136v-217h75zM312 723h-235v-68h147q-4 -34 -16 -72t-35 -83t-64.5 -87t-95.5 -71l51 -52q218 133 248 433 zM807 39q0 84 -64.5 138t-156.5 54q-89 0 -155 -56.5t-66 -135.5q0 -83 64 -138t158 -55q91 0 155.5 54.5t64.5 138.5zM730 39q0 -54 -41.5 -89.5t-102.5 -35.5t-101.5 34.5t-40.5 91.5q0 54 40 89t102 35q65 0 104.5 -33t39.5 -92z" />
<glyph unicode="&#xaef4;" horiz-adv-x="890" d="M794 -110v901h-74v-266h-156q15 73 19 136h-242v-68h158q-13 -110 -67 -225t-153 -184l60 -44q144 105 208 317h173v-146h-175v-67h175v-354h74zM334 661h-261v-68h179q-6 -45 -19 -91t-38.5 -104t-72 -111.5t-107.5 -89.5l59 -47q113 72 183.5 210.5t76.5 300.5z" />
<glyph unicode="&#xaef8;" horiz-adv-x="890" d="M785 147v645h-73v-201h-164q16 67 17 122h-237v-68h150q-5 -34 -14.5 -68.5t-32 -87.5t-66 -101t-102.5 -79l52 -51q150 88 214 270v-5h183v-124h-183v-68h183v-184h73zM323 713h-258v-68h170q-4 -34 -16.5 -73.5t-37 -85.5t-68.5 -90t-101 -74l52 -52q69 43 118.5 95.5 t77.5 111.5t42.5 114.5t20.5 121.5zM792 -136v70h-401v240h-75v-310h476z" />
<glyph unicode="&#xaefc;" horiz-adv-x="890" d="M783 281v511h-73v-169h-157q14 55 16 110h-237v-68h150q-4 -31 -14.5 -62.5t-32.5 -75.5t-65.5 -86t-102.5 -72l52 -51q147 75 212 236h179v-102h-183v-68h183v-103h73zM327 733h-258v-68h170q-5 -46 -24.5 -91.5t-70.5 -99.5t-128 -92l52 -52q137 81 192 175.5t67 227.5 zM782 -146v72h-389v98h365v222h-449v-67h370v-89h-365v-236h468z" />
<glyph unicode="&#xaf07;" horiz-adv-x="890" d="M785 167v625h-73v-201h-164q16 67 17 122h-237v-68h150q-5 -33 -14.5 -67t-32 -84.5t-66 -97t-102.5 -77.5l52 -51q154 91 214 260v-5h183v-114h-183v-68h183v-174h73zM323 713h-258v-68h170q-5 -47 -25 -98.5t-71.5 -113.5t-126.5 -101l52 -52q133 82 189.5 189 t69.5 244zM808 -96l-254 203q16 46 16 86v37h-79v-29q0 -91 -64.5 -173t-175.5 -116l49 -57q69 22 127 71t96 113l235 -185z" />
<glyph unicode="&#xaf08;" horiz-adv-x="890" d="M785 234v558h-73v-191h-164q16 67 17 122h-237v-68h150q-5 -33 -14.5 -67t-32 -84.5t-66 -97t-102.5 -77.5l52 -51q154 91 214 260v-5h183v-104h-183v-68h183v-127h73zM323 723h-258v-68h170q-5 -47 -25 -98.5t-71.5 -113.5t-126.5 -101l52 -52q133 82 189.5 189 t69.5 244zM845 -82l-179 163q10 32 11 69v56h-78v-53q0 -61 -25.5 -115t-75.5 -86l-120 120q9 34 12 78l-1 54l-77 1v-52q0 -70 -49 -135.5t-120 -94.5l48 -59q102 47 154 138l144 -143q38 14 82 54t70 94l156 -141z" />
<glyph unicode="&#xaf0d;" horiz-adv-x="890" d="M793 271v521h-73v-169h-157q14 55 16 110h-237v-68h150q-4 -31 -14.5 -62.5t-32.5 -75.5t-65.5 -86t-102.5 -72l52 -51q147 75 212 236h179v-102h-183v-68h183v-113h73zM337 733h-258v-68h170q-5 -46 -24.5 -91.5t-70.5 -99.5t-128 -92l52 -52q137 81 192 175.5t67 227.5 zM777 -146v69h-392v87h371v70h-371v80h382v69h-456v-375h466z" />
<glyph unicode="&#xaf10;" horiz-adv-x="940" d="M868 -110v901h-74v-901h74zM698 -47v817h-76v-235h-103q13 62 17 126h-219v-69h134q-11 -109 -63 -223t-150 -183l60 -44q53 38 111 120.5t94 204.5h119v-145h-146v-68h146v-301h76zM311 661h-229v-69h146q-37 -282 -221 -393l59 -46q111 70 175 206.5t70 301.5z" />
<glyph unicode="&#xaf2c;" d="M739 487v199h-288v-69h212v-117q0 -170 -52 -286h80q48 109 48 273zM411 487v199h-285v-69h208v-117q0 -170 -53 -286h83q47 124 47 273zM872 5v69h-374v306h-73v-306h-398v-69h845z" />
<glyph unicode="&#xaf2d;" d="M723 754h-274v-68h196q-1 -113 -47 -282h75q18 67 25.5 100t16 103t8.5 147zM417 754h-276v-68h198q-1 -109 -46 -282h75q18 71 25 101t15.5 101t8.5 148zM873 279v65h-376v187h-74v-187h-396v-65h846zM678 -155v320h-468v-70h393v-250h75z" />
<glyph unicode="&#xaf30;" d="M723 754h-274v-68h196q-1 -122 -47 -293h75q16 61 25 101t17 111t8 149zM417 754h-276v-68h198q-1 -118 -46 -293h75q16 63 24.5 101.5t16.5 110.5t8 149zM873 262v65h-376v196h-74v-196h-396v-65h846zM702 -133v68h-407v218h-74v-286h481z" />
<glyph unicode="&#xaf32;" d="M727 765h-278v-69h200q-1 -105 -46 -261h75q3 13 11.5 45t12 47t9.5 45.5t9 55t5 61t2 76.5zM873 323v67h-373v164h-74v-164h-399v-67h846zM417 765h-276v-69h198q-1 -114 -46 -261h75q49 123 49 330zM810 61v62h-409v-62h120q-26 -7 -46.5 -36t-20.5 -63q0 -58 44 -90.5 t110 -33.5t111 33t45 93q0 34 -19 60t-47 37h112zM438 -135v69h-213v273h-76v-342h289zM688 -38q-1 -30 -23 -46t-57 -15q-33 1 -54.5 17t-22.5 46t23 48t57 17q34 -1 56 -18.5t21 -48.5zM721 179v65q-86 -9 -147 1q-53 6 -86 21l-23 -54q39 -25 104 -33q63 -9 152 0z" />
<glyph unicode="&#xaf34;" d="M727 764h-278v-68h200q-1 -101 -46 -257h75q3 12 14 52.5t14.5 58t9.5 54t8.5 74.5t2.5 86zM873 327v67h-373v164h-74v-164h-399v-67h846zM417 764h-276v-68h198q-1 -110 -46 -257h75q49 123 49 325zM701 -145v70h-396v94h372v222h-457v-67h377v-89h-371v-230h475z" />
<glyph unicode="&#xaf3c;" d="M723 754h-274v-68h196q-1 -112 -47 -283h75q18 68 25.5 100.5t16 103t8.5 147.5zM417 754h-276v-68h198q-1 -108 -46 -283h75q18 72 24.5 101.5t15.5 101t9 148.5zM873 279v65h-376v187h-74v-187h-396v-65h846zM687 -138v309h-466v-309h466zM611 -70h-312v172h312v-172z " />
<glyph unicode="&#xaf3d;" d="M727 764h-278v-68h200q-1 -105 -46 -261h75q2 7 13.5 52t14.5 60t10 54t9 77t2 86zM873 308v66h-373v175h-74v-175h-399v-66h846zM417 764h-276v-68h198q-1 -114 -46 -261h75q49 123 49 329zM687 -143v373h-76v-126h-311v126h-77v-373h464zM611 -75h-311v111h311v-111z " />
<glyph unicode="&#xaf3f;" d="M723 754h-274v-68h196q-1 -112 -47 -283h75q18 68 25.5 100.5t16 103t8.5 147.5zM417 754h-276v-68h198q-1 -108 -46 -283h75q18 72 24.5 101.5t15.5 101t9 148.5zM873 272v65h-376v194h-74v-194h-396v-65h846zM736 -83l-263 180q16 45 16 84v38h-77v-30 q0 -85 -66 -158.5t-179 -107.5l49 -58q146 45 225 169l247 -171z" />
<glyph unicode="&#xaf41;" d="M723 754h-274v-68h196q-1 -114 -47 -274h75q50 160 50 342zM873 288v65h-376v175h-74v-175h-396v-65h846zM417 754h-276v-68h198q-1 -116 -46 -274h75q49 180 49 342zM686 39q0 86 -66 137.5t-164 51.5q-96 0 -161.5 -53.5t-65.5 -136.5q0 -88 65.5 -136.5t161.5 -48.5 t163 50.5t67 135.5zM608 39q0 -57 -45 -89t-107 -32q-61 0 -105 32t-44 89q0 55 42.5 88.5t106.5 33.5q66 0 109 -32t43 -90z" />
<glyph unicode="&#xaf42;" d="M727 754h-278v-68h200q-1 -107 -46 -261h75q3 12 11.5 45t12 47t9.5 45t8.5 55t5 60.5t2.5 76.5zM873 302v66h-373v176h-74v-176h-399v-66h846zM417 754h-276v-68h198q-1 -116 -46 -261h75q49 120 49 329zM768 -82l-222 119q103 87 127 173h-443v-66h316 q-63 -76 -167 -135.5t-212 -82.5l46 -59q134 28 271 123l239 -129z" />
<glyph unicode="&#xaf43;" d="M727 764h-278v-68h200q-2 -123 -46 -244h76q48 142 48 312zM873 340v67h-373v159h-74v-159h-399v-67h846zM417 764h-276v-68h198q-1 -116 -46 -244h76q48 116 48 312zM759 -88l-209 93q91 69 126 149h-446v-66h299q-47 -54 -146 -98.5t-216 -64.5l43 -63q144 24 272 98 l229 -105zM600 208v67q-104 -6 -203 -1q-54 9 -99 24l-24 -57q31 -18 117 -34q82 -3 209 1z" />
<glyph unicode="&#xaf48;" horiz-adv-x="940" d="M929 367v68h-166v356h-74v-901h74v477h166zM553 680h-246v-68h171q0 -64 -11 -166t-29 -149h77q38 140 38 383zM287 680h-252v-68h176q0 -64 -12 -165.5t-30 -149.5h79q39 139 39 383zM653 140v69q-124 -23 -289 -28v244h-74v-248h-269v-68h197q231 0 435 31z" />
<glyph unicode="&#xaf49;" horiz-adv-x="940" d="M920 478v70h-159v243h-74v-577h74v264h159zM553 723h-242v-67h168q0 -25 -2 -49t-3.5 -40.5t-5.5 -41t-6.5 -36.5t-8.5 -42.5t-9 -44.5h73q36 129 36 321zM282 723h-238v-67h162q-3 -147 -35 -254h74q37 151 37 321zM644 295v65q-112 -23 -278 -27v189h-74v-189h-261v-67 h198q46 0 87 1t70 1.5t61.5 3t47.5 3.5t44.5 5t35.5 4.5t36 5.5t33 5zM756 -156v326h-478v-69h404v-257h74z" />
<glyph unicode="&#xaf50;" horiz-adv-x="940" d="M927 502v69h-163v221h-74v-508h74v218h163zM555 733h-242v-67h168q-1 -37 -4 -68.5t-6.5 -49.5t-11.5 -55t-13 -61h73q21 76 28.5 137t7.5 164zM646 335v65q-112 -23 -278 -27v179h-74v-179h-261v-67h198q110 0 196 5t119 9.5t100 14.5zM284 733h-238v-67h162 q-2 -125 -35 -234h74q21 87 29 145t8 156zM771 -146v72h-400v93h375v217h-459v-68h381v-83h-376v-231h479z" />
<glyph unicode="&#xaf5c;" horiz-adv-x="940" d="M920 478v70h-159v243h-74v-577h74v264h159zM553 723h-242v-67h168q0 -25 -2 -49t-3.5 -40.5t-5.5 -41t-6.5 -36.5t-8.5 -42.5t-9 -44.5h73q36 129 36 321zM282 723h-238v-67h162q-3 -147 -35 -254h74q37 151 37 321zM644 295v65q-112 -23 -278 -27v189h-74v-189h-261v-67 h198q46 0 87 1t70 1.5t61.5 3t47.5 3.5t44.5 5t35.5 4.5t36 5.5t33 5zM825 -82l-179 162q9 30 11 70v36h-78v-33q0 -54 -27.5 -110.5t-75.5 -88.5l-118 118q8 24 12 78v36h-78v-33q0 -71 -47.5 -136.5t-118.5 -94.5l48 -58q38 15 83 53t69 84l144 -143q41 18 82 57.5 t68 91.5l157 -141z" />
<glyph unicode="&#xaf5d;" horiz-adv-x="940" d="M920 478v70h-159v243h-74v-567h74v254h159zM553 723h-242v-67h168q0 -25 -2 -49t-3.5 -40.5t-5.5 -41t-6.5 -36.5t-8.5 -42.5t-9 -44.5h73q36 129 36 321zM282 723h-238v-67h162q-3 -147 -35 -254h74q37 151 37 321zM644 295v65q-112 -23 -278 -27v189h-74v-189h-261v-67 h198q46 0 87 1t70 1.5t61.5 3t47.5 3.5t44.5 5t35.5 4.5t36 5.5t33 5zM765 28q0 83 -66.5 135.5t-163.5 52.5q-93 0 -161 -53t-68 -135q0 -84 67.5 -137t161.5 -53q95 0 162.5 52.5t67.5 137.5zM687 28q0 -56 -45 -87t-107 -31q-59 0 -105 33t-46 85q0 55 45.5 86.5 t105.5 31.5q62 0 107 -30.5t45 -87.5z" />
<glyph unicode="&#xaf64;" horiz-adv-x="940" d="M875 -110v901h-75v-356h-115v335h-74v-817h74v413h115v-476h75zM515 680h-224v-68h148q0 -66 -11 -167t-29 -148h77q39 139 39 383zM271 680h-226v-68h150q0 -64 -12 -165.5t-30 -149.5h79q39 139 39 383zM581 140v69q-132 -25 -230 -28v244h-75v-248h-239v-68h164 q68 0 119.5 1.5t92 5.5t61.5 6.5t57.5 9t49.5 8.5z" />
<glyph unicode="&#xaf65;" horiz-adv-x="940" d="M857 212v580h-75v-244h-108v221h-74v-536h74v247h108v-268h75zM504 723h-225v-67h150q-3 -152 -35 -254h73q37 128 37 321zM258 723h-223v-67h148q-3 -149 -36 -254h74q37 123 37 321zM569 281v67q-121 -24 -228 -28v202h-75v-203h-234v-67h180q170 0 338 26q13 2 19 3z M814 -156v326h-479v-69h404v-257h75z" />
<glyph unicode="&#xaf79;" horiz-adv-x="940" d="M857 214v578h-75v-244h-108v221h-74v-515h74v226h108v-266h75zM504 723h-225v-67h150q-3 -152 -35 -254h73q37 128 37 321zM258 723h-223v-67h148q-3 -149 -36 -254h74q37 123 37 321zM569 281v67q-121 -24 -228 -28v202h-75v-203h-234v-67h180q170 0 338 26q13 2 19 3z M812 28q0 83 -66.5 135.5t-163.5 52.5q-93 0 -161 -53t-68 -135q0 -84 67.5 -137t161.5 -53q95 0 162.5 52.5t67.5 137.5zM734 28q0 -56 -45 -87t-107 -31q-59 0 -105 33t-46 85q0 55 45.5 86.5t105.5 31.5q62 0 107 -30.5t45 -87.5z" />
<glyph unicode="&#xaf80;" horiz-adv-x="890" d="M807 -110v901h-74v-901h74zM593 680h-248v-68h172q0 -64 -11 -166t-29 -149h77q39 139 39 383zM322 680h-257v-68h180q0 -66 -11.5 -167t-30.5 -148h80q39 144 39 383zM695 140v69q-122 -23 -296 -28v244h-74v-248h-287v-68h224q229 0 433 31z" />
<glyph unicode="&#xaf84;" horiz-adv-x="890" d="M802 144v647h-74v-647h74zM591 713h-250v-67h174q-2 -129 -34 -262h74q36 123 36 329zM318 713h-244v-67h169q-3 -163 -36 -262h75q36 128 36 329zM696 267v66q-113 -21 -287 -26v185h-74v-185h-287v-68h224q226 0 424 28zM806 -136v70h-411v209h-75v-279h486z" />
<glyph unicode="&#xaf88;" horiz-adv-x="890" d="M803 284v508h-74v-508h74zM585 733h-242v-67h168q-2 -114 -35 -234h74q21 67 28 130.5t7 170.5zM314 733h-238v-67h162q-2 -120 -35 -234h74q37 92 37 301zM696 332v63q-99 -20 -293 -28v165h-75v-165h-276v-63h218q230 0 426 28zM800 -146v72h-400v93h374v217h-459v-68 h382v-83h-376v-231h479z" />
<glyph unicode="&#xaf90;" horiz-adv-x="890" d="M804 218v573h-74v-573h74zM591 723h-250v-67h174q-3 -141 -34 -254h74q21 72 28.5 142t7.5 179zM318 723h-244v-67h169q-3 -155 -36 -254h75q36 125 36 321zM698 287v65q-111 -22 -292 -27v186h-74v-186h-287v-67h224q238 0 429 29zM785 -139v310h-467v-310h467zM707 -70 h-312v173h312v-173z" />
<glyph unicode="&#xaf91;" horiz-adv-x="890" d="M803 276v516h-74v-516h74zM585 733h-242v-67h168q0 -19 -1.5 -37t-2.5 -31.5t-3.5 -31t-4 -26.5t-5.5 -27.5t-5.5 -24.5l-7 -28t-6.5 -28h73q21 69 29 133t8 168zM314 733h-238v-67h162q-2 -109 -35 -234h74q37 101 37 301zM696 323v63q-99 -20 -293 -28v165h-75v-165 h-276v-63h218q230 0 426 28zM783 -144v365h-77v-119h-311v119h-77v-365h465zM706 -75h-311v109h311v-109z" />
<glyph unicode="&#xaf95;" horiz-adv-x="890" d="M804 228v563h-74v-563h74zM586 723h-250v-67h174q-3 -132 -35 -240h76q21 73 28 136t7 171zM315 723h-244v-67h169q-3 -139 -36 -240h75q21 69 28.5 134.5t7.5 172.5zM698 296v65q-111 -22 -292 -27v177h-74v-177h-287v-66h213q242 0 440 28zM775 29q0 83 -65 135.5 t-158 52.5q-90 0 -156 -53t-66 -135q0 -84 66 -137t156 -53q92 0 157.5 53t65.5 137zM699 29q0 -55 -44.5 -86.5t-102.5 -31.5t-102 32.5t-44 85.5q0 55 43.5 86.5t102.5 31.5q58 0 102.5 -32.5t44.5 -85.5z" />
<glyph unicode="&#xaf9c;" d="M739 487v199h-298v-69h222v-117q0 -174 -50 -286h80q46 105 46 273zM872 5v69h-266v278h-75v-278h-113v278h-34q17 74 17 135v199h-285v-69h208v-117q0 -145 -63 -286h81v1q1 1 1 2v-143h-316v-69h845z" />
<glyph unicode="&#xafb8;" d="M719 735h-281v-68h203q-1 -139 -46 -315h75q49 196 49 383zM416 735h-286v-68h208q-1 -139 -46 -315h75q49 196 49 383zM872 237v69h-845v-69h377v-364h75v364h393z" />
<glyph unicode="&#xafb9;" d="M873 341v68h-198q43 176 43 345h-264v-68h185q-1 -125 -39 -277h-213q42 180 42 345h-286v-68h208q-1 -116 -39 -277h-285v-68h383v-158h-198v-68h393v-270h75v338h-196v158h389z" />
<glyph unicode="&#xafbc;" d="M873 307v66h-198q45 184 45 375h-264v-68h186q-2 -137 -42 -307h-214q45 182 45 375h-286v-68h208q-2 -137 -42 -307h-284v-66h407v-244h74v244h365zM692 -133v68h-408v239h-73v-307h481z" />
<glyph unicode="&#xafc0;" d="M873 372v67h-197q40 156 40 325h-264v-68h185q-1 -113 -36 -257h-213q39 160 39 325h-286v-68h208q-1 -105 -36 -257h-286v-67h380v-119h-187v-66h377v-95h-371v-237h475v70h-396v101h372v227h-196v119h392z" />
<glyph unicode="&#xafc7;" d="M868 367v67h-190q40 156 40 331h-264v-69h185q-1 -118 -36 -262h-213q39 137 39 331h-286v-69h208q-1 -110 -36 -262h-288v-67h382v-122h-266v-67h198v-93h-195v-230h312v71h-235v93h196v177h64v171h385zM819 60v62h-379v-62h100q-27 -7 -49 -36.5t-22 -62.5 q0 -59 44.5 -92.5t113.5 -31.5q73 2 116.5 34.5t43.5 91.5q0 34 -20.5 59.5t-49.5 37.5h102zM707 -39q-1 -30 -23 -46t-57 -15q-33 1 -54.5 17t-22.5 46t23 48t57 17q34 -1 56 -18.5t21 -48.5zM740 185v66q-90 -9 -147 0q-50 6 -86 22l-23 -55q39 -25 104 -33q63 -9 152 0z " />
<glyph unicode="&#xafc8;" d="M873 340v67h-202q45 180 45 347h-267v-68h188q-1 -118 -41 -279h-213q44 184 44 347h-286v-68h208q-1 -118 -41 -279h-281v-67h387v-147h-188v-331h466v331h-204v147h385zM616 -70h-312v195h312v-195z" />
<glyph unicode="&#xafc9;" d="M873 360v68h-198q41 162 41 336h-267v-68h188q-1 -118 -37 -268h-213q40 166 40 336h-286v-68h208q-1 -109 -37 -268h-285v-68h389v-190h74v190h383zM687 -143v386h-76v-136h-311v136h-77v-386h464zM611 -75h-311v114h311v-114z" />
<glyph unicode="&#xafcb;" d="M873 334v66h-201q44 176 44 354h-267v-68h188q-1 -128 -40 -286h-214q44 174 44 354h-286v-68h208q-1 -124 -41 -286h-281v-66h385v-147q0 -82 -67 -160t-178 -111l49 -58q71 22 130 68t95 104l247 -174l47 55l-261 185q14 38 14 93v145h385z" />
<glyph unicode="&#xafcd;" d="M873 335v68h-199q45 178 45 351h-267v-68h188q-1 -128 -41 -283h-213q44 182 44 351h-286v-68h208q-1 -120 -41 -283h-284v-68h383v-124q-79 -12 -129.5 -62t-50.5 -121q0 -86 65.5 -134t161.5 -48t163 50t67 133q0 78 -57.5 128t-145.5 57v121h389zM609 29 q0 -56 -45 -87.5t-107 -31.5q-61 0 -105 31.5t-44 87.5q0 54 42.5 87t106.5 33q66 0 109 -31t43 -89z" />
<glyph unicode="&#xafce;" d="M873 351v68h-201q42 170 42 335h-264v-68h185q-1 -110 -38 -267h-212q42 170 42 335h-286v-68h208q-1 -106 -39 -267h-283v-68h382v-141h-179v-66h316q-63 -77 -166 -136t-213 -81l46 -60q134 28 271 123l237 -127l45 57l-220 117q103 87 127 173h-190v141h390z" />
<glyph unicode="&#xafd4;" horiz-adv-x="890" d="M577 713h-225v-66h152q-2 -158 -41 -269h75q39 140 39 335zM784 -110v901h-74v-618h-204v-69h204v-214h74zM331 713h-242v-66h168q-2 -158 -41 -269h76q39 135 39 335zM663 295v67q-152 -31 -409 -31h-218v-67h192q48 0 70 1v-361h75v362q136 5 290 29z" />
<glyph unicode="&#xafdc;" horiz-adv-x="890" d="M791 252v540h-72v-435h-201v-63h201v-42h72zM670 424v68q-81 -16 -130 -19q27 95 27 266h-223v-64h152q-3 -109 -29 -208q-67 -5 -173 -7q33 110 33 279h-227v-64h155q-2 -108 -34 -215h-176v-64h239v-140h73v141q152 5 313 27zM795 -146v72h-400v84h375v207h-459v-67 h381v-73h-376v-223h479z" />
<glyph unicode="&#xafe8;" horiz-adv-x="890" d="M786 202v590h-72v-475h-201v-63h201v-52h72zM665 407v68q-81 -16 -130 -19q27 94 27 278h-223v-64h152q-3 -122 -29 -220q-67 -5 -173 -7q33 109 33 291h-227v-64h155q-3 -121 -34 -227h-176v-64h239v-173h73v174q152 5 313 27zM847 -92l-179 163q8 26 10 69v28h-77v-25 q0 -54 -27.5 -111.5t-75.5 -90.5l-118 121q8 24 12 78v25h-78v-22q0 -73 -45.5 -136.5t-120.5 -91.5l48 -61q100 46 153 137l143 -143q42 19 82.5 57.5t67.5 92.5l157 -142z" />
<glyph unicode="&#xafe9;" horiz-adv-x="890" d="M784 212v580h-72v-455h-201v-63h201v-62h72zM663 407v68q-81 -16 -130 -19q27 94 27 278h-223v-64h152q-3 -122 -29 -220q-67 -5 -173 -7q33 109 33 291h-227v-64h155q-3 -121 -34 -227h-176v-64h237v-163h73v164q154 5 315 27zM772 31q0 83 -65 135.5t-158 52.5 q-90 0 -156 -53t-66 -135q0 -84 66 -137t156 -53q92 0 157.5 53t65.5 137zM696 31q0 -55 -44.5 -86.5t-102.5 -31.5t-102 32.5t-44 85.5q0 55 43.5 86.5t102.5 31.5q58 0 102.5 -32.5t44.5 -85.5z" />
<glyph unicode="&#xaff0;" horiz-adv-x="940" d="M848 -110v901h-76v-901h76zM513 713h-210v-66h135q-4 -159 -42 -267h78q39 145 39 333zM676 -69v839h-74v-595h-191v-69h191v-175h74zM291 713h-214v-66h139q-2 -156 -41 -267h78q38 137 38 333zM564 297v67q-148 -31 -352 -31h-171v-67h144q49 0 71 1v-363h74v365 q42 2 79.5 5.5t55 6t53.5 8.5t46 8z" />
<glyph unicode="&#xaff1;" horiz-adv-x="940" d="M848 202v590h-76v-590h76zM679 223v546h-74v-431h-182v-66h182v-49h74zM565 415v68q-39 -9 -79 -12q23 93 23 263h-202v-66h128q-3 -120 -25 -208q-55 -6 -145 -7q27 102 27 281h-207v-66h132q-3 -133 -26 -216h-154v-65h217v-180h74v183q90 4 237 25zM801 -156v320h-478 v-69h403v-251h75z" />
<glyph unicode="&#xaff4;" horiz-adv-x="940" d="M848 139v653h-76v-653h76zM679 169v600h-74v-461h-182v-68h182v-71h74zM562 395v67q-44 -8 -76 -12q24 99 24 273h-202v-65h128q-3 -124 -25 -219q-61 -8 -149 -9q29 109 29 293h-204v-65h129q-3 -137 -28 -228h-152v-64h218v-201h74v203q55 2 92 6t85.5 12t56.5 9z M835 -136v70h-411v209h-75v-279h486z" />
<glyph unicode="&#xaff8;" horiz-adv-x="940" d="M848 253v539h-76v-539h76zM679 264v505h-74v-400h-182v-66h182v-39h74zM562 443v67q-15 -5 -44.5 -9t-30.5 -4q23 86 23 242h-202v-66h128q-3 -103 -24 -186q-81 -8 -149 -9q28 100 28 261h-204v-66h129q-3 -113 -27 -195h-153v-65h141q54 0 77 1v-165h74v167q55 2 92 6 t85.5 12t56.5 9zM828 -146v72h-399v84h374v207h-459v-67h381v-73h-376v-223h479z" />
<glyph unicode="&#xb000;" horiz-adv-x="940" d="M841 202v590h-76v-590h76zM667 222v547h-74v-431h-182v-67h182v-49h74zM550 415v69q-21 -5 -76 -12q23 93 23 261h-202v-65h128q-3 -119 -25 -207q-78 -8 -149 -9q27 102 27 281h-203v-65h129q-3 -129 -27 -216h-151v-65h218v-180h74v182q83 4 234 26zM802 -139v303h-465 v-303h465zM726 -70h-313v166h313v-166z" />
<glyph unicode="&#xb001;" horiz-adv-x="940" d="M841 246v546h-76v-546h76zM667 258v511h-74v-401h-182v-66h182v-44h74zM540 437v67q-26 -6 -65 -13q23 87 23 243h-202v-66h128q-3 -104 -24 -188q-68 -7 -149 -8q28 101 28 262h-204v-66h129q-3 -115 -27 -196h-153v-65h141q54 0 77 1v-165h74v167q43 1 78 4.5t53 6 t47.5 8t45.5 8.5zM791 -144v349h-77v-108h-311v108h-77v-349h465zM714 -75h-311v104h311v-104z" />
<glyph unicode="&#xb004;" horiz-adv-x="940" d="M841 202v590h-75v-590h75zM668 223v546h-75v-431h-181v-67h181v-48h75zM540 419v68q-30 -7 -64 -13q22 93 22 260h-202v-66h129q-3 -115 -24 -204q-62 -8 -149 -9q28 104 28 279h-204v-66h129q-3 -119 -26 -213h-155v-64h142q53 0 76 1v-185h75v186q56 2 91 5.5t78 11 t54 9.5zM876 -92l-179 163q8 26 10 69v28h-77v-25q0 -55 -27 -112.5t-76 -89.5l-118 121q8 24 12 78v25h-78v-22q0 -73 -45 -136.5t-121 -91.5l48 -61q100 46 153 137l143 -143q42 19 82.5 57.5t67.5 92.5l157 -142z" />
<glyph unicode="&#xb00c;" horiz-adv-x="890" d="M797 -110v901h-75v-901h75zM603 713h-239v-66h166q-2 -165 -40 -279h74q39 135 39 345zM344 713h-246v-66h173q-4 -169 -41 -279h75q39 140 39 345zM687 281v68q-143 -28 -430 -28h-215v-67h190q63 0 91 1v-351h74v353q158 6 290 24z" />
<glyph unicode="&#xb010;" horiz-adv-x="890" d="M784 155v637h-73v-637h73zM675 382v66q-56 -11 -118 -17q25 96 25 292h-234v-63h161q-3 -143 -26 -236q-95 -7 -181 -7q29 98 29 306h-237v-63h164q-4 -169 -28 -243h-192v-65h249v-159h75v160q169 5 313 29zM794 -136v70h-411v209h-76v-279h487z" />
<glyph unicode="&#xb014;" horiz-adv-x="890" d="M786 264v528h-73v-528h73zM677 419v67q-47 -10 -107 -16q24 83 24 264h-244v-64h172q-4 -123 -26 -207q-92 -7 -192 -8q29 92 29 279h-237v-64h164q-3 -139 -28 -215h-192v-64h249v-127h75v128q151 5 313 27zM790 -146v72h-400v84h374v210h-459v-67h382v-76h-376v-223 h479z" />
<glyph unicode="&#xb01c;" horiz-adv-x="890" d="M788 215v577h-72v-577h72zM679 407v66q-56 -11 -118 -17q25 96 25 282h-234v-63h161q-3 -132 -26 -226q-95 -7 -181 -7q29 98 29 296h-237v-63h164q-4 -159 -28 -233h-192v-65h249v-159h75v160q169 5 313 29zM765 -139v300h-465v-300h465zM688 -70h-312v163h312v-163z " />
<glyph unicode="&#xb01d;" horiz-adv-x="890" d="M786 254v538h-73v-538h73zM677 419v67q-47 -10 -107 -16q24 83 24 264h-244v-64h172q-4 -123 -26 -207q-92 -7 -192 -8q29 92 29 279h-237v-64h164q-3 -139 -28 -215h-192v-64h249v-137h75v138q151 5 313 27zM762 -144v349h-77v-108h-311v108h-77v-349h465zM685 -75h-311 v104h311v-104z" />
<glyph unicode="&#xb028;" d="M717 735h-281v-68h203q-1 -139 -46 -315h75q49 196 49 383zM414 735h-286v-68h208q-1 -143 -47 -315h76q49 196 49 383zM872 237v69h-845v-69h237v-364h75v364h206v-364h76v364h251z" />
<glyph unicode="&#xb044;" d="M739 487v199h-288v-69h212v-118q0 -169 -52 -285h80q48 109 48 273zM411 487v199h-295v-69h218v-118q0 -169 -53 -285h83q47 122 47 273zM872 18v69h-845v-69h845z" />
<glyph unicode="&#xb045;" d="M873 329v67h-201q43 180 43 358h-267v-68h188q-1 -128 -39 -290h-214q43 180 43 358h-286v-68h208q-2 -132 -40 -290h-281v-67h846zM680 -155v348h-468v-68h393v-280h75z" />
<glyph unicode="&#xb048;" d="M873 307v66h-198q45 186 45 375h-267v-68h189q-1 -133 -42 -307h-213q44 190 44 375h-286v-68h208q-1 -128 -41 -307h-285v-66h846zM702 -133v68h-408v259h-73v-327h481z" />
<glyph unicode="&#xb04a;" d="M873 345v68h-197q45 178 45 352h-267v-69h189q-1 -126 -42 -283h-213q44 174 44 352h-286v-69h208q-1 -118 -40 -283h-287v-68h846zM810 61v62h-409v-62h120q-26 -7 -46.5 -36t-20.5 -63q0 -58 44 -90.5t110 -33.5t111 33t45 93q0 34 -19 60t-47 37h112zM438 -135v69 h-213v273h-76v-342h289zM688 -38q-1 -30 -23 -46t-57 -15q-33 1 -54.5 17t-22.5 46t23 48t57 17q34 -1 56 -18.5t21 -48.5zM721 179v65q-86 -9 -147 1q-53 6 -86 21l-23 -54q39 -25 104 -33q63 -9 152 0z" />
<glyph unicode="&#xb04c;" d="M873 366v67h-197q43 165 43 331h-267v-68h189q-3 -113 -40 -263h-213q42 168 42 331h-286v-68h208q-1 -104 -39 -263h-286v-67h846zM703 -145v70h-396v106h372v234h-456v-67h376v-101h-371v-242h475z" />
<glyph unicode="&#xb04e;" d="M873 366v67h-192q42 168 42 331h-267v-68h189q-1 -104 -39 -263h-213q41 157 41 331h-286v-68h208q-1 -99 -38 -263h-291v-67h846zM742 -145v400h-266v-400h266zM461 -145v71h-229v101h195v230h-274v-67h197v-97h-195v-238h306zM666 -77h-116v264h116v-264z" />
<glyph unicode="&#xb053;" d="M873 366v67h-192q42 168 42 331h-267v-68h189q-1 -104 -39 -263h-213q41 157 41 331h-286v-68h208q-1 -99 -38 -263h-291v-67h846zM820 61v62h-389v-62h100q-26 -7 -46.5 -36t-20.5 -63q0 -58 44 -90.5t110 -33.5t111 33t45 93q0 34 -19 60t-47 37h112zM456 -145v71h-235 v103h196v231h-276v-67h198v-98h-196v-240h313zM698 -38q-1 -30 -23 -46t-57 -15q-33 1 -54.5 17t-22.5 46t23 48t57 17q34 -1 56 -18.5t21 -48.5zM737 192v66q-90 -9 -147 0q-53 6 -86 21l-23 -54q39 -25 104 -33q63 -9 152 0z" />
<glyph unicode="&#xb054;" d="M873 328v67h-202q45 182 45 359h-267v-68h188q-1 -129 -41 -291h-213q44 186 44 359h-286v-68h208q-1 -129 -41 -291h-281v-67h846zM687 -138v331h-466v-331h466zM611 -70h-312v195h312v-195z" />
<glyph unicode="&#xb055;" d="M873 349v68h-201q44 172 44 347h-267v-68h188q-1 -123 -40 -279h-213q43 176 43 347h-286v-68h208q-1 -114 -40 -279h-282v-68h846zM687 -143v395h-76v-129h-311v129h-77v-395h464zM611 -75h-311v129h311v-129z" />
<glyph unicode="&#xb057;" d="M873 321v66h-205q45 182 45 367h-267v-68h188q-1 -133 -41 -299h-213q44 186 44 367h-286v-68h208q-1 -124 -41 -299h-278v-66h846zM737 -83l-263 190q16 45 16 84v48h-77v-40q0 -79 -68 -160.5t-177 -114.5l49 -59q82 33 133 76t93 103l246 -181z" />
<glyph unicode="&#xb059;" d="M873 322v66h-199q45 182 45 366h-267v-68h188q-1 -136 -41 -298h-213q44 186 44 366h-286v-68h208q-1 -127 -41 -298h-284v-66h846zM689 39q0 86 -66 137.5t-164 51.5q-96 0 -161.5 -53.5t-65.5 -136.5q0 -88 65.5 -136.5t161.5 -48.5t163 50.5t67 135.5zM611 39 q0 -57 -45 -89t-107 -32q-61 0 -105 32t-44 89q0 55 42.5 88.5t106.5 33.5q66 0 109 -32t43 -90z" />
<glyph unicode="&#xb05d;" d="M873 353v68h-198q44 172 44 343h-267v-68h189q-3 -120 -41 -275h-213q43 176 43 343h-286v-68h208q-1 -110 -40 -275h-285v-68h846zM700 -145v68h-401v101h380v69h-380v94h391v68h-466v-400h476z" />
<glyph unicode="&#xb07c;" horiz-adv-x="890" d="M801 -110v899h-74v-899h74zM599 661h-254v-69h169q-11 -107 -65.5 -222t-152.5 -184l60 -44q105 76 168 213t75 306zM338 661h-269v-69h186q-5 -44 -18 -90.5t-38.5 -103t-72 -109.5t-107.5 -90l59 -46q113 71 183.5 209t76.5 299z" />
<glyph unicode="&#xb07d;" horiz-adv-x="890" d="M785 224v566h-74v-566h74zM576 723h-250v-68h165q-4 -25 -9.5 -50t-21.5 -66.5t-37.5 -76t-59.5 -71t-86 -60.5l51 -50q64 33 113.5 87.5t77 117.5t41.5 122t16 115zM321 723h-257v-68h170q-4 -35 -16.5 -71.5t-36 -82t-68 -88t-103.5 -71.5l53 -49q72 41 122 91.5 t77.5 108t40 110.5t18.5 120zM762 -156v327h-467v-70h392v-257h75z" />
<glyph unicode="&#xb080;" horiz-adv-x="890" d="M771 160v630h-74v-630h74zM573 713h-251v-68h166q-5 -34 -15 -69t-32 -88t-65.5 -100.5t-102.5 -76.5l51 -51q64 32 113.5 88.5t77 121t42 125.5t16.5 118zM317 713h-257v-68h170q-4 -35 -16 -73.5t-36 -86t-68.5 -91t-103.5 -72.5l53 -51q72 42 122 95t77 113.5t40 114 t19 119.5zM772 -136v70h-401v240h-75v-310h476z" />
<glyph unicode="&#xb084;" horiz-adv-x="890" d="M779 297v493h-74v-493h74zM582 734h-250v-69h165q-5 -31 -14.5 -63t-32 -78t-65.5 -89.5t-102 -72.5l51 -50q65 33 114 84.5t76.5 110t41.5 115t16 112.5zM327 734h-257v-69h170q-4 -34 -16 -68t-36 -75t-68.5 -80t-103.5 -68l53 -51q72 42 122.5 91t77.5 103t40 104.5 t18 112.5zM771 -146v72h-389v98h365v222h-449v-67h370v-89h-365v-236h468z" />
<glyph unicode="&#xb08c;" horiz-adv-x="890" d="M780 231v559h-74v-559h74zM581 723h-250v-68h165q-4 -25 -9.5 -50t-21.5 -66.5t-37.5 -76t-59.5 -71t-86 -60.5l51 -50q64 32 113.5 87t77 117.5t41.5 122t16 115.5zM326 723h-257v-68h170q-4 -35 -16.5 -72t-36 -82.5t-68 -87.5t-103.5 -71l53 -49q72 41 122 91.5 t77.5 108t40 110.5t18.5 120zM761 -139v322h-455v-322h455zM684 -70h-302v184h302v-184z" />
<glyph unicode="&#xb08d;" horiz-adv-x="890" d="M778 276v514h-74v-514h74zM591 734h-250v-69h165q-5 -31 -14.5 -63t-32 -78t-65.5 -89.5t-102 -72.5l51 -50q65 33 114 84.5t76.5 110t41.5 115t16 112.5zM336 734h-257v-69h170q-4 -34 -16 -68t-36 -75.5t-68.5 -80.5t-103.5 -68l53 -50q72 42 122.5 91t77.5 103 t40 104.5t18 112.5zM768 -144v374h-77v-126h-301v126h-76v-374h454zM691 -75h-301v111h301v-111z" />
<glyph unicode="&#xb08f;" horiz-adv-x="890" d="M783 170v619h-74v-619h74zM584 713h-250v-68h165q-4 -25 -9.5 -50t-21.5 -66.5t-37.5 -76t-59.5 -71t-86 -60.5l51 -51q64 33 113 87.5t76.5 117.5t42 122t16.5 116zM329 713h-257v-68h170q-4 -35 -16.5 -72t-36 -82.5t-68 -87.5t-103.5 -71l53 -50q72 42 122 92.5 t77 108t40 110.5t19 120zM801 -87l-249 194q16 46 16 86v47h-79v-39q0 -87 -64.5 -170t-174.5 -117l48 -59q69 22 128 72.5t95 111.5l231 -181z" />
<glyph unicode="&#xb091;" horiz-adv-x="890" d="M780 234v556h-74v-556h74zM581 723h-250v-68h165q-4 -25 -9.5 -50t-21.5 -66.5t-37.5 -76t-59.5 -71t-86 -60.5l51 -50q64 33 113.5 87.5t77 117.5t41.5 122t16 115zM326 723h-257v-68h170q-4 -35 -16.5 -71.5t-36 -82t-68 -88t-103.5 -71.5l53 -49q72 41 122 91.5 t77.5 108t40 110.5t18.5 120zM758 32q0 84 -64.5 138t-156.5 54q-89 0 -155 -56.5t-66 -135.5q0 -83 64 -138t158 -55q91 0 155.5 54.5t64.5 138.5zM681 32q0 -54 -41.5 -89.5t-102.5 -35.5t-101.5 34.5t-40.5 91.5q0 54 40 89t102 35q65 0 104.5 -33t39.5 -92z" />
<glyph unicode="&#xb098;" d="M889 424v67h-170v300h-74v-901h74v534h170zM539 190v69h-382v423h-75v-492h457z" />
<glyph unicode="&#xb099;" d="M882 524v69h-163v199h-74v-554h74v286h163zM531 342v69h-375v329h-74v-398h449zM707 -156v342h-467v-70h393v-272h74z" />
<glyph unicode="&#xb09a;" d="M882 534v69h-163v189h-74v-548h74v290h163zM531 344v69h-375v327h-74v-396h449zM721 -156v348h-255v-70h181v-278h74zM440 -156v348h-281v-70h206v-278h75z" />
<glyph unicode="&#xb09c;" d="M879 504v70h-162v218h-73v-642h73v354h162zM529 322v69h-375v339h-74v-408h449zM731 -136v70h-400v250h-76v-320h476z" />
<glyph unicode="&#xb09f;" d="M881 522v70h-163v200h-74v-568h74v298h163zM530 342v69h-375v329h-74v-398h449zM720 -146v70h-400v182h390v69h-466v-321h476z" />
<glyph unicode="&#xb0a0;" d="M882 551v69h-163v172h-74v-491h74v250h163zM531 372v69h-375v309h-74v-378h449zM727 -146v72h-389v100h363v226h-449v-67h371v-93h-365v-238h469z" />
<glyph unicode="&#xb0a1;" d="M882 551v69h-164v172h-74v-497h74v256h164zM531 372v69h-375v309h-74v-378h449zM720 -146v394h-269v-70h193v-324h76zM475 -146v72h-263v98h215v224h-298v-66h220v-92h-215v-236h341z" />
<glyph unicode="&#xb0a2;" d="M883 551v69h-164v172h-74v-497h74v256h164zM532 372v69h-375v309h-74v-378h449zM723 -146v387h-268v-387h268zM440 -146v72h-234v97h199v223h-278v-67h201v-90h-199v-235h311zM647 -77h-118v250h118v-250z" />
<glyph unicode="&#xb0a8;" d="M881 523v70h-163v199h-74v-558h74v289h163zM530 342v69h-375v329h-74v-398h449zM705 -139v322h-455v-322h455zM629 -70h-301v184h301v-184z" />
<glyph unicode="&#xb0a9;" d="M881 534v69h-163v188h-74v-515h74v258h163zM530 372v69h-375v309h-74v-378h449zM710 -144v374h-77v-126h-300v126h-77v-374h454zM633 -75h-300v111h300v-111z" />
<glyph unicode="&#xb0ab;" d="M881 512v70h-163v209h-74v-609h74v330h163zM530 332v69h-375v329h-74v-398h449zM745 -95l-255 203q16 46 16 86v47h-78v-39q0 -91 -64.5 -173t-175.5 -116l49 -57q70 22 128 71.5t94 113.5l236 -186z" />
<glyph unicode="&#xb0ac;" d="M881 522v70h-163v199h-74v-542h74v273h163zM530 342v69h-375v329h-74v-398h449zM803 -82l-179 163q10 32 11 69v56h-78v-53q0 -61 -25.5 -116t-75.5 -87l-120 122q9 34 12 78v56h-78v-53q0 -75 -44.5 -140t-120.5 -88l47 -61q100 46 153 137l143 -142q100 45 151 148 l156 -141z" />
<glyph unicode="&#xb0ad;" d="M882 524v69h-163v199h-74v-558h74v290h163zM531 342v69h-375v329h-74v-398h449zM712 39q0 84 -64.5 138t-156.5 54q-89 0 -155 -56.5t-66 -135.5q0 -83 64 -138t158 -55q91 0 155.5 54.5t64.5 138.5zM635 39q0 -54 -41.5 -89.5t-102.5 -35.5t-101.5 34.5t-40.5 91.5 q0 54 40 89t102 35q65 0 104.5 -33t39.5 -92z" />
<glyph unicode="&#xb0ae;" d="M882 523v70h-163v199h-74v-533h74v264h163zM531 342v69h-375v329h-74v-398h449zM784 -77l-219 120q102 91 126 177h-443v-67h317q-64 -79 -167.5 -140t-212.5 -84l46 -60q133 30 271 125l237 -129z" />
<glyph unicode="&#xb0af;" d="M881 544v69h-163v179h-74v-480h74v232h163zM530 392v69h-375v289h-74v-358h449zM777 -94l-216 94q99 79 132 159h-447v-65h310q-58 -60 -154.5 -111.5t-214.5 -72.5l44 -61q143 24 263 104l239 -108zM620 225v68q-99 -6 -193 -1q-54 9 -99 24l-24 -57q33 -19 117 -35 q77 -3 199 1z" />
<glyph unicode="&#xb0b1;" d="M882 541v69h-163v182h-74v-498h74v247h163zM531 377v69h-375v304h-74v-373h449zM712 -146v69h-393v97h371v70h-371v85h382v69h-456v-390h467z" />
<glyph unicode="&#xb0b3;" d="M882 554v69h-163v169h-74v-495h74v257h163zM531 392v69h-375v289h-74v-358h449zM756 95v65h-578v-65h156q-26 -14 -41.5 -42.5t-15.5 -61.5q0 -67 57 -110.5t137 -43.5q81 0 136.5 41.5t55.5 114.5q0 69 -57 102h150zM581 -5q0 -41 -32.5 -66.5t-78.5 -25.5 q-48 0 -79.5 25.5t-31.5 66.5q0 40 32 64.5t78 24.5q45 0 78.5 -24.5t33.5 -64.5zM621 229v68q-117 -6 -201 0q-41 2 -99 24l-23 -57q51 -31 115 -35q80 -4 208 0z" />
<glyph unicode="&#xb0b4;" d="M831 -110v901h-75v-292h-153v271h-74v-817h74v476h153v-539h75zM472 190v69h-301v423h-75v-492h376z" />
<glyph unicode="&#xb0b5;" d="M831 234v558h-75v-202h-149v179h-74v-515h74v268h149v-288h75zM466 342v69h-292v329h-74v-398h366zM788 -156v348h-468v-70h393v-278h75z" />
<glyph unicode="&#xb0b8;" d="M830 150v642h-75v-220h-149v197h-74v-578h74v313h149v-354h75zM465 312v68h-292v348h-74v-416h366zM822 -136v70h-401v240h-76v-310h477z" />
<glyph unicode="&#xb0bc;" d="M830 290v502h-75v-191h-149v168h-74v-460h74v224h149v-243h75zM465 368v70h-292v312h-74v-382h366zM806 -146v72h-388v102h364v222h-449v-67h370v-89h-365v-240h468z" />
<glyph unicode="&#xb0c4;" d="M830 234v558h-75v-202h-149v179h-74v-515h74v267h149v-287h75zM465 335v69h-292v336h-74v-405h366zM796 -139v332h-455v-332h455zM720 -70h-302v194h302v-194z" />
<glyph unicode="&#xb0c5;" d="M831 267v525h-75v-200h-149v177h-74v-481h74v235h149v-256h75zM466 352v69h-292v329h-74v-398h366zM790 -144v374h-77v-126h-300v126h-77v-374h454zM713 -75h-300v111h300v-111z" />
<glyph unicode="&#xb0c7;" d="M830 224v568h-75v-212h-149v189h-74v-494h74v236h149v-287h75zM465 314v68h-292v351h-74v-419h366zM822 -91l-255 203q16 46 16 86v35h-78v-27q0 -91 -64.5 -173t-175.5 -116l49 -57q70 22 128 70.5t94 112.5l236 -184z" />
<glyph unicode="&#xb0c8;" d="M830 242v550h-74v-212h-149v189h-74v-507h74v249h149v-269h74zM466 322v69h-293v349h-73v-418h366zM872 -88l-178 162q9 37 10 70v56h-77v-53q0 -57 -28 -112t-73 -90l-122 121q11 33 13 78v56h-79v-53q0 -71 -47 -136.5t-118 -92.5l48 -60q99 44 153 137l144 -142 q40 16 82 55t68 93l157 -141z" />
<glyph unicode="&#xb0c9;" d="M831 234v558h-75v-202h-149v179h-74v-504h74v257h149v-288h75zM466 325v69h-292v346h-74v-415h366zM794 32q0 84 -64.5 138t-156.5 54q-89 0 -155 -56.5t-66 -135.5q0 -83 64 -138t158 -55q91 0 155.5 54.5t64.5 138.5zM717 32q0 -54 -41.5 -89.5t-102.5 -35.5 t-101.5 34.5t-40.5 91.5q0 54 40 89t102 35q65 0 104.5 -33t39.5 -92z" />
<glyph unicode="&#xb0d0;" d="M888 274v67h-169v173h169v68h-169v209h-74v-901h74v384h169zM546 190v69h-382v423h-75v-492h457z" />
<glyph unicode="&#xb0d1;" d="M879 383v68h-162v134h162v68h-162v139h-73v-566h73v157h162zM541 342v69h-375v329h-74v-398h449zM710 -156v338h-467v-70h393v-268h74z" />
<glyph unicode="&#xb0d4;" d="M880 362v69h-162v132h162v68h-162v161h-73v-645h73v215h162zM542 322v69h-375v339h-74v-408h449zM736 -136v70h-400v240h-76v-310h476z" />
<glyph unicode="&#xb0d8;" d="M879 430v68h-162v112h162v68h-162v114h-73v-499h73v137h162zM541 372v69h-375v309h-74v-378h449zM731 -146v72h-389v98h363v222h-449v-67h372v-89h-366v-236h469z" />
<glyph unicode="&#xb0e0;" d="M879 383v68h-162v134h162v68h-162v139h-73v-561h73v152h162zM541 342v69h-375v329h-74v-398h449zM709 -139v322h-455v-322h455zM633 -70h-301v184h301v-184z" />
<glyph unicode="&#xb0e5;" d="M878 383v68h-161v134h161v68h-161v139h-73v-556h73v147h161zM541 342v69h-375v329h-74v-398h449zM716 39q0 84 -64.5 138t-156.5 54q-89 0 -155 -56.5t-66 -135.5q0 -83 64 -138t158 -55q91 0 155.5 54.5t64.5 138.5zM639 39q0 -54 -41.5 -89.5t-102.5 -35.5t-101.5 34.5 t-40.5 91.5q0 54 40 89t102 35q65 0 104.5 -33t39.5 -92z" />
<glyph unicode="&#xb108;" horiz-adv-x="850" d="M768 -110v901h-74v-273h-246v-69h246v-559h74zM558 190v69h-382v423h-75v-492h457z" />
<glyph unicode="&#xb109;" horiz-adv-x="850" d="M744 234v558h-74v-182h-227v-68h227v-308h74zM526 342v69h-375v329h-74v-398h449zM721 -156v338h-467v-70h392v-268h75z" />
<glyph unicode="&#xb10b;" horiz-adv-x="850" d="M744 276v516h-75v-182h-226v-68h226v-266h75zM526 342v69h-375v329h-74v-398h449zM805 -86l-154 158q11 42 11 84v59h-78v-60q0 -74 -37.5 -141t-106.5 -92l49 -54q33 10 70 45.5t63 85.5l132 -136zM427 -137v353h-290v-69h213v-284h77z" />
<glyph unicode="&#xb10c;" horiz-adv-x="850" d="M739 160v632h-74v-203h-227v-69h227v-360h74zM522 322v69h-375v339h-74v-408h449zM750 -136v70h-399v240h-76v-310h475z" />
<glyph unicode="&#xb110;" horiz-adv-x="850" d="M752 297v495h-74v-172h-227v-68h227v-255h74zM534 366v69h-375v315h-74v-384h449zM745 -146v72h-389v98h364v222h-449v-67h371v-89h-366v-236h469z" />
<glyph unicode="&#xb112;" horiz-adv-x="850" d="M756 287v505h-74v-172h-227v-68h227v-265h74zM538 362v69h-375v319h-74v-388h449zM751 -146v387h-267v-387h267zM470 -146v72h-230v97h195v223h-275v-67h198v-90h-195v-235h307zM675 -77h-117v250h117v-250z" />
<glyph unicode="&#xb113;" horiz-adv-x="850" d="M764 287v505h-74v-172h-227v-68h227v-265h74zM546 362v69h-375v319h-74v-388h449zM761 -145v391h-73v-140h-135v140h-72v-391h280zM460 -146v72h-228v97h194v223h-275v-67h198v-90h-196v-235h307zM688 -76h-135v114h135v-114z" />
<glyph unicode="&#xb118;" horiz-adv-x="850" d="M752 240v552h-74v-182h-227v-68h227v-302h74zM534 342v69h-375v329h-74v-398h449zM733 -139v332h-455v-332h455zM656 -70h-301v194h301v-194z" />
<glyph unicode="&#xb119;" horiz-adv-x="850" d="M749 276v516h-74v-172h-227v-68h227v-276h74zM531 352v69h-375v329h-74v-398h449zM728 -144v374h-77v-126h-300v126h-77v-374h454zM651 -75h-300v111h300v-111z" />
<glyph unicode="&#xb11b;" horiz-adv-x="850" d="M746 182v610h-74v-213h-227v-69h227v-328h74zM531 318v69h-375v343h-74v-412h449zM771 -93l-253 200q16 46 16 86v37h-79v-29q0 -87 -65 -171t-174 -118l49 -57q69 22 127 71.5t95 112.5l236 -185z" />
<glyph unicode="&#xb11c;" horiz-adv-x="850" d="M741 244v548h-75v-192h-226v-68h226v-288h75zM523 332v69h-375v339h-74v-408h449zM802 -87l-178 162q9 37 10 70v56h-77v-53q0 -57 -28 -112t-73 -90l-122 121q11 33 13 78v56h-79v-53q0 -71 -47 -136.5t-118 -92.5l48 -60q99 44 153 137l144 -142q40 16 82 55t68 93 l157 -141z" />
<glyph unicode="&#xb11d;" horiz-adv-x="850" d="M747 234v558h-74v-192h-227v-68h227v-298h74zM529 332v69h-375v339h-74v-408h449zM728 39q0 84 -64.5 138t-156.5 54q-89 0 -155 -56.5t-66 -135.5q0 -83 64 -138t158 -55q91 0 155.5 54.5t64.5 138.5zM651 39q0 -54 -41.5 -89.5t-102.5 -35.5t-101.5 34.5t-40.5 91.5 q0 54 40 89t102 35q65 0 104.5 -33t39.5 -92z" />
<glyph unicode="&#xb123;" horiz-adv-x="850" d="M740 307v485h-74v-161h-227v-69h227v-255h74zM522 392v69h-375v289h-74v-358h449zM764 95v65h-578v-65h156q-26 -14 -41.5 -42.5t-15.5 -61.5q0 -67 57 -110.5t137 -43.5q81 0 136.5 41.5t55.5 114.5q0 69 -57 102h150zM589 -5q0 -41 -32.5 -66.5t-78.5 -25.5 q-48 0 -79.5 25.5t-31.5 66.5q0 40 32 64.5t78 24.5q45 0 78.5 -24.5t33.5 -64.5zM629 230v68q-108 -6 -200 1q-41 2 -99 24l-23 -57q51 -31 115 -35q91 -5 207 -1z" />
<glyph unicode="&#xb124;" d="M808 -110v901h-76v-901h76zM609 -47v817h-75v-272h-212v-70h212v-475h75zM445 190v69h-301v423h-75v-492h376z" />
<glyph unicode="&#xb125;" d="M815 224v568h-75v-568h75zM627 244v525h-75v-170h-210v-68h210v-287h75zM450 326v69h-292v345h-74v-414h366zM772 -156v340h-468v-70h393v-270h75z" />
<glyph unicode="&#xb128;" d="M815 140v652h-75v-652h75zM627 181v588h-75v-186h-200v-69h200v-333h75zM450 309v68h-292v351h-74v-419h366zM807 -136v70h-401v246h-76v-316h477z" />
<glyph unicode="&#xb12c;" d="M815 280v512h-75v-512h75zM627 299v470h-75v-161h-200v-68h200v-241h75zM450 358v70h-292v322h-74v-392h366zM791 -146v72h-388v98h364v222h-449v-67h370v-89h-365v-236h468z" />
<glyph unicode="&#xb134;" d="M815 224v568h-75v-568h75zM627 244v525h-75v-178h-200v-68h200v-279h75zM450 324v69h-292v347h-74v-416h366zM781 -139v322h-455v-322h455zM705 -70h-302v184h302v-184z" />
<glyph unicode="&#xb135;" d="M815 267v525h-75v-525h75zM627 288v481h-75v-166h-200v-68h200v-247h75zM450 337v69h-292v344h-74v-413h366zM774 -144v374h-77v-126h-300v126h-77v-374h454zM697 -75h-300v111h300v-111z" />
<glyph unicode="&#xb137;" d="M805 214v578h-75v-578h75zM617 265v504h-75v-189h-200v-69h200v-246h75zM440 302v68h-292v358h-74v-426h366zM798 -90l-255 203q16 46 16 86v35h-78v-27q0 -91 -64.5 -173t-175.5 -116l49 -57q70 22 127.5 71.5t94.5 113.5l236 -186z" />
<glyph unicode="&#xb138;" d="M795 232v560h-74v-560h74zM608 252v517h-75v-186h-200v-69h200v-262h75zM431 312v69h-293v359h-73v-428h366zM837 -93l-178 162q9 37 10 70v56h-77v-53q0 -57 -28 -112t-73 -90l-122 121q11 33 13 78v56h-79v-53q0 -71 -47 -136.5t-118 -92.5l48 -60q99 44 153 137 l144 -142q40 16 82 55t68 93l157 -141z" />
<glyph unicode="&#xb139;" d="M815 234v558h-75v-558h75zM627 275v494h-75v-178h-200v-68h200v-248h75zM450 322v69h-292v349h-74v-418h366zM781 32q0 84 -64.5 138t-156.5 54q-89 0 -155 -56.5t-66 -135.5q0 -83 64 -138t158 -55q91 0 155.5 54.5t64.5 138.5zM704 32q0 -54 -41.5 -89.5t-102.5 -35.5 t-101.5 34.5t-40.5 91.5q0 54 40 89t102 35q65 0 104.5 -33t39.5 -92z" />
<glyph unicode="&#xb140;" horiz-adv-x="850" d="M752 -110v901h-74v-204h-237v-68h237v-105h-237v-68h237v-456h74zM540 190v69h-382v423h-75v-492h457z" />
<glyph unicode="&#xb141;" horiz-adv-x="850" d="M752 226v566h-73v-129h-230v-68h230v-91h-230v-68h230v-210h73zM529 322v69h-375v349h-74v-418h449zM728 -156v338h-467v-70h392v-268h75z" />
<glyph unicode="&#xb144;" horiz-adv-x="850" d="M756 120v672h-74v-129h-233v-67h233v-111h-232v-68h232v-297h74zM536 292v69h-375v369h-74v-438h449zM767 -136v70h-399v240h-76v-310h475z" />
<glyph unicode="&#xb148;" horiz-adv-x="850" d="M752 289v503h-73v-118h-230v-68h230v-82h-230v-68h230v-167h73zM529 342v69h-375v339h-74v-408h449zM744 -146v72h-389v101h364v222h-449v-67h371v-89h-366v-239h469z" />
<glyph unicode="&#xb150;" horiz-adv-x="850" d="M752 225v567h-73v-129h-230v-68h230v-91h-230v-68h230v-211h73zM529 317v69h-375v354h-74v-423h449zM732 -139v322h-455v-322h455zM655 -70h-301v184h301v-184z" />
<glyph unicode="&#xb151;" horiz-adv-x="850" d="M752 268v524h-73v-118h-230v-68h230v-82h-230v-68h230v-188h73zM529 332v69h-375v349h-74v-418h449zM730 -144v374h-77v-126h-300v126h-77v-374h454zM653 -75h-300v111h300v-111z" />
<glyph unicode="&#xb154;" horiz-adv-x="850" d="M757 243v549h-74v-129h-229v-68h229v-91h-229v-68h229v-193h74zM534 312v69h-375v359h-74v-428h449zM820 -85l-178 162q9 37 10 70v56h-77v-53q0 -57 -28 -112t-73 -90l-122 121q11 33 13 78v56h-79v-53q0 -71 -47 -136.5t-118 -92.5l48 -60q99 44 153 137l144 -142 q40 16 82 55t68 93l157 -141z" />
<glyph unicode="&#xb155;" horiz-adv-x="850" d="M760 232v560h-73v-129h-230v-68h230v-91h-230v-68h230v-204h73zM540 322v69h-375v349h-74v-418h449zM739 39q0 84 -64.5 138t-156.5 54q-89 0 -155 -56.5t-66 -135.5q0 -83 64 -138t158 -55q91 0 155.5 54.5t64.5 138.5zM662 39q0 -54 -41.5 -89.5t-102.5 -35.5 t-101.5 34.5t-40.5 91.5q0 54 40 89t102 35q65 0 104.5 -33t39.5 -92z" />
<glyph unicode="&#xb158;" horiz-adv-x="850" d="M760 236v556h-73v-129h-230v-68h230v-91h-230v-68h230v-200h73zM537 319v69h-375v352h-74v-421h449zM736 -156v348h-467v-69h392v-80h-385v-69h385v-130h75z" />
<glyph unicode="&#xb15c;" d="M810 -110v901h-76v-901h76zM617 -47v817h-74v-172h-205v-68h205v-115h-207v-69h207v-393h74zM445 190v69h-301v423h-75v-492h376z" />
<glyph unicode="&#xb160;" d="M802 150v642h-75v-642h75zM615 191v578h-74v-128h-195v-69h195v-96h-195v-68h195v-217h74zM434 279v68h-292v381h-74v-449h366zM799 -136v70h-401v240h-76v-310h477z" />
<glyph unicode="&#xb178;" d="M691 309v67h-416v329h-74v-396h490zM868 5v69h-388v202h-75v-202h-378v-69h841z" />
<glyph unicode="&#xb179;" d="M873 276v66h-388v133h197v66h-397v235h-75v-301h201v-133h-384v-66h846zM682 -156v326h-468v-70h393v-256h75z" />
<glyph unicode="&#xb17c;" d="M873 253v67h-389v140h196v66h-397v249h-75v-315h200v-140h-381v-67h846zM707 -133v68h-407v218h-75v-286h482z" />
<glyph unicode="&#xb180;" d="M873 321v67h-385v113h197v66h-397v219h-75v-285h199v-113h-385v-67h846zM705 -146v71h-397v89h372v221h-456v-68h376v-86h-371v-227h476z" />
<glyph unicode="&#xb182;" d="M873 319v67h-389v113h197v66h-397v221h-75v-287h199v-113h-381v-67h846zM743 -146v372h-266v-372h266zM462 -146v72h-229v87h195v218h-274v-68h197v-83h-195v-226h306zM667 -77h-115v234h115v-234z" />
<glyph unicode="&#xb188;" d="M873 273v66h-383v135h197v66h-397v235h-75v-301h200v-135h-388v-66h846zM691 -138v309h-466v-309h466zM615 -70h-312v172h312v-172z" />
<glyph unicode="&#xb189;" d="M873 304v66h-385v123h197v66h-397v227h-75v-293h199v-123h-385v-66h846zM689 -144v374h-76v-126h-311v126h-77v-374h464zM613 -75h-311v111h311v-111z" />
<glyph unicode="&#xb18b;" d="M873 277v66h-388v130h195v66h-397v237h-75v-303h202v-130h-383v-66h846zM737 -83l-263 180q16 45 16 84v36h-77v-28q0 -85 -66 -158.5t-179 -107.5l49 -58q146 45 225 169l247 -171z" />
<glyph unicode="&#xb18d;" d="M873 287v65h-385v123h197v66h-397v235h-75v-301h200v-123h-386v-65h846zM683 32q0 86 -66 137.5t-164 51.5q-96 0 -161.5 -53.5t-65.5 -136.5q0 -88 65.5 -136.5t161.5 -48.5t163 50.5t67 135.5zM605 32q0 -57 -45 -89t-107 -32q-61 0 -105 32t-44 89q0 55 42.5 88.5 t106.5 33.5q66 0 109 -32t43 -90z" />
<glyph unicode="&#xb192;" d="M873 276v66h-387v137h195v66h-397v230h-75v-296h202v-137h-384v-66h846zM720 -135v68h-106v171h102v69h-515v-69h100v-171h-103v-68h522zM537 -67h-161v171h161v-171z" />
<glyph unicode="&#xb193;" d="M873 352v69h-391v90h198v67h-397v208h-75v-275h201v-90h-382v-69h846zM753 97v65h-588v-65h163q-26 -15 -43.5 -44t-17.5 -62q0 -68 56.5 -110t139.5 -42q82 0 138 41t56 114q0 69 -59 103h155zM574 -5q0 -41 -32.5 -65.5t-79.5 -24.5q-48 0 -80.5 24.5t-32.5 65.5 q0 40 32 65.5t80 25.5q46 0 79.5 -25.5t33.5 -65.5zM620 224v67q-120 -5 -212 2q-48 3 -105 24l-23 -57q50 -30 120 -35q96 -5 220 -1z" />
<glyph unicode="&#xb194;" horiz-adv-x="920" d="M916 369v68h-169v354h-74v-901h74v479h169zM635 148v66q-147 -32 -276 -31v175h170v69h-352v276h-74v-345h178v-175h-252v-68h258q98 0 163.5 5.5t119.5 16t65 11.5z" />
<glyph unicode="&#xb198;" horiz-adv-x="920" d="M905 453v69h-163v270h-74v-657h74v318h163zM636 265v63q-106 -20 -282 -25v133h171v68h-346v224h-75v-292h176v-133h-252v-68h236q53 0 100.5 1.5t75.5 3t64.5 6t47.5 6t45.5 7t38.5 6.5zM756 -136v70h-401v220h-75v-290h476z" />
<glyph unicode="&#xb19c;" horiz-adv-x="920" d="M906 502v69h-163v221h-74v-514h74v224h163zM636 335v64q-105 -21 -286 -26v108h171v66h-346v203h-75v-269h176v-108h-252v-65h246q175 0 366 27zM756 -146v72h-392v93h367v217h-452v-68h374v-83h-369v-231h472z" />
<glyph unicode="&#xb1a8;" horiz-adv-x="920" d="M906 481v69h-163v242h-74v-582h74v271h163zM636 297v63q-106 -20 -282 -25v123h171v68h-346v214h-75v-282h176v-123h-252v-68h236q53 0 100.5 1.5t75.5 3t64.5 6t47.5 6t45.5 7t38.5 6.5zM827 -89l-178 162q9 37 10 70v36h-78v-33q0 -60 -26.5 -115.5t-74.5 -86.5 l-121 119q8 26 12 80v36h-77v-33q0 -65 -45 -131t-124 -101l50 -57q104 54 149 139l147 -144q101 44 152 148l156 -141z" />
<glyph unicode="&#xb1cc;" horiz-adv-x="870" d="M779 -110v901h-75v-901h75zM667 148v66q-165 -32 -283 -31v175h170v69h-358v276h-74v-345h185v-175h-267v-68h271q49 0 91 1.5t66.5 2.5t60 6t44.5 6t48 8.5t46 8.5z" />
<glyph unicode="&#xb1d0;" horiz-adv-x="870" d="M768 135v657h-75v-657h75zM656 265v63q-105 -20 -292 -25v133h171v68h-346v224h-75v-292h176v-133h-252v-68h236q40 0 77.5 1t64 2t56.5 3.5t45.5 3.5t42 5t33.5 5t33.5 5t29.5 5zM782 -136v70h-401v220h-75v-290h476z" />
<glyph unicode="&#xb1d4;" horiz-adv-x="870" d="M773 284v508h-75v-508h75zM656 336v64q-105 -21 -286 -26v107h171v66h-346v203h-75v-269h176v-107h-262v-65h256q175 0 366 27zM778 -146v72h-389v93h364v217h-448v-68h370v-83h-365v-231h468z" />
<glyph unicode="&#xb1dc;" horiz-adv-x="870" d="M765 226v565h-75v-565h75zM650 297v63q-106 -20 -282 -25v123h175v68h-346v214h-75v-282h172v-123h-252v-68h236q53 0 100.5 1.5t75.5 3t64.5 6t47.5 6t45.5 7t38.5 6.5zM753 -139v311h-455v-311h455zM676 -70h-301v174h301v-174z" />
<glyph unicode="&#xb1dd;" horiz-adv-x="870" d="M773 274v518h-75v-518h75zM656 326v64q-105 -21 -286 -26v117h171v66h-346v203h-75v-269h176v-117h-262v-65h256q175 0 366 27zM755 -144v370h-77v-119h-300v119h-77v-370h454zM678 -75h-300v114h300v-114z" />
<glyph unicode="&#xb1df;" horiz-adv-x="870" d="M762 190v602h-74v-602h74zM650 295v63q-105 -20 -292 -25v123h171v68h-346v214h-75v-282h176v-123h-252v-68h236q40 0 77.5 1t64 2t56.5 3.5t45.5 3.5t42 5t33.5 5t33.5 5t29.5 5zM782 -101l-254 203q15 44 15 86v20h-79v-12q0 -83 -65.5 -168.5t-173.5 -118.5l49 -59 q70 22 128 71.5t94 112.5l234 -185z" />
<glyph unicode="&#xb1e8;" d="M689 309v67h-416v329h-74v-396h490zM872 5v69h-258v192h-77v-192h-184v192h-77v-192h-249v-69h845z" />
<glyph unicode="&#xb1e9;" d="M873 267v66h-250v142h64v66h-397v235h-75v-301h74v-142h-262v-66h846zM682 -156v316h-468v-70h393v-246h75zM546 333h-181v142h181v-142z" />
<glyph unicode="&#xb1ec;" d="M873 245v68h-250v147h64v66h-397v249h-75v-315h74v-147h-262v-68h846zM707 -133v68h-407v218h-75v-286h482zM546 313h-181v147h181v-147z" />
<glyph unicode="&#xb1f0;" d="M873 324v67h-250v118h64v66h-397v211h-75v-277h74v-118h-262v-67h846zM709 -146v71h-397v93h372v222h-456v-68h377v-87h-372v-231h476zM546 391h-181v118h181v-118z" />
<glyph unicode="&#xb1f9;" d="M873 301v66h-250v130h64v65h-397v224h-75v-289h74v-130h-262v-66h846zM692 -144v374h-76v-126h-311v126h-77v-374h464zM546 367h-181v130h181v-130zM616 -75h-311v111h311v-111z" />
<glyph unicode="&#xb1fb;" d="M873 274v66h-254v136h64v66h-397v234h-75v-300h74v-136h-258v-66h846zM738 -83l-263 181q16 45 16 83v36h-77v-28q0 -80 -67 -156.5t-178 -109.5l49 -58q146 45 225 169l247 -171zM542 340h-181v136h181v-136z" />
<glyph unicode="&#xb1fd;" d="M873 292v66h-252v131h66v66h-397v221h-75v-287h72v-131h-260v-66h846zM690 39q0 86 -66 137.5t-164 51.5q-96 0 -161.5 -53.5t-65.5 -136.5q0 -88 65.5 -136.5t161.5 -48.5t163 50.5t67 135.5zM544 358h-181v131h181v-131zM612 39q0 -57 -45 -89t-107 -32q-61 0 -105 32 t-44 89q0 55 42.5 88.5t106.5 33.5q66 0 109 -32t43 -90z" />
<glyph unicode="&#xb204;" d="M682 424v69h-396v265h-74v-334h470zM872 227v69h-845v-69h383v-354h75v354h387z" />
<glyph unicode="&#xb205;" d="M687 475v66h-397v235h-75v-301h472zM873 301v66h-846v-66h388v-131h-196v-70h394v-256h74v326h-198v131h384z" />
<glyph unicode="&#xb208;" d="M690 464v67h-397v235h-75v-302h472zM873 278v65h-846v-65h403v-214h75v214h368zM703 -133v68h-407v218h-75v-286h482z" />
<glyph unicode="&#xb20b;" d="M689 478v66h-397v231h-75v-297h472zM873 304v65h-846v-65h393v-129h-200v-316h476v70h-401v177h391v70h-192v128h379z" />
<glyph unicode="&#xb20c;" d="M687 502v66h-397v218h-75v-284h472zM873 338v67h-846v-67h393v-103h-192v-68h377v-86h-372v-227h476v71h-397v89h372v221h-190v103h379z" />
<glyph unicode="&#xb214;" d="M687 475v66h-397v234h-75v-300h472zM873 299v65h-846v-65h393v-128h-195v-309h466v309h-197v128h379zM615 -70h-312v172h312v-172z" />
<glyph unicode="&#xb215;" d="M687 496v65h-397v225h-75v-290h472zM873 323v67h-846v-67h393v-160h74v160h379zM693 -144v374h-76v-126h-311v126h-77v-374h464zM617 -75h-311v111h311v-111z" />
<glyph unicode="&#xb217;" d="M687 475v66h-397v235h-75v-301h472zM873 301v66h-846v-66h391v-112q0 -85 -66 -158.5t-179 -107.5l49 -58q72 22 131 67t95 102l246 -171l48 54l-262 180q14 38 14 84v120h379z" />
<glyph unicode="&#xb219;" d="M683 485v66h-397v225h-75v-291h472zM873 312v66h-846v-66h388v-100q-82 -11 -136 -61.5t-54 -122.5q0 -86 65.5 -134t161.5 -48t163 50t67 133q0 76 -54 126t-139 58v99h384zM604 29q0 -56 -45 -87.5t-107 -31.5q-61 0 -105 31.5t-44 87.5q0 54 42.5 87t106.5 33 q66 0 109 -31t43 -89z" />
<glyph unicode="&#xb220;" horiz-adv-x="870" d="M773 -110v901h-75v-618h-223v-69h223v-214h75zM544 432v70h-341v223h-74v-293h415zM642 281v68q-155 -30 -389 -30h-217v-67h181q48 0 70 1v-349h74v350q124 5 281 27z" />
<glyph unicode="&#xb234;" horiz-adv-x="870" d="M772 185v607h-72v-493h-209v-65h209v-49h72zM530 496v69h-340v182h-75v-251h415zM632 375v67q-147 -32 -397 -32h-198v-65h219v-150h74v152q148 5 302 28zM830 -94l-176 159q8 26 10 69v28h-77v-25q0 -48 -27 -108.5t-75 -91.5l-119 119q8 24 12 78v25h-78v-22 q0 -70 -45.5 -135t-120.5 -93l48 -61q99 46 152 136l142 -142q36 15 81 56t71 94l154 -138z" />
<glyph unicode="&#xb23c;" horiz-adv-x="920" d="M847 -110v901h-74v-901h74zM666 -69v839h-75v-601h-176v-69h176v-169h75zM469 422v70h-277v233h-76v-303h353zM552 282v67q-150 -31 -341 -31h-168v-67h141q52 0 75 1v-348h74v350q102 9 219 28z" />
<glyph unicode="&#xb258;" horiz-adv-x="850" d="M764 -110v901h-75v-901h75zM548 411v69h-341v245h-74v-314h415zM653 265v68q-155 -30 -384 -30h-229v-69h252v-330h75v332q41 1 76.5 3.5t67.5 6t50.5 6t50 7.5t41.5 6z" />
<glyph unicode="&#xb25c;" horiz-adv-x="850" d="M754 108v684h-73v-684h73zM542 472v70h-340v194h-75v-264h415zM634 340v66q-152 -31 -398 -31h-218v-64h239v-144h78v146q141 4 299 27zM754 -136v70h-401v188h-76v-258h477z" />
<glyph unicode="&#xb260;" horiz-adv-x="850" d="M754 262v530h-73v-530h73zM542 506v70h-340v180h-75v-250h415zM634 394v66q-152 -31 -398 -31h-218v-64h229v-104h78v106q154 4 309 27zM762 -146v72h-390v87h364v216h-449v-68h372v-81h-366v-226h469z" />
<glyph unicode="&#xb268;" horiz-adv-x="850" d="M754 208v584h-73v-584h73zM542 482v70h-340v194h-75v-264h415zM634 360v66q-152 -31 -398 -31h-218v-64h229v-124h78v126q154 4 309 27zM736 -139v301h-455v-301h455zM660 -70h-302v164h302v-164z" />
<glyph unicode="&#xb269;" horiz-adv-x="850" d="M754 256v536h-73v-536h73zM542 512v70h-340v174h-75v-244h415zM634 393v66q-152 -31 -398 -31h-218v-64h229v-109h78v111q154 4 309 27zM735 -144v359h-76v-110h-301v110h-77v-359h454zM659 -75h-301v112h301v-112z" />
<glyph unicode="&#xb274;" d="M683 434v69h-396v255h-74v-324h470zM872 227v69h-845v-69h245v-354h75v354h199v-354h76v354h250z" />
<glyph unicode="&#xb275;" d="M687 480v66h-392v230h-75v-296h467zM873 306v66h-846v-66h256v-136h-59v-70h394v-256h74v326h-65v136h246zM553 170h-194v136h194v-136z" />
<glyph unicode="&#xb27c;" d="M687 508v67h-397v211h-75v-278h472zM873 342v67h-846v-67h256v-107h-55v-68h377v-86h-372v-227h476v71h-397v89h372v221h-57v107h246zM553 235h-194v107h194v-107z" />
<glyph unicode="&#xb284;" d="M687 480v66h-395v229h-75v-295h470zM873 304v66h-846v-66h256v-133h-60v-309h466v309h-62v133h246zM553 171h-194v133h194v-133zM613 -70h-312v172h312v-172z" />
<glyph unicode="&#xb285;" d="M687 501v66h-397v219h-75v-285h472zM873 331v67h-846v-67h295v-168h75v168h130v-168h74v168h272zM693 -144v374h-76v-126h-311v126h-77v-374h464zM617 -75h-311v111h311v-111z" />
<glyph unicode="&#xb289;" d="M688 491v66h-395v219h-75v-285h470zM873 321v66h-846v-66h242v-175q-43 -49 -43 -115q0 -88 65.5 -136.5t161.5 -48.5t163 50.5t67 135.5q0 68 -45 118v171h235zM564 200q-50 21 -111 21q-56 0 -108 -21v121h219v-121zM605 32q0 -57 -45 -89t-107 -32q-61 0 -105 32 t-44 89q0 55 42.5 88.5t106.5 33.5q66 0 109 -32t43 -90z" />
<glyph unicode="&#xb290;" d="M691 298v68h-416v339h-74v-407h490zM867 16v69h-840v-69h840z" />
<glyph unicode="&#xb291;" d="M685 475v66h-397v235h-75v-301h472zM873 291v65h-846v-65h846zM679 -156v326h-468v-70h394v-256h74z" />
<glyph unicode="&#xb294;" d="M686 457v66h-397v245h-75v-311h472zM873 267v66h-846v-66h846zM707 -133v68h-407v228h-75v-296h482z" />
<glyph unicode="&#xb298;" d="M687 498v66h-397v222h-75v-288h472zM873 336v67h-846v-67h846zM705 -146v71h-397v92h372v223h-456v-68h376v-88h-371v-230h476z" />
<glyph unicode="&#xb299;" d="M687 502v66h-397v218h-75v-284h472zM873 337v67h-846v-67h846zM744 -146v384h-269v-71h193v-313h76zM488 -146v72h-248v91h214v221h-293v-67h216v-88h-214v-229h325z" />
<glyph unicode="&#xb29a;" d="M685 502v66h-397v218h-75v-284h472zM873 336v67h-846v-67h846zM747 -146v381h-266v-381h266zM466 -146v72h-229v90h195v222h-274v-68h197v-87h-195v-229h306zM671 -77h-115v242h115v-242z" />
<glyph unicode="&#xb2a0;" d="M687 473v66h-397v236h-75v-302h472zM873 293v64h-846v-64h846zM691 -138v315h-466v-315h466zM615 -70h-312v178h312v-178z" />
<glyph unicode="&#xb2a1;" d="M687 491v66h-397v229h-75v-295h472zM873 319v66h-846v-66h846zM693 -144v374h-76v-126h-311v126h-77v-374h464zM617 -75h-311v111h311v-111z" />
<glyph unicode="&#xb2a3;" d="M687 464v67h-397v245h-75v-312h472zM873 291v65h-846v-65h846zM740 -83l-263 180q16 45 16 84v36h-77v-28q0 -85 -66 -158.5t-179 -107.5l49 -58q146 45 225 169l247 -171z" />
<glyph unicode="&#xb2a5;" d="M687 475v66h-397v235h-75v-301h472zM873 306v66h-846v-66h846zM690 32q0 86 -66 137.5t-164 51.5q-96 0 -161.5 -53.5t-65.5 -136.5q0 -88 65.5 -136.5t161.5 -48.5t163 50.5t67 135.5zM612 32q0 -57 -45 -89t-107 -32q-61 0 -105 32t-44 89q0 55 42.5 88.5t106.5 33.5 q66 0 109 -32t43 -90z" />
<glyph unicode="&#xb2a6;" d="M685 475v66h-391v235h-75v-301h466zM874 307v66h-846v-66h846zM772 -90l-220 117q103 87 127 173h-443v-66h316q-62 -75 -165.5 -133.5t-213.5 -83.5l46 -60q134 28 271 123l237 -127z" />
<glyph unicode="&#xb2aa;" d="M685 474v66h-395v235h-75v-301h470zM873 298v65h-846v-65h846zM719 -135v68h-107v184h97v69h-504v-69h98v-184h-110v-68h526zM535 -67h-157v184h157v-184z" />
<glyph unicode="&#xb2ac;" horiz-adv-x="850" d="M758 -110v901h-75v-901h75zM543 358v69h-359v276h-74v-345h433zM638 163v67q-17 -4 -50 -9.5t-139 -14.5t-218 -8h-200v-68h204q107 0 187.5 5.5t113.5 10.5t102 17z" />
<glyph unicode="&#xb2b0;" horiz-adv-x="850" d="M757 135v657h-75v-657h75zM531 436v68h-336v224h-74v-292h410zM650 287v65q-154 -28 -384 -29h-232v-67h226q202 0 390 31zM761 -136v70h-400v220h-76v-290h476z" />
<glyph unicode="&#xb2b4;" horiz-adv-x="850" d="M760 277v515h-75v-515h75zM531 486v68h-336v194h-74v-262h410zM650 357v65q-154 -28 -384 -29h-232v-67h226q202 0 390 31zM751 -146v72h-389v95h363v217h-449v-68h372v-83h-367v-233h470z" />
<glyph unicode="&#xb2c8;" horiz-adv-x="850" d="M739 -110v901h-74v-901h74zM577 190v69h-413v423h-74v-492h487z" />
<glyph unicode="&#xb2c9;" horiz-adv-x="850" d="M738 234v558h-74v-558h74zM559 342v69h-401v329h-73v-398h474zM716 -156v338h-469v-70h394v-268h75z" />
<glyph unicode="&#xb2cc;" horiz-adv-x="850" d="M736 160v632h-74v-632h74zM557 322v69h-401v337h-73v-406h474zM748 -136v70h-401v240h-75v-310h476z" />
<glyph unicode="&#xb2d0;" horiz-adv-x="850" d="M738 307v485h-74v-485h74zM560 382v70h-401v298h-73v-368h474zM731 -146v72h-389v108h364v230h-448v-67h370v-97h-365v-246h468z" />
<glyph unicode="&#xb2d2;" horiz-adv-x="850" d="M744 304v488h-74v-488h74zM566 387v70h-401v293h-73v-363h474zM738 -146v404h-266v-404h266zM456 -146v72h-228v102h194v233h-275v-67h198v-100h-196v-240h307zM661 -77h-115v267h115v-267z" />
<glyph unicode="&#xb2d8;" horiz-adv-x="850" d="M736 237v555h-74v-555h74zM557 349v69h-401v322h-73v-391h474zM718 -139v329h-455v-329h455zM641 -70h-302v191h302v-191z" />
<glyph unicode="&#xb2d9;" horiz-adv-x="850" d="M736 286v506h-74v-506h74zM557 373v70h-401v307h-73v-377h474zM716 -144v384h-77v-126h-301v126h-76v-384h454zM639 -75h-301v121h301v-121z" />
<glyph unicode="&#xb2db;" horiz-adv-x="850" d="M730 182v610h-75v-610h75zM551 344v69h-401v320h-73v-389h474zM751 -93l-253 200q16 46 16 86v37h-79v-29q0 -54 -27 -110.5t-83 -106.5t-129 -72l49 -57q69 22 129.5 73.5t92.5 110.5l236 -185z" />
<glyph unicode="&#xb2dd;" horiz-adv-x="850" d="M732 244v548h-74v-548h74zM553 342v69h-401v329h-73v-398h474zM721 39q0 84 -64.5 138t-156.5 54q-89 0 -155 -56.5t-66 -135.5q0 -83 64 -138t158 -55q91 0 155.5 54.5t64.5 138.5zM644 39q0 -54 -41.5 -89.5t-102.5 -35.5t-101.5 34.5t-40.5 91.5q0 54 40 89t102 35 q65 0 104.5 -33t39.5 -92z" />
<glyph unicode="&#xb2e2;" horiz-adv-x="850" d="M736 255v537h-74v-537h74zM557 347v69h-401v324h-73v-393h474zM735 -136v69h-111v203h102v68h-515v-68h102v-203h-113v-69h535zM548 -67h-160v203h160v-203z" />
<glyph unicode="&#xb2e4;" d="M889 399v68h-170v324h-74v-901h74v509h170zM549 176v70h-392v345h303v69h-378v-484h467z" />
<glyph unicode="&#xb2e5;" d="M882 503v70h-163v219h-74v-563h74v274h163zM538 322v68h-392v265h311v68h-385v-401h466zM707 -156v335h-467v-70h393v-265h74z" />
<glyph unicode="&#xb2e6;" d="M881 503v70h-163v219h-74v-558h74v269h163zM537 332v68h-392v255h311v68h-385v-391h466zM720 -156v348h-255v-70h181v-278h74zM439 -156v348h-281v-70h206v-278h75z" />
<glyph unicode="&#xb2e8;" d="M880 504v70h-162v218h-73v-642h73v354h162zM537 302v68h-392v275h311v68h-385v-411h466zM732 -136v70h-400v230h-76v-300h476z" />
<glyph unicode="&#xb2eb;" d="M882 503v69h-163v220h-74v-569h74v280h163zM538 322v68h-392v265h311v68h-385v-401h466zM721 -141v70h-400v177h390v69h-466v-316h476z" />
<glyph unicode="&#xb2ec;" d="M882 519v70h-163v203h-74v-499h74v226h163zM538 362v68h-392v235h311v68h-385v-371h466zM727 -146v72h-389v97h363v224h-449v-67h371v-91h-365v-235h469z" />
<glyph unicode="&#xb2ed;" d="M883 519v70h-164v203h-74v-499h74v226h164zM538 362v68h-392v235h311v68h-385v-371h466zM721 -146v394h-269v-70h193v-324h76zM476 -146v72h-263v98h215v224h-298v-66h220v-92h-215v-236h341z" />
<glyph unicode="&#xb2ee;" d="M883 519v70h-164v203h-74v-499h74v226h164zM538 362v68h-392v235h311v68h-385v-371h466zM723 -146v392h-268v-392h268zM440 -146v72h-234v97h202v223h-281v-67h204v-90h-202v-235h311zM647 -77h-118v255h118v-255z" />
<glyph unicode="&#xb2ef;" d="M883 519v70h-164v203h-74v-499h74v226h164zM538 362v68h-392v235h311v68h-385v-371h466zM730 -145v391h-74v-140h-131v140h-73v-391h278zM433 -146v72h-228v97h193v223h-272v-67h195v-90h-193v-235h305zM656 -76h-131v114h131v-114z" />
<glyph unicode="&#xb2f3;" d="M882 520v69h-164v203h-74v-499h74v227h164zM537 362v68h-392v235h311v68h-385v-371h466zM707 188v66q-90 -9 -147 0q-53 6 -86 21l-23 -54q39 -25 104 -33q63 -9 152 0zM790 73v62h-389v-62h105q-26 -7 -46.5 -38.5t-20.5 -65.5q0 -58 44.5 -93t109.5 -36q66 -1 111 35.5 t45 95.5q0 35 -19 63t-47 39h107zM425 -146v72h-224v97h189v223h-268v-67h190v-90h-188v-235h301zM673 -31q-1 -31 -23.5 -49t-56.5 -17q-33 1 -54.5 19t-22.5 49t23.5 51t56.5 19q34 -1 56 -21t21 -51z" />
<glyph unicode="&#xb2f4;" d="M882 503v69h-163v220h-74v-558h74v269h163zM538 322v68h-392v265h311v68h-385v-401h466zM706 -139v322h-455v-322h455zM630 -70h-301v184h301v-184z" />
<glyph unicode="&#xb2f5;" d="M881 535v69h-163v188h-74v-506h74v249h163zM537 352v68h-392v255h311v68h-385v-391h466zM710 -144v384h-77v-126h-300v126h-77v-384h454zM633 -75h-300v121h300v-121z" />
<glyph unicode="&#xb2f7;" d="M882 491v69h-163v231h-74v-609h74v309h163zM538 317v68h-392v265h311v68h-385v-401h466zM756 -105l-255 201q16 46 16 88v37h-78v-29q0 -86 -65.5 -170.5t-174.5 -118.5l49 -57q70 22 128.5 71t93.5 112l236 -184z" />
<glyph unicode="&#xb2f8;" d="M882 503v69h-163v220h-74v-558h74v269h163zM538 322v68h-392v265h311v68h-385v-401h466zM809 -98l-178 162q9 37 10 70v56h-77v-53q0 -57 -28 -112t-73 -90l-122 121q11 33 13 78v56h-79v-53q0 -71 -47 -136.5t-118 -92.5l48 -60q99 44 153 137l144 -142q40 16 82 55 t68 93l157 -141z" />
<glyph unicode="&#xb2f9;" d="M882 503v70h-163v219h-74v-543h74v254h163zM538 322v68h-392v265h311v68h-385v-401h466zM720 39q0 84 -64.5 138t-156.5 54q-89 0 -155 -56.5t-66 -135.5q0 -83 64 -138t158 -55q91 0 155.5 54.5t64.5 138.5zM643 39q0 -54 -41.5 -89.5t-102.5 -35.5t-101.5 34.5 t-40.5 91.5q0 54 40 89t102 35q65 0 104.5 -33t39.5 -92z" />
<glyph unicode="&#xb2fa;" d="M882 503v69h-163v220h-74v-537h74v248h163zM538 345v68h-392v242h311v68h-385v-378h466zM784 -87l-219 120q102 91 126 177h-443v-67h317q-65 -79 -164.5 -138.5t-215.5 -85.5l47 -61q62 14 134.5 47.5t135.5 78.5l237 -129z" />
<glyph unicode="&#xb2fb;" d="M882 535v69h-163v188h-74v-494h74v237h163zM538 372v68h-392v225h311v68h-385v-361h466zM778 -94l-215 94q96 77 131 159h-447v-65h310q-58 -59 -154 -110t-215 -72l44 -63q134 24 263 103l239 -107zM618 223v68q-87 -5 -185 -1q-53 8 -107 27l-23 -60q33 -19 117 -35 q77 -3 198 1z" />
<glyph unicode="&#xb2ff;" d="M882 535v69h-163v188h-74v-495h74v238h163zM538 382v68h-392v215h311v68h-385v-351h466zM755 95v65h-578v-65h156q-26 -14 -41.5 -42.5t-15.5 -61.5q0 -67 57 -110.5t137 -43.5q81 0 136.5 41.5t55.5 114.5q0 69 -57 102h150zM580 -5q0 -41 -32.5 -66.5t-78.5 -25.5 q-47 0 -79 25.5t-32 66.5q0 40 32 64.5t78 24.5q45 0 78.5 -24.5t33.5 -64.5zM620 229v68q-117 -6 -201 0q-41 2 -99 24l-23 -57q51 -31 115 -35q80 -4 208 0z" />
<glyph unicode="&#xb300;" d="M831 -110v901h-75v-324h-143v303h-74v-817h74v445h143v-508h75zM476 176v70h-309v345h265v69h-340v-484h384z" />
<glyph unicode="&#xb301;" d="M831 219v573h-75v-233h-138v210h-75v-531h75v253h138v-272h75zM484 322v68h-320v265h268v68h-342v-401h394zM788 -156v332h-468v-70h393v-262h75z" />
<glyph unicode="&#xb304;" d="M831 150v642h-75v-241h-138v218h-75v-578h75v292h138v-333h75zM484 302v66h-320v277h268v68h-342v-411h394zM823 -136v70h-401v230h-76v-300h477z" />
<glyph unicode="&#xb308;" d="M830 274v518h-75v-207h-138v184h-75v-475h75v223h138v-243h75zM483 353v69h-320v243h268v69h-342v-381h394zM806 -146v72h-388v95h364v220h-449v-67h370v-87h-365v-233h468z" />
<glyph unicode="&#xb310;" d="M831 224v568h-75v-233h-138v210h-75v-525h75v247h138v-267h75zM484 322v68h-320v265h268v68h-342v-401h394zM797 -139v322h-455v-322h455zM721 -70h-302v184h302v-184z" />
<glyph unicode="&#xb311;" d="M831 267v525h-75v-220h-138v197h-75v-481h75v215h138v-236h75zM484 338v68h-320v259h268v69h-342v-396h394zM793 -144v374h-77v-126h-305v126h-77v-374h459zM716 -75h-305v111h305v-111z" />
<glyph unicode="&#xb313;" d="M830 204v588h-75v-234h-138v211h-75v-514h75v235h138v-286h75zM483 312v67h-320v271h268v68h-342v-406h394zM828 -101l-255 203q16 46 16 86v35h-78v-27q0 -91 -64.5 -173t-175.5 -116l49 -57q70 22 127.5 71.5t94.5 113.5l236 -186z" />
<glyph unicode="&#xb314;" d="M830 224v568h-74v-223h-139v200h-74v-523h74v255h139v-277h74zM484 319v68h-321v268h269v68h-342v-404h394zM865 -97l-178 162q9 37 10 70v56h-77v-53q0 -57 -28 -112t-73 -90l-122 121q11 33 13 78v56h-79v-53q0 -71 -47 -136.5t-118 -92.5l48 -60q99 44 153 137 l144 -142q40 16 82 55t68 93l157 -141z" />
<glyph unicode="&#xb315;" d="M827 224v568h-75v-219h-149v196h-74v-504h74v239h149v-280h75zM480 317v68h-320v270h268v68h-342v-406h394zM782 32q0 84 -64.5 138t-156.5 54q-89 0 -155 -56.5t-66 -135.5q0 -83 64 -138t158 -55q91 0 155.5 54.5t64.5 138.5zM705 32q0 -54 -41.5 -89.5t-102.5 -35.5 t-101.5 34.5t-40.5 91.5q0 54 40 89t102 35q65 0 104.5 -33t39.5 -92z" />
<glyph unicode="&#xb31c;" d="M887 254v67h-169v171h169v69h-169v230h-74v-901h74v364h169zM558 176v70h-392v345h303v69h-378v-484h467z" />
<glyph unicode="&#xb354;" horiz-adv-x="850" d="M749 -110v901h-74v-325h-246v-69h246v-507h74zM548 176v70h-392v345h303v69h-378v-484h467z" />
<glyph unicode="&#xb355;" horiz-adv-x="850" d="M754 229v563h-74v-233h-227v-67h227v-263h74zM542 322v68h-392v265h311v68h-385v-401h466zM731 -156v332h-467v-70h392v-262h75z" />
<glyph unicode="&#xb356;" horiz-adv-x="850" d="M754 234v558h-74v-230h-227v-67h227v-261h74zM542 322v68h-392v265h311v68h-385v-401h466zM745 -156v342h-257v-70h183v-272h74zM463 -156v342h-280v-70h206v-272h74z" />
<glyph unicode="&#xb358;" horiz-adv-x="850" d="M749 150v642h-74v-248h-227v-69h227v-325h74zM537 298v68h-392v279h311v68h-385v-415h466zM760 -136v70h-399v240h-76v-310h475z" />
<glyph unicode="&#xb35b;" horiz-adv-x="850" d="M754 223v569h-74v-234h-227v-68h227v-267h74zM542 322v68h-392v265h311v68h-385v-401h466zM752 -141v70h-399v177h389v69h-466v-316h476z" />
<glyph unicode="&#xb35c;" horiz-adv-x="850" d="M754 287v505h-74v-212h-227v-69h227v-224h74zM542 352v68h-392v245h311v68h-385v-381h466zM747 -146v72h-388v98h363v222h-449v-67h371v-89h-366v-236h469z" />
<glyph unicode="&#xb35e;" horiz-adv-x="850" d="M754 287v505h-74v-213h-227v-69h227v-223h74zM542 352v68h-392v245h311v68h-385v-381h466zM744 -146v387h-267v-387h267zM463 -146v72h-230v97h195v223h-274v-67h197v-90h-195v-235h307zM668 -77h-117v250h117v-250z" />
<glyph unicode="&#xb35f;" horiz-adv-x="850" d="M754 287v505h-74v-213h-227v-69h227v-223h74zM542 352v68h-392v245h311v68h-385v-381h466zM746 -145v391h-73v-140h-135v140h-72v-391h280zM445 -146v72h-228v97h194v223h-275v-67h198v-90h-196v-235h307zM673 -76h-135v114h135v-114z" />
<glyph unicode="&#xb364;" horiz-adv-x="850" d="M764 229v563h-74v-233h-227v-67h227v-263h74zM552 322v68h-392v265h311v68h-385v-401h466zM738 -139v322h-455v-322h455zM661 -70h-300v184h300v-184z" />
<glyph unicode="&#xb365;" horiz-adv-x="850" d="M754 276v516h-74v-213h-227v-69h227v-234h74zM542 352v68h-392v245h311v68h-385v-381h466zM733 -144v374h-77v-126h-299v126h-78v-374h454zM656 -75h-299v111h299v-111z" />
<glyph unicode="&#xb367;" horiz-adv-x="850" d="M751 182v610h-74v-250h-227v-68h227v-292h74zM538 308v68h-392v269h311v68h-385v-405h466zM777 -100l-255 203q16 46 16 86v37h-79v-29q0 -84 -66 -169t-173 -119l49 -58q69 22 128 72.5t94 111.5l236 -185z" />
<glyph unicode="&#xb369;" horiz-adv-x="850" d="M751 232v560h-74v-230h-227v-68h227v-262h74zM538 328v68h-392v259h311v68h-385v-395h466zM732 39q0 84 -64.5 138t-156.5 54q-89 0 -155 -56.5t-66 -135.5q0 -83 64 -138t158 -55q91 0 155.5 54.5t64.5 138.5zM655 39q0 -54 -41.5 -89.5t-102.5 -35.5t-101.5 34.5 t-40.5 91.5q0 54 40 89t102 35q65 0 104.5 -33t39.5 -92z" />
<glyph unicode="&#xb36b;" horiz-adv-x="850" d="M756 276v516h-75v-198h-226v-68h226v-250h75zM543 378v68h-392v219h311v68h-385v-355h466zM793 -94l-215 95q95 72 131 158h-447v-65h306q-60 -59 -152.5 -110.5t-212.5 -73.5l44 -62q143 25 263 105l239 -108zM636 226v68q-87 -5 -185 -1q-53 8 -107 27l-23 -60 q33 -19 117 -35q77 -3 198 1z" />
<glyph unicode="&#xb36e;" horiz-adv-x="850" d="M754 236v556h-74v-229h-227v-67h227v-260h74zM542 332v68h-392v255h311v68h-385v-391h466zM761 -136v69h-111v190h102v68h-515v-68h102v-190h-108v-69h530zM575 -67h-161v190h161v-190z" />
<glyph unicode="&#xb370;" d="M811 -110v901h-76v-901h76zM616 -47v817h-75v-315h-212v-70h212v-432h75zM448 176v70h-305v345h261v69h-336v-484h380z" />
<glyph unicode="&#xb371;" d="M795 219v573h-75v-573h75zM602 238v531h-74v-217h-199v-68h199v-246h74zM438 316v68h-310v271h258v68h-332v-407h384zM752 -156v332h-468v-70h393v-262h75z" />
<glyph unicode="&#xb374;" d="M795 139v653h-75v-653h75zM602 180v589h-74v-231h-199v-69h199v-289h74zM438 302v66h-310v277h258v68h-332v-411h384zM787 -136v70h-401v238h-76v-308h477z" />
<glyph unicode="&#xb378;" d="M795 274v518h-75v-518h75zM602 294v475h-74v-198h-199v-68h199v-209h74zM438 343v68h-310v254h258v69h-332v-391h384zM771 -146v72h-388v91h364v220h-449v-68h370v-85h-365v-230h468z" />
<glyph unicode="&#xb380;" d="M795 222v570h-75v-570h75zM602 242v527h-74v-217h-199v-68h199v-242h74zM438 316v67h-310v272h258v68h-332v-407h384zM761 -139v322h-455v-322h455zM685 -70h-302v184h302v-184z" />
<glyph unicode="&#xb381;" d="M795 265v527h-75v-527h75zM602 285v484h-74v-203h-199v-68h199v-213h74zM438 330v68h-310v267h258v69h-332v-404h384zM754 -144v374h-77v-126h-306v126h-77v-374h460zM677 -75h-306v111h306v-111z" />
<glyph unicode="&#xb383;" d="M803 210v582h-75v-582h75zM610 250v519h-74v-226h-199v-69h199v-224h74zM446 306v67h-310v272h258v68h-332v-407h384zM801 -98l-255 203q16 46 16 86v27h-78v-19q0 -83 -66 -169.5t-174 -119.5l49 -57q144 50 222 185l236 -186z" />
<glyph unicode="&#xb384;" d="M795 230v562h-74v-562h74zM603 249v520h-75v-211h-199v-68h199v-241h75zM439 322v68h-311v265h258v68h-331v-401h384zM832 -93l-178 162q9 37 10 70v56h-77v-53q0 -57 -28 -112t-73 -90l-122 121q11 33 13 78v56h-79v-53q0 -71 -47 -136.5t-118 -92.5l48 -60 q99 44 153 137l144 -142q40 16 82 55t68 93l157 -141z" />
<glyph unicode="&#xb385;" d="M798 231v561h-75v-561h75zM605 272v497h-74v-211h-199v-68h199v-218h74zM441 322v68h-310v265h258v68h-332v-401h384zM766 39q0 84 -64.5 138t-156.5 54q-89 0 -155 -56.5t-66 -135.5q0 -83 64 -138t158 -55q91 0 155.5 54.5t64.5 138.5zM689 39q0 -54 -41.5 -89.5 t-102.5 -35.5t-101.5 34.5t-40.5 91.5q0 54 40 89t102 35q65 0 104.5 -33t39.5 -92z" />
<glyph unicode="&#xb38c;" horiz-adv-x="850" d="M749 -110v901h-74v-254h-227v-68h227v-95h-227v-66h227v-418h74zM548 176v70h-392v345h303v69h-378v-484h467z" />
<glyph unicode="&#xb390;" horiz-adv-x="850" d="M744 120v672h-74v-189h-213v-67h213v-80h-212v-67h212v-269h74zM532 278v68h-392v299h311v68h-385v-435h466zM755 -136v70h-399v240h-76v-310h475z" />
<glyph unicode="&#xb394;" horiz-adv-x="850" d="M745 292v500h-73v-146h-210v-68h210v-71h-210v-68h210v-147h73zM521 343v68h-383v254h310v69h-383v-391h456zM737 -146v72h-388v94h363v219h-449v-67h371v-86h-366v-232h469z" />
<glyph unicode="&#xb3a0;" horiz-adv-x="850" d="M751 229v563h-74v-168h-209v-68h209v-70h-209v-69h209v-188h74zM526 313v67h-383v275h311v68h-384v-410h456zM816 -93l-178 162q9 37 10 70v56h-77v-53q0 -57 -28 -112t-73 -90l-122 121q11 33 13 78v56h-79v-53q0 -71 -47 -136.5t-118 -92.5l48 -60q99 44 153 137 l144 -142q40 16 82 55t68 93l157 -141z" />
<glyph unicode="&#xb3a1;" horiz-adv-x="850" d="M753 239v553h-73v-167h-210v-69h210v-70h-210v-69h210v-178h73zM529 313v67h-383v275h310v68h-383v-410h456zM742 39q0 84 -64.5 138t-156.5 54q-89 0 -155 -56.5t-66 -135.5q0 -83 64 -138t158 -55q91 0 155.5 54.5t64.5 138.5zM665 39q0 -54 -41.5 -89.5t-102.5 -35.5 t-101.5 34.5t-40.5 91.5q0 54 40 89t102 35q65 0 104.5 -33t39.5 -92z" />
<glyph unicode="&#xb3a8;" d="M813 -110v901h-75v-901h75zM626 -47v817h-74v-230h-190v-68h190v-104h-191v-67h191v-348h74zM437 176v70h-295v345h261v69h-336v-484h370z" />
<glyph unicode="&#xb3ac;" horiz-adv-x="890" d="M807 150v642h-75v-642h75zM622 191v578h-74v-166h-185v-68h185v-86h-185v-68h185v-190h74zM447 271v67h-308v307h256v68h-330v-442h382zM806 -136v70h-401v238h-76v-308h477z" />
<glyph unicode="&#xb3c4;" d="M678 288v68h-409v261h407v69h-481v-398h483zM872 5v69h-388v183h-75v-183h-382v-69h845z" />
<glyph unicode="&#xb3c5;" d="M873 256v66h-388v113h185v69h-386v181h384v68h-458v-318h201v-113h-389v-66h851zM677 -155v308h-468v-70h393v-238h75z" />
<glyph unicode="&#xb3c8;" d="M873 234v68h-383v123h185v67h-386v188h384v68h-458v-323h201v-123h-388v-68h845zM707 -133v68h-407v207h-75v-275h482z" />
<glyph unicode="&#xb3cb;" d="M873 265v66h-383v115h185v69h-386v170h384v68h-458v-307h201v-115h-389v-66h846zM696 -140v69h-401v165h391v70l-466 -1v-303h476z" />
<glyph unicode="&#xb3cc;" d="M873 307v67h-383v97h185v68h-386v156h384v68h-458v-292h201v-97h-389v-67h846zM706 -145v70h-397v89h372v215h-457v-67h377v-82h-371v-225h476z" />
<glyph unicode="&#xb3ce;" d="M873 308v67h-383v97h185v68h-386v155h384v68h-458v-291h201v-97h-389v-67h846zM746 -145v365h-266v-365h266zM465 -145v71h-229v84h195v216h-274v-68h197v-82h-195v-221h306zM670 -77h-115v229h115v-229z" />
<glyph unicode="&#xb3d0;" d="M873 306v67h-383v99h185v68h-386v155h384v68h-458v-291h201v-99h-389v-67h846zM811 -90l-147 153q13 45 13 91v67l-78 1v-69q0 -67 -34 -132t-91 -95h-233v87h206v214h-285v-67h208v-81h-206v-224h312v40l28 -31q31 9 67 43t63 81l126 -129z" />
<glyph unicode="&#xb3d4;" d="M873 260v67h-383v109h185v68h-386v181h384v68h-458v-317h201v-109h-389v-67h846zM691 -138v305h-466v-305h466zM615 -70h-312v168h312v-168z" />
<glyph unicode="&#xb3d5;" d="M873 299v67h-383v106h185v68h-386v155h384v68h-458v-291h201v-106h-389v-67h846zM692 -143v373h-76v-126h-311v126h-77v-373h464zM616 -75h-311v111h311v-111z" />
<glyph unicode="&#xb3d7;" d="M873 250v66h-387v119h185v68h-386v182h384v68h-458v-318h201v-119h-385v-66h846zM740 -99l-263 180q16 45 16 84v26h-78v-18q0 -85 -65.5 -158.5t-178.5 -107.5l49 -58q146 45 225 169l247 -171z" />
<glyph unicode="&#xb3d9;" d="M873 274v66h-387v107h186v69h-386v169h384v68h-459v-306h201v-107h-385v-66h846zM683 31q0 85 -66 136.5t-164 51.5q-96 0 -161.5 -53t-65.5 -136q0 -87 65.5 -135.5t161.5 -48.5t163 50t67 135zM605 31q0 -57 -45 -88.5t-107 -31.5q-61 0 -105 31.5t-44 88.5 q0 54 42.5 87.5t106.5 33.5q66 0 109 -31.5t43 -89.5z" />
<glyph unicode="&#xb3db;" d="M873 316v67h-383v90h185v68h-386v154h384v68h-458v-290h201v-90h-389v-67h846zM759 -102l-204 96q85 65 125 145h-456v-66h307q-49 -54 -147.5 -98.5t-214.5 -64.5l43 -63q156 28 276 101l222 -104zM605 196v68q-103 -6 -202 -1q-54 9 -99 24l-24 -57q33 -19 117 -35 q81 -3 208 1z" />
<glyph unicode="&#xb3dd;" d="M873 297v67h-385v106h185v68h-386v157h384v68h-458v-293h201v-106h-387v-67h846zM697 -145v68h-396v81h374v70h-374v75h386v69h-462v-363h472z" />
<glyph unicode="&#xb3e0;" horiz-adv-x="920" d="M913 369v68h-169v354h-74v-901h74v479h169zM632 148v66q-169 -32 -287 -31v150h158v69h-330v211h327v68h-402v-348h170v-150h-252v-68h247q53 0 98 1.5t71 3t61 6t45.5 6t48 8.5t45.5 8z" />
<glyph unicode="&#xb3e4;" horiz-adv-x="920" d="M905 443v69h-163v280h-74v-657h74v308h163zM626 253v63q-107 -21 -276 -25v118h152v69h-323v172h320v68h-396v-309h173v-118h-252v-69h246q82 0 143 3.5t86 6.5t67.5 10.5zM756 -136v70h-401v209h-75v-279h476z" />
<glyph unicode="&#xb3e8;" horiz-adv-x="920" d="M905 491v69h-163v232h-74v-520h74v219h163zM628 328v65q-111 -23 -280 -27v99h159v70h-330v130h327v69h-403v-269h173v-99h-250v-66h246q46 0 88.5 1.5t68 2.5t62 5t47.5 5.5t49 7t43 6.5zM748 -146v72h-390v93h365v215h-449v-68h371v-81h-366v-231h469z" />
<glyph unicode="&#xb3fc;" horiz-adv-x="920" d="M844 -110v901h-75v-356h-122v335h-75v-817h75v413h122v-476h75zM537 146v66q-105 -28 -205 -28v149h128v69h-289v211h286v68h-360v-348h159v-150h-221v-68h193q181 0 309 31z" />
<glyph unicode="&#xb410;" horiz-adv-x="920" d="M838 209v583h-75v-258h-123v235h-74v-540h74v236h123v-256h75zM532 272v64q-91 -20 -212 -24v116h136v69h-288v158h285v68h-360v-295h152v-117h-210v-67h204q70 0 124 4t82.5 8.5t86.5 15.5zM862 -93l-178 162q9 37 10 70v46h-77v-43q0 -57 -28 -112t-73 -90l-122 121 q11 33 13 78v46h-79v-43q0 -71 -47 -136.5t-118 -92.5l48 -60q99 44 153 137l144 -142q40 16 82 55t68 93l157 -141z" />
<glyph unicode="&#xb418;" horiz-adv-x="870" d="M785 -110v901h-74v-901h74zM671 148v66q-169 -32 -292 -31v150h162v69h-346v211h343v68h-417v-348h180v-150h-267v-68h256q48 0 87 0.5t72 3t54 4t48.5 5.5t38.5 5.5t41 7t40 7.5z" />
<glyph unicode="&#xb41c;" horiz-adv-x="870" d="M765 135v657h-75v-657h75zM652 251v66q-101 -20 -303 -26v118h163v69h-331v172h328v68h-403v-309h168v-118h-248v-69h242q193 0 384 29zM775 -136v70h-398v218h-75v-288h473z" />
<glyph unicode="&#xb420;" horiz-adv-x="870" d="M780 280v512h-75v-512h75zM666 327v67q-107 -22 -303 -27v92h163v69h-331v137h328v68h-403v-274h168v-92h-248v-69h242q193 0 384 29zM775 -146v72h-389v93h363v217h-449v-68h372v-83h-366v-231h469z" />
<glyph unicode="&#xb428;" horiz-adv-x="870" d="M781 214v577h-75v-577h75zM666 281v66q-103 -21 -293 -26v108h153v69h-331v157h328v68h-403v-294h178v-108h-258v-69h242q193 0 384 29zM760 -139v310h-455v-310h455zM684 -70h-301v173h301v-173z" />
<glyph unicode="&#xb429;" horiz-adv-x="870" d="M780 270v522h-75v-522h75zM666 316v67q-107 -22 -303 -27v98h163v69h-331v142h328v68h-403v-279h168v-98h-248v-69h242q193 0 384 29zM759 -144v370h-76v-122h-305v122h-77v-370h458zM683 -75h-305v111h305v-111z" />
<glyph unicode="&#xb42b;" horiz-adv-x="870" d="M765 175v617h-75v-617h75zM652 276v66q-101 -20 -303 -26v108h163v69h-331v162h328v68h-403v-299h168v-108h-248v-69h242q193 0 384 29zM790 -99l-255 193q16 46 16 86v20h-78v-12q0 -85 -65 -165t-175 -114l49 -57q150 47 222 175l236 -176z" />
<glyph unicode="&#xb434;" d="M687 281v68h-409v268h409v69h-483v-405h483zM872 5v69h-250v179h-77v-179h-184v179h-76v-179h-258v-69h845z" />
<glyph unicode="&#xb450;" d="M680 396v69h-400v202h391v68h-465v-339h474zM872 206v69h-845v-69h386v-333h75v333h384z" />
<glyph unicode="&#xb451;" d="M675 445v69h-386v171h384v68h-458v-308h460zM873 280v65h-846v-65h390v-117h-202v-70h394v-248h74v318h-192v117h382z" />
<glyph unicode="&#xb454;" d="M678 435v68h-387v182h384v68h-458v-318h461zM873 263v65h-846v-65h402v-198h75v198h369zM705 -133v68h-408v218h-74v-286h482z" />
<glyph unicode="&#xb458;" d="M677 477v68h-386v150h384v68h-458v-286h460zM873 326v67h-846v-67h393v-94h-192v-67h377v-86h-372v-224h476v70h-397v88h372v219h-190v94h379z" />
<glyph unicode="&#xb460;" d="M675 448v69h-386v168h384v68h-458v-305h460zM873 283v65h-846v-65h393v-112h-195v-309h466v309h-197v112h379zM615 -70h-312v172h312v-172z" />
<glyph unicode="&#xb461;" d="M676 474v68h-386v153h384v68h-458v-289h460zM873 320v66h-846v-66h393v-156h74v156h379zM693 -143v373h-76v-126h-311v126h-77v-373h464zM617 -75h-311v111h311v-111z" />
<glyph unicode="&#xb463;" d="M670 444v69h-386v172h384v68h-458v-309h460zM873 271v65h-846v-65h386v-91q0 -85 -66 -158.5t-179 -107.5l49 -58q72 22 131 67t95 102l246 -171l48 54l-262 180q16 42 14 84v99h384z" />
<glyph unicode="&#xb465;" d="M676 445v69h-386v171h384v68h-458v-308h460zM873 289v66h-846v-66h393v-78q-82 -11 -134.5 -61.5t-52.5 -122.5q0 -86 65.5 -134t161.5 -48t163 50t67 133q0 76 -55 126t-141 58v77h379zM612 28q0 -56 -45 -87.5t-107 -31.5q-61 0 -105 31.5t-44 87.5q0 54 42.5 87 t106.5 33q66 0 109 -31t43 -89z" />
<glyph unicode="&#xb46c;" horiz-adv-x="870" d="M773 -110v901h-75v-619h-223v-69h223v-213h75zM517 406v69h-320v169h316v69h-390v-307h394zM642 270v68q-155 -30 -389 -30h-217v-69h181q48 0 70 1v-336h74v338q114 4 281 28z" />
<glyph unicode="&#xb480;" horiz-adv-x="870" d="M768 187v605h-72v-501h-209v-65h209v-39h72zM503 480v69h-320v116h317v69h-392v-254h395zM618 364v68q-147 -32 -387 -32h-208v-65h219v-138h74v139q148 5 302 28zM834 -93l-179 163q8 26 10 69v28h-77v-25q0 -55 -27 -112.5t-76 -89.5l-118 121q8 24 12 78v25h-78v-22 q0 -73 -45 -136.5t-121 -91.5l48 -61q100 46 153 137l143 -143q42 19 82.5 57.5t67.5 92.5l157 -142z" />
<glyph unicode="&#xb488;" horiz-adv-x="920" d="M832 -110v901h-74v-901h74zM651 -69v839h-75v-608h-170v-69h170v-162h75zM459 406v69h-279v169h275v69h-350v-307h354zM540 275v68q-153 -30 -339 -30h-168v-68h141q52 0 75 1v-342h74v344q51 3 87.5 7t73 10.5t56.5 9.5z" />
<glyph unicode="&#xb49d;" horiz-adv-x="920" d="M821 198v594h-75v-594h75zM646 239v530h-75v-444h-179v-67h179v-19h75zM449 484v69h-279v112h276v69h-350v-250h353zM531 382v67q-133 -26 -328 -26h-170v-66h191v-159h74v160q42 1 78.5 4t54 5.5l52.5 7.5t48 7zM787 27q0 79 -65.5 130t-158.5 51q-90 0 -155.5 -50.5 t-65.5 -130.5q0 -81 65 -131t156 -50q92 0 158 50t66 131zM711 27q0 -52 -44.5 -82t-103.5 -30q-58 0 -101.5 30.5t-43.5 81.5q0 53 43.5 83.5t101.5 30.5t103 -31.5t45 -82.5z" />
<glyph unicode="&#xb4a4;" horiz-adv-x="850" d="M771 -110v901h-75v-901h75zM530 393v69h-330v182h327v69h-401v-320h404zM655 249v69q-157 -31 -408 -31h-208v-68h171q63 0 91 1v-316h75v318q135 5 279 27z" />
<glyph unicode="&#xb4a8;" horiz-adv-x="850" d="M759 144v648h-73v-648h73zM517 445v69h-323v141h320v68h-394v-278h397zM650 323v67q-147 -32 -397 -32h-219v-63h239v-120h73v121q147 4 304 27zM763 -136v70h-400v209h-76v-279h476z" />
<glyph unicode="&#xb4ac;" horiz-adv-x="850" d="M755 267v525h-73v-525h73zM513 485v69h-323v111h320v68h-394v-248h397zM646 380v67q-147 -32 -397 -32h-219v-63h239v-97h73v98q147 4 304 27zM752 -146v72h-390v85h364v210h-449v-67h372v-76h-366v-224h469z" />
<glyph unicode="&#xb4b5;" horiz-adv-x="850" d="M755 242v550h-73v-550h73zM513 480v69h-323v116h320v68h-394v-253h397zM646 375v67q-147 -32 -397 -32h-219v-63h219v-104h73v105q172 4 324 27zM732 -144v351h-76v-108h-301v108h-77v-351h454zM656 -75h-301v106h301v-106z" />
<glyph unicode="&#xb4b7;" horiz-adv-x="850" d="M759 144v648h-72v-648h72zM517 442v69h-323v144h320v68h-394v-281h397zM650 320v67q-147 -32 -397 -32h-229v-63h235v-140h73v141q164 4 318 27zM782 -89l-255 181q16 46 16 90v21h-78v-18q0 -85 -64.5 -160t-175.5 -109l49 -58q71 22 128.5 66.5t93.5 101.5l236 -168z " />
<glyph unicode="&#xb4b9;" horiz-adv-x="850" d="M764 200v592h-73v-592h73zM522 455v69h-323v136h320v68h-394v-273h397zM655 333v67q-147 -32 -397 -32h-229v-63h229v-120h73v121q172 4 324 27zM744 27q0 79 -65.5 130t-158.5 51q-90 0 -155.5 -50.5t-65.5 -130.5q0 -81 65 -131t156 -50q92 0 158 50t66 131zM668 27 q0 -52 -44.5 -82t-103.5 -30q-58 0 -101.5 30.5t-43.5 81.5q0 53 43.5 83.5t101.5 30.5t103 -31.5t45 -82.5z" />
<glyph unicode="&#xb4c0;" d="M680 396v69h-400v202h391v68h-465v-339h474zM872 206v69h-845v-69h245v-333h75v333h199v-333h76v333h250z" />
<glyph unicode="&#xb4c4;" d="M678 435v68h-387v182h384v68h-458v-318h461zM873 263v65h-846v-65h318v-198h76v198h129v-198h75v198h248zM705 -133v68h-408v218h-74v-286h482z" />
<glyph unicode="&#xb4c8;" d="M677 477v68h-386v150h384v68h-458v-286h460zM873 326v67h-846v-67h266v-98h-65v-67h377v-84h-372v-222h476v70h-397v86h372v217h-57v98h246zM553 228h-183v98h183v-98z" />
<glyph unicode="&#xb4d0;" d="M675 448v69h-386v168h384v68h-458v-305h460zM873 287v64h-846v-64h266v-116h-68v-309h466v309h-64v116h246zM553 171h-183v116h183v-116zM615 -70h-312v172h312v-172z" />
<glyph unicode="&#xb4d5;" d="M676 451v68h-386v166h384v68h-458v-302h460zM873 296v66h-846v-66h240v-158q-40 -50 -40 -111q0 -87 65.5 -135.5t161.5 -48.5t163 50t67 135q0 70 -47 119v149h236zM563 196q-49 20 -109 20q-59 0 -111 -22v102h220v-100zM606 28q0 -57 -45 -88.5t-107 -31.5 q-61 0 -105 31.5t-44 88.5q0 54 42.5 87.5t106.5 33.5q66 0 109 -31.5t43 -89.5z" />
<glyph unicode="&#xb4dc;" d="M689 271v68h-409v278h409v69h-483v-415h483zM872 16v69h-845v-69h845z" />
<glyph unicode="&#xb4dd;" d="M674 439v69h-386v177h384v68h-458v-314h460zM873 267v65h-846v-65h846zM680 -155v318h-468v-70h394v-248h74z" />
<glyph unicode="&#xb4e0;" d="M678 429v68h-387v188h384v68h-458v-324h461zM873 256v66h-846v-66h846zM705 -133v68h-408v218h-74v-286h482z" />
<glyph unicode="&#xb4e3;" d="M675 446v69h-386v170h384v68h-458v-307h460zM873 265v66h-846v-66h846zM696 -140v69h-401v165h391v70l-466 -1v-303h476z" />
<glyph unicode="&#xb4e4;" d="M675 467v68h-386v160h384v68h-458v-296h460zM873 310v67h-846v-67h846zM702 -145v70h-397v86h372v215h-457v-67h377v-82h-371v-222h476z" />
<glyph unicode="&#xb4e6;" d="M675 467v68h-386v160h384v68h-458v-296h460zM873 310v67h-846v-67h846zM746 -145v366h-266v-366h266zM465 -145v71h-229v80h195v216h-274v-68h197v-82h-195v-217h306zM670 -77h-115v230h115v-230z" />
<glyph unicode="&#xb4ec;" d="M675 444v69h-386v172h384v68h-458v-309h460zM873 276v65h-846v-65h846zM690 -138v309h-466v-309h466zM614 -70h-312v172h312v-172z" />
<glyph unicode="&#xb4ed;" d="M676 460v68h-386v167h384v68h-458v-303h460zM873 304v66h-846v-66h846zM691 -143v373h-76v-126h-311v126h-77v-373h464zM615 -75h-311v111h311v-111z" />
<glyph unicode="&#xb4ef;" d="M673 436v68h-386v181h384v68h-458v-317h460zM873 270v65h-846v-65h846zM744 -93l-263 180q16 45 16 84v26h-79v-18q0 -85 -65.5 -158.5t-177.5 -107.5l49 -58q146 45 225 169l247 -171z" />
<glyph unicode="&#xb4f1;" d="M673 442v69h-386v174h384v68h-458v-311h460zM873 291v65h-846v-65h846zM686 36q0 86 -66 137.5t-164 51.5q-96 0 -161.5 -53.5t-65.5 -136.5q0 -88 65.5 -136.5t161.5 -48.5t163 50.5t67 135.5zM608 36q0 -57 -45 -89t-107 -32q-61 0 -105 32t-44 89q0 55 42.5 88.5 t106.5 33.5q66 0 109 -32t43 -90z" />
<glyph unicode="&#xb4f8;" horiz-adv-x="850" d="M754 -110v901h-75v-901h75zM524 333v69h-346v211h343v68h-417v-348h420zM644 153v67q-19 -4 -53 -9.5t-143 -14.5t-221 -8h-200v-68h204q108 0 189.5 5t120 10.5t103.5 17.5z" />
<glyph unicode="&#xb514;" horiz-adv-x="850" d="M742 -110v901h-74v-901h74zM556 176v70h-402v345h313v69h-388v-484h477z" />
<glyph unicode="&#xb515;" horiz-adv-x="850" d="M744 229v563h-74v-563h74zM562 322v68h-412v265h311v68h-385v-401h486zM721 -156v332h-467v-70h392v-262h75z" />
<glyph unicode="&#xb518;" horiz-adv-x="850" d="M739 150v642h-74v-642h74zM557 302v68h-412v275h311v68h-385v-411h486zM750 -136v70h-399v230h-77v-300h476z" />
<glyph unicode="&#xb51b;" horiz-adv-x="850" d="M744 233v559h-74v-559h74zM562 332v68h-412v255h311v68h-385v-391h486zM745 -141v70h-401v187h390v69h-465v-326h476z" />
<glyph unicode="&#xb51c;" horiz-adv-x="850" d="M744 289v503h-74v-503h74zM562 364v68h-412v233h311v68h-385v-369h486zM737 -146v72h-390v97h365v225h-449v-67h371v-92h-366v-235h469z" />
<glyph unicode="&#xb524;" horiz-adv-x="850" d="M744 226v566h-74v-566h74zM562 332v68h-412v255h311v68h-385v-391h486zM725 -139v324h-455v-324h455zM648 -70h-302v186h302v-186z" />
<glyph unicode="&#xb525;" horiz-adv-x="850" d="M744 276v516h-74v-516h74zM562 352v68h-412v245h311v68h-385v-381h486zM723 -144v374h-77v-126h-301v126h-76v-374h454zM646 -75h-301v111h301v-111z" />
<glyph unicode="&#xb527;" horiz-adv-x="850" d="M739 182v610h-74v-610h74zM557 312v68h-412v265h311v68h-385v-401h486zM771 -96l-255 203q16 46 16 86v37h-78v-29q0 -91 -64.5 -173t-175.5 -116l49 -57q70 22 127.5 72t94.5 113l236 -186z" />
<glyph unicode="&#xb528;" horiz-adv-x="850" d="M740 234v558h-75v-558h75zM557 322v68h-412v265h311v68h-385v-401h486zM812 -93l-178 162q9 37 10 70v56h-77v-53q0 -57 -28 -112t-73 -90l-122 121q11 33 13 78v56h-79v-53q0 -71 -47 -136.5t-118 -92.5l48 -60q99 44 153 137l144 -142q40 16 82 55t68 93l157 -141z" />
<glyph unicode="&#xb529;" horiz-adv-x="850" d="M744 234v558h-74v-558h74zM562 322v68h-412v265h311v68h-385v-401h486zM725 39q0 84 -64.5 138t-156.5 54q-89 0 -155 -56.5t-66 -135.5q0 -83 64 -138t158 -55q91 0 155.5 54.5t64.5 138.5zM648 39q0 -54 -41.5 -89.5t-102.5 -35.5t-101.5 34.5t-40.5 91.5q0 54 40 89 t102 35q65 0 104.5 -33t39.5 -92z" />
<glyph unicode="&#xb52a;" horiz-adv-x="850" d="M739 264v528h-75v-528h75zM555 342v68h-412v255h311v68h-385v-391h486zM790 -87l-219 120q102 89 126 177h-442v-67h316q-62 -76 -167 -137t-213 -87l46 -60q133 30 271 125l237 -129z" />
<glyph unicode="&#xb530;" horiz-adv-x="920" d="M916 399v68h-158v324h-75v-901h75v509h158zM615 176v70h-220v345h180v69h-255v-414h-187v345h159v69h-233v-484h556z" />
<glyph unicode="&#xb531;" horiz-adv-x="920" d="M904 503v70h-153v219h-75v-558h75v269h153zM609 321v69h-219v265h179v68h-254v-333h-188v265h160v68h-234v-402h556zM740 -156v338h-468v-70h393v-268h75z" />
<glyph unicode="&#xb534;" horiz-adv-x="920" d="M912 483v70h-152v239h-74v-642h74v333h152zM619 301v67h-219v277h179v68h-254v-345h-188v277h160v68h-234v-412h556zM774 -136v70h-401v240h-75v-310h476z" />
<glyph unicode="&#xb538;" horiz-adv-x="920" d="M904 519v70h-153v203h-75v-499h75v226h153zM608 362v70h-219v233h179v69h-254v-302h-188v233h160v69h-234v-372h556zM759 -146v72h-390v96h365v222h-449v-67h371v-89h-366v-234h469z" />
<glyph unicode="&#xb540;" horiz-adv-x="920" d="M904 503v70h-153v219h-75v-558h75v269h153zM609 321v69h-219v265h179v68h-254v-333h-188v265h160v68h-234v-402h556zM740 -139v320h-466v-320h466zM664 -70h-312v183h312v-183z" />
<glyph unicode="&#xb541;" horiz-adv-x="920" d="M905 523v70h-153v199h-75v-516h75v247h153zM611 351v69h-219v245h179v68h-254v-313h-188v245h160v68h-234v-382h556zM742 -144v378h-77v-126h-301v126h-76v-378h454zM665 -75h-301v115h301v-115z" />
<glyph unicode="&#xb543;" horiz-adv-x="920" d="M911 492v69h-153v231h-75v-610h75v310h153zM617 311v69h-219v265h179v68h-254v-333h-188v265h160v68h-234v-402h556zM797 -96l-255 203q16 46 16 86v27h-78v-19q0 -91 -64.5 -173t-175.5 -116l49 -57q70 23 128.5 71.5t94.5 110.5l235 -183z" />
<glyph unicode="&#xb544;" horiz-adv-x="920" d="M911 503v70h-153v219h-75v-568h75v279h153zM616 321v69h-219v265h179v68h-254v-333h-188v265h160v68h-234v-402h556zM822 -93l-178 162q9 37 10 70v56h-77v-53q0 -57 -28 -112t-73 -90l-122 121q11 33 13 78v56h-79v-53q0 -71 -47 -136.5t-118 -92.5l48 -60 q99 44 153 137l144 -142q40 16 82 55t68 93l157 -141z" />
<glyph unicode="&#xb545;" horiz-adv-x="920" d="M904 503v70h-153v219h-75v-558h75v269h153zM609 325v69h-219v261h179v68h-254v-329h-188v261h160v68h-234v-398h556zM744 39q0 83 -66.5 137.5t-159.5 54.5q-92 0 -159 -56t-67 -136q0 -84 64.5 -138.5t162.5 -54.5q95 0 160 54.5t65 138.5zM667 39q0 -54 -44 -89.5 t-105 -35.5t-104 34.5t-43 91.5q0 53 42.5 88.5t104.5 35.5q65 0 107 -34t42 -91z" />
<glyph unicode="&#xb54b;" horiz-adv-x="920" d="M912 535v69h-153v188h-75v-495h75v238h153zM616 381v69h-219v215h179v68h-254v-283h-188v215h160v68h-234v-352h556zM787 95v65h-578v-65h156q-26 -14 -41.5 -42.5t-15.5 -61.5q0 -67 57 -110.5t137 -43.5q81 0 136.5 41.5t55.5 114.5q0 69 -57 102h150zM612 -5 q0 -41 -32.5 -66.5t-78.5 -25.5q-47 0 -79 25.5t-32 66.5q0 40 32 64.5t78 24.5q45 0 78.5 -24.5t33.5 -64.5zM652 230v68q-109 -6 -202 1q-41 2 -99 24l-23 -57q51 -31 115 -35q92 -5 209 -1z" />
<glyph unicode="&#xb54c;" horiz-adv-x="920" d="M850 -110v901h-74v-323h-108v302h-76v-817h76v446h108v-509h74zM554 176v70h-181v345h143v69h-218v-414h-159v345h131v69h-205v-484h489z" />
<glyph unicode="&#xb54d;" horiz-adv-x="920" d="M848 224v568h-75v-227h-113v204h-74v-525h74v253h113v-273h75zM548 319v69h-177v267h142v68h-217v-335h-151v267h123v68h-197v-404h477zM804 -156v338h-467v-70h391v-268h76z" />
<glyph unicode="&#xb550;" horiz-adv-x="920" d="M848 154v638h-75v-247h-113v224h-74v-575h74v283h113v-323h75zM548 299v69h-177v277h142v68h-217v-345h-151v277h123v68h-197v-414h477zM839 -136v70h-400v230h-75v-300h475z" />
<glyph unicode="&#xb554;" horiz-adv-x="920" d="M848 276v516h-75v-207h-113v184h-74v-475h74v223h113v-241h75zM548 349v69h-177v247h142v68h-217v-315h-151v247h123v68h-197v-384h477zM825 -146v72h-389v97h363v220h-448v-67h371v-87h-366v-235h469z" />
<glyph unicode="&#xb55c;" horiz-adv-x="920" d="M848 224v568h-75v-227h-113v204h-74v-525h74v253h113v-273h75zM548 319v69h-177v267h142v68h-217v-335h-151v267h123v68h-197v-404h477zM815 -139v322h-456v-322h456zM737 -70h-301v184h301v-184z" />
<glyph unicode="&#xb55d;" horiz-adv-x="920" d="M848 264v528h-75v-217h-113v194h-74v-487h74v225h113v-243h75zM548 329v69h-177v267h142v68h-217v-335h-151v267h123v68h-197v-404h477zM804 -144v374h-76v-126h-308v126h-77v-374h461zM728 -75h-308v111h308v-111z" />
<glyph unicode="&#xb55f;" horiz-adv-x="920" d="M848 214v578h-75v-237h-113v214h-74v-515h74v233h113v-273h75zM548 309v69h-177v267h142v68h-217v-335h-151v267h123v68h-197v-404h477zM841 -96l-255 203q16 46 16 86v27h-78v-19q0 -91 -64.5 -173t-175.5 -116l49 -57q70 23 128.5 71.5t94.5 110.5l235 -183z" />
<glyph unicode="&#xb560;" horiz-adv-x="920" d="M848 224v568h-75v-227h-113v204h-74v-525h74v253h113v-273h75zM548 319v69h-177v267h142v68h-217v-335h-151v267h123v68h-197v-404h477zM879 -93l-178 162q9 37 10 70v56h-77v-53q0 -57 -28 -112t-73 -90l-122 121q11 33 13 78v56h-79v-53q0 -71 -47 -136.5t-118 -92.5 l48 -60q99 44 153 137l144 -142q40 16 82 55t68 93l157 -141z" />
<glyph unicode="&#xb561;" horiz-adv-x="920" d="M848 234v558h-75v-227h-113v204h-74v-495h74v223h113v-263h75zM548 319v69h-177v267h142v68h-217v-335h-151v267h123v68h-197v-404h477zM814 39q0 83 -66.5 137.5t-159.5 54.5q-92 0 -159 -56t-67 -136q0 -84 64.5 -138.5t162.5 -54.5q95 0 160 54.5t65 138.5zM737 39 q0 -54 -44 -89.5t-105 -35.5t-104 34.5t-43 91.5q0 53 42.5 88.5t104.5 35.5q65 0 107 -34t42 -91z" />
<glyph unicode="&#xb5a0;" horiz-adv-x="880" d="M790 -110v901h-75v-325h-184v-69h184v-507h75zM616 176v70h-225v345h185v69h-260v-414h-182v345h154v69h-228v-484h556z" />
<glyph unicode="&#xb5a1;" horiz-adv-x="880" d="M786 234v558h-75v-237h-195v-67h195v-254h75zM615 314v69h-224v272h184v68h-259v-340h-183v272h155v68h-229v-409h556zM762 -156v338h-467v-70h393v-268h74z" />
<glyph unicode="&#xb5a4;" horiz-adv-x="880" d="M782 144v648h-75v-251h-195v-67h195v-330h75zM611 294v69h-224v282h184v68h-259v-350h-183v282h155v68h-229v-419h556zM791 -136v70h-401v235h-75v-305h476z" />
<glyph unicode="&#xb5a8;" horiz-adv-x="880" d="M786 284v508h-75v-217h-195v-67h195v-224h75zM615 344v69h-224v252h184v68h-259v-320h-183v252h155v68h-229v-389h556zM778 -146v72h-389v98h364v222h-449v-67h371v-89h-365v-236h468z" />
<glyph unicode="&#xb5aa;" horiz-adv-x="880" d="M786 284v508h-75v-217h-195v-67h195v-224h75zM615 344v69h-224v252h184v68h-259v-320h-183v252h155v68h-229v-389h556zM777 -146v387h-268v-387h268zM495 -146v72h-228v95h194v223h-275v-67h198v-90h-195v-233h306zM700 -77h-115v250h115v-250z" />
<glyph unicode="&#xb5ab;" horiz-adv-x="880" d="M786 284v508h-75v-217h-195v-67h195v-224h75zM615 344v69h-224v252h184v68h-259v-320h-183v252h155v68h-229v-389h556zM780 -145v391h-74v-140h-133v140h-74v-391h281zM478 -146v72h-230v97h195v223h-274v-67h198v-90h-196v-235h307zM706 -76h-133v114h133v-114z" />
<glyph unicode="&#xb5b0;" horiz-adv-x="880" d="M786 234v558h-75v-237h-195v-67h195v-254h75zM615 314v69h-224v272h184v68h-259v-340h-183v272h155v68h-229v-409h556zM767 -139v322h-455v-322h455zM690 -70h-302v184h302v-184z" />
<glyph unicode="&#xb5b1;" horiz-adv-x="880" d="M786 274v518h-75v-221h-195v-67h195v-230h75zM615 340v69h-224v256h184v68h-259v-324h-183v256h155v68h-229v-393h556zM764 -144v374h-76v-126h-301v126h-76v-374h453zM688 -75h-301v111h301v-111z" />
<glyph unicode="&#xb5b3;" horiz-adv-x="880" d="M786 184v608h-75v-247h-195v-67h195v-294h75zM615 308v69h-224v268h184v68h-259v-336h-183v268h155v68h-229v-405h556zM801 -96l-255 203q16 46 16 86v27h-78v-19q0 -91 -64.5 -173t-175.5 -116l49 -57q70 23 128.5 71.5t94.5 110.5l235 -183z" />
<glyph unicode="&#xb5b4;" horiz-adv-x="880" d="M784 224v568h-75v-237h-195v-67h195v-264h75zM613 314v69h-224v272h184v68h-259v-340h-183v272h155v68h-229v-409h556zM835 -93l-178 162q8 25 10 70v56h-77v-53q0 -56 -28.5 -110.5t-73.5 -90.5l-121 120q11 33 13 78v56h-79v-53q0 -71 -47 -136.5t-118 -92.5l48 -60 q99 44 153 137l144 -142q39 16 80.5 54.5t69.5 93.5l157 -141z" />
<glyph unicode="&#xb5b5;" horiz-adv-x="880" d="M786 234v558h-75v-237h-195v-67h195v-254h75zM615 317v69h-224v269h184v68h-259v-337h-183v269h155v68h-229v-406h556zM771 39q0 83 -66.5 137.5t-159.5 54.5q-92 0 -159 -56t-67 -136q0 -84 64.5 -138.5t162.5 -54.5q95 0 160 54.5t65 138.5zM694 39q0 -54 -44 -89.5 t-105 -35.5t-104 34.5t-43 91.5q0 53 42.5 88.5t104.5 35.5q65 0 107 -34t42 -91z" />
<glyph unicode="&#xb5bb;" horiz-adv-x="880" d="M782 297v495h-75v-198h-195v-69h195v-228h75zM612 386v69h-224v212h184v68h-259v-280h-183v212h155v68h-229v-349h556zM796 95v65h-578v-65h156q-26 -14 -41.5 -42.5t-15.5 -61.5q0 -67 57 -110.5t137 -43.5q81 0 136.5 41.5t55.5 114.5q0 69 -57 102h150zM621 -5 q0 -41 -32.5 -66.5t-78.5 -25.5q-48 0 -79.5 25.5t-31.5 66.5q0 40 32 64.5t78 24.5q45 0 78.5 -24.5t33.5 -64.5zM661 230v68q-109 -6 -202 1q-41 2 -99 24l-23 -57q51 -31 114 -35q92 -5 210 -1z" />
<glyph unicode="&#xb5bc;" horiz-adv-x="920" d="M852 -110v901h-74v-901h74zM672 -47v817h-75v-302h-156v-69h156v-446h75zM537 176v70h-178v345h139v69h-214v-414h-149v345h121v69h-195v-484h476z" />
<glyph unicode="&#xb5bd;" horiz-adv-x="920" d="M848 220v572h-75v-572h75zM680 239v530h-76v-216h-152v-68h152v-246h76zM541 312v68h-183v275h143v68h-218v-343h-143v275h115v68h-189v-411h475zM804 -156v333h-467v-70h393v-263h74z" />
<glyph unicode="&#xb5c0;" horiz-adv-x="920" d="M848 150v642h-75v-642h75zM680 189v580h-76v-226h-152v-68h152v-286h76zM541 292v68h-183v285h143v68h-218v-353h-143v285h115v68h-189v-421h475zM839 -136v70h-400v230h-75v-300h475z" />
<glyph unicode="&#xb5c4;" horiz-adv-x="920" d="M848 273v519h-75v-519h75zM680 284v485h-76v-198h-152v-68h152v-219h76zM541 340v68h-183v257h143v68h-218v-325h-143v257h115v68h-189v-393h475zM828 -146v72h-392v93h366v218h-451v-68h374v-84h-369v-231h472z" />
<glyph unicode="&#xb5cc;" horiz-adv-x="920" d="M848 220v572h-75v-572h75zM680 239v530h-76v-216h-152v-68h152v-246h76zM541 312v68h-183v275h143v68h-218v-343h-143v275h115v68h-189v-411h475zM815 -139v322h-462v-322h462zM737 -70h-307v184h307v-184z" />
<glyph unicode="&#xb5cd;" horiz-adv-x="920" d="M848 265v527h-75v-527h75zM680 279v490h-76v-196h-152v-68h152v-226h76zM541 332v68h-183v265h143v68h-218v-333h-143v265h115v68h-189v-401h475zM807 -144v374h-76v-126h-311v126h-77v-374h464zM731 -75h-311v111h311v-111z" />
<glyph unicode="&#xb5cf;" horiz-adv-x="920" d="M848 212v580h-75v-580h75zM680 249v520h-76v-222h-152v-68h152v-230h76zM541 306v68h-183v275h143v68h-218v-343h-143v275h115v68h-189v-411h475zM841 -96l-255 203q16 46 16 86v27h-78v-19q0 -91 -64.5 -173t-175.5 -116l49 -57q70 23 128.5 71.5t94.5 110.5l235 -183z " />
<glyph unicode="&#xb5d0;" horiz-adv-x="920" d="M848 220v572h-75v-572h75zM680 239v530h-76v-216h-152v-68h152v-246h76zM541 312v68h-183v275h143v68h-218v-343h-143v275h115v68h-189v-411h475zM876 -93l-179 162q9 37 10 70v56h-77v-53q0 -57 -28 -112t-73 -90l-122 121q11 33 13 78v56h-79v-53q0 -71 -47 -136.5 t-118 -92.5l48 -60q99 44 153 137l143 -142q40 16 82.5 55t68.5 93l158 -141z" />
<glyph unicode="&#xb5d1;" horiz-adv-x="920" d="M848 240v552h-75v-552h75zM680 269v500h-76v-216h-152v-68h152v-216h76zM541 312v68h-183v275h143v68h-218v-343h-143v275h115v68h-189v-411h475zM814 39q0 83 -66.5 137.5t-159.5 54.5q-92 0 -159 -56t-67 -136q0 -84 64.5 -138.5t162.5 -54.5q95 0 160 54.5t65 138.5z M737 39q0 -54 -44 -89.5t-105 -35.5t-104 34.5t-43 91.5q0 53 42.5 88.5t104.5 35.5q65 0 107 -34t42 -91z" />
<glyph unicode="&#xb5d8;" horiz-adv-x="880" d="M781 -110v901h-75v-254h-176v-68h176v-95h-176v-66h176v-418h75zM607 176v70h-228v345h188v69h-263v-414h-179v345h151v69h-225v-484h556z" />
<glyph unicode="&#xb5ec;" horiz-adv-x="880" d="M767 219v573h-73v-178h-189v-68h189v-76h-189v-69h189v-182h73zM596 294v69h-224v292h184v68h-259v-360h-180v292h152v68h-226v-429h553zM822 -93l-178 162q8 25 10 70v56h-77v-53q0 -56 -28.5 -110.5t-73.5 -90.5l-121 120q11 33 13 78v56h-79v-53q0 -71 -47 -136.5 t-118 -92.5l48 -60q99 44 153 137l144 -142q39 16 80.5 54.5t69.5 93.5l157 -141z" />
<glyph unicode="&#xb610;" d="M725 283v68h-227v266h226v69h-299v-335h-203v266h170v69h-245v-403h578zM872 5v69h-389v177h-74v-177h-382v-69h845z" />
<glyph unicode="&#xb611;" d="M873 251v67h-383v112h225v69h-213v186h213v68h-287v-254h-185v186h152v68h-226v-323h247v-112h-389v-67h846zM682 -155v304h-468v-70h393v-234h75z" />
<glyph unicode="&#xb614;" d="M873 230v68h-383v121h225v69h-213v197h213v68h-287v-265h-185v197h152v68h-226v-334h247v-121h-389v-68h846zM707 -133v68h-407v207h-75v-275h482z" />
<glyph unicode="&#xb618;" d="M873 303v67h-383v102h225v69h-213v154h213v68h-287v-222h-185v154h152v68h-226v-291h247v-102h-389v-67h846zM706 -145v70h-397v86h372v215h-457v-67h377v-82h-371v-222h476z" />
<glyph unicode="&#xb625;" d="M873 283v66h-385v97h225v70h-213v169h213v68h-287v-237h-185v169h152v68h-226v-307h247v-97h-387v-66h846zM685 36q0 84 -66 135.5t-164 51.5q-96 0 -161.5 -52.5t-65.5 -135.5q0 -87 65 -134.5t162 -47.5q96 0 163 49.5t67 133.5zM607 36q0 -57 -45 -87.5t-107 -30.5 q-61 0 -105 30.5t-44 87.5q0 54 42.5 87t106.5 33q65 0 108.5 -32.5t43.5 -87.5z" />
<glyph unicode="&#xb62c;" horiz-adv-x="940" d="M919 369v68h-153v354h-74v-901h74v479h153zM654 148v66q-170 -32 -277 -31v143h197v69h-174v218h171v68h-246v-286h-165v218h136v68h-211v-355h216v-143h-268v-68h250q55 0 100.5 1.5t73.5 3t60 5.5t45.5 6t46 8.5t45.5 8.5z" />
<glyph unicode="&#xb634;" horiz-adv-x="940" d="M915 484v69h-153v239h-74v-519h74v211h153zM656 322v66q-133 -27 -290 -25v93h211v70h-177v139h174v69h-250v-208h-165v139h137v69h-211v-278h207v-93h-260v-67h253q187 0 371 26zM768 -146v72h-400v93h375v215h-459v-68h381v-81h-376v-231h479z" />
<glyph unicode="&#xb648;" horiz-adv-x="940" d="M855 -110v901h-75v-356h-117v335h-75v-817h75v413h117v-476h75zM563 146v69q-109 -30 -216 -30v141h171v69h-150v218h144v68h-219v-286h-140v218h111v68h-185v-355h192v-143h-227v-68h199q121 0 184.5 7t135.5 24z" />
<glyph unicode="&#xb664;" d="M807 -110v901h-74v-901h74zM700 148v66q-167 -31 -300 -30v142h213v69h-186v218h183v68h-257v-286h-176v218h146v68h-220v-355h220v-143h-271v-68h248q55 0 104 1.5t79 3.5t68.5 6.5t52 6t51 8t45.5 7.5z" />
<glyph unicode="&#xb668;" d="M798 135v657h-75v-657h75zM686 251v65q-125 -20 -297 -25v113h214v69h-181v172h178v68h-252v-240h-159v172h129v68h-204v-309h200v-113h-263v-69h237q207 0 398 29zM809 -136v70h-399v211h-75v-281h474z" />
<glyph unicode="&#xb69c;" d="M715 388v70h-220v208h220v68h-293v-276h-190v208h157v68h-231v-346h557zM872 202v70h-845v-70h386v-329h75v329h384z" />
<glyph unicode="&#xb69d;" d="M717 445v70h-213v170h213v68h-287v-238h-185v170h152v68h-226v-308h546zM873 278v65h-846v-65h390v-115h-202v-70h394v-248h74v318h-192v115h382z" />
<glyph unicode="&#xb6a0;" d="M718 432v69h-213v184h213v68h-287v-252h-185v184h152v68h-226v-321h546zM873 260v66h-846v-66h402v-195h75v195h369zM703 -133v68h-408v218h-74v-286h482z" />
<glyph unicode="&#xb6a4;" d="M720 475v69h-213v151h213v68h-287v-219h-184v151h152v68h-227v-288h546zM873 324v67h-846v-67h393v-92h-192v-67h377v-86h-372v-224h476v70h-397v88h372v219h-190v92h379z" />
<glyph unicode="&#xb6ab;" d="M720 475v69h-213v151h213v69h-287v-220h-184v151h152v69h-227v-289h546zM819 73v62h-369v-62h95q-26 -7 -46.5 -38.5t-20.5 -65.5q0 -58 44.5 -93t109.5 -36q66 -1 111 35.5t45 95.5q0 35 -19 63t-47 39h97zM712 -31q-1 -31 -23.5 -49t-56.5 -17q-33 1 -54.5 19t-22.5 49 t23.5 51t56.5 19q34 -1 56 -21t21 -51zM494 324h374v67h-841v-67h393v-83h-264v-67h197v-89h-195v-230h312v71h-235v93h196v160h63v31q36 -20 96 -28q63 -9 152 0v66q-90 -9 -147 0q-53 6 -86 21l-15 -35v90z" />
<glyph unicode="&#xb6ac;" d="M718 445v70h-213v170h213v68h-287v-238h-184v170h152v68h-227v-308h546zM873 283v65h-846v-65h393v-112h-195v-309h466v309h-197v112h379zM615 -70h-312v172h312v-172z" />
<glyph unicode="&#xb6b1;" d="M720 445v70h-213v170h213v68h-287v-238h-184v170h152v68h-227v-308h546zM873 293v66h-846v-66h393v-83q-82 -11 -134.5 -60.5t-52.5 -121.5q0 -86 65.5 -134t161.5 -48t163 50t67 133q0 76 -54 125t-142 57v82h379zM612 29q0 -56 -45 -87.5t-107 -31.5q-61 0 -105 31.5 t-44 87.5q0 54 42.5 86t106.5 32q67 0 109.5 -30.5t42.5 -87.5z" />
<glyph unicode="&#xb6d4;" horiz-adv-x="940" d="M851 -110v901h-75v-901h75zM677 -69v839h-74v-608h-171v-69h171v-162h74zM531 406v69h-152v169h149v69h-223v-238h-140v169h112v69h-187v-307h441zM566 266v69q-153 -30 -360 -30h-168v-69h163q45 0 67 1v-333h75v335q52 3 86.5 6.5t81 11.5t55.5 9z" />
<glyph unicode="&#xb6f0;" d="M800 -110v901h-75v-901h75zM606 381v69h-179v194h166v69h-240v-263h-161v194h133v69h-208v-332h489zM683 239v69q-162 -32 -409 -32h-217v-68h181q63 0 91 1v-305h75v307q135 6 279 28z" />
<glyph unicode="&#xb6f4;" d="M790 144v648h-73v-648h73zM600 436v69h-176v150h173v68h-248v-218h-168v150h139v68h-215v-287h495zM681 323v67q-147 -32 -407 -32h-229v-64h249v-127h73v128q151 4 314 28zM804 -136v70h-410v199h-77v-269h487z" />
<glyph unicode="&#xb6f8;" d="M788 264v528h-73v-528h73zM599 481v69h-176v120h173v68h-248v-188h-168v120h139v68h-215v-257h495zM680 368v67q-147 -32 -407 -32h-229v-64h235v-87h73v88q168 4 328 28zM785 -146v72h-400v82h374v210h-459v-67h382v-77h-377v-220h480z" />
<glyph unicode="&#xb700;" d="M790 204v588h-73v-588h73zM600 446v69h-176v140h173v68h-248v-208h-168v140h139v68h-215v-277h495zM681 333v67q-147 -32 -407 -32h-229v-64h249v-107h73v108q151 4 314 28zM770 -139v298h-465v-298h465zM694 -70h-312v161h312v-161z" />
<glyph unicode="&#xb701;" d="M788 244v548h-73v-548h73zM589 471v69h-176v130h173v68h-248v-198h-168v130h139v68h-215v-267h495zM680 358v67q-128 -32 -417 -32h-229v-64h235v-87h73v88q180 5 338 28zM768 -144v346h-76v-106h-311v106h-77v-346h464zM692 -75h-311v103h311v-103z" />
<glyph unicode="&#xb705;" d="M797 204v588h-73v-588h73zM607 446v69h-176v140h173v68h-248v-208h-168v140h139v68h-215v-277h495zM688 333v67q-147 -32 -407 -32h-229v-64h239v-117h73v118q163 4 324 28zM773 29q0 79 -65.5 131t-158.5 52q-90 0 -155.5 -51.5t-65.5 -131.5q0 -81 65.5 -132t155.5 -51 q92 0 158 51t66 132zM697 29q0 -52 -45 -83t-103 -31q-57 0 -101 31.5t-44 82.5q0 53 43.5 84.5t101.5 31.5t103 -32.5t45 -83.5z" />
<glyph unicode="&#xb728;" d="M728 617v69h-304v-347h-200v278h167v69h-242v-415h578v68h-230v278h231zM872 16v69h-845v-69h845z" />
<glyph unicode="&#xb729;" d="M710 426v69h-207v190h207v68h-281v-258h-185v190h152v68h-226v-327h540zM873 255v66h-846v-66h846zM682 -155v304h-468v-70h393v-234h75z" />
<glyph unicode="&#xb72c;" d="M710 415v69h-207v195h207v68h-281v-263h-185v195h152v68h-226v-332h540zM873 246v68h-846v-68h846zM707 -133v68h-407v217h-75v-285h482z" />
<glyph unicode="&#xb72f;" d="M710 426v69h-207v190h207v68h-281v-258h-185v190h152v68h-226v-327h540zM873 265v66h-846v-66h846zM695 -140v69h-401v167h391v70l-466 -1v-305h476z" />
<glyph unicode="&#xb730;" d="M713 468v69h-207v158h207v68h-281v-226h-184v158h151v68h-226v-295h540zM873 314v67h-846v-67h846zM709 -145v70h-397v89h372v215h-456v-67h377v-82h-372v-225h476z" />
<glyph unicode="&#xb738;" d="M710 437v69h-207v179h207v68h-281v-247h-185v179h152v68h-226v-316h540zM873 273v66h-846v-66h846zM691 -138v308h-466v-308h466zM615 -70h-312v171h312v-171z" />
<glyph unicode="&#xb739;" d="M713 466v69h-207v160h207v68h-281v-228h-184v160h151v68h-226v-297h540zM873 300v67h-846v-67h846zM693 -143v373h-76v-126h-311v126h-77v-373h464zM617 -75h-311v111h311v-111z" />
<glyph unicode="&#xb73b;" d="M710 428v69h-207v188h207v68h-281v-256h-185v188h152v68h-226v-325h540zM873 273v65h-846v-65h846zM743 -91l-263 180q16 43 16 83v30h-79v-22q0 -83 -65.5 -157t-177.5 -108l49 -58q72 23 130.5 67.5t94.5 101.5l247 -171z" />
<glyph unicode="&#xb744;" d="M795 -110v901h-74v-901h74zM604 325v69h-183v219h177v68h-251v-287h-168v219h139v68h-213v-356h499zM687 148v66q-140 -29 -374 -31h-279v-68h281q55 0 101 1.5t73.5 3t61 5.5t45 6t46 8.5t45.5 8.5z" />
<glyph unicode="&#xb748;" d="M790 135v657h-75v-657h75zM595 394v69h-178v182h175v68h-249v-250h-167v182h137v68h-212v-319h494zM685 256v64q-124 -25 -376 -25h-271v-69h265q54 0 100.5 1.5t76 3t65 5.5t49 6t48 7.5t43.5 6.5zM801 -136v70h-409v211h-75v-281h484z" />
<glyph unicode="&#xb74c;" d="M801 262v530h-74v-530h74zM605 444v69h-178v152h175v68h-249v-220h-167v152h137v68h-212v-289h494zM695 326v64q-124 -25 -376 -25h-271v-69h265q54 0 100.5 1.5t76 3t65 5.5t49 6t48 7.5t43.5 6.5zM789 -146v72h-400v85h374v213h-459v-67h382v-80h-377v-223h480z" />
<glyph unicode="&#xb754;" d="M800 225v567h-75v-567h75zM605 424v69h-178v162h175v68h-249v-230h-167v162h137v68h-212v-299h494zM695 296v64q-124 -25 -376 -25h-271v-69h265q54 0 100.5 1.5t76 3t65 5.5t49 6t48 7.5t43.5 6.5zM774 -139v322h-467v-322h467zM697 -70h-312v184h312v-184z" />
<glyph unicode="&#xb755;" d="M801 267v525h-74v-525h74zM605 444v69h-178v152h175v68h-249v-220h-167v152h137v68h-212v-289h494zM695 326v64q-124 -25 -376 -25h-271v-69h265q54 0 100.5 1.5t76 3t65 5.5t49 6t48 7.5t43.5 6.5zM780 -144v374h-76v-126h-314v126h-77v-374h467zM704 -75h-314v111h314 v-111z" />
<glyph unicode="&#xb760;" horiz-adv-x="880" d="M774 -110v901h-76v-901h76zM634 176v70h-240v345h180v69h-255v-414h-187v345h159v69h-233v-484h576z" />
<glyph unicode="&#xb764;" horiz-adv-x="880" d="M769 150v642h-75v-642h75zM624 301v67h-229v277h179v68h-254v-345h-188v277h160v68h-234v-412h566zM779 -136v70h-401v240h-75v-310h476z" />
<glyph unicode="&#xb768;" horiz-adv-x="880" d="M775 292v500h-75v-500h75zM628 356v67h-229v242h179v68h-254v-310h-188v242h160v68h-234v-377h566zM768 -146v72h-389v98h363v227h-448v-67h371v-94h-366v-236h469z" />
<glyph unicode="&#xb770;" horiz-adv-x="880" d="M769 235v557h-75v-557h75zM624 326v67h-229v262h179v68h-254v-330h-188v262h160v68h-234v-397h566zM746 -139v327h-455v-327h455zM670 -70h-302v189h302v-189z" />
<glyph unicode="&#xb771;" horiz-adv-x="880" d="M775 272v520h-75v-520h75zM628 356v67h-229v242h179v68h-254v-310h-188v242h160v68h-234v-377h566zM754 -144v374h-76v-126h-301v126h-77v-374h454zM678 -75h-301v111h301v-111z" />
<glyph unicode="&#xb773;" horiz-adv-x="880" d="M769 170v622h-75v-622h75zM624 311v67h-229v267h179v68h-254v-335h-188v267h160v68h-234v-402h566zM797 -106l-254 203q16 46 16 86v47h-79v-39q0 -86 -65.5 -170.5t-174.5 -118.5l49 -57q70 22 127.5 71t95.5 112l235 -184z" />
<glyph unicode="&#xb775;" horiz-adv-x="880" d="M769 230v562h-75v-562h75zM624 321v67h-229v267h179v68h-254v-335h-188v267h160v68h-234v-402h566zM758 39q0 83 -66.5 137.5t-159.5 54.5q-92 0 -159 -56t-67 -136q0 -84 64.5 -138.5t162.5 -54.5q95 0 160 54.5t65 138.5zM681 39q0 -54 -44 -89.5t-105 -35.5t-104 34.5 t-43 91.5q0 53 42.5 88.5t104.5 35.5q65 0 107 -34t42 -91z" />
<glyph unicode="&#xb77c;" d="M885 387v69h-167v335h-74v-901h74v497h167zM562 150v68h-413v158h291v291h-372v-67h294v-155h-289v-295h489z" />
<glyph unicode="&#xb77d;" d="M882 482v69h-163v241h-74v-573h74v263h163zM542 276v66h-396v126h279v262h-360v-68h284v-125h-279v-261h472zM707 -156v321h-467v-69h393v-252h74z" />
<glyph unicode="&#xb780;" d="M879 472v71h-162v249h-73v-642h73v322h162zM541 249v68h-396v134h279v268h-360v-67h284v-133h-279v-270h472zM731 -136v70h-400v209h-76v-279h476z" />
<glyph unicode="&#xb784;" d="M881 519v70h-163v203h-74v-509h74v236h163zM543 315v66h-396v111h279v248h-360v-68h284v-111h-279v-246h472zM726 -146v72h-389v94h363v222h-449v-67h372v-89h-366v-232h469z" />
<glyph unicode="&#xb78c;" d="M882 482v69h-163v241h-74v-574h74v264h163zM543 276v66h-396v126h279v262h-360v-68h284v-125h-279v-261h472zM706 -139v310h-455v-310h455zM630 -70h-301v173h301v-173z" />
<glyph unicode="&#xb78d;" d="M881 513v70h-163v209h-74v-516h74v237h163zM541 313v67h-396v112h279v249h-360v-68h284v-113h-279v-247h472zM710 -144v374h-77v-126h-300v126h-77v-374h454zM633 -75h-300v111h300v-111z" />
<glyph unicode="&#xb78f;" d="M881 491v69h-163v231h-74v-609h74v309h163zM541 278v67h-396v123h279v256h-360v-67h284v-120h-279v-259h472zM755 -105l-255 203q16 46 16 86v23h-78v-15q0 -91 -64.5 -173t-175.5 -116l49 -57q70 22 128 71.5t94 113.5l236 -186z" />
<glyph unicode="&#xb790;" d="M882 503v69h-163v220h-74v-558h74v269h163zM542 276v66h-396v126h279v261h-360v-67h284v-125h-279v-261h472zM811 -93l-178 162q8 25 10 70v56h-77v-53q0 -56 -28.5 -110.5t-73.5 -90.5l-121 120q11 33 13 78v56h-79v-53q0 -71 -47 -136.5t-118 -92.5l48 -60 q99 44 153 137l144 -142q39 16 80.5 54.5t69.5 93.5l157 -141z" />
<glyph unicode="&#xb791;" d="M882 503v70h-163v219h-74v-558h74v269h163zM542 287v66h-396v120h279v257h-360v-68h284v-121h-279v-254h472zM715 34q0 84 -64.5 137t-156.5 53q-90 0 -155.5 -55.5t-65.5 -134.5q0 -83 63.5 -137t158.5 -54q91 0 155.5 53.5t64.5 137.5zM638 34q0 -54 -41.5 -88.5 t-102.5 -34.5t-101.5 33.5t-40.5 90.5q0 53 40 87.5t102 34.5q65 0 104.5 -32t39.5 -91z" />
<glyph unicode="&#xb792;" d="M882 503v69h-163v220h-74v-547h74v258h163zM542 297v66h-396v116h279v250h-360v-67h284v-115h-279v-250h472zM782 -89q-219 113 -220 113q102 85 127 174h-443v-67h317q-62 -76 -164 -132t-216 -82l46 -60q124 22 269 119l239 -123z" />
<glyph unicode="&#xb796;" d="M882 503v69h-163v220h-74v-547h74v258h163zM542 297v66h-396v116h279v250h-360v-67h284v-115h-279v-250h472zM729 -136v69h-112v196h102v68h-515v-68h102v-196h-113v-69h536zM542 -67h-160v196h160v-196z" />
<glyph unicode="&#xb797;" d="M882 538v69h-163v185h-74v-495h74v241h163zM512 337v68h-376v101h279v235h-360v-67h284v-99h-279v-238h452zM755 95v65h-578v-65h156q-26 -14 -41.5 -42.5t-15.5 -61.5q0 -67 57 -110.5t137 -43.5q81 0 136.5 41.5t55.5 114.5q0 69 -57 102h150zM580 -5 q0 -41 -32.5 -66.5t-78.5 -25.5q-47 0 -79 25.5t-32 66.5q0 40 32 64.5t78 24.5q45 0 78.5 -24.5t33.5 -64.5zM614 214v68q-115 -6 -198 0q-41 2 -99 24l-23 -57q51 -31 115 -35q79 -4 205 0z" />
<glyph unicode="&#xb798;" d="M830 -110v901h-75v-323h-143v302h-75v-817h75v446h143v-509h75zM485 150v68h-319v158h248v291h-329v-67h252v-155h-247v-295h395z" />
<glyph unicode="&#xb799;" d="M831 216v576h-75v-234h-133v211h-75v-534h75v255h133v-274h75zM498 276v66h-324v126h237v262h-319v-68h242v-125h-236v-261h400zM788 -156v331h-468v-69h394v-262h74z" />
<glyph unicode="&#xb79c;" d="M830 137v655h-75v-244h-133v221h-75v-591h75v301h133v-342h75zM497 249v68h-324v134h237v268h-319v-67h242v-133h-236v-270h400zM822 -136v70h-401v219h-76v-289h477z" />
<glyph unicode="&#xb7a0;" d="M830 274v518h-75v-197h-133v174h-75v-475h75v233h133v-253h75zM507 317v67h-334v111h237v246h-319v-68h242v-111h-236v-245h410zM806 -146v72h-388v93h364v218h-449v-68h370v-84h-365v-231h468z" />
<glyph unicode="&#xb7a8;" d="M830 210v582h-75v-234h-133v211h-75v-539h75v260h133v-280h75zM497 275v67h-324v126h237v261h-319v-67h242v-125h-236v-262h400zM796 -139v310h-455v-310h455zM720 -70h-302v173h302v-173z" />
<glyph unicode="&#xb7a9;" d="M830 260v532h-75v-212h-133v189h-75v-489h75v231h133v-251h75zM507 310v67h-334v115h237v249h-319v-68h242v-113h-236v-250h410zM779 -144v366h-77v-120h-300v120h-77v-366h454zM702 -75h-300v109h300v-109z" />
<glyph unicode="&#xb7ab;" d="M831 202v590h-75v-234h-133v211h-75v-525h75v246h133v-288h75zM498 276v66h-324v126h237v261h-319v-67h242v-125h-236v-261h400zM822 -94l-254 197q16 46 16 91v13h-78v-5q0 -91 -68.5 -177.5t-171.5 -111.5l49 -57q71 22 129 69.5t93 110.5l235 -180z" />
<glyph unicode="&#xb7ac;" d="M831 227v565h-74v-236h-134v213h-74v-521h74v240h134v-261h74zM499 268v67h-325v131h238v263h-319v-67h241v-127h-235v-267h400zM869 -82l-179 163q10 32 11 69v44h-78v-41q0 -60 -26 -114.5t-76 -86.5l-119 120q9 34 12 78v44h-78v-41q0 -69 -46.5 -136.5t-119.5 -95.5 l48 -57q98 48 149 139l145 -145q102 46 153 149l156 -141z" />
<glyph unicode="&#xb7ad;" d="M826 234v558h-75v-231h-133v208h-75v-494h75v218h133v-259h75zM493 276v66h-324v126h237v262h-319v-68h242v-125h-236v-261h400zM786 39q0 82 -64.5 135t-156.5 53q-89 0 -155 -55.5t-66 -132.5q0 -81 64 -135t158 -54q91 0 155.5 53.5t64.5 135.5zM709 39 q0 -53 -41.5 -87.5t-102.5 -34.5t-101.5 33.5t-40.5 88.5q0 53 40 87.5t102 34.5q65 0 104.5 -32.5t39.5 -89.5z" />
<glyph unicode="&#xb7b4;" d="M889 254v67h-170v171h170v69h-170v230h-74v-901h74v364h170zM571 150v68h-413v158h291v291h-372v-67h294v-155h-289v-295h489z" />
<glyph unicode="&#xb7b5;" d="M884 373v68h-167v112h167v68h-167v171h-73v-574h73v155h167zM547 276v66h-396v126h279v262h-360v-68h284v-125h-279v-261h472zM710 -156v321h-467v-69h393v-252h74z" />
<glyph unicode="&#xb7b8;" d="M884 341v68h-167v124h167v68h-167v191h-73v-649h73v198h167zM547 246v66h-396v136h279v272h-360v-68h284v-135h-279v-271h472zM735 -136v70h-400v209h-76v-279h476z" />
<glyph unicode="&#xb7c7;" d="M884 352v69h-167v122h167v68h-167v181h-73v-617h73v177h167zM548 273v67h-396v126h279v258h-360v-67h284v-122h-279v-262h472zM761 -94l-254 197q16 46 16 91v13h-78v-5q0 -91 -68.5 -177.5t-171.5 -111.5l49 -57q71 22 129 69.5t93 110.5l235 -180z" />
<glyph unicode="&#xb7c9;" d="M884 379v68h-167v112h167v69h-167v164h-73v-558h73v145h167zM544 287v66h-396v120h279v257h-360v-68h284v-121h-279v-254h472zM717 34q0 84 -64.5 137t-156.5 53q-90 0 -155.5 -55.5t-65.5 -134.5q0 -83 63.5 -137t158.5 -54q91 0 155.5 53.5t64.5 137.5zM640 34 q0 -54 -41.5 -88.5t-102.5 -34.5t-101.5 33.5t-40.5 90.5q0 53 40 87.5t102 34.5q65 0 104.5 -32t39.5 -91z" />
<glyph unicode="&#xb7ec;" horiz-adv-x="850" d="M749 -110v901h-74v-336h-194v-70h194v-495h74zM538 150v68h-383v158h281v291h-362v-67h284v-155h-279v-295h459z" />
<glyph unicode="&#xb7ed;" horiz-adv-x="850" d="M753 214v578h-74v-230h-195v-67h195v-281h74zM524 276v66h-377v126h279v262h-359v-68h283v-125h-278v-261h452zM730 -156v323h-467v-69h393v-254h74z" />
<glyph unicode="&#xb7f0;" horiz-adv-x="850" d="M755 150v642h-74v-245h-195v-69h195v-328h74zM525 249v68h-376v134h279v268h-360v-67h284v-133h-278v-270h451zM767 -136v70h-400v209h-76v-279h476z" />
<glyph unicode="&#xb7f4;" horiz-adv-x="850" d="M753 287v505h-74v-203h-195v-69h195v-233h74zM524 320v67h-377v110h279v244h-359v-68h283v-108h-278v-245h452zM746 -146v72h-388v96h363v221h-449v-67h371v-88h-366v-234h469z" />
<glyph unicode="&#xb7fc;" horiz-adv-x="850" d="M761 213v579h-74v-235h-195v-68h195v-276h74zM532 275v67h-377v126h279v261h-359v-67h283v-125h-278v-262h452zM742 -139v310h-455v-310h455zM666 -70h-301v173h301v-173z" />
<glyph unicode="&#xb7fd;" horiz-adv-x="850" d="M761 266v526h-74v-218h-195v-69h195v-239h74zM532 303v67h-377v117h279v254h-359v-68h283v-118h-278v-252h452zM740 -144v370h-76v-124h-300v124h-78v-370h454zM664 -75h-300v109h300v-109z" />
<glyph unicode="&#xb7ff;" horiz-adv-x="850" d="M751 182v610h-74v-250h-195v-69h195v-291h74zM521 275v67h-376v123h279v259h-360v-67h284v-123h-279v-259h452zM772 -98l-255 203q16 46 16 86v16h-80v-8q0 -88 -64 -171.5t-174 -117.5l49 -57q69 22 127 71.5t95 112.5l236 -185z" />
<glyph unicode="&#xb800;" horiz-adv-x="850" d="M754 234v558h-75v-230h-195v-67h195v-261h75zM524 278v66h-376v124h279v261h-360v-67h284v-125h-279v-259h452zM815 -90l-176 159q9 37 10 70v56h-77v-53q0 -57 -28 -112t-73 -90l-122 121q11 33 13 78v56h-79v-53q0 -71 -46.5 -136t-116.5 -92l46 -60q100 44 153 136 l144 -142q40 16 82 55t68 93l152 -137z" />
<glyph unicode="&#xb801;" horiz-adv-x="850" d="M748 234v558h-74v-230h-195v-67h195v-261h74zM519 283v66h-377v123h279v258h-359v-68h283v-122h-278v-257h452zM729 39q0 82 -64.5 135t-156.5 53q-89 0 -155 -55.5t-66 -132.5q0 -81 64 -135t158 -54q91 0 155.5 53.5t64.5 135.5zM652 39q0 -53 -41.5 -87.5 t-102.5 -34.5t-101.5 33.5t-40.5 88.5q0 53 40 87.5t102 34.5q65 0 104.5 -32.5t39.5 -89.5z" />
<glyph unicode="&#xb807;" horiz-adv-x="850" d="M754 297v495h-74v-203h-195v-68h195v-224h74zM525 337v68h-376v101h279v235h-360v-67h284v-99h-279v-238h452zM776 95v65h-578v-65h156q-26 -14 -41.5 -42.5t-15.5 -61.5q0 -67 57 -110.5t137 -43.5q81 0 136.5 41.5t55.5 114.5q0 69 -57 102h150zM601 -5 q0 -41 -32.5 -66.5t-78.5 -25.5q-48 0 -79.5 25.5t-31.5 66.5q0 40 32 64.5t78 24.5q45 0 78.5 -24.5t33.5 -64.5zM638 214v68q-106 -5 -197 1q-41 2 -99 24l-23 -57q51 -31 114 -35q90 -5 205 -1z" />
<glyph unicode="&#xb808;" d="M815 -110v901h-74v-901h74zM630 -47v817h-74v-313h-147v-70h147v-434h74zM455 150v68h-309v158h237v291h-318v-67h242v-155h-237v-295h385z" />
<glyph unicode="&#xb809;" d="M799 211v581h-75v-581h75zM621 230v539h-74v-211h-153v-68h153v-260h74zM456 276v66h-314v126h237v262h-319v-68h242v-125h-236v-261h390zM756 -156v329h-468v-69h394v-260h74z" />
<glyph unicode="&#xb80c;" d="M799 147v645h-75v-645h75zM621 188v581h-74v-221h-153v-69h153v-291h74zM456 249v68h-314v134h237v268h-319v-67h242v-133h-236v-270h390zM791 -136v70h-401v209h-76v-279h477z" />
<glyph unicode="&#xb810;" d="M799 274v518h-75v-518h75zM621 294v475h-74v-184h-153v-68h153v-223h74zM456 317v67h-314v111h237v246h-319v-68h242v-111h-236v-245h390zM775 -146v72h-388v93h364v218h-449v-68h370v-84h-365v-231h468z" />
<glyph unicode="&#xb818;" d="M799 213v579h-75v-579h75zM621 233v536h-74v-211h-153v-68h153v-257h74zM456 275v67h-314v126h237v261h-319v-67h242v-125h-236v-262h390zM755 -139v310h-455v-310h455zM679 -70h-302v173h302v-173z" />
<glyph unicode="&#xb819;" d="M799 260v532h-75v-532h75zM621 280v489h-74v-189h-153v-69h153v-231h74zM466 310v67h-324v115h237v249h-319v-68h242v-113h-236v-250h400zM758 -144v366h-77v-117h-305v117h-77v-366h459zM681 -75h-305v112h305v-112z" />
<glyph unicode="&#xb81b;" d="M798 202v590h-75v-590h75zM620 241v528h-74v-221h-153v-68h153v-239h74zM455 269v67h-314v125h237v262h-319v-67h242v-127h-236v-260h390zM790 -94l-254 197q16 46 16 91v13h-78v-5q0 -91 -68.5 -177.5t-171.5 -111.5l49 -57q71 22 129 69.5t93 110.5l235 -180z" />
<glyph unicode="&#xb81d;" d="M804 234v558h-75v-558h75zM626 269v500h-74v-211h-153v-68h153v-221h74zM451 276v66h-314v126h237v262h-319v-68h242v-125h-236v-261h390zM763 39q0 82 -64.5 135t-156.5 53q-89 0 -155 -55.5t-66 -132.5q0 -81 64 -135t158 -54q91 0 155.5 53.5t64.5 135.5zM686 39 q0 -53 -41.5 -87.5t-102.5 -34.5t-101.5 33.5t-40.5 88.5q0 53 40 87.5t102 34.5q65 0 104.5 -32.5t39.5 -89.5z" />
</font>
</defs>
</svg>
