<?xml version="1.0" standalone="no"?>
<!DOCTYPE svg PUBLIC "-//W3C//DTD SVG 1.1//EN" "http://www.w3.org/Graphics/SVG/1.1/DTD/svg11.dtd" >
<svg xmlns="http://www.w3.org/2000/svg" xmlns:xlink="http://www.w3.org/1999/xlink" version="1.1">
<metadata></metadata>
<defs>
<font id="seoulnamsanjunglregular" horiz-adv-x="900" >
<font-face units-per-em="1000" ascent="800" descent="-200" />
<missing-glyph horiz-adv-x="330" />
<glyph unicode=" "  horiz-adv-x="330" />
<glyph unicode="&#x09;" horiz-adv-x="330" />
<glyph unicode="&#xa0;" horiz-adv-x="330" />
<glyph unicode="!" horiz-adv-x="310" d="M186 715h-64l7 -549h49zM197 -81v91h-88v-91h88z" />
<glyph unicode="&#x22;" horiz-adv-x="410" d="M308 758h-74l16 -205h41zM162 758h-73l17 -205h42z" />
<glyph unicode="#" horiz-adv-x="640" d="M589 421h-124l59 225h-48l-62 -225h-138l57 225h-47l-60 -225h-118l-10 -39h118l-31 -117h-117l-10 -39h117l-57 -225h49l59 225h138l-54 -225h48l56 225h125l11 39h-124l29 117h124zM405 382l-31 -117h-138l31 117h138z" />
<glyph unicode="$" horiz-adv-x="540" d="M482 170q0 28 -8.5 52t-18.5 40.5t-31 32.5t-33.5 24t-39 18.5t-34 12.5t-32.5 10v291q105 -17 111 -100h73q-6 54 -59.5 93t-124.5 39v76h-43v-75q-65 -4 -120 -47.5t-55 -118.5q0 -40 13 -71.5t29.5 -49t45 -32.5t45 -20t42.5 -12v-311q-105 21 -113 101h-71 q26 -129 184 -134v-88h43v88q82 3 139.5 47t57.5 134zM242 372q-56 18 -84 48.5t-28 91.5q0 64 34.5 100t77.5 39v-279zM418 163q0 -69 -41 -104t-92 -35v297q64 -28 98.5 -63.5t34.5 -94.5z" />
<glyph unicode="%" horiz-adv-x="860" d="M822 205q0 209 -148 209q-56 0 -90.5 -32.5t-46.5 -77t-12 -101.5q0 -98 35.5 -156t113.5 -58q43 0 73.5 19.5t46 53t22 68.5t6.5 75zM555 646h-46l-212 -645h46zM335 446q0 210 -149 210q-42 0 -72 -18t-46 -50t-23 -67t-7 -77q0 -213 148 -213q43 0 74 19.5t46.5 52.5 t22 68t6.5 75zM775 205q0 -88 -22.5 -134t-78.5 -46q-101 0 -101 178q0 177 101 177q59 0 80 -45.5t21 -129.5zM287 446q0 -88 -22.5 -134t-78.5 -46q-101 0 -101 178t101 178t101 -176z" />
<glyph unicode="&#x26;" horiz-adv-x="790" d="M729 -3l-122 143l99 93l-35 36l-98 -92l-198 227l67 51q83 65 83 136q1 62 -51.5 94.5t-114.5 32.5q-70 0 -115.5 -40t-43.5 -99q2 -63 95 -164q-117 -83 -150 -117q-42 -43 -52 -99.5t15 -104.5q27 -52 82.5 -82t115.5 -30q47 -1 98.5 20t84 44t75.5 59l93 -108h72z M468 591q0 -59 -69 -110l-57 -39q-10 10 -24.5 26t-39 54t-24.5 62q0 41 31.5 66.5t74.5 25.5t75.5 -24t32.5 -61zM531 142q-137 -115 -230 -115q-46 2 -86.5 28.5t-57.5 62.5q-39 78 32 155q13 12 47.5 38t63.5 46l28 20z" />
<glyph unicode="'" horiz-adv-x="320" d="M170 758h-73l17 -205h40z" />
<glyph unicode="(" horiz-adv-x="330" d="M287 -146v29q-51 28 -77 121t-29 217q-2 102 0 207q3 110 29 204t77 125v26q-41 -13 -73 -47.5t-51 -82.5t-29 -100t-12 -108q-2 -55 -2 -191q0 -344 167 -400z" />
<glyph unicode=")" horiz-adv-x="330" d="M211 254q0 136 -2 191q-2 56 -12 108t-29 100t-51 82.5t-73 47.5v-26q51 -31 77 -125t29 -204q2 -105 0 -207q-3 -124 -29 -217t-77 -121v-29q167 56 167 400z" />
<glyph unicode="*" horiz-adv-x="360" d="M339 554v34h-66l-65 -4l35 55l34 59l-32 19l-34 -57l-28 -58l-30 58l-35 57l-32 -20l34 -58l35 -55l-66 4h-66v-34h66l66 4l-35 -56l-34 -58l31 -18l36 59l30 54l28 -54l35 -60l31 18l-34 59l-35 56l64 -4h67z" />
<glyph unicode="+" horiz-adv-x="575" d="M518 344v42h-207v206h-49v-206h-207v-42h207v-223h49v223h207z" />
<glyph unicode="," horiz-adv-x="300" d="M167 84h-77l-25 -213h47z" />
<glyph unicode="-" horiz-adv-x="420" d="M369 341v49h-318v-49h318z" />
<glyph unicode="." horiz-adv-x="300" d="M168 -53v92h-90v-92h90z" />
<glyph unicode="/" horiz-adv-x="360" d="M327 779h-54l-246 -921h53z" />
<glyph unicode="0" horiz-adv-x="500" d="M462 349q-8 360 -213 360q-61 0 -104.5 -33t-65.5 -89.5t-31 -114.5t-9 -123q0 -73 10.5 -134.5t33.5 -114t65.5 -82t100.5 -29.5q51 0 90.5 23t62 58.5t37 85.5t19 96t4.5 97zM398 349q0 -315 -149 -315q-148 0 -148 315q0 60 7 113t23 100.5t46 75.5t72 28 q149 0 149 -317z" />
<glyph unicode="1" horiz-adv-x="500" d="M301 2v706h-58l-129 -83v-48l125 78v-653h62z" />
<glyph unicode="2" horiz-adv-x="500" d="M454 2v51h-319q58 57 86.5 87t77 84t78.5 101.5t46 91.5q19 49 19 108q0 83 -56 134.5t-132 51.5q-50 0 -89 -16.5t-59.5 -42t-31 -50.5t-13.5 -49h64q2 48 36 81.5t92 33.5q66 0 95.5 -43.5t29.5 -90.5q0 -65 -19 -107q-35 -83 -108.5 -175t-140.5 -158q-28 -26 -44 -38 v-54h388z" />
<glyph unicode="3" horiz-adv-x="500" d="M459 190q0 80 -46.5 127.5t-106.5 55.5q54 7 97 53t43 107q0 81 -60 129.5t-138 48.5q-85 0 -134 -40t-56 -87h59q20 86 132 86q57 0 96 -38t38 -100q0 -61 -49 -100.5t-120 -41.5v-39q30 0 59.5 -8t57.5 -25t45 -49t17 -74q0 -75 -39 -118t-111 -43q-104 0 -129 87h-67 q12 -57 61 -93.5t137 -36.5q99 0 156.5 56t57.5 143z" />
<glyph unicode="4" horiz-adv-x="500" d="M491 200v52h-116v458h-68l-276 -459v-51h285v-198h59v198h116zM316 252h-227l227 377v-377z" />
<glyph unicode="5" horiz-adv-x="500" d="M460 202q0 94 -56 153t-148 59q-37 0 -63 -9t-60 -34l11 279h268v48h-318l-18 -375h63q45 53 111 49q65 -3 107 -47.5t42 -120.5q-1 -79 -45.5 -126t-113.5 -47q-57 0 -87.5 27t-36.5 60h-69q7 -51 55.5 -90t138.5 -39q95 0 157 63t62 150z" />
<glyph unicode="6" horiz-adv-x="500" d="M467 204q0 87 -50 147t-134 60q-115 0 -174 -96q-2 22 -2 78q0 118 42 197t116 79q53 0 84.5 -27t34.5 -61h66q-5 45 -52 86.5t-127 41.5q-66 0 -112.5 -32t-69 -87t-32 -112t-9.5 -125q0 -72 8 -138q15 -102 66.5 -164t146.5 -62q95 3 146.5 66t51.5 149zM407 204 q0 -79 -39.5 -126t-98.5 -47q-67 0 -106 51.5t-39 122.5q2 73 40 117.5t101 44.5q66 0 104 -44.5t38 -118.5z" />
<glyph unicode="7" horiz-adv-x="500" d="M462 642v57h-409v-49h344l-262 -649h67z" />
<glyph unicode="8" horiz-adv-x="500" d="M466 191q0 78 -43 126t-87 55q39 10 76.5 56.5t37.5 116.5q0 74 -55 121.5t-138 47.5q-87 0 -140.5 -51t-53.5 -121q0 -124 110 -172q-48 -12 -87 -60t-39 -120q1 -97 58 -149.5t153 -51.5q93 1 150.5 56.5t57.5 145.5zM388 534q-1 -62 -37.5 -101t-90.5 -39 q-38 0 -59 10q-41 18 -59 55t-18 77q2 66 36.5 103.5t94.5 37.5q65 0 99 -37.5t34 -105.5zM402 194q-2 -79 -39 -121.5t-105 -42.5q-43 0 -74 15.5t-46.5 41.5t-22 52.5t-6.5 55.5q1 70 42 112.5t104 42.5q70 -1 108.5 -46t38.5 -110z" />
<glyph unicode="9" horiz-adv-x="500" d="M450 335q0 83 -8 147q-13 101 -62.5 164t-142.5 63q-90 -1 -146.5 -63t-56.5 -151q0 -93 51 -157t133 -64q66 0 109 32t60 74q0 -14 2 -84q-2 -266 -155 -266q-53 0 -80 27t-34 60h-68q6 -51 52.5 -89.5t130.5 -38.5q55 0 95.5 22.5t63 56t35.5 82.5t17 91.5t4 93.5z M375 494q-2 -75 -39.5 -124.5t-99.5 -50.5q-70 1 -105.5 49.5t-35.5 127.5q3 82 40 128t102 46q48 0 81 -28.5t45 -66.5t12 -81z" />
<glyph unicode=":" horiz-adv-x="265" d="M184 465v93h-90v-93h90zM184 71v93h-90v-93h90z" />
<glyph unicode=";" horiz-adv-x="265" d="M184 467v92h-90v-92h90zM184 161h-78l-13 -214h47z" />
<glyph unicode="&#x3c;" horiz-adv-x="585" d="M524 52v47l-367 212l367 212v47l-412 -232v-53z" />
<glyph unicode="=" horiz-adv-x="585" d="M524 439v48h-463v-48h463zM524 234v48h-463v-48h463z" />
<glyph unicode="&#x3e;" horiz-adv-x="585" d="M474 285v53l-412 232v-47l368 -211l-368 -213v-47z" />
<glyph unicode="?" horiz-adv-x="435" d="M404 542q0 84 -60.5 123.5t-147.5 39.5q-65 0 -152 -23v-55q81 33 149 33q63 -3 106.5 -33.5t43.5 -87.5q0 -11 -2.5 -22t-9 -23.5t-11.5 -22t-16.5 -23.5t-16.5 -20.5t-19.5 -21.5t-18 -18.5t-19.5 -18.5l-15 -15q-37 -34 -53.5 -68t-16.5 -89v-64h54v43q0 65 13.5 93.5 t52.5 63.5q1 1 21 19t30.5 28t30 32.5t29.5 40.5t19 42t9 47zM216 -81v91h-88v-91h88z" />
<glyph unicode="@" d="M857 381q-1 110 -58 188t-157 111q-136 39 -255.5 8.5t-207.5 -118.5q-92 -87 -120.5 -216t19.5 -232q47 -98 146.5 -147t233.5 -49q122 3 203.5 39.5t115.5 73.5l-13 16q-41 -32 -124 -63.5t-185 -31.5q-251 4 -330 176q-40 92 -17.5 203.5t99.5 197.5 q82 85 189.5 115.5t232.5 -6.5q187 -65 189 -267q1 -91 -39.5 -160t-96.5 -100q-64 -36 -94 -18.5t-10 77.5l133 333h-62l-29 -63q-23 49 -47.5 68t-73.5 19q-50 0 -98.5 -33.5t-83.5 -85.5q-49 -69 -65.5 -132.5t-6.5 -107t40 -72.5q35 -37 89 -35q85 2 136 78q1 -22 7 -47 q10 -38 64 -38.5t98 25.5q83 44 131 122t47 172zM592 425q0 -64 -50 -180q-31 -67 -74.5 -105.5t-88.5 -38.5q-21 0 -49 17q-37 34 -29.5 101t51.5 149q36 61 82.5 98t83.5 37q30 0 52 -25.5t22 -52.5z" />
<glyph unicode="A" horiz-adv-x="615" d="M595 2l-249 704h-81l-246 -704h60l78 224h293l77 -224h68zM433 275h-259l132 376z" />
<glyph unicode="B" horiz-adv-x="580" d="M548 195q0 47 -19 83.5t-48 55.5t-55.5 29t-48.5 12q45 6 92.5 51.5t47.5 111.5q-3 87 -64 127.5t-148 40.5h-210v-704h210q55 0 94 10q65 17 107 65.5t42 117.5zM457 533q0 -64 -49 -98t-90 -34q-18 -2 -50 -2h-114v260h125q36 0 60 -3q118 -17 118 -123zM485 197 q0 -124 -141 -139q-19 -2 -52 -2h-138v289h147q51 0 71 -6q113 -35 113 -142z" />
<glyph unicode="C" horiz-adv-x="640" d="M607 530q-2 38 -15 70q-29 56 -87 87t-132 31q-149 0 -232 -102.5t-83 -247.5q0 -69 19.5 -134t57 -120t100.5 -88.5t143 -33.5q113 0 203 42v55l-12 -9q-66 -41 -172 -40q-66 1 -117 25.5t-79.5 60t-47.5 81t-25 83.5t-6 74q0 142 72 224.5t179 82.5q95 -2 129 -46 q34 -36 39 -95h66z" />
<glyph unicode="D" horiz-adv-x="660" d="M606 356q0 124 -49.5 205.5t-132.5 116.5q-67 28 -146 28h-184v-704h158q86 0 133 15q96 27 158.5 112.5t62.5 226.5zM543 355q1 -128 -52 -199.5t-125 -93.5q-34 -10 -113 -10h-100v606h90q63 0 113 -9q79 -15 132.5 -86.5t54.5 -207.5z" />
<glyph unicode="E" horiz-adv-x="525" d="M475 2v54h-320v291h298v52h-298v257h311v50h-370v-704h379z" />
<glyph unicode="F" horiz-adv-x="490" d="M467 656v50h-371v-703h60v344h299v54h-299v255h311z" />
<glyph unicode="G" horiz-adv-x="660" d="M607 530q-4 87 -69.5 137.5t-164.5 50.5q-149 0 -232 -102.5t-83 -247.5q0 -69 19.5 -134t57 -120t100.5 -88.5t143 -33.5q46 0 86.5 6t61.5 13t44.5 16t29.5 11v324h-239v-53h178v-248q-65 -25 -142 -24q-66 1 -117 26t-79.5 60.5t-47.5 82t-25 84.5t-6 74 q0 142 72 224.5t179 82.5q68 -2 115 -38t51 -103h68z" />
<glyph unicode="H" horiz-adv-x="660" d="M567 2v704h-59v-310h-355v310h-59v-704h59v341h355v-341h59z" />
<glyph unicode="I" horiz-adv-x="250" d="M157 2v704h-62v-704h62z" />
<glyph unicode="J" horiz-adv-x="370" d="M273 151v556h-60v-544q0 -102 -94 -118q-13 -3 -33 -3q-58 5 -93 15v-56q42 -9 86 -9q105 0 149.5 47t44.5 112z" />
<glyph unicode="K" horiz-adv-x="570" d="M566 2l-353 374l312 330h-69l-302 -319v319h-58v-704h58v354l338 -354h74z" />
<glyph unicode="L" horiz-adv-x="500" d="M489 2v53h-334v651h-59v-704h393z" />
<glyph unicode="M" horiz-adv-x="830" d="M740 2v704h-96l-229 -619l-226 619h-96v-704h53v648l243 -648h55l243 648v-648h53z" />
<glyph unicode="N" horiz-adv-x="670" d="M577 2v704h-57v-620l-346 620h-81v-704h57v621l348 -621h79z" />
<glyph unicode="O" horiz-adv-x="735" d="M683 355q0 157 -82.5 260t-232.5 103q-147 0 -231 -105.5t-84 -256.5q0 -158 83.5 -262t231.5 -104q80 0 141.5 30t99 81.5t56 115.5t18.5 138zM621 358q0 -142 -66 -229.5t-187 -87.5q-118 0 -186 91.5t-68 224.5q0 134 75.5 225t178.5 91q121 -3 187 -91t66 -224z" />
<glyph unicode="P" horiz-adv-x="560" d="M529 515q0 44 -15 78t-39 55t-58 34t-68 18t-74 5h-179v-703h57v655h117q83 0 139 -32.5t56 -109.5q0 -151 -195 -151h-67v-49h68q68 -1 124 17t95 65t39 118z" />
<glyph unicode="Q" horiz-adv-x="750" d="M727 2v67q-55 -21 -150 -25l-27 2q66 48 99 130t33 181q0 157 -82.5 259t-231.5 102q-147 0 -231 -105.5t-84 -256.5q0 -157 83.5 -260.5t231.5 -103.5q48 0 85 10h274zM620 358q0 -142 -65.5 -230t-186.5 -88q-118 0 -186 92t-68 225q0 134 75 224.5t179 90.5 q121 -3 186.5 -90.5t65.5 -223.5z" />
<glyph unicode="R" horiz-adv-x="590" d="M541 2l-35 167q-18 86 -105 161q127 57 127 185q0 55 -23.5 94t-63 59t-81.5 28.5t-90 8.5h-175v-703h57v653h117q82 0 139 -32.5t57 -107.5q0 -43 -17 -74t-46.5 -47t-62 -23.5t-70.5 -7.5h-64v-48h65q7 -1 27 -0.5t27 1.5q36 -12 73.5 -60.5t50.5 -116.5l25 -137h68z " />
<glyph unicode="S" horiz-adv-x="520" d="M473 187q0 29 -8.5 53.5t-18 40t-30 33t-31 24t-37 21t-31.5 17.5l-76 36q-32 18 -49.5 29t-39.5 28.5t-31.5 37.5t-9.5 43q0 57 41 89t108 32q88 -4 168 -34v53q-106 28 -161 28q-99 0 -158.5 -44.5t-59.5 -127.5q0 -20 6.5 -38.5t14.5 -32.5t26 -30.5t28.5 -25.5 t36 -23.5t34.5 -20t37 -19.5t33 -16q34 -17 52 -27.5t44 -31t38 -47t12 -60.5q0 -69 -51 -100.5t-129 -31.5q-93 0 -179 40v-62q115 -28 168 -28q120 0 186.5 49t66.5 146z" />
<glyph unicode="T" horiz-adv-x="510" d="M500 655v49h-492v-49h213v-653h64v653h215z" />
<glyph unicode="U" horiz-adv-x="670" d="M585 258v447h-60v-444q0 -94 -47 -157t-144 -63q-52 0 -90 18.5t-58 50.5t-29 69t-9 82v444h-61v-447q0 -38 6 -72.5t23 -71.5t43.5 -63.5t71.5 -43.5t103 -17q71 0 122.5 25.5t78 67.5t38.5 85.5t12 89.5z" />
<glyph unicode="V" horiz-adv-x="570" d="M566 705h-60l-221 -637l-220 637h-63l241 -703h84z" />
<glyph unicode="W" horiz-adv-x="865" d="M824 706h-55l-121 -623l-185 623h-62l-178 -623l-127 623h-56l142 -704h75l175 624l185 -624h76z" />
<glyph unicode="X" horiz-adv-x="560" d="M542 2l-228 368l206 334h-66l-174 -279l-177 280h-65l209 -334l-230 -369h66l197 312l196 -312h66z" />
<glyph unicode="Y" horiz-adv-x="540" d="M534 705h-62l-204 -324l-198 324h-64l231 -375v-328h62v328z" />
<glyph unicode="Z" horiz-adv-x="540" d="M518 2v53h-420l394 595v56h-441v-49h375l-394 -601v-54h486z" />
<glyph unicode="[" horiz-adv-x="350" d="M315 -138v48h-111v829h111v44h-168v-921h168z" />
<glyph unicode="\" horiz-adv-x="360" d="M28 779h54l246 -921h-53z" />
<glyph unicode="]" horiz-adv-x="350" d="M204 -138v921h-168v-44h109v-828h-109v-49h168z" />
<glyph unicode="^" horiz-adv-x="408" d="M376 560l-128 199h-68l-129 -199h60l103 155l100 -155h62z" />
<glyph unicode="_" horiz-adv-x="500" d="M500 -105v30h-500v-30h500z" />
<glyph unicode="`" horiz-adv-x="300" d="M201 578l-58 156h-66l77 -156h47z" />
<glyph unicode="a" horiz-adv-x="510" d="M430 5v333q0 70 -45 113.5t-132 43.5q-81 0 -129.5 -35.5t-54.5 -85.5h68q2 36 31.5 59t80.5 23q35 0 63.5 -14.5t40.5 -34.5q18 -31 18 -75v-54q-124 6 -205 -19q-46 -14 -78 -53.5t-32 -90.5q0 -53 40.5 -87.5t90.5 -34.5q127 0 182 75v-63h61zM370 182q0 -35 -9 -58 q-17 -40 -60 -64t-80 -24q-45 0 -73.5 21.5t-28.5 67.5q0 42 33.5 71.5t76.5 38.5q56 12 141 8v-61z" />
<glyph unicode="b" horiz-adv-x="550" d="M506 240q0 65 -14 106q-17 72 -66 110t-124 38q-61 0 -103 -31.5t-59 -66.5v311h-57v-483q0 -41 8.5 -78t29 -73.5t63.5 -58.5t103 -22q99 0 159 64t60 184zM440 235q0 -91 -40.5 -147t-112.5 -56q-74 0 -108 57t-34 138q0 90 41.5 157t109.5 67q64 0 97.5 -39t41.5 -102 q5 -33 5 -75z" />
<glyph unicode="c" horiz-adv-x="510" d="M476 353q-4 73 -58 108t-134 35q-108 0 -170.5 -65.5t-62.5 -171.5q1 -121 75 -195q51 -52 148 -63.5t182 28.5v38q-41 -20 -91 -25t-85.5 1.5t-54.5 16.5q-113 63 -113 214q0 85 47 134t122 49q62 0 98 -29t34 -75h63z" />
<glyph unicode="d" horiz-adv-x="550" d="M465 2v705h-60v-308q-16 36 -55.5 65t-98.5 28q-148 -2 -190 -162q-11 -37 -11 -100q0 -105 55.5 -172t141.5 -67q37 0 67.5 10.5t48.5 27.5t27.5 30.5t14.5 27.5v-85h60zM399 272q0 -64 -8 -101q-12 -63 -47 -101t-87 -38q-71 0 -108.5 59t-37.5 136q2 52 8 83 q10 68 50 104t86 36q38 0 68 -19t45.5 -48t23 -57.5t7.5 -53.5z" />
<glyph unicode="e" horiz-adv-x="515" d="M477 279q-2 83 -36 138q-53 79 -154 79q-111 0 -174 -66t-63 -173q1 -121 77 -195q52 -52 148 -62.5t181 29.5v38q-41 -20 -91 -25t-85.5 1.5t-54.5 16.5q-105 58 -111 185h362v34h1zM410 289h-297q4 78 51 122.5t118 44.5q68 0 109 -56q22 -36 19 -111z" />
<glyph unicode="f" horiz-adv-x="360" d="M360 654v45q-33 6 -84 8q-92 3 -132 -58q-30 -43 -30 -127v-41h-89v-44h89v-435h60v435h155v44h-155v62q-1 52 16 82q28 40 90 40q50 -5 80 -11z" />
<glyph unicode="g" horiz-adv-x="550" d="M468 16v475h-63v-81q-12 36 -51.5 64.5t-101.5 28.5q-75 0 -126.5 -44t-64.5 -107q-11 -46 -11 -111q0 -105 57.5 -167t142.5 -62q67 0 106 31t49 66v-122q0 -51 -41 -88.5t-121 -37.5q-85 0 -154 31v-55q74 -22 144 -22q117 0 176 47t59 154zM403 264q0 -93 -41 -150.5 t-104 -57.5q-72 0 -107 55.5t-35 125.5q4 92 6 101q12 63 51.5 93.5t84.5 30.5q66 0 105.5 -58.5t39.5 -139.5z" />
<glyph unicode="h" horiz-adv-x="540" d="M470 2v346q0 69 -45.5 107t-104.5 38q-69 0 -114 -41.5t-66 -88.5v344h-56v-705h56v210q0 32 10 77q18 68 62 112.5t94 44.5q59 0 82.5 -36.5t23.5 -85.5v-322h58z" />
<glyph unicode="i" horiz-adv-x="225" d="M152 628v80h-81v-80h81zM142 2v479h-59v-479h59z" />
<glyph unicode="j" horiz-adv-x="250" d="M180 631v80h-82v-80h82zM169 -3v488h-60v-513q0 -111 -137 -111v-47q89 1 143 40.5t54 142.5z" />
<glyph unicode="k" horiz-adv-x="470" d="M467 2l-254 263l227 215h-72l-226 -212v439h-58v-705h56v255l251 -255h76z" />
<glyph unicode="l" horiz-adv-x="225" d="M143 2v705h-60v-705h60z" />
<glyph unicode="m" horiz-adv-x="810" d="M733 5v345q0 63 -40 103.5t-100 40.5q-65 0 -109.5 -40t-52.5 -75q-33 115 -138 115q-60 0 -100.5 -39.5t-55.5 -84.5q-1 0 -1 113h-56v-478h57v196q0 82 31 153q42 91 108 91q34 0 56.5 -15.5t32 -44t12.5 -53.5t3 -61v-266h54v196q2 43 8 75q16 74 52.5 121.5 t80.5 47.5q29 0 49 -11.5t30 -25.5t15.5 -40.5t6 -42t0.5 -44.5v-276h57z" />
<glyph unicode="n" horiz-adv-x="550" d="M468 5v346q-3 69 -42 106.5t-102 37.5q-125 0 -184 -125v113h-56v-478h56v196q4 48 9 75q20 78 62.5 124.5t94.5 43.5q31 -1 52 -12.5t31.5 -25.5t16 -41.5t6 -44.5t0.5 -49v-266h56z" />
<glyph unicode="o" horiz-adv-x="560" d="M513 244q0 114 -63.5 183t-171.5 69q-110 0 -170 -72.5t-60 -180.5q0 -115 64 -181.5t168 -66.5q108 0 170.5 68.5t62.5 180.5zM447 244q0 -90 -41 -147t-125 -57q-86 0 -127.5 56.5t-41.5 146.5q0 94 41 153t124 59q87 0 128.5 -60t41.5 -151z" />
<glyph unicode="p" horiz-adv-x="540" d="M498 243q0 120 -55.5 189t-140.5 69q-59 0 -100 -31.5t-62 -72.5v92h-57v-677h57v289q16 -44 58 -72.5t98 -28.5q94 0 148 72.5t54 170.5zM435 244q0 -86 -35.5 -142t-104.5 -56q-52 0 -87 35.5t-48 80.5t-13 93q0 92 41.5 147.5t103.5 55.5q69 0 106 -60t37 -154z" />
<glyph unicode="q" horiz-adv-x="550" d="M465 -188v677h-59v-86q-21 40 -61.5 69t-97.5 29q-86 0 -143.5 -69t-57.5 -189q0 -98 55 -170t146 -72q57 0 98.5 27.5t60.5 68.5v-285h59zM400 256q0 -48 -13.5 -94t-48.5 -83t-85 -37q-69 0 -106.5 57.5t-40.5 144.5q0 93 40.5 155t108.5 62q57 0 101 -57.5t44 -147.5z " />
<glyph unicode="r" horiz-adv-x="370" d="M356 437v58q-70 -1 -123 -36q-59 -40 -87 -88v112h-58v-478h58v197q1 50 11 88q17 71 72.5 108t126.5 39z" />
<glyph unicode="s" horiz-adv-x="410" d="M374 126q0 35 -15 61.5t-42 44t-52.5 29t-60.5 24.5t-52 21q-50 22 -50 73q0 36 32.5 55.5t74.5 19.5q69 0 132 -33v56q-63 20 -121 20q-82 0 -128 -33.5t-46 -93.5q0 -73 81 -112q22 -10 59.5 -24.5t54 -22.5t37 -21.5t28 -30t7.5 -39.5q0 -43 -38.5 -62.5t-97.5 -19.5 q-62 0 -133 37v-59q65 -24 136 -24q194 0 194 134z" />
<glyph unicode="t" horiz-adv-x="355" d="M320 435v46h-144v157l-61 -35v-122h-87v-46h87v-328q0 -115 139 -115l63 3v40q-20 -4 -48 -4q-31 0 -51 9.5t-28.5 29.5t-11 39t-2.5 50v276h144z" />
<glyph unicode="u" horiz-adv-x="565" d="M481 6v478h-58v-202q-2 -50 -9 -83q-15 -70 -55.5 -112.5t-100.5 -42.5q-117 0 -117 133v307h-57v-347q0 -58 42.5 -100t100.5 -42q152 0 195 128v-117h59z" />
<glyph unicode="v" horiz-adv-x="490" d="M472 484h-55l-162 -412l-176 412h-59l206 -479h58z" />
<glyph unicode="w" horiz-adv-x="690" d="M666 484h-52l-107 -409l-137 409h-46l-134 -405l-105 405h-54l126 -479h61l128 393l132 -393h64z" />
<glyph unicode="x" horiz-adv-x="480" d="M455 5l-182 253l163 227h-62l-132 -182l-134 182h-61l163 -227l-185 -253h60l156 207l152 -207h62z" />
<glyph unicode="y" horiz-adv-x="470" d="M449 487h-55l-153 -411l-172 411h-57l202 -483l-69 -191h55z" />
<glyph unicode="z" horiz-adv-x="460" d="M419 5v46h-316l301 382v52h-352v-45h290l-302 -387v-48h379z" />
<glyph unicode="{" horiz-adv-x="450" d="M403 -169v22q-83 24 -107 101q-10 40 -4 91t11 82t-15 82q-19 40 -40.5 62.5t-61.5 41.5q43 19 63 40t39 58q21 32 9 126t-1 135q24 79 107 102v20q-112 -13 -166 -104q-19 -31 -18 -69.5t12 -71t14.5 -74t-8.5 -76.5q-13 -36 -39.5 -53t-67.5 -27v-12q117 -40 117 -130 q0 -23 -8 -57.5t-14.5 -60.5t-5 -60.5t17.5 -64.5q25 -49 73 -75.5t93 -27.5z" />
<glyph unicode="|" horiz-adv-x="333" d="M192 -148v921h-50v-921h50z" />
<glyph unicode="}" horiz-adv-x="450" d="M320 306v12q-86 21 -107 81q-13 34 -8.5 76t15 73.5t11.5 71.5t-18 69q-54 91 -166 104v-20q83 -23 107 -102q11 -41 -1 -135t9 -126q19 -37 39 -58t63 -40q-40 -19 -61.5 -41.5t-40.5 -62.5q-18 -36 -15 -82t11 -82t-4 -91q-24 -77 -107 -101v-22q45 1 93 27.5t73 75.5 q16 30 17.5 64.5t-5 60.5t-14.5 60t-8 57q0 44 30.5 78t86.5 53z" />
<glyph unicode="~" horiz-adv-x="585" d="M528 348v51h-45v-33q0 -86 -57 -86q-14 0 -27 5t-20.5 10t-26.5 18l-108 79q-50 41 -91 40q-49 -1 -73 -34t-24 -80v-47h44v39q0 39 17.5 59t41.5 20q6 0 12.5 -1.5t10.5 -3t11 -6t10 -6t12 -8.5t12 -9l111 -82q47 -38 85 -38q32 0 55 13t32.5 33t13.5 36.5t4 30.5z" />
<glyph unicode="&#xac00;" d="M866 373v49h-173v364h-56v-901h56v488h173zM448 653h-371v-49h309q-26 -136 -123 -255t-235 -175l36 -36q63 24 127 72t120 113t94 152t43 178z" />
<glyph unicode="&#xac01;" d="M878 489v52h-165v245h-57v-582h57v285h165zM458 717h-374v-49h304q-13 -69 -56.5 -140t-121 -135t-172.5 -96l37 -41q149 54 255 180.5t128 280.5zM699 -162v323h-458v-50h403v-273h55z" />
<glyph unicode="&#xac04;" d="M878 462v50h-165v274h-57v-650h57v326h165zM458 707h-374v-49h304q-13 -69 -56.5 -140t-121 -135t-172.5 -96l37 -41q149 54 255 180.5t128 280.5zM725 -141v51h-410v245h-57v-296h467z" />
<glyph unicode="&#xac07;" d="M878 489v52h-165v245h-57v-582h57v285h165zM458 717h-374v-49h304q-20 -107 -114 -210t-236 -151l37 -41q151 54 256.5 176.5t126.5 274.5zM715 -146v50h-411v211h400v50h-458v-311h469z" />
<glyph unicode="&#xac08;" d="M869 509v50h-165v227h-57v-513h57v236h165zM448 727h-374v-49h304q-20 -105 -113.5 -204t-236.5 -147l37 -41q152 55 257 172.5t126 268.5zM711 -150v52h-401v125h379v212h-445v-49h387v-116h-382v-224h462z" />
<glyph unicode="&#xac09;" d="M890 508v50h-166v228h-57v-511h57v233h166zM468 727h-374v-49h304q-20 -105 -113.5 -204t-236.5 -147l37 -41q152 55 257 172.5t126 268.5zM726 -151v392h-273v-53h216v-339h57zM474 -151v52h-268v125h228v215h-294v-50h236v-118h-230v-224h328z" />
<glyph unicode="&#xac0a;" d="M890 508v50h-166v228h-57v-511h57v233h166zM468 727h-374v-49h304q-20 -105 -113.5 -204t-236.5 -147l37 -41q152 55 257 172.5t126 268.5zM732 -151v390h-265v-390h265zM450 -151v52h-246v123h222v215h-285v-50h225v-117h-223v-223h307zM674 -102h-151v290h151v-290z " />
<glyph unicode="&#xac10;" d="M878 493v52h-165v240h-57v-572h57v280h165zM458 717h-374v-49h304q-13 -69 -56.5 -140t-121 -135t-172.5 -96l37 -41q149 54 255 180.5t128 280.5zM698 -144v316h-446v-316h446zM641 -94h-329v217h329v-217z" />
<glyph unicode="&#xac11;" d="M878 511v50h-165v224h-57v-527h57v253h165zM458 727h-374v-49h304q-20 -105 -113.5 -204t-236.5 -147l37 -41q152 55 257 172.5t126 268.5zM704 -149v369h-59v-131h-338v131h-58v-369h455zM645 -100h-338v139h338v-139z" />
<glyph unicode="&#xac12;" d="M878 506v50h-165v229h-57v-532h57v253h165zM458 727h-374v-49h304q-20 -105 -113.5 -204t-236.5 -147l37 -41q152 55 257 172.5t126 268.5zM805 -110l-146 151q14 47 14 96v79h-60v-80q0 -75 -36.5 -143.5t-103.5 -98.5l35 -42q33 12 68.5 48t60.5 87l130 -135zM466 -149 v369h-60v-132h-191v132h-58v-369h309zM406 -100h-191v138h191v-138z" />
<glyph unicode="&#xac13;" d="M878 478v52h-165v255h-57v-614h57v307h165zM458 707h-374v-49h304q-13 -69 -56.5 -140t-121 -135t-172.5 -96l37 -41q149 54 255 180.5t128 280.5zM736 -110q-16 13 -42.5 34t-82.5 65.5t-93 74.5l-37 29q18 47 18 93v48h-61v-40q0 -93 -64 -177t-174 -123l36 -41 q71 24 129 75t93 115l241 -190z" />
<glyph unicode="&#xac14;" d="M878 489v52h-165v244h-57v-553h57v257h165zM458 717h-374v-49h304q-13 -69 -56.5 -140t-121 -135t-172.5 -96l37 -41q149 54 255 180.5t128 280.5zM802 -106l-177 163q10 37 11 75v57h-59v-54q0 -62 -32.5 -124.5t-82.5 -93.5l-134 133q10 36 13 83v56h-58v-54 q0 -74 -44 -140t-118 -98l34 -45q97 46 151 144l151 -149q39 16 80 56t69 99l161 -146z" />
<glyph unicode="&#xac15;" d="M878 479v52h-165v255h-57v-572h57v265h165zM458 717h-374v-49h304q-13 -69 -56.5 -140t-121 -135t-172.5 -96l37 -41q149 54 255 180.5t128 280.5zM701 22q0 83 -62 134.5t-152 51.5q-89 0 -151.5 -53.5t-62.5 -132.5q0 -84 63 -135t152 -51q90 0 151.5 51t61.5 135z M644 22q0 -59 -46 -97.5t-111 -38.5q-63 0 -109 39.5t-46 96.5q0 58 45 97t110 39q67 0 112 -38t45 -98z" />
<glyph unicode="&#xac16;" d="M877 480v53h-164v253h-56v-542h56v236h164zM458 717h-374v-49h304q-13 -69 -56.5 -140t-121 -135t-172.5 -96l37 -41q149 54 255 180.5t128 280.5zM763 -103q-14 8 -38 21t-74 40.5t-83 45.5l-34 18q107 92 137 181h-426v-48h331q-67 -90 -171.5 -159t-214.5 -96l33 -44 q130 31 265 130l242 -132z" />
<glyph unicode="&#xac17;" d="M878 501v50h-165v235h-57v-512h57v227h165zM457 727h-374v-49h304q-20 -104 -113 -198t-237 -143l37 -41q154 55 258 168t125 263zM608 235v49q-120 -7 -190 2q-48 5 -94 21l-17 -42q42 -24 106 -30q84 -7 195 0zM770 -108l-213 105q87 74 123 154h-431v-46h332 q-56 -74 -156.5 -131.5t-224.5 -81.5l31 -45q154 29 279 115l224 -112z" />
<glyph unicode="&#xac19;" d="M879 508v50h-165v228h-57v-522h57v244h165zM458 727h-374v-49h304q-20 -105 -113.5 -204t-236.5 -147l37 -41q152 55 257 172.5t126 268.5zM706 -151v49h-402v118h379v50h-379v108h390v49h-447v-374h459z" />
<glyph unicode="&#xac1a;" d="M878 493v52h-165v240h-57v-545h57v253h165zM458 717h-374v-49h304q-20 -105 -113.5 -204t-236.5 -147l37 -41q152 55 257 172.5t126 268.5zM716 -141v50h-103v232h101v50h-504v-50h98v-232h-100v-50h508zM555 -91h-190v232h190v-232z" />
<glyph unicode="&#xac1b;" d="M878 511v50h-165v225h-57v-497h57v222h165zM457 727h-374v-49h304q-20 -104 -113 -198t-237 -143l37 -41q154 55 258 168t125 263zM613 243v49q-132 -8 -200 0q-45 4 -95 22l-17 -41q46 -24 107 -30q87 -7 205 0zM754 107v46h-566v-46h191q-45 -17 -72.5 -49.5 t-26.5 -76.5q1 -65 57 -106.5t135 -41.5q76 0 133 41t57 110q0 44 -27.5 75t-73.5 48h193zM599 -15q0 -45 -39.5 -74.5t-88.5 -29.5q-50 0 -89 29.5t-39 74.5q0 44 38 70.5t89 26.5t90 -26.5t39 -70.5z" />
<glyph unicode="&#xac1c;" d="M813 -115v901h-56v-364h-171v343h-56v-815h56v422h171v-487h56zM410 654h-336v-50h268q-14 -126 -102.5 -250.5t-212.5 -185.5l43 -36q152 86 238.5 223.5t101.5 298.5z" />
<glyph unicode="&#xac1d;" d="M797 204v582h-55v-247h-172v225h-58v-538h58v263h172v-285h55zM395 717h-330v-49h263q-22 -114 -97 -210t-206 -151l38 -39q141 60 228.5 180t103.5 269zM754 -162v323h-460v-50h404v-273h56z" />
<glyph unicode="&#xac20;" d="M797 130v656h-55v-277h-172v255h-58v-592h58v288h172v-330h55zM395 707h-330v-49h263q-22 -116 -98 -216.5t-205 -154.5l38 -39q140 59 228 183t104 276zM789 -141v51h-411v245h-56v-296h467z" />
<glyph unicode="&#xac24;" d="M797 282v504h-55v-237h-172v215h-58v-471h58v207h172v-218h55zM395 727h-330v-49h263q-22 -113 -97 -209.5t-206 -151.5l38 -39q141 60 228.5 180t103.5 269zM774 -151v52h-399v125h379v213h-446v-50h386v-116h-380v-224h460z" />
<glyph unicode="&#xac2c;" d="M797 235v551h-55v-247h-172v225h-58v-518h58v243h172v-254h55zM395 717h-330v-49h263q-22 -114 -97 -210t-206 -151l38 -39q141 60 228.5 180t103.5 269zM763 -144v326h-456v-326h456zM705 -94h-340v227h340v-227z" />
<glyph unicode="&#xac2d;" d="M797 259v527h-55v-235h-172v213h-58v-484h58v222h172v-243h55zM395 727h-330v-49h263q-22 -113 -97 -209.5t-206 -151.5l38 -39q141 60 228.5 180t103.5 269zM755 -149v369h-57v-131h-338v131h-60v-369h455zM698 -100h-338v139h338v-139z" />
<glyph unicode="&#xac2f;" d="M797 204v582h-55v-257h-172v235h-58v-517h58v231h172v-274h55zM394 707h-330v-49h264q-22 -114 -97 -210.5t-206 -150.5l38 -39q140 60 228 180t103 269zM782 -110q-16 13 -42.5 34t-82.5 65.5t-93 74.5l-38 29q18 47 18 93v17h-60v-9q0 -93 -64 -177t-174 -123l36 -41 q70 24 128 75t93 115l242 -190z" />
<glyph unicode="&#xac30;" d="M797 226v560h-55v-257h-172v235h-58v-518h58v233h172v-253h55zM394 717h-330v-49h264q-22 -114 -97 -210t-206 -151l38 -39q140 60 228 180t103 269zM833 -106l-179 164q11 40 12 74l-2 56l-57 1v-54q0 -65 -28.5 -124t-85.5 -96l-134 135q11 44 14 83v56h-60v-54 q0 -76 -43 -143t-118 -96l34 -44q94 44 151 144l151 -149q93 42 148 155l162 -146z" />
<glyph unicode="&#xac31;" d="M797 205v581h-55v-247h-172v225h-58v-510h58v235h172v-284h55zM395 717h-330v-49h263q-22 -114 -97 -210t-206 -151l38 -39q141 60 228.5 180t103.5 269zM747 22q0 83 -62 134.5t-152 51.5q-89 0 -151.5 -53.5t-62.5 -132.5q0 -84 63 -135t152 -51q90 0 151.5 51 t61.5 135zM690 22q0 -59 -46 -97.5t-111 -38.5q-63 0 -109 39.5t-46 96.5q0 58 45 97t110 39q67 0 112 -38t45 -98z" />
<glyph unicode="&#xac38;" d="M861 225v50h-173v196h173v50h-173v265h-56v-901h56v340h173zM448 653h-371v-49h309q-26 -136 -123 -255t-235 -175l36 -36q63 24 127 72t120 113t94 152t43 178z" />
<glyph unicode="&#xac39;" d="M872 368v49h-170v157h170v49h-170v163h-55v-580h55v162h170zM453 717h-374v-49h304q-13 -69 -56.5 -140t-121 -135t-172.5 -96l37 -41q149 54 255 180.5t128 280.5zM694 -162v323h-458v-50h403v-273h55z" />
<glyph unicode="&#xac3c;" d="M865 348v49h-170v156h170v49h-170v184h-55v-649h55v211h170zM446 707h-374v-49h304q-13 -69 -56.5 -140t-121 -135t-172.5 -96l37 -41q149 54 255 180.5t128 280.5zM711 -141v51h-410v245h-57v-296h467z" />
<glyph unicode="&#xac40;" d="M873 404v49h-170v131h170v51h-170v151h-55v-513h55v131h170zM453 727h-374v-49h304q-20 -105 -113.5 -204t-236.5 -147l37 -41q152 55 257 172.5t126 268.5zM712 -151v52h-399v121h377v209h-445v-49h387v-112h-382v-221h462z" />
<glyph unicode="&#xac4b;" d="M877 348v49h-170v157h170v49h-170v183h-55v-613h55v175h170zM458 707h-374v-49h304q-13 -69 -56.5 -140t-121 -135t-172.5 -96l37 -41q149 54 255 180.5t128 280.5zM736 -110l-255 204q17 49 17 92v48h-60v-40q0 -93 -64 -177t-174 -123l36 -41q71 24 129 75.5t93 115.5 l241 -191z" />
<glyph unicode="&#xac4d;" d="M877 369v49h-170v156h170v50h-170v162h-55v-578h55v161h170zM458 717h-374v-49h304q-13 -69 -56.5 -140t-121 -135t-172.5 -96l37 -41q149 54 255 180.5t128 280.5zM691 22q0 83 -62 134.5t-152 51.5q-89 0 -151.5 -53.5t-62.5 -132.5q0 -84 63 -135t152 -51 q90 0 151.5 51t61.5 135zM634 22q0 -59 -46 -97.5t-111 -38.5q-63 0 -109 39.5t-46 96.5q0 58 45 97t110 39q67 0 112 -38t45 -98z" />
<glyph unicode="&#xac54;" d="M818 -115v901h-56v-244h-176v223h-56v-815h56v296h176v-361h56zM416 654h-336v-50h268q-14 -126 -102.5 -250.5t-212.5 -185.5l43 -36q152 86 238.5 223.5t101.5 298.5zM762 296h-176v194h176v-194z" />
<glyph unicode="&#xac58;" d="M808 130v656h-55v-185h-173v163h-58v-592h58v176h173v-218h55zM415 707h-330v-49h263q-22 -116 -98 -216.5t-205 -154.5l38 -39q140 59 228 183t104 276zM799 -141v51h-421v245h-56v-296h477zM753 398h-173v154h173v-154z" />
<glyph unicode="&#xac5c;" d="M808 282v504h-55v-151h-173v129h-58v-471h58v113h173v-124h55zM415 727h-330v-49h263q-22 -113 -97 -209.5t-206 -151.5l38 -39q141 60 228.5 180t103.5 269zM784 -151v52h-409v125h383v213h-450v-50h391v-116h-385v-224h470zM753 455h-173v129h173v-129z" />
<glyph unicode="&#xac70;" horiz-adv-x="850" d="M733 -115v901h-56v-363h-220v-50h220v-488h56zM459 653h-372v-49h309q-25 -135 -121.5 -254.5t-235.5 -175.5l36 -36q63 24 126.5 72t120 113t94.5 152t43 178z" />
<glyph unicode="&#xac71;" horiz-adv-x="850" d="M736 204v582h-56v-271h-210v-49h210v-262h56zM458 717h-374v-49h304q-13 -69 -56.5 -140t-121 -135t-172.5 -96l37 -41q152 54 256 177.5t127 283.5zM722 -162v323h-458v-50h403v-273h55z" />
<glyph unicode="&#xac74;" horiz-adv-x="850" d="M736 140v646h-56v-292h-210v-51h210v-303h56zM458 707h-374v-49h304q-11 -70 -54.5 -143.5t-122 -139.5t-173.5 -98l37 -41q156 56 260 185t123 286zM748 -141v51h-410v245h-59v-296h469z" />
<glyph unicode="&#xac77;" horiz-adv-x="850" d="M736 234v552h-56v-271h-210v-49h210v-232h56zM458 717h-374v-49h304q-20 -107 -114 -210t-236 -151l37 -41q151 54 256.5 176.5t126.5 274.5zM729 -146v50h-411v232h400v49h-456v-331h467z" />
<glyph unicode="&#xac78;" horiz-adv-x="850" d="M736 280v506h-56v-238h-210v-49h210v-219h56zM458 727h-374v-49h304q-20 -105 -113.5 -204t-236.5 -147l37 -41q152 55 257 172.5t126 268.5zM739 -151v52h-398v125h377v213h-445v-50h386v-116h-381v-224h461z" />
<glyph unicode="&#xac7a;" horiz-adv-x="850" d="M726 274v512h-56v-238h-210v-49h210v-225h56zM448 727h-374v-49h304q-20 -104 -113 -198t-237 -143l37 -41q154 55 258 168t125 263zM726 -151v390h-265v-390h265zM444 -151v52h-241v123h217v215h-280v-50h220v-117h-218v-223h302zM668 -102h-151v290h151v-290z" />
<glyph unicode="&#xac80;" horiz-adv-x="850" d="M726 221v565h-56v-271h-210v-49h210v-245h56zM448 717h-374v-49h304q-13 -69 -56.5 -140t-121 -135t-172.5 -96l37 -41q152 54 256 177.5t127 283.5zM706 -144v316h-446v-316h446zM648 -94h-330v217h330v-217z" />
<glyph unicode="&#xac81;" horiz-adv-x="850" d="M726 258v528h-56v-248h-210v-51h210v-229h56zM448 727h-374v-49h304q-20 -105 -113.5 -204t-236.5 -147l37 -41q152 55 257 172.5t126 268.5zM705 -149v369h-58v-131h-329v131h-58v-369h445zM647 -100h-329v139h329v-139z" />
<glyph unicode="&#xac83;" horiz-adv-x="850" d="M726 171v614h-56v-280h-210v-49h210v-285h56zM448 707h-374v-49h304q-13 -69 -56.5 -140t-121 -135t-172.5 -96l37 -41q149 54 255 180.5t128 280.5zM737 -110q-16 13 -42.5 34t-82.5 65.5t-94 74.5l-37 29q18 47 18 93v48h-60v-40q0 -93 -64 -177t-174 -123l36 -41 q70 24 128 75t93 115l242 -190z" />
<glyph unicode="&#xac84;" horiz-adv-x="850" d="M726 227v559h-56v-271h-210v-49h210v-239h56zM448 717h-374v-49h304q-20 -107 -114 -210t-236 -151l37 -41q151 54 256.5 176.5t126.5 274.5zM789 -106l-177 163q10 37 11 75v57h-59v-54q0 -62 -32.5 -124.5t-82.5 -93.5l-134 133q10 36 13 83v56h-58v-54q0 -74 -44 -140 t-118 -98l34 -45q97 46 151 144l151 -149q39 16 80 56t69 99l161 -146z" />
<glyph unicode="&#xac85;" horiz-adv-x="850" d="M726 208v578h-56v-271h-210v-49h210v-258h56zM448 717h-374v-49h304q-20 -107 -114 -210t-236 -151l37 -41q151 54 256.5 176.5t126.5 274.5zM695 22q0 83 -62 134.5t-152 51.5q-89 0 -151.5 -53.5t-62.5 -132.5q0 -84 63 -135t152 -51q90 0 151.5 51t61.5 135zM638 22 q0 -59 -46 -97.5t-111 -38.5q-63 0 -109 39.5t-46 96.5q0 58 45 97t110 39q67 0 112 -38t45 -98z" />
<glyph unicode="&#xac86;" horiz-adv-x="850" d="M726 239v547h-56v-271h-210v-49h210v-227h56zM448 717h-374v-49h304q-20 -107 -114 -210t-236 -151l37 -41q151 54 256.5 176.5t126.5 274.5zM763 -103q-14 8 -38 21t-74 40.5t-83 45.5l-33 18q108 95 137 181h-426v-48h331q-67 -90 -171.5 -159.5t-215.5 -96.5l33 -43 q130 31 266 130l236 -132z" />
<glyph unicode="&#xac89;" horiz-adv-x="850" d="M726 260v526h-56v-248h-210v-51h210v-227h56zM448 727h-374v-49h304q-20 -105 -113.5 -204t-236.5 -147l37 -41q152 55 257 172.5t126 268.5zM713 -151v49h-403v114h386v50h-386v108h397v49h-452v-370h458z" />
<glyph unicode="&#xac8a;" horiz-adv-x="850" d="M726 230v556h-56v-271h-210v-49h210v-236h56zM448 717h-374v-49h304q-20 -107 -114 -210t-236 -151l37 -41q151 54 256.5 176.5t126.5 274.5zM718 -141v50h-103v230h101v50h-503v-50h98v-230h-100v-50h507zM558 -91h-190v230h190v-230z" />
<glyph unicode="&#xac8b;" horiz-adv-x="850" d="M726 291v495h-56v-238h-210v-49h210v-208h56zM448 727h-374v-49h304q-20 -104 -113 -198t-237 -143l37 -41q154 55 258 168t125 263zM613 237v49q-132 -8 -200 0q-45 4 -95 22l-17 -47q32 -17 107 -24q87 -7 205 0zM754 107v46h-566v-46h191q-45 -17 -72.5 -49.5 t-26.5 -76.5q1 -65 57 -106.5t135 -41.5q76 0 133 41t57 110q0 44 -27.5 75t-73.5 48h193zM599 -15q0 -45 -39.5 -74.5t-88.5 -29.5q-50 0 -89 29.5t-39 74.5q0 44 38 70.5t89 26.5t90 -26.5t39 -70.5z" />
<glyph unicode="&#xac8c;" d="M818 -115v901h-56v-901h56zM622 -50v815h-56v-352h-196v-50h196v-413h56zM414 654h-336v-50h268q-14 -126 -102.5 -250.5t-212.5 -185.5l43 -36q152 86 238.5 223.5t101.5 298.5z" />
<glyph unicode="&#xac90;" d="M807 130v656h-55v-656h55zM617 172v592h-57v-266h-184v-49h184v-277h57zM405 707h-330v-49h263q-22 -116 -98 -216.5t-205 -154.5l38 -39q140 59 228 183t104 276zM799 -141v51h-411v245h-56v-296h467z" />
<glyph unicode="&#xac94;" d="M807 282v504h-55v-504h55zM617 293v471h-57v-220h-184v-51h184v-200h57zM405 727h-330v-49h263q-22 -113 -97 -209.5t-206 -151.5l38 -39q141 60 228.5 180t103.5 269zM784 -151v52h-399v125h379v213h-446v-50h386v-116h-380v-224h460z" />
<glyph unicode="&#xac9c;" d="M807 245v541h-55v-541h55zM617 256v508h-57v-248h-184v-49h184v-211h57zM405 717h-330v-49h263q-22 -114 -97 -210t-206 -151l38 -39q141 60 228.5 180t103.5 269zM773 -144v336h-450v-336h450zM715 -94h-334v237h334v-237z" />
<glyph unicode="&#xac9d;" d="M807 259v527h-55v-527h55zM617 280v484h-57v-225h-184v-51h184v-208h57zM405 727h-330v-49h263q-22 -113 -97 -209.5t-206 -151.5l38 -39q141 60 228.5 180t103.5 269zM759 -149v369h-57v-131h-332v131h-60v-369h449zM702 -100h-332v139h332v-139z" />
<glyph unicode="&#xac9f;" d="M807 194v592h-55v-592h55zM617 246v518h-57v-258h-184v-49h184v-211h57zM404 707h-330v-49h264q-22 -114 -97 -210.5t-206 -150.5l38 -39q140 60 228 180t103 269zM792 -110l-256 202q18 48 18 94v27h-60v-19q0 -93 -64 -177t-174 -123l36 -41q71 24 128.5 74.5 t92.5 114.5l61 -47q60 -47 120 -95l61 -47z" />
<glyph unicode="&#xaca0;" d="M807 227v559h-55v-559h55zM617 246v518h-57v-248h-184v-49h184v-221h57zM405 717h-331v-49h264q-22 -114 -97 -210t-206 -151l38 -39q140 60 228.5 180.5t103.5 268.5zM843 -106l-179 164q11 40 12 74v57h-59v-54q0 -65 -28.5 -124t-85.5 -96l-129 135q11 44 14 83v56 h-60v-54q0 -75 -45.5 -142.5t-121.5 -96.5l35 -44q101 47 156 144l146 -149q95 43 149 154l161 -145z" />
<glyph unicode="&#xaca1;" d="M807 205v581h-55v-581h55zM617 251v513h-57v-248h-184v-49h184v-216h57zM405 717h-330v-49h263q-22 -114 -97 -210t-206 -151l38 -39q141 60 228.5 180t103.5 269zM764 22q0 83 -62 134.5t-152 51.5q-89 0 -151.5 -53.5t-62.5 -132.5q0 -84 63 -135t152 -51 q90 0 151.5 51t61.5 135zM707 22q0 -59 -46 -97.5t-111 -38.5q-63 0 -109 39.5t-46 96.5q0 58 45 97.5t110 39.5q66 0 111.5 -38.5t45.5 -98.5z" />
<glyph unicode="&#xaca8;" horiz-adv-x="850" d="M739 -115v901h-57v-272h-210v-49h210v-170h-210v-49h210v-361h57zM454 653h-372v-49h309q-25 -135 -121.5 -254.5t-235.5 -175.5l36 -36q63 24 126.5 72t120 113t94.5 152t43 178z" />
<glyph unicode="&#xaca9;" horiz-adv-x="850" d="M740 206v580h-55v-193h-208v-49h208v-147h-208v-49h208v-142h55zM458 717h-374v-49h304q-13 -69 -56.5 -140t-121 -135t-172.5 -96l37 -41q152 54 256 177.5t127 283.5zM722 -162v323h-458v-50h403v-273h55z" />
<glyph unicode="&#xacaa;" horiz-adv-x="850" d="M740 218v568h-55v-193h-208v-49h208v-135h-208v-50h208v-141h55zM458 717h-374v-49h304q-13 -69 -56.5 -140t-121 -135t-172.5 -96l37 -41q152 54 256 177.5t127 283.5zM735 -162v333h-252v-50h196v-283h56zM458 -162v333h-279v-50h222v-283h57z" />
<glyph unicode="&#xacac;" horiz-adv-x="850" d="M739 137v649h-55v-204h-208v-51h208v-145h-208v-51h208v-198h55zM458 707h-374v-49h304q-13 -69 -56.5 -140t-121 -135t-172.5 -96l37 -41q152 54 256 177.5t127 283.5zM748 -141v51h-410v245h-59v-296h469z" />
<glyph unicode="&#xacaf;" horiz-adv-x="850" d="M740 206v580h-55v-193h-208v-49h208v-147h-208v-49h208v-142h55zM458 717h-374v-49h304q-13 -69 -56.5 -140t-121 -135t-172.5 -96l37 -41q152 54 256 177.5t127 283.5zM729 -146v50h-411v212h400v50l-456 -1v-311h467z" />
<glyph unicode="&#xacb0;" horiz-adv-x="850" d="M740 284v502h-55v-171h-208v-50h208v-125h-208v-49h208v-107h55zM458 727h-374v-49h304q-20 -105 -113.5 -204t-236.5 -147l37 -41q155 55 257.5 169.5t125.5 271.5zM742 -151v52h-403v125h377v213h-445v-50h386v-116h-381v-224h466z" />
<glyph unicode="&#xacb8;" horiz-adv-x="850" d="M740 226v560h-55v-193h-208v-49h208v-147h-208v-49h208v-122h55zM458 717h-374v-49h304q-20 -107 -114 -210t-236 -151l37 -41q154 54 257 173.5t126 277.5zM723 -144v336h-446v-336h446zM666 -94h-329v237h329v-237z" />
<glyph unicode="&#xacb9;" horiz-adv-x="850" d="M740 264v522h-55v-171h-208v-50h208v-125h-208v-49h208v-127h55zM458 727h-374v-49h304q-20 -105 -113.5 -204t-236.5 -147l37 -41q155 55 257.5 169.5t125.5 271.5zM715 -149v369h-58v-131h-332v131h-58v-369h448zM657 -100h-332v139h332v-139z" />
<glyph unicode="&#xacbb;" horiz-adv-x="850" d="M740 173v613h-55v-204h-208v-49h208v-136h-208v-49h208v-175h55zM458 707h-374v-49h304q-13 -69 -56.5 -140t-121 -135t-172.5 -96l37 -41q149 54 255 180.5t128 280.5zM751 -110q-16 13 -42.5 34t-82.5 65.5t-94 74.5l-37 29q18 47 18 93v38h-60v-30q0 -93 -64 -177 t-174 -123l36 -41q70 24 128 75t93 115l242 -190z" />
<glyph unicode="&#xacbc;" horiz-adv-x="850" d="M740 218v568h-55v-193h-208v-49h208v-135h-208v-50h208v-141h55zM458 717h-374v-49h304q-20 -107 -114 -210t-236 -151l37 -41q151 54 256.5 176.5t126.5 274.5zM801 -106l-179 164q11 40 12 74v57h-59v-54q0 -65 -28.5 -124t-85.5 -96l-134 135q11 44 14 83v56h-60v-54 q0 -76 -43 -143t-118 -96l34 -44q94 44 151 144l151 -149q93 42 148 155l162 -146z" />
<glyph unicode="&#xacbd;" horiz-adv-x="850" d="M740 199v587h-55v-193h-208v-49h208v-144h-208v-49h208v-152h55zM458 717h-374v-49h304q-20 -107 -114 -210t-236 -151l37 -41q151 54 256.5 176.5t126.5 274.5zM717 22q0 83 -62 134.5t-152 51.5q-89 0 -151.5 -53.5t-62.5 -132.5q0 -84 63 -135t152 -51q90 0 151.5 51 t61.5 135zM660 22q0 -59 -46 -97.5t-111 -38.5q-63 0 -109 39.5t-46 96.5q0 58 45 97t110 39q67 0 112 -38t45 -98z" />
<glyph unicode="&#xacc1;" horiz-adv-x="850" d="M740 249v537h-55v-173h-208v-49h208v-134h-208v-51h208v-130h55zM453 727h-365v-49h294q-19 -106 -108.5 -204.5t-231.5 -146.5l37 -41q149 54 250.5 171.5t123.5 269.5zM734 -151v49h-402v114h382v50h-382v108h393v49h-450v-370h459z" />
<glyph unicode="&#xacc4;" d="M823 -115v901h-56v-901h56zM622 -50v815h-57v-274h-186q28 80 35 163h-336v-50h268q-14 -126 -102.5 -250.5t-212.5 -185.5l43 -36q214 122 299 344v-34h192v-161h-195v-51h195v-280h57z" />
<glyph unicode="&#xacc8;" d="M803 130v656h-56v-656h56zM613 172v592h-57v-190h-185q23 65 30 133h-330v-49h263q-22 -116 -98 -216.5t-205 -154.5l38 -39q104 44 180.5 125.5t116.5 186.5v-36h190v-137h-190v-50h190v-165h57zM789 -141v51h-411v245h-56v-296h467z" />
<glyph unicode="&#xaccc;" d="M803 280v506h-56v-506h56zM613 288v476h-57v-148h-178q17 56 23 111h-330v-49h263q-22 -113 -97 -209.5t-206 -151.5l38 -39q104 44 180.5 123.5t116.5 181.5v-16h190v-122h-190v-49h190v-108h57zM780 -151v52h-399v125h379v213h-446v-50h386v-116h-380v-224h460z" />
<glyph unicode="&#xacd5;" d="M803 264v522h-56v-522h56zM613 288v476h-57v-148h-178q17 56 23 111h-330v-49h263q-22 -113 -97 -209.5t-206 -151.5l38 -39q104 44 180.5 123.5t116.5 181.5v-16h190v-122h-190v-49h190v-108h57zM768 -149v369h-59v-131h-339v131h-57v-369h455zM709 -100h-339v139h339 v-139z" />
<glyph unicode="&#xacd7;" d="M803 197v589h-56v-589h56zM613 246v518h-57v-180h-180v-50h180v-142h-180v-50h180v-96h57zM401 717h-330v-49h263q-14 -75 -48.5 -143.5t-100.5 -134.5t-154 -103l38 -39q138 59 227 188t105 281zM782 -110l-255 204q17 49 17 92v27h-60v-19q0 -93 -64 -177t-174 -123 l36 -41q71 24 129 75.5t93 115.5l241 -191z" />
<glyph unicode="&#xace0;" d="M690 476v202h-490v-49h434v-142q0 -178 -48 -295h59q45 108 45 284zM866 3v50h-448v334h-58v-334h-327v-50h833z" />
<glyph unicode="&#xace1;" d="M675 747h-463v-51h403q0 -183 -25 -287h58q25 113 27 338zM867 280v49h-442v198h-59v-198h-333v-49h834zM673 -162v322h-460v-50h403v-272h57z" />
<glyph unicode="&#xace4;" d="M675 742h-463v-51h403q0 -192 -25 -298h58q25 115 27 349zM867 255v48h-443v218h-59v-218h-332v-48h834zM698 -140v51h-417v232h-56v-283h473z" />
<glyph unicode="&#xace7;" d="M675 747h-463v-51h403q0 -180 -25 -284h58q25 113 27 335zM867 284v48h-442v198h-59v-198h-333v-48h834zM690 -146v50h-410v212h400v49h-459v-311h469z" />
<glyph unicode="&#xace8;" d="M675 758h-463v-49h403q0 -165 -25 -265h58q25 110 27 314zM867 318v50h-442v194h-59v-194h-333v-50h834zM697 -151v51h-407v116h382v211h-449v-49h388v-115h-380v-214h466z" />
<glyph unicode="&#xacea;" d="M679 758h-464v-49h403q0 -165 -25 -265h58q26 105 28 314zM867 318v50h-439v194h-58v-194h-337v-50h834zM739 -151v367h-263v-367h263zM460 -151v52h-243v114h208v206h-270v-48h211v-111h-209v-213h303zM680 -102h-147v269h147v-269z" />
<glyph unicode="&#xacec;" d="M681 758h-464v-49h404q0 -161 -26 -265h58q26 105 28 314zM867 318v50h-437v194h-58v-194h-339v-50h834zM800 -110l-146 151q14 47 14 96v89h-60v-90q0 -72 -34 -139t-97 -99v3h-250v114h220v206h-282v-48h223v-111h-221v-213h310v34l26 -31q33 12 68.5 48t60.5 87 l130 -135z" />
<glyph unicode="&#xacef;" d="M680 758h-464v-49h404q0 -153 -26 -257h58q26 105 28 306zM867 326v50h-438v194h-58v-194h-338v-50h834zM721 175v50q-75 -7 -129 0q-42 4 -93 20l-17 -41q57 -25 106 -29q47 -4 133 0zM806 59v48h-368v-48h118q-39 -12 -62.5 -39t-24.5 -68q-1 -55 41.5 -88t104.5 -33 q66 0 109 30.5t43 89.5q0 41 -25.5 68.5t-67.5 39.5h132zM445 -151v52h-240v114h209v206h-270v-48h212v-111h-210v-213h299zM707 -51q0 -35 -26.5 -54.5t-65.5 -18.5q-38 1 -62.5 21.5t-24.5 56.5q0 35 26 54.5t64 18.5t63.5 -21t25.5 -57z" />
<glyph unicode="&#xacf0;" d="M675 747h-463v-51h403q0 -180 -25 -284h58q25 113 27 335zM867 289v50h-442v196h-59v-196h-333v-50h834zM683 -144v317h-458v-317h458zM624 -94h-340v218h340v-218z" />
<glyph unicode="&#xacf1;" d="M678 758h-464v-49h403q0 -170 -25 -271h58q26 107 28 320zM867 307v48h-440v196h-58v-196h-336v-48h834zM678 -149v369h-59v-131h-339v131h-58v-369h456zM619 -100h-339v139h339v-139z" />
<glyph unicode="&#xacf3;" d="M675 747h-463v-51h403q0 -183 -25 -287h58q25 113 27 338zM867 289v50h-442v204h-59v-204h-333v-50h834zM711 -110q-16 13 -42.5 34t-82.5 65.5t-93 74.5l-37 29q18 47 18 93v28h-61v-20q0 -93 -64 -177t-174 -123l36 -41q71 24 129 75t93 115l241 -190z" />
<glyph unicode="&#xacf5;" d="M681 747h-464v-51h404q0 -179 -26 -287h58q26 108 28 338zM867 287v48h-437v197h-58v-197h-339v-48h834zM665 17q0 77 -64 128t-154 51q-87 0 -151.5 -51t-64.5 -128q0 -78 64.5 -129t151.5 -51q88 0 153 51t65 129zM607 17q0 -57 -48.5 -93.5t-111.5 -36.5 q-61 0 -110 37t-49 93q0 59 48 95t111 36q62 0 111 -37t49 -94z" />
<glyph unicode="&#xacf6;" d="M675 747h-463v-51h403q0 -173 -25 -277h58q25 114 27 328zM867 298v47h-442v199h-59v-199h-333v-47h834zM750 -103l-228 120q106 88 136 176h-426v-48h331q-65 -88 -168.5 -152t-217.5 -92l33 -45q134 32 265 126l242 -128z" />
<glyph unicode="&#xacfc;" horiz-adv-x="920" d="M916 373v49h-172v364h-57v-901h57v488h172zM505 672h-408v-49h345q0 -215 -35 -324h60q38 139 38 373zM649 147v47q-72 -13 -181.5 -22.5t-190.5 -8.5v257h-57v-257h-202v-49h196q255 0 435 33z" />
<glyph unicode="&#xacfd;" horiz-adv-x="920" d="M895 486v53h-162v246h-57v-579h57v280h162zM488 717h-386v-49h326q-3 -185 -27 -268h55q32 113 32 317zM644 295v49q-142 -31 -377 -31v208h-57v-208h-193v-49h187q304 0 440 31zM721 -162v322h-459v-50h403v-272h56z" />
<glyph unicode="&#xad00;" horiz-adv-x="920" d="M899 462v50h-166v274h-57v-671h57v347h166zM488 707h-386v-49h326q-3 -175 -31 -273h55q36 127 36 322zM644 270v49q-142 -31 -377 -31v208h-57v-208h-193v-49h187q304 0 440 31zM746 -141v51h-411v224h-56v-275h467z" />
<glyph unicode="&#xad04;" horiz-adv-x="920" d="M900 511v50h-166v225h-57v-520h57v245h166zM488 727h-386v-49h326q-2 -137 -31 -238h55q21 73 28.5 131.5t7.5 155.5zM644 336v49q-142 -31 -377 -31v191h-57v-191h-193v-49h187q304 0 440 31zM745 -151v52h-405v119h379v208h-445v-49h386v-111h-380v-219h465z" />
<glyph unicode="&#xad06;" horiz-adv-x="920" d="M908 511v50h-166v225h-57v-530h57v255h166zM496 727h-386v-49h326q-2 -137 -31 -238h55q21 73 28.5 131.5t7.5 155.5zM652 336v49q-142 -31 -377 -31v191h-57v-191h-193v-49h187q304 0 440 31zM745 -151v366h-261v-366h261zM458 -151v52h-226v113h203v206h-271v-48h212 v-111h-203v-212h285zM686 -102h-145v268h145v-268z" />
<glyph unicode="&#xad0c;" horiz-adv-x="920" d="M895 486v53h-162v246h-56v-549h56v250h162zM488 717h-386v-49h326q-3 -170 -28 -258h55q33 116 33 307zM644 305v49q-142 -31 -377 -31v198h-57v-198h-193v-49h187q304 0 440 31zM724 -144v327h-446v-327h446zM665 -94h-330v228h330v-228z" />
<glyph unicode="&#xad0d;" horiz-adv-x="920" d="M900 511v50h-166v225h-56v-524h56v249h166zM488 727h-386v-49h326q-3 -148 -31 -248h55q20 72 28 135.5t8 161.5zM644 321v49q-142 -31 -377 -31v191h-57v-191h-193v-49h187q304 0 440 31zM724 -149v365h-59v-125h-334v125h-57v-365h450zM665 -100h-334v141h334v-141z " />
<glyph unicode="&#xad0f;" horiz-adv-x="920" d="M895 486v53h-162v246h-56v-622h56v323h162zM488 717h-386v-49h326q-3 -159 -31 -258h55q36 127 36 307zM644 295v49q-142 -31 -377 -31v208h-57v-208h-193v-49h187q304 0 440 31zM769 -108l-256 183q17 46 17 94v33h-59v-30q0 -87 -64 -163.5t-175 -114.5l36 -42 q149 49 222 175l242 -174z" />
<glyph unicode="&#xad11;" horiz-adv-x="920" d="M895 486v53h-162v246h-56v-565h56v266h162zM488 717h-386v-49h326q-3 -178 -26 -258h55q19 67 25 133t6 174zM644 305v49q-142 -31 -377 -31v198h-57v-198h-193v-49h187q304 0 440 31zM725 19q0 83 -62 133t-152 50q-89 0 -151.5 -52t-62.5 -131q0 -83 62.5 -133 t152.5 -50t151.5 49.5t61.5 133.5zM668 19q0 -59 -45.5 -96t-111.5 -37q-63 0 -109 38t-46 95t44.5 95t110.5 38q67 0 112 -36.5t45 -96.5z" />
<glyph unicode="&#xad18;" horiz-adv-x="920" d="M845 -115v901h-56v-364h-144v343h-57v-815h57v422h144v-487h56zM464 672h-357v-49h294q0 -215 -35 -324h60q38 139 38 373zM557 146v47q-137 -32 -294 -30v262h-55v-262h-170v-49h153q41 0 76.5 1t60 1.5t54 3.5t41 3.5t38.5 5t31 5t33.5 6.5t31.5 6z" />
<glyph unicode="&#xad1c;" horiz-adv-x="920" d="M829 130v656h-57v-277h-144v255h-57v-592h57v288h144v-330h57zM444 706h-343v-49h284q-2 -98 -7.5 -153.5t-24.5 -119.5h57q34 116 34 322zM538 265v44q-109 -20 -294 -23v213h-55v-213h-163v-50h157q47 0 89 1.5t68.5 3t61 5.5t47.5 5.5t47 7t42 6.5zM815 -141v51h-410 v224h-58v-275h468z" />
<glyph unicode="&#xad20;" horiz-adv-x="920" d="M829 272v514h-57v-227h-144v205h-57v-481h57v227h144v-238h57zM439 727h-343v-49h284q-2 -91 -7 -133.5t-25 -109.5h55q23 67 29.5 126t6.5 166zM533 328v46q-107 -22 -291 -25v186h-55v-186h-163v-49h157q81 0 142.5 3t84 5.5t69.5 10.5t56 9zM803 -151v52h-398v119h373 v208h-440v-49h380v-111h-375v-219h460z" />
<glyph unicode="&#xad29;" horiz-adv-x="920" d="M829 262v524h-57v-227h-144v205h-57v-492h57v238h144v-248h57zM439 727h-343v-49h284q-2 -91 -7 -133.5t-25 -109.5h55q23 67 29.5 126t6.5 166zM533 324v46q-107 -22 -291 -25v186h-55v-186h-163v-49h157q81 0 142.5 3t84 5.5t69.5 10.5t56 9zM789 -149v365h-58v-127 h-336v127h-57v-365h451zM731 -100h-336v139h336v-139z" />
<glyph unicode="&#xad2c;" horiz-adv-x="920" d="M829 214v572h-57v-257h-144v235h-57v-538h57v252h144v-264h57zM444 716h-343v-49h284q-2 -96 -7.5 -149t-24.5 -117h57q34 116 34 315zM538 302v49q-112 -25 -294 -28v193h-55v-193h-163v-50h157q47 0 89 1.5t68.5 3t61 5.5t47.5 5.5t47 7t42 6.5zM860 -106l-178 163 q10 44 11 75v46h-60v-43q0 -65 -29.5 -124.5t-84.5 -94.5l-133 132q9 30 13 85v45h-58v-43q0 -70 -43.5 -136t-122.5 -104l37 -43q94 47 147 146l154 -151q96 43 150 155l161 -146z" />
<glyph unicode="&#xad2d;" horiz-adv-x="920" d="M829 214v572h-57v-257h-144v235h-57v-528h57v242h144v-264h57zM444 716h-343v-49h284q-2 -96 -7.5 -149t-24.5 -117h57q34 116 34 315zM538 292v46q-122 -22 -294 -25v203h-55v-203h-163v-50h157q47 0 89 1.5t68.5 3t61 5.5t47.5 5.5t47 7t42 6.5zM785 19q0 83 -62 133 t-152 50q-89 0 -151.5 -52t-62.5 -131q0 -83 62.5 -133t152.5 -50t151.5 49.5t61.5 133.5zM728 19q0 -59 -45.5 -96t-111.5 -37q-63 0 -109 38t-46 95t44.5 95t110.5 38q67 0 112 -36.5t45 -96.5z" />
<glyph unicode="&#xad34;" horiz-adv-x="870" d="M772 -115v901h-56v-901h56zM533 672h-414v-49h351q0 -215 -35 -324h60q38 139 38 373zM686 147v47q-71 -13 -185.5 -22.5t-196.5 -8.5v257h-57v-257h-215v-49h209q265 0 445 33z" />
<glyph unicode="&#xad35;" horiz-adv-x="870" d="M755 206v579h-56v-579h56zM504 717h-396v-49h336q-3 -159 -31 -258h55q36 127 36 307zM670 295v49q-142 -31 -387 -31v208h-57v-208h-203v-49h197q314 0 450 31zM744 -162v322h-460v-50h404v-272h56z" />
<glyph unicode="&#xad38;" horiz-adv-x="870" d="M755 115v671h-56v-671h56zM504 707h-396v-49h336q-3 -175 -31 -273h55q36 127 36 322zM670 270v49q-142 -31 -387 -31v218h-57v-218h-203v-49h197q314 0 450 31zM768 -141v51h-410v234h-58v-285h468z" />
<glyph unicode="&#xad3c;" horiz-adv-x="870" d="M757 276v510h-57v-510h57zM504 727h-396v-49h336q-2 -137 -31 -238h55q21 73 28.5 131.5t7.5 155.5zM670 335v49q-142 -31 -387 -31v198h-57v-198h-203v-49h197q314 0 450 31zM751 -151v52h-398v119h372v208h-440v-49h381v-111h-376v-219h461z" />
<glyph unicode="&#xad44;" horiz-adv-x="870" d="M755 216v569h-56v-569h56zM504 717h-396v-49h336q-3 -170 -28 -258h55q33 116 33 307zM670 305v49q-142 -31 -387 -31v208h-57v-208h-203v-49h197q314 0 450 31zM734 -144v317h-446v-317h446zM677 -94h-329v218h329v-218z" />
<glyph unicode="&#xad45;" horiz-adv-x="870" d="M757 271v515h-57v-515h57zM504 727h-396v-49h336q-3 -148 -31 -248h55q20 72 28 135.5t8 161.5zM670 325v49q-142 -31 -387 -31v188h-57v-188h-203v-49h197q314 0 450 31zM738 -149v365h-57v-127h-331v127h-60v-365h448zM681 -100h-331v139h331v-139z" />
<glyph unicode="&#xad47;" horiz-adv-x="870" d="M757 180v606h-57v-606h57zM504 717h-396v-49h336q-3 -159 -31 -258h55q36 127 36 307zM670 305v49q-142 -31 -387 -31v208h-57v-208h-203v-49h197q314 0 450 31zM787 -108l-256 183q18 45 18 94v23h-60v-20q0 -87 -64 -163.5t-175 -114.5l36 -42q149 49 222 175l242 -174 z" />
<glyph unicode="&#xad49;" horiz-adv-x="870" d="M757 225v561h-57v-561h57zM505 717h-396v-49h336q-3 -159 -31 -258h55q36 127 36 307zM671 305v49q-142 -31 -387 -31v198h-57v-198h-203v-49h197q314 0 450 31zM735 19q0 83 -62 133t-152 50q-89 0 -151.5 -52t-62.5 -131q0 -83 62.5 -133t152.5 -50t151.5 49.5 t61.5 133.5zM678 19q0 -59 -45.5 -96t-111.5 -37q-63 0 -109 38t-46 95t44.5 95t110.5 38q67 0 112 -36.5t45 -96.5z" />
<glyph unicode="&#xad50;" d="M690 476v202h-490v-49h434v-142q0 -178 -48 -295h59q45 108 45 284zM866 3v50h-364v306h-55v-306h-136v306h-58v-306h-220v-50h833z" />
<glyph unicode="&#xad54;" d="M675 747h-463v-51h403q0 -198 -25 -304h58q25 156 27 355zM867 258v48h-359v213h-56v-213h-125v213h-58v-213h-236v-48h834zM698 -140v51h-417v232h-56v-283h473z" />
<glyph unicode="&#xad58;" d="M675 758h-463v-49h403q0 -165 -25 -265h58q25 110 27 314zM867 320v48h-359v186h-56v-186h-125v186h-58v-186h-236v-48h834zM697 -151v51h-407v116h382v211h-449v-49h388v-115h-380v-214h466z" />
<glyph unicode="&#xad61;" d="M678 758h-464v-49h403q0 -170 -25 -271h58q26 107 28 320zM867 314v48h-359v197h-56v-197h-125v197h-58v-197h-236v-48h834zM683 -149v369h-59v-131h-339v131h-58v-369h456zM624 -100h-339v139h339v-139z" />
<glyph unicode="&#xad63;" d="M673 758h-463v-49h403q0 -184 -25 -290h58q25 115 27 339zM867 297v50h-361v206h-56v-206h-125v206h-58v-206h-234v-50h834zM716 -107q-262 193 -263 193q21 51 21 100v18h-61v-10q0 -93 -64 -177t-174 -123l36 -41q69 23 126.5 73t92.5 112l248 -185z" />
<glyph unicode="&#xad6c;" d="M680 728h-483v-49h424q-2 -186 -41 -320h57q42 162 43 369zM865 260v50h-835v-50h373v-394h59v394h403z" />
<glyph unicode="&#xad6d;" d="M867 348v48h-229q32 125 34 351h-463v-51h402q0 -183 -32 -300h-546v-48h374v-176h-194v-49h403v-285h57v334h-209v176h403z" />
<glyph unicode="&#xad70;" d="M867 309v48h-230q33 166 35 385h-463v-51h402q0 -68 -8.5 -169t-23.5 -165v0v0v0v0v0h-1v0v0v0h-1v0v0h-1v0h-1v0h-1v0h-1v0h-1v0h-1v0h-1h-1v0h-1h-1h-1h-1h-1h-1h-1h-1h-1h-1h-1h-1h-1h-1h-1h-1h-1h-1h-1h-1h-1h-1h-1h-1h-1h-1h-1h-1h-1h-1h-1h-1h-1h-1h-1h-1h-1h-1h-1 h-1h-1h-1h-1h-1h-1h-1h-1h-1h-1h-1h-1h-1h-1h-1h-1h-1h-1h-1h-1h-1h-1h-1h-1h-1h-1h-1h-1h-1h-1h-1h-1h-1h-1h-1h-1h-1h-1h-1h-1h-1h-1h-1h-1h-1h-1h-1h-1h-1h-1h-1h-2h-1h-1h-1h-1h-1h-1h-1h-1h-1h-1h-1h-2h-1h-1h-1h-1h-1h-1h-1h-2h-1h-1h-1h-1h-1h-2h-1h-1h-1h-1h-1h-2 h-1h-1h-1h-1h-2h-1h-1h-1h-1h-2h-1h-1h-1h-2h-1h-1h-1h-2h-1h-1h-1h-2h-1h-1h-1h-2h-1h-1h-2h-1h-1h-1h-2h-1h-1h-2h-1h-1h-2h-1h-1h-2h-1h-1h-2h-1h-1h-2h-1h-1h-2h-1h-1h-2h-1h-1h-2h-1h-2h-1h-1h-2h-1h-2h-1h-1h-2h-1h-2h-1h-1h-2h-1h-2h-1h-1h-2h-1h-2h-1h-2h-1h-2h-1 h-1h-2h-1h-2h-1h-2h-1h-2h-1h-2h-1h-2h-1h-2h-1h-2h-1h-2h-1h-2h-1h-2h-1h-2h-1h-2h-1h-2h-1h-2h-1h-2h-1h-2h-2h-1h-2h-1h-2h-1h-2h-1h-2h-2h-1h-2h-1h-2h-2h-1h-2h-1h-2h-1h-2h-2h-1h-2h-1h-2h-2h-1h-2h-2h-1h-2h-1h-2h-2h-1h-2h-2h-1h-2h-2h-1h-2h-2h-1h-2h-2h-1h-2h-2 h-1h-2h-2h-1h-2h-2h-1h-2h-2h-1h-2h-2h-2h-1h-2h-2h-1h-2h-2h-2h-1h-2h-2h-1h-2h-2h-2h-1h-2h-2h-2h-1h-2h-2h-2h-1h-2h-2h-2h-2h-1h-2h-2h-2h-1h-2h-2h-2h-2h-1h-2h-2h-2h-2h-1h-2h-2h-2h-2h-2h-1h-2h-2h-2h-2h-2h-1h-2h-2h-2h-2h-2h-2h-1h-2h-2h-2h-2h-2h-2h-2h-1h-2h-2 h-2h-2h-2h-2h-8v-48h395v-248h57v248h382zM688 -140v51h-418v254h-56v-305h474z" />
<glyph unicode="&#xad73;" d="M867 355v50h-230q34 181 35 342h-463v-51h402q0 -163 -32 -291v0v0v0v0v0h-1v0v0v0h-1v0v0h-1v0h-1v0h-1v0h-1v0h-1v0h-1v0h-1h-1v0h-1h-1h-1h-1h-1h-1h-1h-1h-1h-1h-1h-1h-1h-1h-1h-1h-1h-1h-1h-1h-1h-1h-1h-1h-1h-1h-1h-1h-1h-1h-1h-1h-1h-1h-1h-1h-1h-1h-1h-1h-1h-1 h-1h-1h-1h-1h-1h-1h-1h-1h-1h-1h-1h-1h-1h-1h-1h-1h-1h-1h-1h-1h-1h-1h-1h-1h-1h-1h-1h-1h-1h-1h-1h-1h-1h-1h-1h-1h-1h-1h-1h-1h-1h-1h-1h-1h-1h-1h-1h-1h-2h-1h-1h-1h-1h-1h-1h-1h-1h-1h-1h-1h-2h-1h-1h-1h-1h-1h-1h-1h-2h-1h-1h-1h-1h-1h-2h-1h-1h-1h-1h-1h-2h-1h-1h-1 h-1h-2h-1h-1h-1h-1h-2h-1h-1h-1h-2h-1h-1h-1h-2h-1h-1h-1h-2h-1h-1h-1h-2h-1h-1h-2h-1h-1h-1h-2h-1h-1h-2h-1h-1h-2h-1h-1h-2h-1h-1h-2h-1h-1h-2h-1h-1h-2h-1h-1h-2h-1h-1h-2h-1h-2h-1h-1h-2h-1h-2h-1h-1h-2h-1h-2h-1h-1h-2h-1h-2h-1h-1h-2h-1h-2h-1h-2h-1h-2h-1h-1h-2h-1 h-2h-1h-2h-1h-2h-1h-2h-1h-2h-1h-2h-1h-2h-1h-2h-1h-2h-1h-2h-1h-2h-1h-2h-1h-2h-1h-2h-1h-2h-1h-2h-2h-1h-2h-1h-2h-1h-2h-1h-2h-2h-1h-2h-1h-2h-2h-1h-2h-1h-2h-1h-2h-2h-1h-2h-1h-2h-2h-1h-2h-2h-1h-2h-1h-2h-2h-1h-2h-2h-1h-2h-2h-1h-2h-2h-1h-2h-2h-1h-2h-2h-1h-2h-2 h-1h-2h-2h-1h-2h-2h-1h-2h-2h-2h-1h-2h-2h-1h-2h-2h-2h-1h-2h-2h-1h-2h-2h-2h-1h-2h-2h-2h-1h-2h-2h-2h-1h-2h-2h-2h-2h-1h-2h-2h-2h-1h-2h-2h-2h-2h-1h-2h-2h-2h-2h-1h-2h-2h-2h-2h-2h-1h-2h-2h-2h-2h-2h-1h-2h-2h-2h-2h-2h-2h-1h-2h-2h-2h-2h-2h-2h-2h-1h-2h-2h-2h-2h-2 h-2h-8v-50h381v-169h-193v-332h469v50h-410v232h400v51h-208v168h395z" />
<glyph unicode="&#xad74;" d="M867 382v48h-229q33 172 34 328h-463v-49h402q0 -150 -30 -279h-548v-48h381v-136h-193v-50h388v-121h-380v-226h466v51h-407v127h382v219h-198v136h395z" />
<glyph unicode="&#xad75;" d="M867 382v48h-229q33 172 34 328h-463v-49h402q0 -150 -30 -279h-548v-48h381v-138h-259v-50h233v-123h-231v-222h316v52h-256v122h230v168h229v-342h59v395h-263v138h395z" />
<glyph unicode="&#xad76;" d="M867 382v48h-229q33 172 34 328h-463v-49h402q0 -150 -30 -279h-548v-48h381v-136h-259v-50h211v-120h-209v-227h283v52h-223v127h208v181h41v-360h263v397h-257v136h395zM670 -102h-148v297h148v-297z" />
<glyph unicode="&#xad7b;" d="M865 382v48h-227q33 172 34 328h-463v-49h402q0 -150 -30 -279h-552v-48h385v-144h-270v-50h212v-120h-210v-219h309v52h-250v119h209v177h58v185h393zM735 184v48q-84 -4 -129 1q-50 5 -93 21l-17 -41q44 -23 106 -29q47 -4 133 0zM812 59v48h-368v-48h118 q-39 -12 -62.5 -39t-24.5 -68q-1 -55 41.5 -88t104.5 -33q66 0 109 30.5t43 89.5q0 41 -25.5 68.5t-67.5 39.5h132zM713 -51q0 -35 -26.5 -54.5t-65.5 -18.5q-38 1 -62.5 21.5t-24.5 56.5q0 35 26 54.5t64 18.5t63.5 -21t25.5 -57z" />
<glyph unicode="&#xad7c;" d="M867 357v50h-231q35 175 36 340h-463v-51h402q0 -162 -32 -289h-546v-50h383v-167h-191v-334h458v334h-209v167h393zM624 -94h-340v235h340v-235z" />
<glyph unicode="&#xad7d;" d="M867 371v48h-230q34 176 35 339h-463v-49h402q0 -166 -32 -290v0v0v0v0v0h-1v0v0v0h-1v0v0h-1v0h-1v0h-1v0h-1v0h-1v0h-1v0h-1h-1v0h-1h-1h-1h-1h-1h-1h-1h-1h-1h-1h-1h-1h-1h-1h-1h-1h-1h-1h-1h-1h-1h-1h-1h-1h-1h-1h-1h-1h-1h-1h-1h-1h-1h-1h-1h-1h-1h-1h-1h-1h-1h-1 h-1h-1h-1h-1h-1h-1h-1h-1h-1h-1h-1h-1h-1h-1h-1h-1h-1h-1h-1h-1h-1h-1h-1h-1h-1h-1h-1h-1h-1h-1h-1h-1h-1h-1h-1h-1h-1h-1h-1h-1h-1h-1h-1h-1h-1h-1h-1h-1h-2h-1h-1h-1h-1h-1h-1h-1h-1h-1h-1h-1h-2h-1h-1h-1h-1h-1h-1h-1h-2h-1h-1h-1h-1h-1h-2h-1h-1h-1h-1h-1h-2h-1h-1h-1 h-1h-2h-1h-1h-1h-1h-2h-1h-1h-1h-2h-1h-1h-1h-2h-1h-1h-1h-2h-1h-1h-1h-2h-1h-1h-2h-1h-1h-1h-2h-1h-1h-2h-1h-1h-2h-1h-1h-2h-1h-1h-2h-1h-1h-2h-1h-1h-2h-1h-1h-2h-1h-1h-2h-1h-2h-1h-1h-2h-1h-2h-1h-1h-2h-1h-2h-1h-1h-2h-1h-2h-1h-1h-2h-1h-2h-1h-2h-1h-2h-1h-1h-2h-1 h-2h-1h-2h-1h-2h-1h-2h-1h-2h-1h-2h-1h-2h-1h-2h-1h-2h-1h-2h-1h-2h-1h-2h-1h-2h-1h-2h-1h-2h-1h-2h-2h-1h-2h-1h-2h-1h-2h-1h-2h-2h-1h-2h-1h-2h-2h-1h-2h-1h-2h-1h-2h-2h-1h-2h-1h-2h-2h-1h-2h-2h-1h-2h-1h-2h-2h-1h-2h-2h-1h-2h-2h-1h-2h-2h-1h-2h-2h-1h-2h-2h-1h-2h-2 h-1h-2h-2h-1h-2h-2h-1h-2h-2h-2h-1h-2h-2h-1h-2h-2h-2h-1h-2h-2h-1h-2h-2h-2h-1h-2h-2h-2h-1h-2h-2h-2h-1h-2h-2h-2h-2h-1h-2h-2h-2h-1h-2h-2h-2h-2h-1h-2h-2h-2h-2h-1h-2h-2h-2h-2h-2h-1h-2h-2h-2h-2h-2h-1h-2h-2h-2h-2h-2h-2h-1h-2h-2h-2h-2h-2h-2h-2h-1h-2h-2h-2h-2h-2 h-2h-8v-48h388v-198h58v198h388zM683 -149v375h-59v-135h-339v135h-58v-375h456zM624 -100h-339v141h339v-141z" />
<glyph unicode="&#xad7f;" d="M867 349v50h-230q34 181 35 348h-463v-51h402q0 -169 -32 -297v0v0v0v0v0h-1v0v0v0h-1v0v0h-1v0h-1v0h-1v0h-1v0h-1v0h-1v0h-1h-1v0h-1h-1h-1h-1h-1h-1h-1h-1h-1h-1h-1h-1h-1h-1h-1h-1h-1h-1h-1h-1h-1h-1h-1h-1h-1h-1h-1h-1h-1h-1h-1h-1h-1h-1h-1h-1h-1h-1h-1h-1h-1h-1 h-1h-1h-1h-1h-1h-1h-1h-1h-1h-1h-1h-1h-1h-1h-1h-1h-1h-1h-1h-1h-1h-1h-1h-1h-1h-1h-1h-1h-1h-1h-1h-1h-1h-1h-1h-1h-1h-1h-1h-1h-1h-1h-1h-1h-1h-1h-1h-1h-2h-1h-1h-1h-1h-1h-1h-1h-1h-1h-1h-1h-2h-1h-1h-1h-1h-1h-1h-1h-2h-1h-1h-1h-1h-1h-2h-1h-1h-1h-1h-1h-2h-1h-1h-1 h-1h-2h-1h-1h-1h-1h-2h-1h-1h-1h-2h-1h-1h-1h-2h-1h-1h-1h-2h-1h-1h-1h-2h-1h-1h-2h-1h-1h-1h-2h-1h-1h-2h-1h-1h-2h-1h-1h-2h-1h-1h-2h-1h-1h-2h-1h-1h-2h-1h-1h-2h-1h-1h-2h-1h-2h-1h-1h-2h-1h-2h-1h-1h-2h-1h-2h-1h-1h-2h-1h-2h-1h-1h-2h-1h-2h-1h-2h-1h-2h-1h-1h-2h-1 h-2h-1h-2h-1h-2h-1h-2h-1h-2h-1h-2h-1h-2h-1h-2h-1h-2h-1h-2h-1h-2h-1h-2h-1h-2h-1h-2h-1h-2h-1h-2h-2h-1h-2h-1h-2h-1h-2h-1h-2h-2h-1h-2h-1h-2h-2h-1h-2h-1h-2h-1h-2h-2h-1h-2h-1h-2h-2h-1h-2h-2h-1h-2h-1h-2h-2h-1h-2h-2h-1h-2h-2h-1h-2h-2h-1h-2h-2h-1h-2h-2h-1h-2h-2 h-1h-2h-2h-1h-2h-2h-1h-2h-2h-2h-1h-2h-2h-1h-2h-2h-2h-1h-2h-2h-1h-2h-2h-2h-1h-2h-2h-2h-1h-2h-2h-2h-1h-2h-2h-2h-2h-1h-2h-2h-2h-1h-2h-2h-2h-2h-1h-2h-2h-2h-2h-1h-2h-2h-2h-2h-2h-1h-2h-2h-2h-2h-2h-1h-2h-2h-2h-2h-2h-2h-1h-2h-2h-2h-2h-2h-2h-2h-1h-2h-2h-2h-2h-2 h-2h-8v-50h382v-155q0 -93 -64 -177t-174 -123l36 -41q69 23 126.5 72.5t92.5 111.5l242 -185l38 40l-257 195q19 50 19 109v153h393z" />
<glyph unicode="&#xad81;" d="M867 349v50h-231q34 151 36 348h-463v-51h403q0 -156 -35 -297h-544v-50h381v-145q-79 -9 -131 -60t-52 -122q0 -80 61.5 -132.5t153.5 -52.5q97 0 158 52t61 133q0 74 -53.5 125t-139.5 58v144h395zM606 22q0 -59 -46 -97t-114 -38q-65 0 -111.5 39t-46.5 96 q0 61 45 98.5t113 37.5q69 0 114.5 -38.5t45.5 -97.5z" />
<glyph unicode="&#xad82;" d="M867 352v48h-230q34 179 35 347h-463v-51h402q0 -169 -32 -296v0v0v0v0v0h-1v0v0v0h-1v0v0h-1v0h-1v0h-1v0h-1v0h-1v0h-1v0h-1h-1v0h-1h-1h-1h-1h-1h-1h-1h-1h-1h-1h-1h-1h-1h-1h-1h-1h-1h-1h-1h-1h-1h-1h-1h-1h-1h-1h-1h-1h-1h-1h-1h-1h-1h-1h-1h-1h-1h-1h-1h-1h-1h-1 h-1h-1h-1h-1h-1h-1h-1h-1h-1h-1h-1h-1h-1h-1h-1h-1h-1h-1h-1h-1h-1h-1h-1h-1h-1h-1h-1h-1h-1h-1h-1h-1h-1h-1h-1h-1h-1h-1h-1h-1h-1h-1h-1h-1h-1h-1h-1h-1h-2h-1h-1h-1h-1h-1h-1h-1h-1h-1h-1h-1h-2h-1h-1h-1h-1h-1h-1h-1h-2h-1h-1h-1h-1h-1h-2h-1h-1h-1h-1h-1h-2h-1h-1h-1 h-1h-2h-1h-1h-1h-1h-2h-1h-1h-1h-2h-1h-1h-1h-2h-1h-1h-1h-2h-1h-1h-1h-2h-1h-1h-2h-1h-1h-1h-2h-1h-1h-2h-1h-1h-2h-1h-1h-2h-1h-1h-2h-1h-1h-2h-1h-1h-2h-1h-1h-2h-1h-1h-2h-1h-2h-1h-1h-2h-1h-2h-1h-1h-2h-1h-2h-1h-1h-2h-1h-2h-1h-1h-2h-1h-2h-1h-2h-1h-2h-1h-1h-2h-1 h-2h-1h-2h-1h-2h-1h-2h-1h-2h-1h-2h-1h-2h-1h-2h-1h-2h-1h-2h-1h-2h-1h-2h-1h-2h-1h-2h-1h-2h-1h-2h-2h-1h-2h-1h-2h-1h-2h-1h-2h-2h-1h-2h-1h-2h-2h-1h-2h-1h-2h-1h-2h-2h-1h-2h-1h-2h-2h-1h-2h-2h-1h-2h-1h-2h-2h-1h-2h-2h-1h-2h-2h-1h-2h-2h-1h-2h-2h-1h-2h-2h-1h-2h-2 h-1h-2h-2h-1h-2h-2h-1h-2h-2h-2h-1h-2h-2h-1h-2h-2h-2h-1h-2h-2h-1h-2h-2h-2h-1h-2h-2h-2h-1h-2h-2h-2h-1h-2h-2h-2h-2h-1h-2h-2h-2h-1h-2h-2h-2h-2h-1h-2h-2h-2h-2h-1h-2h-2h-2h-2h-2h-1h-2h-2h-2h-2h-2h-1h-2h-2h-2h-2h-2h-2h-1h-2h-2h-2h-2h-2h-2h-2h-1h-2h-2h-2h-2h-2 h-2h-8v-48h382v-161h-183v-47h339q-59 -81 -162.5 -150.5t-227.5 -97.5l32 -43q145 36 273 132l235 -131l33 43l-224 123q96 84 134 171h-191v161h394z" />
<glyph unicode="&#xad88;" horiz-adv-x="870" d="M785 -115v901h-55v-632h-230v-50h230v-219h55zM525 706h-401v-49h344q-2 -183 -39 -292h57q39 133 39 341zM671 297v49q-170 -31 -408 -31h-216v-49h240v-367h57v368q190 6 327 30z" />
<glyph unicode="&#xad89;" horiz-adv-x="870" d="M767 174v612h-54v-472h-214v-46h214v-94h54zM663 408v47q-65 -12 -184 -22q31 113 31 294h-396v-48h338q-1 -65 -4.5 -107.5t-8 -64t-16.5 -77.5q-92 -5 -178 -5h-211v-47h224v-184h54v185q178 4 351 29zM754 -162v291h-459v-51h402v-240h57z" />
<glyph unicode="&#xad8c;" horiz-adv-x="870" d="M758 98v688h-53v-525h-215v-46h215v-117h53zM654 378v47q-65 -12 -184 -22q31 116 31 314h-396v-48h338q-1 -96 -7 -146.5t-22 -122.5q-92 -5 -178 -5h-211v-47h224v-184h54v185q178 4 351 29zM758 -141v51h-411v213h-56v-264h467z" />
<glyph unicode="&#xad90;" horiz-adv-x="870" d="M758 248v538h-53v-431h-215v-46h215v-61h53zM654 432v47q-77 -14 -194 -23q31 112 31 271h-386v-48h328q-1 -40 -1.5 -65t-4 -49t-5 -31.5t-8.5 -37.5t-10 -43q-106 -4 -168 -4h-211v-47h224v-154h54v155q178 4 351 29zM762 -151v52h-405v111h380v196h-447v-48h387v-101 h-382v-210h467z" />
<glyph unicode="&#xad9c;" horiz-adv-x="870" d="M758 194v592h-54v-472h-214v-46h214v-74h54zM654 408v47q-77 -14 -194 -23q31 115 31 295h-386v-48h328q-1 -65 -4.5 -107.5t-7.5 -64.5t-17 -78q-106 -4 -168 -4h-211v-47h224v-184h54v185q178 4 351 29zM821 -106l-180 157q10 34 12 71v29h-59v-27q0 -59 -31.5 -116.5 t-83.5 -90.5l-132 129q10 32 13 75v30h-59v-27q0 -63 -43.5 -127.5t-119.5 -102.5l35 -42q95 48 148 143l150 -148q34 12 79 53t72 97l163 -141z" />
<glyph unicode="&#xad9d;" horiz-adv-x="870" d="M758 204v582h-54v-456h-214v-46h214v-80h54zM654 418v47q-82 -15 -194 -22q31 112 31 284h-386v-48h328q0 -25 -1 -45.5t-1.5 -35t-2.5 -31.5t-2.5 -24t-4 -25t-4.5 -22t-6 -27t-7 -30q-106 -4 -168 -4h-211v-47h224v-184h54v185q178 4 351 29zM734 21q0 83 -62 133 t-152 50q-89 0 -151.5 -52t-62.5 -131q0 -83 62.5 -133t152.5 -50t151.5 49.5t61.5 133.5zM677 21q0 -59 -45.5 -96t-111.5 -37q-63 0 -109 38t-46 95t44.5 95t110.5 38q67 0 112 -36.5t45 -96.5z" />
<glyph unicode="&#xada4;" horiz-adv-x="920" d="M836 -115v901h-56v-901h56zM648 -72v837h-56v-609h-191v-50h191v-178h56zM443 706h-334v-49h276q-2 -186 -38 -292h58q38 134 38 341zM555 307v49q-166 -31 -342 -31h-167v-49h199v-367h55v368q49 2 91 5.5t59.5 6t57 10t47.5 8.5z" />
<glyph unicode="&#xadb7;" horiz-adv-x="920" d="M818 163v623h-58v-623h58zM638 213v551h-56v-442h-185v-49h185v-60h56zM541 410v47q-96 -17 -151 -22q31 114 31 292h-328v-48h268q-3 -145 -29 -248q-70 -2 -123 -2h-184v-48h195v-205h56v206q56 1 99.5 4.5t64 6.5t53 9t48.5 8zM796 -107l-258 173q19 44 19 93v15h-60 v-12q0 -84 -63.5 -157t-174.5 -111l36 -42q146 49 219 167l245 -166z" />
<glyph unicode="&#xadc0;" horiz-adv-x="870" d="M772 -115v901h-55v-901h55zM542 706h-411v-49h355q-2 -183 -39 -292h59q36 132 36 341zM680 297v49q-171 -31 -388 -31h-254v-49h267v-367h57v368q169 4 318 30z" />
<glyph unicode="&#xadc1;" horiz-adv-x="870" d="M758 184v602h-53v-602h53zM666 404v47q-83 -15 -185 -23q30 112 30 299h-386v-48h327q-3 -149 -28 -255q-64 -4 -155 -4h-224v-46h224v-186h55v187q183 3 342 29zM745 -162v291h-459v-51h402v-240h57z" />
<glyph unicode="&#xadc4;" horiz-adv-x="870" d="M758 98v688h-53v-688h53zM666 370v47q-86 -15 -186 -22q31 127 31 322h-386v-48h327q-3 -176 -28 -277q-94 -4 -155 -4h-224v-47h224v-179h55v180q170 4 342 28zM758 -141v51h-411v213h-56v-264h467z" />
<glyph unicode="&#xadc8;" horiz-adv-x="870" d="M758 258v528h-53v-528h53zM666 431v47q-86 -16 -185 -23q30 108 30 277h-386v-48h327q-3 -139 -28 -232q-60 -3 -135 -3h-244v-46h218v-155h55v155q33 0 61.5 1t54.5 2t44 2t40.5 3.5t33.5 3t32 4t27 4t28.5 4t26.5 4.5zM762 -151v52h-398v114h373v200h-440v-48h380v-105 h-375v-213h460z" />
<glyph unicode="&#xadd0;" horiz-adv-x="870" d="M758 203v583h-53v-583h53zM666 398v47q-83 -15 -185 -23q30 113 30 305h-386v-48h327q-3 -155 -28 -261q-64 -4 -155 -4h-224v-46h214v-160h55v160q198 3 352 30zM737 -144v307h-446v-307h446zM678 -94h-330v208h330v-208z" />
<glyph unicode="&#xadd1;" horiz-adv-x="870" d="M758 245v541h-53v-541h53zM666 424v47q-83 -15 -185 -23q30 109 30 284h-386v-48h327q-3 -136 -28 -240q-64 -4 -155 -4h-224v-46h214v-146h55v146q198 3 352 30zM736 -149v355h-58v-118h-329v118h-57v-355h444zM678 -100h-329v138h329v-138z" />
<glyph unicode="&#xadd3;" horiz-adv-x="870" d="M758 150v636h-53v-636h53zM666 381v47q-95 -17 -186 -23q31 112 31 312h-386v-48h327q-3 -163 -29 -268q-63 -4 -154 -4h-224v-46h211v-187h55v187q201 3 355 30zM778 -108l-256 183q17 46 17 94v33h-60v-30q0 -87 -63.5 -163.5t-174.5 -114.5l36 -42q149 49 222 175 l242 -174z" />
<glyph unicode="&#xaddc;" d="M680 728h-483v-49h424q-2 -186 -41 -320h57q42 162 43 369zM865 260v50h-835v-50h235v-394h57v394h225v-394h57v394h261z" />
<glyph unicode="&#xade0;" d="M867 329v50h-230q33 163 35 368h-463v-51h402q0 -186 -32 -317v0v0v0v0v0h-1v0v0v0h-1v0v0h-1v0h-1v0h-1v0h-1v0h-1v0h-1v0h-1h-1v0h-1h-1h-1h-1h-1h-1h-1h-1h-1h-1h-1h-1h-1h-1h-1h-1h-1h-1h-1h-1h-1h-1h-1h-1h-1h-1h-1h-1h-1h-1h-1h-1h-1h-1h-1h-1h-1h-1h-1h-1h-1h-1 h-1h-1h-1h-1h-1h-1h-1h-1h-1h-1h-1h-1h-1h-1h-1h-1h-1h-1h-1h-1h-1h-1h-1h-1h-1h-1h-1h-1h-1h-1h-1h-1h-1h-1h-1h-1h-1h-1h-1h-1h-1h-1h-1h-1h-1h-1h-1h-1h-2h-1h-1h-1h-1h-1h-1h-1h-1h-1h-1h-1h-2h-1h-1h-1h-1h-1h-1h-1h-2h-1h-1h-1h-1h-1h-2h-1h-1h-1h-1h-1h-2h-1h-1h-1 h-1h-2h-1h-1h-1h-1h-2h-1h-1h-1h-2h-1h-1h-1h-2h-1h-1h-1h-2h-1h-1h-1h-2h-1h-1h-2h-1h-1h-1h-2h-1h-1h-2h-1h-1h-2h-1h-1h-2h-1h-1h-2h-1h-1h-2h-1h-1h-2h-1h-1h-2h-1h-1h-2h-1h-2h-1h-1h-2h-1h-2h-1h-1h-2h-1h-2h-1h-1h-2h-1h-2h-1h-1h-2h-1h-2h-1h-2h-1h-2h-1h-1h-2h-1 h-2h-1h-2h-1h-2h-1h-2h-1h-2h-1h-2h-1h-2h-1h-2h-1h-2h-1h-2h-1h-2h-1h-2h-1h-2h-1h-2h-1h-2h-1h-2h-2h-1h-2h-1h-2h-1h-2h-1h-2h-2h-1h-2h-1h-2h-2h-1h-2h-1h-2h-1h-2h-2h-1h-2h-1h-2h-2h-1h-2h-2h-1h-2h-1h-2h-2h-1h-2h-2h-1h-2h-2h-1h-2h-2h-1h-2h-2h-1h-2h-2h-1h-2h-2 h-1h-2h-2h-1h-2h-2h-1h-2h-2h-2h-1h-2h-2h-1h-2h-2h-2h-1h-2h-2h-1h-2h-2h-2h-1h-2h-2h-2h-1h-2h-2h-2h-1h-2h-2h-2h-2h-1h-2h-2h-2h-1h-2h-2h-2h-2h-1h-2h-2h-2h-2h-1h-2h-2h-2h-2h-2h-1h-2h-2h-2h-2h-2h-1h-2h-2h-2h-2h-2h-2h-1h-2h-2h-2h-2h-2h-2h-2h-1h-2h-2h-2h-2h-2 h-2h-8v-50h322v-250h57v250h139v-250h55v250h261zM688 -140v51h-418v254h-56v-305h474z" />
<glyph unicode="&#xade4;" d="M867 379v49h-229q33 169 34 330h-463v-49h402q0 -152 -30 -281h-548v-49h251v-133h-63v-50h388v-121h-383v-226h469v51h-410v127h385v219h-60v133h257zM555 246h-214v133h214v-133z" />
<glyph unicode="&#xadf8;" d="M680 476v202h-490v-49h434v-142q0 -178 -48 -295h59q45 108 45 284zM866 13v51h-833v-51h833z" />
<glyph unicode="&#xadf9;" d="M867 337v50h-231q35 178 36 360h-463v-51h402q0 -178 -33 -309v0v0v0v0v0h-1v0v0v0h-1v0v0h-1v0h-1v0h-1v0h-1v0h-1v0h-1v0h-1h-1v0h-1h-1h-1h-1h-1h-1h-1h-1h-1h-1h-1h-1h-1h-1h-1h-1h-1h-1h-1h-1h-1h-1h-1h-1h-1h-1h-1h-1h-1h-1h-1h-1h-1h-1h-1h-1h-1h-1h-1h-1h-1h-1 h-1h-1h-1h-1h-1h-1h-1h-1h-1h-1h-1h-1h-1h-1h-1h-1h-1h-1h-1h-1h-1h-1h-1h-1h-1h-1h-1h-1h-1h-1h-1h-1h-1h-1h-1h-1h-1h-1h-1h-1h-1h-1h-1h-1h-1h-1h-2h-1h-1h-1h-1h-1h-1h-1h-1h-1h-1h-1h-2h-1h-1h-1h-1h-1h-1h-1h-2h-1h-1h-1h-1h-1h-1h-2h-1h-1h-1h-1h-1h-2h-1h-1h-1h-1 h-2h-1h-1h-1h-1h-2h-1h-1h-1h-2h-1h-1h-1h-2h-1h-1h-1h-2h-1h-1h-1h-2h-1h-1h-1h-2h-1h-1h-2h-1h-1h-2h-1h-1h-1h-2h-1h-1h-2h-1h-1h-2h-1h-1h-2h-1h-2h-1h-1h-2h-1h-1h-2h-1h-1h-2h-1h-2h-1h-1h-2h-1h-2h-1h-1h-2h-1h-2h-1h-1h-2h-1h-2h-1h-2h-1h-2h-1h-1h-2h-1h-2h-1h-2 h-1h-2h-1h-2h-1h-2h-1h-1h-2h-1h-2h-1h-2h-1h-2h-1h-2h-1h-2h-2h-1h-2h-1h-2h-1h-2h-1h-2h-1h-2h-1h-2h-1h-2h-2h-1h-2h-1h-2h-1h-2h-2h-1h-2h-1h-2h-1h-2h-2h-1h-2h-1h-2h-2h-1h-2h-1h-2h-2h-1h-2h-2h-1h-2h-1h-2h-2h-1h-2h-2h-1h-2h-2h-1h-2h-2h-1h-2h-2h-1h-2h-2h-1h-2 h-2h-1h-2h-2h-1h-2h-2h-2h-1h-2h-2h-1h-2h-2h-2h-1h-2h-2h-1h-2h-2h-2h-1h-2h-2h-2h-1h-2h-2h-2h-1h-2h-2h-2h-2h-1h-2h-2h-2h-1h-2h-2h-2h-2h-1h-2h-2h-2h-2h-1h-2h-2h-2h-2h-1h-2h-2h-2h-2h-2h-1h-2h-2h-2h-2h-2h-2h-1h-2h-2h-2h-2h-2h-2h-1h-2h-2h-2h-2h-2h-2h-2h-1h-2 h-9v-50h834zM673 -152v334h-460v-51h403v-283h57z" />
<glyph unicode="&#xadfc;" d="M866 317v48h-235q35 163 34 377h-461v-51h402q3 -182 -32 -326h-542v-48h834zM697 -140v51h-417v264h-56v-315h473z" />
<glyph unicode="&#xadff;" d="M867 342v50h-230q34 183 35 355h-463v-51h403q0 -168 -33 -304v0v0v0v0v0h-1v0v0v0h-1v0v0h-1v0h-1v0h-1v0h-1v0h-1v0h-1v0h-1h-1v0h-1h-1h-1h-1h-1h-1h-1h-1h-1h-1h-1h-1h-1h-1h-1h-1h-1h-1h-1h-1h-1h-1h-1h-1h-1h-1h-1h-1h-1h-1h-1h-1h-1h-1h-1h-1h-1h-1h-1h-1h-1h-1 h-1h-1h-1h-1h-1h-1h-1h-1h-1h-1h-1h-1h-1h-1h-1h-1h-1h-1h-1h-1h-1h-1h-1h-1h-1h-1h-1h-1h-1h-1h-1h-1h-1h-1h-1h-1h-1h-1h-1h-1h-1h-1h-1h-1h-1h-1h-1h-1h-2h-1h-1h-1h-1h-1h-1h-1h-1h-1h-1h-1h-2h-1h-1h-1h-1h-1h-1h-1h-2h-1h-1h-1h-1h-1h-2h-1h-1h-1h-1h-1h-2h-1h-1h-1 h-1h-2h-1h-1h-1h-1h-2h-1h-1h-1h-2h-1h-1h-1h-2h-1h-1h-1h-2h-1h-1h-1h-2h-1h-1h-2h-1h-1h-1h-2h-1h-1h-2h-1h-1h-2h-1h-1h-2h-1h-1h-2h-1h-1h-2h-1h-1h-2h-1h-1h-2h-1h-1h-2h-1h-2h-1h-1h-2h-1h-2h-1h-1h-2h-1h-2h-1h-1h-2h-1h-2h-1h-1h-2h-1h-2h-1h-2h-1h-2h-1h-1h-2h-1 h-2h-1h-2h-1h-2h-1h-2h-1h-2h-1h-2h-1h-2h-1h-2h-1h-2h-1h-2h-1h-2h-1h-2h-1h-2h-1h-2h-1h-2h-1h-2h-2h-1h-2h-1h-2h-1h-2h-1h-2h-2h-1h-2h-1h-2h-2h-1h-2h-1h-2h-1h-2h-2h-1h-2h-1h-2h-2h-1h-2h-2h-1h-2h-1h-2h-2h-1h-2h-2h-1h-2h-2h-1h-2h-2h-1h-2h-2h-1h-2h-2h-1h-2h-2 h-1h-2h-2h-1h-2h-2h-1h-2h-2h-2h-1h-2h-2h-1h-2h-2h-2h-1h-2h-2h-1h-2h-2h-2h-1h-2h-2h-2h-1h-2h-2h-2h-1h-2h-2h-2h-2h-1h-2h-2h-2h-1h-2h-2h-2h-2h-1h-2h-2h-2h-2h-1h-2h-2h-2h-2h-2h-1h-2h-2h-2h-2h-2h-1h-2h-2h-2h-2h-2h-2h-1h-2h-2h-2h-2h-2h-2h-2h-1h-2h-2h-2h-2h-2 h-2h-8v-50h834zM690 -146v50h-410v240h400v50h-459v-340h469z" />
<glyph unicode="&#xae00;" d="M867 370v48h-232q34 153 33 340h-463v-49h403q0 -170 -30 -291h-545v-48h834zM697 -151v51h-407v133h382v218h-449v-48h388v-122h-380v-232h466z" />
<glyph unicode="&#xae01;" d="M867 380v48h-232q34 152 33 330h-463v-49h403q0 -160 -30 -281h-545v-48h834zM735 -151v404h-267v-52h208v-352h59zM478 -151v52h-261v131h225v221h-287v-48h228v-125h-226v-231h321z" />
<glyph unicode="&#xae08;" d="M867 347v50h-231q35 178 36 350h-463v-51h403q0 -164 -33 -299h-546v-50h834zM683 -144v338h-458v-338h458zM624 -94h-340v237h340v-237z" />
<glyph unicode="&#xae09;" d="M867 349v48h-235q38 155 36 361h-463v-49h403q0 -185 -33 -312h-542v-48h834zM682 -149v386h-59v-139h-339v139h-58v-386h456zM623 -100h-339v149h339v-149z" />
<glyph unicode="&#xae0b;" d="M867 327v48h-233q33 177 35 372h-463v-51h402q0 -183 -31 -321h-544v-48h834zM717 -108l-257 203q16 48 16 91v38h-58v-30q0 -93 -64 -177t-174 -123l36 -41q71 24 129 75t92 116l242 -191z" />
<glyph unicode="&#xae0d;" d="M867 332v50h-230q33 155 35 365h-463v-51h403q0 -61 -9 -153.5t-25 -160.5h-545v-50h834zM665 25q0 82 -64 134.5t-154 52.5q-87 0 -151.5 -53t-64.5 -134q0 -80 64.5 -134t151.5 -54q88 0 153 53t65 135zM607 25q0 -64 -48 -101t-112 -37q-63 0 -110.5 37t-47.5 101 q0 63 47.5 101t110.5 38t111.5 -38.5t48.5 -100.5z" />
<glyph unicode="&#xae14;" horiz-adv-x="870" d="M773 -115v901h-56v-901h56zM534 672h-414v-49h351q0 -225 -35 -334h60q38 139 38 383zM681 152v47q-202 -32 -438 -30h-204v-50h208q242 0 434 33z" />
<glyph unicode="&#xae30;" horiz-adv-x="850" d="M726 -115v901h-55v-901h55zM463 653h-371v-49h309q-26 -136 -123 -255t-235 -175l36 -36q63 24 127 72t120 113t94 152t43 178z" />
<glyph unicode="&#xae31;" horiz-adv-x="850" d="M724 204v582h-55v-582h55zM459 717h-364v-49h293q-19 -107 -113.5 -210t-236.5 -151l37 -41q153 57 259.5 178.5t124.5 272.5zM702 -162v323h-460v-50h403v-273h57z" />
<glyph unicode="&#xae34;" horiz-adv-x="850" d="M724 140v646h-55v-646h55zM459 707h-364v-49h293q-19 -108 -114 -215.5t-236 -155.5l37 -41q152 56 259 182.5t125 278.5zM735 -141v51h-411v245h-57v-296h468z" />
<glyph unicode="&#xae37;" horiz-adv-x="850" d="M724 234v552h-55v-552h55zM459 717h-364v-49h293q-19 -107 -113.5 -210t-236.5 -151l37 -41q153 57 259.5 178.5t124.5 272.5zM718 -146v50h-410v232h400v49h-456v-331h466z" />
<glyph unicode="&#xae38;" horiz-adv-x="850" d="M724 280v506h-55v-506h55zM459 727h-364v-49h293q-19 -104 -113 -203t-237 -148l37 -41q155 58 260.5 174.5t123.5 266.5zM728 -151v52h-399v125h374v213h-440v-50h380v-116h-375v-224h460z" />
<glyph unicode="&#xae3a;" horiz-adv-x="850" d="M724 280v506h-55v-506h55zM454 727h-364v-49h293q-19 -104 -113 -203t-237 -148l37 -41q154 58 260 174.5t124 266.5zM724 -151v391h-262v-391h262zM447 -151v52h-246v123h209v215h-269v-50h210v-117h-207v-223h303zM667 -102h-149v291h149v-291z" />
<glyph unicode="&#xae40;" horiz-adv-x="850" d="M724 240v546h-55v-546h55zM459 717h-364v-49h293q-19 -105 -113 -204t-237 -147l37 -41q155 58 260.5 174.5t123.5 266.5zM706 -144v336h-446v-336h446zM647 -94h-330v237h330v-237z" />
<glyph unicode="&#xae41;" horiz-adv-x="850" d="M724 258v528h-55v-528h55zM454 727h-364v-49h293q-19 -104 -113 -203t-237 -148l37 -41q154 58 260 174.5t124 266.5zM705 -149v369h-59v-131h-329v131h-57v-369h445zM646 -100h-329v139h329v-139z" />
<glyph unicode="&#xae43;" horiz-adv-x="850" d="M724 171v615h-55v-615h55zM459 707h-364v-49h293q-19 -108 -114 -215.5t-236 -155.5l37 -41q152 56 259 182.5t125 278.5zM749 -110l-258 203q18 47 18 93v48h-61v-40q0 -94 -63.5 -178t-173.5 -122l36 -41q70 24 128 75t93 115l244 -190z" />
<glyph unicode="&#xae45;" horiz-adv-x="850" d="M724 235v551h-55v-551h55zM459 717h-364v-49h293q-19 -107 -113.5 -210t-236.5 -151l37 -41q153 57 259.5 178.5t124.5 272.5zM701 32q0 84 -62.5 140t-151.5 56q-88 0 -151 -58t-63 -138q0 -85 63.5 -140.5t151.5 -55.5q89 0 151 55.5t62 140.5zM644 32 q0 -60 -46.5 -103t-110.5 -43q-62 0 -108.5 44t-46.5 102q0 59 45.5 102.5t109.5 43.5q65 0 111 -42.5t46 -103.5z" />
<glyph unicode="&#xae46;" horiz-adv-x="850" d="M724 250v536h-55v-536h55zM454 717h-364v-49h293q-19 -107 -113.5 -210t-236.5 -151l37 -41q153 57 259.5 178.5t124.5 272.5zM773 -103q-14 8 -38 21t-74 40.5t-83 45.5l-33 18q107 92 137 181h-426v-48h331q-67 -90 -171.5 -159.5t-215.5 -96.5l33 -43q130 31 266 130 l241 -132z" />
<glyph unicode="&#xae4a;" horiz-adv-x="850" d="M724 247v539h-55v-539h55zM454 717h-364v-49h293q-19 -107 -113.5 -210t-236.5 -151l37 -41q153 57 259.5 178.5t124.5 272.5zM722 -141v50h-103v244h101v50h-503v-50h98v-244h-100v-50h507zM562 -91h-191v244h191v-244z" />
<glyph unicode="&#xae4c;" horiz-adv-x="920" d="M919 373v49h-173v364h-56v-901h56v488h173zM562 654h-229v-49h165q-13 -117 -67 -235.5t-152 -192.5l45 -32q101 76 162.5 210.5t75.5 298.5zM322 654h-256v-49h193q-6 -48 -21 -99t-42.5 -109.5t-74.5 -113.5t-107 -93l43 -35q110 73 183 208.5t82 290.5z" />
<glyph unicode="&#xae4d;" horiz-adv-x="920" d="M909 489v52h-166v245h-56v-580h56v283h166zM554 717h-236v-49h171q-40 -249 -216 -348l38 -38q63 36 110.5 90t74.5 114.5t41 117.5t17 113zM305 717h-247v-49h180q-5 -38 -19 -80.5t-39.5 -89.5t-69.5 -91t-100 -75l37 -37q227 124 258 422zM732 -162v323h-459v-50h402 v-273h57z" />
<glyph unicode="&#xae4e;" horiz-adv-x="920" d="M909 489v52h-166v245h-56v-571h56v274h166zM554 717h-236v-49h171q-40 -249 -216 -348l38 -38q63 36 110.5 90t74.5 114.5t41 117.5t17 113zM305 717h-247v-49h180q-5 -38 -19 -80.5t-39.5 -89.5t-69.5 -91t-100 -75l37 -37q227 124 258 422zM735 -162v333h-259v-50h203 v-283h56zM456 -162v333h-276v-50h221v-283h55z" />
<glyph unicode="&#xae50;" horiz-adv-x="920" d="M909 452v50h-166v284h-56v-650h56v316h166zM554 707h-236v-49h171q-42 -260 -216 -358l38 -38q63 36 110.5 91.5t74.5 118t41 121t17 114.5zM305 707h-247v-49h180q-6 -54 -28 -112.5t-74.5 -126t-125.5 -107.5l37 -37q122 67 183 183t75 249zM756 -141v51h-411v245h-56 v-296h467z" />
<glyph unicode="&#xae54;" horiz-adv-x="920" d="M912 508v50h-166v228h-56v-508h56v230h166zM556 727h-236v-49h171q-37 -227 -216 -328l38 -38q63 36 110.5 87t74.5 107.5t41 111t17 109.5zM307 727h-247v-49h180q-10 -83 -65.5 -170t-162.5 -146l37 -37q229 126 258 402zM750 -152v52h-400v122h375v214h-440v-50h380 v-116h-375v-222h460z" />
<glyph unicode="&#xae56;" horiz-adv-x="920" d="M913 508v50h-166v228h-55v-510h55v232h166zM559 727h-236v-49h171q-37 -227 -216 -328l38 -38q63 36 110.5 87t74.5 107.5t41 111t17 109.5zM310 727h-247v-49h180q-10 -83 -65.5 -170t-162.5 -146l37 -37q229 126 258 402zM749 -151v390h-265v-390h265zM467 -151v52 h-246v123h222v215h-285v-50h225v-117h-223v-223h307zM691 -102h-151v290h151v-290z" />
<glyph unicode="&#xae5c;" horiz-adv-x="920" d="M909 489v52h-166v245h-56v-571h56v274h166zM554 717h-236v-49h171q-40 -249 -216 -348l38 -38q63 36 110.5 90t74.5 114.5t41 117.5t17 113zM305 717h-247v-49h180q-5 -38 -19 -80.5t-39.5 -89.5t-69.5 -91t-100 -75l37 -37q227 124 258 422zM731 -144v316h-457v-316h457 zM672 -94h-340v217h340v-217z" />
<glyph unicode="&#xae5d;" horiz-adv-x="920" d="M909 511v50h-166v224h-56v-527h56v253h166zM554 727h-236v-49h171q-37 -227 -216 -328l38 -38q63 36 110.5 87t74.5 107.5t41 111t17 109.5zM305 727h-247v-49h180q-10 -83 -65.5 -170t-162.5 -146l37 -37q229 126 258 402zM735 -149v369h-59v-131h-339v131h-57v-369h455 zM676 -100h-339v139h339v-139z" />
<glyph unicode="&#xae5f;" horiz-adv-x="920" d="M909 478v52h-165v255h-57v-614h57v307h165zM554 707h-236v-49h171q-40 -249 -216 -348l38 -38q63 36 110.5 90t74.5 114.5t41 117.5t17 113zM305 707h-247v-49h180q-5 -38 -19 -80.5t-39.5 -89.5t-69.5 -91t-100 -75l37 -37q227 124 258 422zM777 -110q-16 13 -42.5 34 t-82.5 65.5t-93 74.5l-37 29q18 47 18 93v48h-61v-40q0 -93 -64 -177t-174 -123l36 -41q71 24 129 75t93 115l241 -190z" />
<glyph unicode="&#xae60;" horiz-adv-x="920" d="M909 489v52h-165v244h-57v-553h57v257h165zM554 717h-236v-49h171q-40 -249 -216 -348l38 -38q63 36 110.5 90t74.5 114.5t41 117.5t17 113zM305 717h-247v-49h180q-5 -38 -19 -80.5t-39.5 -89.5t-69.5 -91t-100 -75l37 -37q227 124 258 422zM822 -106l-177 163 q10 37 11 75v57h-59v-54q0 -62 -33.5 -124.5t-83.5 -93.5l-132 133q10 36 13 83v56h-58v-54q0 -74 -45 -141t-120 -99l35 -43q105 57 153 144l149 -149q39 17 81 57t70 98l161 -146z" />
<glyph unicode="&#xae61;" horiz-adv-x="920" d="M909 489v52h-166v245h-56v-571h56v274h166zM554 717h-236v-49h171q-40 -249 -216 -348l38 -38q63 36 110.5 90t74.5 114.5t41 117.5t17 113zM305 717h-247v-49h180q-5 -38 -19 -80.5t-39.5 -89.5t-69.5 -91t-100 -75l37 -37q227 124 258 422zM735 23q0 83 -62 134.5 t-152 51.5q-89 0 -151.5 -53.5t-62.5 -132.5q0 -84 63 -135t152 -51q90 0 151.5 51t61.5 135zM678 23q0 -59 -46 -97.5t-111 -38.5q-63 0 -109 39.5t-46 96.5q0 58 45 97t110 39q67 0 112 -38t45 -98z" />
<glyph unicode="&#xae65;" horiz-adv-x="920" d="M910 511v50h-166v224h-56v-527h56v253h166zM554 727h-236v-49h171q-37 -227 -216 -328l38 -38q63 36 110.5 87t74.5 107.5t41 111t17 109.5zM305 727h-247v-49h180q-10 -83 -65.5 -170t-162.5 -146l37 -37q229 126 258 402zM739 -151v49h-402v114h382v50h-382v108h394v49 h-449v-370h457z" />
<glyph unicode="&#xae68;" horiz-adv-x="920" d="M845 -115v901h-55v-364h-145v343h-55v-815h55v422h145v-487h55zM516 654h-215v-49h149q-11 -116 -65.5 -235t-151.5 -193l44 -32q101 75 162.5 209t76.5 300zM291 654h-234v-49h170q-4 -48 -16.5 -98t-36.5 -109t-68 -114.5t-102 -93.5l43 -35q107 71 171.5 206t72.5 293 z" />
<glyph unicode="&#xae69;" horiz-adv-x="920" d="M840 214v572h-56v-257h-146v235h-56v-538h56v254h146v-266h56zM508 717h-208v-49h145q-40 -252 -211 -350l37 -37q58 34 104 88t73 115t42 119.5t18 113.5zM289 717h-221v-49h153q-6 -54 -25 -109t-67.5 -120t-118.5 -105l38 -38q209 128 241 421zM796 -162v323h-459v-50 h402v-273h57z" />
<glyph unicode="&#xae6c;" horiz-adv-x="920" d="M840 130v656h-56v-270h-146v248h-56v-592h56v295h146v-337h56zM508 707h-208v-49h145q-42 -263 -211 -360l37 -37q58 34 104 89.5t73 118.5t42 123t18 115zM289 707h-221v-49h153q-6 -55 -25 -112t-67.5 -124.5t-118.5 -107.5l38 -38q207 127 241 431zM832 -141v51h-411 v245h-58v-296h469z" />
<glyph unicode="&#xae70;" horiz-adv-x="920" d="M840 280v506h-56v-233h-146v211h-56v-473h56v213h146v-224h56zM508 727h-208v-49h145q-37 -230 -211 -330l37 -37q77 44 131.5 119t78 149t27.5 148zM289 727h-221v-49h153q-6 -52 -25 -103.5t-67.5 -110.5t-118.5 -100l38 -38q119 73 173 172.5t68 228.5zM818 -151v52 h-400v126h376v213h-443v-50h384v-116h-379v-225h462z" />
<glyph unicode="&#xae78;" horiz-adv-x="920" d="M840 225v561h-56v-257h-146v235h-56v-528h56v244h146v-255h56zM508 717h-208v-49h145q-40 -252 -211 -350l37 -37q58 34 104 88t73 115t42 119.5t18 113.5zM289 717h-221v-49h153q-6 -54 -25 -109t-67.5 -120t-118.5 -105l38 -38q209 128 241 421zM805 -144v326h-457 v-326h457zM748 -94h-341v227h341v-227z" />
<glyph unicode="&#xae79;" horiz-adv-x="920" d="M840 268v518h-56v-223h-146v201h-56v-487h56v237h146v-246h56zM508 727h-208v-49h145q-37 -230 -211 -330l37 -37q77 44 131.5 119t78 149t27.5 148zM289 727h-221v-49h153q-6 -52 -25 -103.5t-67.5 -110.5t-118.5 -100l38 -38q119 73 173 172.5t68 228.5zM788 -149v369 h-58v-131h-329v131h-58v-369h445zM730 -100h-329v139h329v-139z" />
<glyph unicode="&#xae7b;" horiz-adv-x="920" d="M840 204v582h-56v-240h-146v218h-56v-508h56v241h146v-293h56zM508 707h-208v-49h145q-40 -252 -211 -350l37 -37q58 34 104 88t73 115t42 119.5t18 113.5zM289 707h-221v-49h153q-6 -54 -25 -109t-67.5 -120t-118.5 -105l38 -38q209 128 241 421zM814 -102 q-16 12 -42.5 32.5t-82.5 63.5t-93 71l-38 28q18 47 18 93v27h-60v-19q0 -93 -64 -177t-174 -123l36 -41q70 24 128 75t93 115l242 -190z" />
<glyph unicode="&#xae7c;" horiz-adv-x="920" d="M840 217v569h-56v-237h-146v215h-56v-528h56v264h146v-283h56zM508 717h-208v-49h145q-40 -252 -211 -350l37 -37q58 34 104 88t73 115t42 119.5t18 113.5zM289 717h-221v-49h153q-6 -54 -25 -109t-67.5 -120t-118.5 -105l38 -38q209 128 241 421zM872 -106l-177 163 q10 37 11 75v57h-59v-54q0 -62 -33.5 -124.5t-83.5 -93.5l-132 133q10 36 13 83v56h-58v-54q0 -74 -45 -141t-120 -99l35 -43q105 57 153 144l149 -149q39 17 81 57t70 98l161 -146z" />
<glyph unicode="&#xae7d;" horiz-adv-x="920" d="M840 225v561h-56v-237h-146v215h-56v-497h56v233h146v-275h56zM508 717h-208v-49h145q-40 -252 -211 -350l37 -37q58 34 104 88t73 115t42 119.5t18 113.5zM289 717h-221v-49h153q-6 -54 -25 -109t-67.5 -120t-118.5 -105l38 -38q209 128 241 421zM795 33q0 84 -62.5 140 t-151.5 56q-88 0 -151 -58t-63 -138q0 -85 63.5 -140.5t151.5 -55.5q89 0 151 55.5t62 140.5zM738 33q0 -60 -46.5 -103t-110.5 -43q-62 0 -108.5 44t-46.5 102q0 59 45.5 102.5t109.5 43.5q65 0 111 -42.5t46 -103.5z" />
<glyph unicode="&#xae84;" horiz-adv-x="920" d="M906 246v49h-173v196h173v51h-173v244h-55v-901h55v361h173zM550 654h-229v-49h165q-13 -117 -67 -235.5t-152 -192.5l45 -32q101 76 162.5 210.5t75.5 298.5zM310 654h-256v-49h193q-6 -48 -21 -99t-42.5 -109.5t-74.5 -113.5t-107 -93l43 -35q110 73 183 208.5 t82 290.5z" />
<glyph unicode="&#xae85;" horiz-adv-x="920" d="M909 368v49h-171v157h171v49h-171v163h-54v-580h54v162h171zM554 717h-236v-49h171q-40 -249 -216 -348l38 -38q63 36 110.5 90t74.5 114.5t41 117.5t17 113zM305 717h-247v-49h180q-5 -38 -19 -80.5t-39.5 -89.5t-69.5 -91t-100 -75l37 -37q227 124 258 422zM732 -162 v323h-458v-50h402v-273h56z" />
<glyph unicode="&#xae8c;" horiz-adv-x="920" d="M909 418v49h-171v123h171v51h-171v145h-54v-515h54v147h171zM554 727h-236v-49h171q-37 -227 -216 -328l38 -38q63 36 110.5 87t74.5 107.5t41 111t17 109.5zM305 727h-247v-49h180q-10 -83 -65.5 -170t-162.5 -146l37 -37q229 126 258 402zM751 -152v52h-399v122h373 v214h-440v-50h380v-116h-375v-222h461z" />
<glyph unicode="&#xaebc;" horiz-adv-x="880" d="M795 -115v901h-55v-363h-190v-50h190v-488h55zM572 654h-229v-49h165q-13 -117 -67 -235.5t-152 -192.5l45 -32q101 76 162.5 210.5t75.5 298.5zM332 654h-256v-49h193q-6 -48 -21 -99t-42.5 -109.5t-74.5 -113.5t-107 -93l43 -35q110 73 183 208.5t82 290.5z" />
<glyph unicode="&#xaebd;" horiz-adv-x="880" d="M778 204v582h-57v-261h-188v-49h188v-272h57zM559 717h-236v-49h171q-40 -249 -216 -348l38 -38q63 36 110.5 90t74.5 114.5t41 117.5t17 113zM310 717h-247v-49h180q-5 -38 -19 -80.5t-39.5 -89.5t-69.5 -91t-100 -75l37 -37q227 124 258 422zM754 -162v323h-459v-50 h403v-273h56z" />
<glyph unicode="&#xaebe;" horiz-adv-x="880" d="M778 215v571h-57v-261h-188v-49h188v-261h57zM559 717h-236v-49h171q-40 -249 -216 -348l38 -38q63 36 110.5 90t74.5 114.5t41 117.5t17 113zM310 717h-247v-49h180q-5 -38 -19 -80.5t-39.5 -89.5t-69.5 -91t-100 -75l37 -37q227 124 258 422zM768 -162v333h-262v-50 h206v-283h56zM488 -162v333h-275v-50h220v-283h55z" />
<glyph unicode="&#xaec0;" horiz-adv-x="880" d="M778 140v646h-57v-281h-188v-49h188v-316h57zM559 707h-236v-49h171q-42 -260 -216 -358l38 -38q63 36 110.5 91.5t74.5 118t41 121t17 114.5zM310 707h-247v-49h180q-6 -54 -28 -112.5t-74.5 -126t-125.5 -107.5l37 -37q122 67 183 183t75 249zM789 -141v51h-411v245 h-56v-296h467z" />
<glyph unicode="&#xaec4;" horiz-adv-x="880" d="M778 280v506h-57v-228h-188v-49h188v-229h57zM559 727h-236v-49h171q-37 -227 -216 -328l38 -38q63 36 110.5 87t74.5 107.5t41 111t17 109.5zM310 727h-247v-49h180q-10 -83 -65.5 -170t-162.5 -146l37 -37q229 126 258 402zM770 -151v52h-399v125h374v213h-440v-50h380 v-116h-374v-224h459z" />
<glyph unicode="&#xaecc;" horiz-adv-x="880" d="M778 231v555h-57v-261h-188v-49h188v-245h57zM559 717h-236v-49h171q-40 -249 -216 -348l38 -38q63 36 110.5 90t74.5 114.5t41 117.5t17 113zM310 717h-247v-49h180q-5 -38 -19 -80.5t-39.5 -89.5t-69.5 -91t-100 -75l37 -37q227 124 258 422zM759 -144v336h-446v-336 h446zM700 -94h-330v237h330v-237z" />
<glyph unicode="&#xaecd;" horiz-adv-x="880" d="M778 258v528h-57v-228h-188v-49h188v-251h57zM559 727h-236v-49h171q-37 -227 -216 -328l38 -38q63 36 110.5 87t74.5 107.5t41 111t17 109.5zM310 727h-247v-49h180q-10 -83 -65.5 -170t-162.5 -146l37 -37q229 126 258 402zM758 -149v369h-59v-131h-329v131h-57v-369 h445zM699 -100h-329v139h329v-139z" />
<glyph unicode="&#xaecf;" horiz-adv-x="880" d="M778 171v614h-57v-270h-188v-49h188v-295h57zM559 707h-236v-49h171q-40 -249 -216 -348l38 -38q63 36 110.5 90t74.5 114.5t41 117.5t17 113zM310 707h-247v-49h180q-5 -38 -19 -80.5t-39.5 -89.5t-69.5 -91t-100 -75l37 -37q227 124 258 422zM798 -110q-16 13 -42.5 34 t-82.5 65.5t-93 74.5l-37 29q18 47 18 93v48h-61v-40q0 -93 -64 -177t-174 -123l36 -41q71 24 129 75t93 115l241 -190z" />
<glyph unicode="&#xaed0;" horiz-adv-x="880" d="M778 227v559h-57v-261h-188v-49h188v-249h57zM559 717h-236v-49h171q-40 -249 -216 -348l38 -38q63 36 110.5 90t74.5 114.5t41 117.5t17 113zM310 717h-247v-49h180q-5 -38 -19 -80.5t-39.5 -89.5t-69.5 -91t-100 -75l37 -37q227 124 258 422zM842 -106l-177 163 q10 37 11 75v54l-59 3v-54q0 -62 -33.5 -124.5t-83.5 -93.5l-132 133q10 36 13 83v56h-58v-54q0 -74 -45 -141t-120 -99l35 -43q105 57 153 144l149 -149q39 17 81 57t70 98l161 -146z" />
<glyph unicode="&#xaed1;" horiz-adv-x="880" d="M778 205v581h-57v-261h-188v-49h188v-271h57zM559 717h-236v-49h171q-40 -249 -216 -348l38 -38q63 36 110.5 90t74.5 114.5t41 117.5t17 113zM310 717h-247v-49h180q-5 -38 -19 -80.5t-39.5 -89.5t-69.5 -91t-100 -75l37 -37q227 124 258 422zM755 23q0 83 -62 134.5 t-152 51.5q-89 0 -151.5 -53.5t-62.5 -132.5q0 -84 63 -135t152 -51q90 0 151.5 51t61.5 135zM698 23q0 -59 -46 -97.5t-111 -38.5q-63 0 -109 39.5t-46 96.5q0 58 45 97t110 39q67 0 112 -38t45 -98z" />
<glyph unicode="&#xaed8;" horiz-adv-x="920" d="M850 -115v901h-55v-901h55zM672 -50v815h-57v-342h-143q38 109 49 231h-215v-49h149q-11 -116 -65.5 -235t-151.5 -193l44 -32q106 78 171 228h162v-423h57zM296 654h-234v-49h170q-4 -48 -16.5 -98t-36.5 -109t-68 -114.5t-102 -93.5l43 -35q107 71 171.5 206t72.5 293z " />
<glyph unicode="&#xaed9;" horiz-adv-x="920" d="M840 214v572h-56v-572h56zM668 226v538h-56v-245h-149q40 102 45 198h-208v-49h145q-40 -252 -211 -350l37 -37q107 61 170 189h171v-244h56zM289 717h-221v-49h153q-6 -54 -25 -109t-67.5 -120t-118.5 -105l38 -38q209 128 241 421zM796 -162v323h-459v-50h402v-273h57z " />
<glyph unicode="&#xaedc;" horiz-adv-x="920" d="M840 130v656h-56v-656h56zM666 172v592h-56v-248h-142q38 101 43 201h-208v-49h145q-44 -274 -211 -370l37 -37q108 62 174 206h162v-295h56zM292 717h-221v-49h153q-4 -40 -16.5 -83.5t-36 -94.5t-64.5 -98t-94 -78l38 -38q206 126 241 441zM832 -141v51h-411v245h-58 v-296h469z" />
<glyph unicode="&#xaee8;" horiz-adv-x="920" d="M840 225v561h-56v-561h56zM668 236v528h-56v-235h-145q36 95 41 188h-208v-49h145q-40 -252 -211 -350l37 -37q110 63 175 199h166v-244h56zM289 717h-221v-49h153q-6 -54 -25 -109t-67.5 -120t-118.5 -105l38 -38q209 128 241 421zM805 -144v326h-446v-326h446zM748 -94 h-330v227h330v-227z" />
<glyph unicode="&#xaeeb;" horiz-adv-x="920" d="M840 214v572h-56v-572h56zM670 256v508h-56v-245h-145q36 95 41 188h-208v-49h145q-40 -252 -211 -350l37 -37q110 63 175 199h166v-214h56zM291 707h-221v-49h153q-6 -54 -25 -109t-67.5 -120t-118.5 -105l38 -38q209 128 241 421zM834 -110l-255 204q17 49 17 92v27 h-60v-19q0 -93 -64 -177t-174 -123l36 -41q71 24 129 75.5t93 115.5l241 -191z" />
<glyph unicode="&#xaeed;" horiz-adv-x="920" d="M840 205v581h-56v-581h56zM663 246v518h-56v-235h-145q36 95 41 188h-208v-49h145q-40 -252 -211 -350l37 -37q110 63 175 199h166v-234h56zM284 717h-221v-49h153q-6 -54 -25 -109t-67.5 -120t-118.5 -105l38 -38q209 128 241 421zM795 23q0 83 -62 134.5t-152 51.5 q-89 0 -151.5 -53.5t-62.5 -132.5q0 -84 63 -135t152 -51q90 0 151.5 51t61.5 135zM738 23q0 -59 -46 -97.5t-111 -38.5q-63 0 -109 39.5t-46 96.5q0 58 45 97t110 39q67 0 112 -38t45 -98z" />
<glyph unicode="&#xaef4;" horiz-adv-x="880" d="M790 -115v901h-55v-262h-179v-49h179v-170h-179v-49h179v-371h55zM557 654h-229v-49h165q-13 -117 -67 -235.5t-152 -192.5l45 -32q101 76 162.5 210.5t75.5 298.5zM317 654h-256v-49h193q-6 -48 -21 -99t-42.5 -109.5t-74.5 -113.5t-107 -93l43 -35q110 73 183 208.5 t82 290.5z" />
<glyph unicode="&#xaef8;" horiz-adv-x="880" d="M782 137v649h-55v-204h-176v-51h176v-145h-176v-51h176v-198h55zM553 707h-236v-49h171q-42 -260 -216 -358l38 -38q63 36 110.5 91.5t74.5 118t41 121t17 114.5zM304 707h-247v-49h180q-6 -54 -28 -112.5t-74.5 -126t-125.5 -107.5l37 -37q122 67 183 183t75 249z M799 -141v51h-411v245h-56v-296h467z" />
<glyph unicode="&#xaefc;" horiz-adv-x="880" d="M771 274v512h-55v-161h-176v-51h176v-124h-176v-49h176v-127h55zM553 727h-236v-49h171q-37 -227 -216 -328l38 -38q63 36 110.5 87t74.5 107.5t41 111t17 109.5zM304 727h-247v-49h180q-10 -83 -65.5 -170t-162.5 -146l37 -37q229 126 258 402zM770 -151v52h-399v125 h374v213h-440v-50h380v-116h-374v-224h459z" />
<glyph unicode="&#xaf07;" horiz-adv-x="880" d="M782 173v613h-54v-194h-178v-49h178v-136h-178v-49h178v-185h54zM553 707h-236v-49h171q-40 -249 -216 -348l38 -38q63 36 110.5 90t74.5 114.5t41 117.5t17 113zM304 707h-247v-49h180q-5 -38 -19 -80.5t-39.5 -89.5t-69.5 -91t-100 -75l37 -37q227 124 258 422z M794 -110q-16 13 -42.5 34t-82.5 65.5t-93 74.5l-38 29q18 47 18 93v48h-60v-40q0 -93 -64 -177t-174 -123l36 -41q70 24 128 75t93 115l242 -190z" />
<glyph unicode="&#xaf08;" horiz-adv-x="880" d="M780 223v563h-54v-184h-178v-49h178v-136h-178v-49h178v-145h54zM551 717h-236v-49h171q-40 -249 -216 -348l38 -38q63 36 110.5 90t74.5 114.5t41 117.5t17 113zM302 717h-247v-49h180q-5 -38 -19 -80.5t-39.5 -89.5t-69.5 -91t-100 -75l37 -37q227 124 258 422z M834 -106l-177 163q10 37 11 75v57h-59v-54q0 -62 -33.5 -124.5t-83.5 -93.5l-130 133q10 36 13 83v56h-58v-54q0 -74 -46 -141t-121 -99l35 -43q108 59 155 144l147 -149q39 17 81 57t70 98l161 -146z" />
<glyph unicode="&#xaf0d;" horiz-adv-x="880" d="M771 259v527h-55v-161h-176v-51h176v-124h-176v-49h176v-142h55zM553 727h-236v-49h171q-37 -227 -216 -328l38 -38q63 36 110.5 87t74.5 107.5t41 111t17 109.5zM304 727h-247v-49h180q-10 -83 -65.5 -170t-162.5 -146l37 -37q229 126 258 402zM765 -151v49h-402v117 h380v50h-380v110h391v49h-447v-375h458z" />
<glyph unicode="&#xaf10;" horiz-adv-x="920" d="M851 -115v901h-57v-901h57zM672 -50v815h-57v-241h-115q15 62 21 130h-215v-49h149q-11 -116 -65.5 -235t-151.5 -193l44 -32q143 107 206 330h127v-169h-159v-50h159v-306h57zM296 654h-234v-49h170q-4 -48 -16.5 -98t-36.5 -109t-68 -114.5t-102 -93.5l43 -35 q107 71 171.5 206t72.5 293z" />
<glyph unicode="&#xaf2c;" d="M729 488v190h-286v-49h227v-130q0 -169 -48 -283h62q45 111 45 272zM406 488v190h-280v-49h223v-130q0 -169 -49 -283h61q45 117 45 272zM866 3v50h-361v314h-57v-314h-415v-50h833z" />
<glyph unicode="&#xaf2d;" d="M708 748h-260v-51h202q0 -157 -44 -287h55q47 126 47 338zM408 748h-264v-51h206q0 -157 -44 -287h55q47 126 47 338zM867 283v50h-369v191h-58v-191h-407v-50h834zM673 -162v317h-460v-50h403v-267h57z" />
<glyph unicode="&#xaf30;" d="M708 743h-260v-51h202q0 -165 -44 -295h55q47 126 47 346zM408 743h-264v-51h206q0 -165 -44 -295h55q47 126 47 346zM867 270v50h-369v201h-58v-201h-407v-50h834zM698 -140v51h-417v232h-56v-283h473z" />
<glyph unicode="&#xaf32;" d="M707 753h-260v-51h202q0 -82 -11 -136.5t-33 -120.5h55q47 126 47 308zM866 328v50h-369v181h-58v-181h-407v-50h834zM407 753h-264v-51h206q0 -82 -11 -136.5t-33 -120.5h55q47 126 47 308zM720 175v50q-78 -7 -133 0q-42 4 -93 20l-17 -41q57 -25 106 -29q48 -4 137 0z M809 59v48h-398v-48v0v0h1v0h1v0h1h1h1h1h1h1h1h1h1h1h1h1h1h1h1h1h1h1h1h1h1h1h1h1h1h2h1h1h1h1h1h1h2h1h1h1h2h1h1h1h2h1h1h2h1h1h2h1h2h1h2h1h1h2h1h2h1h2h1h2h1h2h2h1h2h1h2h1h2h2h1h2h2h1h2h2h1h2h2h2h1h2h2h2h1h2h2h2h1h2h2h2h2h2h8q-39 -12 -62.5 -39t-24.5 -68 q-1 -55 41.5 -88t104.5 -33q66 0 109 30.5t43 89.5q0 40 -25 68t-67 40h139zM446 -141v51h-237v278h-59v-329h296zM702 -51q0 -35 -26.5 -54.5t-65.5 -18.5q-38 1 -62.5 21.5t-24.5 56.5q0 35 26 54.5t64 18.5t63.5 -21t25.5 -57z" />
<glyph unicode="&#xaf34;" d="M707 758h-260v-51h202q0 -82 -11 -137t-33 -121h55q47 126 47 309zM866 333v50h-369v181h-58v-181h-407v-50h834zM407 758h-264v-51h206q0 -82 -11 -137t-33 -121h55q47 126 47 309zM693 -151v51h-407v120h382v213h-449v-47h388v-119h-380v-218h466z" />
<glyph unicode="&#xaf3c;" d="M708 748h-260v-51h202q0 -157 -44 -287h55q47 126 47 338zM408 748h-264v-51h206q0 -157 -44 -287h55q47 126 47 338zM867 293v50h-369v181h-58v-181h-407v-50h834zM682 -144v325h-458v-325h458zM623 -94h-340v226h340v-226z" />
<glyph unicode="&#xaf3d;" d="M708 758h-260v-51h202q0 -138 -44 -268h55q47 126 47 319zM867 313v50h-369v191h-58v-191h-407v-50h834zM408 758h-264v-51h206q0 -138 -44 -268h55q47 126 47 319zM681 -149v369h-59v-126h-339v126h-58v-369h456zM622 -100h-339v144h339v-144z" />
<glyph unicode="&#xaf3f;" d="M708 748h-260v-51h202q0 -157 -44 -287h55q47 126 47 338zM408 748h-264v-51h206q0 -157 -44 -287h55q47 126 47 338zM867 293v50h-369v201h-58v-201h-407v-50h834zM726 -103q-16 12 -43 32.5t-84 63t-95 70.5l-38 28q18 50 18 95v18h-61v-10q0 -94 -63 -177.5 t-173 -121.5l36 -42q70 24 127.5 74.5t92.5 113.5l246 -186z" />
<glyph unicode="&#xaf41;" d="M707 748h-260v-51h202q0 -157 -44 -287h55q47 126 47 338zM407 748h-264v-51h206q0 -157 -44 -287h55q47 126 47 338zM866 292v50h-369v191h-58v-191h-407v-50h834zM668 17q0 77 -64 128t-154 51q-87 0 -151.5 -51t-64.5 -128q0 -78 64.5 -129t151.5 -51q88 0 153 51 t65 129zM610 17q0 -57 -48.5 -93.5t-111.5 -36.5q-61 0 -110 37t-49 93q0 59 48 95t111 36q62 0 111 -37t49 -94z" />
<glyph unicode="&#xaf42;" d="M707 748h-260v-51h202q0 -138 -44 -268h55q47 126 47 319zM866 303v50h-369v191h-58v-191h-407v-50h834zM407 748h-264v-51h206q0 -138 -44 -268h55q47 126 47 319zM749 -105l-223 124q104 86 134 174h-425v-48h333q-65 -87 -169.5 -151.5t-218.5 -92.5l33 -43 q133 31 268 127l232 -133z" />
<glyph unicode="&#xaf43;" d="M710 758h-262v-51h204q0 -82 -11 -137t-33 -121h55q47 126 47 309zM867 333v50h-369v181h-58v-181h-407v-50h834zM408 758h-264v-51h206q0 -82 -11 -137t-33 -121h55q47 126 47 309zM593 209v48q-138 -4 -193 1q-45 4 -95 22l-16 -41q54 -25 107 -30q85 -7 197 0z M751 -109l-217 101q89 68 130 149h-432v-46h330q-48 -63 -144.5 -117t-236.5 -85l31 -44q147 29 273 109l230 -108z" />
<glyph unicode="&#xaf48;" horiz-adv-x="940" d="M911 373v49h-169v364h-56v-901h56v488h169zM536 672h-243v-49h185q0 -70 -10 -169t-28 -154h59q35 141 37 372zM272 672h-237v-49h180q0 -67 -11 -167.5t-28 -155.5h58q36 133 38 372zM655 140v49q-125 -23 -314 -28v251h-56v-254h-275v-49h192q277 0 453 31z" />
<glyph unicode="&#xaf49;" horiz-adv-x="940" d="M909 486v53h-163v246h-55v-589h55v290h163zM534 717h-241v-48h185q1 -138 -33 -259h53q36 115 36 307zM271 717h-228v-48h172q-3 -149 -36 -261h53q35 109 39 309zM654 285v47q-128 -23 -307 -27v198h-55v-198h-275v-49h222q241 0 415 29zM740 -162v312h-470v-50h414 v-262h56z" />
<glyph unicode="&#xaf50;" horiz-adv-x="940" d="M911 511v50h-167v225h-55v-520h55v245h167zM532 727h-241v-48h185q1 -119 -33 -239h53q21 69 28.5 128t7.5 159zM269 727h-228v-48h172q-2 -127 -36 -241h53q36 110 39 289zM652 325v47q-128 -23 -307 -27v188h-55v-188h-275v-49h222q241 0 415 29zM751 -151v52h-411v119 h385v208h-450v-49h390v-111h-385v-219h471z" />
<glyph unicode="&#xaf5c;" horiz-adv-x="940" d="M906 486v53h-163v246h-55v-579h55v280h163zM531 717h-241v-48h185q1 -138 -33 -259h53q36 115 36 307zM268 717h-228v-48h172q-3 -149 -36 -261h53q35 109 39 309zM651 305v47q-128 -23 -307 -27v198h-55v-198h-275v-49h222q241 0 415 29zM799 -96l-179 163q10 44 11 75 v29h-59v-26q0 -64 -29.5 -124t-84.5 -95l-133 130q13 44 16 87v28h-59v-26q0 -68 -43.5 -134.5t-121.5 -105.5l34 -42q98 49 150 143l151 -149q94 42 150 155l161 -146z" />
<glyph unicode="&#xaf5d;" horiz-adv-x="940" d="M916 486v53h-163v246h-55v-587h55v288h163zM541 717h-241v-48h185q1 -129 -33 -249h53q21 68 28.5 131.5t7.5 165.5zM278 717h-228v-48h172q-3 -138 -36 -251h53q36 109 39 299zM661 305v47q-128 -23 -307 -27v188h-55v-188h-275v-49h222q241 0 415 29zM739 17 q0 77 -62 129t-147 52q-86 0 -148.5 -52t-62.5 -129t62.5 -129t148.5 -52q85 0 147 52t62 129zM681 17q0 -58 -45 -95t-106 -37t-106.5 38.5t-45.5 93.5q0 56 44.5 94.5t107.5 38.5q62 0 106.5 -36.5t44.5 -96.5z" />
<glyph unicode="&#xaf64;" horiz-adv-x="940" d="M848 -115v901h-55v-364h-136v343h-56v-815h56v422h136v-487h55zM491 672h-217v-49h160q0 -71 -10 -174.5t-28 -158.5h58q35 134 37 382zM254 672h-215v-49h158q0 -72 -10.5 -175t-28.5 -158h60q34 136 36 382zM571 140v49q-128 -25 -247 -28v251h-57v-254h-258v-49h182 q38 0 70.5 0.5t62 2t49.5 2t44.5 3t35.5 3.5t33.5 5t27.5 4.5t29.5 5t27.5 5.5z" />
<glyph unicode="&#xaf65;" horiz-adv-x="940" d="M840 204v582h-56v-257h-130v235h-56v-551h56v265h130v-274h56zM489 717h-210v-48h154q-3 -158 -33 -259h54q35 128 35 307zM247 717h-207v-48h151q-3 -165 -34 -259h56q34 120 34 307zM567 293v47q-129 -24 -245 -27v198h-57v-198h-247v-49h182q99 0 174.5 5t101 9 t91.5 15zM796 -162v312h-469v-50h414v-262h55z" />
<glyph unicode="&#xaf79;" horiz-adv-x="940" d="M840 194v592h-56v-257h-130v235h-56v-531h56v245h130v-284h56zM489 717h-210v-48h154q-3 -158 -33 -259h54q35 128 35 307zM247 717h-207v-48h151q-3 -165 -34 -259h56q34 120 34 307zM567 303v47q-129 -24 -245 -27v198h-57v-198h-247v-49h182q99 0 174.5 5t101 9 t91.5 15zM789 17q0 77 -62 129t-147 52q-86 0 -148.5 -52t-62.5 -129t62.5 -129t148.5 -52q85 0 147 52t62 129zM731 17q0 -58 -45 -95t-106 -37t-106.5 38.5t-45.5 93.5q0 56 44.5 94.5t107.5 38.5q62 0 106.5 -36.5t44.5 -96.5z" />
<glyph unicode="&#xaf80;" horiz-adv-x="890" d="M798 -115v901h-55v-901h55zM586 672h-243v-49h185q0 -70 -10 -169t-28 -154h59q35 141 37 372zM322 672h-247v-49h190q0 -67 -11 -167.5t-28 -155.5h58q36 133 38 372zM715 140v49q-123 -23 -324 -28v251h-56v-254h-295v-49h212q287 0 463 31z" />
<glyph unicode="&#xaf84;" horiz-adv-x="890" d="M799 134v651h-56v-651h56zM583 707h-243v-48h187q1 -158 -33 -279h53q36 115 36 327zM315 707h-235v-48h179q-3 -170 -36 -281h53q35 107 39 329zM710 275v47q-126 -22 -319 -27v198h-55v-198h-297v-49h244q253 0 427 29zM809 -141v51h-422v214h-56v-265h478z" />
<glyph unicode="&#xaf88;" horiz-adv-x="890" d="M802 266v520h-55v-520h55zM587 727h-243v-48h187q0 -52 -5 -95.5t-10.5 -66.5t-17.5 -67h53q36 89 36 277zM319 727h-235v-48h179q-1 -77 -8.5 -120.5t-27.5 -110.5h54q35 97 38 279zM714 335v47q-126 -22 -319 -27v168h-55v-168h-297v-49h244q253 0 427 29zM801 -151v52 h-410v119h384v208h-450v-49h391v-111h-385v-219h470z" />
<glyph unicode="&#xaf90;" horiz-adv-x="890" d="M794 218v567h-56v-567h56zM577 717h-243v-48h187q1 -129 -33 -249h53q21 68 28.5 131.5t7.5 165.5zM309 717h-235v-48h179q-3 -138 -36 -251h53q36 109 39 299zM704 305v47q-126 -22 -319 -27v188h-55v-188h-297v-49h244q253 0 427 29zM774 -144v316h-457v-316h457z M715 -94h-341v217h341v-217z" />
<glyph unicode="&#xaf91;" horiz-adv-x="890" d="M790 258v528h-55v-528h55zM575 727h-243v-48h187q0 -52 -5 -95.5t-10.5 -66.5t-17.5 -67h53q36 89 36 277zM307 727h-235v-48h179q-1 -77 -8.5 -120.5t-27.5 -110.5h54q35 97 38 279zM702 325v47q-126 -22 -319 -27v178h-55v-178h-297v-49h244q253 0 427 29zM770 -149 v361h-59v-125h-339v125h-58v-361h456zM711 -100h-339v137h339v-137z" />
<glyph unicode="&#xaf95;" horiz-adv-x="890" d="M793 210v575h-56v-575h56zM576 717h-243v-48h187q1 -129 -33 -249h53q21 68 28.5 131.5t7.5 165.5zM308 717h-235v-48h179q-3 -138 -36 -251h53q36 109 39 299zM703 305v47q-126 -22 -319 -27v188h-55v-188h-297v-49h244q253 0 427 29zM766 17q0 77 -62 129t-147 52 q-86 0 -148.5 -52t-62.5 -129t62.5 -129t148.5 -52q85 0 147 52t62 129zM708 17q0 -58 -45 -95t-106 -37t-106.5 38.5t-45.5 93.5q0 56 44.5 94.5t107.5 38.5q62 0 106.5 -36.5t44.5 -96.5z" />
<glyph unicode="&#xaf9c;" d="M730 488v190h-290v-49h231v-130q0 -174 -46 -283h62q43 106 43 272zM866 3v50h-267v286h-55v-286h-128v286h-37q19 82 19 149v190h-270v-49h213v-130q0 -142 -61 -283h62q12 34 18 52v-215h-327v-50h833z" />
<glyph unicode="&#xafb8;" d="M715 728h-274v-49h215q-1 -153 -44 -330h55q47 185 48 379zM411 728h-271v-49h214q-1 -144 -45 -330h55q46 183 47 379zM867 239v51h-833v-51h378v-373h59v373h396z" />
<glyph unicode="&#xafb9;" d="M870 348v48h-209q43 171 44 352h-260v-49h201q-1 -134 -40 -303h-241q45 162 46 352h-269v-49h212q-1 -148 -44 -303h-276v-48h387v-182h-203v-49h403v-279h57v328h-199v182h391z" />
<glyph unicode="&#xafbc;" d="M867 318v48h-206q42 180 43 377h-260v-49h201q-2 -157 -39 -328h-241q44 167 45 377h-269v-49h212q-2 -174 -43 -328h-277v-48h401v-260h56v260h377zM688 -140v51h-418v253h-56v-304h474z" />
<glyph unicode="&#xafc0;" d="M867 375v48h-207q42 169 43 335h-260v-49h201q-1 -125 -39 -286h-241q44 160 45 335h-269v-49h212q-1 -138 -43 -286h-276v-48h381v-134h-191v-50h388v-116h-380v-226h466v51h-407v127h382v214h-200v134h395z" />
<glyph unicode="&#xafc7;" d="M867 375v48h-207q42 169 43 335h-260v-49h201q-1 -125 -39 -286h-241q44 160 45 335h-269v-49h212q-1 -138 -43 -286h-276v-48h381v-137h-270v-50h212v-120h-210v-219h309v52h-250v119h209v178h58v177h395zM735 184v48q-84 -4 -129 1q-50 5 -93 21l-17 -41 q44 -23 106 -29q47 -4 133 0zM812 59v48h-368v-48h118q-39 -12 -62.5 -39t-24.5 -68q-1 -55 41.5 -88t104.5 -33q66 0 109 30.5t43 89.5q0 41 -25.5 68.5t-67.5 39.5h132zM713 -51q0 -35 -26.5 -54.5t-65.5 -18.5q-38 1 -62.5 21.5t-24.5 56.5q0 35 26 54.5t64 18.5 t63.5 -21t25.5 -57z" />
<glyph unicode="&#xafc8;" d="M867 355v50h-206q41 171 42 343h-260v-49h201q-1 -123 -38 -294h-241q43 157 44 343h-269v-49h212q-1 -143 -42 -294h-277v-50h383v-160h-191v-339h458v339h-209v160h393zM624 -94h-340v240h340v-240z" />
<glyph unicode="&#xafc9;" d="M867 366v48h-207q42 171 43 344h-260v-49h201q-1 -133 -39 -295h-241q44 161 45 344h-269v-49h212q-1 -146 -43 -295h-276v-48h390v-196h58v196h386zM683 -149v375h-59v-139h-339v139h-58v-375h456zM624 -100h-339v137h339v-137z" />
<glyph unicode="&#xafcb;" d="M868 336v50h-204q43 173 44 362h-260v-49h201q-1 -143 -40 -313h-241q45 163 46 362h-269v-49h212q-2 -156 -44 -313h-279v-50h386v-142q0 -93 -64 -177t-174 -123l36 -41q69 23 126.5 72.5t92.5 111.5l242 -185l38 40l-257 195q19 50 19 109v140h389z" />
<glyph unicode="&#xafcd;" d="M868 339v50h-206q45 174 46 359h-260v-49h201q-1 -141 -42 -310h-241q47 168 48 359h-269v-49h212q-1 -153 -46 -310h-277v-50h387v-135q-80 -9 -132.5 -60t-52.5 -122q0 -80 61.5 -132.5t153.5 -52.5q97 0 158 52t61 133q0 73 -53 124t-138 59v134h389zM611 22 q0 -59 -46 -97t-114 -38q-65 0 -111.5 39t-46.5 96q0 61 45 98.5t113 37.5q69 0 114.5 -38.5t45.5 -97.5z" />
<glyph unicode="&#xafce;" d="M868 352v48h-204q42 173 43 348h-260v-49h201q-1 -135 -39 -299h-241q44 163 45 348h-269v-49h212q-2 -149 -43 -299h-279v-48h385v-161h-182v-47h339q-59 -81 -162.5 -150.5t-227.5 -97.5l32 -43q145 36 273 132l235 -131l33 43l-224 123q96 84 134 171h-192v161h391z " />
<glyph unicode="&#xafd4;" horiz-adv-x="890" d="M576 706h-232v-47h176q-2 -187 -38 -294h57q37 131 37 341zM795 -115v901h-55v-632h-230v-50h230v-219h55zM322 706h-228v-47h173q-2 -183 -38 -294h55q38 129 38 341zM681 297v49q-170 -31 -408 -31h-238v-49h272v-367h57v369q170 4 317 29z" />
<glyph unicode="&#xafdc;" horiz-adv-x="890" d="M785 241v545h-53v-434h-215v-46h215v-65h53zM681 432v47q-74 -12 -157 -19q25 95 25 267h-209v-45h156q-3 -138 -26 -226q-77 -5 -189 -7q29 102 29 278h-222v-45h168q-3 -138 -28 -233h-196v-47h244v-154h54v155q178 4 351 29zM789 -151v52h-410v114h385v196h-451v-48 h391v-101h-385v-213h470z" />
<glyph unicode="&#xafe8;" horiz-adv-x="890" d="M785 178v608h-53v-473h-215v-46h215v-89h53zM681 419v47q-74 -12 -157 -19q25 99 25 280h-209v-45h156q-3 -148 -26 -239q-78 -5 -189 -7q29 105 29 291h-222v-45h168q-3 -151 -28 -246h-196v-47h244v-204h54v205q178 4 351 29zM848 -106l-178 160q8 26 10 66v31h-59v-27 q0 -58 -31.5 -115.5t-83.5 -90.5l-132 126q10 32 13 77v30h-59v-27q0 -63 -44 -127.5t-120 -102.5l36 -42q100 50 148 141l150 -146q40 17 83 56.5t69 95.5l162 -143z" />
<glyph unicode="&#xafe9;" horiz-adv-x="890" d="M786 198v588h-53v-453h-215v-46h215v-89h53zM682 419v47q-74 -12 -157 -19q25 99 25 280h-209v-45h156q-3 -148 -26 -239q-78 -5 -189 -7q29 105 29 291h-222v-45h168q-3 -151 -28 -246h-196v-47h244v-194h54v195q178 4 351 29zM769 21q0 83 -62 133t-152 50 q-89 0 -151.5 -52t-62.5 -131q0 -83 62.5 -133t152.5 -50t151.5 49.5t61.5 133.5zM712 21q0 -59 -45.5 -96t-111.5 -37q-63 0 -109 38t-46 95t44.5 95t110.5 38q67 0 112 -36.5t45 -96.5z" />
<glyph unicode="&#xaff0;" horiz-adv-x="920" d="M844 -115v901h-58v-901h58zM507 706h-195v-47h139q-4 -179 -39 -282h57q38 136 38 329zM671 -72v837h-55v-609h-197v-50h197v-178h55zM289 706h-206v-47h152q-2 -175 -38 -282h56q36 134 36 329zM577 299v49q-166 -31 -371 -31h-163v-49h135q65 0 93 1v-370h55v372 q112 4 251 28z" />
<glyph unicode="&#xaff1;" horiz-adv-x="920" d="M841 194v592h-58v-592h58zM672 203v561h-55v-429h-188v-51h188v-81h55zM569 423v47q-59 -11 -104 -17q29 103 29 274h-192v-46h136q-4 -135 -27 -233q-62 -5 -160 -7q32 114 32 286h-196v-46h140q-3 -147 -31 -240v0v0h-1v0h-1v0h-1v0h-1h-1h-1h-1h-1h-1h-1h-1h-1h-1h-1 h-1h-1h-1h-1h-1h-1h-1h-1h-1h-1h-1h-1h-2h-1h-1h-1h-1h-1h-1h-1h-1h-1h-2h-1h-1h-1h-1h-2h-1h-1h-1h-2h-1h-1h-2h-1h-1h-2h-1h-1h-2h-1h-1h-2h-1h-2h-1h-2h-1h-1h-2h-1h-2h-1h-2h-1h-2h-1h-2h-2h-1h-2h-1h-2h-1h-2h-2h-1h-2h-2h-1h-2h-2h-1h-2h-2h-1h-2h-2h-1h-2h-2h-2h-1 h-2h-2h-2h-1h-2h-2h-2h-2h-1h-2h-2h-9v-47h131q62 0 89 1v-206h55v207q115 4 256 27zM793 -162v312h-470v-50h413v-262h57z" />
<glyph unicode="&#xaff4;" horiz-adv-x="920" d="M840 119v667h-58v-667h58zM671 153v611h-55v-469h-188v-51h188v-91h55zM568 393v47q-61 -12 -104 -16q29 105 29 293h-192v-46h136q-5 -156 -28 -253q-61 -5 -159 -7q32 117 32 306h-196v-46h140q-3 -166 -31 -260h-158v-47h131q62 0 89 1v-216h55v217q115 4 256 27z M827 -141v51h-422v214h-56v-265h478z" />
<glyph unicode="&#xaff8;" horiz-adv-x="920" d="M830 245v541h-58v-541h58zM662 255v509h-55v-394h-188v-51h188v-64h55zM559 448v47q-61 -12 -104 -16q29 98 29 253h-192v-46h136q-4 -120 -28 -213q-61 -5 -159 -7q32 113 32 266h-196v-46h140q-3 -129 -31 -220v0v0h-1v0h-1v0h-1v0h-1h-1h-1h-1h-1h-1h-1h-1h-1h-1h-1 h-1h-1h-1h-1h-1h-1h-1h-1h-1h-1h-1h-1h-2h-1h-1h-1h-1h-1h-1h-1h-1h-1h-2h-1h-1h-1h-1h-2h-1h-1h-1h-2h-1h-1h-2h-1h-1h-2h-1h-1h-2h-1h-1h-2h-1h-2h-1h-2h-1h-1h-2h-1h-2h-1h-2h-1h-2h-1h-2h-2h-1h-2h-1h-2h-1h-2h-2h-1h-2h-2h-1h-2h-2h-1h-2h-2h-1h-2h-2h-1h-2h-2h-2h-1 h-2h-2h-2h-1h-2h-2h-2h-2h-1h-2h-2h-9v-47h131q62 0 89 1v-179h55v180q115 4 256 27zM810 -151v52h-409v111h383v196h-450v-48h390v-101h-385v-210h471z" />
<glyph unicode="&#xb000;" horiz-adv-x="920" d="M833 184v602h-58v-602h58zM664 203v561h-55v-429h-188v-51h188v-81h55zM561 423v47q-59 -11 -104 -17q29 103 29 274h-192v-46h136q-4 -135 -27 -233q-62 -5 -160 -7q32 114 32 286h-196v-46h140q-3 -147 -31 -240v0v0h-1v0h-1v0h-1v0h-1h-1h-1h-1h-1h-1h-1h-1h-1h-1h-1 h-1h-1h-1h-1h-1h-1h-1h-1h-1h-1h-1h-1h-2h-1h-1h-1h-1h-1h-1h-1h-1h-1h-2h-1h-1h-1h-1h-2h-1h-1h-1h-2h-1h-1h-2h-1h-1h-2h-1h-1h-2h-1h-1h-2h-1h-2h-1h-2h-1h-1h-2h-1h-2h-1h-2h-1h-2h-1h-2h-2h-1h-2h-1h-2h-1h-2h-2h-1h-2h-2h-1h-2h-2h-1h-2h-2h-1h-2h-2h-1h-2h-2h-2h-1 h-2h-2h-2h-1h-2h-2h-2h-2h-1h-2h-2h-9v-47h131q62 0 89 1v-206h55v207q115 4 256 27zM796 -144v295h-456v-295h456zM739 -94h-341v196h341v-196z" />
<glyph unicode="&#xb001;" horiz-adv-x="920" d="M833 235v551h-58v-551h58zM665 245v519h-55v-394h-188v-51h188v-74h55zM562 448v47q-61 -12 -104 -16q29 98 29 253h-192v-46h136q-4 -120 -28 -213q-61 -5 -159 -7q32 113 32 266h-196v-46h140q-3 -129 -31 -220v0v0h-1v0h-1v0h-1v0h-1h-1h-1h-1h-1h-1h-1h-1h-1h-1h-1 h-1h-1h-1h-1h-1h-1h-1h-1h-1h-1h-1h-1h-2h-1h-1h-1h-1h-1h-1h-1h-1h-1h-2h-1h-1h-1h-1h-2h-1h-1h-1h-2h-1h-1h-2h-1h-1h-2h-1h-1h-2h-1h-1h-2h-1h-2h-1h-2h-1h-1h-2h-1h-2h-1h-2h-1h-2h-1h-2h-2h-1h-2h-1h-2h-1h-2h-2h-1h-2h-2h-1h-2h-2h-1h-2h-2h-1h-2h-2h-1h-2h-2h-2h-1 h-2h-2h-2h-1h-2h-2h-2h-2h-1h-2h-2h-9v-47h131q62 0 89 1v-189h55v190q115 4 256 27zM792 -149v346h-59v-115h-339v115h-58v-346h456zM733 -100h-339v131h339v-131z" />
<glyph unicode="&#xb004;" horiz-adv-x="920" d="M831 184v602h-58v-602h58zM662 203v561h-55v-429h-188v-51h188v-81h55zM559 423v47q-59 -11 -104 -17q29 103 29 274h-192v-46h136q-4 -135 -27 -233q-62 -5 -160 -7q32 114 32 286h-196v-46h140q-3 -147 -31 -240v0v0h-1v0h-1v0h-1v0h-1h-1h-1h-1h-1h-1h-1h-1h-1h-1h-1 h-1h-1h-1h-1h-1h-1h-1h-1h-1h-1h-1h-1h-2h-1h-1h-1h-1h-1h-1h-1h-1h-1h-2h-1h-1h-1h-1h-2h-1h-1h-1h-2h-1h-1h-2h-1h-1h-2h-1h-1h-2h-1h-1h-2h-1h-2h-1h-2h-1h-1h-2h-1h-2h-1h-2h-1h-2h-1h-2h-2h-1h-2h-1h-2h-1h-2h-2h-1h-2h-2h-1h-2h-2h-1h-2h-2h-1h-2h-2h-1h-2h-2h-2h-1 h-2h-2h-2h-1h-2h-2h-2h-2h-1h-2h-2h-9v-47h131q62 0 89 1v-206h55v207q115 4 256 27zM866 -104l-179 158q8 26 10 66v31h-59v-27q0 -58 -31.5 -115.5t-83.5 -90.5l-132 126q10 32 13 77v30h-59v-27q0 -63 -44 -127t-120 -102l36 -42q101 50 148 140l150 -146q40 17 83 56.5 t69 95.5l163 -143z" />
<glyph unicode="&#xb00c;" horiz-adv-x="890" d="M785 -115v901h-55v-901h55zM584 706h-236v-47h180q-2 -197 -38 -304h57q37 131 37 351zM327 706h-233v-47h177q-2 -193 -38 -304h55q39 133 39 351zM681 287v49q-170 -31 -408 -31h-238v-49h201q65 0 94 1v-358h55v359q174 7 296 29z" />
<glyph unicode="&#xb010;" horiz-adv-x="890" d="M788 145v641h-53v-641h53zM697 388v47q-48 -10 -152 -20q28 108 28 312h-228v-45h173q-6 -185 -27 -271q-82 -5 -200 -7q33 134 33 323h-222v-45h166q-3 -147 -30 -278h-203v-46h264v-174h57v175q213 6 341 29zM795 -141v51h-421v224h-57v-275h478z" />
<glyph unicode="&#xb014;" horiz-adv-x="890" d="M788 256v530h-53v-530h53zM697 423v47q-48 -10 -152 -20q28 101 28 282h-228v-45h173q-5 -155 -27 -241q-82 -5 -200 -7q33 129 33 293h-222v-45h166q-2 -118 -30 -248h-203v-46h264v-134h57v135q213 6 341 29zM791 -151v52h-410v117h385v203h-451v-48h391v-108h-385 v-216h470z" />
<glyph unicode="&#xb01c;" horiz-adv-x="890" d="M788 197v589h-53v-589h53zM697 396v47q-48 -10 -152 -20q28 107 28 304h-228v-45h173q-5 -177 -27 -263q-82 -5 -200 -7q33 132 33 315h-222v-45h166q-3 -139 -30 -270h-203v-46h264v-162h57v163q213 6 341 29zM775 -144v295h-456v-295h456zM716 -94h-340v196h340v-196z " />
<glyph unicode="&#xb01d;" horiz-adv-x="890" d="M788 241v545h-53v-545h53zM697 414v47q-48 -10 -152 -20q28 103 28 286h-228v-45h173q-5 -160 -27 -245q-82 -5 -200 -7q33 129 33 297h-222v-45h166q-2 -121 -30 -252h-203v-46h264v-140h57v141q213 6 341 29zM772 -149v346h-59v-115h-339v115h-58v-346h456zM713 -100 h-339v131h339v-131z" />
<glyph unicode="&#xb028;" d="M707 728h-274v-49h215q-1 -153 -44 -330h55q47 185 48 379zM403 728h-271v-49h214q-1 -144 -45 -330h55q46 183 47 379zM868 239v51h-833v-51h232v-373h57v373h242v-373h57v373h245z" />
<glyph unicode="&#xb044;" d="M729 488v190h-286v-49h227v-130q0 -169 -48 -283h62q45 111 45 272zM406 488v190h-280v-49h223v-130q0 -169 -49 -283h61q45 117 45 272zM866 15v51h-833v-51h833z" />
<glyph unicode="&#xb045;" d="M870 343v50h-203q38 135 40 355h-260v-49h201q-1 -141 -38 -306h-238q43 163 44 355h-269v-49h212q-2 -153 -42 -306h-283v-50h836zM678 -152v334h-460v-49h403v-285h57z" />
<glyph unicode="&#xb048;" d="M867 310v48h-205q16 57 28.5 167t13.5 216h-260v-49h201q-2 -171 -40 -334h-239q46 171 47 383h-269v-49h212q-2 -175 -45 -334h-278v-48h834zM695 -130v51h-418v263h-56v-314h474z" />
<glyph unicode="&#xb04a;" d="M868 348v50h-203q38 132 40 355h-260v-49h201q-2 -152 -38 -306h-238q43 162 44 355h-269v-49h212q-2 -154 -42 -306h-283v-50h836zM721 187v50q-78 -7 -133 0q-42 4 -93 20l-17 -41q57 -25 106 -29q48 -4 137 0zM810 61v48h-398v-48h148q-43 -11 -68.5 -39t-26.5 -70 q-1 -55 41.5 -88t104.5 -33q66 0 109 30.5t43 89.5q0 42 -27.5 70.5t-72.5 39.5h147zM447 -141v51h-237v278h-59v-329h296zM703 -51q0 -35 -26.5 -54.5t-65.5 -18.5q-38 1 -62.5 21.5t-24.5 56.5q0 35 26 54.5t64 18.5t63.5 -21t25.5 -57z" />
<glyph unicode="&#xb04c;" d="M868 358v50h-201q36 133 38 350h-260v-49h201q-2 -146 -37 -301h-238q42 155 43 350h-269v-49h212q-2 -151 -41 -301h-284v-50h836zM699 -151v51h-407v128h382v219h-447v-49h386v-122h-380v-227h466z" />
<glyph unicode="&#xb04e;" d="M868 364v50h-201q36 131 38 344h-260v-49h201q-1 -142 -37 -295h-238q42 154 43 344h-269v-49h212q-2 -146 -41 -295h-284v-50h836zM729 -151v397h-263v-397h263zM450 -151v52h-233v127h208v218h-270v-50h211v-120h-209v-227h293zM670 -102h-148v297h148v-297z" />
<glyph unicode="&#xb053;" d="M868 364v50h-201q36 131 38 344h-260v-49h201q-1 -142 -37 -295h-238q42 154 43 344h-269v-49h212q-2 -146 -41 -295h-284v-50h836zM722 184v48q-84 -4 -129 1q-50 5 -93 21l-17 -41q44 -23 106 -29q47 -4 133 0zM799 59v48h-368v-48h118q-39 -12 -62.5 -39t-24.5 -68 q-1 -55 41.5 -88t104.5 -33q66 0 109 30.5t43 89.5q0 41 -25.5 68.5t-67.5 39.5h132zM452 -151v52h-250v119h209v218h-270v-50h212v-120h-210v-219h309zM700 -51q0 -35 -26.5 -54.5t-65.5 -18.5q-38 1 -62.5 21.5t-24.5 56.5q0 35 26 54.5t64 18.5t63.5 -21t25.5 -57z" />
<glyph unicode="&#xb054;" d="M866 349v50h-203q38 136 40 349h-260v-49h201q-1 -135 -38 -300h-239q44 162 45 349h-269v-49h212q-1 -148 -43 -300h-282v-50h836zM682 -144v346h-458v-346h458zM623 -94h-340v247h340v-247z" />
<glyph unicode="&#xb055;" d="M867 351v50h-203q38 130 40 357h-260v-49h201q-2 -148 -39 -308v0v0v0h-1v0v0h-1v0h-1v0h-1h-1h-1h-1h-1h-1h-1h-1h-1h-1h-1h-1h-1h-1h-1h-1h-1h-1h-1h-1h-1h-1h-1h-1h-1h-1h-1h-1h-1h-1h-1h-1h-1h-1h-1h-1h-1h-1h-1h-1h-2h-1h-1h-1h-1h-1h-1h-1h-1h-2h-1h-1h-1h-1h-1h-2 h-1h-1h-1h-1h-2h-1h-1h-1h-2h-1h-1h-2h-1h-1h-1h-2h-1h-1h-2h-1h-1h-2h-1h-2h-1h-1h-2h-1h-1h-2h-1h-2h-1h-2h-1h-2h-1h-1h-2h-1h-2h-1h-2h-1h-2h-1h-2h-1h-2h-2h-1h-2h-1h-2h-1h-2h-1h-2h-2h-1h-2h-1h-2h-2h-1h-2h-2h-1h-2h-2h-1h-2h-2h-1h-2h-2h-1h-2h-2h-1h-2h-2h-2h-1 h-2h-2h-2h-1h-2h-2h-2h-1h-2h-2h-2h-2h-1h-2h-2h-2h-2h-1h-2h-2h-2h-2h-2h-1h-9q44 162 45 357h-269v-49h212q-2 -158 -43 -308h-282v-50h836zM682 -149v391h-59v-139h-339v139h-58v-391h456zM623 -100h-339v154h339v-154z" />
<glyph unicode="&#xb057;" d="M867 317v48h-205q16 56 28.5 163t13.5 213h-260v-49h201q-2 -164 -40 -327h-239q46 169 47 376h-269v-49h212q-2 -170 -45 -327h-278v-48h834zM721 -110q-16 13 -42.5 34t-82.5 65.5t-93 74.5l-37 29q18 47 18 93v28h-61v-20q0 -93 -64 -177t-174 -123l36 -41 q71 24 129 75t93 115l241 -190z" />
<glyph unicode="&#xb059;" d="M866 340v50h-201q38 135 40 358h-261v-49h202q-1 -145 -38 -309h-239q43 163 44 358h-269v-49h212q-2 -156 -42 -309h-284v-50h836zM670 35q0 82 -64 134.5t-154 52.5q-87 0 -151.5 -53t-64.5 -134q0 -80 64.5 -134t151.5 -54q88 0 153 53t65 135zM612 35q0 -64 -48 -101 t-112 -37q-63 0 -110.5 37t-47.5 101q0 63 47.5 101t110.5 38t111.5 -38.5t48.5 -100.5z" />
<glyph unicode="&#xb05d;" d="M869 358v50h-201q36 133 38 350h-260v-49h201q-2 -146 -37 -301h-238q42 155 43 350h-269v-49h212q-2 -151 -41 -301h-284v-50h836zM690 -151v49h-412v123h390v51h-390v118h402v51h-458v-392h468z" />
<glyph unicode="&#xb07c;" horiz-adv-x="880" d="M785 -115v901h-55v-901h55zM592 654h-239v-49h175q-13 -117 -67 -235.5t-152 -192.5l45 -32q101 76 162.5 210.5t75.5 298.5zM342 654h-256v-49h193q-6 -48 -21 -99t-42.5 -109.5t-74.5 -113.5t-107 -93l43 -35q110 73 183 208.5t82 290.5z" />
<glyph unicode="&#xb07d;" horiz-adv-x="880" d="M788 214v572h-57v-572h57zM590 717h-246v-49h181q-40 -249 -216 -348l38 -38q63 36 110.5 90t74.5 114.5t41 117.5t17 113zM331 717h-247v-49h180q-5 -38 -19 -80.5t-39.5 -89.5t-69.5 -91t-100 -75l37 -37q227 124 258 422zM764 -162v323h-459v-50h403v-273h56z" />
<glyph unicode="&#xb080;" horiz-adv-x="880" d="M788 144v642h-57v-642h57zM590 707h-246v-49h181q-42 -260 -216 -358l38 -38q63 36 110.5 91.5t74.5 118t41 121t17 114.5zM331 707h-247v-49h180q-6 -54 -28 -112.5t-74.5 -126t-125.5 -107.5l37 -37q122 67 183 183t75 249zM794 -141v51h-411v245h-56v-296h467z" />
<glyph unicode="&#xb084;" horiz-adv-x="880" d="M788 284v502h-57v-502h57zM590 727h-246v-49h181q-36 -223 -216 -324l38 -38q121 69 178.5 180t64.5 231zM331 727h-247v-49h180q-6 -51 -28.5 -103t-74 -110.5t-125.5 -98.5l37 -37q230 126 258 398zM780 -151v52h-399v129h377v213h-443v-50h383v-116h-377v-228h459z " />
<glyph unicode="&#xb08c;" horiz-adv-x="880" d="M788 231v555h-57v-555h57zM590 717h-246v-49h181q-40 -249 -216 -348l38 -38q63 36 110.5 90t74.5 114.5t41 117.5t17 113zM331 717h-247v-49h180q-5 -38 -19 -80.5t-39.5 -89.5t-69.5 -91t-100 -75l37 -37q227 124 258 422zM769 -144v326h-451v-326h451zM710 -94h-335 v227h335v-227z" />
<glyph unicode="&#xb08d;" horiz-adv-x="880" d="M788 258v528h-57v-528h57zM590 727h-246v-49h181q-37 -227 -216 -328l38 -38q63 36 110.5 87t74.5 107.5t41 111t17 109.5zM331 727h-247v-49h180q-10 -83 -65.5 -170t-162.5 -146l37 -37q229 126 258 402zM768 -149v369h-59v-131h-333v131h-57v-369h449zM709 -100h-333 v139h333v-139z" />
<glyph unicode="&#xb08f;" horiz-adv-x="880" d="M788 171v614h-57v-614h57zM590 707h-246v-49h181q-40 -249 -216 -348l38 -38q63 36 110.5 90t74.5 114.5t41 117.5t17 113zM331 707h-247v-49h180q-5 -38 -19 -80.5t-39.5 -89.5t-69.5 -91t-100 -75l37 -37q227 124 258 422zM803 -110q-254 203 -255 203q18 47 18 93v48 h-61v-40q0 -94 -63.5 -178t-173.5 -122l36 -41q70 24 128 75t93 115l241 -190z" />
<glyph unicode="&#xb091;" horiz-adv-x="880" d="M784 214v572h-57v-572h57zM586 717h-246v-49h181q-40 -249 -216 -348l38 -38q63 36 110.5 90t74.5 114.5t41 117.5t17 113zM327 717h-247v-49h180q-5 -38 -19 -80.5t-39.5 -89.5t-69.5 -91t-100 -75l37 -37q227 124 258 422zM765 23q0 83 -62 134.5t-152 51.5 q-89 0 -151.5 -53.5t-62.5 -132.5q0 -84 63 -135t152 -51q90 0 151.5 51t61.5 135zM708 23q0 -59 -46 -97.5t-111 -38.5q-63 0 -109 39.5t-46 96.5q0 58 45 97t110 39q67 0 112 -38t45 -98z" />
<glyph unicode="&#xb098;" d="M876 421v51h-172v314h-57v-901h57v536h172zM550 190v51h-411v433h-57v-484h468z" />
<glyph unicode="&#xb099;" d="M888 533v52h-165v201h-57v-561h57v308h165zM559 349v50h-412v334h-56v-384h468zM710 -162v333h-459v-50h403v-283h56z" />
<glyph unicode="&#xb09a;" d="M888 533v52h-165v201h-57v-561h57v308h165zM559 349v50h-412v334h-56v-384h468zM725 -162v333h-249v-50h193v-283h56zM445 -162v333h-275v-50h220v-283h55z" />
<glyph unicode="&#xb09c;" d="M886 513v51h-164v222h-56v-656h56v383h164zM559 329v50h-412v344h-56v-394h468zM735 -141v51h-410v265h-56v-316h466z" />
<glyph unicode="&#xb09f;" d="M888 522v49h-165v215h-57v-552h57v288h165zM559 349v50h-412v334h-56v-384h468zM725 -151v50h-411v236h401v50h-459v-336h469z" />
<glyph unicode="&#xb0a0;" d="M889 539v52h-165v195h-57v-494h57v247h165zM559 382v50h-412v311h-56v-361h468zM731 -151v52h-399v127h373v215h-440v-50h381v-118h-374v-226h459z" />
<glyph unicode="&#xb0a1;" d="M900 539v52h-166v195h-56v-508h56v261h166zM569 381v50h-412v312h-56v-362h468zM736 -151v392h-266v-53h208v-339h58zM484 -151v52h-268v125h228v215h-294v-50h236v-118h-231v-224h329z" />
<glyph unicode="&#xb0a2;" d="M900 539v52h-166v195h-56v-508h56v261h166zM569 379v50h-412v314h-56v-364h468zM738 -151v391h-265v-391h265zM447 -151v52h-238v123h213v215h-275v-50h215v-117h-213v-223h298zM680 -102h-151v291h151v-291z" />
<glyph unicode="&#xb0a8;" d="M888 533v52h-165v201h-57v-548h57v295h165zM559 352v50h-412v331h-56v-381h468zM709 -144v339h-446v-339h446zM651 -94h-329v240h329v-240z" />
<glyph unicode="&#xb0a9;" d="M888 542v52h-165v191h-57v-525h57v282h165zM559 381v50h-412v312h-56v-362h468zM705 -149v371h-60v-131h-332v131h-57v-371h449zM645 -100h-332v141h332v-141z" />
<glyph unicode="&#xb0ab;" d="M888 522v49h-165v214h-57v-614h57v351h165zM559 336v50h-412v337h-56v-387h468zM759 -106q-16 13 -42.5 33.5t-82 64.5t-92.5 72l-37 29q17 49 17 93v38h-61v-40q0 -88 -64.5 -169t-173.5 -120l36 -42q72 24 130 75t93 115l240 -190z" />
<glyph unicode="&#xb0ac;" d="M888 532v52h-165v201h-57v-553h57v300h165zM559 349v50h-412v334h-56v-384h468zM809 -106l-177 163q10 37 11 75v57l-59 -3v-51q0 -62 -32.5 -124.5t-82.5 -93.5l-134 133q10 36 13 83v56h-58v-54q0 -74 -44 -140t-118 -98l34 -45q97 46 151 144l151 -149q39 16 80 56 t69 99l161 -146z" />
<glyph unicode="&#xb0ad;" d="M886 535v52h-164v199h-56v-567h56v316h164zM559 349v50h-412v334h-56v-384h468zM711 22q0 83 -62 134.5t-152 51.5q-89 0 -151.5 -53.5t-62.5 -132.5q0 -84 63 -135t152 -51q90 0 151.5 51t61.5 135zM654 22q0 -59 -46 -97.5t-111 -38.5q-63 0 -109 39.5t-46 96.5 q0 58 45 97t110 39q67 0 112 -38t45 -98z" />
<glyph unicode="&#xb0ae;" d="M888 533v52h-165v201h-57v-535h57v282h165zM559 349v50h-412v334h-56v-384h468zM773 -103q-14 8 -38 21t-74 40.5t-83 45.5l-34 18q107 92 137 181h-426v-48h331q-67 -90 -171.5 -159t-214.5 -96l33 -44q130 31 265 130l242 -132z" />
<glyph unicode="&#xb0af;" d="M888 554v50h-165v182h-57v-518h57v286h165zM559 394v50h-412v299h-56v-349h468zM613 234v50q-120 -7 -190 2q-48 5 -94 21l-17 -43q42 -24 106 -30q84 -7 195 0zM775 -108l-213 105q87 74 123 154h-431v-46h332q-56 -74 -156.5 -131.5t-224.5 -81.5l31 -45 q154 29 279 115l224 -112z" />
<glyph unicode="&#xb0b1;" d="M889 539v52h-165v195h-57v-505h57v258h165zM561 379v50h-412v314h-56v-364h468zM717 -151v49h-403v119h381v51h-381v113h391v50h-448v-382h460z" />
<glyph unicode="&#xb0b3;" d="M888 554v50h-165v182h-57v-506h57v274h165zM559 396v50h-412v297h-56v-347h468zM623 243v49q-132 -8 -200 0q-45 4 -95 22l-17 -41q46 -24 107 -30q87 -7 205 0zM764 107v46h-566v-46h192q-45 -17 -72.5 -49.5t-26.5 -76.5q1 -65 57 -106.5t135 -41.5q76 0 133 41t57 110 q0 44 -27.5 75t-73.5 48h192zM610 -15q0 -45 -39.5 -74.5t-88.5 -29.5q-50 0 -89 29.5t-39 74.5q0 44 38 70.5t89 26.5t90 -26.5t39 -70.5z" />
<glyph unicode="&#xb0b4;" d="M803 -115v901h-56v-318h-165v297h-56v-815h56v466h165v-531h56zM456 190v51h-329v433h-55v-484h384z" />
<glyph unicode="&#xb0b5;" d="M807 245v541h-55v-216h-172v194h-58v-508h58v263h172v-274h55zM454 336v50h-319v347h-54v-397h373zM764 -162v353h-460v-50h404v-303h56z" />
<glyph unicode="&#xb0b8;" d="M807 130v656h-55v-234h-172v212h-58v-592h58v331h172v-373h55zM454 316v50h-319v357h-54v-407h373zM799 -141v51h-411v245h-56v-296h467z" />
<glyph unicode="&#xb0bc;" d="M807 282v504h-55v-194h-172v172h-58v-461h58v238h172v-259h55zM454 376v50h-319v317h-54v-367h373zM784 -151v52h-399v127h376v213h-443v-50h384v-116h-378v-226h460z" />
<glyph unicode="&#xb0c4;" d="M807 245v541h-55v-204h-172v182h-58v-508h58v275h172v-286h55zM454 343v50h-319v340h-54v-390h373zM773 -144v336h-446v-336h446zM715 -94h-330v237h330v-237z" />
<glyph unicode="&#xb0c5;" d="M807 259v527h-55v-202h-172v180h-58v-484h58v253h172v-274h55zM454 356v50h-319v337h-54v-387h373zM758 -149v369h-57v-131h-331v131h-60v-369h448zM701 -100h-331v139h331v-139z" />
<glyph unicode="&#xb0c7;" d="M807 214v572h-55v-227h-172v205h-58v-497h58v243h172v-296h55zM454 316v50h-319v357h-54v-407h373zM796 -106q-16 13 -42.5 33.5t-82 64.5t-92.5 72l-37 29q17 49 17 93v38h-61v-40q0 -88 -64.5 -169t-173.5 -120l36 -42q72 24 130 75t93 115l240 -190z" />
<glyph unicode="&#xb0c8;" d="M807 225v561h-55v-227h-172v205h-58v-520h58v266h172v-285h55zM454 336v50h-319v347h-54v-397h373zM839 -106l-177 163q10 37 11 75l-1 56l-58 1v-54q0 -62 -32.5 -124.5t-82.5 -93.5l-134 133q10 36 13 83v56h-58v-54q0 -74 -44 -140t-118 -98l34 -45q97 46 151 144 l151 -149q39 16 80 56t69 99l161 -146z" />
<glyph unicode="&#xb0c9;" d="M807 215v571h-55v-204h-172v182h-58v-507h58v274h172v-316h55zM454 346v50h-319v337h-54v-387h373zM767 22q0 83 -62 134.5t-152 51.5q-89 0 -151.5 -53.5t-62.5 -132.5q0 -84 63 -135t152 -51q90 0 151.5 51t61.5 135zM710 22q0 -59 -46 -97.5t-111 -38.5 q-63 0 -109 39.5t-46 96.5q0 58 45 97t110 39q67 0 112 -38t45 -98z" />
<glyph unicode="&#xb0d0;" d="M871 277v51h-162v196h162v49h-162v213h-57v-901h57v392h162zM560 190v51h-411v433h-57v-484h468z" />
<glyph unicode="&#xb0d1;" d="M877 389v51h-159v155h159v51h-159v140h-56v-550h56v153h159zM559 349v50h-414v334h-54v-384h468zM710 -162v353h-459v-50h403v-303h56z" />
<glyph unicode="&#xb0d4;" d="M877 368v49h-159v157h159v49h-159v163h-56v-659h56v241h159zM559 329v50h-414v344h-54v-394h468zM735 -141v51h-410v265h-56v-316h466z" />
<glyph unicode="&#xb0d8;" d="M877 436v51h-159v134h159v49h-159v116h-56v-510h56v160h159zM558 382v50h-414v311h-54v-361h468zM730 -151v52h-399v127h373v215h-440v-50h381v-118h-374v-226h459z" />
<glyph unicode="&#xb0e0;" d="M877 389v51h-159v155h159v51h-159v140h-56v-549h56v152h159zM559 352v50h-414v331h-54v-381h468zM709 -144v339h-446v-339h446zM651 -94h-329v240h329v-240z" />
<glyph unicode="&#xb0e5;" d="M877 389v51h-159v155h159v51h-159v140h-56v-578h56v181h159zM559 349v50h-414v334h-54v-384h468zM711 22q0 83 -62 134.5t-152 51.5q-89 0 -151.5 -53.5t-62.5 -132.5q0 -84 63 -135t152 -51q90 0 151.5 51t61.5 135zM654 22q0 -59 -46 -97.5t-111 -38.5q-63 0 -109 39.5 t-46 96.5q0 58 45 97t110 39q67 0 112 -38t45 -98z" />
<glyph unicode="&#xb108;" horiz-adv-x="850" d="M738 -115v901h-57v-278h-251v-50h251v-573h57zM553 190v51h-411v433h-57v-484h468z" />
<glyph unicode="&#xb109;" horiz-adv-x="850" d="M732 225v561h-57v-205h-231v-49h231v-307h57zM538 339v50h-412v344h-56v-394h468zM707 -162v343h-458v-50h403v-293h55z" />
<glyph unicode="&#xb10b;" horiz-adv-x="850" d="M727 255v531h-57v-205h-231v-49h231v-277h57zM533 339v50h-412v344h-56v-394h468zM809 -114l-160 153q15 48 15 94v79h-60v-80q0 -73 -41 -142.5t-109 -99.5l35 -42q34 12 72 49t65 88l143 -137zM436 -161v371h-320v-56h260v-315h60z" />
<glyph unicode="&#xb10c;" horiz-adv-x="850" d="M727 150v636h-57v-216h-231v-50h231v-370h57zM533 313v50h-412v360h-56v-410h468zM738 -141v51h-410v265h-58v-316h468z" />
<glyph unicode="&#xb110;" horiz-adv-x="850" d="M727 280v506h-57v-179h-231v-49h231v-278h57zM533 374v50h-412v319h-56v-369h468zM719 -151v52h-398v125h372v213h-440v-50h381v-116h-376v-224h461z" />
<glyph unicode="&#xb112;" horiz-adv-x="850" d="M721 279v507h-57v-174h-231v-49h231v-284h57zM527 379v50h-412v314h-56v-364h468zM718 -151v391h-265v-391h265zM427 -151v52h-238v123h213v215h-275v-50h215v-117h-213v-223h298zM660 -102h-151v291h151v-291z" />
<glyph unicode="&#xb113;" horiz-adv-x="850" d="M721 279v507h-57v-174h-231v-49h231v-284h57zM527 379v50h-412v314h-56v-364h468zM718 -150v389h-55v-148h-167v148h-55v-389h277zM410 -151v52h-234v123h209v215h-272v-50h212v-117h-209v-223h294zM663 -101h-167v142h167v-142z" />
<glyph unicode="&#xb118;" horiz-adv-x="850" d="M717 230v556h-57v-192h-231v-49h231v-315h57zM523 342v50h-412v341h-56v-391h468zM696 -144v336h-446v-336h446zM639 -94h-329v237h329v-237z" />
<glyph unicode="&#xb119;" horiz-adv-x="850" d="M717 258v528h-57v-178h-231v-49h231v-301h57zM523 365v50h-412v328h-56v-378h468zM694 -149v369h-57v-128h-328v128h-60v-369h445zM637 -100h-328v142h328v-142z" />
<glyph unicode="&#xb11b;" horiz-adv-x="850" d="M717 171v615h-57v-206h-231v-50h231v-359h57zM523 329v50h-412v344h-56v-394h468zM743 -110q-16 13 -42.5 34t-82.5 65.5t-94 74.5l-37 29q18 47 18 93v48h-60v-40q0 -93 -64 -177t-174 -123l36 -41q70 24 128 75t93 115l242 -190z" />
<glyph unicode="&#xb11c;" horiz-adv-x="850" d="M717 224v562h-57v-203h-231v-49h231v-310h57zM523 326v50h-412v357h-56v-407h468zM784 -106l-179 162q10 32 12 76v57h-59v-54q0 -65 -28.5 -124t-85.5 -96l-134 135q11 44 14 83v56h-60v-54q0 -76 -43 -143t-118 -96l34 -44q94 44 151 144l151 -149q95 43 148 153 l162 -144z" />
<glyph unicode="&#xb11d;" horiz-adv-x="850" d="M717 235v551h-57v-195h-231v-49h231v-307h57zM523 339v50h-412v344h-56v-394h468zM695 32q0 84 -62.5 140t-151.5 56q-88 0 -151 -58t-63 -138q0 -85 63.5 -140.5t151.5 -55.5q89 0 151 55.5t62 140.5zM638 32q0 -60 -46.5 -103t-110.5 -43q-62 0 -108.5 44t-46.5 102 q0 59 45.5 102.5t109.5 43.5q65 0 111 -42.5t46 -103.5z" />
<glyph unicode="&#xb123;" horiz-adv-x="850" d="M717 291v495h-57v-164h-231v-49h231v-282h57zM523 399v50h-412v294h-56v-344h468zM613 243v49q-132 -8 -200 0q-45 4 -95 22l-17 -43q41 -22 107 -28q87 -7 205 0zM754 107v46h-566v-46h191q-45 -17 -72.5 -49.5t-26.5 -76.5q1 -65 57 -106.5t135 -41.5q76 0 133 41 t57 110q0 44 -27.5 75t-73.5 48h193zM599 -15q0 -45 -39.5 -74.5t-88.5 -29.5q-50 0 -89 29.5t-39 74.5q0 44 38 70.5t89 26.5t90 -26.5t39 -70.5z" />
<glyph unicode="&#xb124;" d="M812 -115v901h-58v-901h58zM613 -50v815h-57v-278h-218v-52h218v-485h57zM446 190v51h-308v433h-55v-484h363z" />
<glyph unicode="&#xb125;" d="M807 235v551h-55v-551h55zM605 246v518h-55v-182h-206v-51h206v-285h55zM454 346v50h-319v337h-54v-387h373zM764 -162v343h-460v-50h404v-293h56z" />
<glyph unicode="&#xb128;" d="M807 130v656h-55v-656h55zM605 172v592h-55v-201h-206v-49h206v-342h55zM454 306v50h-319v367h-54v-417h373zM799 -141v51h-411v255h-56v-306h467z" />
<glyph unicode="&#xb12c;" d="M807 282v504h-55v-504h55zM605 293v471h-55v-164h-206v-49h206v-258h55zM454 356v50h-319v337h-54v-387h373zM784 -151v52h-399v125h377v213h-444v-50h385v-116h-379v-224h460z" />
<glyph unicode="&#xb134;" d="M808 245v541h-55v-541h55zM606 256v508h-55v-182h-206v-51h206v-275h55zM455 336v50h-319v347h-54v-397h373zM775 -144v336h-447v-336h447zM717 -94h-331v237h331v-237z" />
<glyph unicode="&#xb135;" d="M807 259v527h-55v-527h55zM605 273v491h-55v-175h-206v-51h206v-265h55zM454 343v50h-319v350h-54v-400h373zM764 -149v369h-57v-131h-333v131h-60v-369h450zM707 -100h-333v139h333v-139z" />
<glyph unicode="&#xb137;" d="M807 194v592h-55v-592h55zM605 247v517h-55v-208h-206v-51h206v-258h55zM454 300v50h-319v373h-54v-423h373zM793 -110l-255 204q17 49 17 92v27h-60v-19q0 -93 -64 -177t-174 -123l36 -41q71 24 129 75.5t93 115.5l241 -191z" />
<glyph unicode="&#xb138;" d="M801 235v551h-55v-551h55zM599 244v520h-55v-194h-206v-51h206v-275h55zM448 324v50h-319v359h-54v-409h373zM843 -106l-177 163q10 37 11 75l-1 54l-58 3v-54q0 -62 -32.5 -124.5t-82.5 -93.5l-130 133q10 36 13 83v56h-58v-54q0 -74 -45.5 -140t-120.5 -98l36 -44 q100 48 153 143l147 -149q39 16 80 56t69 99l161 -146z" />
<glyph unicode="&#xb139;" d="M802 225v561h-55v-561h55zM600 267v497h-55v-182h-206v-51h206v-264h55zM449 328v50h-319v355h-54v-405h373zM762 32q0 84 -62.5 140t-151.5 56q-88 0 -151 -58t-63 -138q0 -85 63.5 -140.5t151.5 -55.5q89 0 151 55.5t62 140.5zM705 32q0 -60 -46.5 -103t-110.5 -43 q-62 0 -108.5 44t-46.5 102q0 59 45.5 102.5t109.5 43.5q65 0 111 -42.5t46 -103.5z" />
<glyph unicode="&#xb140;" horiz-adv-x="850" d="M739 -115v901h-56v-219h-233v-49h233v-127h-233v-50h233v-456h56zM550 190v51h-411v433h-57v-484h468z" />
<glyph unicode="&#xb141;" horiz-adv-x="850" d="M748 216v570h-56v-130h-234v-49h234v-114h-234v-51h234v-226h56zM543 329v50h-412v354h-56v-404h468zM722 -162v343h-458v-50h403v-293h55z" />
<glyph unicode="&#xb144;" horiz-adv-x="850" d="M747 99v687h-57v-130h-238v-48h238v-135h-237v-48h237v-326h57zM543 293v50h-412v380h-56v-430h468zM758 -141v51h-410v255h-58v-306h468z" />
<glyph unicode="&#xb148;" horiz-adv-x="850" d="M748 282v504h-56v-120h-234v-49h234v-103h-234v-49h234v-183h56zM543 354v50h-412v339h-56v-389h468zM739 -151v52h-398v125h372v213h-440v-50h381v-116h-376v-224h461z" />
<glyph unicode="&#xb150;" horiz-adv-x="850" d="M748 236v550h-56v-130h-234v-49h234v-114h-234v-51h234v-206h56zM543 322v50h-412v361h-56v-411h468zM726 -144v336h-446v-336h446zM669 -94h-329v237h329v-237z" />
<glyph unicode="&#xb151;" horiz-adv-x="850" d="M748 262v524h-56v-120h-234v-49h234v-103h-234v-49h234v-203h56zM543 339v50h-412v354h-56v-404h468zM724 -149v371h-57v-133h-328v133h-60v-371h445zM667 -100h-328v139h328v-139z" />
<glyph unicode="&#xb154;" horiz-adv-x="850" d="M748 226v560h-56v-130h-234v-49h234v-114h-234v-51h234v-216h56zM543 319v50h-412v364h-56v-414h468zM811 -106l-179 164q11 40 12 74v57h-59v-54q0 -65 -28.5 -122.5t-85.5 -94.5l-134 132q11 44 14 83v56h-60v-54q0 -76 -43 -143t-118 -96l34 -44q94 44 151 144 l151 -149q97 50 148 155l162 -146z" />
<glyph unicode="&#xb155;" horiz-adv-x="850" d="M745 222v564h-56v-130h-234v-49h234v-114h-234v-51h234v-220h56zM540 319v50h-412v364h-56v-414h468zM723 32q0 84 -62.5 140t-151.5 56q-88 0 -151 -58t-63 -138q0 -85 63.5 -140.5t151.5 -55.5q89 0 151 55.5t62 140.5zM666 32q0 -60 -46.5 -103t-110.5 -43 q-62 0 -108.5 44t-46.5 102q0 59 45.5 102.5t109.5 43.5q65 0 111 -42.5t46 -103.5z" />
<glyph unicode="&#xb158;" horiz-adv-x="850" d="M748 228v558h-56v-130h-234v-49h234v-114h-234v-51h234v-214h56zM543 329v50h-412v354h-56v-404h468zM722 -162v355h-458v-52h403v-105h-396v-52h396v-146h55z" />
<glyph unicode="&#xb15c;" d="M817 -115v901h-57v-901h57zM622 -50v815h-57v-195h-218v-51h218v-136h-220v-50h220v-383h57zM446 190v51h-308v433h-55v-484h363z" />
<glyph unicode="&#xb160;" d="M804 130v656h-56v-656h56zM616 172v592h-57v-132h-211v-50h211v-118h-211v-48h211v-244h57zM447 286v50h-319v387h-54v-437h373zM802 -141v51h-411v255h-56v-306h467z" />
<glyph unicode="&#xb178;" d="M687 303v50h-426v346h-57v-396h483zM866 3v50h-395v206h-59v-206h-379v-50h833z" />
<glyph unicode="&#xb179;" d="M866 270v51h-394v141h202v49h-407v248h-58v-297h205v-141h-384v-51h836zM665 -162v312h-460v-50h403v-262h57z" />
<glyph unicode="&#xb17c;" d="M866 245v51h-392v151h203v49h-407v258h-58v-307h204v-151h-386v-51h836zM697 -140v51h-417v222h-56v-273h473z" />
<glyph unicode="&#xb180;" d="M871 330v50h-388v131h202v47h-407v221h-58v-268h203v-131h-386v-50h834zM705 -151v51h-407v118h382v212h-447v-49h386v-116h-380v-216h466z" />
<glyph unicode="&#xb182;" d="M871 325v50h-391v133h202v47h-407v224h-58v-271h203v-133h-383v-50h834zM742 -151v364h-263v-364h263zM453 -151v52h-230v112h205v202h-267v-48h208v-107h-206v-211h290zM683 -102h-147v266h147v-266z" />
<glyph unicode="&#xb188;" d="M869 280v51h-395v140h203v49h-407v249h-58v-298h204v-140h-383v-51h836zM684 -144v310h-458v-310h458zM625 -94h-340v211h340v-211z" />
<glyph unicode="&#xb189;" d="M868 305v48h-388v147h202v47h-407v232h-58v-279h203v-147h-386v-48h834zM686 -149v362h-59v-126h-339v126h-58v-362h456zM627 -100h-339v137h339v-137z" />
<glyph unicode="&#xb18b;" d="M866 270v51h-394v151h202v49h-407v248h-58v-297h205v-151h-384v-51h836zM720 -105l-256 199q18 46 18 92v18h-61v-10q0 -93 -64 -177t-174 -123l36 -41q71 24 129 75t93 115l242 -189z" />
<glyph unicode="&#xb18d;" d="M866 280v51h-396v151h204v49h-407v238h-58v-287h203v-151h-382v-51h836zM664 17q0 77 -64 128t-154 51q-87 0 -151.5 -51t-64.5 -128q0 -78 64.5 -129t151.5 -51q88 0 153 51t65 129zM606 17q0 -57 -48.5 -93.5t-111.5 -36.5q-61 0 -110 37t-49 93q0 59 48 95t111 36 q62 0 111 -37t49 -94z" />
<glyph unicode="&#xb192;" d="M866 278v51h-396v153h204v49h-407v238h-58v-287h203v-153h-382v-51h836zM719 -141v50h-114v195h104v49h-507v-49h102v-195h-114v-50h529zM548 -91h-187v195h187v-195z" />
<glyph unicode="&#xb193;" d="M866 360v51h-393v111h204v49h-407v208h-58v-257h203v-111h-385v-51h836zM605 224v49q-141 -8 -210 0q-47 5 -94 22l-17 -41q42 -24 107 -30q89 -7 214 0zM746 97v46h-581v-46h179q-78 -39 -77 -116q1 -65 57 -106.5t135 -41.5q76 0 133 41t57 110q0 73 -78 113h175z M586 -15q0 -45 -39.5 -74.5t-88.5 -29.5q-50 0 -89 29.5t-39 74.5q0 44 38 70.5t89 26.5t90 -26.5t39 -70.5z" />
<glyph unicode="&#xb194;" horiz-adv-x="920" d="M917 375v50h-173v361h-55v-901h55v490h173zM660 147v47q-164 -31 -307 -30v191h176v49h-361v293h-56v-342h182v-191h-264v-50h250q95 0 169.5 5t112 10.5t98.5 17.5z" />
<glyph unicode="&#xb198;" horiz-adv-x="920" d="M910 462v50h-167v274h-55v-671h55v347h167zM645 256v44q-96 -17 -294 -24v153h177v51h-355v242h-57v-293h180v-153h-267v-49h251q81 0 145.5 3.5t86.5 5.5t75 10.5t58 9.5zM760 -141v51h-411v224h-57v-275h468z" />
<glyph unicode="&#xb19c;" horiz-adv-x="920" d="M911 511v50h-167v225h-55v-510h55v235h167zM645 348v44q-102 -20 -304 -25v120h187v49h-355v208h-57v-257h170v-120h-257v-47h251q201 0 365 28zM753 -151v52h-399v119h373v208h-440v-49h380v-111h-375v-219h461z" />
<glyph unicode="&#xb1a8;" horiz-adv-x="920" d="M911 501v50h-167v235h-55v-570h55v285h167zM645 301v44q-102 -20 -304 -25v140h187v49h-355v235h-57v-284h170v-140h-257v-47h251q201 0 365 28zM829 -106l-179 163q10 46 11 63v55h-59v-51q0 -60 -29.5 -115.5t-84.5 -91.5l-133 131q10 33 13 73v54h-59v-51 q0 -63 -44 -127.5t-120 -102.5l36 -42q94 47 148 145l150 -150q42 19 83 57.5t69 97.5l162 -146z" />
<glyph unicode="&#xb1cc;" horiz-adv-x="870" d="M771 -115v901h-57v-901h57zM680 147v47q-164 -31 -312 -30v191h183v49h-371v293h-56v-342h185v-191h-279v-50h265q209 0 385 33z" />
<glyph unicode="&#xb1d0;" horiz-adv-x="870" d="M760 115v671h-57v-671h57zM671 259v48q-108 -20 -318 -28v152h189v51h-365v240h-55v-291h175v-152h-264v-49h248q191 0 390 29zM774 -141v51h-411v224h-57v-275h468z" />
<glyph unicode="&#xb1d4;" horiz-adv-x="870" d="M761 266v520h-57v-520h57zM671 342v48q-108 -21 -315 -28v119h186v51h-365v213h-55v-264h178v-119h-267v-49h251q188 0 387 29zM766 -151v52h-399v119h374v208h-441v-49h381v-111h-375v-219h460z" />
<glyph unicode="&#xb1dc;" horiz-adv-x="870" d="M763 226v559h-57v-559h57zM673 311v48q-108 -21 -315 -28v131h186v51h-365v231h-55v-282h178v-131h-267v-49h251q188 0 387 29zM747 -144v317h-447v-317h447zM688 -94h-329v218h329v-218z" />
<glyph unicode="&#xb1dd;" horiz-adv-x="870" d="M761 262v524h-57v-524h57zM671 329v48q-108 -21 -315 -28v131h186v51h-365v213h-55v-264h178v-131h-267v-49h251q188 0 387 29zM741 -149v365h-59v-127h-328v127h-59v-365h446zM682 -100h-328v139h328v-139z" />
<glyph unicode="&#xb1df;" horiz-adv-x="870" d="M763 170v616h-57v-616h57zM674 294v48q-108 -21 -315 -28v150h186v51h-365v229h-55v-280h178v-150h-267v-49h251q188 0 387 29zM778 -107l-252 200q18 47 18 93v24h-61v-16q0 -93 -63.5 -176t-174.5 -122l36 -43q71 24 129 75t93 115l241 -190z" />
<glyph unicode="&#xb1e8;" d="M688 313v50h-426v336h-57v-386h483zM867 3v50h-258v206h-58v-206h-211v206h-57v-206h-249v-50h833z" />
<glyph unicode="&#xb1e9;" d="M866 268v49h-256v155h69v49h-407v238h-58v-287h69v-155h-253v-49h836zM673 -162v303h-460v-51h403v-252h57zM552 317h-213v155h213v-155z" />
<glyph unicode="&#xb1ec;" d="M866 243v49h-253v161h66v47h-407v254h-58v-301h77v-161h-264v-49h839zM698 -140v51h-417v222h-56v-273h473zM555 292h-208v161h208v-161z" />
<glyph unicode="&#xb1f0;" d="M867 316v49h-254v144h66v47h-407v223h-58v-270h77v-144h-260v-49h836zM700 -151v51h-407v114h382v206h-447v-49h386v-110h-380v-212h466zM555 365h-208v144h208v-144z" />
<glyph unicode="&#xb1f9;" d="M867 304v49h-254v153h66v47h-407v226h-58v-273h77v-153h-260v-49h836zM684 -149v363h-59v-126h-339v126h-58v-363h456zM555 353h-208v153h208v-153zM625 -100h-339v138h339v-138z" />
<glyph unicode="&#xb1fb;" d="M869 265v49h-259v158h66v47h-406v250h-58v-297h72v-158h-251v-49h836zM718 -108l-256 195q19 47 19 95v13h-61v-5q0 -93 -63.5 -174.5t-174.5 -120.5l36 -42q70 24 127.5 73t92.5 111l243 -184zM553 314h-213v158h213v-158z" />
<glyph unicode="&#xb1fd;" d="M866 278v49h-256v155h69v49h-407v238h-58v-287h69v-155h-253v-49h836zM666 17q0 80 -60.5 129.5t-157.5 49.5q-94 0 -155 -49t-61 -130q0 -83 61 -131.5t155 -48.5q95 0 156.5 48t61.5 132zM552 327h-213v155h213v-155zM608 17q0 -61 -48 -95.5t-112 -34.5 q-62 0 -110.5 36.5t-48.5 93.5q0 59 48 95t111 36q62 0 111 -37t49 -94z" />
<glyph unicode="&#xb204;" d="M680 420v52h-406v281h-57v-333h463zM868 227v52h-833v-52h384v-361h59v361h390z" />
<glyph unicode="&#xb205;" d="M685 476v49h-407v244h-58v-293h465zM868 300v48h-836v-48h396v-150h-204v-50h404v-262h57v312h-199v150h382z" />
<glyph unicode="&#xb208;" d="M683 457v47h-407v250h-58v-297h465zM868 267v50h-836v-50h410v-207h57v207h369zM701 -140v51h-417v222h-56v-273h473z" />
<glyph unicode="&#xb20b;" d="M685 476v49h-407v244h-58v-293h465zM868 301v48h-836v-48h396v-146h-204v-301h469v50h-411v202h401v50h-197v145h382z" />
<glyph unicode="&#xb20c;" d="M686 499v47h-407v233h-58v-280h465zM868 341v49h-836v-49h396v-124h-195v-49h386v-110h-380v-209h466v51h-407v111h382v206h-194v124h382z" />
<glyph unicode="&#xb214;" d="M684 476v49h-407v244h-58v-293h465zM868 298v48h-836v-48h396v-130h-198v-312h458v312h-202v130h382zM629 -94h-340v213h340v-213z" />
<glyph unicode="&#xb215;" d="M686 499v47h-407v233h-58v-280h465zM868 327v50h-836v-50h396v-174h58v174h382zM688 -149v359h-59v-126h-339v126h-57v-359h455zM629 -100h-339v134h339v-134z" />
<glyph unicode="&#xb217;" d="M677 468v49h-407v252h-58v-301h465zM867 289v50h-834v-50h385v-95q0 -93 -64 -177t-174 -123l36 -41q69 23 126.5 72.5t92.5 111.5l242 -185l38 40l-257 195q19 50 19 109v93h390z" />
<glyph unicode="&#xb219;" d="M685 478v49h-407v242h-58v-291h465zM868 309v48h-836v-48h396v-114q-84 -8 -136.5 -56t-52.5 -122q0 -83 61 -131.5t155 -48.5q95 0 156.5 48t61.5 132q0 73 -51 121.5t-136 56.5v114h382zM615 17q0 -61 -48 -95.5t-112 -34.5q-62 0 -110.5 36.5t-48.5 93.5q0 59 48 95 t111 36q62 0 111 -37t49 -94z" />
<glyph unicode="&#xb220;" horiz-adv-x="870" d="M785 -115v901h-55v-632h-220v-50h220v-219h55zM561 429v52h-369v238h-56v-290h425zM671 277v50q-147 -30 -398 -30h-242v-49h205q56 0 81 1v-350h57v351q158 6 297 27z" />
<glyph unicode="&#xb234;" horiz-adv-x="870" d="M787 177v609h-54v-492h-211v-46h211v-71h54zM540 495v50h-350v196h-55v-246h405zM674 378v48q-147 -30 -398 -30h-241v-46h244v-163h54v164q185 3 341 27zM846 -106l-179 163q10 46 11 63v26h-59v-22q0 -60 -29.5 -115.5t-84.5 -91.5l-133 129q10 32 13 75v25h-59v-22 q0 -63 -44 -127.5t-120 -102.5l36 -42q95 48 148 143l150 -148q42 19 83 57.5t69 97.5l162 -146z" />
<glyph unicode="&#xb23c;" horiz-adv-x="920" d="M826 -115v901h-56v-901h56zM469 439v52h-303v228h-58v-280h361zM647 -72v837h-56v-612h-182v-50h182v-175h56zM548 294v49q-166 -31 -353 -31h-161v-49h133q61 0 87 1v-365h55v367q43 1 81.5 5t56 6t55.5 9t46 8z" />
<glyph unicode="&#xb258;" horiz-adv-x="870" d="M766 -115v901h-55v-901h55zM570 421v50h-370v248h-56v-298h426zM674 268v49q-160 -29 -408 -29h-224v-49h186q56 0 81 1v-341h57v342q153 5 308 27z" />
<glyph unicode="&#xb25c;" horiz-adv-x="870" d="M768 88v698h-53v-698h53zM562 468v52h-359v209h-57v-261h416zM676 337v49q-152 -31 -407 -31h-234v-48h254v-166h55v167q150 3 332 29zM778 -141v51h-411v191h-56v-242h467z" />
<glyph unicode="&#xb260;" horiz-adv-x="870" d="M768 255v531h-53v-531h53zM562 513v52h-359v179h-57v-231h416zM676 392v49q-152 -31 -407 -31h-234v-48h244v-106h55v107q161 4 342 29zM770 -151v52h-400v114h374v200h-439v-48h380v-105h-375v-213h460z" />
<glyph unicode="&#xb268;" horiz-adv-x="870" d="M768 193v593h-53v-593h53zM562 493v52h-359v194h-57v-246h416zM676 361v49q-152 -31 -407 -31h-234v-48h244v-130h55v131q161 4 342 29zM754 -144v296h-446v-296h446zM695 -94h-330v198h330v-198z" />
<glyph unicode="&#xb269;" horiz-adv-x="870" d="M768 248v538h-53v-538h53zM562 513v52h-359v179h-57v-231h416zM676 389v49q-152 -31 -407 -31h-234v-48h244v-115h55v116q161 4 342 29zM753 -149v352h-58v-117h-332v117h-57v-352h447zM695 -100h-332v136h332v-136z" />
<glyph unicode="&#xb274;" d="M681 420v52h-406v281h-57v-333h463zM866 227v52h-833v-52h244v-361h57v361h225v-361h57v361h250z" />
<glyph unicode="&#xb275;" d="M684 468v48h-407v243h-58v-291h465zM868 290v47h-836v-47h253v-130h-62v-50h404v-262h57v312h-67v130h251zM561 160h-220v130h220v-130z" />
<glyph unicode="&#xb27c;" d="M683 500v47h-407v232h-58v-279h465zM868 349v48h-836v-48h253v-132h-57v-49h386v-110h-380v-209h466v51h-407v111h382v206h-56v132h249zM563 217h-222v132h222v-132z" />
<glyph unicode="&#xb284;" d="M684 478v48h-407v243h-58v-291h465zM868 308v47h-836v-47h258v-128h-63v-324h459v324h-64v128h246zM566 180h-220v128h220v-128zM627 -94h-340v225h340v-225z" />
<glyph unicode="&#xb285;" d="M684 497v47h-407v235h-58v-282h465zM868 335v50h-836v-50h292v-172h58v172h158v-172h56v172h272zM690 -149v366h-59v-133h-343v133h-57v-366h459zM631 -100h-343v134h343v-134z" />
<glyph unicode="&#xb289;" d="M685 481v47h-407v241h-58v-288h465zM868 315v49h-836v-49h248v-184q-44 -47 -44 -114q0 -83 61 -131.5t155 -48.5q95 0 156.5 48t61.5 132q0 70 -47 117v181h245zM567 173q-49 23 -115 23q-63 0 -116 -24v143h231v-142zM612 17q0 -61 -48 -95.5t-112 -34.5 q-62 0 -110.5 36.5t-48.5 93.5q0 59 48 95t111 36q62 0 111 -37t49 -94z" />
<glyph unicode="&#xb290;" d="M687 293v50h-426v356h-57v-406h483zM866 13v51h-833v-51h833z" />
<glyph unicode="&#xb291;" d="M677 462v49h-407v258h-58v-307h465zM868 284v48h-836v-48h836zM680 -152v312h-461v-50h404v-262h57z" />
<glyph unicode="&#xb294;" d="M680 436v47h-407v266h-58v-313h465zM868 259v48h-836v-48h836zM698 -140v51h-417v239h-56v-290h473z" />
<glyph unicode="&#xb298;" d="M683 491v47h-407v241h-58v-288h465zM868 332v50h-836v-50h836zM703 -151v51h-407v115h382v208h-447v-49h386v-112h-380v-213h466z" />
<glyph unicode="&#xb299;" d="M683 491v47h-407v241h-58v-288h465zM868 333v50h-836v-50h836zM742 -151v375h-266v-52h207v-323h59zM480 -151v52h-254v116h228v207h-290v-49h231v-110h-229v-216h314z" />
<glyph unicode="&#xb29a;" d="M683 492v47h-407v240h-58v-287h465zM868 334v50h-836v-50h836zM745 -151v371h-263v-371h263zM459 -151v52h-233v114h208v208h-270v-50h211v-109h-209v-215h293zM686 -102h-147v271h147v-271z" />
<glyph unicode="&#xb2a0;" d="M681 460v47h-407v262h-58v-309h465zM868 294v49h-836v-49h836zM685 -144v325h-458v-325h458zM626 -94h-340v226h340v-226z" />
<glyph unicode="&#xb2a1;" d="M681 488v47h-407v244h-58v-291h465zM868 318v48h-836v-48h836zM684 -149v359h-59v-126h-339v126h-57v-359h455zM625 -100h-339v134h339v-134z" />
<glyph unicode="&#xb2a3;" d="M679 452v47h-407v270h-58v-317h465zM868 284v48h-836v-48h836zM724 -106l-256 200q18 46 18 92v18h-61v-10q0 -93 -64 -177t-174 -123l36 -41q71 24 129 75t93 115l241 -190z" />
<glyph unicode="&#xb2a5;" d="M678 462v49h-407v258h-58v-307h465zM868 299v47h-836v-47h836zM670 25q0 82 -64 134.5t-154 52.5q-87 0 -151.5 -53t-64.5 -134q0 -80 64.5 -134t151.5 -54q88 0 153 53t65 135zM612 25q0 -64 -48 -101t-112 -37q-63 0 -110.5 37t-47.5 101q0 63 47.5 101t110.5 38 t111.5 -38.5t48.5 -100.5z" />
<glyph unicode="&#xb2a6;" d="M677 472v49h-407v248h-58v-297h465zM868 304v48h-836v-48h836zM756 -102l-226 123q102 87 131 172h-424v-48h331q-65 -88 -169 -153t-217 -93l33 -43q135 32 268 129l239 -131z" />
<glyph unicode="&#xb2aa;" d="M682 471v49h-407v249h-58v-298h465zM868 292v48h-836v-48h836zM715 -141v50h-109v205h99v49h-496v-49h100v-205h-111v-50h517zM549 -91h-183v205h183v-205z" />
<glyph unicode="&#xb2ac;" horiz-adv-x="870" d="M772 -115v901h-56v-901h56zM562 354v50h-368v293h-55v-343h423zM670 152v47q-200 -32 -408 -30h-214v-50h218q106 0 189 6t112 10t103 17z" />
<glyph unicode="&#xb2b0;" horiz-adv-x="870" d="M760 115v671h-57v-671h57zM539 432v51h-355v239h-55v-290h410zM661 288v45q-219 -33 -384 -26h-247v-49h241q199 0 390 30zM774 -141v51h-410v224h-58v-275h468z" />
<glyph unicode="&#xb2b4;" horiz-adv-x="870" d="M761 279v507h-57v-507h57zM529 493v49h-349v202h-55v-251h404zM661 359v46q-121 -17 -186.5 -22t-178.5 -4h-266v-50h261q49 0 92.5 1.5t72.5 3t63.5 5.5t49.5 6t48.5 7.5t43.5 6.5zM759 -151v52h-398v121h372v208h-440v-49h381v-111h-376v-221h461z" />
<glyph unicode="&#xb2c8;" horiz-adv-x="850" d="M719 -115v901h-56v-901h56zM555 190v51h-411v433h-57v-484h468z" />
<glyph unicode="&#xb2c9;" horiz-adv-x="850" d="M724 235v551h-56v-551h56zM551 349v50h-422v334h-56v-384h478zM702 -162v343h-460v-50h403v-293h57z" />
<glyph unicode="&#xb2cc;" horiz-adv-x="850" d="M724 145v641h-56v-641h56zM551 329v50h-422v344h-56v-394h478zM737 -141v51h-411v275h-57v-326h468z" />
<glyph unicode="&#xb2d0;" horiz-adv-x="850" d="M724 280v506h-55v-506h55zM551 379v50h-422v314h-56v-364h478zM717 -151v52h-399v125h377v213h-442v-50h383v-116h-378v-224h459z" />
<glyph unicode="&#xb2d2;" horiz-adv-x="850" d="M724 284v502h-55v-502h55zM551 379v50h-422v314h-56v-364h478zM716 -151v389h-262v-389h262zM434 -151v52h-240v123h211v215h-274v-50h214v-117h-212v-223h301zM658 -102h-148v289h148v-289z" />
<glyph unicode="&#xb2d8;" horiz-adv-x="850" d="M724 240v546h-55v-546h55zM551 349v50h-422v334h-56v-384h478zM706 -144v336h-446v-336h446zM647 -94h-330v237h330v-237z" />
<glyph unicode="&#xb2d9;" horiz-adv-x="850" d="M724 258v528h-55v-528h55zM551 369v50h-422v324h-56v-374h478zM704 -149v369h-59v-131h-329v131h-57v-369h445zM645 -100h-329v139h329v-139z" />
<glyph unicode="&#xb2db;" horiz-adv-x="850" d="M724 171v615h-55v-615h55zM551 339v50h-422v334h-56v-384h478zM749 -110q-16 13 -42.5 34t-82.5 65.5t-93 74.5l-37 29q18 47 18 93v48h-61v-40q0 -93 -64 -177t-174 -123l36 -41q71 24 129 75t93 115l241 -190z" />
<glyph unicode="&#xb2dd;" horiz-adv-x="850" d="M724 235v551h-55v-551h55zM551 349v50h-422v334h-56v-384h478zM705 32q0 84 -62.5 140t-151.5 56q-88 0 -151 -58t-63 -138q0 -85 63.5 -140.5t151.5 -55.5q89 0 151 55.5t62 140.5zM648 32q0 -60 -46.5 -103t-110.5 -43q-62 0 -108.5 44t-46.5 102q0 59 45.5 102.5 t109.5 43.5q65 0 111 -42.5t46 -103.5z" />
<glyph unicode="&#xb2e2;" horiz-adv-x="850" d="M724 235v551h-56v-551h56zM551 349v50h-422v334h-56v-384h478zM723 -141v50h-113v227h104v50h-507v-50h104v-227h-115v-50h527zM553 -91h-186v227h186v-227z" />
<glyph unicode="&#xb2e4;" d="M886 406v49h-172v331h-57v-901h57v521h172zM550 177v52h-413v375h330v49h-385v-476h468z" />
<glyph unicode="&#xb2e5;" d="M878 512v50h-165v224h-57v-577h57v303h165zM548 326v51h-421v291h335v49h-391v-391h477zM700 -162v328h-459v-50h403v-278h56z" />
<glyph unicode="&#xb2e6;" d="M878 512v50h-165v224h-57v-561h57v287h165zM548 326v51h-421v291h335v49h-391v-391h477zM715 -162v343h-242v-50h186v-293h56zM435 -162v343h-275v-50h220v-293h55z" />
<glyph unicode="&#xb2e8;" d="M876 513v51h-164v222h-56v-656h56v383h164zM548 316v51h-421v291h335v49h-391v-391h477zM725 -141v51h-410v265h-56v-316h466z" />
<glyph unicode="&#xb2eb;" d="M878 512v50h-165v224h-57v-542h57v268h165zM548 326v51h-421v291h335v49h-391v-391h477zM715 -146v50h-411v241h401v50h-459v-341h469z" />
<glyph unicode="&#xb2ec;" d="M879 529v51h-165v206h-57v-510h57v253h165zM548 366v51h-421v261h335v49h-391v-361h477zM724 -151v52h-402v122h376v214h-443v-50h384v-116h-377v-222h462z" />
<glyph unicode="&#xb2ed;" d="M900 529v51h-166v206h-56v-510h56v253h166zM568 376v51h-421v251h335v49h-391v-351h477zM736 -151v392h-264v-53h206v-339h58zM486 -151v52h-268v125h228v215h-294v-50h236v-118h-231v-224h329z" />
<glyph unicode="&#xb2ee;" d="M900 529v51h-166v206h-56v-506h56v249h166zM568 376v51h-421v251h335v49h-391v-351h477zM738 -151v389h-265v-389h265zM447 -151v52h-238v123h218v215h-280v-50h220v-117h-218v-223h298zM680 -102h-151v289h151v-289z" />
<glyph unicode="&#xb2ef;" d="M900 529v51h-166v206h-56v-500h56v243h166zM568 376v51h-421v251h335v49h-391v-351h477zM744 -150v389h-54v-148h-162v148h-55v-389h271zM442 -151v52h-231v123h207v215h-269v-50h209v-117h-207v-223h291zM690 -101h-162v142h162v-142z" />
<glyph unicode="&#xb2f3;" d="M900 529v51h-166v206h-56v-510h56v253h166zM568 376v51h-421v251h335v49h-391v-351h477zM730 175v50q-75 -7 -129 0q-42 4 -93 20l-17 -41q57 -25 106 -29q47 -4 133 0zM808 59v48h-378v-48h128q-39 -12 -62.5 -39t-24.5 -68q-1 -55 41.5 -88t104.5 -33q66 0 109 30.5 t43 89.5q0 41 -25.5 68.5t-67.5 39.5h132zM450 -151v52h-241v123h206v215h-268v-50h209v-117h-207v-223h301zM709 -51q0 -35 -26.5 -54.5t-65.5 -18.5q-38 1 -62.5 21.5t-24.5 56.5q0 35 26 54.5t64 18.5t63.5 -21t25.5 -57z" />
<glyph unicode="&#xb2f4;" d="M883 512v50h-165v224h-57v-542h57v268h165zM553 330v51h-421v287h335v49h-391v-387h477zM712 -144v345h-446v-345h446zM654 -94h-329v246h329v-246z" />
<glyph unicode="&#xb2f5;" d="M883 523v52h-165v211h-57v-528h57v265h165zM553 356v51h-421v271h335v49h-391v-371h477zM710 -149v369h-60v-131h-330v131h-57v-369h447zM650 -100h-330v139h330v-139z" />
<glyph unicode="&#xb2f7;" d="M890 501v50h-165v234h-57v-614h57v330h165zM560 326v51h-421v281h335v49h-391v-381h477zM759 -107q-254 201 -255 201q18 46 18 92v48h-61v-40q0 -93 -64 -177t-174 -123l36 -41q71 24 129 75t93 115l241 -190z" />
<glyph unicode="&#xb2f8;" d="M878 512v50h-165v224h-57v-555h57v281h165zM548 326v51h-421v291h335v49h-391v-391h477zM804 -106l-178 163q10 44 11 75v57h-58v-54q0 -65 -29 -124t-86 -96l-134 135q11 44 14 83v56h-59v-54q0 -76 -43.5 -143t-118.5 -96l34 -44q97 46 151 144l151 -149q95 43 148 155 l162 -146z" />
<glyph unicode="&#xb2f9;" d="M880 512v50h-165v224h-57v-551h57v277h165zM550 326v51h-421v291h335v49h-391v-391h477zM711 32q0 84 -62.5 140t-151.5 56q-88 0 -151 -58t-63 -138q0 -85 63.5 -140.5t151.5 -55.5q89 0 151 55.5t62 140.5zM654 32q0 -60 -46.5 -103t-110.5 -43q-62 0 -108.5 44 t-46.5 102q0 59 45.5 102.5t109.5 43.5q65 0 111 -42.5t46 -103.5z" />
<glyph unicode="&#xb2fa;" d="M882 512v50h-165v224h-57v-539h57v265h165zM552 348v51h-421v269h335v49h-391v-369h477zM783 -103q-14 8 -38 21t-74 40.5t-83 45.5l-34 18q107 92 137 181h-426v-48h331q-67 -90 -171.5 -159t-214.5 -96l33 -44q130 31 265 130l242 -132z" />
<glyph unicode="&#xb2fb;" d="M882 543v52h-165v191h-57v-518h57v275h165zM552 379v51h-421v248h335v49h-391v-348h477zM607 235v49q-120 -7 -190 2q-48 5 -94 21l-17 -42q42 -24 106 -30q84 -7 195 0zM769 -108l-213 105q87 74 123 154h-431v-46h332q-56 -74 -156.5 -131.5t-224.5 -81.5l31 -45 q154 29 279 115l224 -112z" />
<glyph unicode="&#xb2ff;" d="M888 543v52h-165v191h-57v-506h57v263h165zM558 389v51h-421v238h335v49h-391v-338h477zM623 233v49q-132 -8 -200 0q-45 4 -95 22l-17 -41q46 -24 107 -30q87 -7 205 0zM764 107v46h-566v-46h192q-45 -17 -72.5 -49.5t-26.5 -76.5q1 -65 57 -106.5t135 -41.5 q76 0 133 41t57 110q0 44 -27.5 75t-73.5 48h192zM610 -15q0 -45 -39.5 -74.5t-88.5 -29.5q-50 0 -89 29.5t-39 74.5q0 44 38 70.5t89 26.5t90 -26.5t39 -70.5z" />
<glyph unicode="&#xb300;" d="M809 -115v901h-56v-308h-160v287h-56v-815h56v476h160v-541h56zM465 177v52h-337v375h282v49h-337v-476h392z" />
<glyph unicode="&#xb301;" d="M797 219v567h-55v-230h-162v208h-56v-533h56v276h162v-288h55zM457 326v51h-337v291h273v49h-327v-391h391zM754 -162v328h-460v-50h404v-278h56z" />
<glyph unicode="&#xb304;" d="M797 140v646h-55v-254h-162v232h-56v-582h56v301h162v-343h55zM457 308v51h-337v299h273v49h-327v-399h391zM789 -141v51h-411v265h-56v-316h467z" />
<glyph unicode="&#xb308;" d="M797 276v510h-55v-199h-162v177h-56v-476h56v248h162v-260h55zM457 361v51h-337v266h273v49h-327v-366h391zM774 -151v52h-399v121h376v212h-443v-50h384v-114h-378v-221h460z" />
<glyph unicode="&#xb310;" d="M797 255v531h-55v-227h-162v205h-56v-498h56v244h162v-255h55zM457 326v51h-337v291h273v49h-327v-391h391zM766 -144v346h-449v-346h449zM708 -94h-333v247h333v-247z" />
<glyph unicode="&#xb311;" d="M797 259v527h-55v-215h-162v193h-56v-484h56v243h162v-264h55zM457 346v51h-337v281h273v49h-327v-381h391zM755 -149v369h-57v-131h-328v131h-60v-369h445zM698 -100h-328v139h328v-139z" />
<glyph unicode="&#xb313;" d="M797 199v587h-55v-230h-162v208h-56v-523h56v266h162v-308h55zM457 316v51h-337v291h273v49h-327v-391h391zM793 -110q-16 13 -42.5 34t-82.5 65.5t-94 74.5l-37 29q18 47 18 93v27h-60v-19q0 -93 -64 -177t-174 -123l36 -41q70 24 128 75t93 115l240 -191z" />
<glyph unicode="&#xb314;" d="M797 209v577h-55v-230h-162v208h-56v-533h56v276h162v-298h55zM457 326v51h-337v291h273v49h-327v-391h391zM835 -106l-179 164q11 40 12 74v57h-59v-54q0 -62 -33 -124.5t-82 -92.5l-133 132q10 28 14 83v56h-60v-54q0 -74 -44 -140t-119 -97l36 -46q94 44 151 144 l151 -149q93 42 148 155l162 -146z" />
<glyph unicode="&#xb315;" d="M797 229v557h-55v-230h-162v208h-56v-503h56v246h162v-278h55zM457 326v51h-337v291h273v49h-327v-391h391zM757 32q0 84 -62.5 140t-151.5 56q-88 0 -151 -58t-63 -138q0 -85 63.5 -140.5t151.5 -55.5q89 0 151 55.5t62 140.5zM700 32q0 -60 -46.5 -103t-110.5 -43 q-62 0 -108.5 44t-46.5 102q0 59 45.5 102.5t109.5 43.5q65 0 111 -42.5t46 -103.5z" />
<glyph unicode="&#xb31c;" d="M881 256v49h-172v198h172v49h-172v234h-57v-901h57v371h172zM546 177v52h-413v375h330v49h-385v-476h468z" />
<glyph unicode="&#xb354;" horiz-adv-x="850" d="M735 -115v901h-57v-332h-251v-50h251v-519h57zM542 177v52h-413v375h330v49h-385v-476h468z" />
<glyph unicode="&#xb355;" horiz-adv-x="850" d="M737 219v567h-57v-233h-231v-49h231v-285h57zM544 326v51h-421v291h335v49h-391v-391h477zM712 -162v328h-458v-50h403v-278h55z" />
<glyph unicode="&#xb356;" horiz-adv-x="850" d="M737 225v561h-57v-233h-231v-49h231v-279h57zM544 326v51h-421v291h335v49h-391v-391h477zM727 -162v343h-251v-50h195v-293h56zM448 -162v343h-277v-50h220v-293h57z" />
<glyph unicode="&#xb358;" horiz-adv-x="850" d="M737 130v656h-57v-251h-231v-51h231v-354h57zM544 303v51h-421v304h335v49h-391v-404h477zM748 -141v51h-410v255h-58v-306h468z" />
<glyph unicode="&#xb35b;" horiz-adv-x="850" d="M737 244v542h-57v-234h-231v-49h231v-259h57zM544 326v51h-421v291h335v49h-391v-391h477zM738 -146v50h-410v242h399v49h-458v-341h469z" />
<glyph unicode="&#xb35c;" horiz-adv-x="850" d="M737 276v510h-57v-215h-231v-50h231v-245h57zM544 362v51h-421v265h335v49h-391v-365h477zM729 -151v52h-398v123h377v211h-445v-50h386v-114h-381v-222h461z" />
<glyph unicode="&#xb35e;" horiz-adv-x="850" d="M724 264v522h-57v-211h-231v-50h231v-261h57zM531 361v51h-421v266h335v49h-391v-366h477zM718 -151v380h-264v-380h264zM430 -151v52h-236v120h210v213h-270v-50h212v-115h-210v-220h294zM660 -102h-148v280h148v-280z" />
<glyph unicode="&#xb35f;" horiz-adv-x="850" d="M727 264v522h-57v-211h-231v-50h231v-261h57zM534 361v51h-421v266h335v49h-391v-366h477zM721 -150v384h-55v-146h-157v146h-55v-384h267zM423 -151v52h-234v120h209v213h-272v-50h212v-115h-209v-220h294zM666 -101h-157v139h157v-139z" />
<glyph unicode="&#xb364;" horiz-adv-x="850" d="M717 245v541h-57v-228h-231v-49h231v-264h57zM524 326v51h-421v291h335v49h-391v-391h477zM696 -144v346h-446v-346h446zM639 -94h-329v247h329v-247z" />
<glyph unicode="&#xb365;" horiz-adv-x="850" d="M717 253v533h-57v-221h-231v-50h231v-262h57zM524 348v51h-421v279h335v49h-391v-379h477zM694 -149v364h-57v-129h-328v129h-60v-364h445zM637 -100h-328v136h328v-136z" />
<glyph unicode="&#xb367;" horiz-adv-x="850" d="M727 169v617h-57v-248h-231v-49h231v-320h57zM534 320v51h-421v287h335v49h-391v-387h477zM744 -107q-255 201 -256 201q18 46 18 92v48h-60v-40q0 -93 -64 -177t-174 -123l36 -41q70 24 128 75t93 115l242 -190z" />
<glyph unicode="&#xb369;" horiz-adv-x="850" d="M727 229v557h-57v-233h-231v-49h231v-275h57zM534 326v51h-421v291h335v49h-391v-391h477zM709 32q0 84 -62.5 140t-151.5 56q-88 0 -151 -58t-63 -138q0 -85 63.5 -140.5t151.5 -55.5q89 0 151 55.5t62 140.5zM652 32q0 -60 -46.5 -103t-110.5 -43q-62 0 -108.5 44 t-46.5 102q0 59 45.5 102.5t109.5 43.5q65 0 111 -42.5t46 -103.5z" />
<glyph unicode="&#xb36b;" horiz-adv-x="850" d="M720 266v520h-57v-205h-231v-50h231v-265h57zM527 382v51h-421v245h335v49h-391v-345h477zM599 235v49q-120 -7 -190 2q-48 5 -94 21l-17 -42q42 -24 106 -30q84 -7 195 0zM761 -108l-215 105q87 70 125 154h-431v-46h332q-56 -74 -157.5 -131t-226.5 -81l31 -45 q153 29 279 114l227 -112z" />
<glyph unicode="&#xb36e;" horiz-adv-x="850" d="M727 254v532h-57v-234h-231v-49h231v-249h57zM534 336v51h-421v281h335v49h-391v-381h477zM734 -141v50h-113v239h104v51h-508v-51h104v-239h-115v-50h528zM564 -91h-185v239h185v-239z" />
<glyph unicode="&#xb370;" d="M812 -115v901h-58v-901h58zM612 -50v815h-57v-321h-220v-51h220v-443h57zM465 177v52h-337v375h282v49h-337v-476h392z" />
<glyph unicode="&#xb371;" d="M797 229v557h-55v-557h55zM606 241v523h-56v-215h-210v-49h210v-259h56zM457 326v51h-337v291h273v49h-327v-391h391zM754 -162v338h-460v-50h404v-288h56z" />
<glyph unicode="&#xb374;" d="M797 129v657h-55v-657h55zM606 171v593h-56v-237h-210v-49h210v-307h56zM457 296v51h-337v311h273v49h-327v-411h391zM789 -141v51h-411v269h-56v-320h467z" />
<glyph unicode="&#xb378;" d="M797 264v522h-55v-522h55zM606 281v483h-56v-197h-210v-49h210v-237h56zM457 346v51h-337v281h273v49h-327v-381h391zM774 -151v52h-399v118h373v210h-440v-49h381v-113h-375v-218h460z" />
<glyph unicode="&#xb380;" d="M797 245v541h-55v-541h55zM606 251v513h-56v-215h-210v-49h210v-249h56zM457 326v51h-337v291h273v49h-327v-391h391zM763 -144v336h-446v-336h446zM705 -94h-330v237h330v-237z" />
<glyph unicode="&#xb381;" d="M797 257v529h-55v-529h55zM606 281v483h-56v-197h-210v-49h210v-237h56zM457 346v51h-337v281h273v49h-327v-381h391zM754 -149v369h-57v-130h-334v130h-60v-369h451zM697 -100h-334v140h334v-140z" />
<glyph unicode="&#xb383;" d="M797 192v594h-55v-594h55zM606 246v518h-56v-228h-210v-49h210v-241h56zM457 311v51h-337v296h273v49h-327v-396h391zM784 -106l-255 200q17 49 17 92v27h-60v-19q0 -93 -64 -177t-174 -123l36 -41q71 24 129 75.5t93 115.5l241 -191z" />
<glyph unicode="&#xb384;" d="M797 228v558h-55v-558h55zM606 241v523h-56v-219h-210v-49h210v-255h56zM457 322v51h-337v295h273v49h-327v-395h391zM835 -106l-179 164q11 40 12 74v57h-59v-54q0 -62 -33 -124.5t-82 -92.5l-133 132q10 28 14 83v56h-60v-54q0 -74 -44 -140t-119 -97l36 -46 q94 44 151 144l151 -149q93 42 148 155l162 -146z" />
<glyph unicode="&#xb385;" d="M797 221v565h-55v-565h55zM606 271v493h-56v-218h-210v-49h210v-226h56zM457 322v51h-337v295h273v49h-327v-395h391zM762 32q0 84 -62.5 140t-151.5 56q-88 0 -151 -58t-63 -138q0 -85 63.5 -140.5t151.5 -55.5q89 0 151 55.5t62 140.5zM705 32q0 -60 -46.5 -103 t-110.5 -43q-62 0 -108.5 44t-46.5 102q0 59 45.5 102.5t109.5 43.5q65 0 111 -42.5t46 -103.5z" />
<glyph unicode="&#xb38c;" horiz-adv-x="850" d="M740 -115v901h-56v-260h-253v-49h253v-116h-253v-49h253v-427h56zM538 177v52h-413v375h330v49h-385v-476h468z" />
<glyph unicode="&#xb390;" horiz-adv-x="850" d="M737 99v687h-57v-184h-238v-48h238v-102h-237v-48h237v-305h57zM534 293v51h-421v314h335v49h-391v-414h477zM748 -141v51h-410v255h-58v-306h468z" />
<glyph unicode="&#xb394;" horiz-adv-x="850" d="M738 275v511h-56v-148h-234v-51h234v-91h-234v-49h234v-172h56zM534 352v51h-421v275h335v49h-391v-375h477zM725 -151v52h-398v123h377v211h-445v-50h386v-114h-381v-222h461z" />
<glyph unicode="&#xb3a0;" horiz-adv-x="850" d="M738 216v570h-56v-170h-234v-49h234v-93h-234v-49h234v-209h56zM534 313v51h-421v304h335v49h-391v-404h477zM795 -106l-179 164q11 40 12 74v57h-59v-54q0 -62 -33 -124t-82 -92l-130 131q10 28 14 83v56h-60v-54q0 -74 -45.5 -140t-120.5 -97l36 -46q98 46 154 144 l148 -149q93 42 148 155l162 -146z" />
<glyph unicode="&#xb3a1;" horiz-adv-x="850" d="M738 236v550h-56v-170h-234v-49h234v-93h-234v-49h234v-189h56zM534 313v51h-421v304h335v49h-391v-404h477zM717 32q0 84 -62.5 140t-151.5 56q-88 0 -151 -58t-63 -138q0 -85 63.5 -140.5t151.5 -55.5q89 0 151 55.5t62 140.5zM660 32q0 -60 -46.5 -103t-110.5 -43 q-62 0 -108.5 44t-46.5 102q0 59 45.5 102.5t109.5 43.5q65 0 111 -42.5t46 -103.5z" />
<glyph unicode="&#xb3a8;" d="M815 -115v901h-57v-901h57zM627 -50v815h-56v-235h-219v-49h219v-128h-220v-50h220v-353h56zM465 177v52h-337v375h282v49h-337v-476h392z" />
<glyph unicode="&#xb3ac;" d="M800 130v656h-55v-656h55zM618 172v592h-57v-164h-211v-51h211v-111h-211v-51h211v-215h57zM457 276v51h-337v331h273v49h-327v-431h391zM809 -141v51h-411v243h-56v-294h467z" />
<glyph unicode="&#xb3c4;" d="M676 284v52h-420v293h420v49h-476v-394h476zM866 3v50h-396v187h-58v-187h-381v-50h835z" />
<glyph unicode="&#xb3c5;" d="M868 249v49h-391v138h189v51h-395v209h393v51h-450v-311h205v-138h-387v-49h836zM673 -162v294h-460v-51h403v-243h57z" />
<glyph unicode="&#xb3c8;" d="M868 231v49h-391v146h189v51h-395v219h393v51h-450v-321h205v-146h-387v-49h836zM697 -140v51h-417v232h-56v-283h473z" />
<glyph unicode="&#xb3cb;" d="M868 264v49h-386v138h189v49h-395v196h393v51h-450v-296h205v-138h-392v-49h836zM693 -146v50h-411v190h401v48h-459v-288h469z" />
<glyph unicode="&#xb3cc;" d="M868 309v49h-391v118h189v51h-395v179h393v51h-450v-281h205v-118h-387v-49h836zM699 -151v51h-407v111h382v200h-449v-48h388v-105h-380v-209h466z" />
<glyph unicode="&#xb3ce;" d="M868 309v49h-391v118h189v51h-395v179h393v51h-450v-281h205v-118h-387v-49h836zM744 -151v358h-263v-358h263zM455 -151v52h-233v108h208v199h-270v-48h211v-104h-209v-207h293zM685 -102h-147v260h147v-260z" />
<glyph unicode="&#xb3d0;" d="M868 309v49h-391v118h189v51h-395v179h393v51h-450v-281h205v-118h-387v-49h836zM807 -109l-148 149q14 47 14 94v86h-60v-87q0 -72 -34 -137.5t-97 -97.5v3h-250v111h220v203h-282v-48h223v-108h-221v-210h310v34l26 -31q33 12 68.5 47t60.5 85l130 -132z" />
<glyph unicode="&#xb3d4;" d="M868 261v49h-386v135h189v49h-395v202h393v51h-450v-302h205v-135h-392v-49h836zM688 -144v294h-458v-294h458zM629 -94h-340v195h340v-195z" />
<glyph unicode="&#xb3d5;" d="M868 296v49h-391v128h189v51h-395v182h393v51h-450v-284h205v-128h-387v-49h836zM685 -149v359h-59v-124h-339v124h-58v-359h456zM626 -100h-339v136h339v-136z" />
<glyph unicode="&#xb3d7;" d="M868 254v49h-391v133h189v51h-395v209h393v51h-450v-311h205v-133h-387v-49h836zM721 -106l-255 200q17 49 17 92v14h-60v-6q0 -93 -64 -177t-174 -123l36 -41q71 24 129 75.5t93 115.5l241 -191z" />
<glyph unicode="&#xb3d9;" d="M868 264v49h-386v135h189v49h-395v199h393v51h-450v-299h205v-135h-392v-49h836zM673 17q0 80 -60.5 129.5t-157.5 49.5q-94 0 -155 -49t-61 -130q0 -83 61 -131.5t155 -48.5q95 0 156.5 48t61.5 132zM615 17q0 -61 -48 -95.5t-112 -34.5q-62 0 -110.5 36.5t-48.5 93.5 q0 59 48 95t111 36q62 0 111 -37t49 -94z" />
<glyph unicode="&#xb3db;" d="M868 322v49h-391v108h191v51h-395v179h393v51h-450v-281h203v-108h-387v-49h836zM598 199v48q-138 -4 -193 1q-45 4 -95 22l-16 -41q54 -25 107 -30q85 -7 197 0zM756 -109l-217 93q89 66 130 147h-432v-46h330q-114 -137 -381 -190l31 -43q154 30 272 99l231 -101z" />
<glyph unicode="&#xb3dd;" d="M868 296v49h-386v127h189v49h-395v188h393v49h-450v-286h205v-127h-392v-49h836zM693 -151v49h-407v102h384v50h-384v96h397v49h-454v-346h464z" />
<glyph unicode="&#xb3e0;" horiz-adv-x="920" d="M907 375v50h-163v361h-55v-901h55v490h163zM650 147v47q-168 -32 -295 -31v174h168v52h-353v235h350v49h-407v-336h184v-174h-267v-49h262q55 0 99.5 1.5t71.5 3t57.5 5.5t43.5 6.5t43 8.5t43 8z" />
<glyph unicode="&#xb3e4;" horiz-adv-x="920" d="M909 452v50h-162v284h-55v-671h55v337h162zM659 252v46q-173 -27 -309 -27v133h166v50h-340v203h337v49h-395v-302h177v-133h-257v-51h241q228 0 380 32zM763 -141v51h-411v214h-57v-265h468z" />
<glyph unicode="&#xb3e8;" horiz-adv-x="920" d="M906 501v50h-162v235h-55v-518h55v233h162zM655 338v46q-173 -27 -309 -27v107h166v50h-340v163h337v49h-395v-262h177v-107h-257v-51h241q228 0 380 32zM751 -151v52h-399v117h373v203h-440v-48h380v-107h-375v-217h461z" />
<glyph unicode="&#xb3fc;" horiz-adv-x="920" d="M830 -115v901h-56v-364h-144v343h-57v-815h57v422h144v-487h56zM535 147v47q-102 -28 -225 -31v174h142v52h-296v235h293v49h-348v-336h151v-174h-217v-49h192q188 0 308 33z" />
<glyph unicode="&#xb410;" horiz-adv-x="920" d="M829 210v576h-57v-264h-144v242h-57v-543h57v252h144v-263h57zM542 277v48q-88 -21 -239 -25v120h143v51h-295v197h292v49h-347v-297h152v-120h-216v-49h199q179 0 311 26zM856 -106l-178 163q9 28 10 63v55h-59v-51q0 -58 -31 -113.5t-83 -92.5l-133 128q10 32 13 75v54 h-59v-51q0 -62 -44 -127t-120 -102l36 -43q95 48 148 143l150 -148q95 43 152 155l162 -146z" />
<glyph unicode="&#xb418;" horiz-adv-x="870" d="M780 -115v901h-56v-901h56zM687 147v47q-169 -32 -307 -31v174h168v52h-363v235h360v49h-417v-336h194v-174h-287v-49h282q47 0 85.5 0.5t71 3t52.5 4t47 5.5t37 5.5t39 7t38 7.5z" />
<glyph unicode="&#xb41c;" horiz-adv-x="870" d="M765 115v671h-56v-671h56zM675 257v46q-173 -27 -319 -27v130h166v50h-340v201h337v49h-395v-300h177v-130h-267v-51h251q238 0 390 32zM776 -141v51h-408v227h-58v-278h466z" />
<glyph unicode="&#xb420;" horiz-adv-x="870" d="M767 274v512h-57v-512h57zM677 336v46q-173 -27 -319 -27v109h166v50h-340v163h337v49h-395v-262h177v-109h-267v-51h251q238 0 390 32zM761 -151v52h-398v119h372v206h-440v-49h381v-109h-376v-219h461z" />
<glyph unicode="&#xb428;" horiz-adv-x="870" d="M765 215v570h-56v-570h56zM675 297v46q-173 -27 -319 -27v120h166v50h-340v181h337v49h-395v-280h177v-120h-267v-51h251q238 0 390 32zM746 -144v306h-446v-306h446zM689 -94h-329v207h329v-207z" />
<glyph unicode="&#xb429;" horiz-adv-x="870" d="M767 261v525h-57v-525h57zM677 322v46q-173 -27 -319 -27v117h166v50h-340v169h337v49h-395v-268h177v-117h-267v-51h251q238 0 390 32zM745 -149v355h-57v-117h-328v117h-60v-355h445zM688 -100h-328v139h328v-139z" />
<glyph unicode="&#xb42b;" horiz-adv-x="870" d="M767 170v616h-57v-616h57zM677 280v46q-173 -27 -319 -27v134h166v50h-340v184h337v49h-395v-283h177v-134h-267v-51h251q238 0 390 32zM797 -108q-256 183 -257 183q18 45 18 94v23h-59v-20q0 -87 -64 -163.5t-175 -114.5l36 -42q72 24 129.5 69.5t91.5 103.5l242 -172z " />
<glyph unicode="&#xb434;" d="M676 284v52h-420v293h420v49h-476v-394h476zM866 3v50h-258v185h-58v-185h-211v185h-56v-185h-252v-50h835z" />
<glyph unicode="&#xb450;" d="M670 393v49h-410v237h400v49h-457v-335h467zM863 207v50h-833v-50h387v-341h59v341h387z" />
<glyph unicode="&#xb451;" d="M674 452v49h-395v195h393v51h-450v-295h452zM871 283v50h-834v-50h391v-141h-206v-50h404v-254h57v304h-197v141h385z" />
<glyph unicode="&#xb454;" d="M676 434v51h-396v206h393v51h-450v-308h453zM870 259v48h-836v-48h406v-196h58v196h372zM703 -140v51h-417v232h-56v-283h473z" />
<glyph unicode="&#xb458;" d="M671 483v51h-395v175h393v49h-450v-275h452zM868 329v50h-836v-50h394v-117h-195v-47h386v-109h-380v-207h466v51h-407v109h382v203h-194v117h384z" />
<glyph unicode="&#xb460;" d="M671 451v49h-395v196h393v51h-450v-296h452zM868 285v50h-836v-50h396v-134h-198v-295h458v295h-202v134h382zM629 -94h-340v196h340v-196z" />
<glyph unicode="&#xb461;" d="M672 473v51h-395v185h393v49h-450v-285h452zM868 314v49h-836v-49h396v-171h58v171h382zM690 -149v359h-59v-126h-339v126h-57v-359h455zM631 -100h-339v134h339v-134z" />
<glyph unicode="&#xb463;" d="M669 448v49h-395v199h393v51h-450v-299h452zM867 279v50h-834v-50h387v-85q0 -93 -64 -177t-174 -123l36 -41q69 23 126.5 72.5t92.5 111.5l242 -185l38 40l-257 195q19 50 19 109v83h388z" />
<glyph unicode="&#xb465;" d="M672 454v49h-395v193h393v51h-450v-293h452zM868 303v48h-836v-48h391v-108q-83 -8 -135 -56t-52 -122q0 -83 61 -131.5t155 -48.5q95 0 156.5 48t61.5 132q0 74 -52 122t-137 56v108h387zM612 17q0 -61 -48 -95.5t-112 -34.5q-62 0 -110.5 36.5t-48.5 93.5q0 59 48 95 t111 36q62 0 111 -37t49 -94z" />
<glyph unicode="&#xb46c;" horiz-adv-x="870" d="M775 -115v901h-55v-643h-230v-50h230v-208h55zM534 403v50h-349v204h346v49h-401v-303h404zM661 268v50q-147 -30 -388 -30h-242v-49h266v-340h57v341q169 6 307 28z" />
<glyph unicode="&#xb480;" horiz-adv-x="870" d="M777 167v619h-54v-502h-215v-48h215v-69h54zM514 473v52h-327v153h324v49h-379v-254h382zM674 359v47q-160 -29 -398 -29h-241v-48h254v-152h54v153q152 3 331 29zM835 -106l-179 160q10 46 11 66v26h-59v-22q0 -60 -29.5 -115.5t-84.5 -91.5l-133 128q10 32 13 76v25 h-59v-22q0 -63 -44 -127.5t-120 -102.5l36 -42q96 48 148 142l150 -147q100 45 152 152l162 -143z" />
<glyph unicode="&#xb488;" horiz-adv-x="920" d="M826 -115v901h-56v-901h56zM646 -72v837h-56v-617h-176v-50h176v-170h56zM456 413v50h-284v194h280v49h-338v-293h342zM548 279v49q-166 -31 -348 -31h-161v-49h133q61 0 87 1v-350h55v352q43 1 80 4.5t55.5 6.5t52.5 9t46 8z" />
<glyph unicode="&#xb49d;" horiz-adv-x="920" d="M823 175v611h-58v-611h58zM653 217v547h-56v-454h-185v-49h185v-44h56zM450 490v52h-286v136h283v49h-338v-237h341zM556 387v50q-126 -27 -347 -27h-163v-50h205v-179h57v180q112 5 248 26zM767 12q0 82 -61.5 129.5t-152.5 47.5q-90 0 -152 -49.5t-62 -127.5 q0 -83 62 -129.5t153 -46.5q92 0 152.5 46t60.5 130zM710 12q0 -59 -45 -92.5t-112 -33.5q-64 0 -109.5 35t-45.5 91q0 57 44 92t111 35q68 0 112.5 -34t44.5 -93z" />
<glyph unicode="&#xb4a4;" horiz-adv-x="870" d="M763 -115v901h-55v-901h55zM535 403v50h-349v204h346v49h-401v-303h404zM672 258v49q-160 -29 -408 -29h-224v-49h186q58 0 84 1v-331h57v332q153 5 305 27z" />
<glyph unicode="&#xb4a8;" horiz-adv-x="870" d="M753 125v661h-54v-661h54zM513 440v50h-329v178h326v49h-381v-277h384zM655 316v48q-147 -30 -390 -30h-234v-46h234v-132h55v133q163 3 335 27zM757 -141v51h-410v214h-57v-265h467z" />
<glyph unicode="&#xb4ac;" horiz-adv-x="870" d="M756 249v537h-53v-537h53zM495 480v50h-329v148h326v49h-381v-247h384zM653 376v50q-147 -30 -388 -30h-242v-49h226v-108h57v109q195 3 347 28zM753 -151v52h-400v112h374v199h-439v-48h380v-104h-375v-211h460z" />
<glyph unicode="&#xb4b5;" horiz-adv-x="870" d="M762 236v550h-53v-550h53zM501 480v50h-329v148h326v49h-381v-247h384zM659 376v50q-147 -30 -398 -30h-232v-49h226v-113h57v114q183 3 347 28zM739 -149v348h-58v-115h-329v115h-57v-348h444zM681 -100h-329v134h329v-134z" />
<glyph unicode="&#xb4b7;" horiz-adv-x="870" d="M761 135v651h-54v-651h54zM506 440v50h-329v178h326v49h-381v-277h384zM659 312v50q-98 -20 -398 -20h-232v-49h236v-152h57v153q261 6 337 18zM777 -108l-256 183q17 46 17 94v33h-59v-30q0 -87 -64 -163.5t-175 -114.5l36 -42q149 49 222 175l242 -174z" />
<glyph unicode="&#xb4b9;" horiz-adv-x="870" d="M764 182v604h-53v-604h53zM503 457v50h-329v161h326v49h-381v-260h384zM661 336v50q-147 -30 -388 -30h-242v-49h226v-138h57v139q195 3 347 28zM739 12q0 82 -61.5 129.5t-152.5 47.5q-90 0 -152 -49.5t-62 -127.5q0 -83 62 -129.5t153 -46.5q92 0 152.5 46t60.5 130z M682 12q0 -59 -45 -92.5t-112 -33.5q-64 0 -109.5 35t-45.5 91q0 57 44 92t111 35q68 0 112.5 -34t44.5 -93z" />
<glyph unicode="&#xb4c0;" d="M676 398v49h-410v232h400v49h-457v-330h467zM866 207v50h-833v-50h244v-341h57v341h225v-341h57v341h250z" />
<glyph unicode="&#xb4c4;" d="M673 441v51h-396v204h393v51h-450v-306h453zM867 269v48h-836v-48h321v-206h56v206h155v-206h56v206h248zM700 -140v51h-417v227h-56v-278h473z" />
<glyph unicode="&#xb4c8;" d="M673 484v51h-395v174h393v49h-450v-274h452zM868 330v50h-836v-50h268v-122h-67v-48h386v-106h-380v-205h466v51h-407v107h382v201h-58v122h246zM566 208h-209v122h209v-122z" />
<glyph unicode="&#xb4d0;" d="M671 457v49h-395v190h393v51h-450v-290h452zM868 289v49h-836v-49h268v-128h-70v-305h458v305h-66v128h246zM566 161h-209v128h209v-128zM629 -94h-340v206h340v-206z" />
<glyph unicode="&#xb4d5;" d="M672 459v49h-395v188h393v51h-450v-288h452zM868 305v47h-836v-47h246v-187q-37 -45 -37 -101q0 -78 64.5 -129t151.5 -51q88 0 153 51t65 129q0 65 -49 114v174h242zM570 171q-52 25 -113 25q-65 0 -123 -32v141h236v-134zM617 17q0 -57 -48.5 -93.5t-111.5 -36.5 q-61 0 -110 37t-49 93q0 59 48 95t111 36q62 0 111 -37t49 -94z" />
<glyph unicode="&#xb4dc;" d="M680 274v52h-420v303h420v49h-476v-404h476zM866 13v51h-835v-51h835z" />
<glyph unicode="&#xb4dd;" d="M669 442v49h-395v205h393v51h-450v-305h452zM866 266v48h-834v-48h834zM673 -162v304h-461v-50h404v-254h57z" />
<glyph unicode="&#xb4e0;" d="M672 425v51h-396v220h393v51h-450v-322h453zM866 248v48h-836v-48h836zM700 -140v51h-417v222h-56v-273h473z" />
<glyph unicode="&#xb4e3;" d="M673 449v49h-395v198h393v51h-450v-298h452zM868 273v49h-836v-49h836zM693 -146v50h-411v194h401v48h-459v-292h469z" />
<glyph unicode="&#xb4e4;" d="M671 472v49h-395v188h393v49h-450v-286h452zM868 316v49h-836v-49h836zM702 -151v51h-407v110h382v201h-449v-48h388v-106h-380v-208h466z" />
<glyph unicode="&#xb4e6;" d="M671 472v49h-395v188h393v49h-450v-286h452zM868 316v49h-836v-49h836zM744 -151v351h-263v-351h263zM455 -151v52h-233v102h208v199h-270v-48h211v-104h-209v-201h293zM685 -102h-147v253h147v-253z" />
<glyph unicode="&#xb4ec;" d="M671 443v49h-395v204h393v51h-450v-304h452zM868 276v50h-836v-50h836zM688 -144v305h-458v-305h458zM629 -94h-340v206h340v-206z" />
<glyph unicode="&#xb4ed;" d="M672 458v49h-395v202h393v49h-450v-300h452zM868 300v47h-836v-47h836zM685 -149v363h-59v-130h-339v130h-57v-363h455zM626 -100h-339v134h339v-134z" />
<glyph unicode="&#xb4ef;" d="M671 435v50h-395v211h393v51h-450v-312h452zM868 276v50h-836v-50h836zM726 -108l-258 193q21 51 21 101v16h-61v-8q0 -94 -63 -177.5t-173 -121.5l36 -41q69 23 125.5 72t91.5 111l244 -184z" />
<glyph unicode="&#xb4f1;" d="M671 439v48h-395v209h393v51h-450v-308h452zM868 282v49h-836v-49h836zM673 17q0 80 -60.5 129.5t-157.5 49.5q-94 0 -155 -49t-61 -130q0 -83 61 -131.5t155 -48.5q95 0 156.5 48t61.5 132zM615 17q0 -61 -48 -95.5t-112 -34.5q-62 0 -110.5 36.5t-48.5 93.5q0 59 48 95 t111 36q62 0 111 -37t49 -94z" />
<glyph unicode="&#xb4f8;" horiz-adv-x="870" d="M762 -115v901h-56v-901h56zM539 327v52h-353v245h350v49h-407v-346h410zM670 156v47q-201 -32 -418 -30h-214v-50h218q107 0 190.5 5.5t119.5 10.5t104 17z" />
<glyph unicode="&#xb514;" horiz-adv-x="850" d="M733 -115v901h-56v-901h56zM569 177v52h-433v375h340v49h-395v-476h488z" />
<glyph unicode="&#xb515;" horiz-adv-x="850" d="M736 229v557h-56v-557h56zM561 326v51h-431v291h345v49h-401v-391h487zM712 -162v338h-458v-50h402v-288h56z" />
<glyph unicode="&#xb518;" horiz-adv-x="850" d="M736 130v656h-56v-656h56zM561 306v51h-431v301h345v49h-401v-401h487zM748 -141v51h-410v265h-59v-316h469z" />
<glyph unicode="&#xb51b;" horiz-adv-x="850" d="M736 244v542h-56v-542h56zM561 336v51h-431v281h345v49h-401v-381h487zM727 -146v50h-411v242h399v49h-456v-341h468z" />
<glyph unicode="&#xb51c;" horiz-adv-x="850" d="M736 280v506h-56v-506h56zM561 366v51h-431v261h345v49h-401v-361h487zM728 -151v52h-399v125h374v213h-440v-50h380v-116h-375v-224h460z" />
<glyph unicode="&#xb524;" horiz-adv-x="850" d="M736 255v531h-56v-531h56zM561 336v51h-431v281h345v49h-401v-381h487zM716 -144v346h-446v-346h446zM658 -94h-330v247h330v-247z" />
<glyph unicode="&#xb525;" horiz-adv-x="850" d="M736 273v513h-56v-513h56zM561 361v51h-431v266h345v49h-401v-366h487zM714 -149v374h-58v-136h-329v136h-58v-374h445zM656 -100h-329v139h329v-139z" />
<glyph unicode="&#xb527;" horiz-adv-x="850" d="M730 171v615h-56v-615h56zM555 326v51h-431v281h345v49h-401v-381h487zM753 -110l-258 196q21 51 21 100v38h-61v-30q0 -93 -64 -177t-174 -123l36 -41q69 23 126 72.5t93 111.5l244 -184z" />
<glyph unicode="&#xb528;" horiz-adv-x="850" d="M736 222v564h-56v-564h56zM561 326v51h-431v291h345v49h-401v-391h487zM804 -106l-178 163q9 31 11 75v57l-61 -3l3 -51q0 -61 -29.5 -122.5t-85.5 -97.5l-134 135q11 44 14 83v56h-59v-54q0 -72 -44.5 -141t-119.5 -98l36 -44q97 46 151 144l151 -149q95 43 148 155 l162 -146z" />
<glyph unicode="&#xb529;" horiz-adv-x="850" d="M736 235v551h-56v-551h56zM561 331v51h-431v286h345v49h-401v-386h487zM716 32q0 84 -62.5 140t-151.5 56q-88 0 -151 -58t-63 -138q0 -85 63.5 -140.5t151.5 -55.5q89 0 151 55.5t62 140.5zM659 32q0 -60 -46.5 -103t-110.5 -43q-62 0 -108.5 44t-46.5 102 q0 59 45.5 102.5t109.5 43.5q65 0 111 -42.5t46 -103.5z" />
<glyph unicode="&#xb52a;" horiz-adv-x="850" d="M736 249v537h-56v-537h56zM561 356v51h-431v261h345v49h-401v-361h487zM773 -103q-14 8 -38 21t-74 40.5t-83 45.5l-34 18q107 92 137 181h-426v-48h331q-67 -90 -171.5 -159t-214.5 -96l33 -44q130 31 265 130l242 -132z" />
<glyph unicode="&#xb530;" horiz-adv-x="920" d="M908 406v49h-172v331h-56v-901h56v521h172zM631 177v52h-253v375h187v49h-242v-424h-201v375h161v49h-216v-476h564z" />
<glyph unicode="&#xb531;" horiz-adv-x="920" d="M900 512v50h-167v224h-55v-571h55v297h167zM618 325v52h-240v291h190v49h-247v-340h-200v291h162v49h-219v-392h554zM722 -162v333h-458v-50h402v-283h56z" />
<glyph unicode="&#xb534;" horiz-adv-x="920" d="M898 491v53h-166v242h-54v-656h54v361h166zM617 295v52h-240v311h190v49h-247v-360h-200v311h162v49h-219v-412h554zM747 -141v51h-411v245h-57v-296h468z" />
<glyph unicode="&#xb538;" horiz-adv-x="920" d="M901 529v51h-167v206h-55v-510h55v253h167zM619 365v52h-240v261h190v49h-247v-310h-200v261h162v49h-219v-362h554zM743 -151v52h-404v122h378v214h-445v-50h385v-116h-380v-222h466z" />
<glyph unicode="&#xb540;" horiz-adv-x="920" d="M910 512v50h-167v224h-55v-551h55v277h167zM628 325v52h-240v291h190v49h-247v-340h-200v291h162v49h-219v-392h554zM728 -144v336h-446v-336h446zM670 -94h-330v237h330v-237z" />
<glyph unicode="&#xb541;" horiz-adv-x="920" d="M910 528v52h-167v206h-55v-528h55v270h167zM628 349v52h-240v277h190v49h-247v-326h-200v277h162v49h-219v-378h554zM733 -149v369h-58v-131h-329v131h-58v-369h445zM675 -100h-329v139h329v-139z" />
<glyph unicode="&#xb543;" horiz-adv-x="920" d="M910 502v50h-167v234h-55v-615h55v331h167zM628 315v52h-240v291h190v49h-247v-340h-200v291h162v49h-219v-392h554zM777 -107l-255 201q18 48 18 92v38h-61v-30q0 -93 -64 -176.5t-175 -122.5l37 -42q71 24 128.5 75t92.5 116l242 -191z" />
<glyph unicode="&#xb544;" horiz-adv-x="920" d="M910 512v50h-167v224h-55v-564h55v290h167zM628 322v52h-240v294h190v49h-247v-343h-200v294h162v49h-219v-395h554zM814 -106l-178 163q9 24 11 75v57h-58v-54q0 -65 -29 -123.5t-86 -95.5l-134 134q11 44 14 83v56h-59v-54q0 -75 -44 -142t-120 -96l36 -45 q97 46 151 144l151 -149q95 43 148 155l162 -146z" />
<glyph unicode="&#xb545;" horiz-adv-x="920" d="M910 512v50h-167v224h-55v-551h55v277h167zM628 325v52h-240v291h190v49h-247v-340h-200v291h162v49h-219v-392h554zM736 32q0 85 -62.5 140.5t-151.5 55.5t-151.5 -56t-62.5 -140q0 -87 63 -141.5t152 -54.5t151 54.5t62 141.5zM679 32q0 -62 -46 -104t-111 -42 q-63 0 -109 43t-46 103t45 103t110 43q66 0 111.5 -41.5t45.5 -104.5z" />
<glyph unicode="&#xb54b;" horiz-adv-x="920" d="M910 543v52h-167v191h-55v-506h55v263h167zM628 387v52h-240v239h190v49h-247v-288h-200v239h162v49h-219v-340h554zM638 233v49q-132 -8 -200 0q-45 4 -95 22l-17 -41q46 -24 107 -30q87 -7 205 0zM779 107v46h-566v-46h192q-45 -17 -72.5 -49.5t-26.5 -76.5 q1 -65 57 -106.5t135 -41.5q76 0 133 41t57 110q0 44 -27.5 75t-73.5 48h192zM625 -15q0 -45 -39.5 -74.5t-88.5 -29.5q-50 0 -89 29.5t-39 74.5q0 44 38 70.5t89 26.5t90 -26.5t39 -70.5z" />
<glyph unicode="&#xb54c;" horiz-adv-x="920" d="M840 -115v901h-56v-330h-138v309h-56v-815h56v456h138v-521h56zM546 177v52h-198v375h157v49h-212v-424h-167v375h137v49h-194v-476h477z" />
<glyph unicode="&#xb54d;" horiz-adv-x="920" d="M830 215v571h-57v-235h-138v213h-57v-528h57v266h138v-287h57zM540 320v52h-194v296h154v49h-211v-345h-163v296h135v49h-190v-397h469zM786 -162v333h-459v-50h402v-283h57z" />
<glyph unicode="&#xb550;" horiz-adv-x="920" d="M830 135v651h-57v-245h-138v223h-57v-588h57v316h138v-357h57zM540 300v52h-194v306h154v49h-211v-355h-163v306h135v49h-190v-407h469zM820 -141v51h-410v245h-57v-296h467z" />
<glyph unicode="&#xb554;" horiz-adv-x="920" d="M830 270v516h-57v-214h-138v192h-57v-473h57v232h138v-253h57zM540 358v52h-194v268h154v49h-211v-317h-163v268h135v49h-190v-369h469zM806 -151v52h-399v120h376v216h-443v-50h383v-118h-378v-220h461z" />
<glyph unicode="&#xb55c;" horiz-adv-x="920" d="M830 245v541h-57v-235h-138v213h-57v-518h57v256h138v-257h57zM540 320v52h-194v296h154v49h-211v-345h-163v296h135v49h-190v-397h469zM795 -144v326h-447v-326h447zM736 -94h-329v227h329v-227z" />
<glyph unicode="&#xb55d;" horiz-adv-x="920" d="M830 256v530h-57v-214h-138v192h-57v-487h57v246h138v-267h57zM540 348v52h-194v278h154v49h-211v-327h-163v278h135v49h-190v-379h469zM787 -149v369h-59v-131h-338v131h-57v-369h454zM728 -100h-338v139h338v-139z" />
<glyph unicode="&#xb55f;" horiz-adv-x="920" d="M830 195v591h-57v-249h-138v227h-57v-531h57v255h138v-293h57zM540 310v52h-194v301h154v49h-211v-350h-163v301h135v49h-190v-402h469zM813 -110q-16 13 -42.5 34t-82.5 65.5t-94 74.5l-37 29q18 47 18 93v27h-60v-19q0 -93 -64 -177t-174 -123l36 -41q70 24 128 75 t93 115l242 -190z" />
<glyph unicode="&#xb560;" horiz-adv-x="920" d="M830 215v571h-57v-235h-138v213h-57v-528h57v266h138v-287h57zM540 320v52h-194v296h154v49h-211v-345h-163v296h135v49h-190v-397h469zM866 -106l-179 164q11 40 12 74v57h-59v-54q0 -65 -28.5 -124t-85.5 -96l-134 135q11 44 14 83v56h-60v-54q0 -76 -43 -143t-118 -96 l34 -44q94 44 151 144l151 -149q93 42 148 155l162 -146z" />
<glyph unicode="&#xb561;" horiz-adv-x="920" d="M830 215v571h-57v-237h-138v215h-57v-518h57v254h138v-285h57zM540 318v52h-194v298h154v49h-211v-347h-163v298h135v49h-190v-399h469zM801 22q0 83 -62 134.5t-152 51.5q-89 0 -151.5 -53.5t-62.5 -132.5q0 -84 63 -135t152 -51q90 0 151.5 51t61.5 135zM744 22 q0 -59 -46 -97.5t-111 -38.5q-63 0 -109 39.5t-46 96.5q0 58 45 97t110 39q67 0 112 -38t45 -98z" />
<glyph unicode="&#xb5a0;" horiz-adv-x="880" d="M776 -115v901h-55v-332h-183v-50h183v-519h55zM631 177v52h-243v375h187v49h-242v-424h-201v375h161v49h-216v-476h554z" />
<glyph unicode="&#xb5a1;" horiz-adv-x="880" d="M768 215v571h-57v-233h-188v-49h188v-289h57zM612 325v52h-230v291h190v49h-247v-340h-200v291h162v49h-219v-392h544zM744 -162v333h-459v-50h403v-283h56z" />
<glyph unicode="&#xb5a4;" horiz-adv-x="880" d="M768 125v661h-57v-253h-188v-49h188v-359h57zM612 295v52h-230v311h190v49h-247v-360h-200v311h162v49h-219v-412h544zM779 -141v51h-411v250h-56v-301h467z" />
<glyph unicode="&#xb5a8;" horiz-adv-x="880" d="M768 278v508h-57v-220h-188v-49h188v-239h57zM612 353v52h-230v273h190v49h-247v-322h-200v273h162v49h-219v-374h544zM760 -151v52h-399v125h374v213h-440v-50h380v-116h-374v-224h459z" />
<glyph unicode="&#xb5aa;" horiz-adv-x="880" d="M763 278v508h-57v-220h-188v-49h188v-239h57zM607 353v52h-230v273h190v49h-247v-322h-200v273h162v49h-219v-374h544zM749 -151v390h-262v-390h262zM460 -151v52h-233v123h209v215h-272v-50h212v-117h-209v-223h293zM691 -102h-148v290h148v-290z" />
<glyph unicode="&#xb5ab;" horiz-adv-x="880" d="M768 278v508h-57v-220h-188v-49h188v-239h57zM612 353v52h-230v273h190v49h-247v-322h-200v273h162v49h-219v-374h544zM754 -150v389h-55v-148h-166v148h-57v-389h278zM447 -151v52h-236v123h210v215h-270v-50h212v-117h-210v-223h294zM699 -101h-166v142h166v-142z" />
<glyph unicode="&#xb5b0;" horiz-adv-x="880" d="M768 235v551h-57v-233h-188v-49h188v-269h57zM612 325v52h-230v291h190v49h-247v-340h-200v291h162v49h-219v-392h544zM749 -144v336h-446v-336h446zM690 -94h-330v237h330v-237z" />
<glyph unicode="&#xb5b1;" horiz-adv-x="880" d="M758 258v528h-57v-220h-188v-49h188v-259h57zM602 353v52h-230v273h190v49h-247v-322h-200v273h162v49h-219v-374h544zM737 -149v369h-59v-131h-329v131h-57v-369h445zM678 -100h-329v139h329v-139z" />
<glyph unicode="&#xb5b3;" horiz-adv-x="880" d="M759 175v611h-57v-249h-188v-49h188v-313h57zM603 309v52h-230v297h190v49h-247v-346h-200v297h162v49h-219v-398h544zM775 -110l-258 196q20 52 20 100v28h-60v-20q0 -93 -64 -177t-174 -123l36 -41q69 23 125.5 72t92.5 112l245 -184z" />
<glyph unicode="&#xb5b4;" horiz-adv-x="880" d="M766 215v571h-57v-233h-188v-49h188v-289h57zM610 325v52h-230v291h190v49h-247v-340h-200v291h162v49h-219v-392h544zM831 -106l-179 164q10 30 12 74v57h-59v-54q0 -65 -28.5 -124t-85.5 -96l-134 135q11 44 14 83v56h-60v-54q0 -75 -44 -142.5t-117 -96.5l34 -44 q94 44 151 144l151 -149q95 43 148 153l162 -144z" />
<glyph unicode="&#xb5b5;" horiz-adv-x="880" d="M762 225v561h-57v-233h-188v-49h188v-279h57zM606 325v52h-230v291h190v49h-247v-340h-200v291h162v49h-219v-392h544zM746 27q0 83 -62.5 137t-151.5 54q-88 0 -151 -55.5t-63 -135.5q0 -84 63 -137.5t152 -53.5t151 53t62 138zM689 27q0 -60 -46 -100.5t-111 -40.5 q-63 0 -109 42t-46 99q0 58 45 99.5t110 41.5q66 0 111.5 -40t45.5 -101z" />
<glyph unicode="&#xb5bb;" horiz-adv-x="880" d="M758 275v511h-57v-213h-188v-49h188v-249h57zM602 385v52h-230v241h190v49h-247v-290h-200v241h162v49h-219v-342h544zM643 233v49q-132 -8 -200 0q-45 4 -95 22l-17 -41q46 -24 107 -30q87 -7 205 0zM784 107v46h-566v-46h192q-45 -17 -72.5 -49.5t-26.5 -76.5 q1 -65 57 -106.5t135 -41.5q76 0 133 41t57 110q0 44 -27.5 75t-73.5 48h192zM630 -15q0 -45 -39.5 -74.5t-88.5 -29.5q-50 0 -89 29.5t-39 74.5q0 44 38 70.5t89 26.5t90 -26.5t39 -70.5z" />
<glyph unicode="&#xb5bc;" horiz-adv-x="920" d="M834 -115v901h-55v-901h55zM656 -50v815h-56v-309h-159v-50h159v-456h56zM537 177v52h-203v375h162v49h-217v-424h-162v375h132v49h-189v-476h477z" />
<glyph unicode="&#xb5bd;" horiz-adv-x="920" d="M829 218v568h-57v-568h57zM658 230v534h-56v-221h-157v-49h157v-264h56zM536 316v52h-194v300h154v49h-211v-349h-159v300h131v49h-186v-401h465zM785 -162v329h-459v-50h402v-279h57z" />
<glyph unicode="&#xb5c0;" horiz-adv-x="920" d="M829 130v656h-57v-656h57zM658 162v602h-56v-235h-157v-49h157v-318h56zM536 295v52h-194v311h154v49h-211v-360h-159v311h131v49h-186v-412h465zM820 -141v51h-410v255h-57v-306h467z" />
<glyph unicode="&#xb5c4;" horiz-adv-x="920" d="M829 270v516h-57v-516h57zM658 282v482h-56v-205h-157v-49h157v-228h56zM536 344v52h-194v282h154v49h-211v-331h-159v282h131v49h-186v-383h465zM805 -151v52h-398v119h377v209h-444v-49h384v-112h-379v-219h460z" />
<glyph unicode="&#xb5cc;" horiz-adv-x="920" d="M829 240v546h-57v-546h57zM658 252v512h-56v-215h-157v-49h157v-248h56zM536 320v52h-194v296h154v49h-211v-345h-159v296h131v49h-186v-397h465zM795 -144v336h-447v-336h447zM736 -94h-329v237h329v-237z" />
<glyph unicode="&#xb5cd;" horiz-adv-x="920" d="M829 257v529h-57v-529h57zM658 272v492h-56v-205h-157v-49h157v-238h56zM536 330v52h-194v296h154v49h-211v-345h-159v296h131v49h-186v-397h465zM788 -149v369h-59v-131h-334v131h-57v-369h450zM729 -100h-334v139h334v-139z" />
<glyph unicode="&#xb5cf;" horiz-adv-x="920" d="M829 194v592h-57v-592h57zM658 242v522h-56v-225h-157v-49h157v-248h56zM536 300v52h-194v306h154v49h-211v-355h-159v306h131v49h-186v-407h465zM823 -108q-16 12 -43 32.5t-83.5 63t-94.5 70.5l-37 28q20 52 20 100v27h-60v-19q0 -93 -64 -177t-174 -123l36 -41 q69 23 126 72.5t92 111.5l245 -184z" />
<glyph unicode="&#xb5d0;" horiz-adv-x="920" d="M829 223v563h-57v-563h57zM658 242v522h-56v-225h-157v-49h157v-248h56zM536 310v52h-194v306h154v49h-211v-355h-159v306h131v49h-186v-407h465zM866 -106l-179 164q11 40 12 72v56h-59v-53q0 -61 -29.5 -121t-85.5 -96l-130 134q12 45 14 81v55h-60v-53 q0 -75 -44.5 -141t-120.5 -95l35 -45q98 46 154 144l148 -149q93 42 148 155l162 -146z" />
<glyph unicode="&#xb5d1;" horiz-adv-x="920" d="M829 203v583h-57v-583h57zM658 250v514h-56v-222h-157v-49h157v-243h56zM536 313v52h-194v303h154v49h-211v-352h-159v303h131v49h-186v-404h465zM801 22q0 83 -62 134.5t-152 51.5q-89 0 -151.5 -53.5t-62.5 -132.5q0 -84 63 -135t152 -51q90 0 151.5 51t61.5 135z M744 22q0 -59 -46 -97.5t-111 -38.5q-63 0 -109 39.5t-46 96.5q0 58 45 97t110 39q67 0 112 -38t45 -98z" />
<glyph unicode="&#xb5d8;" horiz-adv-x="880" d="M790 -115v901h-55v-260h-180v-49h180v-126h-180v-49h180v-417h55zM635 177v52h-243v375h187v49h-242v-424h-201v375h161v49h-216v-476h554z" />
<glyph unicode="&#xb5ec;" horiz-adv-x="880" d="M779 216v570h-54v-171h-183v-49h183v-105h-183v-49h183v-196h54zM614 305v52h-230v311h190v49h-247v-360h-199v311h161v49h-218v-412h543zM835 -106l-179 164q10 30 12 74v57h-59v-54q0 -65 -28.5 -124t-85.5 -96l-134 135q11 44 14 83v56h-60v-54q0 -75 -44 -142.5 t-117 -96.5l34 -44q94 44 151 144l151 -149q95 43 148 153l162 -144z" />
<glyph unicode="&#xb610;" d="M729 274v52h-240v303h236v49h-292v-352h-224v303h186v49h-243v-404h577zM866 3v50h-387v181h-58v-181h-388v-50h833z" />
<glyph unicode="&#xb611;" d="M868 250v49h-386v133h228v52h-217v212h217v51h-273v-263h-208v212h175v51h-232v-315h252v-133h-392v-49h836zM678 -162v296h-460v-52h403v-244h57z" />
<glyph unicode="&#xb614;" d="M868 232v49h-390v136h232v52h-217v222h217v51h-273v-273h-208v222h175v51h-232v-325h248v-136h-388v-49h836zM700 -140v51h-417v222h-56v-273h473z" />
<glyph unicode="&#xb618;" d="M868 306v49h-386v117h228v52h-217v182h217v51h-273v-233h-208v182h175v51h-232v-285h252v-117h-392v-49h836zM702 -151v51h-407v111h382v201h-449v-48h388v-106h-380v-209h466z" />
<glyph unicode="&#xb625;" d="M868 272v49h-386v121h228v52h-217v202h217v51h-273v-253h-208v202h175v51h-232v-305h252v-121h-392v-49h836zM673 17q0 80 -60.5 129.5t-157.5 49.5q-94 0 -155 -49t-61 -130q0 -83 61 -131.5t155 -48.5q95 0 156.5 48t61.5 132zM615 17q0 -61 -48 -95.5t-112 -34.5 q-62 0 -110.5 36.5t-48.5 93.5q0 59 48 95t111 36q62 0 111 -37t49 -94z" />
<glyph unicode="&#xb62c;" horiz-adv-x="940" d="M919 375v50h-163v361h-56v-901h56v490h163zM671 147v47q-169 -32 -307 -31v167h209v52h-186v242h183v49h-240v-291h-182v242h150v49h-205v-343h213v-167h-276v-49h268q48 0 86.5 0.5t71.5 3t53 3.5t48 5.5t37 6t39 7.5t38 7z" />
<glyph unicode="&#xb634;" horiz-adv-x="940" d="M909 501v50h-157v235h-55v-528h55v243h157zM664 328v46q-107 -21 -311 -26v109h210v50h-185v171h182v49h-240v-220h-171v171h143v49h-200v-270h206v-109h-270v-49h252q67 0 117.5 1.5t95.5 5.5t61.5 5.5t61.5 9t48 7.5zM761 -151v52h-411v117h385v203h-450v-48h390v-107 h-385v-217h471z" />
<glyph unicode="&#xb648;" horiz-adv-x="940" d="M847 -115v901h-56v-364h-133v343h-56v-815h56v422h133v-487h56zM571 147v48q-116 -32 -227 -31v166h179v52h-163v242h160v49h-217v-291h-154v242h122v49h-177v-343h192v-167h-240v-49h205q63 0 112.5 2t83.5 6.5t53 8t42 9.5t29 7z" />
<glyph unicode="&#xb664;" d="M804 -115v901h-56v-901h56zM715 147v47q-169 -32 -319 -31v167h222v52h-199v242h196v49h-253v-291h-187v242h155v49h-210v-343h218v-167h-288v-49h280q34 0 64.5 0.5t53.5 1t48 2.5t39.5 2.5t37 3.5t30.5 3.5t30 4.5t26.5 4.5t28 5t27.5 5.5z" />
<glyph unicode="&#xb668;" d="M786 115v671h-56v-671h56zM698 255v48q-146 -27 -320 -27v127h221v50h-197v206h194v49h-249v-255h-184v206h153v49h-208v-305h214v-127h-280v-51h264q48 0 88.5 0.5t76.5 3t57.5 3.5t53 5.5t39.5 5.5t41.5 6.5t35.5 5.5zM797 -141v51h-409v226h-56v-277h465z" />
<glyph unicode="&#xb69c;" d="M707 391v50h-226v237h224v49h-280v-286h-213v237h180v49h-237v-336h552zM863 204v50h-833v-50h387v-338h59v338h387z" />
<glyph unicode="&#xb69d;" d="M710 448v50h-221v200h219v49h-275v-249h-206v200h173v49h-230v-299h540zM867 280v50h-834v-50h389v-138h-204v-50h404v-254h57v304h-199v138h387z" />
<glyph unicode="&#xb6a0;" d="M715 428v50h-221v215h219v49h-275v-264h-206v215h173v49h-230v-314h540zM870 256v48h-836v-48h406v-203h58v203h372zM703 -140v51h-417v222h-56v-273h473z" />
<glyph unicode="&#xb6a4;" d="M713 473v50h-221v185h219v49h-275v-234h-206v185h173v49h-230v-284h540zM868 323v50h-836v-50h396v-110h-195v-47h386v-109h-380v-207l466 -1v51l-407 1v109h382v203h-194v110h382z" />
<glyph unicode="&#xb6ab;" d="M713 473v50h-221v185h219v49h-275v-234h-206v185h173v49h-230v-284h540zM740 174v48q-84 -4 -129 1q-50 5 -93 21l-17 -41q44 -23 106 -29q47 -4 133 0zM868 323v50h-836v-50h396v-150h58v150h382zM817 59v48h-368v-48h118q-39 -12 -62.5 -39t-24.5 -68q-1 -55 41.5 -88 t104.5 -33q66 0 109 30.5t43 89.5q0 41 -25.5 68.5t-67.5 39.5h132zM460 -151v52h-250v114h209v213h-270v-50h212v-115h-210v-214h309zM718 -51q0 -35 -26.5 -54.5t-65.5 -18.5q-38 1 -62.5 21.5t-24.5 56.5q0 35 26 54.5t64 18.5t63.5 -21t25.5 -57z" />
<glyph unicode="&#xb6ac;" d="M713 448v50h-221v200h219v49h-275v-249h-206v200h173v49h-230v-299h540zM868 282v50h-836v-50h396v-111h-198v-315h458v315h-202v111h382zM629 -94h-340v216h340v-216z" />
<glyph unicode="&#xb6b1;" d="M713 453v50h-221v195h219v49h-275v-244h-206v195h173v49h-230v-294h540zM868 299v48h-836v-48h394v-104q-83 -8 -135 -56t-52 -122q0 -83 61 -131.5t155 -48.5q95 0 156.5 48t61.5 132q0 74 -52 122t-137 56v104h384zM615 17q0 -61 -48 -95.5t-112 -34.5 q-62 0 -110.5 36.5t-48.5 93.5q0 59 48 95t111 36q62 0 111 -37t49 -94z" />
<glyph unicode="&#xb6d4;" horiz-adv-x="940" d="M839 -115v901h-56v-901h56zM669 -72v837h-56v-623h-175v-50h175v-164h56zM530 413v50h-168v194h163v49h-218v-243h-162v194h133v49h-188v-293h440zM575 268v49q-152 -28 -375 -28h-160v-50h155q59 0 84 1v-341h57v342q83 3 239 27z" />
<glyph unicode="&#xb6f0;" d="M790 -115v901h-55v-901h55zM608 389v50h-193v218h180v49h-237v-267h-184v218h157v49h-214v-317h491zM698 248v49q-157 -30 -414 -30h-233v-50h195q58 0 84 1v-319h55v320q189 6 313 29z" />
<glyph unicode="&#xb6f4;" d="M785 125v661h-54v-661h54zM599 435v50h-184v183h181v49h-237v-232h-181v183h151v49h-209v-282h479zM699 316v49q-142 -29 -397 -29h-249v-48h254v-140h55v141q168 3 337 27zM792 -141v51h-420v203h-59v-254h479z" />
<glyph unicode="&#xb6f8;" d="M786 246v540h-53v-540h53zM599 485v50h-184v143h181v49h-237v-192h-181v143h151v49h-209v-242h479zM699 386v49q-142 -29 -397 -29h-249v-48h254v-120h55v121q168 3 337 27zM793 -151v52h-410v109h384v199h-451v-48h392v-104h-386v-208h471z" />
<glyph unicode="&#xb700;" d="M785 195v591h-53v-591h53zM598 455v50h-184v163h181v49h-237v-212h-181v163h151v49h-209v-262h479zM698 336v49q-142 -29 -397 -29h-249v-48h244v-120h55v121q179 3 347 27zM771 -144v292h-457v-292h457zM713 -94h-340v192h340v-192z" />
<glyph unicode="&#xb701;" d="M788 231v555h-53v-555h53zM601 482v50h-184v146h181v49h-237v-195h-181v146h151v49h-209v-245h479zM701 371v49q-142 -29 -397 -29h-249v-48h244v-115h55v116q179 3 347 27zM772 -149v333h-58v-113h-339v113h-59v-333h456zM714 -100h-339v120h339v-120z" />
<glyph unicode="&#xb705;" d="M798 192v594h-53v-594h53zM611 455v50h-184v163h181v49h-237v-212h-181v163h151v49h-209v-262h479zM711 336v49q-142 -29 -397 -29h-249v-48h252v-130h55v131q170 3 339 27zM772 12q0 82 -61.5 129.5t-152.5 47.5q-90 0 -152 -49.5t-62 -127.5q0 -83 62 -129.5t153 -46.5 q92 0 152.5 46t60.5 130zM715 12q0 -59 -45 -92.5t-112 -33.5q-64 0 -109.5 35t-45.5 91q0 57 44 92t111 35q68 0 112.5 -34t44.5 -93z" />
<glyph unicode="&#xb728;" d="M729 274v52h-240v303h236v49h-292v-352h-224v303h186v49h-243v-404h577zM866 13v51h-833v-51h833z" />
<glyph unicode="&#xb729;" d="M710 428v50h-221v220h219v49h-275v-269h-206v220h173v49h-230v-319h540zM868 251v49h-836v-49h836zM678 -162v290h-460v-52h403v-238h57z" />
<glyph unicode="&#xb72c;" d="M710 420v50h-221v223h219v49h-275v-272h-206v223h173v49h-230v-322h540zM868 241v50h-836v-50h836zM703 -140v51h-417v232h-56v-283h473z" />
<glyph unicode="&#xb72f;" d="M712 435v50h-221v213h219v49h-275v-262h-206v213h173v49h-230v-312h540zM868 266v49h-836v-49h836zM694 -146v50h-411v192h400v50l-458 -1v-291h469z" />
<glyph unicode="&#xb730;" d="M710 468v50h-221v190h219v49h-275v-239h-206v190h173v49h-230v-289h540zM868 313v49h-836v-49h836zM700 -151v51h-407v113h382v201h-447v-48h386v-106h-380v-211h466z" />
<glyph unicode="&#xb738;" d="M710 442v50h-221v206h219v49h-275v-255h-206v206h173v49h-230v-305h540zM868 270v51h-836v-51h836zM688 -144v294h-458v-294h458zM629 -94h-340v195h340v-195z" />
<glyph unicode="&#xb739;" d="M710 458v50h-221v200h219v49h-275v-249h-206v200h173v49h-230v-299h540zM868 303v49h-836v-49h836zM688 -149v362h-59v-129h-339v129h-57v-362h455zM629 -100h-339v134h339v-134z" />
<glyph unicode="&#xb73b;" d="M710 433v50h-221v215h219v49h-275v-264h-206v215h173v49h-230v-314h540zM868 275v50h-836v-50h836zM727 -106l-259 192q21 50 21 100v16h-61v-8q0 -93 -64 -177t-174 -123l36 -41q69 23 126 72.5t93 111.5l244 -184z" />
<glyph unicode="&#xb744;" d="M788 -115v901h-55v-901h55zM608 330v52h-199v242h196v49h-253v-291h-187v242h155v49h-210v-343h498zM700 154v48q-153 -31 -372 -32h-288v-49h280q42 0 79 1t62 1.5t55 3.5t42.5 3.5t40 5t32.5 5.5t35 6.5t34 6.5z" />
<glyph unicode="&#xb748;" d="M786 115v671h-56v-671h56zM609 403v50h-197v206h194v49h-249v-255h-184v206h153v49h-208v-305h491zM698 265v49q-175 -32 -390 -28h-266v-51h264q48 0 88.5 0.5t76.5 3t57.5 3.5t53 5.5t39.5 5.5t41.5 6.5t35.5 5.5zM797 -141v51h-419v226h-58v-277h477z" />
<glyph unicode="&#xb74c;" d="M786 252v534h-56v-534h56zM609 450v50h-197v179h194v49h-249v-228h-184v179h153v49h-208v-278h491zM698 332v49q-175 -32 -390 -28h-266v-51h264q48 0 88.5 0.5t76.5 3t57.5 3.5t53 5.5t39.5 5.5t41.5 6.5t35.5 5.5zM775 -151v52h-409v109h383v199h-450v-48h391v-104 h-386v-208h471z" />
<glyph unicode="&#xb754;" d="M786 220v566h-56v-566h56zM609 431v50h-197v188h194v49h-249v-237h-184v188h153v49h-208v-287h491zM698 307v49q-175 -32 -390 -28h-266v-51h264q48 0 88.5 0.5t76.5 3t57.5 3.5t53 5.5t39.5 5.5t41.5 6.5t35.5 5.5zM768 -144v316h-458v-316h458zM710 -94h-340v217h340 v-217z" />
<glyph unicode="&#xb755;" d="M786 262v524h-56v-524h56zM609 449v50h-197v180h194v49h-249v-229h-184v180h153v49h-208v-279h491zM698 331v49q-175 -32 -390 -28h-266v-51h264q48 0 88.5 0.5t76.5 3t57.5 3.5t53 5.5t39.5 5.5t41.5 6.5t35.5 5.5zM754 -149v369h-57v-131h-340v131h-58v-369h455z M697 -100h-340v139h340v-139z" />
<glyph unicode="&#xb760;" horiz-adv-x="880" d="M770 -115v901h-57v-901h57zM645 177v52h-253v375h187v49h-242v-424h-201v375h161v49h-216v-476h564z" />
<glyph unicode="&#xb764;" horiz-adv-x="880" d="M762 130v656h-56v-656h56zM626 295v52h-240v311h190v49h-247v-360h-200v311h162v49h-219v-412h554zM774 -141v51h-411v255h-57v-306h468z" />
<glyph unicode="&#xb768;" horiz-adv-x="880" d="M762 290v496h-56v-496h56zM626 355v52h-240v271h190v49h-247v-320h-200v271h162v49h-219v-372h554zM755 -151v52h-399v125h372v213h-439v-50h381v-116h-376v-224h461z" />
<glyph unicode="&#xb770;" horiz-adv-x="880" d="M762 245v541h-56v-541h56zM626 325v52h-240v291h190v49h-247v-340h-200v291h162v49h-219v-392h554zM743 -144v336h-446v-336h446zM685 -94h-330v237h330v-237z" />
<glyph unicode="&#xb771;" horiz-adv-x="880" d="M762 258v528h-56v-528h56zM626 351v52h-240v275h190v49h-247v-324h-200v275h162v49h-219v-376h554zM741 -149v369h-58v-131h-329v131h-59v-369h446zM683 -100h-329v139h329v-139z" />
<glyph unicode="&#xb773;" horiz-adv-x="880" d="M762 171v615h-56v-615h56zM626 320v52h-240v286h190v49h-247v-335h-200v286h162v49h-219v-387h554zM787 -106l-256 192q20 52 20 100v28h-61v-20q0 -93 -63.5 -176.5t-174.5 -122.5l36 -42q69 23 126 72.5t93 111.5l244 -184z" />
<glyph unicode="&#xb775;" horiz-adv-x="880" d="M762 215v571h-56v-571h56zM626 327v52h-240v289h190v49h-247v-338h-200v289h162v49h-219v-390h554zM744 27q0 83 -62.5 137t-151.5 54q-88 0 -151 -55.5t-63 -135.5q0 -84 63 -137.5t152 -53.5t151 53t62 138zM687 27q0 -60 -46 -100.5t-111 -40.5q-63 0 -109 42t-46 99 q0 58 45 99.5t110 41.5q66 0 111.5 -40t45.5 -101z" />
<glyph unicode="&#xb77c;" d="M894 396v49h-169v341h-56v-901h56v511h169zM564 150v49h-423v184h297v277h-358v-49h299v-177h-294v-284h479z" />
<glyph unicode="&#xb77d;" d="M898 490v52h-165v244h-57v-587h57v291h165zM572 278v51h-427v147h286v247h-347v-48h288v-150h-283v-247h483zM720 -162v318h-459v-50h403v-268h56z" />
<glyph unicode="&#xb780;" d="M896 480v53h-164v253h-56v-656h56v350h164zM572 252v49h-427v159h286v252h-347v-47h288v-156h-283v-257h483zM745 -141v51h-410v224h-56v-275h466z" />
<glyph unicode="&#xb784;" d="M899 529v51h-165v206h-57v-498h57v241h165zM572 324v49h-427v133h286v228h-347v-49h288v-130h-283v-231h483zM744 -151v52h-399v123h373v213h-440v-50h381v-115h-374v-223h459z" />
<glyph unicode="&#xb78c;" d="M898 490v52h-165v244h-57v-557h57v261h165zM572 278v51h-427v147h286v247h-347v-48h288v-150h-283v-247h483zM719 -144v316h-446v-316h446zM661 -94h-329v217h329v-217z" />
<glyph unicode="&#xb78d;" d="M898 513v50h-165v223h-57v-528h57v255h165zM572 311v49h-427v139h286v235h-347v-49h288v-137h-283v-237h483zM725 -149v369h-60v-131h-328v131h-57v-369h445zM665 -100h-328v139h328v-139z" />
<glyph unicode="&#xb78f;" d="M898 491v50h-165v244h-57v-614h57v320h165zM572 271v51h-427v148h286v242h-347v-47h288v-146h-283v-248h483zM769 -106l-259 187q23 55 23 105v18h-61v-10q0 -93 -64 -177t-174 -123l36 -41q68 23 124 71t92 108l247 -179z" />
<glyph unicode="&#xb790;" d="M898 512v50h-165v224h-57v-564h57v290h165zM572 268v51h-427v154h286v250h-347v-48h288v-153h-283v-254h483zM816 -106l-178 163q10 38 11 75v47h-58v-44q0 -61 -30.5 -121.5t-85.5 -97.5l-133 134q11 37 14 83v46h-59v-44q0 -74 -46 -142t-119 -98l37 -43q97 46 151 144 l151 -149q95 43 148 155l162 -146z" />
<glyph unicode="&#xb791;" d="M898 512v50h-165v224h-57v-571h57v297h165zM572 282v51h-427v145h286v245h-347v-48h288v-148h-283v-245h483zM723 20q0 83 -61 133.5t-151 50.5q-89 0 -150.5 -52.5t-61.5 -131.5q0 -84 61.5 -134t151.5 -50t150.5 50t60.5 134zM666 20q0 -59 -45 -96.5t-110 -37.5 q-63 0 -108 38.5t-45 95.5q0 58 44 96t109 38q67 0 111 -37t44 -97z" />
<glyph unicode="&#xb792;" d="M898 512v50h-165v224h-57v-552h57v278h165zM572 300v49h-427v138h286v236h-347v-48h288v-137h-283v-238h483zM793 -103q-223 123 -224 123q103 85 132 171h-426v-48h331q-65 -88 -168.5 -151.5t-217.5 -91.5l33 -44q134 31 270 128l235 -131z" />
</font>
</defs>
</svg>
