<?xml version="1.0" standalone="no"?>
<!DOCTYPE svg PUBLIC "-//W3C//DTD SVG 1.1//EN" "http://www.w3.org/Graphics/SVG/1.1/DTD/svg11.dtd" >
<svg xmlns="http://www.w3.org/2000/svg" xmlns:xlink="http://www.w3.org/1999/xlink" version="1.1">
<metadata></metadata>
<defs>
<font id="seoulnamsanjungebregular" horiz-adv-x="900" >
<font-face units-per-em="1000" ascent="800" descent="-200" />
<missing-glyph horiz-adv-x="330" />
<glyph unicode=" "  horiz-adv-x="330" />
<glyph unicode="&#x09;" horiz-adv-x="330" />
<glyph unicode="&#xa0;" horiz-adv-x="330" />
<glyph unicode="!" horiz-adv-x="310" d="M207 728h-114l12 -578h90zM215 -90v129h-130v-129h130z" />
<glyph unicode="&#x22;" horiz-adv-x="410" d="M343 768h-128l22 -244h82zM175 768h-128l24 -244h82z" />
<glyph unicode="#" horiz-adv-x="640" d="M614 468h-119l51 198h-98l-51 -198h-84l50 198h-99l-50 -198h-118l-24 -87h119l-25 -96h-115l-23 -87h117l-56 -202h99l56 202h84l-52 -202h97l53 202h121l24 87h-122l24 96h117zM374 381l-24 -96h-85l25 96h84z" />
<glyph unicode="$" horiz-adv-x="560" d="M512 186q0 29 -8 53.5t-17.5 41.5t-29.5 33t-32.5 24.5t-38.5 18.5t-34.5 13t-33.5 11v231q69 -20 69 -95h112q0 70 -53.5 119t-127.5 55v76h-83v-78q-67 -8 -120.5 -52.5t-53.5 -125.5q0 -40 12.5 -72t29 -50.5t44 -33.5t45 -21t43.5 -13v-253q-73 23 -73 97h-115 q13 -82 58 -126.5t130 -51.5v-85h83v86q81 7 137.5 56t56.5 142zM235 408q-67 30 -67 103q0 79 67 101v-204zM401 179q0 -47 -25 -76.5t-58 -37.5v227q83 -42 83 -113z" />
<glyph unicode="%" horiz-adv-x="870" d="M838 219q0 112 -40 167t-126 55q-167 0 -167 -224q0 -111 38 -172.5t129 -61.5q51 0 85.5 19.5t51.5 55.5t23 73.5t6 87.5zM589 668h-90l-222 -673h90zM366 448q0 228 -167 228q-88 0 -127 -63t-39 -167q0 -230 166 -230q167 0 167 232zM746 219q0 -49 -5 -80.5 t-22 -53.5t-47 -22q-25 0 -41.5 13t-23 38.5t-8.5 47.5t-2 55q0 73 16 109.5t59 36.5q25 0 40.5 -11t22.5 -33.5t9 -44t2 -55.5zM274 448q0 -75 -15.5 -114t-59.5 -39q-25 0 -41 13t-22.5 38t-8.5 46.5t-2 53.5q0 74 16 112.5t58 38.5q25 0 41 -11.5t23 -35t9 -45.5t2 -57z " />
<glyph unicode="&#x26;" horiz-adv-x="810" d="M772 -23l-145 169l105 99l-71 68l-101 -89l-159 182q45 27 53 35q46 36 68.5 71.5t22.5 79.5q-2 52 -33 88.5t-71.5 51t-85.5 14.5q-83 0 -134.5 -49t-49.5 -119q2 -60 79 -154q-87 -61 -126 -100q-49 -52 -60 -116t18 -120q29 -59 89.5 -91t129.5 -32q111 4 251 115 l88 -103h132zM438 592q0 -43 -53 -82l-44 -31q-61 68 -61 107q0 31 17.5 50t53.5 19q40 0 63.5 -18t23.5 -45zM484 157q-123 -99 -190 -99q-37 2 -71 25t-48 52q-16 35 -8.5 67.5t30.5 55.5q9 10 31 27t53 40t34 26z" />
<glyph unicode="'" horiz-adv-x="320" d="M196 768h-127l23 -244h83z" />
<glyph unicode="(" horiz-adv-x="350" d="M319 -155v74q-95 45 -103 312q-4 115 0 187q2 103 26 188t77 114v73q-55 -13 -97 -49t-66 -87.5t-36 -106.5t-14 -116q-2 -53 -2 -170q0 -62 7.5 -118t28 -122t66.5 -114t113 -65z" />
<glyph unicode=")" horiz-adv-x="350" d="M245 264q0 117 -2 170q-2 61 -14 116t-36 106.5t-66 87.5t-97 49v-73q53 -29 77 -114t26 -188q4 -72 0 -187q-8 -267 -103 -312v-74q67 17 113 65t66.5 114t28 122t7.5 118z" />
<glyph unicode="*" horiz-adv-x="390" d="M368 524v80h-85l-43 -9l36 25l44 73l-73 44l-45 -74l-6 -41l-10 40l-40 75l-73 -44l37 -69l36 -26l-43 6h-82v-80h83l45 19l-33 -34l-44 -70l74 -46l43 78l8 43l6 -45l44 -74l76 44l-46 71l-34 27l42 -13h83z" />
<glyph unicode="+" horiz-adv-x="575" d="M538 319v91h-201v200h-100v-200h-201v-91h201v-207h100v207h201z" />
<glyph unicode="," horiz-adv-x="300" d="M202 107h-129l-25 -247h89z" />
<glyph unicode="-" horiz-adv-x="420" d="M381 314v100h-340v-100h340z" />
<glyph unicode="." horiz-adv-x="300" d="M201 -81v138h-138v-138h138z" />
<glyph unicode="/" horiz-adv-x="360" d="M354 787h-106l-239 -935h105z" />
<glyph unicode="0" horiz-adv-x="500" d="M469 353q0 74 -10 135.5t-33.5 116t-68 85t-107.5 30.5q-61 0 -105.5 -33.5t-67.5 -89.5t-33.5 -116.5t-10.5 -127.5q0 -76 11.5 -139.5t36 -116.5t67.5 -82.5t102 -29.5q63 0 107.5 31t68 86t33.5 116t10 135zM362 353q0 -60 -3.5 -102.5t-14 -86.5t-34.5 -67.5 t-60 -23.5q-111 0 -111 280q0 276 111 280q35 1 59 -23.5t34.5 -69.5t14.5 -88t4 -99z" />
<glyph unicode="1" horiz-adv-x="500" d="M323 -6v723h-85l-144 -93v-105l122 78v-603h107z" />
<glyph unicode="2" horiz-adv-x="500" d="M474 -4v96h-288q5 5 27.5 27t30 29.5t28.5 29t30.5 32t28 31t28.5 33.5t24.5 32.5t23.5 35t18.5 33.5t15.5 35q19 43 19 108q0 91 -61 147t-146 56q-60 0 -105 -21t-68 -54t-33.5 -65t-10.5 -62h114q-2 49 26 81.5t76 32.5q36 0 59.5 -20.5t31 -43t7.5 -43.5 q0 -56 -15 -90q-61 -137 -245 -309q-32 -30 -49 -42v-89h433z" />
<glyph unicode="3" horiz-adv-x="500" d="M471 201q0 128 -136 171q41 10 82.5 55t41.5 100q0 92 -60 142.5t-156 50.5q-101 0 -155.5 -55t-54.5 -116h107q2 37 30.5 60t77.5 23q44 0 74.5 -30.5t29.5 -78.5q-1 -52 -39 -83q-36 -30 -125 -27v-85q172 0 172 -122q0 -61 -30.5 -97.5t-90.5 -36.5q-51 0 -76 26 t-27 61h-117q9 -79 62.5 -126.5t158.5 -47.5q231 0 231 216z" />
<glyph unicode="4" horiz-adv-x="500" d="M494 179v97h-100v444h-104l-283 -461v-80h282v-182h105v182h100zM289 276h-164l164 275v-275z" />
<glyph unicode="5" horiz-adv-x="500" d="M481 211q0 103 -59.5 166.5t-159.5 63.5q-55 0 -96 -22l8 191h265v99h-364l-18 -407h101q42 55 97 51q52 -3 84 -40.5t32 -99.5q-2 -64 -36 -102t-90 -38q-48 0 -72.5 26t-24.5 60h-118q0 -68 53.5 -121t162.5 -53q105 0 170 65.5t65 160.5z" />
<glyph unicode="6" horiz-adv-x="500" d="M484 215q0 96 -53.5 160t-145.5 64q-100 0 -149 -69v25q0 101 33.5 168.5t96.5 67.5q44 0 67 -25t23 -58h113q0 65 -50.5 118.5t-148.5 53.5q-57 0 -100.5 -22t-70 -57.5t-43 -84.5t-22.5 -97.5t-6 -103.5q0 -65 7 -133q28 -237 231 -237q105 3 161.5 69.5t56.5 160.5z M374 215q0 -64 -30 -103t-78 -39q-54 0 -85 43t-31 100q2 59 33 97t81 38q52 0 81 -38t29 -98z" />
<glyph unicode="7" horiz-adv-x="500" d="M477 625v82h-446v-97h327l-251 -616h109z" />
<glyph unicode="8" horiz-adv-x="500" d="M478 199q0 44 -14.5 79t-36 53.5t-39.5 27.5t-31 11v1q38 12 73.5 54.5t35.5 110.5q0 79 -63.5 131.5t-150.5 52.5q-97 0 -156.5 -55t-59.5 -131q0 -38 12.5 -69t32 -49.5t35 -28.5t28.5 -14v-3q-44 -12 -82.5 -56t-38.5 -118q0 -104 62.5 -157.5t168.5 -53.5 q103 0 163.5 58t60.5 156zM356 526q0 -52 -26 -83t-79 -31q-55 0 -80 32.5t-25 82.5t29 79.5t74 29.5q49 0 78 -29t29 -81zM368 200q0 -61 -30.5 -94.5t-84.5 -33.5q-35 0 -60 12t-37.5 32.5t-18 41t-5.5 43.5q2 56 33.5 89.5t84.5 33.5q57 0 87.5 -34t30.5 -90z" />
<glyph unicode="9" horiz-adv-x="500" d="M471 339q0 74 -7 142q-34 239 -225 239q-98 0 -160.5 -66.5t-62.5 -164.5q0 -100 57 -166.5t147 -66.5q88 0 135 70l6 4v-29q0 -48 -4.5 -84.5t-17 -71.5t-38 -54t-63.5 -19q-46 0 -68.5 26.5t-22.5 59.5h-117q0 -69 53 -121t154 -52q59 0 102.5 22t68 55t39.5 82.5 t19.5 94.5t4.5 100zM350 488q-2 -61 -31 -102t-79 -41q-57 1 -86.5 41t-29.5 103q4 64 34.5 104t80.5 40q59 -3 85 -45t26 -100z" />
<glyph unicode=":" horiz-adv-x="265" d="M202 443v133h-132v-133h132zM202 64v133h-132v-133h132z" />
<glyph unicode=";" horiz-adv-x="265" d="M204 444v133h-132v-133h132zM208 198h-128l-25 -258h91z" />
<glyph unicode="&#x3c;" horiz-adv-x="585" d="M536 18v105l-335 192l335 192v105l-450 -256v-82z" />
<glyph unicode="=" horiz-adv-x="585" d="M536 418v93h-492v-93h492zM536 208v93h-492v-93h492z" />
<glyph unicode="&#x3e;" horiz-adv-x="585" d="M489 274v82l-450 256v-105l335 -192l-335 -192v-105z" />
<glyph unicode="?" horiz-adv-x="455" d="M436 536q0 63 -35.5 105.5t-85 59t-108.5 16.5q-71 0 -172 -33v-108q31 19 81 32.5t88 13.5q49 -2 85 -25t36 -63q0 -12 -4 -25t-12.5 -26.5t-16.5 -24t-22 -25t-21.5 -22t-22.5 -21.5t-19 -18q-38 -37 -56 -73.5t-18 -96.5v-80h103v60q0 15 1.5 27.5t2.5 21.5t6 19 t6.5 15t9 14.5t9.5 12t12 12.5t12 13q3 4 33.5 34t50 53t38.5 60.5t19 71.5zM252 -92v129h-131v-129h131z" />
<glyph unicode="@" horiz-adv-x="1000" d="M927 378q-2 116 -65 203t-165 119q-140 43 -270 12.5t-223 -121.5q-94 -91 -121.5 -232t24.5 -246q50 -106 156 -162.5t244 -56.5q76 1 142.5 18.5t109.5 42.5t68 44.5t37 35.5l-50 42q-32 -34 -115.5 -71t-187.5 -37q-115 2 -196.5 50.5t-118.5 124.5q-38 85 -17 192.5 t92 186.5q74 78 180.5 107t221.5 -6q83 -27 130 -92.5t47 -153.5q-2 -83 -42 -145t-94 -92q-40 -22 -65 -14t-11 44l137 360h-103l-15 -37q-36 57 -116 57q-56 0 -110.5 -34t-93.5 -88q-75 -109 -75 -203t46 -140q45 -41 107 -39q66 2 120 50v-4q2 -57 86 -56q21 0 39 3.5 t27 7t23.5 10.5t20.5 9q90 37 143 123t53 188zM611 432q0 -73 -51 -178q-60 -136 -134 -136q-22 0 -36 11q-33 28 -27 90t48 140q29 52 70.5 87t81.5 35q24 0 36 -14.5t12 -34.5z" />
<glyph unicode="A" horiz-adv-x="615" d="M623 -2l-259 719h-117l-257 -719h111l78 211h250l73 -211h121zM396 305h-186l95 283h4z" />
<glyph unicode="B" horiz-adv-x="595" d="M563 205q0 38 -13 68.5t-30.5 47.5t-42 29.5t-40 17t-31.5 7.5v5q19 6 36.5 14.5t40.5 25t36.5 45.5t13.5 65q0 92 -66.5 139t-165.5 47h-222v-719h222q55 0 98 9q76 20 120 69.5t44 129.5zM424 524q0 -51 -34 -75t-77 -28q-17 -2 -50 -2h-75v203h86q29 0 53 -3 q97 -13 97 -95zM451 207q-3 -99 -115 -114q-18 -2 -50 -2h-98v235h107q38 0 66 -10q90 -25 90 -109z" />
<glyph unicode="C" horiz-adv-x="640" d="M611 495q-2 73 -19 102q-30 61 -91 95.5t-139 34.5q-106 0 -182.5 -51t-112 -130.5t-35.5 -176.5q0 -73 20 -139.5t59.5 -122t105.5 -89t150 -33.5q59 0 109.5 10.5t66 16.5t46.5 21v107q-93 -65 -203 -64q-72 1 -123.5 32.5t-75.5 80t-33.5 91.5t-9.5 85q0 125 61.5 198 t155.5 73q75 -2 105 -38q32 -35 32 -103h113z" />
<glyph unicode="D" horiz-adv-x="655" d="M623 358q0 131 -50.5 212.5t-138.5 116.5q-67 29 -152 29h-204v-719h178q87 0 136 13q102 30 166.5 116t64.5 232zM515 358q1 -112 -45 -175t-108 -80q-32 -10 -105 -10h-69v527h60q57 0 109 -9q67 -12 112 -73.5t46 -179.5z" />
<glyph unicode="E" horiz-adv-x="530" d="M498 -3v96h-311v232h289v96h-289v199h301v96h-411v-719h421z" />
<glyph unicode="F" horiz-adv-x="495" d="M490 619v96h-412v-719h110v328h290v96h-290v199h302z" />
<glyph unicode="G" horiz-adv-x="670" d="M610 496q0 112 -70.5 172t-177.5 60q-80 0 -144 -29.5t-104 -79.5t-61 -114t-21 -135q0 -73 20 -139.5t59.5 -122t105.5 -89t150 -33.5q56 0 104.5 9.5t65.5 16t47 19.5l24 4v350h-282v-98h172v-192q-54 -18 -112 -18q-59 1 -104 23t-70.5 53.5t-42 72.5t-21.5 74.5 t-5 65.5q0 125 62 198t156 73q61 -2 99 -34t37 -107h113z" />
<glyph unicode="H" horiz-adv-x="660" d="M586 -3v719h-110v-298h-290v298h-110v-719h110v325h290v-325h110z" />
<glyph unicode="I" horiz-adv-x="280" d="M195 -3v719h-113v-719h113z" />
<glyph unicode="J" horiz-adv-x="370" d="M291 166v550h-110v-542q0 -77 -70 -89q-13 -2 -22 -2q-73 4 -113 19v-99q54 -15 111 -15q58 0 100 16t63.5 43.5t31 56.5t9.5 62z" />
<glyph unicode="K" horiz-adv-x="580" d="M608 -3l-339 380l298 339h-125l-250 -289h-6v289h-108v-719h108v317h6l281 -317h135z" />
<glyph unicode="L" horiz-adv-x="500" d="M512 -1v96h-323v621h-111v-717h434z" />
<glyph unicode="M" horiz-adv-x="840" d="M761 -3v718h-150l-189 -579h-4l-191 579h-151v-718h102v559h3l187 -559h101l188 559h2v-559h102z" />
<glyph unicode="N" horiz-adv-x="670" d="M593 -3v719h-106v-558h-3l-275 558h-132v-719h106v555h4l277 -555h129z" />
<glyph unicode="O" horiz-adv-x="720" d="M688 358q0 163 -85 266t-243 103q-154 0 -241 -106.5t-87 -262.5q0 -164 86 -268t242 -104q84 0 148.5 30t103 82t57.5 117.5t19 142.5zM579 359q0 -126 -56 -205t-163 -79q-72 0 -123 41t-73 103t-22 139q0 122 60 200t158 78q107 0 163 -78t56 -199z" />
<glyph unicode="P" horiz-adv-x="560" d="M548 502q0 60 -24 103.5t-65 66.5t-87.5 33t-100.5 10h-192v-719h108v623h83q68 0 116 -28t48 -89q0 -121 -153 -121h-58v-98h59q39 0 75.5 6.5t71.5 22.5t61 40t42 62.5t16 87.5z" />
<glyph unicode="Q" horiz-adv-x="740" d="M730 0v111q-63 -27 -142 -35q99 102 99 285q0 163 -85.5 266t-243.5 103q-154 0 -241 -106.5t-87 -262.5q0 -164 86 -268.5t242 -104.5q54 0 98 12h274zM578 362q0 -126 -56.5 -205t-163.5 -79q-72 0 -123 41t-73 103t-22 139q0 121 60 199.5t158 78.5q107 0 163.5 -78.5 t56.5 -198.5z" />
<glyph unicode="R" horiz-adv-x="600" d="M564 -4l-33 175q-17 94 -90 157q106 53 106 180q0 49 -16 86.5t-42.5 60t-63.5 37t-74.5 20t-80.5 5.5h-192v-720h108v624h83q69 0 116 -26t47 -87q0 -117 -153 -117h-57v-96h58q24 0 36 1q78 -28 106 -162l29 -138h113z" />
<glyph unicode="S" horiz-adv-x="525" d="M499 198q-1 32 -10 59.5t-20.5 44.5t-32 34t-34 25.5t-39 21.5t-34.5 19l-75 35q-6 4 -22.5 12.5t-23 12.5t-19 12t-18.5 14t-13 15t-9.5 19t-2.5 21q0 43 32 65.5t85 22.5q115 -5 190 -45v108q-124 33 -183 33q-110 0 -175.5 -48.5t-65.5 -143.5q0 -17 4.5 -33t10 -29 t18 -27t21 -23.5t26.5 -22.5t28 -19.5t31.5 -18t29.5 -15.5t31 -15t28 -14q5 -2 21 -10t22.5 -11.5t20 -11.5t20 -13.5t16 -15.5t13.5 -19.5t7.5 -22.5t3.5 -27q0 -56 -41.5 -81t-105.5 -25q-24 0 -47.5 2.5t-40.5 6t-37 9.5t-29.5 9.5t-25 9.5t-18.5 7v-107 q126 -32 188 -32q130 0 202.5 53.5t72.5 158.5z" />
<glyph unicode="T" horiz-adv-x="510" d="M510 618v95h-510v-95h199v-624h110v624h201z" />
<glyph unicode="U" horiz-adv-x="670" d="M597 267v448h-112v-446q0 -80 -36.5 -134.5t-117.5 -54.5q-43 0 -74 16t-46.5 44.5t-22.5 60t-7 68.5v446h-112v-448q0 -40 6 -76t24 -75t46 -67t76 -46t110 -18q61 0 109 18.5t77 47.5t47.5 67.5t25.5 74.5t7 74z" />
<glyph unicode="V" horiz-adv-x="600" d="M611 715h-115l-191 -581l-8 -1l-191 582h-118l252 -719h120z" />
<glyph unicode="W" horiz-adv-x="885" d="M858 716h-103l-99 -576h-2l-149 576h-119l-137 -578h-2l-112 578h-104l147 -719h125l143 573h3l149 -573h125z" />
<glyph unicode="X" horiz-adv-x="570" d="M586 -3l-239 376l215 343h-122l-155 -245l-157 245h-123l217 -343l-239 -376h124l178 276l178 -276h123z" />
<glyph unicode="Y" horiz-adv-x="550" d="M574 715h-118l-178 -291l-176 291h-126l243 -395v-325h110v325z" />
<glyph unicode="Z" horiz-adv-x="540" d="M530 -3v96h-379l354 536v87h-470v-96h339l-356 -536v-87h512z" />
<glyph unicode="[" horiz-adv-x="350" d="M319 -158v86h-112v764h112v85h-216v-935h216z" />
<glyph unicode="\" horiz-adv-x="360" d="M9 785h106l239 -935h-105z" />
<glyph unicode="]" horiz-adv-x="350" d="M245 -158v935h-216v-85h112v-764h-112v-86h216z" />
<glyph unicode="^" horiz-adv-x="448" d="M429 533l-150 250h-97l-151 -250h105l95 151l92 -151h106z" />
<glyph unicode="_" horiz-adv-x="500" d="M499 -130v80h-499v-80h499z" />
<glyph unicode="`" horiz-adv-x="300" d="M245 512l-86 208h-124l120 -208h90z" />
<glyph unicode="a" horiz-adv-x="510" d="M453 -1v338q0 78 -50 127t-148 49q-97 0 -150.5 -48.5t-53.5 -117.5h112q0 39 25 59.5t66 20.5q58 0 78 -34q14 -24 14 -60v-28q-101 6 -181 -18q-53 -16 -90.5 -60t-37.5 -100q0 -61 46.5 -100t105.5 -39q108 0 156 65h1v-54h107zM346 194q0 -24 -8 -46 q-13 -32 -47.5 -52.5t-65.5 -20.5q-32 0 -53.5 15t-21.5 47t27 55t60 30q49 11 109 7v-35z" />
<glyph unicode="b" horiz-adv-x="560" d="M531 249q0 51 -12 100q-42 161 -207 161q-33 0 -59.5 -11t-42 -29t-22.5 -30t-11 -24h-4v299h-103v-482q0 -43 11 -83.5t35 -79t70.5 -62t109.5 -23.5q106 0 170.5 68t64.5 196zM421 244q0 -77 -32.5 -125.5t-92.5 -48.5q-41 0 -69 27.5t-39 63.5t-11 75q0 75 33 129 t90 54q52 0 81 -32.5t35 -81.5q5 -33 5 -61z" />
<glyph unicode="c" horiz-adv-x="515" d="M500 325q0 90 -58 138.5t-152 48.5q-119 0 -187.5 -70t-68.5 -181q0 -70 27.5 -127.5t71.5 -91.5q62 -47 169.5 -54.5t181.5 36.5v81q-31 -18 -69 -26.5t-57 -8.5q-216 0 -216 204q0 64 41.5 108t103.5 44q56 0 80.5 -30t24.5 -71h108z" />
<glyph unicode="d" horiz-adv-x="560" d="M489 -2v719h-103v-296h-3q-9 31 -43 61t-87 30q-76 0 -131 -42.5t-78 -133.5q-10 -41 -10 -94q0 -113 58 -184.5t149 -71.5q39 0 68.5 10.5t44 26.5t21 27t8.5 20h3v-72h103zM378 274q0 -44 -8 -84q-10 -51 -39 -85.5t-71 -34.5q-58 0 -88.5 51t-30.5 116q2 57 4 71 q8 56 40 87t74 31q41 0 69.5 -29t39 -61.5t10.5 -61.5z" />
<glyph unicode="e" horiz-adv-x="530" d="M500 285q-2 104 -61.5 165.5t-155.5 61.5q-119 0 -184 -68.5t-65 -182.5q0 -70 27.5 -127.5t71.5 -91.5q62 -47 167 -54t184 36v81q-31 -18 -69 -26.5t-57 -8.5q-186 0 -212 150h352v65h2zM393 305h-250q7 58 43.5 89.5t93.5 31.5q55 0 84 -36t29 -85z" />
<glyph unicode="f" horiz-adv-x="360" d="M377 615v89q-60 12 -98 12q-110 -3 -156 -66q-30 -42 -30 -137v-17h-90v-87h90v-415h106v415h143v87h-143v37q-1 43 11 67q21 30 73 30q46 -3 94 -15z" />
<glyph unicode="g" horiz-adv-x="560" d="M491 40v462h-105v-80h-3q-10 33 -43 62.5t-85 29.5q-83 0 -139 -47.5t-72 -116.5q-10 -50 -10 -111q0 -114 59.5 -177.5t153.5 -63.5q101 0 136 92h3v-61q0 -20 -1 -26q-6 -46 -40.5 -73.5t-97.5 -27.5q-97 0 -177 40v-102q70 -29 167 -29q124 0 189 57.5t65 171.5z M382 259q0 -77 -35.5 -125.5t-88.5 -48.5q-60 0 -89.5 44.5t-29.5 107.5q4 80 5 85q11 51 44.5 78.5t69.5 27.5q54 0 89 -51.5t35 -117.5z" />
<glyph unicode="h" horiz-adv-x="560" d="M504 -3v360q0 75 -50 114.5t-120 39.5q-106 0 -158 -126h-3v331h-102v-719h102v219q0 32 9 67q16 57 55 95.5t82 38.5t61 -29t18 -65v-326h106z" />
<glyph unicode="i" horiz-adv-x="250" d="M187 589v125h-126v-125h126zM178 -6v503h-106v-503h106z" />
<glyph unicode="j" horiz-adv-x="260" d="M197 591v126h-127v-126h127zM188 18v481h-106v-506q0 -25 -9 -42.5t-20.5 -26t-31.5 -13.5t-33 -5.5t-34 -0.5v-93q111 0 172.5 44t61.5 162z" />
<glyph unicode="k" horiz-adv-x="480" d="M527 -3l-266 279l248 222h-136l-199 -178v396h-103v-719h103v223h4l215 -223h134z" />
<glyph unicode="l" horiz-adv-x="250" d="M178 -4v719h-106v-719h106z" />
<glyph unicode="m" horiz-adv-x="820" d="M753 -2v350q0 81 -43.5 122.5t-116.5 41.5q-37 0 -66 -15t-45.5 -38.5t-24 -38.5t-10.5 -27h-6q-14 56 -45.5 87.5t-93.5 31.5q-29 0 -53.5 -14t-40 -35.5t-24.5 -39.5t-13 -34h-3v111h-100v-502h100v205q0 71 28 138q39 72 88 72q27 0 44 -12t23.5 -37t8 -43t1.5 -50 v-273h100v205q2 35 7 69q13 62 42.5 102t66.5 40q19 0 33.5 -5.5t22.5 -19t12.5 -23t6.5 -32t2 -30.5v-33v-273h99z" />
<glyph unicode="n" horiz-adv-x="570" d="M497 -2v351q0 76 -46.5 119.5t-120.5 43.5q-31 0 -56 -9t-40.5 -22t-27.5 -30.5t-17.5 -30.5t-10.5 -25q-1 -4 -2 -6h-5v112h-100v-503h100v205q2 39 8 68q18 66 54 105.5t81 36.5q24 -2 40.5 -11t25 -19.5t12.5 -31t4.5 -32.5t0.5 -37v-11v-273h100z" />
<glyph unicode="o" horiz-adv-x="565" d="M531 248q0 121 -66.5 192t-184.5 71q-120 0 -183.5 -74.5t-63.5 -189.5q0 -124 68 -192t181 -68q117 0 183 70.5t66 190.5zM421 248q0 -75 -34 -125t-104 -50q-71 0 -107 50t-36 124q0 78 34.5 128t104.5 50q73 0 107.5 -50.5t34.5 -126.5z" />
<glyph unicode="p" horiz-adv-x="560" d="M527 240q0 128 -62 200.5t-155 72.5t-130 -102h-5v91h-103v-690h103v268h5q14 -40 46 -66.5t79 -26.5q103 0 162.5 73.5t59.5 179.5zM419 241q0 -71 -29.5 -118t-86.5 -47q-62 0 -92.5 55t-30.5 120q0 77 35 125t86 48q57 0 87.5 -52.5t30.5 -130.5z" />
<glyph unicode="q" horiz-adv-x="550" d="M480 -188v690h-103v-85h-5q-11 28 -22 45.5t-38.5 34t-66.5 16.5q-93 0 -153.5 -72t-60.5 -200q0 -107 57.5 -180t158.5 -73q51 0 83.5 30.5t41.5 61.5h5v-268h103zM370 252q0 -41 -9.5 -78t-36.5 -67t-68 -30q-57 0 -87.5 46.5t-34.5 117.5q0 78 32 130.5t89 52.5 q47 0 81 -48.5t34 -123.5z" />
<glyph unicode="r" horiz-adv-x="375" d="M387 406v104q-58 0 -89 -8.5t-63 -30.5t-54 -74h-5v102h-105v-503h105v206q3 55 11 85q29 119 200 119z" />
<glyph unicode="s" horiz-adv-x="410" d="M395 139q0 36 -17.5 64.5t-47.5 47.5t-58 31.5t-61.5 25t-46.5 19.5q-34 22 -34 54q0 23 24.5 33.5t55.5 10.5q69 0 153 -41v103q-77 25 -143 25q-94 0 -144.5 -38.5t-50.5 -108.5q0 -83 95 -124q25 -12 63.5 -26.5t57 -22.5t33.5 -23.5t15 -37.5q0 -58 -112 -58 q-67 0 -154 45v-101q76 -32 157 -32q119 0 167 40t48 114z" />
<glyph unicode="t" horiz-adv-x="360" d="M341 412v87h-143v171l-106 -64v-107h-86v-87h86v-280q0 -147 160 -147q40 0 86 6v95q-38 -12 -71 -12q-24 0 -38.5 7.5t-21 23.5t-8 29.5t-1.5 36.5v241h143z" />
<glyph unicode="u" horiz-adv-x="570" d="M501 -1v502h-101v-211q-2 -39 -8 -70q-14 -62 -48 -101.5t-89 -39.5q-27 0 -45.5 9.5t-26.5 27t-10.5 34t-2.5 38.5v313h-101v-349q0 -69 47 -116.5t115 -47.5q131 0 166 115h5v-104h99z" />
<glyph unicode="v" horiz-adv-x="495" d="M504 500h-106l-140 -364h-3l-155 364h-109l221 -503h90z" />
<glyph unicode="w" horiz-adv-x="725" d="M711 501h-102l-87 -367h-2l-113 367h-86l-113 -368h-2l-87 368h-103l136 -503h99l110 353h4l113 -353h101z" />
<glyph unicode="x" horiz-adv-x="490" d="M502 -2l-195 263l178 240h-122l-115 -164l-115 164h-123l177 -241l-196 -262h121l136 182l133 -182h121z" />
<glyph unicode="y" horiz-adv-x="480" d="M488 502h-108l-130 -355h-5l-146 355h-108l203 -480l-78 -210h109z" />
<glyph unicode="z" horiz-adv-x="460" d="M439 -2v88h-279l265 337l1 78h-385v-88h255l-267 -338v-77h410z" />
<glyph unicode="{" horiz-adv-x="450" d="M415 -170v60q-84 20 -101 84q-11 39 -4 89t11.5 79.5t-18.5 76.5q-37 56 -95 86q64 32 95 83q23 27 11 118t0 130q20 66 101 84v62q-146 -12 -206 -112q-18 -30 -17 -67t11.5 -68t14 -70t-9.5 -72q-7 -19 -25 -32.5t-33 -18.5t-44 -13v-47q110 -36 110 -106 q0 -23 -7.5 -56t-13.5 -57.5t-4 -58t18 -63.5q29 -56 88.5 -84.5t117.5 -26.5z" />
<glyph unicode="|" horiz-adv-x="333" d="M217 -158v935h-100v-935h100z" />
<glyph unicode="}" horiz-adv-x="450" d="M342 282v47q-29 8 -44 13t-33 18.5t-25 32.5q-13 32 -9 72t14 70t11 68t-17 67q-60 100 -206 112v-62q81 -18 101 -84q12 -39 0 -130t11 -118q31 -52 94 -83q-57 -29 -94 -86q-16 -26 -18 -57t4.5 -58t8.5 -62t-6 -68q-17 -64 -101 -84v-60q58 -2 117.5 26.5t88.5 84.5 q16 30 18 63.5t-4 58t-13.5 57.5t-7.5 56q0 70 110 106z" />
<glyph unicode="~" horiz-adv-x="585" d="M540 346v74h-90v-57q0 -16 -0.5 -21t-2.5 -17.5t-8.5 -17.5t-17.5 -5q-10 0 -18 3.5t-20.5 13.5t-15.5 12l-104 77q-58 44 -102 43q-59 -1 -87.5 -40t-28.5 -95v-70h90v62q0 52 31 52q7 0 13.5 -2.5t11 -5.5t12 -9t11.5 -9l107 -79q57 -43 97 -43q31 0 54.5 11t36 26 t20 35t9.5 34.5t2 27.5z" />
<glyph unicode="&#xac00;" d="M894 343v100h-164v345h-106v-910h106v465h164zM479 662h-408v-101h284q-27 -119 -117.5 -217.5t-226.5 -155.5l72 -76q67 27 130.5 73t123.5 112.5t98.5 161.5t43.5 203z" />
<glyph unicode="&#xac01;" d="M891 453v102h-157v233h-107v-567h107v232h157zM472 723h-393v-101h262q-23 -88 -106.5 -170.5t-215.5 -134.5l71 -76q168 67 268.5 191.5t113.5 290.5zM721 -167v351h-489v-101h384v-250h105z" />
<glyph unicode="&#xac04;" d="M891 417v101h-157v270h-107v-652h107v281h157zM472 713h-393v-101h262q-23 -89 -107.5 -176.5t-214.5 -138.5l71 -76q167 66 268 195.5t114 296.5zM746 -147v102h-391v233h-109v-335h500z" />
<glyph unicode="&#xac07;" d="M891 444v101h-157v243h-107v-567h107v223h157zM472 723h-393v-101h262q-23 -88 -106.5 -170.5t-215.5 -134.5l71 -76q168 67 268.5 191.5t113.5 290.5zM736 -151v101h-391v138h380v100h-488v-339h499z" />
<glyph unicode="&#xac08;" d="M891 470v102h-157v216h-107v-489h107v171h157zM472 733h-393v-101h262q-22 -86 -105.5 -164t-216.5 -131l71 -76q170 67 269.5 187.5t112.5 284.5zM736 -156v103h-381v61h360v257h-477v-100h368v-58h-363v-263h493z" />
<glyph unicode="&#xac09;" d="M471 733h-393v-101h262q-22 -85 -105 -161t-217 -129l71 -76q171 68 270 185.5t112 281.5zM740 -156v421h-270v-103h160v-318h110zM504 -156v103h-256v62h206v256h-321v-100h211v-57h-206v-264h366zM891 470v102h-157v216h-107v-489h107v171h157z" />
<glyph unicode="&#xac0a;" d="M890 470v102h-157v216h-107v-488h107v170h157zM472 733h-393v-101h262q-22 -85 -105 -161t-217 -129l71 -76q171 68 270 185.5t112 281.5zM738 -156v417h-288v-417h288zM442 -156v103h-202v59h185v256h-297v-100h187v-57h-185v-261h312zM628 -57h-72v217h72v-217z" />
<glyph unicode="&#xac10;" d="M891 447v102h-157v238h-107v-556h107v216h157zM472 723h-393v-101h262q-23 -88 -106.5 -170.5t-215.5 -134.5l71 -76q168 67 268.5 191.5t113.5 290.5zM720 -149v345h-478v-345h478zM612 -49h-260v144h260v-144z" />
<glyph unicode="&#xac11;" d="M890 473v101h-157v213h-107v-517h107v203h157zM472 733h-393v-101h262q-22 -86 -105.5 -164t-216.5 -131l71 -76q170 67 269.5 187.5t112.5 284.5zM724 -154v388h-108v-104h-261v104h-109v-388h478zM616 -54h-261v83h261v-83z" />
<glyph unicode="&#xac12;" d="M891 468v101h-157v218h-107v-519h107v200h157zM472 733h-393v-101h262q-22 -86 -105.5 -164t-216.5 -131l71 -76q170 67 269.5 187.5t112.5 284.5zM831 -86l-147 154q10 45 10 86v80h-111v-81q0 -57 -26 -113.5t-76 -89.5v284h-109v-106h-121v106h-109v-388h339v27 l23 -28q78 25 135 117l116 -119zM372 -54h-121v81h121v-81z" />
<glyph unicode="&#xac13;" d="M891 443v101h-157v243h-107v-617h107v273h157zM472 713h-393v-101h262q-23 -89 -107.5 -176.5t-214.5 -138.5l71 -76q167 66 268 195.5t114 296.5zM764 -84l-257 194q13 38 13 77v54h-113v-36q0 -86 -64.5 -164t-179.5 -115l68 -84q144 47 228 171l233 -174z" />
<glyph unicode="&#xac14;" d="M891 453v102h-157v232h-107v-551h107v217h157zM472 723h-393v-101h262q-23 -88 -106.5 -170.5t-215.5 -134.5l71 -76q168 67 268.5 191.5t113.5 290.5zM823 -77l-180 155q7 33 8 67v57h-111v-54q0 -51 -22.5 -98.5t-63.5 -78.5l-95 95q6 17 11 79v57h-113v-54 q0 -71 -44.5 -131.5t-130.5 -86.5l72 -87q104 45 155 121l136 -127q44 14 86.5 50t70.5 87l150 -126z" />
<glyph unicode="&#xac15;" d="M891 453v102h-157v233h-107v-557h107v222h157zM472 723h-393v-101h262q-23 -88 -106.5 -170.5t-215.5 -134.5l71 -76q168 67 268.5 191.5t113.5 290.5zM713 37q0 87 -67.5 144.5t-161.5 57.5q-93 0 -160.5 -58.5t-67.5 -144.5t65.5 -145.5t163.5 -59.5q95 0 161.5 60.5 t66.5 145.5zM603 35q0 -46 -33.5 -75t-84.5 -29q-53 0 -86.5 30.5t-33.5 75.5q0 43 35 73t84 30q51 0 85 -29.5t34 -75.5z" />
<glyph unicode="&#xac16;" d="M889 445v102h-156v241h-106v-531h106v188h156zM471 723h-393v-101h262q-23 -88 -106.5 -170.5t-215.5 -134.5l71 -76q168 67 268.5 191.5t113.5 290.5zM798 -81l-210 120q93 89 118 182h-476v-100h290q-61 -65 -156 -117t-206 -77l68 -86q139 31 273 125l235 -131z" />
<glyph unicode="&#xac17;" d="M891 463v101h-157v224h-107v-477q-80 -7 -193 2q-56 7 -106 28l-34 -81q47 -34 130 -45q118 -7 208 0v61h102v187h157zM472 733h-393v-101h262q-22 -85 -104.5 -160t-217.5 -128l71 -76q171 68 270 185t112 280zM810 -80l-206 93q82 70 119 161h-485v-98h278 q-127 -107 -348 -149l66 -89q148 30 273 105l233 -105z" />
<glyph unicode="&#xac19;" d="M891 470v101h-157v217h-107v-515h107v197h157zM471 733h-393v-101h262q-22 -86 -105 -163.5t-217 -130.5l71 -76q170 67 269.5 187t112.5 284zM724 -156v99h-379v53h360v102h-360v47h371v100h-478v-401h486z" />
<glyph unicode="&#xac1a;" d="M891 457v102h-157v228h-107v-536h107v206h157zM472 723h-393v-101h262q-23 -88 -106.5 -170.5t-215.5 -134.5l71 -76q168 67 268.5 191.5t113.5 290.5zM739 -147v101h-96v158h86v100h-524v-100h87v-158h-96v-101h543zM535 -46h-135v158h135v-158z" />
<glyph unicode="&#xac1b;" d="M891 473v101h-157v214h-107v-510h107v195h157zM472 733h-393v-101h262q-22 -84 -104 -158t-218 -127l71 -76q356 141 382 462zM634 218v97q-126 -5 -212 0q-56 6 -106 28l-34 -80q43 -31 129 -45q126 -8 223 0zM770 75v97h-586v-97h118q-38 -27 -38 -79q0 -77 63.5 -122 t151.5 -45t149 44.5t61 123.5q0 22 -11.5 45t-27.5 33h120zM572 -3q0 -33 -29 -52.5t-66 -19.5q-36 0 -66.5 20t-30.5 52q0 33 30 51.5t66 18.5q37 0 66.5 -18.5t29.5 -51.5z" />
<glyph unicode="&#xac1c;" d="M841 -122v910h-106v-345h-111v325h-106v-828h106v402h111v-464h106zM453 662h-376v-101h254q-61 -268 -314 -373l72 -76q65 27 125 73t113 112.5t87 161t39 203.5z" />
<glyph unicode="&#xac1d;" d="M840 214v574h-106v-235h-109v214h-107v-533h107v218h109v-238h106zM463 723h-366v-101h236q-55 -212 -296 -305l71 -79q161 64 251 189.5t104 295.5zM803 -167v347h-490v-101h383v-246h107z" />
<glyph unicode="&#xac20;" d="M841 142v646h-106v-255h-109v234h-107v-586h107v252h109v-291h106zM464 713h-366v-101h236q-25 -97 -96 -181t-200 -134l71 -79q160 63 250.5 193t104.5 302zM838 -147v102h-391v233h-107v-335h498z" />
<glyph unicode="&#xac24;" d="M841 283v505h-106v-216h-109v195h-107v-464h107v169h109v-189h106zM464 733h-366v-101h236q-53 -201 -296 -295l71 -79q162 64 251.5 185t103.5 290zM823 -156v103h-379v58h363v254h-479v-100h369v-55h-364v-260h490z" />
<glyph unicode="&#xac2c;" d="M841 231v557h-106v-235h-109v214h-107v-516h107v201h109v-221h106zM464 723h-366v-101h236q-55 -212 -296 -305l71 -79q161 64 251 189.5t104 295.5zM813 -149v345h-481v-345h481zM704 -49h-264v144h264v-144z" />
<glyph unicode="&#xac2d;" d="M840 260v528h-106v-225h-109v204h-107v-487h107v182h109v-202h106zM463 733h-366v-101h236q-53 -201 -296 -295l71 -79q162 64 251.5 185t103.5 290zM800 -154v388h-109v-102h-263v102h-109v-388h481zM691 -54h-263v85h263v-85z" />
<glyph unicode="&#xac2f;" d="M841 201v587h-106v-245h-109v224h-107v-514h107v190h109v-242h106zM464 713h-366v-101h236q-55 -212 -296 -305l71 -79q161 64 251 189.5t104 295.5zM841 -84l-257 194q13 38 13 77v34h-113v-16q0 -87 -65 -164t-186 -114l75 -85q143 47 228 172l233 -175z" />
<glyph unicode="&#xac30;" d="M841 231v557h-106v-235h-109v214h-107v-516h107v201h109v-221h106zM464 723h-366v-101h236q-55 -212 -296 -305l71 -79q161 64 251 189.5t104 295.5zM885 -82l-181 160q7 33 8 67v57h-110v-54q0 -51 -21.5 -99.5t-59.5 -79.5l-102 101q7 18 11 75v57h-111v-54 q0 -71 -44.5 -131.5t-130.5 -86.5l72 -87q104 45 158 127l133 -133q104 42 157 137l150 -131z" />
<glyph unicode="&#xac31;" d="M841 221v567h-106v-235h-109v214h-107v-497h107v182h109v-231h106zM464 723h-366v-101h236q-55 -212 -296 -305l71 -79q161 64 251 189.5t104 295.5zM794 37q0 87 -67.5 144.5t-161.5 57.5q-93 0 -160.5 -58.5t-67.5 -144.5t65.5 -145.5t163.5 -59.5q95 0 161.5 60.5 t66.5 145.5zM684 35q0 -46 -33.5 -75t-84.5 -29q-53 0 -86.5 30.5t-33.5 75.5q0 43 35 73t84 30q51 0 85 -29.5t34 -75.5z" />
<glyph unicode="&#xac38;" d="M886 210v101h-154v144h154v101h-154v232h-106v-910h106v332h154zM492 662h-408v-101h284q-27 -119 -117.5 -217.5t-226.5 -155.5l72 -76q67 27 130.5 73t123.5 112.5t98.5 161.5t43.5 203z" />
<glyph unicode="&#xac39;" d="M883 338v100h-152v96h152v100h-152v154h-105v-565h105v115h152zM475 723h-393v-101h262q-23 -88 -106.5 -170.5t-215.5 -134.5l71 -76q168 67 268.5 191.5t113.5 290.5zM724 -167v351h-489v-101h384v-250h105z" />
<glyph unicode="&#xac3c;" d="M884 307v101h-152v95h152v101h-152v184h-105v-651h105v170h152zM476 713h-393v-101h262q-23 -89 -107.5 -176.5t-214.5 -138.5l71 -76q167 66 268 195.5t114 296.5zM750 -147v102h-391v233h-109v-335h500z" />
<glyph unicode="&#xac40;" d="M884 371v100h-152v78h152v100h-152v139h-105v-503h105v86h152zM475 733h-393v-101h262q-22 -86 -105.5 -164t-216.5 -131l71 -76q170 67 269.5 187.5t112.5 284.5zM741 -156v103h-381v59h360v253h-477v-100h368v-54h-363v-261h493z" />
<glyph unicode="&#xac4b;" d="M884 327v101h-152v95h152v101h-152v164h-105v-626h105v165h152zM476 713h-393v-101h262q-23 -89 -107.5 -176.5t-214.5 -138.5l71 -76q167 66 268 195.5t114 296.5zM768 -84l-257 194q13 38 13 77v54h-113v-36q0 -86 -64.5 -164t-179.5 -115l68 -84q144 47 228 171 l233 -174z" />
<glyph unicode="&#xac4d;" d="M883 348v101h-152v95h152v100h-152v144h-105v-544h105v104h152zM477 723h-392v-101h263q-23 -87 -108 -169.5t-217 -134.5l73 -77q165 67 266.5 192.5t114.5 289.5zM725 37q0 87 -67.5 144.5t-161.5 57.5q-93 0 -160.5 -58.5t-67.5 -144.5t65.5 -145.5t163.5 -59.5 q95 0 161.5 60.5t66.5 145.5zM615 35q0 -46 -33.5 -75t-84.5 -29q-53 0 -86.5 30.5t-33.5 75.5q0 43 35 73t84 30q51 0 85 -29.5t34 -75.5z" />
<glyph unicode="&#xac54;" d="M841 -122v910h-106v-232h-115v212h-106v-828h106v280h115v-342h106zM453 662h-376v-101h254q-61 -268 -314 -373l72 -76q65 27 125 73t113 112.5t87 161t39 203.5zM735 322h-115v132h115v-132z" />
<glyph unicode="&#xac58;" d="M841 140v648h-106v-175h-112v154h-107v-588h107v128h112v-167h106zM464 713h-366v-101h236q-25 -97 -96 -181t-200 -134l71 -79q160 63 250.5 193t104.5 302zM832 -147v102h-391v233h-107v-335h498zM735 409h-112v103h112v-103z" />
<glyph unicode="&#xac5c;" d="M841 274v514h-106v-139h-112v118h-107v-478h107v74h112v-89h106zM464 733h-366v-101h236q-53 -201 -296 -295l71 -79q162 64 251.5 185t103.5 290zM823 -156v103h-379v58h363v251h-479v-100h369v-53h-364v-259h490zM735 463h-112v85h112v-85z" />
<glyph unicode="&#xac70;" horiz-adv-x="850" d="M768 -122v910h-106v-354h-209v-101h209v-455h106zM490 662h-408v-101h284q-27 -119 -117.5 -217.5t-226.5 -155.5l72 -76q67 27 130.5 73t123.5 112.5t98.5 161.5t43.5 203z" />
<glyph unicode="&#xac71;" horiz-adv-x="850" d="M768 221v567h-107v-257h-200v-100h200v-210h107zM485 723h-393v-101h262q-23 -88 -106.5 -170.5t-215.5 -134.5l71 -76q168 67 268.5 191.5t113.5 290.5zM754 -167v351h-490v-101h383v-250h107z" />
<glyph unicode="&#xac74;" horiz-adv-x="850" d="M769 140v648h-107v-287h-200v-101h200v-260h107zM485 713h-393v-101h262q-23 -89 -107.5 -176.5t-214.5 -138.5l71 -76q167 66 268 195.5t114 296.5zM780 -147v102h-390v233h-108v-335h498z" />
<glyph unicode="&#xac77;" horiz-adv-x="850" d="M768 225v563h-108v-257h-200v-100h200v-206h108zM484 723h-393v-101h262q-23 -88 -106.5 -170.5t-215.5 -134.5l71 -76q168 67 268.5 191.5t113.5 290.5zM761 -151v101h-391v138h383v100h-490v-339h498z" />
<glyph unicode="&#xac78;" horiz-adv-x="850" d="M769 296v492h-107v-226h-200v-101h200v-165h107zM485 733h-393v-101h262q-22 -86 -105.5 -164t-216.5 -131l71 -76q170 67 269.5 187.5t112.5 284.5zM769 -156v103h-381v61h360v257h-477v-100h368v-58h-363v-263h493z" />
<glyph unicode="&#xac7a;" horiz-adv-x="850" d="M769 293v495h-107v-226h-200v-101h200v-168h107zM485 733h-393v-101h262q-22 -85 -105 -161t-217 -129l71 -76q171 68 270 185.5t112 281.5zM769 -156v417h-288v-417h288zM473 -156v103h-202v59h185v256h-297v-100h187v-57h-185v-261h312zM659 -57h-72v217h72v-217z" />
<glyph unicode="&#xac80;" horiz-adv-x="850" d="M769 232v556h-107v-257h-200v-100h200v-199h107zM486 723h-393v-101h262q-23 -88 -106.5 -170.5t-215.5 -134.5l71 -76q168 67 268.5 191.5t113.5 290.5zM749 -149v345h-478v-345h478zM640 -49h-261v144h261v-144z" />
<glyph unicode="&#xac81;" horiz-adv-x="850" d="M768 272v516h-107v-236h-200v-101h200v-179h107zM483 733h-392v-101h263q-22 -85 -107 -163t-219 -131l74 -78q167 69 267.5 189.5t113.5 283.5zM749 -154v388h-108v-98h-261v98h-109v-388h478zM641 -54h-261v89h261v-89z" />
<glyph unicode="&#xac83;" horiz-adv-x="850" d="M768 160v627h-107v-276h-200v-101h200v-250h107zM485 713h-393v-101h262q-23 -89 -107.5 -176.5t-214.5 -138.5l71 -76q167 66 268 195.5t114 296.5zM797 -84l-257 194q13 38 13 77v54h-113v-36q0 -86 -64.5 -164t-179.5 -115l68 -84q144 47 228 171l233 -174z" />
<glyph unicode="&#xac84;" horiz-adv-x="850" d="M768 221v567h-107v-257h-200v-100h200v-210h107zM485 723h-393v-101h262q-23 -88 -106.5 -170.5t-215.5 -134.5l71 -76q168 67 268.5 191.5t113.5 290.5zM839 -77l-180 155q7 33 8 67v51h-111v-48q0 -51 -22.5 -98.5t-63.5 -78.5l-95 95q6 17 11 79v51h-113v-48 q0 -71 -44.5 -131.5t-130.5 -86.5l72 -87q104 45 155 121l136 -127q44 14 86.5 50t70.5 87l150 -126z" />
<glyph unicode="&#xac85;" horiz-adv-x="850" d="M769 231v557h-107v-257h-200v-100h200v-200h107zM486 723h-393v-101h262q-23 -88 -106.5 -170.5t-215.5 -134.5l71 -76q168 67 268.5 191.5t113.5 290.5zM747 37q0 87 -67.5 144.5t-161.5 57.5q-93 0 -160.5 -58.5t-67.5 -144.5t65.5 -145.5t163.5 -59.5q95 0 161.5 60.5 t66.5 145.5zM637 35q0 -46 -33.5 -75t-84.5 -29q-53 0 -86.5 30.5t-33.5 75.5q0 43 35 73t84 30q51 0 85 -29.5t34 -75.5z" />
<glyph unicode="&#xac86;" horiz-adv-x="850" d="M768 257v531h-107v-257h-200v-100h200v-174h107zM484 723h-393v-101h262q-23 -88 -106.5 -170.5t-215.5 -134.5l71 -76q168 67 268.5 191.5t113.5 290.5zM829 -81l-210 120q93 89 118 182h-476v-100h290q-61 -65 -156 -117t-206 -77l68 -86q139 31 273 125l235 -131z" />
<glyph unicode="&#xac89;" horiz-adv-x="850" d="M769 275v513h-107v-236h-200v-101h200v-176h107zM485 733h-393v-101h262q-22 -86 -105 -163.5t-217 -130.5l71 -76q170 67 269.5 187t112.5 284zM756 -156v99h-379v53h360v102h-360v47h371v100h-478v-401h486z" />
<glyph unicode="&#xac8a;" horiz-adv-x="850" d="M768 249v539h-107v-257h-200v-100h200v-182h107zM484 723h-393v-101h262q-23 -88 -106.5 -170.5t-215.5 -134.5l71 -76q168 67 268.5 191.5t113.5 290.5zM769 -147v101h-96v158h86v100h-524v-100h87v-158h-96v-101h543zM565 -46h-135v158h135v-158z" />
<glyph unicode="&#xac8b;" horiz-adv-x="850" d="M769 283v505h-107v-226h-200v-101h200v-178h107zM665 218v97q-98 -7 -215 0q-70 9 -106 28l-34 -80q42 -34 129 -45q141 -5 226 0zM475 733h-393v-101h262q-22 -84 -104 -158t-218 -127l71 -76q356 141 382 462zM798 75v97h-586v-97h118q-38 -27 -38 -79q0 -77 63.5 -122 t151.5 -45t149 44.5t61 123.5q0 22 -11.5 45t-27.5 33h120zM600 -3q0 -33 -29 -52.5t-66 -19.5q-36 0 -66.5 20t-30.5 52q0 33 30 51.5t66 18.5q37 0 66.5 -18.5t29.5 -51.5z" />
<glyph unicode="&#xac8c;" d="M840 -122v910h-106v-910h106zM647 -60v828h-105v-344h-143q47 109 53 238h-376v-101h254q-61 -268 -314 -373l72 -76q156 63 256 211h198v-383h105z" />
<glyph unicode="&#xac90;" d="M841 130v658h-106v-658h106zM660 169v598h-106v-252h-137q38 89 47 198h-366v-101h236q-25 -97 -96 -181t-200 -134l71 -79q160 63 252 196h193v-245h106zM834 -147v102h-391v233h-107v-335h498z" />
<glyph unicode="&#xac94;" d="M841 281v507h-106v-507h106zM660 301v466h-106v-209h-131q33 82 40 175h-366v-101h236q-53 -201 -296 -295l71 -79q169 66 262 199h184v-156h106zM822 -156v103h-379v58h363v254h-479v-100h369v-55h-364v-260h490z" />
<glyph unicode="&#xac9c;" d="M840 231v557h-106v-557h106zM659 251v516h-106v-235h-135q37 88 45 191h-366v-101h236q-55 -212 -296 -305l71 -79q174 69 268 214v-20h177v-181h106zM812 -149v345h-481v-345h481zM703 -49h-264v144h264v-144z" />
<glyph unicode="&#xac9d;" d="M841 258v530h-106v-530h106zM660 277v490h-106v-214h-132q36 85 43 181h-367v-101h237q-48 -203 -304 -303l76 -80q176 73 270 217v-15h177v-175h106zM801 -154v388h-109v-92h-263v92h-109v-388h481zM692 -54h-263v95h263v-95z" />
<glyph unicode="&#xac9f;" d="M841 191v597h-106v-597h106zM660 250v517h-106v-245h-136q38 91 45 191h-366v-101h236q-55 -212 -296 -305l71 -79q176 69 269 216v-23h177v-171h106zM840 -84l-257 194q13 38 13 77v34h-113v-16q0 -87 -65 -164t-186 -114l75 -85q143 47 228 172l233 -175z" />
<glyph unicode="&#xaca0;" d="M840 227v561h-106v-561h106zM659 247v520h-106v-235h-135q37 88 45 191h-366v-101h236q-55 -212 -296 -305l71 -79q174 69 268 214v-20h177v-185h106zM884 -82l-181 160q7 33 8 67v57h-110v-54q0 -51 -21.5 -99.5t-59.5 -79.5l-102 101q7 18 11 75v57h-111v-54 q0 -71 -44.5 -131.5t-130.5 -86.5l72 -87q104 45 158 127l133 -133q104 42 157 137l150 -131z" />
<glyph unicode="&#xaca1;" d="M840 231v557h-106v-557h106zM659 275v492h-106v-235h-135q37 88 45 191h-366v-101h236q-55 -212 -296 -305l71 -79q174 69 268 214v-20h177v-157h106zM803 37q0 87 -67.5 144.5t-161.5 57.5q-93 0 -160.5 -58.5t-67.5 -144.5t65.5 -145.5t163.5 -59.5q95 0 161.5 60.5 t66.5 145.5zM693 35q0 -46 -33.5 -75t-84.5 -29q-53 0 -86.5 30.5t-33.5 75.5q0 43 35 73t84 30q51 0 85 -29.5t34 -75.5z" />
<glyph unicode="&#xaca8;" horiz-adv-x="850" d="M769 -122v910h-106v-278h-198v-101h198v-108h-198v-101h198v-322h106zM486 662h-408v-101h284q-27 -119 -117.5 -217.5t-226.5 -155.5l72 -76q67 27 130.5 73t123.5 112.5t98.5 161.5t43.5 203z" />
<glyph unicode="&#xaca9;" horiz-adv-x="850" d="M769 213v575h-106v-174h-197v-101h197v-92h-197v-100h197v-108h106zM482 723h-393v-101h262q-23 -88 -106.5 -170.5t-215.5 -134.5l71 -76q168 67 268.5 191.5t113.5 290.5zM753 -167v351h-490v-101h383v-250h107z" />
<glyph unicode="&#xacaa;" horiz-adv-x="850" d="M768 226v562h-106v-174h-197v-101h197v-85h-197v-100h197v-102h106zM481 723h-393v-101h262q-23 -88 -106.5 -170.5t-215.5 -134.5l71 -76q168 67 268.5 191.5t113.5 290.5zM758 -167v351h-274v-101h167v-250h107zM473 -167v351h-306v-101h200v-250h106z" />
<glyph unicode="&#xacac;" horiz-adv-x="850" d="M769 137v651h-106v-191h-197v-101h197v-98h-197v-101h197v-160h106zM482 713h-393v-101h262q-23 -89 -107.5 -176.5t-214.5 -138.5l71 -76q167 66 268 195.5t114 296.5zM777 -147v102h-390v233h-108v-335h498z" />
<glyph unicode="&#xacaf;" horiz-adv-x="850" d="M768 223v565h-106v-174h-197v-101h197v-92h-197v-100h197v-98h106zM481 723h-393v-101h262q-23 -88 -106.5 -170.5t-215.5 -134.5l71 -76q168 67 268.5 191.5t113.5 290.5zM758 -151v101h-391v138h381v100h-488v-339h498z" />
<glyph unicode="&#xacb0;" horiz-adv-x="850" d="M768 287v501h-106v-164h-197v-100h197v-68h-197v-101h197v-68h106zM480 733h-393v-101h262q-22 -86 -105.5 -164t-216.5 -131l71 -76q170 67 269.5 187.5t112.5 284.5zM765 -156v103h-379v58h360v254h-477v-100h367v-55h-362v-260h491z" />
<glyph unicode="&#xacb8;" horiz-adv-x="850" d="M769 228v560h-106v-174h-197v-101h197v-84h-197v-100h197v-101h106zM482 723h-393v-101h262q-23 -88 -106.5 -170.5t-215.5 -134.5l71 -76q168 67 268.5 191.5t113.5 290.5zM750 -149v345h-478v-345h478zM641 -49h-260v144h260v-144z" />
<glyph unicode="&#xacb9;" horiz-adv-x="850" d="M768 264v524h-106v-154h-197v-100h197v-81h-197v-101h197v-88h106zM479 733h-392v-101h263q-22 -85 -107 -163t-219 -131l74 -78q167 69 267.5 189.5t113.5 283.5zM745 -154v391h-109v-100h-260v100h-108v-391h477zM636 -54h-260v91h260v-91z" />
<glyph unicode="&#xacbb;" horiz-adv-x="850" d="M769 152v636h-106v-184h-197v-101h197v-91h-197v-101h197v-159h106zM482 713h-393v-101h262q-23 -89 -107.5 -176.5t-214.5 -138.5l71 -76q167 66 268 195.5t114 296.5zM794 -84l-257 194q13 38 13 77v44h-113v-26q0 -86 -64.5 -164t-179.5 -115l68 -84q144 47 228 171 l233 -174z" />
<glyph unicode="&#xacbc;" horiz-adv-x="850" d="M769 223v565h-106v-179h-197v-101h197v-84h-197v-100h197v-101h106zM482 723h-393v-101h262q-23 -88 -106.5 -170.5t-215.5 -134.5l71 -76q168 67 268.5 191.5t113.5 290.5zM836 -77l-180 155q7 33 8 67v51h-111v-48q0 -51 -22.5 -98.5t-63.5 -78.5l-95 95q6 17 11 79v51 h-113v-48q0 -71 -44.5 -131.5t-130.5 -86.5l72 -87q104 45 155 121l136 -127q44 14 86.5 50t70.5 87l150 -126z" />
<glyph unicode="&#xacbd;" horiz-adv-x="850" d="M769 226v562h-106v-174h-197v-101h197v-89h-197v-100h197v-98h106zM482 723h-393v-101h262q-23 -88 -106.5 -170.5t-215.5 -134.5l71 -76q168 67 268.5 191.5t113.5 290.5zM743 37q0 87 -67.5 144.5t-161.5 57.5q-93 0 -160.5 -58.5t-67.5 -144.5t65.5 -145.5 t163.5 -59.5q95 0 161.5 60.5t66.5 145.5zM633 35q0 -46 -33.5 -75t-84.5 -29q-53 0 -86.5 30.5t-33.5 75.5q0 43 35 73t84 30q51 0 85 -29.5t34 -75.5z" />
<glyph unicode="&#xacc1;" horiz-adv-x="850" d="M769 267v521h-106v-154h-197v-100h197v-81h-197v-101h197v-85h106zM481 733h-393v-101h262q-22 -86 -105 -163.5t-217 -130.5l71 -76q170 67 269.5 187t112.5 284zM762 -156v99h-382v53h363v99h-363v47h374v100h-481v-398h489z" />
<glyph unicode="&#xacc4;" d="M840 -122v910h-106v-910h106zM650 -60v828h-106v-253h-121q19 72 22 147h-376v-101h254q-61 -268 -314 -373l72 -76q92 38 175 115t132 188h156v-108h-188v-102h188v-265h106z" />
<glyph unicode="&#xacc8;" d="M840 130v658h-106v-658h106zM659 169v598h-106v-175h-116q17 59 21 121h-366v-101h236q-25 -97 -96 -181t-200 -134l71 -79q207 81 297 274h153v-89h-182v-101h182v-133h106zM827 -147v102h-391v233h-107v-335h498z" />
<glyph unicode="&#xaccc;" d="M840 275v513h-106v-513h106zM659 292v475h-106v-140h-111q13 55 17 106h-366v-101h236q-53 -201 -296 -295l71 -79q214 85 301 268h148v-78h-182v-101h182v-55h106zM814 -156v103h-379v56h360v249h-476v-100h366v-52h-361v-256h490z" />
<glyph unicode="&#xacd5;" d="M840 258v530h-106v-530h106zM659 272v495h-106v-140h-111q13 55 17 106h-366v-101h236q-53 -201 -296 -295l71 -79q214 85 301 268h148v-78h-182v-101h182v-75h106zM806 -154v388h-108v-101h-260v101h-108v-388h476zM698 -54h-260v86h260v-86z" />
<glyph unicode="&#xacd7;" d="M840 191v597h-106v-597h106zM659 241v526h-106v-168h-113q15 60 19 114h-366v-101h236q-55 -212 -296 -305l71 -79q210 83 300 271h149v-87h-182v-101h182v-70h106zM836 -84l-257 194q13 38 13 77v24h-113v-6q0 -87 -65 -164t-186 -114l75 -85q143 47 228 172l233 -175z " />
<glyph unicode="&#xace0;" d="M706 485v201h-519v-100h413v-89q0 -174 -61 -308h114q53 119 53 296zM872 -10v101h-435v289h-108v-289h-302v-101h845z" />
<glyph unicode="&#xace1;" d="M696 752h-498v-102h388q-5 -169 -35 -268h111q34 123 34 370zM878 259v100h-433v174h-109v-174h-314v-100h856zM693 -157v335h-494v-101h388v-234h106z" />
<glyph unicode="&#xace4;" d="M696 752h-498v-102h388q-5 -180 -35 -278h111q34 123 34 380zM878 242v100h-433v181h-109v-181h-314v-100h856zM708 -146v102h-397v211h-106v-313h503z" />
<glyph unicode="&#xace7;" d="M696 752h-498v-102h388q-5 -162 -35 -262h111q34 123 34 364zM878 265v100h-433v168h-109v-168h-314v-100h856zM700 -151v101h-390v138h380v100h-488v-339h498z" />
<glyph unicode="&#xace8;" d="M696 762h-498v-102h388q-4 -134 -35 -237h111q20 73 27 144t7 195zM878 300v100h-436v160h-109v-160h-311v-100h856zM707 -156v102h-387v55h362v248h-478v-99h368v-52h-363v-254h498z" />
<glyph unicode="&#xacea;" d="M696 762h-498v-102h388q-4 -134 -35 -237h111q20 73 27 144t7 195zM878 300v100h-436v160h-109v-160h-311v-100h856zM747 -156v393h-295v-393h295zM442 -156v103h-192v50h179v243h-292v-99h183v-47h-181v-250h303zM638 -57h-78v194h78v-194z" />
<glyph unicode="&#xacec;" d="M696 762h-498v-102h388q-4 -134 -35 -237h111q20 73 27 144t7 195zM878 300v100h-436v160h-109v-160h-311v-100h856zM814 -88l-151 158q9 40 9 84v88h-111v-89q0 -62 -26 -117.5t-81 -88.5h-204v50h199v245h-312v-99h202v-47h-200v-252h328v27l21 -26q74 23 132 118 l118 -122z" />
<glyph unicode="&#xacef;" d="M696 762h-498v-102h388q-4 -123 -35 -227h111q20 73 27 140t7 189zM878 310v100h-436v160h-109v-160h-311v-100h856zM740 173v95q-62 -4 -143 -3q-44 2 -105 25l-36 -76q62 -41 131 -44q91 -1 153 3zM818 44v91h-389v-91h62q-19 -12 -31.5 -34.5t-12.5 -45.5q0 -12 1 -17 h-208v50h179v245h-291v-99h183v-47h-181v-252h327v68q17 -40 60 -62t98 -23q72 -1 119.5 36t48.5 102q0 54 -42 79h77zM675 -30q-1 -23 -18.5 -37t-42.5 -13q-24 1 -40.5 15.5t-17.5 36.5q-1 24 15.5 39.5t44.5 15.5t44 -16t15 -41z" />
<glyph unicode="&#xacf0;" d="M693 752h-498v-102h388q-5 -161 -35 -261h111q34 123 34 363zM878 264v100h-436v169h-109v-169h-311v-100h856zM688 -149v333h-488v-333h488zM580 -49h-271v133h271v-133z" />
<glyph unicode="&#xacf1;" d="M696 762h-498v-102h388q-4 -147 -35 -248h111q34 123 34 350zM878 289v100h-433v164h-109v-164h-314v-100h856zM693 -154v395h-108v-102h-270v102h-109v-395h487zM585 -54h-270v93h270v-93z" />
<glyph unicode="&#xacf3;" d="M696 752h-498v-102h388q-5 -162 -35 -262h111q34 123 34 364zM878 255v100h-433v184h-109v-184h-314v-100h856zM759 -82l-267 176q14 39 14 76v38h-115v-26q0 -80 -65.5 -149t-186.5 -106l72 -85q147 46 229 158l247 -163z" />
<glyph unicode="&#xacf5;" d="M696 752h-498v-102h388q-5 -157 -35 -257h111q34 123 34 359zM878 270v100h-433v163h-109v-163h-314v-100h856zM683 28q0 89 -67.5 144t-169.5 55q-100 0 -166 -55.5t-66 -144.5q0 -87 67.5 -142t164.5 -55q103 0 170 56t67 142zM573 30q0 -48 -35 -74.5t-92 -26.5 q-52 0 -88 28t-36 73q0 47 35 75t89 28t90.5 -28.5t36.5 -74.5z" />
<glyph unicode="&#xacf6;" d="M696 752h-498v-102h388q-5 -149 -35 -250h111q34 123 34 352zM878 277v100h-433v166h-109v-166h-314v-100h856zM770 -74l-206 113q92 87 117 176h-476v-99h279q-50 -56 -139 -105.5t-207 -78.5l67 -89q141 34 271 124l226 -126z" />
<glyph unicode="&#xacfc;" horiz-adv-x="920" d="M921 343v100h-164v345h-107v-910h107v465h164zM520 680h-442v-100h330q-4 -183 -45 -299h115q42 151 42 399zM629 130v101q-163 -32 -331 -34v234h-106v-234h-188v-101h193q107 0 190.5 5t127 11t114.5 18z" />
<glyph unicode="&#xacfd;" horiz-adv-x="920" d="M910 450v103h-154v234h-107v-584h107v247h154zM513 723h-420v-101h311q-5 -117 -43 -230h112q24 83 32 149t8 182zM623 276v99q-41 -9 -93.5 -15.5t-79.5 -8.5t-88.5 -4.5t-63.5 -2.5v173h-106v-173h-180v-100h195q56 0 106 1.5t80 3t72 6t54 6t55.5 8t48.5 7.5z M746 -167v340h-492v-101h384v-239h108z" />
<glyph unicode="&#xad00;" horiz-adv-x="920" d="M915 426v102h-158v260h-107v-673h107v311h158zM514 713h-420v-101h311q-6 -139 -44 -250h113q23 81 31.5 156t8.5 195zM624 246v98q-107 -21 -325 -29v184h-106v-184h-180v-101h185q42 0 81.5 1t67.5 2t61.5 3.5t50 3.5t47.5 5t39.5 5.5t41 6t37.5 5.5zM769 -147v102 h-391v203h-108v-305h499z" />
<glyph unicode="&#xad04;" horiz-adv-x="920" d="M914 472v101h-158v214h-107v-508h107v193h158zM513 732h-420v-100h311q-4 -96 -43 -213h112q24 88 32 143t8 170zM624 315v101q-160 -32 -326 -32v152h-106v-152h-180v-99h185q108 0 195.5 5t121.5 9.5t110 15.5zM755 -157v103h-379v55h360v246h-477v-99h368v-48h-363 v-257h491z" />
<glyph unicode="&#xad06;" horiz-adv-x="920" d="M915 473v101h-158v214h-107v-514h107v199h158zM514 733h-420v-100h311q-3 -63 -11.5 -105t-29.5 -109h111q24 85 31.5 142.5t7.5 171.5zM625 317v101q-161 -30 -326 -32v151h-106v-151h-179v-99h194q42 0 81 1t66 1.5t60 3t47.5 3.5t46.5 5t38 5t40.5 6t37.5 5zM759 -156 v396h-290v-396h290zM456 -156v102h-201v50h189v244h-301v-98h190v-49h-188v-249h311zM650 -57h-76v197h76v-197z" />
<glyph unicode="&#xad0c;" horiz-adv-x="920" d="M911 450v103h-154v234h-107v-564h107v227h154zM514 723h-420v-101h311q-5 -117 -42 -231h111q24 83 32 149.5t8 182.5zM625 281v98q-94 -17 -332 -29v167h-106v-167h-173v-101h204q48 0 88.5 1t76 3t58.5 3.5t53.5 5.5t43 5.5t45 6.5t42.5 7zM748 -149v335h-478v-335h478 zM639 -49h-261v135h261v-135z" />
<glyph unicode="&#xad0d;" horiz-adv-x="920" d="M915 473v101h-158v214h-107v-523h107v208h158zM514 733h-420v-100h311q-4 -99 -42 -217h111q25 85 32.5 144t7.5 173zM625 309v101q-157 -31 -332 -33v156h-106v-156h-173v-98h194q42 0 81 1t66 1.5t60 3t47.5 3.5t46.5 5t38 5t40.5 6t37.5 5zM748 -154v386h-109v-97 h-260v97h-108v-386h477zM639 -54h-260v88h260v-88z" />
<glyph unicode="&#xad0f;" horiz-adv-x="920" d="M911 441v101h-154v245h-107v-625h107v279h154zM514 723h-420v-101h311q-5 -121 -42 -235h111q24 83 32 151t8 185zM625 265v99q-102 -18 -332 -30v174h-106v-174h-173v-100h184q38 0 71 0.5t64.5 2t53.5 2t50.5 3.5t41 4t41.5 4.5t34.5 4.5t37 5.5t33.5 4.5zM805 -82 l-259 173q17 45 17 86v24h-114v-6q0 -86 -63.5 -158.5t-182.5 -111.5l71 -83q139 44 221 158l242 -161z" />
<glyph unicode="&#xad11;" horiz-adv-x="920" d="M910 450v103h-154v234h-107v-562h107v225h154zM513 723h-420v-101h311q-5 -119 -42 -233h111q24 83 32 150t8 184zM624 280v99q-77 -14 -332 -30v168h-106v-168h-173v-100h204q56 0 104.5 1.5t79 3t68.5 5.5t53 6t53 7.5t49 7.5zM746 28q0 89 -67.5 143.5t-168.5 54.5 t-167 -55t-66 -144q0 -87 67.5 -141t165.5 -54q102 0 169 55.5t67 140.5zM636 29q0 -48 -35.5 -74.5t-90.5 -26.5q-54 0 -89.5 27.5t-35.5 73.5q0 47 35.5 74.5t89.5 27.5t90 -28t36 -74z" />
<glyph unicode="&#xad18;" horiz-adv-x="920" d="M853 -122v910h-105v-345h-90v325h-104v-828h104v402h90v-464h105zM480 680h-391v-100h278q-4 -186 -44 -299h115q42 146 42 399zM529 130v102q-127 -33 -248 -35v239h-107v-239h-138v-101h149q58 0 100 1.5t79 5.5t53.5 6.5t56.5 10t55 10.5z" />
<glyph unicode="&#xad1c;" horiz-adv-x="920" d="M847 130v658h-105v-263h-85v242h-105v-598h105v255h85v-294h105zM470 713h-380v-101h270q-6 -140 -41 -250h111q24 80 32 154.5t8 196.5zM529 246v98q-138 -26 -255 -29v184h-107v-184h-137v-101h154q78 0 145.5 5.5t98 10t101.5 16.5zM834 -147v102h-390v213h-107v-315 h497z" />
<glyph unicode="&#xad20;" horiz-adv-x="920" d="M842 267v521h-105v-216h-85v195h-105v-483h105v188h85v-205h105zM465 733h-380v-101h270q-5 -114 -41 -216h111q25 83 32.5 142t7.5 175zM524 306v98q-137 -26 -257 -29v161h-107v-161h-135v-98h154q174 0 345 29zM818 -156v103h-379v55h360v246h-477v-97h368v-51h-363 v-256h491z" />
<glyph unicode="&#xad29;" horiz-adv-x="920" d="M842 267v521h-105v-216h-85v195h-105v-483h105v188h85v-205h105zM465 733h-380v-101h270q-5 -114 -41 -216h111q25 83 32.5 142t7.5 175zM524 306v98q-137 -26 -257 -29v161h-107v-161h-135v-98h154q174 0 345 29zM802 -154v391h-109v-107h-260v107h-108v-391h477z M693 -54h-260v83h260v-83z" />
<glyph unicode="&#xad2c;" horiz-adv-x="920" d="M842 201v587h-105v-237h-85v216h-105v-547h105v230h85v-249h105zM465 723h-380v-101h270q-6 -136 -41 -235h111q24 81 32 149t8 187zM524 272v98q-137 -26 -257 -29v166h-107v-166h-135v-98h154q174 0 345 29zM878 -81l-181 159q7 33 8 67v43h-110v-40q0 -51 -21.5 -99.5 t-59.5 -79.5l-100 101q7 18 11 75v43h-111v-40q0 -71 -44.5 -131.5t-129.5 -87.5l71 -86q105 46 157 127l133 -134q104 45 155 137l152 -131z" />
<glyph unicode="&#xad2d;" horiz-adv-x="920" d="M841 231v557h-105v-237h-85v216h-105v-507h105v190h85v-219h105zM464 723h-380v-101h270q-6 -136 -41 -235h111q24 81 32 149t8 187zM523 272v98q-137 -26 -257 -29v166h-107v-166h-135v-98h154q174 0 345 29zM800 28q0 89 -67.5 143.5t-168.5 54.5t-167 -55t-66 -144 q0 -87 67.5 -141t165.5 -54q102 0 169 55.5t67 140.5zM690 29q0 -48 -35.5 -74.5t-90.5 -26.5q-54 0 -89.5 27.5t-35.5 73.5q0 47 35.5 74.5t89.5 27.5t90 -28t36 -74z" />
<glyph unicode="&#xad34;" horiz-adv-x="870" d="M777 -122v910h-107v-910h107zM532 680h-447v-100h335q-4 -183 -45 -299h115q42 151 42 399zM646 130v101q-163 -32 -331 -34v234h-106v-234h-201v-101h204q107 0 190.5 5t128 11t115.5 18z" />
<glyph unicode="&#xad35;" horiz-adv-x="870" d="M779 203v584h-106v-584h106zM528 723h-427v-101h316q-1 -120 -41 -235h112q25 80 32.5 147t7.5 189zM646 270v99q-165 -30 -343 -30v172h-106v-172h-177v-100h198q213 0 428 31zM768 -167v340h-490v-101h383v-239h107z" />
<glyph unicode="&#xad38;" horiz-adv-x="870" d="M778 115v673h-106v-673h106zM527 713h-427v-101h316q-1 -130 -41 -245h112q25 79 32.5 150.5t7.5 195.5zM645 250v99q-165 -30 -343 -30v176h-106v-176h-177v-100h198q213 0 428 31zM791 -147v102h-391v213h-107v-315h498z" />
<glyph unicode="&#xad3c;" horiz-adv-x="870" d="M779 274v514h-106v-514h106zM527 733h-427v-101h316q-1 -120 -41 -210h112q25 77 32.5 136t7.5 175zM645 314v95q-165 -30 -343 -30v162h-106v-162h-177v-96h198q238 0 428 31zM771 -156v103h-379v55h360v246h-477v-99h367v-49h-362v-256h491z" />
<glyph unicode="&#xad44;" horiz-adv-x="870" d="M777 213v574h-106v-574h106zM526 723h-427v-101h316q-1 -67 -9.5 -113t-31.5 -112h112q26 79 33 140t7 186zM644 280v99q-165 -30 -343 -30v172h-106v-172h-177v-100h198q213 0 428 31zM758 -149v335h-478v-335h478zM649 -49h-260v135h260v-135z" />
<glyph unicode="&#xad45;" horiz-adv-x="870" d="M785 265v523h-106v-523h106zM533 733h-427v-101h316q-1 -120 -41 -210h112q25 77 32.5 136t7.5 175zM651 310v95q-165 -30 -343 -30v162h-106v-162h-177v-96h198q238 0 428 31zM766 -154v386h-109v-102h-259v102h-109v-386h477zM657 -54h-259v83h259v-83z" />
<glyph unicode="&#xad47;" horiz-adv-x="870" d="M781 168v620h-106v-620h106zM529 723h-427v-101h316q-1 -120 -41 -235h112q25 80 32.5 147t7.5 189zM647 265v99q-165 -30 -343 -30v177h-106v-177h-177v-100h198q213 0 428 31zM809 -84l-260 175q17 45 17 86v24h-112v-6q0 -86 -64.5 -159.5t-186.5 -110.5l74 -83 q139 44 221 158l241 -163z" />
<glyph unicode="&#xad49;" horiz-adv-x="870" d="M785 229v559h-106v-559h106zM533 723h-427v-101h316q-1 -118 -41 -233h112q25 80 32.5 146t7.5 188zM651 282v99q-165 -30 -343 -30v162h-106v-162h-177v-100h198q213 0 428 31zM764 28q0 89 -67.5 143.5t-168.5 54.5t-167 -55t-66 -144q0 -87 67.5 -141t165.5 -54 q102 0 169 55.5t67 140.5zM654 29q0 -48 -35.5 -74.5t-90.5 -26.5q-54 0 -89.5 27.5t-35.5 73.5q0 47 35.5 74.5t89.5 27.5t90 -28t36 -74z" />
<glyph unicode="&#xad50;" d="M710 485v201h-519v-100h413v-89q0 -174 -61 -308h114q53 119 53 296zM878 -10v101h-345v272h-108v-272h-87v272h-107v-272h-209v-101h856z" />
<glyph unicode="&#xad54;" d="M685 752h-493v-102h383q-5 -171 -35 -275h113q32 138 32 377zM878 229v99h-350v197h-108v-197h-68v197h-107v-197h-224v-99h857zM707 -146v102h-397v211h-105v-313h502z" />
<glyph unicode="&#xad58;" d="M685 762h-493v-101h383q-4 -130 -34 -235h113q31 134 31 336zM878 290v99h-351v174h-107v-174h-68v174h-107v-174h-224v-99h857zM714 -156v102h-387v53h363v248h-478v-98h367v-52h-362v-253h497z" />
<glyph unicode="&#xad61;" d="M685 762h-493v-101h383q-4 -141 -34 -245h113q31 134 31 346zM878 280v99h-351v174h-107v-174h-68v174h-107v-174h-224v-99h857zM702 -154v385h-108v-101h-270v101h-108v-385h486zM594 -54h-270v83h270v-83z" />
<glyph unicode="&#xad63;" d="M686 762h-495v-101h385q-5 -175 -34 -275h113q31 134 31 376zM878 250v99h-352v194h-107v-194h-68v194h-107v-194h-223v-99h857zM758 -82l-266 176q13 41 13 76v28h-114v-16q0 -80 -66.5 -149t-189.5 -106l75 -85q145 45 231 158l245 -163z" />
<glyph unicode="&#xad6c;" d="M698 734h-512v-100h403q-5 -139 -52 -272h110q27 89 39 163.5t12 208.5zM878 220v101h-856v-101h359v-360h108v360h389z" />
<glyph unicode="&#xad6d;" d="M883 316v100h-231q35 152 35 336h-493v-102h379q-5 -126 -34 -234h-523v-100h366v-121h-184v-101h383v-251h107v352h-199v121h394z" />
<glyph unicode="&#xad70;" d="M878 283v99h-229q38 159 38 370h-493v-102h382q-5 -157 -39 -268h-516v-99h390v-224h107v224h360zM703 -146v102h-398v231h-105v-333h503z" />
<glyph unicode="&#xad73;" d="M878 311v100h-224q35 147 35 341h-493v-102h382q-5 -130 -35 -239h-522v-100h373v-117h-185v-345h497v101h-390v144h380v100h-195v117h377z" />
<glyph unicode="&#xad74;" d="M878 342v99h-227q36 144 36 321h-493v-102h382q-4 -115 -35 -219h-520v-99h371v-82h-181v-99h367v-59h-362v-258h497v102h-387v58h363v256h-190v82h379z" />
<glyph unicode="&#xad75;" d="M878 342v99h-227q36 144 36 321h-493v-102h382q-4 -115 -35 -219h-520v-99h371v-82h-246v-100h212v-57h-210v-259h354v103h-244v59h210v151h175v-313h109v416h-253v82h379z" />
<glyph unicode="&#xad76;" d="M878 342v99h-227q36 144 36 321h-493v-102h382q-4 -115 -35 -219h-520v-99h371v-84h-246v-100h187v-57h-185v-257h311v103h-201v59h186v154h22v-316h290v412h-257v86h379zM647 -57h-76v212h76v-212z" />
<glyph unicode="&#xad7b;" d="M878 342v99h-227q36 144 36 321h-493v-102h382q-4 -115 -35 -219h-520v-99h369v-100h-259v-99h183v-47h-181v-252h327v68q17 -40 60 -62t98 -23q72 -1 119.5 36t48.5 102q0 54 -42 79h77v91h-389v-91h64q-19 -12 -32.5 -34.5t-13.5 -45.5q0 -12 1 -17h-208v50h179v177h75 v20q47 -20 93 -24q97 -3 153 3v95q-59 -6 -143 -3q-64 6 -103 24v53h381zM678 -30q-1 -23 -18.5 -37t-42.5 -13q-24 1 -40.5 15.5t-17.5 36.5q-1 24 15.5 39.5t44.5 15.5t44 -16t15 -41z" />
<glyph unicode="&#xad7c;" d="M878 311v100h-225q34 141 34 341h-493v-102h380q-5 -134 -34 -239h-519v-100h370v-115h-181v-345h487v345h-199v115h380zM589 -49h-271v144h271v-144z" />
<glyph unicode="&#xad7d;" d="M878 334v99h-228q37 134 37 329h-493v-102h382q-4 -121 -39 -227h-516v-99h377v-160h107v160h373zM697 -154v402h-108v-115h-270v115h-108v-402h486zM589 -54h-270v87h270v-87z" />
<glyph unicode="&#xad7f;" d="M878 308v100h-231q36 150 36 344h-493v-102h380q-5 -128 -36 -242h-513v-100h366v-126q0 -80 -66.5 -149.5t-187.5 -106.5l70 -84q146 46 230 158l246 -163l72 81q-17 11 -44.5 29.5t-86 57t-97.5 63.5l-39 26q12 35 12 76v138h382z" />
<glyph unicode="&#xad81;" d="M878 311v100h-226q36 148 36 341h-493v-102h382q-5 -131 -36 -239v0v0v0v0h-1v0v0v0h-1v0h-1v0v0h-1v0h-1v0h-1v0h-1v0h-1v0h-1h-1v0h-1h-1h-1h-1h-1h-1h-1h-1h-1h-1h-1h-1h-1h-1h-1h-1h-1h-1h-1h-1h-1h-1h-1h-1h-1h-1h-1h-1h-1h-1h-1h-1h-1h-1h-1h-1h-1h-1h-1h-1h-1h-1 h-1h-1h-1h-1h-1h-1h-1h-1h-1h-1h-1h-1h-1h-1h-1h-1h-1h-1h-1h-1h-1h-1h-1h-1h-1h-1h-1h-1h-1h-1h-1h-1h-1h-1h-1h-1h-1h-1h-1h-1h-1h-1h-1h-1h-2h-1h-1h-1h-1h-1h-1h-1h-1h-1h-1h-2h-1h-1h-1h-1h-1h-1h-1h-2h-1h-1h-1h-1h-1h-2h-1h-1h-1h-1h-1h-2h-1h-1h-1h-1h-2h-1h-1h-1 h-2h-1h-1h-1h-1h-2h-1h-1h-1h-2h-1h-1h-1h-2h-1h-1h-2h-1h-1h-1h-2h-1h-1h-2h-1h-1h-2h-1h-1h-2h-1h-1h-2h-1h-1h-2h-1h-1h-2h-1h-1h-2h-1h-1h-2h-1h-2h-1h-1h-2h-1h-2h-1h-1h-2h-1h-2h-1h-1h-2h-1h-2h-1h-1h-2h-1h-2h-1h-2h-1h-2h-1h-2h-1h-1h-2h-1h-2h-1h-2h-1h-2h-1h-2 h-1h-2h-1h-2h-1h-2h-1h-2h-1h-2h-1h-2h-1h-2h-1h-2h-2h-1h-2h-1h-2h-1h-2h-1h-2h-2h-1h-2h-1h-2h-1h-2h-2h-1h-2h-1h-2h-1h-2h-2h-1h-2h-2h-1h-2h-1h-2h-2h-1h-2h-1h-2h-2h-1h-2h-2h-1h-2h-2h-1h-2h-2h-1h-2h-2h-1h-2h-2h-1h-2h-2h-1h-2h-2h-1h-2h-2h-2h-1h-2h-2h-1h-2h-2 h-2h-1h-2h-2h-1h-2h-2h-2h-1h-2h-2h-2h-1h-2h-2h-2h-1h-2h-2h-2h-2h-1h-2h-2h-2h-1h-2h-2h-2h-2h-1h-2h-2h-2h-2h-1h-2h-2h-2h-2h-2h-1h-2h-2h-2h-2h-2h-1h-2h-2h-2h-2h-2h-2h-1h-2h-2h-2h-2h-2h-2h-2h-1h-2h-2h-2h-9v-100h370v-89q-79 -15 -128 -67t-49 -128 q0 -87 67.5 -142t164.5 -55q103 0 170 56t67 142q0 77 -51.5 129t-133.5 66v88h380zM573 30q0 -48 -35 -74.5t-92 -26.5q-52 0 -88 28t-36 73q0 47 35 75t89 28t90.5 -28.5t36.5 -74.5z" />
<glyph unicode="&#xad82;" d="M878 321v100h-225q34 158 34 331h-493v-102h382q-4 -121 -33 -229h-522v-100h368v-106h-182v-99h279q-50 -56 -139 -105.5t-207 -78.5l67 -89q143 35 272 124l225 -126l68 85l-205 112q92 87 116 177h-187v106h382z" />
<glyph unicode="&#xad88;" horiz-adv-x="870" d="M790 -122v910h-106v-613h-212v-101h212v-196h106zM543 713h-435v-101h325q-6 -138 -46 -251h113q43 142 43 352zM643 265v102q-176 -34 -396 -34h-227v-99h192h51v-343h106v346q108 4 274 28z" />
<glyph unicode="&#xad89;" horiz-adv-x="870" d="M789 185v603h-104v-463h-204v-97h204v-43h104zM644 378v101q-69 -13 -129 -20q23 91 23 274h-423v-99h312q-3 -118 -24 -185q-64 -4 -156 -4h-227v-97h192h28v-166h106v168q128 3 298 28zM773 -157v311h-489v-102h382v-209h107z" />
<glyph unicode="&#xad8c;" horiz-adv-x="870" d="M789 100v688h-104v-502h-204v-97h204v-89h104zM644 348v101q-65 -13 -129 -21q23 98 23 295h-423v-99h312q-4 -133 -25 -205q-63 -4 -155 -4h-227v-98h182h38v-146h106v148q114 4 298 29zM789 -147v102h-391v193h-107v-295h498z" />
<glyph unicode="&#xad90;" horiz-adv-x="870" d="M789 247v541h-104v-426h-204v-95h204v-20h104zM644 402v101q-55 -12 -127 -22q21 84 21 252h-423v-99h312q-3 -103 -23 -163q-64 -4 -170 -4h-214v-96h210v-126h106v128q128 3 308 29zM781 -156v103h-380v47h360v237h-476v-99h366v-40h-362v-248h492z" />
<glyph unicode="&#xad9c;" horiz-adv-x="870" d="M786 195v593h-104v-465h-204v-97h204v-31h104zM641 378v101q-69 -13 -129 -20q23 91 23 274h-423v-99h312q-3 -118 -24 -185q-64 -4 -156 -4h-217v-97h200v-156h106v158q33 1 60.5 2t55 3.5t43.5 3.5t43 4.5t34 4.5t38 5.5t34 4.5zM842 -75l-175 148q6 32 8 72v17h-110 v-14q0 -51 -21.5 -99.5t-59.5 -79.5l-102 97q6 17 11 79v17h-111v-14q0 -70 -44 -131.5t-126 -88.5l68 -83q106 46 155 123l136 -132q106 46 155 135l146 -121z" />
<glyph unicode="&#xad9d;" horiz-adv-x="870" d="M789 212v576h-104v-436h-204v-96h204v-44h104zM644 394v101q-48 -11 -128 -21q20 95 20 259h-421v-99h311q-4 -90 -23 -169q-63 -4 -156 -4h-227v-98h192h22v-161h106v163q140 4 304 29zM772 25q0 89 -67 141.5t-169 52.5q-101 0 -167 -53t-66 -142q0 -87 67.5 -139.5 t165.5 -52.5q103 0 169.5 54t66.5 139zM662 26q0 -47 -35.5 -72.5t-90.5 -25.5t-90 26.5t-35 71.5q0 46 35 72t90 26t90.5 -26t35.5 -72z" />
<glyph unicode="&#xada4;" horiz-adv-x="920" d="M845 -122v910h-105v-910h105zM666 -82v850h-104v-579h-173v-101h173v-170h104zM465 713h-372v-101h263q-6 -130 -44 -238h111q25 72 33.5 141.5t8.5 197.5zM532 268v101q-166 -32 -333 -32h-155v-100h129h49v-346h106v351q38 2 204 26z" />
<glyph unicode="&#xadb7;" horiz-adv-x="920" d="M848 160v628h-106v-628h106zM677 200v567h-104v-433h-175v-100h175v-34h104zM560 383v100q-75 -14 -122 -21q22 103 22 271h-366v-99h256q-3 -90 -24 -182q-66 -2 -114 -2h-171v-98h135h40v-177h105v180q91 4 239 28zM838 -83l-259 169q15 40 15 81v24h-112v-6 q0 -84 -63 -154.5t-178 -105.5l64 -83q141 46 222 152l240 -158z" />
<glyph unicode="&#xadc0;" horiz-adv-x="870" d="M785 -122v910h-106v-910h106zM548 713h-435v-101h325q-6 -145 -46 -257h113q43 142 43 358zM648 259v102q-176 -34 -396 -34h-227v-99h192h52v-337h106v340q116 6 273 28z" />
<glyph unicode="&#xadc1;" horiz-adv-x="870" d="M784 191v597h-104v-597h104zM658 366v101q-63 -13 -142 -22q25 101 25 288h-421v-99h311q-5 -111 -26 -197q-63 -4 -153 -4h-227v-97h203h7v-141h107v142q148 4 316 29zM769 -157v321h-489v-102h383v-219h106z" />
<glyph unicode="&#xadc4;" horiz-adv-x="870" d="M784 90v698h-104v-698h104zM658 345v101q-67 -14 -141 -21q24 110 24 298h-421v-100h310q-5 -119 -25 -207q-63 -4 -153 -4h-227v-98h193h27v-153h106v155q130 3 307 29zM784 -147v102h-391v193h-107v-295h498z" />
<glyph unicode="&#xadc8;" horiz-adv-x="870" d="M784 259v529h-104v-529h104zM658 396v101q-61 -13 -138 -22q21 93 21 258h-421v-99h310q-5 -96 -24 -167q-63 -4 -154 -4h-227v-98h206v-116h106v117q141 3 321 30zM781 -156v103h-379v50h359v239h-476v-98h366v-45h-361v-249h491z" />
<glyph unicode="&#xadd0;" horiz-adv-x="870" d="M784 209v579h-104v-579h104zM658 374v101q-65 -12 -139 -21q22 100 22 279h-421v-99h310q-5 -105 -25 -189q-63 -4 -153 -4h-227v-97h203h7v-131h106v132q149 4 317 29zM763 -149v331h-477v-331h477zM654 -49h-260v131h260v-131z" />
<glyph unicode="&#xadd1;" horiz-adv-x="870" d="M784 253v535h-104v-535h104zM658 396v101q-61 -13 -138 -22q21 93 21 258h-421v-99h310q-5 -96 -24 -167q-63 -4 -154 -4h-227v-98h200v-122h106v123q49 1 88 2.5t78.5 6t53.5 6t58.5 8t48.5 7.5zM762 -154v378h-109v-96h-268v96h-108v-378h485zM653 -54h-268v81h268v-81 z" />
<glyph unicode="&#xadd3;" horiz-adv-x="870" d="M780 150v638h-104v-638h104zM654 351v102q-77 -16 -142 -22q25 104 25 292h-421v-100h310q-5 -118 -26 -201q-64 -4 -154 -4h-225v-98h206v-164h106v165q157 5 321 30zM798 -82l-257 173q16 46 16 86v34h-112v-16q0 -86 -64.5 -159.5t-186.5 -110.5l74 -83 q140 46 222 158l238 -161z" />
<glyph unicode="&#xaddc;" d="M703 734h-512v-100h403q-5 -139 -52 -272h110q27 89 39 163.5t12 208.5zM878 220v101h-856v-101h219v-360h107v360h187v-360h108v360h235z" />
<glyph unicode="&#xade0;" d="M878 301v100h-233q37 168 37 351h-483v-102h372q-5 -140 -37 -249h-513v-100h309v-228h109v228h84v-228h106v228h249zM697 -146v102h-398v233h-105v-335h503z" />
<glyph unicode="&#xade4;" d="M878 349v98h-225q35 135 35 315h-484v-102h372q-4 -112 -35 -213h-520v-98h239v-88h-51v-100h367v-58h-362v-259h497v102h-387v58h363v257h-57v88h248zM523 261h-156v88h156v-88z" />
<glyph unicode="&#xadf8;" d="M697 477v209h-519v-100h411v-98q0 -181 -61 -309h116q53 132 53 298zM877 0v102h-855v-102h855z" />
<glyph unicode="&#xadf9;" d="M878 301v100h-232q35 144 35 351h-493v-102h381q-5 -137 -35 -249h-512v-100h856zM679 -157v359h-489v-101h383v-258h106z" />
<glyph unicode="&#xadfc;" d="M878 275v99h-236q39 151 39 378h-493v-102h381q-5 -160 -40 -276h-507v-99h856zM713 -146v102h-397v227h-106v-329h503z" />
<glyph unicode="&#xadff;" d="M878 301v100h-229q36 145 36 351h-492v-102h380q-5 -139 -37 -249h-514v-100h856zM703 -151v101h-390v148h380v102l-488 -1v-350h498z" />
<glyph unicode="&#xae00;" d="M878 337v99h-227q30 130 30 326h-493v-101h379q-5 -132 -29 -225h-516v-99h856zM708 -156v102h-387v64h362v258h-478v-99h368v-61h-363v-264h498z" />
<glyph unicode="&#xae01;" d="M878 337v99h-233q31 135 31 326h-493v-102h381q-5 -121 -31 -224h-511v-99h856zM744 -156v423h-279v-102h169v-321h110zM493 -156v103h-243v63h203v257h-316v-99h206v-61h-204v-263h354z" />
<glyph unicode="&#xae08;" d="M878 305v100h-231q34 139 34 347h-493v-102h381q-5 -140 -34 -245h-513v-100h856zM689 -149v357h-488v-357h488zM581 -49h-271v156h271v-156z" />
<glyph unicode="&#xae09;" d="M878 323v100h-236q34 141 34 339h-493v-102h381q-5 -134 -34 -237h-508v-100h856zM683 -154v411h-108v-109h-270v109h-109v-411h487zM575 -54h-270v102h270v-102z" />
<glyph unicode="&#xae0b;" d="M878 284v99h-236q39 149 39 369h-493v-102h381q-5 -152 -40 -267h-507v-99h856zM763 -83l-268 177q16 46 16 86v33h-115v-21q0 -78 -65.5 -154.5t-185.5 -112.5l71 -83q144 46 228 161l248 -165z" />
<glyph unicode="&#xae0d;" d="M878 301v100h-232q35 144 35 351h-493v-102h381q-5 -139 -35 -249h-513v-100h857zM683 28q0 89 -67.5 144t-169.5 55q-100 0 -166 -55.5t-66 -144.5q0 -87 67.5 -142t164.5 -55q103 0 170 56t67 142zM573 30q0 -48 -35 -74.5t-92 -26.5q-52 0 -88 28t-36 73q0 47 35 75 t89 28t90.5 -28.5t36.5 -74.5z" />
<glyph unicode="&#xae14;" horiz-adv-x="870" d="M795 -122v910h-107v-910h107zM551 680h-443v-100h330q-4 -191 -44 -305h115q42 146 42 405zM662 135v101q-20 -4 -56.5 -10t-147.5 -15.5t-219 -8.5h-205v-101h198q41 0 80 1t67 2t62.5 4t51 4t49.5 5.5t40.5 5.5t42 6.5t37.5 5.5z" />
<glyph unicode="&#xae30;" horiz-adv-x="850" d="M769 -122v910h-107v-910h107zM507 662h-415v-101h291q-27 -118 -120 -217t-231 -156l72 -76q52 21 103.5 53.5t105 82t94.5 109t68.5 139t31.5 166.5z" />
<glyph unicode="&#xae31;" horiz-adv-x="850" d="M768 221v567h-107v-567h107zM495 723h-393v-101h262q-23 -88 -106.5 -170.5t-215.5 -134.5l71 -76q168 67 268.5 191.5t113.5 290.5zM747 -167v351h-492v-101h384v-250h108z" />
<glyph unicode="&#xae34;" horiz-adv-x="850" d="M769 140v648h-107v-648h107zM496 713h-393v-101h262q-23 -89 -107.5 -176.5t-214.5 -138.5l71 -76q167 66 268 195.5t114 296.5zM778 -147v102h-391v233h-107v-335h498z" />
<glyph unicode="&#xae37;" horiz-adv-x="850" d="M768 221v567h-107v-567h107zM495 723h-393v-101h262q-23 -88 -106.5 -170.5t-215.5 -134.5l71 -76q168 67 268.5 191.5t113.5 290.5zM762 -151v101h-391v138h382v100h-490v-339h499z" />
<glyph unicode="&#xae38;" horiz-adv-x="850" d="M768 298v490h-107v-490h107zM495 733h-393v-101h262q-22 -86 -105 -163.5t-217 -130.5l71 -76q170 67 269.5 187t112.5 284zM771 -156v103h-380v61h357v255h-473v-100h363v-56h-358v-263h491z" />
<glyph unicode="&#xae3a;" horiz-adv-x="850" d="M768 291v497h-107v-497h107zM495 733h-393v-101h262q-22 -86 -105 -163.5t-217 -130.5l71 -76q170 67 269.5 187t112.5 284zM768 -156v414h-287v-414h287zM473 -156v103h-204v59h188v252h-299v-100h190v-53h-188v-261h313zM659 -57h-74v214h74v-214z" />
<glyph unicode="&#xae40;" horiz-adv-x="850" d="M768 227v561h-107v-561h107zM495 723h-393v-101h262q-23 -88 -106.5 -170.5t-215.5 -134.5l71 -76q168 67 268.5 191.5t113.5 290.5zM748 -149v345h-480v-345h480zM639 -49h-262v144h262v-144z" />
<glyph unicode="&#xae41;" horiz-adv-x="850" d="M768 272v516h-107v-516h107zM495 733h-393v-101h262q-22 -86 -105.5 -164t-216.5 -131l71 -76q170 67 269.5 187.5t112.5 284.5zM750 -154v395h-110v-101h-260v101h-109v-395h479zM640 -54h-260v94h260v-94z" />
<glyph unicode="&#xae43;" horiz-adv-x="850" d="M768 170v618h-107v-618h107zM495 713h-393v-101h262q-23 -88 -106.5 -170.5t-215.5 -134.5l71 -76q168 67 268.5 191.5t113.5 290.5zM799 -85l-256 200q11 39 11 72v64h-113v-46q0 -87 -65.5 -164.5t-185.5 -113.5l74 -83q147 48 232 175l230 -178z" />
<glyph unicode="&#xae45;" horiz-adv-x="850" d="M768 241v547h-107v-547h107zM495 723h-393v-101h262q-23 -88 -106.5 -170.5t-215.5 -134.5l71 -76q168 67 268.5 191.5t113.5 290.5zM739 37q0 87 -67.5 144.5t-161.5 57.5q-93 0 -160.5 -58.5t-67.5 -144.5t65.5 -145.5t163.5 -59.5q95 0 161.5 60.5t66.5 145.5zM629 35 q0 -46 -33.5 -75t-84.5 -29q-53 0 -86.5 30.5t-33.5 75.5q0 43 35 73t84 30q51 0 85 -29.5t34 -75.5z" />
<glyph unicode="&#xae46;" horiz-adv-x="850" d="M768 257v531h-107v-531h107zM495 723h-393v-101h262q-23 -87 -106 -167t-216 -132l71 -76q169 67 269 189t113 287zM819 -81l-210 120q93 89 118 182h-476v-100h290q-61 -65 -156 -117t-206 -77l68 -86q139 31 273 125l235 -131z" />
<glyph unicode="&#xae4a;" horiz-adv-x="850" d="M768 252v536h-107v-536h107zM495 723h-393v-101h262q-23 -88 -106.5 -170.5t-215.5 -134.5l71 -76q168 67 268.5 191.5t113.5 290.5zM769 -147v101h-96v158h86v100h-524v-100h87v-158h-96v-101h543zM565 -46h-135v158h135v-158z" />
<glyph unicode="&#xae4c;" horiz-adv-x="920" d="M928 343v100h-164v345h-107v-910h107v465h164zM587 663h-543v-101h180q-42 -241 -232 -363l78 -69q102 64 170.5 177.5t90.5 254.5h135q-15 -101 -69 -205t-150 -174l87 -63q110 80 178 229t75 314z" />
<glyph unicode="&#xae4d;" horiz-adv-x="920" d="M924 453v102h-158v233h-107v-557h107v222h158zM584 723h-529v-101h163q-36 -180 -221 -278l74 -76q215 125 259 354h134q-48 -206 -214 -292l78 -74q244 147 256 467zM758 -167v361h-503v-101h391v-260h112z" />
<glyph unicode="&#xae4e;" horiz-adv-x="920" d="M924 453v102h-158v233h-107v-557h107v222h158zM584 723h-529v-101h163q-36 -180 -221 -278l74 -76q215 125 259 354h134q-48 -206 -214 -292l78 -74q244 147 256 467zM761 -167v361h-284v-101h177v-260h107zM466 -167v361h-306v-101h200v-260h106z" />
<glyph unicode="&#xae50;" horiz-adv-x="920" d="M924 416v102h-158v270h-107v-652h107v280h158zM584 713h-529v-101h163q-9 -46 -28.5 -90.5t-69.5 -102t-123 -95.5l74 -76q216 125 259 364h134q-51 -217 -214 -302l78 -74q243 147 256 477zM778 -147v102h-391v223h-107v-325h498z" />
<glyph unicode="&#xae54;" horiz-adv-x="920" d="M924 470v101h-158v217h-107v-499h107v181h158zM581 733h-529v-101h163q-32 -158 -221 -258l74 -76q215 124 259 334h134q-43 -183 -214 -272l78 -74q72 44 123 97.5t78.5 113t40 115.5t14.5 121zM776 -157v103h-379v58h355v251h-472v-100h362v-52h-357v-260h491z" />
<glyph unicode="&#xae56;" horiz-adv-x="920" d="M916 470v101h-158v217h-107v-503h107v185h158zM576 733h-529v-101h163q-32 -158 -221 -258l74 -76q215 124 259 334h134q-43 -183 -214 -272l78 -74q72 44 123 97.5t78.5 113t40 115.5t14.5 121zM751 -156v407h-288v-407h288zM455 -156v103h-202v54h185v251h-297v-100 h187v-52h-185v-256h312zM641 -57h-72v207h72v-207z" />
<glyph unicode="&#xae5c;" horiz-adv-x="920" d="M916 444v100h-158v244h-107v-561h107v217h158zM576 723h-529v-101h163q-36 -180 -221 -278l74 -76q215 125 259 354h134q-48 -206 -214 -292l78 -74q244 147 256 467zM747 -149v340h-490v-340h490zM637 -49h-271v140h271v-140z" />
<glyph unicode="&#xae5d;" horiz-adv-x="920" d="M916 473v101h-158v213h-107v-509h107v195h158zM576 733h-529v-101h163q-32 -158 -221 -258l74 -76q215 124 259 334h134q-43 -183 -214 -272l78 -74q72 44 123 97.5t78.5 113t40 115.5t14.5 121zM750 -154v391h-109v-101h-270v101h-109v-391h488zM641 -54h-270v89h270 v-89z" />
<glyph unicode="&#xae5f;" horiz-adv-x="920" d="M916 433v101h-158v253h-107v-617h107v263h158zM576 713h-529v-101h163q-9 -46 -28.5 -90.5t-69.5 -102t-123 -95.5l74 -76q216 125 259 364h134q-51 -217 -214 -302l78 -74q243 147 256 477zM799 -84l-257 194q13 38 13 77v54h-113v-36q0 -86 -64.5 -164t-179.5 -115 l68 -84q144 47 228 171l233 -174z" />
<glyph unicode="&#xae60;" horiz-adv-x="920" d="M916 453v102h-158v232h-107v-551h107v217h158zM576 723h-529v-101h163q-36 -180 -221 -278l74 -76q215 125 259 354h134q-48 -206 -214 -292l78 -74q244 147 256 467zM854 -77l-180 155q7 33 8 67v57h-111v-54q0 -51 -22.5 -98.5t-63.5 -78.5l-95 95q6 17 11 79v57h-113 v-54q0 -71 -44.5 -131.5t-130.5 -86.5l72 -87q104 45 155 121l136 -127q44 14 86.5 50t70.5 87l150 -126z" />
<glyph unicode="&#xae61;" horiz-adv-x="920" d="M917 453v102h-158v233h-107v-547h107v212h158zM577 723h-529v-101h163q-36 -180 -221 -278l74 -76q215 125 259 354h134q-48 -206 -214 -292l78 -74q244 147 256 467zM756 37q0 88 -68 145t-166 57q-97 0 -165 -58t-68 -145q0 -86 67 -145.5t167 -59.5q99 0 166 59 t67 147zM646 35q0 -47 -34.5 -76.5t-88.5 -29.5t-89.5 32t-35.5 76q0 43 36 74t88 31q54 0 89 -30t35 -77z" />
<glyph unicode="&#xae65;" horiz-adv-x="920" d="M916 473v101h-158v213h-107v-514h107v200h158zM575 733h-529v-101h163q-32 -158 -221 -258l74 -76q215 124 259 334h134q-43 -183 -214 -272l78 -74q72 44 123 97.5t78.5 113t40 115.5t14.5 121zM751 -156v99h-383v52h362v95h-362v48h374v99h-481v-393h490z" />
<glyph unicode="&#xae68;" horiz-adv-x="920" d="M876 -122v910h-107v-345h-82v325h-107v-828h107v402h82v-464h107zM557 663h-505v-101h159q-38 -249 -227 -363l84 -69q101 65 165.5 177t85.5 255h117q-15 -101 -69 -204.5t-152 -173.5l86 -65q112 81 178 223t78 321z" />
<glyph unicode="&#xae69;" horiz-adv-x="920" d="M854 219v569h-107v-235h-80v214h-107v-529h107v214h80v-233h107zM536 723h-484v-101h142q-6 -33 -18 -66t-34.5 -73t-63.5 -78t-95 -66l73 -75q110 66 167 155t79 203h115q-41 -207 -207 -295l71 -73q70 38 121 94.5t78 121.5t40.5 126.5t15.5 126.5zM811 -167v351h-503 v-101h391v-250h112z" />
<glyph unicode="&#xae6c;" horiz-adv-x="920" d="M845 150v638h-107v-256h-80v235h-107v-583h107v249h80v-283h107zM527 713h-484v-101h142q-6 -34 -17.5 -68t-34.5 -76t-64 -81.5t-95 -67.5l73 -75q199 120 246 368h115q-44 -218 -207 -305l71 -73q70 37 121 95.5t78 125.5t40.5 130t15.5 128zM836 -147v102h-390v223 h-108v-325h498z" />
<glyph unicode="&#xae70;" horiz-adv-x="920" d="M865 279v509h-107v-213h-80v192h-107v-468h107v176h80v-196h107zM547 733h-484v-101h142q-29 -168 -211 -263l73 -75q111 66 167.5 148.5t78.5 189.5h115q-37 -184 -207 -275l71 -73q243 131 255 449zM842 -156v103h-379v60h359v251h-476v-100h366v-52h-361v-262h491z " />
<glyph unicode="&#xae78;" horiz-adv-x="920" d="M865 231v557h-107v-235h-80v214h-107v-516h107v201h80v-221h107zM547 723h-484v-101h142q-6 -33 -18 -66t-34.5 -73t-63.5 -78t-95 -66l73 -75q110 66 167 155t79 203h115q-41 -207 -207 -295l71 -73q70 38 121 94.5t78 121.5t40.5 126.5t15.5 126.5zM832 -149v345h-488 v-345h488zM724 -49h-271v144h271v-144z" />
<glyph unicode="&#xae79;" horiz-adv-x="920" d="M855 261v527h-107v-212h-83v191h-107v-487h107v196h83v-215h107zM537 733h-484v-101h142q-29 -168 -211 -263l73 -75q111 66 167.5 148.5t78.5 189.5h115q-37 -184 -207 -275l71 -73q243 131 255 449zM806 -154v387h-109v-100h-260v100h-109v-387h478zM697 -54h-260v86 h260v-86z" />
<glyph unicode="&#xae7b;" horiz-adv-x="920" d="M855 201v587h-107v-245h-80v224h-107v-522h107v197h80v-241h107zM537 713h-484v-101h142q-6 -33 -18 -66t-34.5 -73t-63.5 -78t-95 -66l73 -75q110 66 167 155t79 203h115q-41 -207 -207 -295l71 -73q70 38 121 94.5t78 121.5t40.5 126.5t15.5 126.5zM849 -84l-257 194 q13 38 13 77v24h-113v-6q0 -87 -65 -164t-186 -114l75 -85q143 47 228 172l233 -175z" />
<glyph unicode="&#xae7c;" horiz-adv-x="920" d="M857 231v557h-107v-235h-80v214h-107v-516h107v201h80v-221h107zM539 723h-484v-101h142q-6 -33 -18 -66t-34.5 -73t-63.5 -78t-95 -66l73 -75q110 66 167 155t79 203h115q-41 -207 -207 -295l71 -73q70 38 121 94.5t78 121.5t40.5 126.5t15.5 126.5zM895 -82l-181 160 q7 33 8 67v57h-110v-54q0 -51 -21.5 -99.5t-59.5 -79.5l-102 101q7 18 11 75v57h-111v-54q0 -71 -44.5 -131.5t-130.5 -86.5l72 -87q104 45 158 127l133 -133q104 42 157 137l150 -131z" />
<glyph unicode="&#xae7d;" horiz-adv-x="920" d="M865 241v547h-107v-235h-80v214h-107v-496h107v181h80v-211h107zM547 723h-484v-101h142q-6 -33 -18 -66t-34.5 -73t-63.5 -78t-95 -66l73 -75q110 66 167 155t79 203h115q-41 -207 -207 -295l71 -73q70 38 121 94.5t78 121.5t40.5 126.5t15.5 126.5zM820 37 q0 88 -68 145t-166 57q-97 0 -165 -58t-68 -145q0 -86 67 -145.5t167 -59.5q99 0 166 59t67 147zM710 35q0 -47 -34.5 -76.5t-88.5 -29.5t-89.5 32t-35.5 76q0 43 36 74t88 31q54 0 89 -30t35 -77z" />
<glyph unicode="&#xae84;" horiz-adv-x="920" d="M911 210v101h-153v144h153v101h-153v232h-107v-910h107v332h153zM585 663h-543v-101h180q-42 -241 -232 -363l78 -69q102 64 170.5 177.5t90.5 254.5h135q-15 -101 -69 -205t-150 -174l87 -63q110 80 178 229t75 314z" />
<glyph unicode="&#xae85;" horiz-adv-x="920" d="M909 343v100h-151v101h151v100h-151v144h-106v-555h106v110h151zM581 723h-529v-101h163q-36 -180 -221 -278l74 -76q215 125 259 354h134q-48 -206 -214 -292l78 -74q244 147 256 467zM752 -167v361h-491v-101h384v-260h107z" />
<glyph unicode="&#xae8c;" horiz-adv-x="920" d="M910 375v100h-151v79h151v102h-151v132h-106v-512h106v99h151zM582 733h-529v-101h163q-32 -158 -221 -258l74 -76q215 124 259 334h134q-43 -183 -214 -272l78 -74q72 44 123 97.5t78.5 113t40 115.5t14.5 121zM765 -157v100h-379v56h359v249h-475v-100h365v-52h-361 v-253h491z" />
<glyph unicode="&#xaebc;" horiz-adv-x="880" d="M805 -122v910h-106v-344h-145q33 106 38 219h-546v-101h180q-42 -241 -232 -363l78 -69q102 64 170.5 177.5t90.5 254.5h138q-15 -101 -69 -205t-150 -174l87 -63q120 86 191 259v-36h169v-465h106z" />
<glyph unicode="&#xaebd;" horiz-adv-x="880" d="M795 221v567h-107v-247h-146q27 81 30 182h-529v-101h163q-36 -180 -221 -278l74 -76q215 125 259 354h134q-48 -206 -214 -292l78 -74q140 84 204 226v-41h168v-220h107zM776 -167v351h-503v-101h391v-250h112z" />
<glyph unicode="&#xaebe;" horiz-adv-x="880" d="M795 231v557h-107v-247h-146q27 81 30 182h-529v-101h163q-35 -175 -221 -273l74 -76q215 125 259 349h134q-47 -200 -214 -287l78 -74q140 84 204 224v-44h168v-210h107zM789 -167v361h-284v-101h177v-260h107zM494 -167v361h-306v-101h200v-260h106z" />
<glyph unicode="&#xaec0;" horiz-adv-x="880" d="M799 141v647h-107v-257h-145q26 83 29 182h-529v-101h163q-9 -46 -28.5 -90.5t-69.5 -102t-123 -95.5l74 -76q216 125 259 364h134q-51 -217 -214 -302l78 -74q140 84 204 231v0v-1v-1v-1v-1v-1v-1v-2v-1v-1v-1v-1v-2v-1v-2v-1v-2v-1v-2v-1v-2v-2v-8h168v-290h107z M810 -147v102h-393v219h-107v-321h500z" />
<glyph unicode="&#xaec4;" horiz-adv-x="880" d="M795 281v507h-107v-217h-141q22 72 25 162h-529v-101h163q-31 -156 -221 -256l74 -76q215 124 259 332h134q-42 -181 -214 -270l78 -74q142 85 204 215v-33h168v-189h107zM789 -156v103h-383v54h365v251h-481v-100h371v-52h-366v-256h494z" />
<glyph unicode="&#xaecc;" horiz-adv-x="880" d="M795 231v557h-107v-247h-146q27 81 30 182h-529v-101h163q-36 -180 -221 -278l74 -76q215 125 259 354h134q-48 -206 -214 -292l78 -74q140 84 204 226v-41h168v-210h107zM777 -149v345h-488v-345h488zM669 -49h-272v144h272v-144z" />
<glyph unicode="&#xaecd;" horiz-adv-x="880" d="M795 269v519h-107v-217h-141q22 73 25 162h-529v-101h163q-32 -158 -221 -258l74 -76q215 124 259 334h134q-43 -183 -214 -272l78 -74q141 85 204 216v-32h168v-201h107zM776 -154v389h-108v-99h-270v99h-108v-389h486zM668 -54h-270v89h270v-89z" />
<glyph unicode="&#xaecf;" horiz-adv-x="880" d="M790 170v618h-107v-257h-146q27 81 30 182h-529v-101h163q-36 -180 -221 -278l74 -76q215 125 259 354h134q-48 -206 -214 -292l78 -74q140 84 204 226v-41h168v-261h107zM819 -84l-257 194q13 38 13 77v54h-113v-36q0 -86 -64.5 -164t-179.5 -115l68 -84q144 47 228 171 l233 -174z" />
<glyph unicode="&#xaed0;" horiz-adv-x="880" d="M799 231v557h-107v-247h-146q27 81 30 182h-529v-101h163q-36 -180 -221 -278l74 -76q215 125 259 354h134q-48 -206 -214 -292l78 -74q140 84 204 226v-41h168v-210h107zM848 -77l-180 155q7 33 8 67v57h-111v-54q0 -51 -22.5 -98.5t-63.5 -78.5l-95 95q6 17 11 79v57 h-113v-54q0 -71 -44.5 -131.5t-130.5 -86.5l72 -87q104 45 155 121l136 -127q44 14 86.5 50t70.5 87l150 -126z" />
<glyph unicode="&#xaed1;" horiz-adv-x="880" d="M805 237v551h-107v-247h-146q27 81 30 182h-529v-101h163q-36 -180 -221 -278l74 -76q215 125 259 354h134q-48 -206 -214 -292l78 -74q140 84 204 226v-41h168v-204h107zM791 37q0 88 -68 145t-166 57q-97 0 -165 -58t-68 -145q0 -86 67 -145.5t167 -59.5q99 0 166 59 t67 147zM681 35q0 -47 -34.5 -76.5t-88.5 -29.5t-89.5 32t-35.5 76q0 43 36 74t88 31q54 0 89 -30t35 -77z" />
<glyph unicode="&#xaed8;" horiz-adv-x="920" d="M863 -122v910h-107v-910h107zM687 -60v828h-106v-324h-91q31 98 40 219h-496v-101h159q-47 -256 -227 -363l84 -69q100 67 165 178.5t85 253.5h107q-14 -102 -67 -205t-152 -173l87 -66q112 87 176 225h130v-403h106z" />
<glyph unicode="&#xaed9;" horiz-adv-x="920" d="M865 221v567h-107v-567h107zM693 241v526h-106v-232h-86q28 88 31 188h-469v-101h136q-33 -193 -205 -283l73 -75q110 66 164.5 154.5t76.5 203.5h105q-41 -207 -207 -295l71 -73q116 62 181 180h129v-193h106zM825 -167v351h-503v-101h391v-250h112z" />
<glyph unicode="&#xaedc;" horiz-adv-x="920" d="M864 140v648h-107v-648h107zM692 181v586h-106v-252h-88q30 96 33 198h-469v-101h136q-35 -204 -205 -293l73 -75q109 66 164 157.5t77 210.5h105q-44 -218 -207 -305l71 -73q113 60 179 180h131v-233h106zM855 -147v102h-390v233h-108v-335h498z" />
<glyph unicode="&#xaee8;" horiz-adv-x="920" d="M865 231v557h-107v-557h107zM693 241v526h-106v-232h-86q28 88 31 188h-469v-101h136q-33 -193 -205 -283l73 -75q110 66 164.5 154.5t76.5 203.5h105q-41 -207 -207 -295l71 -73q116 62 181 180h129v-193h106zM833 -149v345h-487v-345h487zM721 -49h-266v144h266v-144z " />
<glyph unicode="&#xaeeb;" horiz-adv-x="920" d="M865 211v577h-107v-577h107zM693 241v526h-106v-242h-86q28 88 31 188h-469v-101h136q-33 -193 -205 -283l73 -75q110 66 164.5 154.5t76.5 203.5h105q-41 -207 -207 -295l71 -73q116 62 181 180h129v-183h106zM859 -84l-257 194q13 38 13 77v24h-113v-6q0 -87 -65 -164 t-186 -114l75 -85q143 47 228 172l233 -175z" />
<glyph unicode="&#xaeed;" horiz-adv-x="920" d="M865 221v567h-107v-567h107zM693 271v496h-106v-232h-86q28 88 31 188h-469v-101h136q-33 -193 -205 -283l73 -75q110 66 164.5 154.5t76.5 203.5h105q-41 -207 -207 -295l71 -73q116 62 181 180h129v-163h106zM820 37q0 88 -68 145t-166 57q-97 0 -165 -58t-68 -145 q0 -86 67 -145.5t167 -59.5q99 0 166 59t67 147zM710 35q0 -47 -34.5 -76.5t-88.5 -29.5t-89.5 32t-35.5 76q0 43 36 74t88 31q54 0 89 -30t35 -77z" />
<glyph unicode="&#xaef4;" horiz-adv-x="880" d="M809 -122v910h-106v-248h-135q11 63 14 123h-539v-101h176q-43 -244 -228 -363l78 -69q101 64 168.5 177t89.5 255h134q-15 -101 -69 -205t-150 -174l87 -63q145 105 213 320h161v-109h-179v-100h179v-353h106z" />
<glyph unicode="&#xaef8;" horiz-adv-x="880" d="M791 137v651h-107v-184h-133q7 45 11 109h-522v-101h163q-9 -46 -28.5 -90.5t-69.5 -102t-123 -95.5l74 -76q215 124 260 364h126q-51 -217 -214 -302l78 -74q158 96 218 267h160v-95h-177v-101h177v-170h107zM797 -147v102h-393v219h-107v-321h500z" />
<glyph unicode="&#xaefc;" horiz-adv-x="880" d="M797 286v502h-107v-154h-132q10 53 11 99h-529v-101h163q-31 -156 -221 -256l74 -76q215 124 259 332h134q-42 -181 -214 -270l78 -74q157 94 218 246h159v-72h-177v-100h177v-76h107zM796 -156v103h-383v54h365v251h-481v-100h371v-52h-366v-256h494z" />
<glyph unicode="&#xaf07;" horiz-adv-x="880" d="M783 167v621h-107v-184h-134q8 44 12 109h-522v-101h163q-36 -180 -221 -278l74 -76q215 125 259 354h127q-48 -206 -214 -292l78 -74q155 94 217 257h161v-85h-177v-101h177v-150h107zM816 -84l-257 194q13 38 13 77v34h-113v-16q0 -86 -64.5 -164t-179.5 -115l68 -84 q144 47 228 171l233 -174z" />
<glyph unicode="&#xaf08;" horiz-adv-x="880" d="M785 229v559h-107v-164h-132q8 48 10 99h-522v-101h163q-36 -180 -221 -278l74 -76q215 125 259 354h127q-48 -206 -214 -292l78 -74q159 96 220 267h158v-85h-177v-101h177v-108h107zM834 -77l-180 155q7 33 8 67v57h-111v-54q0 -51 -22.5 -98.5t-63.5 -78.5l-95 95 q6 17 11 79v57h-113v-54q0 -71 -44.5 -131.5t-130.5 -86.5l72 -87q104 45 155 121l136 -127q44 14 86.5 50t70.5 87l150 -126z" />
<glyph unicode="&#xaf0d;" horiz-adv-x="880" d="M805 276v512h-107v-154h-132q10 53 11 99h-529v-101h163q-31 -156 -221 -256l74 -76q215 124 259 332h134q-42 -181 -214 -270l78 -74q157 94 218 246h159v-82h-177v-100h177v-76h107zM799 -156v99h-394v54h372v98h-372v48h383v98h-489v-397h500z" />
<glyph unicode="&#xaf10;" horiz-adv-x="940" d="M880 -122v910h-107v-910h107zM707 -60v828h-108v-228h-78q12 68 16 123h-491v-101h154q-46 -248 -222 -363l84 -69q97 72 161 183t85 249h106q-12 -96 -67 -202t-152 -176l87 -66q85 63 145 164v0v-1v-1v-1v-1v-1v-1v-1v-1v-1v-1v-1v-1v-1v-1v-2v-1v-1v-2v-1v-1v-2v-1v-2 v-1v-2v-1v-2v-2v-1v-2v-2v-1v-10h172v-291h108zM599 332h-146q28 59 42 108h104v-108z" />
<glyph unicode="&#xaf2c;" d="M746 686h-307v-100h196v-98q0 -150 -59 -275h115q55 124 55 264v209zM418 686h-317v-100h207v-98q0 -143 -59 -275h117q23 54 37.5 133t14.5 131v209zM879 91h-356v279h-106v-279h-395v-101h857v101z" />
<glyph unicode="&#xaf2d;" d="M728 753h-305v-102h195q-7 -159 -52 -264h112q27 77 38.5 156t11.5 210zM879 255v100h-358v180h-107v-180h-393v-100h858zM410 753h-295v-102h185q-6 -139 -49 -264h108q51 130 51 366zM686 -167v345h-493v-101h385v-244h108z" />
<glyph unicode="&#xaf30;" d="M728 753h-305v-102h195q-8 -181 -52 -284h112q50 141 50 386zM879 232v100h-358v190h-107v-190h-393v-100h858zM410 753h-295v-102h185q-7 -162 -49 -284h108q22 55 36.5 159t14.5 227zM707 -146v102h-397v211h-105v-313h502z" />
<glyph unicode="&#xaf32;" d="M732 763h-305v-102h195q-3 -67 -14 -116.5t-38 -113.5h112q29 83 39.5 144t10.5 188zM879 300v99h-354v166h-107v-166h-397v-99h858zM414 763h-295v-102h185q-5 -100 -49 -230h108q51 130 51 332zM726 173v95q-59 -6 -143 -3q-48 5 -105 25l-36 -76q52 -34 131 -44 q97 -3 153 3zM809 44v91h-419v-91h89q-19 -12 -32.5 -34.5t-13.5 -45.5v-9h-190v244h-108v-346h315v46q41 -70 151 -72q72 -1 119.5 36t48.5 102q0 54 -42 79h82zM661 -30q-1 -23 -18.5 -37t-42.5 -13q-24 1 -40.5 15.5t-17.5 36.5q-1 24 15.5 39.5t44.5 15.5t44 -16t15 -41 z" />
<glyph unicode="&#xaf34;" d="M732 763h-305v-102h195q-3 -67 -14 -116.5t-38 -113.5h112q29 83 39.5 144t10.5 188zM879 300v99h-354v166h-107v-166h-397v-99h858zM414 763h-295v-102h185q-5 -100 -49 -230h108q51 130 51 332zM710 -156v102h-387v52h364v246h-479v-98h367v-50h-362v-252h497z" />
<glyph unicode="&#xaf3c;" d="M728 753h-305v-102h195q-7 -159 -52 -264h112q27 77 38.5 156t11.5 210zM879 255v100h-358v180h-107v-180h-393v-100h858zM410 753h-295v-102h185q-6 -139 -49 -264h108q51 130 51 366zM692 -149v333h-487v-333h487zM584 -49h-271v133h271v-133z" />
<glyph unicode="&#xaf3d;" d="M732 763h-305v-102h195q-6 -138 -52 -245h112q28 80 39 149t11 198zM879 285v99h-354v171h-107v-171h-397v-99h858zM414 763h-295v-102h185q-5 -117 -49 -245h108q51 130 51 347zM697 -154v389h-108v-101h-270v101h-108v-389h486zM589 -54h-270v88h270v-88z" />
<glyph unicode="&#xaf3f;" d="M732 753h-305v-102h195q-8 -166 -52 -270h112q27 77 38.5 158.5t11.5 213.5zM879 248v99h-354v186h-107v-186h-397v-99h858zM414 753h-295v-102h185q-7 -146 -49 -270h108q51 130 51 372zM763 -82l-266 167q14 39 14 75v38h-115v-26q0 -78 -67 -143t-186 -102l72 -85 q142 43 229 151l247 -156z" />
<glyph unicode="&#xaf41;" d="M732 753h-305v-102h195q-7 -148 -52 -254h112q28 79 39 152.5t11 203.5zM879 266v99h-354v170h-107v-170h-397v-99h858zM414 753h-295v-102h185q-6 -128 -49 -254h108q51 130 51 356zM698 28q0 89 -68.5 144t-170.5 55q-100 0 -167 -55.5t-67 -144.5q0 -87 68.5 -142 t165.5 -55q103 0 171 56.5t68 141.5zM588 30q0 -48 -36 -74.5t-93 -26.5q-53 0 -89.5 28t-36.5 73q0 47 36 75t90 28q55 0 92 -28.5t37 -74.5z" />
<glyph unicode="&#xaf42;" d="M732 753h-305v-102h195q-6 -139 -52 -246h112q28 80 39 149.5t11 198.5zM879 274v99h-354v166h-107v-166h-397v-99h858zM414 753h-295v-102h185q-5 -118 -49 -246h108q51 130 51 348zM774 -74l-206 112q92 89 117 177h-476v-99h279q-113 -127 -343 -184l67 -89 q140 34 269 124l225 -126z" />
<glyph unicode="&#xaf43;" d="M732 763h-305v-102h195q-3 -64 -14 -109t-36 -104h112q28 71 38 130t10 185zM879 325v96h-354v154h-107v-154h-397v-96h858zM414 763h-295v-102h185q-5 -118 -49 -213h108q51 100 51 315zM611 188v95q-101 -3 -203 1q-52 6 -106 29l-33 -81q55 -35 129 -44q135 -4 213 0z M780 -74l-192 89q68 62 103 142h-476v-98h262q-110 -93 -326 -133l62 -88q159 32 284 109l217 -106z" />
<glyph unicode="&#xaf48;" horiz-adv-x="940" d="M930 343v100h-160v345h-107v-910h107v465h160zM645 122v104q-119 -23 -255 -31v228h-103v-232h-270v-100h193q108 0 197.5 5.5t125.5 10t112 15.5zM571 680h-258v-100h149q-5 -181 -45 -298h112q42 151 42 398zM300 680h-268v-100h160q-5 -197 -47 -298h114 q41 161 41 398z" />
<glyph unicode="&#xaf49;" horiz-adv-x="940" d="M934 450v103h-153v234h-107v-577h107v240h153zM770 -167v340h-501v-101h394v-239h107zM645 265v102q-104 -20 -256 -29v178h-103v-182h-270v-100h193q108 0 197.5 5.5t126 10t112.5 15.5zM578 723h-258v-100h149q-3 -106 -45 -228h112q23 84 32.5 153.5t9.5 174.5z M307 723h-268v-100h160q-3 -122 -47 -228h112q24 88 33.5 156.5t9.5 171.5z" />
<glyph unicode="&#xaf50;" horiz-adv-x="940" d="M935 473v101h-157v214h-107l-2 -518h109v203h157zM777 -156v103h-390v54h365v242h-482v-98h373v-48h-368v-253h502zM576 733h-258v-100h149q-1 -53 -10.5 -94t-34.5 -114h112q24 88 33 147t9 161zM305 733h-268v-100h160q-2 -57 -11.5 -101t-35.5 -107h112q25 92 34 150 t9 158zM649 315v98q-103 -20 -259 -29v162h-103v-166h-270v-96h193q224 0 439 31z" />
<glyph unicode="&#xaf5c;" horiz-adv-x="940" d="M935 450v103h-153v234h-107v-570h107v233h153zM859 -81l-181 159q7 33 8 67v43h-110v-40q0 -51 -21.5 -99.5t-59.5 -79.5l-100 101q7 18 11 75v43h-111v-40q0 -71 -44.5 -131.5t-129.5 -87.5l71 -86q105 46 157 127l133 -134q104 45 155 137l152 -131zM650 265v102 q-104 -20 -256 -29v178h-103v-182h-270v-100h193q108 0 197.5 5.5t126 10t112.5 15.5zM583 723h-258v-100h149q-3 -106 -45 -228h112q23 84 32.5 153.5t9.5 174.5zM312 723h-268v-100h160q-3 -122 -47 -228h112q24 88 33.5 156.5t9.5 171.5z" />
<glyph unicode="&#xaf5d;" horiz-adv-x="940" d="M934 450v103h-153v234h-107v-567h107v230h153zM774 28q0 89 -68.5 143.5t-170.5 54.5q-101 0 -168.5 -55t-67.5 -144q0 -87 69 -141t167 -54q103 0 171 55.5t68 140.5zM664 29q0 -48 -37 -74.5t-92 -26.5q-54 0 -91 28t-37 73q0 47 37 74.5t91 27.5t91.5 -28t37.5 -74z M652 273v102q-104 -20 -256 -29v178h-103v-182h-270v-100h193q108 0 197.5 5.5t126 10t112.5 15.5zM585 731h-258v-100h149q-3 -106 -45 -228h112q23 84 32.5 153.5t9.5 174.5zM314 731h-268v-100h160q-3 -122 -47 -228h112q24 88 33.5 156.5t9.5 171.5z" />
<glyph unicode="&#xaf64;" horiz-adv-x="940" d="M871 -122v910h-107v-345h-80v325h-107v-828h107v402h80v-464h107zM525 680h-233v-100h125q-5 -195 -43 -298h112q39 145 39 398zM555 122v102q-91 -24 -199 -29v218h-92q17 118 17 267h-244v-100h136q-2 -66 -14 -153t-33 -145h113q9 33 14 61v-152h-224v-100h167 q214 0 359 31z" />
<glyph unicode="&#xaf65;" horiz-adv-x="940" d="M871 203v585h-107v-235h-71v214h-107v-545h107v230h71v-249h107zM536 723h-234v-100h127q-5 -121 -41 -236h109q23 83 31 151.5t8 184.5zM571 258v100q-130 -23 -208 -28v177h-91q15 89 15 216h-231v-100h124q-5 -117 -42 -236h110q5 20 13 58v-116h-232v-100h196 q43 0 81.5 1.5t63.5 2.5t57 5t46.5 6t49 7t48.5 7zM832 -167v340h-504v-101h394v-239h110z" />
<glyph unicode="&#xaf79;" horiz-adv-x="940" d="M871 239v549h-107v-235h-71v214h-107v-509h107v194h71v-213h107zM536 723h-234v-100h127q-5 -121 -41 -236h109q23 83 31 151.5t8 184.5zM571 266v100q-130 -23 -208 -28v167h-91q15 98 15 218h-231v-100h124q-5 -117 -42 -236h110q5 20 13 58v-108h-232v-100h196 q43 0 81.5 1.5t63.5 2.5t57 5t46.5 6t49 7t48.5 7zM832 28q0 89 -68.5 143.5t-170.5 54.5q-101 0 -168.5 -55t-67.5 -144q0 -87 69 -141t167 -54q103 0 171 55.5t68 140.5zM722 29q0 -48 -37 -74.5t-92 -26.5q-54 0 -91 28t-37 73q0 47 37 74.5t91 27.5t91.5 -28t37.5 -74z " />
<glyph unicode="&#xaf80;" horiz-adv-x="890" d="M801 -122v910h-106v-910h106zM598 680h-265v-100h156q-5 -181 -45 -298h112q42 151 42 398zM663 122v104q-113 -23 -270 -31v228h-93q15 122 15 257h-268v-100h160q-5 -197 -47 -298h114q6 24 13 59v-150h-268v-100h225q48 0 89 0.5t78.5 3l60 4t57 5.5t44.5 5t47 6.5 t43 6.5z" />
<glyph unicode="&#xaf84;" horiz-adv-x="890" d="M804 134v653h-106v-653h106zM595 713h-258v-100h149q-3 -116 -45 -238h112q42 151 42 338zM670 245v102q-98 -19 -272 -29v168h-93q17 94 17 227h-268v-100h160q-4 -133 -47 -238h112q3 11 16 63v0v0v-1v0v-1v0v-1v-1v-1v-1v-1v-1v-1v-1v-1v-1v-1v-1v-1v-1v-1v-1v-1v-1 v-1v-1v-1v-2v-1v-1v-1v-1v-1v-1v-2v-1v-1v-1v-2v-1v-1v-1v-2v-1v-1v-2v-1v-2v-1v-1v-2v-1v-2v-1v-2v-1v-2v-1v-2v-1v-2v-1v-2v-1v-2v-1v-2v-2v-1v-2v-2v-1v-2v-2v-1v-2v-2v-1v-2v-2v-2v-1v-2v-2v-2v-1v-2v-2v-10h-270v-100h193q237 0 452 31zM808 -147v102h-401v203h-107 v-305h508z" />
<glyph unicode="&#xaf88;" horiz-adv-x="890" d="M807 272v516h-106v-516h106zM598 733h-258v-100h149q-1 -53 -10.5 -94t-34.5 -114h112q24 88 33 147t9 161zM673 314v98q-98 -19 -272 -29v153h-92q16 79 16 197h-268v-100h160q-2 -57 -11.5 -101t-35.5 -107h112q3 10 8 30.5t8 29.5v-106h-270v-96h193q237 0 452 31z M803 -156v103h-390v54h366v244h-482v-97h372v-52h-367v-252h501z" />
<glyph unicode="&#xaf90;" horiz-adv-x="890" d="M809 220v567h-106v-567h106zM600 723h-258v-100h149q-3 -106 -45 -228h112q23 84 32.5 153.5t9.5 174.5zM675 274v102q-98 -19 -272 -29v158h-93q17 88 17 218h-268v-100h160q-3 -122 -47 -228h112q6 22 16 62v0v0v-1v0v-1v-1v-1v-1v-1v-1v-1v-1v-1v-1v-1v-1v-1v-1v-1v-1 v-2v-1v-1v-1v-1v-1v-1v-1v-1v-1v-2v-1v-1v-1v-2v-1v-1v-1v-2v-1v-1v-2v-1v-2v-1v-1v-2v-1v-2v-1v-2v-1v-2v-1v-2v-1v-2v-1v-2v-2v-1v-2v-1v-2v-2v-1v-2v-2v-1v-2v-2v-2v-1v-2v-2v-2v-1v-2v-2v-2v-9h-270v-100h193q237 0 452 31zM789 -149v334h-489v-334h489zM679 -49h-271 v134h271v-134z" />
<glyph unicode="&#xaf91;" horiz-adv-x="890" d="M809 272v516h-106v-516h106zM600 733h-258v-100h149q-1 -53 -10.5 -94t-34.5 -114h112q24 88 33 147t9 161zM675 304v98q-98 -19 -272 -29v153h-94q18 80 18 207h-268v-100h160q-2 -57 -11.5 -101t-35.5 -107h112q3 10 8 30.5t8 29.5v-116h-270v-96h193q237 0 452 31z M792 -154v387h-108v-105h-274v105h-108v-387h490zM684 -54h-274v81h274v-81z" />
<glyph unicode="&#xaf95;" horiz-adv-x="890" d="M809 224v563h-106v-563h106zM600 723h-258v-100h149q-3 -106 -45 -228h112q23 84 32.5 153.5t9.5 174.5zM675 276v101q-98 -19 -272 -29v158h-93q17 88 17 217h-268v-100h160q-3 -122 -47 -228h112q6 22 16 62v0v0v-1v0v-1v-1v-1v-1v-1v-1v-1v-1v-1v-1v-1v-1v-1v-1v-1v-1 v-1v-1v-1v-1v-1v-1v-1v-1v-1v-1v-2v-1v-1v-1v-1v-2v-1v-1v-2v-1v-1v-2v-1v-1v-2v-1v-2v-1v-2v-1v-1v-2v-1v-2v-1v-2v-2v-1v-2v-1v-2v-2v-1v-2v-1v-2v-2v-1v-2v-2v-2v-1v-2v-2v-2v-1v-2v-2v-2v-1v-10h-270v-99h193q237 0 452 31zM785 27q0 89 -68.5 143t-170.5 54 q-101 0 -168.5 -54.5t-67.5 -143.5q0 -87 69 -140.5t167 -53.5q103 0 171 55t68 140zM675 28q0 -48 -37 -74.5t-92 -26.5q-54 0 -91 28t-37 73q0 47 37 74.5t91 27.5t91.5 -28t37.5 -74z" />
<glyph unicode="&#xaf9c;" d="M883 -10v101h-260v142h65q53 106 53 252v201h-316v-100h205v-90q0 -106 -29 -193h-84v-212h-125v212h-14q28 94 28 182v201h-307v-100h197v-90q0 -138 -60 -263h49v-142h-269v-101h867z" />
<glyph unicode="&#xafb8;" d="M739 734h-299v-100h189q-6 -135 -50 -290h109q51 174 51 390zM423 734h-302v-100h192q-5 -148 -50 -290h108q17 67 26 110.5t17.5 119.5t8.5 160zM878 214v102h-856v-102h370v-354h108v354h378z" />
<glyph unicode="&#xafb9;" d="M879 317v100h-186q35 140 35 336h-283v-102h174q-2 -111 -33 -234h-189q36 146 36 336h-299v-102h188q-3 -109 -34 -234h-267v-100h371v-121h-192v-101h383v-262h108v363h-192v121h380z" />
<glyph unicode="&#xafbc;" d="M879 284v100h-192q41 153 41 359h-283v-102h174q-2 -124 -40 -257v0v0v0h-1v0h-1v0h-1v0h-1h-1h-1h-1h-1h-1h-1h-1h-1h-1h-1h-1h-1h-1h-1h-1h-1h-1h-1h-1h-1h-1h-1h-1h-1h-1h-1h-1h-1h-1h-1h-1h-1h-1h-1h-2h-1h-1h-1h-1h-1h-1h-2h-1h-1h-1h-1h-2h-1h-1h-1h-2h-1h-1h-2h-1 h-1h-2h-1h-1h-2h-1h-1h-2h-1h-2h-1h-1h-2h-1h-2h-1h-2h-1h-2h-1h-2h-1h-2h-1h-2h-1h-2h-1h-2h-1h-2h-1h-2h-2h-1h-2h-1h-2h-2h-1h-2h-2h-1h-2h-2h-1h-2h-2h-1h-2h-2h-1h-2h-2h-2h-1h-2h-2h-2h-1h-2h-2h-2h-1h-2h-2h-2h-2h-2h-1h-2h-2h-9q42 153 42 359h-299v-102h188 q-5 -122 -40 -257h-261v-100h401v-222h107v222h350zM704 -146v102h-398v231h-105v-333h503z" />
<glyph unicode="&#xafc0;" d="M879 348v100h-185q34 133 34 315h-283v-102h174q-1 -99 -33 -213v0v0v0h-1v0h-1v0h-1v0h-1h-1h-1h-1h-1h-1h-1h-1h-1h-1h-1h-1h-1h-1h-1h-1h-1h-1h-1h-1h-1h-1h-1h-1h-1h-1h-1h-1h-1h-1h-1h-1h-1h-1h-1h-2h-1h-1h-1h-1h-1h-1h-2h-1h-1h-1h-1h-2h-1h-1h-1h-2h-1h-1h-2h-1 h-1h-2h-1h-1h-2h-1h-1h-2h-1h-2h-1h-1h-2h-1h-2h-1h-2h-1h-2h-1h-2h-1h-2h-1h-2h-1h-2h-1h-2h-1h-2h-1h-2h-2h-1h-2h-1h-2h-2h-1h-2h-2h-1h-2h-2h-1h-2h-2h-1h-2h-2h-1h-2h-2h-2h-1h-2h-2h-2h-1h-2h-2h-2h-1h-2h-2h-2h-2h-2h-1h-2h-2h-9q35 138 35 315h-299v-102h188 q-3 -95 -33 -213h-268v-100h375v-82h-185v-100h367v-60h-362v-262h497v102h-387v61h364v259h-187v82h376z" />
<glyph unicode="&#xafc7;" d="M616 275q-45 3 -105 25l-8 -17v68h376v100h-185q34 131 34 312h-283v-102h174q-1 -97 -33 -210v0v0v0h-1v0h-1v0h-1v0h-1h-1h-1h-1h-1h-1h-1h-1h-1h-1h-1h-1h-1h-1h-1h-1h-1h-1h-1h-1h-1h-1h-1h-1h-1h-1h-1h-1h-1h-1h-1h-1h-1h-1h-1h-2h-1h-1h-1h-1h-1h-1h-2h-1h-1h-1h-1 h-2h-1h-1h-1h-2h-1h-1h-2h-1h-1h-2h-1h-1h-2h-1h-1h-2h-1h-2h-1h-1h-2h-1h-2h-1h-2h-1h-2h-1h-2h-1h-2h-1h-2h-1h-2h-1h-2h-1h-2h-1h-2h-2h-1h-2h-1h-2h-2h-1h-2h-2h-1h-2h-2h-1h-2h-2h-1h-2h-2h-1h-2h-2h-2h-1h-2h-2h-2h-1h-2h-2h-2h-1h-2h-2h-2h-2h-2h-1h-2h-2h-9 q35 137 35 312h-299v-102h188q-3 -93 -33 -210h-268v-100h375v-81h-259v-100h185v-61h-186v-265h334v71q16 -41 59.5 -64t99.5 -24q72 -1 119.5 36t48.5 102q0 54 -42 79h67v91h-379v-91h64q-19 -12 -32.5 -34.5t-13.5 -45.5q0 -12 1 -17h-216v63h186v164h71v35 q51 -25 103 -29q97 -3 153 3v95q-59 -6 -143 -3zM689 -30q-1 -23 -18.5 -37t-42.5 -13q-24 1 -40.5 15.5t-17.5 36.5q-1 24 15.5 39.5t44.5 15.5t44 -16t15 -41z" />
<glyph unicode="&#xafc8;" d="M879 310v100h-188q37 143 37 343h-283v-102h174q-2 -113 -35 -241h-189q38 150 38 343h-299v-102h188q-3 -111 -36 -241h-265v-100h376v-114h-185v-345h487v345h-195v114h375zM591 -49h-271v144h271v-144z" />
<glyph unicode="&#xafc9;" d="M879 337v100h-186q35 135 35 326h-283v-102h174q-1 -105 -33 -224h-189q36 141 36 326h-299v-102h188q-3 -103 -34 -224h-267v-100h381v-163h107v163h370zM699 -154v409h-108v-120h-270v120h-108v-409h486zM591 -54h-270v89h270v-89z" />
<glyph unicode="&#xafcb;" d="M879 304v100h-189q38 144 38 349h-283v-102h174q-2 -120 -37 -247h-188q39 151 39 349h-299v-102h188q-5 -116 -37 -247h-264v-100h369l-1 -132q0 -78 -67 -143t-186 -102l72 -85q140 42 227 151l247 -156l72 81l-266 167q14 39 14 75l-2 144h379z" />
<glyph unicode="&#xafcd;" d="M879 310v100h-188q37 143 37 343h-283v-102h174q-2 -113 -35 -241h-189q38 150 38 343h-299v-102h188q-3 -111 -36 -241h-265v-100h376v-88q-80 -15 -129.5 -67t-49.5 -128q0 -87 68.5 -142t165.5 -55q103 0 171 56.5t68 141.5q0 77 -52 129t-135 66v87h375zM581 30 q0 -48 -36 -74.5t-93 -26.5q-53 0 -89.5 28t-36.5 73q0 47 36 75t90 28q55 0 92 -28.5t37 -74.5z" />
<glyph unicode="&#xafce;" d="M879 323v100h-188q37 138 37 330h-283v-102h174q-1 -104 -35 -228h-188q37 148 37 330h-299v-102h188q-3 -101 -35 -228h-266v-100h376v-108h-182v-99h279q-50 -56 -139 -105.5t-207 -78.5l67 -89q141 34 271 124l226 -126l68 85l-206 113q92 87 117 176h-187v108h375z " />
<glyph unicode="&#xafd4;" horiz-adv-x="890" d="M610 713h-249v-99h141q-6 -145 -46 -257h112q23 83 32.5 158t9.5 198zM820 -122v910h-106v-621h-218v-101h218v-188h106zM350 713h-261v-99h154q-6 -142 -47 -257h111q24 81 33.5 156t9.5 200zM684 252v104q-166 -35 -416 -35h-229v-100h204h51v-330h107v333 q105 5 283 28z" />
<glyph unicode="&#xafdc;" horiz-adv-x="890" d="M799 243v545h-104v-427h-204v-93h204v-25h104zM654 399v102q-50 -11 -103 -18q24 83 24 250h-238v-96h132q-6 -101 -27 -166q-66 -5 -146 -6q30 106 30 268h-252v-96h146q-4 -97 -29 -172h-171v-97h203h28v-125h106v127q126 4 297 29zM798 -156v103h-390v47h368v235h-484 v-97h375v-42h-370v-246h501z" />
<glyph unicode="&#xafe8;" horiz-adv-x="890" d="M794 195v593h-104v-467h-204v-97h204v-29h104zM649 377v102q-37 -8 -104 -19q25 91 25 273h-238v-96h132q-6 -114 -28 -188q-45 -4 -146 -6q31 111 31 290h-252v-96h146q-4 -108 -30 -194h-170v-97h203h28v-153h106v155q126 4 297 29zM858 -81l-181 159q7 33 8 67v16 h-110v-13q0 -51 -21.5 -99.5t-59.5 -79.5l-100 101q7 18 11 75v16h-111v-13q0 -71 -44.5 -131.5t-129.5 -87.5l71 -86q105 46 157 127l133 -134q104 45 155 137l152 -131z" />
<glyph unicode="&#xafe9;" horiz-adv-x="890" d="M799 213v575h-104v-443h-204v-95h204v-37h104zM654 385v102q-66 -14 -106 -19q27 91 27 265h-238v-96h132q-6 -105 -31 -180q-45 -4 -145 -6q18 63 25.5 122t7.5 160h-252v-96h146q-5 -104 -33 -186h-167v-97h203h28v-145h106v147q126 4 297 29zM779 27q0 89 -68.5 143 t-170.5 54q-101 0 -168.5 -54.5t-67.5 -143.5q0 -87 69 -140.5t167 -53.5q103 0 171 55t68 140zM669 28q0 -48 -37 -74.5t-92 -26.5q-54 0 -91 28t-37 73q0 47 37 74.5t91 27.5t91.5 -28t37.5 -74z" />
<glyph unicode="&#xaff0;" horiz-adv-x="940" d="M860 -122v910h-106v-910h106zM528 713h-219v-99h113q-8 -135 -47 -248h111q24 83 33 153.5t9 193.5zM692 -82v850h-105v-592h-166v-101h166v-157h105zM297 713h-230v-99h125q-5 -128 -47 -248h111q24 84 32.5 154t8.5 193zM566 261v103q-161 -34 -351 -34h-183v-100h157 h51v-339h106v343q36 2 68 5t50.5 6t51 8t50.5 8z" />
<glyph unicode="&#xaff1;" horiz-adv-x="940" d="M838 193v595h-106v-595h106zM670 212v555h-105v-430h-179v-99h179v-26h105zM544 391v101q-24 -5 -68 -13q22 101 22 254h-208v-97h100q-4 -89 -25 -172q-49 -5 -110 -6q26 109 23 275h-221v-97h114q-5 -99 -25 -178v0v0h-1v0h-1v0h-1h-1h-1h-1h-1h-1h-1h-1h-1h-1h-1h-1 h-1h-1h-1h-1h-1h-1h-1h-1h-1h-1h-2h-1h-1h-1h-1h-1h-1h-2h-1h-1h-1h-2h-1h-1h-2h-1h-1h-2h-1h-1h-2h-1h-1h-2h-1h-2h-1h-2h-1h-2h-1h-2h-1h-2h-1h-2h-1h-2h-2h-1h-2h-2h-1h-2h-1h-2h-2h-2h-1h-2h-2h-1h-2h-2h-2h-1h-2h-2h-2h-2h-1h-10v-98h143h58v-164h105v167q38 2 70 5 t49.5 6t48.5 8.5t49 8.5zM794 -167v338h-501v-101h393v-237h108z" />
<glyph unicode="&#xaff4;" horiz-adv-x="940" d="M838 119v669h-106v-669h106zM670 150v617h-107v-459h-177v-101h177v-57h107zM544 361v101q-50 -10 -69 -13q23 109 23 274h-208v-97h100q-5 -103 -26 -193q-62 -4 -109 -5q26 118 23 295h-221v-97h114q-5 -104 -25 -198h-125v-98h143h58v-164h105v167q38 2 70 5t49.5 6 t48.5 8.5t49 8.5zM826 -147v102h-401v193h-107v-295h508z" />
<glyph unicode="&#xaff8;" horiz-adv-x="940" d="M838 248v540h-106v-540h106zM670 257v510h-105v-395h-179v-96h179v-19h105zM544 413v101q-13 -3 -67 -13q21 90 21 232h-208v-97h100q-4 -81 -24 -150q-49 -5 -110 -6q25 106 22 253h-221v-97h114q-4 -85 -23 -156h-127v-98h143h58v-141h105v144q38 2 70 5t49.5 6 t48.5 8.5t49 8.5zM819 -156v103h-389v46h366v237h-483v-99h372v-42h-367v-245h501z" />
<glyph unicode="&#xb000;" horiz-adv-x="940" d="M843 201v587h-106v-587h106zM675 212v555h-105v-427h-179v-99h179v-29h105zM549 391v101q-24 -5 -68 -13q22 101 22 254h-208v-97h100q-4 -89 -25 -172q-49 -5 -110 -6q26 109 23 275h-221v-97h114q-5 -99 -25 -178v0v0h-1v0h-1h-1h-1h-1h-1h-1h-1h-1h-1h-1h-1h-1h-1h-1 h-1h-1h-1h-1h-1h-1h-1h-1h-1h-1h-1h-1h-2h-1h-1h-1h-1h-1h-1h-2h-1h-1h-1h-2h-1h-1h-2h-1h-1h-2h-1h-1h-2h-1h-1h-2h-1h-2h-1h-2h-1h-2h-1h-2h-1h-2h-1h-2h-1h-2h-1h-2h-2h-1h-2h-1h-2h-2h-1h-2h-2h-1h-2h-2h-1h-2h-2h-2h-1h-2h-2h-2h-1h-2h-2h-2h-2h-1h-9v-98h153h58v-164 h105v167q38 2 70 5t49.5 6t48.5 8.5t49 8.5zM818 -149v323h-487v-323h487zM710 -49h-271v123h271v-123z" />
<glyph unicode="&#xb001;" horiz-adv-x="940" d="M838 244v544h-106v-544h106zM670 253v514h-105v-399h-179v-96h179v-19h105zM544 413v101q-13 -3 -67 -13q21 90 21 232h-208v-97h100q-4 -81 -24 -150q-49 -5 -110 -6q25 106 22 253h-221v-97h114q-4 -85 -23 -156h-127v-98h143h58v-141h105v144q38 2 70 5t49.5 6 t48.5 8.5t49 8.5zM790 -154v372h-108v-95h-271v95h-108v-372h487zM682 -54h-271v76h271v-76z" />
<glyph unicode="&#xb004;" horiz-adv-x="940" d="M844 178v610h-106v-610h106zM676 205v562h-105v-434h-179v-99h179v-29h105zM550 384v101q-7 -1 -31.5 -6.5t-37.5 -7.5q23 103 23 262h-208v-97h100q-4 -90 -27 -180q-59 -4 -109 -5q27 111 24 282h-221v-97h114q-4 -97 -26 -185h-134v-98h153h58v-164h105v167q38 2 70 5 t49.5 6t48.5 8.5t49 8.5zM882 -81l-181 159q7 33 8 67v16h-110v-13q0 -51 -21.5 -99.5t-59.5 -79.5l-100 101q7 18 11 75v16h-111v-13q0 -71 -44.5 -131.5t-129.5 -87.5l71 -86q105 46 157 127l133 -134q104 45 155 137l152 -131z" />
<glyph unicode="&#xb00c;" horiz-adv-x="890" d="M810 -122v910h-106v-910h106zM620 713h-249v-99h141q-6 -145 -46 -257h112q23 83 32.5 158t9.5 198zM360 713h-265v-99h158q-6 -142 -47 -257h111q24 81 33.5 156t9.5 200zM684 249v104q-166 -35 -406 -35h-229v-100h204h51v-327h107v330q90 4 273 28z" />
<glyph unicode="&#xb010;" horiz-adv-x="890" d="M791 135v653h-104v-653h104zM666 358v101q-39 -8 -102 -17q24 99 24 291h-237v-96h131q2 -107 -27 -206q-46 -4 -146 -6q29 115 29 308h-252v-96h146q-3 -122 -30 -212h-180v-97h213h29v-146h106v148q128 3 296 28zM798 -147v102h-401v193h-107v-295h508z" />
<glyph unicode="&#xb014;" horiz-adv-x="890" d="M792 252v536h-104v-536h104zM667 398v101q-59 -11 -97 -17q21 87 21 251h-239v-96h133q-6 -102 -24 -166q-68 -5 -148 -6q26 100 26 268h-252v-96h146q-4 -98 -26 -172h-184v-97h232v-116h106v118q137 4 306 28zM796 -156v103h-390v49h366v236h-482v-97h373v-45h-368 v-246h501z" />
<glyph unicode="&#xb01c;" horiz-adv-x="890" d="M794 209v579h-104v-579h104zM669 375v101q-39 -8 -102 -17q24 92 24 274h-237v-96h131q1 -98 -28 -189q-45 -4 -146 -6q30 109 30 291h-252v-96h146q-3 -109 -30 -195h-180v-97h213h29v-140h106v142q128 3 296 28zM782 -149v323h-490v-323h490zM673 -49h-273v123h273 v-123z" />
<glyph unicode="&#xb01d;" horiz-adv-x="890" d="M794 247v541h-104v-541h104zM669 398v101q-58 -11 -101 -17q23 80 23 251h-237v-96h131q1 -87 -26 -166q-68 -5 -147 -6q29 102 29 268h-252v-96h146q-3 -92 -29 -172h-181v-97h213h29v-123h106v125q128 3 296 28zM779 -154v372h-108v-90h-271v90h-108v-372h487zM671 -54 h-271v81h271v-81z" />
<glyph unicode="&#xb028;" d="M739 734h-299v-100h189q-6 -135 -50 -290h109q51 174 51 390zM423 734h-302v-100h192q-5 -148 -50 -290h108q17 67 26 110.5t17.5 119.5t8.5 160zM878 214v102h-856v-102h238v-354h107v354h177v-354h108v354h226z" />
<glyph unicode="&#xb044;" d="M749 477v209h-307v-100h196v-98q0 -150 -59 -275h115q55 124 55 264zM421 477v209h-317v-100h207v-98q0 -143 -59 -275h117q23 54 37.5 133t14.5 131zM878 2v102h-857v-102h857z" />
<glyph unicode="&#xb045;" d="M879 305v100h-189q38 143 38 348h-283v-102h174q-2 -119 -37 -246h-188q39 150 39 348h-299v-102h188q-5 -117 -37 -246h-264v-100h858zM691 -167v363h-491v-101h383v-262h108z" />
<glyph unicode="&#xb048;" d="M879 272v100h-191q40 154 40 374h-283v-102h174q-2 -135 -39 -272v0v0v0h-1v0h-1v0h-1v0h-1h-1h-1h-1h-1h-1h-1h-1h-1h-1h-1h-1h-1h-1h-1h-1h-1h-1h-1h-1h-1h-1h-1h-1h-1h-1h-1h-1h-1h-1h-1h-1h-1h-1h-1h-2h-1h-1h-1h-1h-1h-1h-2h-1h-1h-1h-1h-2h-1h-1h-1h-2h-1h-1h-2h-1 h-1h-2h-1h-1h-2h-1h-1h-2h-1h-2h-1h-1h-2h-1h-2h-1h-2h-1h-2h-1h-2h-1h-2h-1h-2h-1h-2h-1h-2h-1h-2h-1h-2h-2h-1h-2h-1h-2h-2h-1h-2h-2h-1h-2h-2h-1h-2h-2h-1h-2h-2h-1h-2h-2h-2h-1h-2h-2h-2h-1h-2h-2h-2h-1h-2h-2h-2h-2h-2h-1h-2h-2h-9q41 161 41 374h-299v-102h188 q-5 -139 -39 -272h-262v-100h858zM710 -146v102h-398v231h-105v-333h503z" />
<glyph unicode="&#xb04a;" d="M879 329v100h-190q39 141 39 333h-283v-102h174q-1 -110 -38 -231h-188q40 148 40 333h-299v-102h188q-4 -107 -38 -231h-263v-100h858zM729 173v95q-59 -6 -143 -3q-45 4 -105 25l-36 -76q56 -38 131 -44q97 -3 153 3zM812 44v91h-419v-91h89q-19 -12 -32.5 -34.5 t-13.5 -45.5v-9h-190v244h-108v-346h315v46q41 -70 151 -72q72 -1 119.5 36t48.5 102q0 54 -42 79h82zM664 -30q-1 -23 -18.5 -37t-42.5 -13q-24 1 -40.5 15.5t-17.5 36.5q-1 24 15.5 39.5t44.5 15.5t44 -16t15 -41z" />
<glyph unicode="&#xb04c;" d="M879 337v100h-186q35 134 35 325h-283v-102h174q-1 -106 -34 -223v0v0v0h-1v0h-1v0h-1v0h-1h-1h-1h-1h-1h-1h-1h-1h-1h-1h-1h-1h-1h-1h-1h-1h-1h-1h-1h-1h-1h-1h-1h-1h-1h-1h-1h-1h-1h-1h-1h-1h-1h-1h-1h-2h-1h-1h-1h-1h-1h-1h-2h-1h-1h-1h-1h-2h-1h-1h-1h-2h-1h-1h-2h-1 h-1h-2h-1h-1h-2h-1h-1h-2h-1h-2h-1h-1h-2h-1h-2h-1h-2h-1h-2h-1h-2h-1h-2h-1h-2h-1h-2h-1h-2h-1h-2h-1h-2h-2h-1h-2h-1h-2h-2h-1h-2h-2h-1h-2h-2h-1h-2h-2h-1h-2h-2h-1h-2h-2h-2h-1h-2h-2h-2h-1h-2h-2h-2h-1h-2h-2h-2h-2h-2h-1h-2h-2h-9q36 141 36 325h-299v-102h188 q-3 -102 -34 -223h-267v-100h858zM711 -156v102h-387v63h364v259h-479v-100h367v-60h-362v-264h497z" />
<glyph unicode="&#xb04e;" d="M879 340v100h-185q34 136 34 322h-283v-102h174q-1 -103 -33 -220h-188q35 142 35 322h-299v-102h188q-3 -99 -33 -220h-268v-100h858zM754 -156v419h-284v-419h284zM459 -156v103h-203v58h187v259h-299v-100h191v-60h-189v-260h313zM645 -57h-67v219h67v-219z" />
<glyph unicode="&#xb053;" d="M879 342v100h-185q34 134 34 320h-283v-102h174q-1 -102 -33 -218h-188q35 135 35 320h-299v-102h188q-3 -97 -33 -218h-268v-100h858zM749 183v95q-59 -6 -143 -3q-51 6 -105 25l-36 -76q52 -35 131 -44q97 -3 153 3zM812 44v91h-379v-91h64q-19 -12 -32.5 -34.5 t-13.5 -45.5q0 -12 1 -17h-216v63h186v260h-295v-100h185v-61h-186v-265h334v71q16 -41 59.5 -64t99.5 -24q72 -1 119.5 36t48.5 102q0 54 -42 79h67zM679 -30q-1 -23 -18.5 -37t-42.5 -13q-24 1 -40.5 15.5t-17.5 36.5q-1 24 15.5 39.5t44.5 15.5t44 -16t15 -41z" />
<glyph unicode="&#xb054;" d="M879 305v100h-189q38 143 38 348h-283v-102h174q-2 -119 -37 -246h-188q39 150 39 348h-299v-102h188q-5 -117 -37 -246h-264v-100h858zM699 -149v345h-487v-345h487zM591 -49h-271v144h271v-144z" />
<glyph unicode="&#xb055;" d="M879 327v100h-187q36 136 36 335h-283v-102h174q-2 -112 -34 -233h-188q36 146 36 335h-299v-102h188q-3 -102 -34 -233h-267v-100h858zM699 -154v415h-108v-115h-270v115h-108v-415h486zM591 -54h-270v100h270v-100z" />
<glyph unicode="&#xb057;" d="M879 289v100h-188q37 151 37 364h-283v-102h174q-2 -128 -36 -262h-188q38 159 38 364h-299v-102h188q-3 -125 -36 -262h-265v-100h858zM766 -82l-268 186q15 42 15 82v38h-115v-26q0 -82 -66.5 -158t-185.5 -113l72 -85q144 45 230 167l246 -172z" />
<glyph unicode="&#xb059;" d="M879 298v100h-189q38 146 38 355h-283v-102h174q-2 -122 -36 -253h-188q38 155 38 355h-299v-102h188q-3 -119 -36 -253h-265v-100h858zM693 31q0 89 -68.5 145.5t-170.5 56.5q-100 0 -167 -57t-67 -146q0 -87 68.5 -143.5t165.5 -56.5q102 0 170.5 57.5t68.5 143.5z M583 33q0 -48 -36.5 -76t-92.5 -28q-52 0 -89 29.5t-37 74.5q0 47 36 76.5t90 29.5t91.5 -30t37.5 -76z" />
<glyph unicode="&#xb05d;" d="M879 330v100h-189q38 136 38 332h-283v-102h174q-1 -107 -36 -230h-189q39 143 39 332h-299v-102h188q-4 -105 -37 -230h-264v-100h858zM713 -156v99h-392v64h371v100h-371v55h382v101h-488v-419h498z" />
<glyph unicode="&#xb07c;" horiz-adv-x="880" d="M810 -122v910h-106v-910h106zM611 663h-550v-101h180q-42 -241 -232 -363l78 -69q102 64 170.5 177.5t90.5 254.5h142q-15 -101 -69 -205t-150 -174l87 -63q110 80 178 229t75 314z" />
<glyph unicode="&#xb07d;" horiz-adv-x="880" d="M788 221v567h-107v-567h107zM581 723h-531v-101h163q-36 -180 -221 -278l74 -76q215 125 259 354h136q-48 -206 -214 -292l78 -74q244 147 256 467zM770 -167v351h-503v-101h391v-250h112z" />
<glyph unicode="&#xb080;" horiz-adv-x="880" d="M787 140v648h-107v-648h107zM580 713h-531v-101h163q-9 -46 -28.5 -90.5t-69.5 -102t-123 -95.5l74 -76q215 124 260 364h135q-51 -217 -214 -302l78 -74q243 147 256 477zM788 -147v102h-391v223h-107v-325h498z" />
<glyph unicode="&#xb084;" horiz-adv-x="880" d="M798 293v495h-107v-495h107zM591 733h-531v-101h163q-32 -158 -221 -258l74 -76q215 124 259 334h136q-43 -183 -214 -272l78 -74q72 44 123 97.5t78.5 113t40 115.5t14.5 121zM793 -156v103h-380v60h360v251h-476v-100h366v-52h-361v-262h491z" />
<glyph unicode="&#xb08c;" horiz-adv-x="880" d="M788 235v553h-107v-553h107zM581 723h-531v-101h163q-36 -180 -221 -278l74 -76q215 125 259 354h136q-48 -206 -214 -292l78 -74q244 147 256 467zM769 -149v345h-477v-345h477zM660 -49h-260v144h260v-144z" />
<glyph unicode="&#xb08d;" horiz-adv-x="880" d="M798 269v519h-107v-519h107zM591 733h-531v-101h163q-32 -158 -221 -258l74 -76q215 124 259 334h136q-43 -183 -214 -272l78 -74q72 44 123 97.5t78.5 113t40 115.5t14.5 121zM778 -154v392h-108v-101h-260v101h-108v-392h476zM670 -54h-260v91h260v-91z" />
<glyph unicode="&#xb08f;" horiz-adv-x="880" d="M783 170v617h-107v-617h107zM576 713h-531v-101h163q-37 -184 -221 -281l74 -76q214 124 259 357h136q-49 -209 -214 -295l78 -74q244 147 256 470zM812 -84l-255 194q13 38 13 77v54h-113v-36q0 -87 -63.5 -164.5t-178.5 -114.5l68 -84q142 46 226 171l231 -174z" />
<glyph unicode="&#xb091;" horiz-adv-x="880" d="M788 245v543h-107v-543h107zM581 723h-531v-101h163q-36 -180 -221 -278l74 -76q215 125 259 354h136q-48 -206 -214 -292l78 -74q244 147 256 467zM774 37q0 88 -68 145t-166 57q-97 0 -165 -58t-68 -145q0 -86 67 -145.5t167 -59.5q99 0 166 59t67 147zM664 35 q0 -47 -34.5 -76.5t-88.5 -29.5t-89.5 32t-35.5 76q0 43 36 74t88 31q54 0 89 -30t35 -77z" />
<glyph unicode="&#xb098;" d="M896 398v101h-163v289h-108v-910h108v520h163zM529 168v101h-354v413h-107v-514h461z" />
<glyph unicode="&#xb099;" d="M891 495v101h-157v192h-108v-557h108v264h157zM510 318v102h-346v318h-105v-420h451zM721 -167v361h-490v-101h385v-260h105z" />
<glyph unicode="&#xb09a;" d="M892 495v101h-157v192h-108v-557h108v264h157zM511 318v102h-346v318h-105v-420h451zM729 -167v361h-284v-101h177v-260h107zM429 -167v361h-306v-101h200v-260h106z" />
<glyph unicode="&#xb09c;" d="M890 475v102h-156v211h-107v-658h107v345h156zM511 298v102h-346v328h-105v-430h451zM746 -147v102h-391v233h-108v-335h499z" />
<glyph unicode="&#xb09f;" d="M891 484v100h-157v204h-108v-567h108v263h157zM510 318v102h-346v318h-105v-420h451zM736 -156v101h-391v143h380v100h-489v-344h500z" />
<glyph unicode="&#xb0a0;" d="M891 501v102h-157v185h-108v-499h108v212h157zM510 350v102h-346v296h-105v-398h451zM744 -157v103h-379v58h355v251h-472v-100h362v-52h-357v-260h491z" />
<glyph unicode="&#xb0a1;" d="M892 501v102h-158v185h-107v-504h107v217h158zM512 348v102h-347v298h-105v-400h452zM726 -156v411h-270v-101h160v-310h110zM490 -156v103h-256v54h206v254h-321v-100h211v-58h-206v-253h366z" />
<glyph unicode="&#xb0a2;" d="M892 501v102h-158v185h-107v-504h107v217h158zM512 348v102h-347v298h-105v-400h452zM738 -156v410h-288v-410h288zM440 -156v103h-202v55h185v253h-297v-100h187v-57h-185v-254h312zM628 -57h-72v210h72v-210z" />
<glyph unicode="&#xb0a8;" d="M891 495v101h-157v192h-108v-561h108v268h157zM510 318v102h-346v318h-105v-420h451zM722 -149v340h-490v-340h490zM612 -49h-271v140h271v-140z" />
<glyph unicode="&#xb0a9;" d="M891 504v102h-157v181h-108v-508h108v225h157zM510 348v102h-346v298h-105v-400h451zM717 -154v388h-108v-104h-261v104h-109v-388h478zM609 -54h-261v83h261v-83z" />
<glyph unicode="&#xb0ab;" d="M891 484v100h-157v203h-108v-617h108v314h157zM510 308v102h-346v318h-105v-420h451zM774 -84l-257 194q13 38 13 77v54h-113v-36q0 -86 -64.5 -164t-179.5 -115l68 -84q144 47 228 171l233 -174z" />
<glyph unicode="&#xb0ac;" d="M891 494v101h-157v192h-108v-551h108v258h157zM510 318v102h-346v318h-105v-420h451zM830 -77l-180 155q7 33 8 67v57h-111v-54q0 -51 -22.5 -98.5t-63.5 -78.5l-95 95q6 17 11 79v57h-113v-54q0 -71 -44.5 -131.5t-130.5 -86.5l72 -87q104 45 155 121l136 -127 q44 14 86.5 50t70.5 87l150 -126z" />
<glyph unicode="&#xb0ad;" d="M890 497v101h-156v190h-107v-547h107v256h156zM511 318v102h-346v318h-105v-420h451zM712 37q0 87 -67.5 144.5t-161.5 57.5q-93 0 -160.5 -58.5t-67.5 -144.5t65.5 -145.5t163.5 -59.5q95 0 161.5 60.5t66.5 145.5zM602 35q0 -46 -33.5 -75t-84.5 -29q-53 0 -86.5 30.5 t-33.5 75.5q0 43 35 73t84 30q51 0 85 -29.5t34 -75.5z" />
<glyph unicode="&#xb0ae;" d="M891 499v102h-157v187h-108v-532h108v243h157zM510 318v102h-346v318h-105v-420h451zM799 -81l-210 120q93 89 118 182h-476v-100h290q-61 -65 -156 -117t-206 -77l68 -86q139 31 273 125l235 -131z" />
<glyph unicode="&#xb0af;" d="M891 514v102h-157v172h-108v-473q-1 0 -29 -0.5t-56.5 -1t-63 0t-53.5 2.5q-47 3 -106 28l-34 -84q52 -37 129 -45q99 -3 214 0v74h107v225h157zM510 369v102h-346v277h-105v-379h451zM790 -80l-206 93q82 70 119 161h-485v-98h278q-127 -107 -348 -149l66 -89 q148 30 273 105l233 -105z" />
<glyph unicode="&#xb0b1;" d="M891 501v102h-157v185h-108v-515h108v228h157zM510 349v102h-346v297h-105v-399h451zM724 -156v99h-379v53h360v102h-360v47h371v100h-478v-401h486z" />
<glyph unicode="&#xb0b3;" d="M891 514v102h-157v172h-108v-507h108v233h157zM510 371v102h-346v275h-105v-377h451zM635 218v97q-123 -3 -212 0q-52 5 -106 28l-34 -80q50 -36 129 -45q101 -3 223 0zM771 75v97h-586v-97h118q-38 -27 -38 -79q0 -77 63.5 -122t151.5 -45t149 44.5t61 123.5 q0 22 -11.5 45t-27.5 33h120zM573 -3q0 -33 -29 -52.5t-66 -19.5q-36 0 -66.5 20t-30.5 52q0 33 30 51.5t66 18.5q37 0 66.5 -18.5t29.5 -51.5z" />
<glyph unicode="&#xb0b4;" d="M841 -122v910h-106v-283h-115v263h-106v-828h106v463h115v-525h106zM481 168v101h-293v413h-106v-514h399z" />
<glyph unicode="&#xb0b5;" d="M841 221v567h-106v-195h-111v174h-107v-526h107v252h111v-272h106zM477 318v102h-286v318h-106v-420h392zM799 -167v361h-490v-101h383v-260h107z" />
<glyph unicode="&#xb0b8;" d="M841 130v658h-106v-213h-111v192h-107v-598h107v306h111v-345h106zM477 288v101h-286v339h-106v-440h392zM833 -147v102h-391v223h-107v-325h498z" />
<glyph unicode="&#xb0bc;" d="M841 285v503h-106v-184h-111v163h-107v-472h107v208h111v-218h106zM477 344v101h-286v303h-106v-404h392zM818 -156v103h-379v60h355v251h-471v-100h361v-52h-356v-262h490z" />
<glyph unicode="&#xb0c4;" d="M841 231v557h-106v-195h-111v174h-107v-526h107v252h111v-262h106zM477 316v102h-286v320h-106v-422h392zM808 -149v345h-477v-345h477zM699 -49h-260v144h260v-144z" />
<glyph unicode="&#xb0c5;" d="M841 261v527h-106v-193h-111v172h-107v-486h107v214h111v-234h106zM477 328v102h-286v318h-106v-420h392zM802 -154v388h-109v-102h-263v102h-109v-388h481zM693 -54h-263v85h263v-85z" />
<glyph unicode="&#xb0c7;" d="M841 201v587h-106v-206h-111v185h-107v-515h107v231h111v-282h106zM477 288v101h-286v339h-106v-440h392zM840 -84l-257 194q13 38 13 77v34h-113v-16q0 -87 -65 -164t-186 -114l75 -85q143 47 228 172l233 -175z" />
<glyph unicode="&#xb0c8;" d="M841 230v558h-106v-206h-111v185h-107v-517h107v233h111v-253h106zM477 308v102h-286v328h-106v-430h392zM885 -82l-181 160q7 33 8 67v57h-110v-54q0 -51 -21.5 -99.5t-59.5 -79.5l-102 101q7 18 11 75v57h-111v-54q0 -71 -44.5 -131.5t-130.5 -86.5l72 -87 q104 45 158 127l133 -133q104 42 157 137l150 -131z" />
<glyph unicode="&#xb0c9;" d="M841 221v567h-106v-195h-111v174h-107v-496h107v222h111v-272h106zM477 318v102h-286v318h-106v-420h392zM792 37q0 87 -67.5 144.5t-161.5 57.5q-93 0 -160.5 -58.5t-67.5 -144.5t65.5 -145.5t163.5 -59.5q95 0 161.5 60.5t66.5 145.5zM682 35q0 -46 -33.5 -75 t-84.5 -29q-53 0 -86.5 30.5t-33.5 75.5q0 43 35 73t84 30q51 0 85 -29.5t34 -75.5z" />
<glyph unicode="&#xb0d0;" d="M887 251v101h-154v134h154v100h-154v202h-106v-910h106v373h154zM545 168v101h-354v413h-107v-514h461z" />
<glyph unicode="&#xb0d1;" d="M883 358v101h-152v95h152v101h-152v133h-105v-565h105v135h152zM513 318v102h-346v318h-105v-420h451zM724 -167v361h-490v-101h385v-260h105z" />
<glyph unicode="&#xb0d4;" d="M883 338v100h-152v96h152v100h-152v154h-105v-662h105v212h152zM513 298v102h-346v328h-105v-430h451zM748 -147v102h-391v223h-108v-325h499z" />
<glyph unicode="&#xb0d8;" d="M884 403v101h-152v74h152v100h-152v110h-105v-504h105v119h152zM515 348v102h-346v298h-105v-400h451zM746 -156v103h-381v60h355v251h-472v-100h363v-52h-358v-262h493z" />
<glyph unicode="&#xb0e0;" d="M883 358v101h-152v95h152v101h-152v133h-105v-560h105v130h152zM513 318v102h-346v318h-105v-420h451zM723 -149v345h-478v-345h478zM615 -49h-261v144h261v-144z" />
<glyph unicode="&#xb0e5;" d="M883 358v101h-152v95h152v101h-152v133h-105v-544h105v114h152zM513 318v102h-346v318h-105v-420h451zM725 37q0 87 -67.5 144.5t-161.5 57.5q-93 0 -160.5 -58.5t-67.5 -144.5t65.5 -145.5t163.5 -59.5q95 0 161.5 60.5t66.5 145.5zM615 35q0 -46 -33.5 -75t-84.5 -29 q-53 0 -86.5 30.5t-33.5 75.5q0 43 35 73t84 30q51 0 85 -29.5t34 -75.5z" />
<glyph unicode="&#xb108;" horiz-adv-x="850" d="M769 -122v910h-107v-264h-240v-102h240v-544h107zM538 168v101h-354v413h-106v-514h460z" />
<glyph unicode="&#xb109;" horiz-adv-x="850" d="M768 231v557h-106v-175h-221v-101h221v-281h106zM515 318v102h-347v318h-105v-420h452zM746 -167v361h-490v-101h383v-260h107z" />
<glyph unicode="&#xb10b;" horiz-adv-x="850" d="M769 260v528h-106v-175h-221v-101h221v-252h106zM520 318v102h-347v318h-105v-420h452zM836 -99l-152 158q11 41 11 83v70h-110v-60q0 -72 -32.5 -132.5t-100.5 -91.5v287h-334v-102h228v-280h106v59l48 -58q35 12 72.5 44t66.5 78l122 -126z" />
<glyph unicode="&#xb10c;" horiz-adv-x="850" d="M768 140v648h-106v-196h-221v-100h221v-352h106zM515 300v102h-347v326h-105v-428h452zM769 -147v102h-390v230h-107v-332h497z" />
<glyph unicode="&#xb110;" horiz-adv-x="850" d="M768 293v495h-106v-155h-221v-101h221v-239h106zM516 348v102h-347v298h-105v-400h452zM761 -156v103h-379v60h355v251h-472v-100h362v-52h-357v-262h491z" />
<glyph unicode="&#xb112;" horiz-adv-x="850" d="M768 284v504h-106v-155h-221v-101h221v-248h106zM516 348v102h-347v298h-105v-400h452zM761 -156v407h-288v-407h288zM465 -156v103h-202v54h185v251h-297v-100h187v-52h-185v-256h312zM651 -57h-72v207h72v-207z" />
<glyph unicode="&#xb113;" horiz-adv-x="850" d="M768 284v504h-106v-155h-221v-101h221v-248h106zM516 348v102h-347v298h-105v-400h452zM763 -155v406h-105v-123h-97v123h-105v-406h307zM448 -156v103h-202v54h185v252h-297v-100h186v-53h-184v-256h312zM658 -55h-97v82h97v-82z" />
<glyph unicode="&#xb118;" horiz-adv-x="850" d="M768 231v557h-106v-175h-221v-101h221v-281h106zM515 318v102h-347v318h-105v-420h452zM746 -149v345h-478v-345h478zM637 -49h-260v144h260v-144z" />
<glyph unicode="&#xb119;" horiz-adv-x="850" d="M769 269v519h-106v-165h-221v-101h221v-253h106zM516 339v101h-347v308h-105v-409h452zM742 -154v388h-108v-104h-266v104h-109v-388h483zM634 -54h-266v83h266v-83z" />
<glyph unicode="&#xb11b;" horiz-adv-x="850" d="M768 170v618h-106v-176h-221v-100h221v-342h106zM515 308v102h-347v321h-105v-423h452zM787 -84l-257 194q13 38 13 77v54h-113v-36q0 -86 -64.5 -164t-179.5 -115l68 -84q144 47 228 171l233 -174z" />
<glyph unicode="&#xb11c;" horiz-adv-x="850" d="M769 232v556h-106v-180h-221v-101h221v-275h106zM516 313v102h-347v323h-105v-425h452zM829 -77l-180 155q7 33 8 67v57h-111v-54q0 -51 -22.5 -98.5t-63.5 -78.5l-95 95q6 17 11 79v57h-113v-54q0 -71 -44.5 -131.5t-130.5 -86.5l72 -87q104 45 155 121l136 -127 q44 14 86.5 50t70.5 87l150 -126z" />
<glyph unicode="&#xb11d;" horiz-adv-x="850" d="M769 243v545h-106v-175h-221v-101h221v-269h106zM516 318v102h-347v318h-105v-420h452zM737 37q0 87 -69 144.5t-163 57.5q-93 0 -162 -58.5t-69 -144.5t67 -145.5t165 -59.5q95 0 163 60.5t68 145.5zM627 35q0 -46 -34.5 -75t-86.5 -29q-54 0 -88.5 31t-34.5 75 q0 43 36 73t86 30q52 0 87 -29.5t35 -75.5z" />
<glyph unicode="&#xb123;" horiz-adv-x="850" d="M768 293v495h-106v-155h-221v-100h221v-240h106zM515 369v101h-347v278h-105v-379h452zM665 218v97q-125 -3 -215 0q-47 3 -106 28l-34 -80q50 -36 129 -45q102 -3 226 0zM798 75v97h-586v-97h124q-20 -12 -32 -34t-12 -45q0 -80 62.5 -123.5t152.5 -43.5q88 0 149 44.5 t61 123.5q0 52 -41 78h122zM600 -3q0 -33 -29 -52.5t-66 -19.5q-36 0 -66.5 20t-30.5 52q0 33 30 51.5t66 18.5q37 0 66.5 -18.5t29.5 -51.5z" />
<glyph unicode="&#xb124;" d="M840 -122v910h-106v-910h106zM641 -60v828h-106v-264h-207v-102h207v-462h106zM473 168v101h-293v413h-106v-514h399z" />
<glyph unicode="&#xb125;" d="M841 221v567h-106v-567h106zM649 231v536h-106v-163h-195v-101h195v-272h106zM477 318v102h-286v318h-106v-420h392zM799 -167v351h-490v-101h383v-250h107z" />
<glyph unicode="&#xb128;" d="M841 130v658h-106v-658h106zM649 169v598h-106v-177h-195v-100h195v-321h106zM477 288v101h-286v339h-106v-440h392zM833 -147v102h-391v223h-107v-325h498z" />
<glyph unicode="&#xb12c;" d="M841 280v508h-106v-508h106zM649 298v469h-106v-146h-195v-101h195v-222h106zM477 344v101h-286v303h-106v-404h392zM818 -156v103h-379v56h355v251h-471v-100h361v-52h-356v-258h490z" />
<glyph unicode="&#xb134;" d="M841 231v557h-106v-557h106zM649 251v516h-106v-163h-195v-101h195v-252h106zM477 316v102h-286v320h-106v-422h392zM808 -149v345h-477v-345h477zM699 -49h-260v144h260v-144z" />
<glyph unicode="&#xb135;" d="M841 258v530h-106v-530h106zM649 275v492h-106v-151h-195v-101h195v-240h106zM477 328v102h-286v318h-106v-420h392zM801 -154v388h-109v-92h-263v92h-109v-388h481zM692 -54h-263v95h263v-95z" />
<glyph unicode="&#xb137;" d="M841 191v597h-106v-597h106zM649 251v516h-106v-174h-195v-100h195v-242h106zM477 288v101h-286v339h-106v-440h392zM840 -84l-257 194q13 38 13 77v34h-113v-16q0 -87 -65 -164t-186 -114l75 -85q143 47 228 172l233 -175z" />
<glyph unicode="&#xb138;" d="M841 225v563h-106v-563h106zM649 245v522h-106v-164h-195v-100h195v-258h106zM477 308v102h-286v328h-106v-430h392zM885 -82l-181 160q7 33 8 67v57h-110v-54q0 -51 -21.5 -99.5t-59.5 -79.5l-102 101q7 18 11 75v57h-111v-54q0 -71 -44.5 -131.5t-130.5 -86.5l72 -87 q104 45 158 127l133 -133q104 42 157 137l150 -131z" />
<glyph unicode="&#xb139;" d="M841 231v557h-106v-557h106zM649 277v490h-106v-163h-195v-101h195v-226h106zM477 318v102h-286v318h-106v-420h392zM799 37q0 87 -67.5 144.5t-161.5 57.5q-93 0 -160.5 -58.5t-67.5 -144.5t65.5 -145.5t163.5 -59.5q95 0 161.5 60.5t66.5 145.5zM689 35 q0 -46 -33.5 -75t-84.5 -29q-53 0 -86.5 30.5t-33.5 75.5q0 43 35 73t84 30q51 0 85 -29.5t34 -75.5z" />
<glyph unicode="&#xb140;" horiz-adv-x="850" d="M768 -122v910h-107v-192h-241v-99h241v-74h-241v-101h241v-444h107zM523 168v101h-354v413h-106v-514h460z" />
<glyph unicode="&#xb141;" horiz-adv-x="850" d="M769 221v567h-105v-100h-224v-100h224v-54h-224v-101h224v-212h105zM506 298v102h-335v338h-106v-440h441zM746 -167v361h-490v-101h383v-260h107z" />
<glyph unicode="&#xb144;" horiz-adv-x="850" d="M768 111v677h-106v-114h-227v-99h227v-74h-226v-99h226v-291h106zM515 267v101h-347v360h-105v-461h452zM780 -147v102h-391v229h-107v-331h498z" />
<glyph unicode="&#xb148;" horiz-adv-x="850" d="M768 285v503h-105v-88h-224v-99h224v-45h-224v-100h224v-171h105zM505 328v102h-335v318h-106v-420h441zM766 -156v103h-383v54h365v251h-481v-100h371v-52h-366v-256h494z" />
<glyph unicode="&#xb150;" horiz-adv-x="850" d="M769 233v555h-105v-97h-224v-100h224v-54h-224v-101h224v-203h105zM506 298v102h-335v338h-106v-440h441zM750 -149v345h-478v-345h478zM641 -49h-260v144h260v-144z" />
<glyph unicode="&#xb151;" horiz-adv-x="850" d="M768 268v520h-105v-93h-224v-100h224v-48h-224v-100h224v-179h105zM505 313v102h-335v333h-106v-435h441zM752 -154v388h-108v-104h-261v104h-109v-388h478zM644 -54h-261v83h261v-83z" />
<glyph unicode="&#xb154;" horiz-adv-x="850" d="M768 230v558h-105v-109h-224v-100h224v-54h-224v-101h224v-194h105zM505 291v101h-335v346h-106v-447h441zM825 -77l-180 155q7 33 8 67v57h-111v-54q0 -51 -22.5 -98.5t-63.5 -78.5l-95 95q6 17 11 79v57h-113v-54q0 -71 -44.5 -131.5t-130.5 -86.5l72 -87 q104 45 155 121l136 -127q44 14 86.5 50t70.5 87l150 -126z" />
<glyph unicode="&#xb155;" horiz-adv-x="850" d="M769 236v552h-105v-106h-224v-100h224v-54h-224v-101h224v-191h105zM506 292v101h-335v345h-106v-446h441zM746 37q0 87 -67.5 144.5t-161.5 57.5q-93 0 -160.5 -58.5t-67.5 -144.5t65.5 -145.5t163.5 -59.5q95 0 161.5 60.5t66.5 145.5zM636 35q0 -46 -33.5 -75 t-84.5 -29q-53 0 -86.5 30.5t-33.5 75.5q0 43 35 73t84 30q51 0 85 -29.5t34 -75.5z" />
<glyph unicode="&#xb158;" horiz-adv-x="850" d="M769 235v553h-105v-94h-224v-100h224v-54h-224v-101h224v-204h105zM506 298v102h-335v338h-106v-440h441zM746 -167v374h-490v-102h383v-65h-376v-102h376v-105h107z" />
<glyph unicode="&#xb15c;" d="M842 -122v910h-106v-910h106zM650 -60v828h-108v-156h-207v-101h207v-77h-209v-102h209v-392h108zM472 168v101h-293v413h-106v-514h399z" />
<glyph unicode="&#xb160;" d="M841 130v658h-106v-658h106zM660 169v598h-106v-108h-201v-101h201v-59h-201v-99h201v-231h106zM481 256v102h-295v370h-106v-472h401zM838 -147v102h-391v223h-107v-325h498z" />
<glyph unicode="&#xb178;" d="M702 285v101h-406v320h-106v-421h512zM883 -10v101h-387v178h-108v-178h-371v-101h866z" />
<glyph unicode="&#xb179;" d="M878 252v101h-377v94h193v98h-387v227h-107v-325h194v-94h-372v-101h856zM690 -169v352h-490v-101h383v-251h107z" />
<glyph unicode="&#xb17c;" d="M878 232v100h-378v101h191v98h-387v241h-107v-339h194v-101h-369v-100h856zM710 -146v102h-397v211h-106v-313h503z" />
<glyph unicode="&#xb180;" d="M875 295v100h-380v75h191v98h-386v214h-107v-312h193v-75h-362v-100h851zM708 -156v102h-386v52h362v249h-478v-99h367v-51h-362v-253h497z" />
<glyph unicode="&#xb182;" d="M875 295v100h-380v75h192v98h-387v214h-107v-312h193v-75h-362v-100h851zM749 -156v403h-292v-300h-206v51h183v249h-295v-99h185v-51h-183v-253h608zM640 -57h-75v203h75v-203z" />
<glyph unicode="&#xb188;" d="M878 249v101h-376v97h192v98h-387v227h-107v-325h194v-97h-372v-101h856zM698 -149v333h-488v-333h488zM590 -49h-271v133h271v-133z" />
<glyph unicode="&#xb189;" d="M878 280v99h-381v86h192v99h-387v218h-107v-317h193v-86h-367v-99h857zM693 -154v392h-108v-108h-270v108h-109v-392h487zM585 -54h-270v84h270v-84z" />
<glyph unicode="&#xb18b;" d="M878 253v101h-381v91h190v98h-387v229h-107v-327h196v-91h-368v-101h857zM756 -82l-267 176q14 39 14 76l-3 48h-112v-36q0 -80 -65.5 -149t-186.5 -106l72 -85q147 46 229 158l247 -163z" />
<glyph unicode="&#xb18d;" d="M878 264v101h-376v82h192v98h-387v227h-107v-325h194v-82h-372v-101h856zM689 28q0 89 -67.5 144t-169.5 55q-100 0 -166 -55.5t-66 -144.5q0 -87 67.5 -142t164.5 -55q103 0 170 56t67 142zM579 30q0 -48 -35 -74.5t-92 -26.5q-52 0 -88 28t-36 73q0 47 35 75t89 28 t90.5 -28.5t36.5 -74.5z" />
<glyph unicode="&#xb192;" d="M878 252v101h-376v98h192v99h-387v222h-107v-321h194v-98h-372v-101h856zM727 -149v101h-100v132h91v100h-520v-100h91v-132h-97v-101h535zM520 -48h-124v132h124v-132z" />
<glyph unicode="&#xb193;" d="M878 346v99h-374v55h193v96h-387v186h-107v-282h195v-55h-376v-99h856zM631 210v100q-56 -4 -225 0q-50 4 -106 28l-34 -83q53 -38 130 -45q179 -4 235 0zM768 79v95h-606v-95h140q-20 -7 -34 -32.5t-14 -51.5q0 -80 61.5 -123t149.5 -43q87 0 148 44t61 125q0 50 -45 81 h139zM560 -5q0 -32 -29 -49.5t-67 -17.5q-37 0 -66.5 18t-29.5 49t29 48t66 17q39 0 68 -17t29 -48z" />
<glyph unicode="&#xb194;" horiz-adv-x="920" d="M920 345v100h-164v343h-107v-910h107v467h164zM628 130v101q-133 -26 -274 -32v136h168v100h-342v269h-108v-369h173v-138h-242v-101h193q107 0 190.5 5t127 11t114.5 18z" />
<glyph unicode="&#xb198;" horiz-adv-x="920" d="M914 426v102h-158v260h-107v-673h107v311h158zM623 246v98q-95 -19 -260 -27v92h168v101h-338v218h-106v-319h169v-94h-244v-101h185q42 0 81.5 1t67.5 2t61.5 3.5t50 3.5t47.5 5t39.5 5.5t41 6t37.5 5.5zM769 -147v102h-391v203h-108v-305h499z" />
<glyph unicode="&#xb19c;" horiz-adv-x="920" d="M915 473v101h-158v214h-107v-508h107v193h158zM625 315v101q-120 -24 -262 -31v68h168v99h-338v196h-106v-295h169v-69h-243v-99h185q108 0 195.5 5t121.5 9.5t110 15.5zM763 -156v103h-380v55h356v246h-473v-99h364v-48h-359v-257h492z" />
<glyph unicode="&#xb1a8;" horiz-adv-x="920" d="M914 463v101h-158v224h-107v-568h107v243h158zM624 275v98q-95 -19 -260 -27v87h166v98h-338v217h-106v-315h171v-89h-244v-101h185q42 0 81.5 1t67.5 2t61.5 3.5t50 3.5t47.5 5t39.5 5.5t41 6t37.5 5.5zM844 -81l-181 159q7 33 8 67v43h-110v-40q0 -50 -22.5 -98.5 t-60.5 -79.5l-98 100q7 18 11 75v43h-111v-40q0 -67 -45 -129.5t-129 -89.5l71 -86q105 46 157 127l133 -134q104 45 155 137l152 -131z" />
<glyph unicode="&#xb1cc;" horiz-adv-x="870" d="M779 -122v910h-106v-910h106zM660 130v102q-145 -33 -284 -35v137h172v101h-350v269h-106v-370h176v-137h-251v-101h260q66 0 113 1t90 6t58.5 6.5t63 10t58.5 10.5z" />
<glyph unicode="&#xb1d0;" horiz-adv-x="870" d="M780 115v673h-106v-673h106zM653 244v99q-133 -25 -276 -29v95h169v101h-339v218h-106v-319h170v-96h-244v-100h198q213 0 428 31zM789 -147v102h-391v203h-107v-305h498z" />
<glyph unicode="&#xb1d4;" horiz-adv-x="870" d="M779 273v515h-106v-515h106zM651 312v97q-133 -25 -276 -29v75h169v99h-339v194h-106v-293h170v-76h-244v-98h198q213 0 428 31zM769 -156v103h-379v55h355v246h-471v-99h361v-48h-356v-257h490z" />
<glyph unicode="&#xb1dc;" horiz-adv-x="870" d="M783 218v569h-106v-569h106zM653 284v97q-120 -22 -276 -27v86h170v98h-338v210h-106v-308h168v-87h-244v-98h198q227 0 428 29zM762 -149v335h-477v-335h477zM653 -49h-260v135h260v-135z" />
<glyph unicode="&#xb1dd;" horiz-adv-x="870" d="M782 265v523h-106v-523h106zM654 304v97q-120 -22 -276 -27v79h169v99h-339v196h-106v-295h170v-80h-244v-98h198q227 0 428 29zM763 -154v386h-109v-102h-266v102h-109v-386h484zM654 -54h-266v83h266v-83z" />
<glyph unicode="&#xb1df;" horiz-adv-x="870" d="M789 168v620h-106v-620h106zM659 274v97q-120 -22 -276 -27v93h170v98h-338v213h-106v-311h168v-94h-244v-98h198q227 0 428 29zM810 -84l-260 175q17 45 17 86v24h-112v-6q0 -86 -64.5 -159.5t-186.5 -110.5l74 -83q139 44 221 158l241 -163z" />
<glyph unicode="&#xb1e8;" d="M700 285v101h-406v320h-106v-421h512zM878 -10v101h-250v180h-109v-180h-151v180h-108v-180h-238v-101h856z" />
<glyph unicode="&#xb1e9;" d="M878 243v100h-241v104h61v98h-387v227h-107v-325h62v-104h-244v-100h856zM693 -168v340h-490v-101h383v-239h107zM528 343h-155v104h155v-104z" />
<glyph unicode="&#xb1ec;" d="M878 222v101h-241v110h61v98h-387v241h-107v-339h62v-110h-244v-101h856zM717 -146v102h-397v211h-105v-313h502zM528 323h-155v110h155v-110z" />
<glyph unicode="&#xb1f0;" d="M878 297v100h-243v73h62v98h-387v214h-107v-312h62v-73h-243v-100h856zM709 -156v102h-387v55h362v248h-478v-99h368v-52h-363v-254h498zM527 397h-155v73h155v-73z" />
<glyph unicode="&#xb1f9;" d="M878 279v100h-241v89h61v98h-387v216h-107v-314h62v-89h-244v-100h856zM697 -154v392h-108v-108h-270v108h-109v-392h487zM528 379h-155v89h155v-89zM589 -54h-270v84h270v-84z" />
<glyph unicode="&#xb1fb;" d="M878 255v99h-246v90h61v98h-387v230h-107v-328h62v-90h-240v-99h857zM757 -82l-267 176q14 39 14 76l-3 48h-112v-36q0 -80 -65.5 -149t-186.5 -106l72 -85q147 46 229 158l247 -163zM523 354h-155v90h155v-90z" />
<glyph unicode="&#xb1fd;" d="M878 265v101h-246v85h62v99h-387v222h-107v-321h62v-85h-240v-101h856zM689 28q0 89 -67.5 144t-169.5 55q-100 0 -166 -55.5t-66 -144.5q0 -87 67.5 -142t164.5 -55q103 0 170 56t67 142zM524 366h-155v85h155v-85zM579 30q0 -48 -35 -74.5t-92 -26.5q-52 0 -88 28 t-36 73q0 47 35 75t89 28t90.5 -28.5t36.5 -74.5z" />
<glyph unicode="&#xb204;" d="M693 407v102h-386v248h-106v-350h492zM878 204v102h-856v-102h371v-344h108v344h377z" />
<glyph unicode="&#xb205;" d="M697 447v98h-383v227h-107v-325h490zM878 271v99h-856v-99h381v-93h-189v-101h383v-245h106v346h-193v93h368z" />
<glyph unicode="&#xb208;" d="M699 437v98h-386v237h-107v-335h493zM878 254v100h-856v-100h399v-197h107v197h350zM717 -146v102h-397v211h-105v-313h502z" />
<glyph unicode="&#xb20b;" d="M700 447v98h-387v227h-107v-325h494zM878 273v99h-856v-99h381v-85h-194v-339h498v101h-391v138h381v100h-187v85h368z" />
<glyph unicode="&#xb20c;" d="M698 473v98h-387v211h-107v-309h494zM878 312v100h-856v-100h381v-65h-188v-99h367v-51h-362v-253h497v102h-386v52h362v249h-183v65h368z" />
<glyph unicode="&#xb214;" d="M698 447v98h-387v227h-107v-325h494zM878 273v99h-856v-99h381v-90h-188v-332h487v332h-192v90h368zM594 -49h-271v132h271v-132z" />
<glyph unicode="&#xb215;" d="M698 467v98h-387v217h-107v-315h494zM878 299v100h-856v-100h380l1 -125h107v125h368zM702 -154v402h-108v-115h-270v115h-108v-402h486zM594 -54h-270v87h270v-87z" />
<glyph unicode="&#xb217;" d="M698 447v98h-387v227h-107v-325h494zM878 276v99h-856v-99h381v-68h-3v-26q0 -80 -65.5 -149.5t-185.5 -106.5l70 -84q146 46 230 158l246 -163l72 81q-17 11 -44.5 29.5t-86 57t-97.5 63.5l-39 26q13 38 13 76v38h-3v68h368z" />
<glyph unicode="&#xb219;" d="M699 457v99h-387v216h-107v-315h494zM878 291v99h-856v-99h381v-68q-80 -14 -130 -66.5t-50 -129.5q0 -87 67.5 -142t164.5 -55q103 0 170 56t67 142q0 76 -50.5 128t-131.5 66v69h368zM582 30q0 -48 -35 -74.5t-92 -26.5q-52 0 -88 28t-36 73q0 47 35 75t89 28 t90.5 -28.5t36.5 -74.5z" />
<glyph unicode="&#xb220;" horiz-adv-x="870" d="M790 -122v910h-106v-611h-208v-101h208v-198h106zM548 406v102h-331v217h-107v-319h438zM643 260v104q-166 -35 -396 -35h-228v-100h194h50v-338h107v341q110 4 273 28z" />
<glyph unicode="&#xb234;" horiz-adv-x="870" d="M786 171v617h-105v-483h-204v-96h204v-38h105zM542 469v99h-334v177h-106v-276h440zM641 352v102q-166 -35 -397 -35h-227v-98h192h38v-128h106v130q50 2 96.5 5.5t67 6t68.5 9.5t56 8zM842 -75l-175 148q6 32 8 72v17h-110v-14q0 -51 -21.5 -99.5t-59.5 -79.5l-102 97 q6 17 11 79v17h-111v-14q0 -70 -44 -131.5t-126 -88.5l68 -83q106 46 155 123l136 -132q106 46 155 135l146 -121z" />
<glyph unicode="&#xb23c;" horiz-adv-x="920" d="M848 -122v910h-105v-910h105zM672 -82v850h-107v-582h-171v-101h171v-167h107zM479 408v100h-270v217h-107v-317h377zM544 269v103q-71 -14 -103.5 -19.5t-96 -10.5t-143.5 -5h-160v-99h134q38 0 56 1v-348h106v352q30 2 207 26z" />
<glyph unicode="&#xb258;" horiz-adv-x="870" d="M795 -122v910h-106v-910h106zM563 387v100h-341v238h-107v-338h448zM668 240v102q-164 -33 -395 -33h-239v-101h203h42v-317h106v320q126 5 283 29z" />
<glyph unicode="&#xb25c;" horiz-adv-x="870" d="M785 90v698h-104v-698h104zM560 445v101h-331v189h-108v-290h439zM659 312v102q-171 -36 -406 -36h-228v-96h194h38v-126h105v128q141 5 297 28zM785 -147v102h-391v180h-107v-282h498z" />
<glyph unicode="&#xb260;" horiz-adv-x="870" d="M785 258v530h-104v-530h104zM560 479v99h-331v167h-108v-266h439zM659 367v101q-168 -34 -406 -34h-228v-97h193h29v-89h105v91q139 4 307 28zM782 -156v103h-379v50h359v239h-476v-98h366v-45h-361v-249h491z" />
<glyph unicode="&#xb268;" horiz-adv-x="870" d="M785 209v579h-104v-579h104zM550 466v99h-331v180h-108v-279h439zM659 346v101q-168 -34 -406 -34h-228v-98h193h29v-111h105v113q131 4 307 29zM764 -149v324h-477v-324h477zM656 -49h-261v124h261v-124z" />
<glyph unicode="&#xb269;" horiz-adv-x="870" d="M785 253v535h-104v-535h104zM560 479v99h-331v167h-108v-266h439zM659 367v101q-168 -34 -406 -34h-228v-97h193h29v-92h105v94q139 4 307 28zM763 -154v378h-108v-98h-260v98h-108v-378h476zM655 -54h-260v79h260v-79z" />
<glyph unicode="&#xb274;" d="M692 407v102h-386v248h-106v-350h492zM878 204v102h-856v-102h237v-344h107v344h161v-344h109v344h242z" />
<glyph unicode="&#xb275;" d="M698 452v99h-387v221h-107v-320h494zM878 282v98h-856v-98h248v-99h-56v-101h383v-250h106v351h-62v99h237zM533 183h-156v99h156v-99z" />
<glyph unicode="&#xb27c;" d="M698 479v98h-387v205h-107v-303h494zM878 318v100h-856v-100h248v-71h-53v-99h367v-51h-362v-253h497v102h-386v52h362v249h-54v71h237zM533 247h-156v71h156v-71z" />
<glyph unicode="&#xb284;" d="M698 452v99h-387v221h-107v-320h494zM883 280v98h-866v-98h253v-96h-57v-333h487v333h-59v96h242zM533 184h-156v96h156v-96zM592 -49h-271v133h271v-133z" />
<glyph unicode="&#xb285;" d="M698 472v98h-387v212h-107v-310h494zM883 307v100h-866v-100h271v-68h-70v-393h486v393h-68v68h247zM596 120h-270v62h69v125h134v-125h67v-62zM596 -54h-270v73h270v-73z" />
<glyph unicode="&#xb289;" d="M699 463v99h-387v210h-107v-309h494zM883 297v99h-866v-99h249v-148q-43 -53 -43 -122q0 -87 67.5 -142t164.5 -55q103 0 170 56t67 142q0 74 -47 124v145h238zM537 216q-39 11 -82 11t-82 -11v81h164v-81zM582 30q0 -48 -35 -74.5t-92 -26.5q-52 0 -88 28t-36 73 q0 47 35 75t89 28t90.5 -28.5t36.5 -74.5z" />
<glyph unicode="&#xb290;" d="M702 274v101h-406v331h-106v-432h512zM878 0v102h-856v-102h856z" />
<glyph unicode="&#xb291;" d="M696 447v98h-387v227h-107v-325h494zM878 266v100h-856v-100h856zM696 -168v351h-490v-101h384v-250h106z" />
<glyph unicode="&#xb294;" d="M699 431v98h-387v243h-107v-341h494zM878 244v99h-856v-99h856zM717 -146v102h-397v211h-105v-313h502z" />
<glyph unicode="&#xb298;" d="M698 473v98h-387v211h-107v-309h494zM878 307v100h-856v-100h856zM719 -156v102h-386v52h362v249h-478v-99h367v-51h-362v-253h497z" />
<glyph unicode="&#xb299;" d="M696 473v98h-387v211h-107v-309h494zM878 313v100h-856v-100h856zM758 -156v403h-287v-99h178v-304h109zM494 -156v103h-242v51h203v249h-315v-99h205v-51h-203v-253h352z" />
<glyph unicode="&#xb29a;" d="M694 473v98h-387v211h-107v-309h494zM878 312v100h-856v-100h856zM757 -156v403h-295v-300h-213v51h190v249h-302v-99h192v-51h-190v-253h618zM648 -57h-78v203h78v-203z" />
<glyph unicode="&#xb2a0;" d="M698 445v98h-387v229h-107v-327h494zM878 263v100h-856v-100h856zM702 -149v333h-487v-333h487zM594 -49h-271v133h271v-133z" />
<glyph unicode="&#xb2a1;" d="M698 463v99h-387v220h-107v-319h494zM878 295v99h-856v-99h856zM704 -154v393h-108v-115h-270v115h-108v-393h486zM596 -54h-270v77h270v-77z" />
<glyph unicode="&#xb2a3;" d="M698 437v98h-387v237h-107v-335h494zM878 267v100h-856v-100h856zM767 -82l-267 176q14 39 14 76l-3 48h-112v-36q0 -80 -65.5 -149t-186.5 -106l72 -85q147 46 229 158l247 -163z" />
<glyph unicode="&#xb2a5;" d="M698 447v98h-387v227h-107v-325h494zM878 276v98h-856v-98h856zM692 28q0 89 -67.5 144t-169.5 55q-100 0 -166 -55.5t-66 -144.5q0 -87 67.5 -142t164.5 -55q103 0 170 56t67 142zM582 30q0 -48 -35 -74.5t-92 -26.5q-52 0 -88 28t-36 73q0 47 35 75t89 28t90.5 -28.5 t36.5 -74.5z" />
<glyph unicode="&#xb2a6;" d="M700 447v98h-385v227h-107v-325h492zM878 285v99h-856v-99h856zM783 -74l-207 112q91 88 118 177h-476v-99h279q-50 -56 -139 -105.5t-207 -78.5l67 -89q146 36 270 124l227 -126z" />
<glyph unicode="&#xb2aa;" d="M696 446v98h-387v228h-107v-326h494zM883 269v99h-866v-99h866zM731 -147v101h-105v135h96v100h-529v-100h96v-135h-104v-101h546zM519 -46h-123v135h123v-135z" />
<glyph unicode="&#xb2ac;" horiz-adv-x="870" d="M798 -122v910h-107v-910h107zM569 334v101h-350v269h-106v-370h456zM676 135v101q-21 -4 -59.5 -10t-152.5 -15.5t-222 -8.5h-210v-101h214q106 0 189 5t126 11t115 18z" />
<glyph unicode="&#xb2b0;" horiz-adv-x="870" d="M783 115v673h-106v-673h106zM546 409v101h-329v218h-106v-319h435zM656 264v99q-23 -4 -62.5 -10t-141 -15t-178.5 -5h-251v-100h244q67 0 118 1.5t92 5.5t62.5 6.5t60.5 9t56 8.5zM787 -147v102h-390v213h-107v-315h497z" />
<glyph unicode="&#xb2b4;" horiz-adv-x="870" d="M784 273v515h-106v-515h106zM546 457v99h-329v192h-106v-291h435zM659 333v98q-23 -4 -62.5 -10t-141 -14.5t-178.5 -4.5h-251v-100h244q39 0 74 1t60.5 1.5t55 3t44.5 4t43 5t36.5 5t38.5 6t37 5.5zM773 -156v103h-379v57h355v246h-472v-100h362v-47h-357v-259h491z" />
<glyph unicode="&#xb2c8;" horiz-adv-x="850" d="M768 -122v910h-107v-910h107zM562 168v101h-373v413h-106v-514h479z" />
<glyph unicode="&#xb2c9;" horiz-adv-x="850" d="M769 231v557h-107v-557h107zM557 318v102h-373v318h-105v-420h478zM748 -167v361h-492v-101h384v-260h108z" />
<glyph unicode="&#xb2cc;" horiz-adv-x="850" d="M769 140v648h-107v-648h107zM557 301v102h-373v325h-105v-427h478zM780 -147v102h-391v233h-107v-335h498z" />
<glyph unicode="&#xb2d0;" horiz-adv-x="850" d="M769 293v495h-107v-495h107zM558 348v102h-373v298h-105v-400h478zM762 -156v103h-380v60h355v251h-472v-100h364v-52h-359v-262h492z" />
<glyph unicode="&#xb2d2;" horiz-adv-x="850" d="M769 293v495h-107v-495h107zM558 348v102h-373v298h-105v-400h478zM762 -156v407h-288v-407h288zM466 -156v103h-202v54h185v251h-297v-100h187v-52h-185v-256h312zM652 -57h-72v207h72v-207z" />
<glyph unicode="&#xb2d8;" horiz-adv-x="850" d="M769 228v560h-107v-560h107zM557 318v102h-373v318h-105v-420h478zM741 -149v345h-479v-345h479zM633 -49h-262v144h262v-144z" />
<glyph unicode="&#xb2d9;" horiz-adv-x="850" d="M768 279v509h-107v-509h107zM556 339v101h-373v308h-105v-409h478zM749 -154v395h-110v-111h-260v111h-109v-395h479zM639 -54h-260v84h260v-84z" />
<glyph unicode="&#xb2db;" horiz-adv-x="850" d="M768 170v618h-107v-618h107zM556 308v102h-373v318h-105v-420h478zM798 -84l-257 194q13 38 13 77v44h-113v-26q0 -86 -64.5 -164t-179.5 -115l68 -84q144 47 228 171l233 -174z" />
<glyph unicode="&#xb2dd;" horiz-adv-x="850" d="M769 232v556h-107v-556h107zM557 318v102h-373v318h-105v-420h478zM736 37q0 87 -67.5 144.5t-161.5 57.5q-93 0 -160.5 -58.5t-67.5 -144.5t65.5 -145.5t163.5 -59.5q95 0 161.5 60.5t66.5 145.5zM626 35q0 -46 -33.5 -75t-84.5 -29q-53 0 -86.5 30.5t-33.5 75.5 q0 43 35 73t84 30q51 0 85 -29.5t34 -75.5z" />
<glyph unicode="&#xb2e2;" horiz-adv-x="850" d="M769 252v536h-107v-536h107zM557 318v102h-373v318h-105v-420h478zM768 -147v101h-108v162h99v101h-532v-101h93v-162h-105v-101h553zM552 -46h-123v162h123v-162z" />
<glyph unicode="&#xb2e4;" d="M895 373v100h-163v315h-108v-910h108v495h163zM528 156v102h-354v303h293v101h-400v-506h461z" />
<glyph unicode="&#xb2e5;" d="M891 474v101h-157v213h-108v-557h108v243h157zM528 298v101h-364v223h292v101h-397v-425h469zM721 -168v356h-490v-101h385v-255h105z" />
<glyph unicode="&#xb2e6;" d="M891 474v101h-157v213h-108v-557h108v243h157zM528 298v101h-364v223h292v101h-397v-425h469zM737 -167v361h-284v-101h177v-260h107zM437 -167v361h-306v-101h200v-260h106z" />
<glyph unicode="&#xb2e8;" d="M890 475v102h-156v211h-107v-658h107v345h156zM529 277v100h-364v235h292v101h-397v-436h469zM746 -147v102h-391v213h-108v-315h499z" />
<glyph unicode="&#xb2eb;" d="M891 474v101h-157v213h-108v-567h108v253h157zM528 298v101h-364v223h292v101h-397v-425h469zM736 -155v101h-391v138h380v100h-489v-339h500z" />
<glyph unicode="&#xb2ec;" d="M891 491v101h-157v196h-108v-499h108v202h157zM527 342v100h-364v191h292v100h-397v-391h469zM741 -156v103h-381v58h355v251h-472v-100h363v-52h-358v-260h493z" />
<glyph unicode="&#xb2ed;" d="M892 491v101h-158v196h-107v-505h107v208h158zM529 347v100h-365v186h292v100h-397v-386h470zM726 -156v411h-270v-101h160v-310h110zM490 -156v103h-256v53h206v255h-321v-100h211v-59h-206v-252h366z" />
<glyph unicode="&#xb2ee;" d="M892 491v101h-158v196h-107v-504h107v207h158zM529 347v100h-365v186h292v100h-397v-386h470zM738 -156v410h-288v-410h288zM440 -156v103h-202v55h185v253h-297v-100h187v-57h-185v-254h312zM628 -57h-72v210h72v-210z" />
<glyph unicode="&#xb2ef;" d="M891 491v101h-158v196h-107v-503h107v206h158zM528 347v100h-365v186h292v100h-397v-386h470zM737 -155v410h-106v-115h-92v115h-106v-410h304zM422 -156v103h-211v54h189v253h-302v-100h192v-56h-190v-254h322zM631 -55h-92v94h92v-94z" />
<glyph unicode="&#xb2f3;" d="M891 491v101h-158v196h-107v-489h107v192h158zM528 347v100h-365v186h292v100h-397v-386h470zM731 175v95q-61 -6 -146 -3q-50 4 -106 28l-35 -79q62 -37 131 -44q97 -3 156 3zM811 48v93h-402v-93h61q-30 -32 -30 -73q-1 -64 45 -104.5t118 -41.5q71 -1 116.5 40 t46.5 107q0 46 -30 72h75zM437 -156v103h-223v54h182v253h-295v-100h186v-56h-184v-254h334zM660 -24q0 -22 -17.5 -37.5t-41.5 -14.5q-23 1 -38.5 15.5t-15.5 36.5q0 25 16 39.5t41 13.5q24 -1 40 -15.5t16 -37.5z" />
<glyph unicode="&#xb2f4;" d="M891 474v101h-157v213h-108v-557h108v243h157zM528 306v101h-364v215h292v101h-397v-417h469zM720 -149v345h-478v-345h478zM612 -49h-261v144h261v-144z" />
<glyph unicode="&#xb2f5;" d="M892 505v102h-157v181h-108v-509h108v226h157zM529 328v101h-364v204h292v100h-397v-405h469zM726 -154v393h-108v-113h-261v113h-109v-393h478zM618 -54h-261v79h261v-79z" />
<glyph unicode="&#xb2f7;" d="M891 463v101h-157v223h-108v-617h108v293h157zM528 298v101h-364v213h292v101h-397v-415h469zM774 -84l-257 194q13 38 13 77v54h-113v-36q0 -86 -64.5 -164t-179.5 -115l68 -84q144 47 228 171l233 -174z" />
<glyph unicode="&#xb2f8;" d="M891 474v101h-157v213h-108v-551h108v237h157zM528 298v101h-364v223h292v101h-397v-425h469zM830 -77l-180 155q7 33 8 67v57h-111v-54q0 -51 -22.5 -98.5t-63.5 -78.5l-95 95q6 17 11 79v57h-113v-54q0 -71 -44.5 -131.5t-130.5 -86.5l72 -87q104 45 155 121l136 -127 q44 14 86.5 50t70.5 87l150 -126z" />
<glyph unicode="&#xb2f9;" d="M891 474v101h-157v213h-108v-547h108v233h157zM528 301v100h-364v221h292v101h-397v-422h469zM731 37q0 87 -67.5 144.5t-161.5 57.5q-93 0 -160.5 -58.5t-67.5 -144.5t65.5 -145.5t163.5 -59.5q95 0 161.5 60.5t66.5 145.5zM621 35q0 -46 -33.5 -75t-84.5 -29 q-53 0 -86.5 30.5t-33.5 75.5q0 43 35 73t84 30q51 0 85 -29.5t34 -75.5z" />
<glyph unicode="&#xb2fa;" d="M891 474v101h-157v213h-108v-536h108v222h157zM528 324v101h-364v197h292v101h-397v-399h469zM800 -81l-210 120q93 89 118 182h-476v-100h290q-61 -65 -156 -117t-206 -77l68 -86q139 31 273 125l235 -131z" />
<glyph unicode="&#xb2fb;" d="M891 504v102h-157v182h-108v-485q-1 0 -29 -0.5t-56.5 -1t-63 0t-53.5 2.5q-53 5 -106 28l-34 -84q14 -10 36 -20q44 -21 93 -25q99 -3 214 0v62h107v239h157zM528 354v101h-364v178h292v100h-397v-379h469zM790 -80l-206 93q82 70 119 161h-485v-98h278 q-127 -107 -348 -149l66 -89q148 30 273 105l233 -105z" />
<glyph unicode="&#xb2ff;" d="M891 514v102h-157v172h-108v-473q-149 -7 -209 0q-59 8 -106 28l-34 -80q48 -34 129 -45q101 -3 223 0v65h105v231h157zM528 359v101h-364v173h292v100h-397v-374h469zM765 75v97h-590v-97h122q-38 -27 -38 -79q0 -77 63.5 -122t151.5 -45t149 44.5t61 123.5 q0 22 -11.5 45t-27.5 33h120zM567 -3q0 -33 -29 -52.5t-66 -19.5q-36 0 -66.5 20t-30.5 52q0 33 30 51.5t66 18.5q37 0 66.5 -18.5t29.5 -51.5z" />
<glyph unicode="&#xb300;" d="M841 -122v910h-106v-315h-105v295h-106v-828h106v432h105v-494h106zM490 156v102h-302v303h259v101h-365v-506h408z" />
<glyph unicode="&#xb301;" d="M841 221v567h-106v-216h-101v195h-106v-526h106v231h101v-251h106zM493 298v101h-302v223h261v101h-367v-425h408zM799 -167v356h-490v-101h383v-255h107z" />
<glyph unicode="&#xb304;" d="M841 140v648h-106v-223h-101v202h-106v-588h106v286h101v-325h106zM493 277v100h-302v235h261v101h-367v-436h408zM833 -147v102h-391v223h-107v-325h498z" />
<glyph unicode="&#xb308;" d="M841 280v508h-106v-190h-101v169h-106v-467h106v198h101v-218h106zM493 334v100h-302v199h261v100h-367v-399h408zM818 -156v103h-379v53h355v253h-471v-100h361v-54h-356v-255h490z" />
<glyph unicode="&#xb310;" d="M841 231v557h-106v-216h-101v195h-106v-516h106v221h101v-241h106zM493 298v101h-302v223h261v101h-367v-425h408zM808 -149v345h-477v-345h477zM699 -49h-260v144h260v-144z" />
<glyph unicode="&#xb311;" d="M841 259v529h-106v-204h-101v183h-106v-489h106v207h101v-226h106zM493 318v101h-302v214h261v100h-367v-415h408zM792 -154v390h-109v-113h-259v113h-109v-390h477zM683 -54h-259v76h259v-76z" />
<glyph unicode="&#xb313;" d="M840 201v587h-106v-225h-101v204h-106v-514h106v209h101v-261h106zM492 288v100h-302v224h261v101h-367v-425h408zM839 -84l-257 194q13 38 13 77v34h-113v-16q0 -87 -65 -164t-186 -114l75 -85q143 47 228 172l233 -175z" />
<glyph unicode="&#xb314;" d="M841 230v558h-106v-216h-101v195h-106v-516h106v221h101v-242h106zM493 298v101h-302v223h261v101h-367v-425h408zM885 -82l-181 160q7 33 8 67v57h-110v-54q0 -51 -21.5 -99.5t-59.5 -79.5l-102 101q7 18 11 75v57h-111v-54q0 -71 -44.5 -131.5t-130.5 -86.5l72 -87 q104 45 158 127l133 -133q104 42 157 137l150 -131z" />
<glyph unicode="&#xb315;" d="M841 221v567h-106v-213h-106v192h-107v-496h107v204h106v-254h106zM493 298v101h-302v223h261v101h-367v-425h408zM802 37q0 87 -67.5 144.5t-161.5 57.5q-93 0 -160.5 -58.5t-67.5 -144.5t65.5 -145.5t163.5 -59.5q95 0 161.5 60.5t66.5 145.5zM692 35q0 -46 -33.5 -75 t-84.5 -29q-53 0 -86.5 30.5t-33.5 75.5q0 43 35 73t84 30q51 0 85 -29.5t34 -75.5z" />
<glyph unicode="&#xb31c;" d="M887 231v100h-153v134h153v100h-153v223h-107v-910h107v353h153zM535 156v102h-354v303h294v101h-400v-506h460z" />
<glyph unicode="&#xb354;" horiz-adv-x="850" d="M769 -122v910h-107v-316h-240v-101h240v-493h107zM536 156v102h-363v303h304v101h-410v-506h469z" />
<glyph unicode="&#xb355;" horiz-adv-x="850" d="M768 226v562h-106v-222h-221v-100h221v-240h106zM533 302v101h-375v219h302v101h-407v-421h480zM746 -167v356h-490v-101h383v-255h107z" />
<glyph unicode="&#xb356;" horiz-adv-x="850" d="M769 226v562h-106v-222h-221v-100h221v-240h106zM534 303v101h-375v218h302v101h-407v-420h480zM759 -167v361h-284v-101h177v-260h107zM459 -167v361h-306v-101h200v-260h106z" />
<glyph unicode="&#xb358;" horiz-adv-x="850" d="M768 130v658h-106v-236h-221v-101h221v-321h106zM533 279v99h-375v234h302v101h-407v-434h480zM780 -147v102h-391v228h-107v-330h498z" />
<glyph unicode="&#xb35b;" horiz-adv-x="850" d="M769 221v567h-106v-217h-221v-100h221v-250h106zM534 306v101h-375v215h302v101h-407v-417h480zM770 -151v101h-390v138h380v100h-488v-339h498z" />
<glyph unicode="&#xb35c;" horiz-adv-x="850" d="M769 283v505h-106v-196h-221v-100h221v-209h106zM534 337v100h-375v196h302v100h-407v-396h480zM762 -157v103h-379v58h357v253h-474v-100h364v-54h-359v-260h491z" />
<glyph unicode="&#xb35e;" horiz-adv-x="850" d="M769 285v503h-106v-196h-221v-100h221v-207h106zM534 337v100h-375v196h302v100h-407v-396h480zM762 -156v407h-288v-407h288zM466 -156v103h-202v54h185v251h-297v-100h187v-52h-185v-256h312zM652 -57h-72v207h72v-207z" />
<glyph unicode="&#xb35f;" horiz-adv-x="850" d="M769 282v506h-106v-196h-221v-100h221v-210h106zM534 337v100h-375v196h302v100h-407v-396h480zM764 -155v406h-105v-123h-97v123h-105v-406h307zM449 -156v103h-202v54h185v252h-297v-100h186v-53h-184v-256h312zM659 -55h-97v82h97v-82z" />
<glyph unicode="&#xb364;" horiz-adv-x="850" d="M769 231v557h-106v-217h-221v-100h221v-240h106zM534 306v101h-375v215h302v101h-407v-417h480zM741 -149v345h-478v-345h478zM632 -49h-261v144h261v-144z" />
<glyph unicode="&#xb365;" horiz-adv-x="850" d="M769 269v519h-106v-206h-221v-100h221v-213h106zM534 326v101h-375v206h302v100h-407v-407h480zM739 -154v395h-109v-111h-259v111h-109v-395h477zM630 -54h-259v84h259v-84z" />
<glyph unicode="&#xb367;" horiz-adv-x="850" d="M769 170v618h-106v-236h-221v-101h221v-281h106zM534 288v100h-375v224h302v101h-407v-425h480zM798 -84l-257 194q13 38 13 77v54h-113v-36q0 -86 -64.5 -164t-179.5 -115l68 -84q144 47 228 171l233 -174z" />
<glyph unicode="&#xb369;" horiz-adv-x="850" d="M768 221v567h-106v-222h-221v-100h221v-245h106zM533 302v101h-375v219h302v101h-407v-421h480zM741 37q0 87 -67.5 144.5t-161.5 57.5q-93 0 -160.5 -58.5t-67.5 -144.5t65.5 -145.5t163.5 -59.5q95 0 161.5 60.5t66.5 145.5zM631 35q0 -46 -33.5 -75t-84.5 -29 q-53 0 -86.5 30.5t-33.5 75.5q0 43 35 73t84 30q51 0 85 -29.5t34 -75.5z" />
<glyph unicode="&#xb36b;" horiz-adv-x="850" d="M769 272v516h-106v-191h-221v-100h221v-225h106zM534 357v101h-375v175h302v100h-407v-376h480zM642 206v100q-101 -3 -203 1q-50 4 -106 28l-34 -84q48 -34 129 -45q99 -3 214 0zM816 -81l-206 90q82 69 119 158h-485v-96h278q-126 -104 -348 -145l66 -87 q145 27 273 103l233 -103z" />
<glyph unicode="&#xb36e;" horiz-adv-x="850" d="M769 232v556h-106v-222h-221v-100h221v-234h106zM534 307v101h-375v214h302v101h-407v-416h480zM768 -147v101h-106v148h97v101h-532v-101h97v-148h-107v-101h551zM554 -46h-121v148h121v-148z" />
<glyph unicode="&#xb370;" d="M840 -122v910h-106v-910h106zM646 -60v828h-107v-305h-207v-102h207v-421h107zM476 156v102h-297v303h254v101h-360v-506h403z" />
<glyph unicode="&#xb371;" d="M841 216v572h-106v-572h106zM654 235v532h-106v-204h-195v-101h195v-227h106zM493 298v101h-302v223h251v101h-357v-425h408zM799 -167v348h-490v-101h383v-247h107z" />
<glyph unicode="&#xb374;" d="M841 129v659h-106v-659h106zM654 169v598h-106v-225h-195v-100h195v-273h106zM493 277v100h-302v235h251v101h-357v-436h408zM833 -147v102h-391v221h-107v-323h498z" />
<glyph unicode="&#xb378;" d="M840 278v510h-106v-510h106zM653 298v469h-106v-188h-195v-100h195v-181h106zM492 324v101h-302v208h251v100h-357v-409h408zM817 -156v103h-379v54h355v248h-471v-99h361v-50h-356v-256h490z" />
<glyph unicode="&#xb380;" d="M841 231v557h-106v-557h106zM654 251v516h-106v-206h-195v-101h195v-209h106zM493 296v100h-302v226h251v101h-357v-427h408zM808 -149v345h-477v-345h477zM699 -49h-260v144h260v-144z" />
<glyph unicode="&#xb381;" d="M841 259v529h-106v-529h106zM654 278v489h-106v-196h-195v-100h195v-193h106zM493 308v101h-302v224h251v100h-357v-425h408zM792 -154v385h-109v-111h-259v111h-109v-385h477zM683 -54h-259v73h259v-73z" />
<glyph unicode="&#xb383;" d="M841 189v599h-106v-599h106zM654 251v516h-106v-219h-195v-101h195v-196h106zM493 288v100h-302v224h251v101h-357v-425h408zM840 -84l-257 194q13 38 13 77v34h-113v-16q0 -87 -65 -164t-186 -114l75 -85q143 47 228 172l233 -175z" />
<glyph unicode="&#xb384;" d="M840 224v564h-106v-564h106zM653 243v524h-106v-207h-195v-101h195v-216h106zM492 295v100h-302v227h251v101h-357v-428h408zM888 -82l-181 160q7 33 8 67v57h-110v-54q0 -51 -21.5 -99.5t-59.5 -79.5l-102 101q7 18 11 75v57h-111v-54q0 -70 -46.5 -132t-128.5 -86 l72 -87q105 45 157 125l134 -131q104 42 157 137l150 -131z" />
<glyph unicode="&#xb385;" d="M841 230v558h-106v-558h106zM654 277v490h-106v-205h-195v-101h195v-184h106zM493 298v101h-302v223h251v101h-357v-425h408zM794 37q0 87 -67.5 144.5t-161.5 57.5q-93 0 -160.5 -58.5t-67.5 -144.5t65.5 -145.5t163.5 -59.5q95 0 161.5 60.5t66.5 145.5zM684 35 q0 -46 -33.5 -75t-84.5 -29q-53 0 -86.5 30.5t-33.5 75.5q0 43 35 73t84 30q51 0 85 -29.5t34 -75.5z" />
<glyph unicode="&#xb38c;" horiz-adv-x="850" d="M768 -122v910h-107v-246h-221v-100h221v-58h-221v-100h221v-406h107zM531 156v102h-363v303h304v101h-410v-506h469z" />
<glyph unicode="&#xb390;" horiz-adv-x="850" d="M769 111v677h-106v-174h-202v99h-407v-455h480v101h-375v253h287v-98h217v-44h-216v-99h216v-260h106zM781 -147v102h-389v223h-109v-325h498z" />
<glyph unicode="&#xb394;" horiz-adv-x="850" d="M768 287v501h-105v-141h-194v-101h194v-33h-194v-93h-312v213h302v100h-407v-414h480v93h131v-125h105zM754 -156v103h-383v54h365v251h-481v-100h371v-52h-366v-256h494z" />
<glyph unicode="&#xb3a0;" horiz-adv-x="850" d="M769 225v563h-105v-156h-204v91h-407v-444h480v100h-375v243h302v-91h204v-34h-204v-100h204v-172h105zM837 -77l-180 155q7 33 8 67v57h-111v-54q0 -51 -22.5 -98.5t-63.5 -78.5l-95 95q6 17 11 79v57h-113v-54q0 -71 -44.5 -131.5t-130.5 -86.5l72 -87q104 45 155 121 l136 -127q44 14 86.5 50t70.5 87l150 -126z" />
<glyph unicode="&#xb3a1;" horiz-adv-x="850" d="M769 225v563h-105v-147h-204v82h-407v-434h480v100h-375v233h302v-82h204v-34h-204v-100h204v-181h105zM740 37q0 87 -67.5 144.5t-161.5 57.5q-93 0 -160.5 -58.5t-67.5 -144.5t65.5 -145.5t163.5 -59.5q95 0 161.5 60.5t66.5 145.5zM630 35q0 -46 -33.5 -75t-84.5 -29 q-53 0 -86.5 30.5t-33.5 75.5q0 43 35 73t84 30q51 0 85 -29.5t34 -75.5z" />
<glyph unicode="&#xb3a8;" d="M840 -122v910h-106v-910h106zM653 -60v828h-108v-231h-179v-100h179v-54h-179v-100h179v-343h108zM463 156v102h-287v303h254v101h-360v-506h393z" />
<glyph unicode="&#xb3ac;" d="M841 140v648h-106v-648h106zM662 179v588h-106v-152h-117v98h-357v-464h408v100h-302v263h197v-98h171v-46h-171v-101h171v-188h106zM840 -147v102h-391v221h-109v-323h500z" />
<glyph unicode="&#xb3c4;" d="M698 258v102h-398v226h398v100h-505v-428h505zM877 -10v101h-375v150h-108v-150h-372v-101h855z" />
<glyph unicode="&#xb3c5;" d="M878 231v100h-374v77h183v101h-377v141h375v102h-481v-344h191v-77h-373v-100h856zM693 -167v332h-490v-102h383v-230h107z" />
<glyph unicode="&#xb3c8;" d="M878 211v101h-372v86h181v101h-377v151h375v102h-481v-354h193v-86h-375v-101h856zM717 -146v102h-397v201h-105v-303h502z" />
<glyph unicode="&#xb3cb;" d="M878 241v100h-372v78h181v101h-377v130h375v102h-481v-333h193v-78h-375v-100h856zM707 -151v101h-391v125h381v100h-488v-326h498z" />
<glyph unicode="&#xb3cc;" d="M878 280v99h-372v64h181v100h-377v118h375v101h-481v-319h193v-64h-375v-99h856zM716 -156v102h-387v49h363v242h-478v-99h367v-48h-362v-246h497z" />
<glyph unicode="&#xb3ce;" d="M878 280v99h-372v65h181v100h-377v117h375v101h-481v-318h193v-65h-375v-99h856zM765 -156v384h-295v-384h295zM460 -156v103h-203v43h190v238h-302v-98h192v-46h-190v-240h313zM656 -57h-78v185h78v-185z" />
<glyph unicode="&#xb3d0;" d="M878 280v99h-372v65h181v100h-377v117h375v101h-481v-318h193v-65h-375v-99h856zM813 -88l-151 158q9 40 9 84v83h-111v-84q0 -62 -26 -117.5t-81 -88.5h-190v47h200v242h-312v-99h202v-45h-200v-248h329v7l5 -6q74 23 132 118l118 -122z" />
<glyph unicode="&#xb3d4;" d="M878 235v100h-372v76h181v101h-377v138h375v102h-481v-341h193v-76h-375v-100h856zM702 -149v322h-487v-322h487zM594 -49h-271v122h271v-122z" />
<glyph unicode="&#xb3d5;" d="M878 267v100h-372v75h181v100h-377v119h375v101h-481v-320h193v-75h-375v-100h856zM703 -154v383h-108v-104h-270v104h-108v-383h486zM595 -54h-270v78h270v-78z" />
<glyph unicode="&#xb3d7;" d="M878 240v100h-373v72h181v101h-377v137h375v102h-481v-340h193v-72h-375v-100h857zM765 -82l-267 176q14 39 14 76v38h-115v-26q0 -80 -65.5 -149t-186.5 -106l72 -85q147 46 229 158l247 -163z" />
<glyph unicode="&#xb3d9;" d="M878 249v100h-373v69h181v101h-376v131h374v102h-480v-334h192v-69h-375v-100h857zM690 28q0 86 -67.5 140t-169.5 54q-100 0 -166 -54t-66 -141q0 -86 67.5 -140t164.5 -54q103 0 170 55.5t67 139.5zM580 28q0 -46 -35.5 -72t-91.5 -26q-52 0 -88 27.5t-36 70.5 q0 46 35 73.5t89 27.5q55 0 91 -27.5t36 -73.5z" />
<glyph unicode="&#xb3db;" d="M873 311v97h-369v53h183v99h-375v101h373v101h-481v-301h191v-53h-368v-97h280l-32 -77q55 -39 130 -47q98 -3 213 0v95q-101 -3 -203 1q-41 4 -97 28h555zM779 -79l-209 79q85 59 125 148h-478v-94h264q-143 -101 -333 -132l71 -89q139 27 251 89l244 -88z" />
<glyph unicode="&#xb3dd;" d="M878 270v100h-372v70h181v100h-377v121h375v101h-481v-322h193v-70h-375v-100h856zM706 -156v96h-385v47h366v97h-366v44h375v98h-481v-382h491z" />
<glyph unicode="&#xb3e0;" horiz-adv-x="920" d="M920 345v100h-164v343h-107v-910h107v467h164zM628 130v100q-168 -32 -272 -33v112h155v102h-322v171h319v99h-425v-372h164v-112h-244v-101h245q65 0 112.5 1.5t89 5.5t58.5 6.5t61.5 10.5t58.5 10z" />
<glyph unicode="&#xb3e4;" horiz-adv-x="920" d="M914 416v102h-158v270h-107v-673h107v301h158zM633 232v98q-117 -23 -270 -29v83h149v101h-315v127h312v101h-419v-329h166v-83h-243v-101h244q49 0 93 1.5t71 3t63.5 6t49 6t51.5 8t48 7.5zM769 -147v102h-391v193h-107v-295h498z" />
<glyph unicode="&#xb3e8;" horiz-adv-x="920" d="M914 463v101h-158v224h-107v-510h107v185h158zM632 312v97q-134 -25 -272 -29v58h157v101h-322v94h319v100h-426v-295h166v-59h-244v-98h198q209 0 424 31zM755 -157v103h-379v55h360v246h-477v-99h368v-48h-363v-257h491z" />
<glyph unicode="&#xb3fc;" horiz-adv-x="920" d="M860 -122v910h-105v-345h-86v325h-106v-828h106v402h86v-464h105zM552 131v101q-96 -29 -210 -34v111h136v102h-283v171h280v99h-387v-372h146v-112h-204v-101h194q118 0 180.5 7.5t147.5 27.5z" />
<glyph unicode="&#xb410;" horiz-adv-x="920" d="M845 201v587h-105v-250h-85v229h-108v-546h108v217h85v-237h105zM527 251v99q-112 -22 -201 -27v78h134v102h-282v119h279v101h-386v-322h149v-80h-192v-98h154q180 0 345 28zM871 -81l-181 159q7 33 8 67v43h-110v-40q0 -51 -21.5 -99.5t-59.5 -79.5l-100 101 q7 18 11 75v43h-111v-40q0 -71 -44.5 -131.5t-129.5 -87.5l71 -86q105 46 157 127l133 -134q104 45 155 137l152 -131z" />
<glyph unicode="&#xb418;" horiz-adv-x="870" d="M779 -122v910h-107v-910h107zM657 130v100q-167 -32 -285 -33v112h161v102h-339v171h336v99h-442v-372h175v-112h-259v-101h265q55 0 100.5 1.5t74 3t63.5 5.5t48.5 6.5t51 9t50.5 8.5z" />
<glyph unicode="&#xb41c;" horiz-adv-x="870" d="M778 115v673h-106v-673h106zM647 232v97q-120 -22 -276 -27v82h151v101h-322v127h319v101h-426v-329h172v-83h-244v-98h198q227 0 428 29zM789 -147v102h-389v201h-109v-303h498z" />
<glyph unicode="&#xb420;" horiz-adv-x="870" d="M776 279v509h-106v-509h106zM644 313v97q-120 -22 -276 -27v58h151v101h-322v91h319v100h-426v-292h172v-59h-244v-98h198q227 0 428 29zM771 -156v103h-379v55h355v246h-472v-99h362v-48h-357v-257h491z" />
<glyph unicode="&#xb428;" horiz-adv-x="870" d="M773 221v566h-106v-566h106zM642 272v97q-120 -22 -276 -27v66h151v102h-322v112h319v101h-426v-315h172v-67h-244v-98h198q227 0 428 29zM754 -149v334h-478v-334h478zM645 -49h-260v134h260v-134z" />
<glyph unicode="&#xb429;" horiz-adv-x="870" d="M774 260v528h-106v-528h106zM642 297v97q-120 -22 -276 -27v68h151v101h-322v97h319v100h-426v-298h172v-69h-244v-98h198q227 0 428 29zM755 -154v381h-109v-107h-259v107h-109v-381h477zM646 -54h-259v73h259v-73z" />
<glyph unicode="&#xb42b;" horiz-adv-x="870" d="M777 178v610h-106v-610h106zM645 265v97q-120 -22 -276 -27v76h151v102h-322v109h319v101h-426v-312h172v-77h-244v-98h198q227 0 428 29zM811 -84l-260 175q17 45 17 86v34h-112v-16q0 -86 -64.5 -159.5t-186.5 -110.5l74 -83q139 44 221 158l241 -163z" />
<glyph unicode="&#xb434;" d="M700 258v102h-397v226h397v100h-505v-428h505zM877 -10v101h-239v156h-109v-156h-158v156h-107v-156h-242v-101h855z" />
<glyph unicode="&#xb450;" d="M691 363v101h-388v170h380v100h-488v-371h496zM878 184v101h-856v-101h373v-324h110v324h373z" />
<glyph unicode="&#xb451;" d="M686 418v101h-377v131h375v102h-481v-334h483zM878 251v100h-857v-100h378v-81h-196v-101h384v-236h106v337h-187v81h372z" />
<glyph unicode="&#xb454;" d="M688 408v101h-377v141h375v102h-481v-344h483zM878 239v99h-857v-99h396v-189h107v189h354zM714 -146v102h-397v211h-105v-313h502z" />
<glyph unicode="&#xb458;" d="M689 448v102h-377v111h375v101h-481v-314h483zM878 302v100h-856v-100h381v-59h-186v-98h367v-50h-362v-251h497v102h-386v50h362v247h-183v59h366z" />
<glyph unicode="&#xb460;" d="M687 421v101h-377v128h375v102h-481v-331h483zM878 259v100h-856v-100h381v-80h-188v-328h487v328h-190v80h366zM594 -49h-271v128h271v-128z" />
<glyph unicode="&#xb461;" d="M688 446v100h-377v115h375v101h-481v-316h483zM878 291v99h-856v-99h381v-133h107v133h368zM704 -154v395h-108v-121h-270v121h-108v-395h486zM596 -54h-270v73h270v-73z" />
<glyph unicode="&#xb463;" d="M687 417v101h-377v132h375v102h-481v-335h483zM878 257v99h-856v-99h381v-47h-3v-26q0 -80 -65.5 -149.5t-185.5 -106.5l70 -84q146 46 230 158l246 -163l72 81q-17 11 -44.5 29.5t-86 57t-97.5 63.5l-39 26q13 38 13 76v38h-3v47h368z" />
<glyph unicode="&#xb465;" d="M688 419v101h-377v130h375v102h-481v-333h483zM878 263v99h-856v-99h381v-58q-80 -14 -130 -66.5t-50 -129.5q0 -87 67.5 -142t164.5 -55q103 0 170 56t67 142q0 76 -50.5 128t-131.5 66v59h368zM582 12q0 -48 -35 -74.5t-92 -26.5q-52 0 -88 28t-36 73q0 47 35 75t89 28 t90.5 -28.5t36.5 -74.5z" />
<glyph unicode="&#xb46c;" horiz-adv-x="870" d="M810 -122v910h-106v-606h-218v-101h218v-203h106zM543 381v100h-313v131h310v101h-416v-332h419zM663 248v103q-166 -35 -396 -35h-228v-101h194h50v-324h107v327q119 6 273 30z" />
<glyph unicode="&#xb480;" horiz-adv-x="870" d="M776 171v617h-105v-483h-204v-96h204v-38h105zM507 452v99h-312v84h309v98h-415v-281h418zM631 342v101q-168 -34 -397 -34h-227v-98h192h38v-116h106v118q121 4 288 29zM842 -75l-175 148q6 32 8 72v17h-110v-14q0 -51 -21.5 -99.5t-59.5 -79.5l-102 97q6 17 11 79v17 h-111v-14q0 -70 -44 -131.5t-126 -88.5l68 -83q106 46 155 123l136 -132q106 46 155 135l146 -121z" />
<glyph unicode="&#xb488;" horiz-adv-x="920" d="M854 -122v910h-105v-910h105zM678 -82v850h-107v-593h-167v-101h167v-156h107zM476 381v100h-271v131h268v101h-375v-332h378zM556 253v104q-92 -20 -160.5 -27.5t-184.5 -7.5h-176v-100h139q51 0 73 1v-332h106v336q41 3 72 6.5t72.5 10.5t58.5 9z" />
<glyph unicode="&#xb49d;" horiz-adv-x="920" d="M855 196v592h-106v-592h106zM684 767h-107v-445h-175v-89h175v-10h106zM471 461v100h-272v76h270v99h-376v-275h378zM564 355v100q-85 -18 -155.5 -24.5t-192.5 -6.5h-181v-95h166h19v-147h105v149q107 4 239 24zM821 24q0 86 -69 139t-170 53t-168.5 -53.5t-67.5 -139.5 q0 -85 69 -138t167 -53q103 0 171 54t68 138zM711 24q0 -46 -37 -72t-92 -26q-54 0 -91 27t-37 71q0 45 37 72t91 27t91.5 -27t37.5 -72z" />
<glyph unicode="&#xb4a4;" horiz-adv-x="870" d="M808 -122v910h-106v-910h106zM555 367v101h-311v144h308v101h-416v-346h419zM686 228v104q-167 -34 -416 -34h-228v-101h194q49 0 71 1v-307h106v310q109 4 273 27z" />
<glyph unicode="&#xb4a8;" horiz-adv-x="870" d="M803 124v664h-105v-664h105zM556 418v101h-313v104h310v100h-416v-305h419zM677 302v101q-168 -34 -406 -34h-228v-97h203h39l-1 -100h106v102q112 4 287 28zM807 -147v102h-391v198h-107v-300h498z" />
<glyph unicode="&#xb4ac;" horiz-adv-x="870" d="M805 258v530h-104v-530h104zM557 465v100h-311v69h308v99h-415v-268h418zM679 361v101q-168 -34 -406 -34h-228v-97h203h29v-89h105v91q127 3 297 28zM802 -156v103h-380v44h355v242h-471v-99h361v-45h-356v-245h491z" />
<glyph unicode="&#xb4b5;" horiz-adv-x="870" d="M805 243v545h-104v-545h104zM557 461v101h-311v72h308v99h-415v-272h418zM679 356v101q-168 -34 -406 -34h-228v-97h203h29v-92h105v94q127 3 297 28zM783 -154v372h-108v-96h-259v96h-109v-372h476zM675 -54h-259v75h259v-75z" />
<glyph unicode="&#xb4b7;" horiz-adv-x="870" d="M788 124v664h-105v-664h105zM541 415v101h-313v107h310v100h-416v-308h419zM662 295v101q-168 -34 -406 -34h-228v-97h203h39v-127h105v129q112 4 287 28zM821 -84l-260 175q17 45 17 86v34h-112v-16q0 -86 -64.5 -159.5t-186.5 -110.5l74 -83q139 44 221 158l241 -163z " />
<glyph unicode="&#xb4b9;" horiz-adv-x="870" d="M810 219v569h-104v-569h104zM542 434v101h-311v96h308v100h-415v-297h418zM674 311v101q-168 -34 -406 -34h-228v-97h203h39v-99h105v101q112 4 287 28zM798 28q0 89 -67.5 143.5t-168.5 54.5t-167 -55t-66 -144q0 -87 67.5 -141t165.5 -54q102 0 169 55.5t67 140.5z M688 29q0 -48 -35.5 -74.5t-90.5 -26.5q-54 0 -89.5 27.5t-35.5 73.5q0 47 35.5 74.5t89.5 27.5t90 -28t36 -74z" />
<glyph unicode="&#xb4c0;" d="M691 370v100h-390v164h382v100h-488v-364h496zM878 184v101h-856v-101h237v-324h107v324h161v-324h109v324h242z" />
<glyph unicode="&#xb4c4;" d="M688 408v101h-377v141h375v102h-481v-344h483zM878 239v99h-857v-99h326v-181h109v181h84v-181h108v181h230zM714 -146v102h-397v211h-105v-313h502z" />
<glyph unicode="&#xb4c8;" d="M689 448v102h-377v111h375v101h-481v-314h483zM878 302v100h-856v-100h255v-63h-60v-99h364v-48h-363v-248h498v102h-388v48h364v245h-51v63h237zM533 239h-148v63h148v-63z" />
<glyph unicode="&#xb4d0;" d="M688 421v101h-377v128h375v102h-481v-331h483zM878 262v100h-856v-100h256v-78h-63v-333h487v333h-61v78h237zM533 184h-147v78h147v-78zM594 -49h-271v133h271v-133z" />
<glyph unicode="&#xb4d5;" d="M687 428v101h-376v121h374v102h-480v-324h482zM878 281v98h-856v-98h237l-1 -130q-45 -53 -45 -124q0 -87 67.5 -142t164.5 -55q103 0 170 56t67 142q0 69 -42 119q1 134 0 134h238zM532 215q-40 12 -87 12q-38 0 -78 -10v64h165q1 0 1 -33t-1 -33zM572 30 q0 -48 -35 -74.5t-92 -26.5q-52 0 -88 28t-36 73q0 47 35 75t89 28t90.5 -28.5t36.5 -74.5z" />
<glyph unicode="&#xb4dc;" d="M700 249v101h-399v236h399v100h-505v-437h505zM877 0v102h-855v-102h855z" />
<glyph unicode="&#xb4dd;" d="M687 412v101h-377v137h374v102h-480v-340h483zM878 245v99h-856v-99h856zM694 -167v342h-490v-101h384v-241h106z" />
<glyph unicode="&#xb4e0;" d="M689 402v101h-377v147h375v102h-481v-350h483zM878 229v99h-856v-99h856zM715 -146v102h-397v201h-106v-303h503z" />
<glyph unicode="&#xb4e3;" d="M686 419v101h-376v130h374v102h-480v-333h482zM878 241v100h-856v-100h856zM707 -151v101h-391v125h381v100h-488v-326h498z" />
<glyph unicode="&#xb4e4;" d="M686 439v100h-376v122h374v101h-480v-323h482zM878 286v100h-856v-100h856zM716 -156v102h-387v48h363v243h-479v-99h368v-46h-362v-248h497z" />
<glyph unicode="&#xb4e6;" d="M686 439v100h-376v122h374v101h-480v-323h482zM878 285v100h-856v-100h856zM756 -156v384h-295v-281h-213v43h191v239h-303v-97h192v-46h-190v-242h618zM647 -57h-78v185h78v-185z" />
<glyph unicode="&#xb4ec;" d="M686 417v101h-376v132h374v102h-480v-335h482zM878 251v100h-856v-100h856zM702 -149v333h-488v-333h488zM594 -49h-271v133h271v-133z" />
<glyph unicode="&#xb4ed;" d="M687 433v100h-376v128h374v101h-480v-329h482zM878 280v98h-856v-98h856zM704 -154v391h-108v-109h-270v109h-108v-391h486zM596 -54h-270v82h270v-82z" />
<glyph unicode="&#xb4ef;" d="M686 411v101h-376v138h374v102h-480v-341h482zM878 256v100h-856v-100h856zM765 -82l-267 176q14 39 14 76l-3 48h-112v-36q0 -80 -65.5 -149t-186.5 -106l72 -85q147 46 229 158l247 -163z" />
<glyph unicode="&#xb4f1;" d="M686 415v101h-376v134h374v102h-480v-337h482zM878 265v100h-856v-100h856zM694 30q0 89 -67.5 144t-169.5 55q-100 0 -166 -55.5t-66 -144.5q0 -87 67.5 -142t164.5 -55q103 0 170 56t67 142zM584 32q0 -48 -35 -74.5t-92 -26.5q-52 0 -88 28t-36 73q0 47 35 75t89 28 t90.5 -28.5t36.5 -74.5z" />
<glyph unicode="&#xb4f8;" horiz-adv-x="870" d="M808 -122v910h-107v-910h107zM564 309v102h-337v171h334v99h-440v-372h443zM675 135v101q-20 -4 -56.5 -10t-148 -15.5t-219.5 -8.5h-210v-101h214q106 0 188 5.5t119 10.5t113 18z" />
<glyph unicode="&#xb514;" horiz-adv-x="850" d="M769 -122v910h-106v-910h106zM557 156v102h-373v303h314v101h-420v-506h479z" />
<glyph unicode="&#xb515;" horiz-adv-x="850" d="M769 221v567h-107v-567h107zM553 306v101h-384v215h312v101h-417v-417h489zM747 -167v356h-491v-101h384v-255h107z" />
<glyph unicode="&#xb518;" horiz-adv-x="850" d="M769 130v658h-107v-658h107zM553 277v100h-384v235h312v101h-417v-436h489zM777 -147v102h-390v223h-108v-325h498z" />
<glyph unicode="&#xb51b;" horiz-adv-x="850" d="M769 221v567h-107v-567h107zM553 306v101h-384v215h312v101h-417v-417h489zM768 -151v101h-391v138h381v100h-488v-339h498z" />
<glyph unicode="&#xb51c;" horiz-adv-x="850" d="M768 293v495h-107v-495h107zM552 337v100h-384v196h312v100h-417v-396h489zM761 -156v103h-380v60h357v251h-473v-100h363v-52h-358v-262h491z" />
<glyph unicode="&#xb524;" horiz-adv-x="850" d="M769 228v560h-107v-560h107zM553 306v101h-384v215h312v101h-417v-417h489zM751 -149v345h-478v-345h478zM642 -49h-261v144h261v-144z" />
<glyph unicode="&#xb525;" horiz-adv-x="850" d="M769 266v522h-107v-522h107zM553 337v100h-384v196h312v100h-417v-396h489zM749 -154v389h-109v-108h-260v108h-108v-389h477zM640 -54h-260v81h260v-81z" />
<glyph unicode="&#xb527;" horiz-adv-x="850" d="M769 170v618h-107v-618h107zM553 304v101h-384v207h312v101h-417v-409h489zM794 -84l-257 194q13 38 13 77v44h-113v-26q0 -86 -64.5 -164t-179.5 -115l68 -84q144 47 228 171l233 -174z" />
<glyph unicode="&#xb528;" horiz-adv-x="850" d="M769 231v557h-107v-557h107zM553 302v101h-384v219h312v101h-417v-421h489zM845 -77l-180 155q7 33 8 67v57h-111v-54q0 -51 -22.5 -98.5t-63.5 -78.5l-95 95q6 17 11 79v57h-113v-54q0 -71 -44.5 -131.5t-130.5 -86.5l72 -87q104 45 155 121l136 -127q44 14 86.5 50 t70.5 87l150 -126z" />
<glyph unicode="&#xb529;" horiz-adv-x="850" d="M768 231v557h-107v-557h107zM552 307v101h-384v214h312v101h-417v-416h489zM736 37q0 87 -67.5 144.5t-161.5 57.5q-93 0 -160.5 -58.5t-67.5 -144.5t65.5 -145.5t163.5 -59.5q95 0 161.5 60.5t66.5 145.5zM626 35q0 -46 -33.5 -75t-84.5 -29q-53 0 -86.5 30.5 t-33.5 75.5q0 43 35 73t84 30q51 0 85 -29.5t34 -75.5z" />
<glyph unicode="&#xb52a;" horiz-adv-x="850" d="M769 256v532h-107v-532h107zM553 320v101h-384v201h312v101h-417v-403h489zM817 -81l-210 120q93 89 118 182h-476v-100h290q-61 -65 -156 -117t-206 -77l68 -86q139 31 273 125l235 -131z" />
<glyph unicode="&#xb530;" horiz-adv-x="920" d="M899 373v100h-164v315h-107v-910h107v495h164zM597 156v102h-216v303h176v101h-282v-404h-147v303h133v101h-241v-506h577z" />
<glyph unicode="&#xb531;" horiz-adv-x="920" d="M900 474v101h-158v213h-107v-567h107v253h158zM594 297v102h-215v223h176v101l-281 -1l-1 -323h-147v223h135v101h-242v-426h575zM731 -167v361h-491v-101h384v-260h107z" />
<glyph unicode="&#xb534;" horiz-adv-x="920" d="M899 455v103h-157v230h-106v-658h106v325h157zM595 276v101h-215v235h176v102h-282v-337h-147v235h132v101h-239v-437h575zM755 -147v102h-391v233h-107v-335h498z" />
<glyph unicode="&#xb538;" horiz-adv-x="920" d="M901 491v101h-158v196h-107v-499h107v202h158zM594 338v101h-215v194h176v100h-282v-294h-147v194h133v100h-240v-395h575zM750 -156v103h-379v58h356v251h-473v-100h362v-52h-357v-260h491z" />
<glyph unicode="&#xb540;" horiz-adv-x="920" d="M917 474v101h-158v213h-107v-557h107v243h158zM611 297v102h-215v223h176v101h-282v-324h-147v223h130v101h-237v-426h575zM748 -149v345h-479v-345h479zM638 -49h-261v144h261v-144z" />
<glyph unicode="&#xb541;" horiz-adv-x="920" d="M917 495v101h-158v192h-107v-518h107v225h158zM611 325v102h-215v206h176v100h-282v-306h-147v206h127v100h-234v-408h575zM749 -154v393h-109v-111h-260v111h-108v-393h477zM640 -54h-260v82h260v-82z" />
<glyph unicode="&#xb543;" horiz-adv-x="920" d="M916 464v101h-158v223h-107v-628h107v304h158zM610 292v101h-215v219h176v101h-282v-320h-147v219h128v101h-235v-421h575zM794 -84l-257 194q13 38 13 77v44h-113v-26q0 -86 -64.5 -164t-179.5 -115l68 -84q144 47 228 171l233 -174z" />
<glyph unicode="&#xb544;" horiz-adv-x="920" d="M916 474v101h-158v213h-107v-560h107v246h158zM610 294v101h-215v227h176v101h-282v-328h-147v227h129v101h-236v-429h575zM845 -77l-180 155q7 33 8 67v57h-111v-54q0 -51 -22.5 -98.5t-63.5 -78.5l-95 95q6 17 11 79v57h-113v-54q0 -71 -44.5 -131.5t-130.5 -86.5 l72 -87q104 45 155 121l136 -127q44 14 86.5 50t70.5 87l150 -126z" />
<glyph unicode="&#xb545;" horiz-adv-x="920" d="M917 474v101h-158v213h-107v-557h107v243h158zM611 297v102h-215v223h176v101h-282v-324h-147v223h129v101h-236v-426h575zM738 37q0 87 -67.5 144.5t-161.5 57.5q-93 0 -160.5 -58.5t-67.5 -144.5t65.5 -145.5t163.5 -59.5q95 0 161.5 60.5t66.5 145.5zM628 35 q0 -46 -33.5 -75t-84.5 -29q-53 0 -86.5 30.5t-33.5 75.5q0 43 35 73t84 30q51 0 85 -29.5t34 -75.5z" />
<glyph unicode="&#xb54b;" horiz-adv-x="920" d="M586 358v102h-215v173h176v100h-282v-273h-147v173h127v100h-234v-375h575zM734 292v213h158v102h-158v181h-107v-473q-126 -5 -212 0q-56 6 -106 28l-34 -80q43 -31 129 -45q126 -8 223 0v75zM763 75v97h-586v-97h118q-38 -27 -38 -79q0 -77 63.5 -122t151.5 -45 t149 44.5t61 123.5q0 22 -11.5 45t-27.5 33h120zM565 -3q0 -33 -29 -52.5t-66 -19.5q-36 0 -66.5 20t-30.5 52q0 33 30 51.5t66 18.5q37 0 66.5 -18.5t29.5 -51.5z" />
<glyph unicode="&#xb54c;" horiz-adv-x="920" d="M874 -122v910h-107v-345h-82v325h-107v-828h107v402h82v-464h107zM551 156v102h-169v303h140v101h-246v-404h-124v303h110v101h-217v-506h506z" />
<glyph unicode="&#xb54d;" horiz-adv-x="920" d="M859 211v577h-105v-216h-85v195h-108v-536h108v241h85v-261h105zM539 297v102h-169v223h140v101h-248v-324h-116v223h100v101h-206v-426h499zM818 -167v351h-490v-101h383v-250h107z" />
<glyph unicode="&#xb550;" horiz-adv-x="920" d="M859 130v658h-105v-235h-85v214h-108v-598h108v283h85v-322h105zM539 276v101h-169v235h140v101h-248v-336h-116v235h99v101h-205v-437h499zM851 -147v102h-390v213h-107v-315h497z" />
<glyph unicode="&#xb554;" horiz-adv-x="920" d="M859 281v507h-105v-200h-85v179h-108v-472h108v193h85v-207h105zM539 327v102h-169v204h140v100h-248v-304h-116v204h99v100h-205v-406h499zM837 -156v103h-379v57h354v249h-471v-100h362v-50h-356v-259h490z" />
<glyph unicode="&#xb55c;" horiz-adv-x="920" d="M859 218v570h-105v-216h-85v195h-108v-530h108v235h85v-254h105zM539 297v102h-169v223h140v101h-248v-324h-116v223h99v101h-205v-426h499zM827 -149v341h-477v-341h477zM718 -49h-260v141h260v-141z" />
<glyph unicode="&#xb55d;" horiz-adv-x="920" d="M859 262v526h-105v-212h-85v191h-108v-486h108v195h85v-214h105zM539 317v102h-169v214h140v100h-248v-314h-116v214h99v100h-205v-416h499zM810 -154v387h-108v-103h-260v103h-108v-387h476zM702 -54h-260v83h260v-83z" />
<glyph unicode="&#xb55f;" horiz-adv-x="920" d="M867 191v597h-105v-235h-85v214h-108v-521h108v206h85v-261h105zM547 287v101h-169v224h140v101h-248v-325h-116v224h99v101h-205v-426h499zM872 -84l-257 194q13 38 13 77v24h-113v-6q0 -87 -65 -164t-186 -114l75 -85q143 47 228 172l233 -175z" />
<glyph unicode="&#xb560;" horiz-adv-x="920" d="M860 215v573h-105v-222h-85v201h-108v-533h108v232h85v-251h105zM540 291v101h-169v230h140v101h-248v-331h-116v230h99v101h-205v-432h499zM919 -82l-181 160q7 33 8 67v57h-110v-54q0 -51 -21.5 -99.5t-59.5 -79.5l-102 101q7 18 11 75v57h-111v-54q0 -71 -44.5 -131.5 t-130.5 -86.5l72 -87q104 45 158 127l133 -133q104 42 157 137l150 -131z" />
<glyph unicode="&#xb561;" horiz-adv-x="920" d="M869 220v568h-105v-218h-85v197h-108v-508h108v211h85v-250h105zM549 295v101h-169v226h140v101h-248v-327h-116v226h99v101h-205v-428h499zM800 37q0 87 -67.5 144.5t-161.5 57.5q-93 0 -160.5 -58.5t-67.5 -144.5t65.5 -145.5t163.5 -59.5q95 0 161.5 60.5t66.5 145.5z M690 35q0 -46 -33.5 -75t-84.5 -29q-53 0 -86.5 30.5t-33.5 75.5q0 43 35 73t84 30q51 0 85 -29.5t34 -75.5z" />
<glyph unicode="&#xb5a0;" horiz-adv-x="880" d="M811 -122v910h-106v-316h-189v-101h189v-493h106zM634 156v102h-220v303h191v101h-297v-404h-152v303h138v101h-245v-506h585z" />
<glyph unicode="&#xb5a1;" horiz-adv-x="880" d="M812 225v563h-107v-226h-179v-101h179v-236h107zM622 292v101h-215v229h176v101h-282v-330h-147v229h134v101h-241v-431h575zM789 -167v357h-489v-101h383v-256h106z" />
<glyph unicode="&#xb5a4;" horiz-adv-x="880" d="M807 125v663h-107v-246h-189v-100h189v-317h107zM617 267v101h-215v244h176v101h-282v-345h-147v244h128v101h-235v-446h575zM818 -147v102h-391v224h-107v-326h498z" />
<glyph unicode="&#xb5a8;" horiz-adv-x="880" d="M812 286v502h-107v-207h-189v-99h189v-196h107zM622 327v102h-215v204h176v100h-282v-304h-147v204h128v100h-235v-406h575zM805 -156v103h-380v60h355v251h-471v-100h361v-52h-356v-262h491z" />
<glyph unicode="&#xb5aa;" horiz-adv-x="880" d="M812 282v506h-107v-207h-189v-99h189v-200h107zM622 327v102h-215v204h176v100h-282v-304h-147v204h128v100h-235v-406h575zM804 -156v410h-288v-410h288zM506 -156v103h-202v55h185v253h-297v-100h187v-57h-185v-254h312zM694 -57h-72v210h72v-210z" />
<glyph unicode="&#xb5ab;" horiz-adv-x="880" d="M812 282v506h-107v-207h-189v-99h189v-200h107zM622 327v102h-215v204h176v100h-282v-304h-147v204h128v100h-235v-406h575zM802 -155v410h-106v-125h-92v125h-106v-410h304zM487 -156v103h-211v54h189v253h-302v-100h192v-56h-190v-254h322zM696 -55h-92v84h92v-84z" />
<glyph unicode="&#xb5b0;" horiz-adv-x="880" d="M812 231v557h-107v-226h-179v-101h179v-230h107zM622 292v101h-215v229h176v101h-282v-330h-147v229h128v101h-235v-431h575zM793 -149v345h-477v-345h477zM685 -49h-261v144h261v-144z" />
<glyph unicode="&#xb5b1;" horiz-adv-x="880" d="M812 272v516h-107v-207h-179v-100h179v-209h107zM622 321v102h-215v210h176v100h-282v-310h-147v210h128v100h-235v-412h575zM791 -154v395h-108v-101h-260v101h-108v-395h476zM683 -54h-260v94h260v-94z" />
<glyph unicode="&#xb5b3;" horiz-adv-x="880" d="M798 160v628h-107v-234h-179v-101h179v-293h107zM608 290v103h-215v219h176v101h-282v-320h-147v219h128v101h-235v-421zM827 -84l-257 194q13 38 13 77v44h-113v-26q0 -86 -64.5 -164t-179.5 -115l68 -84q144 47 228 171l233 -174z" />
<glyph unicode="&#xb5b4;" horiz-adv-x="880" d="M802 197v591h-107v-234h-179v-101h179v-256h107zM612 290v103h-215v219h176v101h-282v-320h-147v219h128v101h-235v-421zM843 -77l-180 155q7 33 8 67v57h-111v-54q0 -51 -22.5 -98.5t-63.5 -78.5l-95 95q6 17 11 79v57h-113v-54q0 -71 -44.5 -131.5t-130.5 -86.5l72 -87 q104 45 155 121l136 -127q44 14 86.5 50t70.5 87l150 -126z" />
<glyph unicode="&#xb5b5;" horiz-adv-x="880" d="M822 221v567h-107v-227h-179v-101h179v-239h107zM632 297v102h-215v223h176v101h-282v-324h-147v223h128v101h-235v-426h575zM788 37q0 87 -67.5 144.5t-161.5 57.5q-93 0 -160.5 -58.5t-67.5 -144.5t65.5 -145.5t163.5 -59.5q95 0 161.5 60.5t66.5 145.5zM678 35 q0 -46 -33.5 -75t-84.5 -29q-53 0 -86.5 30.5t-33.5 75.5q0 43 35 73t84 30q51 0 85 -29.5t34 -75.5z" />
<glyph unicode="&#xb5bb;" horiz-adv-x="880" d="M817 282v506h-107v-192h-179v-100h179v-214h107zM627 358v102h-215v173h176v100h-282v-273h-147v173h128v100h-235v-375h575zM631 -3q0 -33 -29 -52.5t-66 -19.5q-36 0 -66.5 20t-30.5 52q0 33 30 51.5t66 18.5q37 0 66.5 -18.5t29.5 -51.5zM361 75q-38 -27 -38 -79 q0 -77 63.5 -122t151.5 -45t149 44.5t61 123.5q0 22 -11.5 45t-27.5 33h120v97h-586v-97h118zM693 315q-104 -5 -212 0q-60 8 -106 28l-34 -80q47 -33 129 -45q122 -5 223 0v97z" />
<glyph unicode="&#xb5bc;" horiz-adv-x="920" d="M864 -122v910h-107v-910h107zM686 -60v828h-106v-303h-152v-101h152v-424h106zM547 156v102h-177v303h137v101h-244v-404h-120v303h97v101h-204v-506h511z" />
<glyph unicode="&#xb5bd;" horiz-adv-x="920" d="M859 222v566h-105v-566h105zM691 242v525h-107v-209h-144v-101h144v-215h107zM547 289v100h-179v234h140v100h-248v-334h-114v234h97v100h-203v-434h507zM818 -167v352h-490v-101h383v-251h107z" />
<glyph unicode="&#xb5c0;" horiz-adv-x="920" d="M869 125v663h-105v-663h105zM701 155v612h-107v-225h-144v-99h144v-288h107zM557 267v101h-179v245h140v100h-248v-345h-114v245h97v100h-203v-446h507zM852 -45h-381v219h-107v-321h487z" />
<glyph unicode="&#xb5c4;" horiz-adv-x="920" d="M859 284v504h-105v-504h105zM691 292v475h-107v-191h-144v-100h144v-184h107zM547 313v101h-179v220h140v99h-248v-319h-114v220h97v99h-203v-420h507zM837 -156v103h-379v51h354v251h-471v-99h362v-53h-356v-253h490z" />
<glyph unicode="&#xb5cc;" horiz-adv-x="920" d="M859 227v561h-105v-561h105zM691 247v520h-107v-204h-144v-101h144v-215h107zM547 293v100h-179v230h140v100h-248v-330h-114v230h97v100h-203v-430h507zM827 -149v345h-477v-345h477zM718 -49h-260v144h260v-144z" />
<glyph unicode="&#xb5cd;" horiz-adv-x="920" d="M859 261v527h-105v-527h105zM691 271v496h-107v-195h-144v-100h144v-201h107zM547 313v101h-179v220h140v99h-248v-319h-114v220h97v99h-203v-420h507zM810 -154v390h-108v-100h-260v100h-108v-390h476zM702 -54h-260v89h260v-89z" />
<glyph unicode="&#xb5cf;" horiz-adv-x="920" d="M859 191v597h-105v-597h105zM691 243v524h-107v-217h-144v-101h144v-206h107zM547 280v100h-179v233h140v100h-248v-333h-114v233h97v100h-203v-433h507zM858 -84l-257 194q13 38 13 77v34h-113v-16q0 -87 -65 -164t-186 -114l75 -85q143 47 228 172l233 -175z" />
<glyph unicode="&#xb5d0;" horiz-adv-x="920" d="M850 219v569h-105v-569h105zM682 243v524h-107v-212h-144v-101h144v-211h107zM538 285v100h-179v238h140v100h-248v-338h-114v238h97v100h-203v-438h507zM889 -82l-181 160q7 33 8 67v56h-110v-53q0 -51 -21.5 -99.5t-59.5 -79.5l-102 101q7 18 11 75v56h-111v-53 q0 -71 -44.5 -131.5t-130.5 -86.5l72 -87q104 45 158 127l133 -133q104 42 157 137l150 -131z" />
<glyph unicode="&#xb5d1;" horiz-adv-x="920" d="M859 237v551h-105v-551h105zM691 261v506h-107v-210h-144v-101h144v-195h107zM547 291v100h-179v232h140v100h-248v-332h-114v232h97v100h-203v-432h507zM804 37q0 87 -67.5 144.5t-161.5 57.5q-93 0 -160.5 -58.5t-67.5 -144.5t65.5 -145.5t163.5 -59.5q95 0 161.5 60.5 t66.5 145.5zM694 35q0 -46 -33.5 -75t-84.5 -29q-53 0 -86.5 30.5t-33.5 75.5q0 43 35 73t84 30q51 0 85 -29.5t34 -75.5z" />
<glyph unicode="&#xb5d8;" horiz-adv-x="880" d="M811 -122v910h-106v-246h-179v-100h179v-58h-179v-100h179v-406h106zM629 156v102h-215v303h186v101h-292v-404h-152v303h137v101h-244v-506h580z" />
<glyph unicode="&#xb5ec;" horiz-adv-x="880" d="M782 226v562h-105v-175h-177v-96h177v-41h-177v-96h177v-154h105zM591 270v101h-215v252h186v100h-292v-352h-147v252h132v100h-239v-453h575zM844 -82l-181 160q7 33 8 67v57h-110v-54q0 -51 -21.5 -99.5t-59.5 -79.5l-102 101q7 18 11 75v57h-111v-54 q0 -71 -44.5 -131.5t-130.5 -86.5l72 -87q104 45 158 127l133 -133q104 42 157 137l150 -131z" />
<glyph unicode="&#xb610;" d="M738 249v101h-225v237h226v99h-332v-336h-161v237h148v99h-255v-437h599zM504 238h-107v-147h-375v-101h856v101h-374v147z" />
<glyph unicode="&#xb611;" d="M878 227v101h-372v75h218v102h-207v145h207v102h-313v-247h-146v145h133v102h-240v-349h241v-75h-377v-101h856zM691 -168v329h-490v-102h383v-227h107z" />
<glyph unicode="&#xb614;" d="M878 207v101h-372v85h218v101h-207v156h207v102h-313v-258h-146v156h133v102h-240v-359h241v-85h-377v-101h856zM717 -146v102h-397v200h-105v-302h502z" />
<glyph unicode="&#xb618;" d="M878 279v99h-372v66h218v101h-207v116h207v101h-313v-217h-146v116h133v101h-240v-318h241v-66h-377v-99h856zM716 -156v102h-387v48h363v243h-478v-99h367v-46h-362v-248h497z" />
<glyph unicode="&#xb625;" d="M878 249v100h-372v64h218v102h-207v135h207v102h-313v-237h-146v135h133v102h-240v-339h241v-64h-377v-100h856zM689 28q0 89 -67.5 144t-169.5 55q-100 0 -166 -55.5t-66 -144.5q0 -87 67.5 -142t164.5 -55q103 0 170 56t67 142zM579 30q0 -48 -35 -74.5t-92 -26.5 q-52 0 -88 28t-36 73q0 47 35 75t89 28t90.5 -28.5t36.5 -74.5z" />
<glyph unicode="&#xb62c;" horiz-adv-x="940" d="M939 345v100h-165v343h-107v-910h107v467h165zM654 130v102q-139 -32 -272 -35v105h199v102h-177v178h174v99h-280v-277h-131v178h116v99h-223v-379h214v-105h-263v-101h260q66 0 113 1t90 6t58.5 6.5t63 10t58.5 10.5z" />
<glyph unicode="&#xb634;" horiz-adv-x="940" d="M922 463v101h-158v224h-107v-520h107v195h158zM643 310v102q-143 -33 -279 -35v59h210v101h-177v97h174v99h-281v-196h-130v97h116v99h-223v-297h204v-59h-241v-101h244q66 0 113 1t90 6t58.5 6.5t63 10t58.5 10.5zM769 -156v103h-390v53h367v240h-484v-97h373v-46h-368 v-253h502z" />
<glyph unicode="&#xb648;" horiz-adv-x="940" d="M872 -122v910h-107v-345h-77v325h-106v-828h106v402h77v-464h107zM570 130v102q-109 -28 -208 -33v103h178v102h-163v178h158v99h-265v-277h-104v178h86v99h-194v-379h194v-105h-225v-101h199q58 0 100 1.5t79 5.5t53.5 6.5t56.5 10t55 10.5z" />
<glyph unicode="&#xb664;" horiz-adv-x="890" d="M824 -122v910h-106v-910h106zM708 130v101q-172 -33 -293 -34v105h209v102h-187v178h184v99h-290v-277h-142v178h124v99h-230v-379h224v-105h-273v-101h292q65 0 112 1t90 6t58.5 6.5t63 10t58.5 10.5z" />
<glyph unicode="&#xb668;" horiz-adv-x="860" d="M799 115v673h-107v-673h107zM679 231v99q-114 -22 -290 -29v77h211v101h-178v133h175v101h-281v-234h-131v133h114v101h-220v-335h204v-77h-265v-101h276q38 0 72.5 1t60 1.5t54.5 3t44 4t42 5t36 5t38.5 6t37.5 5.5zM809 -147v102h-389v205h-107v-307h496z" />
<glyph unicode="&#xb69c;" d="M725 363v102h-210v168h210v100h-315v-268h-156v168h142v100h-249v-370h578zM878 181v101h-856v-101h374v-321h108v321h374z" />
<glyph unicode="&#xb69d;" d="M726 419v102h-202v129h202v102h-308v-231h-152v129h138v102h-244v-333h566zM878 255v100h-857v-100h378v-81h-196v-101h384v-241h106v342h-187v81h372z" />
<glyph unicode="&#xb6a0;" d="M727 405v102h-202v143h202v102h-308v-245h-152v143h138v102h-244v-347h566zM878 236v99h-857v-99h391v-188h107v188h359zM714 -146v102h-397v207h-105v-309h502z" />
<glyph unicode="&#xb6a4;" d="M730 447v101h-207v113h207v101h-313v-214h-147v113h133v101h-239v-315h566zM878 300v100h-856v-100h381v-57h-186v-98h367v-50h-362v-251h497v102h-386v50h362v247h-185v57h368z" />
<glyph unicode="&#xb6ab;" d="M730 451v102h-207v108h207v101h-313v-209h-147v108h133v101h-239v-311h566zM878 306v99h-856v-99h381v-64h-274v-99h183v-47h-181v-252h327v68q17 -40 60 -62t98 -23q72 -1 119.5 36t48.5 102q0 54 -42 79h77v91h-389v-91h64q-19 -12 -32.5 -34.5t-13.5 -45.5 q0 -12 1 -17h-208v50h179v169h90v22q43 -16 78 -18q97 -3 153 3v95q-59 -6 -143 -3q-35 3 -88 19v22h368zM676 -30q-1 -23 -18.5 -37t-42.5 -13q-24 1 -40.5 15.5t-17.5 36.5q-1 24 15.5 39.5t44.5 15.5t44 -16t15 -41z" />
<glyph unicode="&#xb6ac;" d="M730 418v102h-207v130h207v102h-313v-232h-147v130h133v102h-239v-334h566zM878 257v100h-856v-100h381v-75h-188v-331h487v331h-192v75h368zM594 -49h-271v131h271v-131z" />
<glyph unicode="&#xb6b1;" d="M729 418v102h-207v130h207v102h-313v-232h-147v130h133v102h-239v-334h566zM878 270v99h-856v-99h381v-48q-79 -15 -128 -67t-49 -128q0 -87 67.5 -142t164.5 -55q103 0 170 56t67 142q0 77 -51.5 129t-133.5 66v47h368zM585 30q0 -48 -35 -74.5t-92 -26.5q-52 0 -88 28 t-36 73q0 47 35 75t89 28t90.5 -28.5t36.5 -74.5z" />
<glyph unicode="&#xb6d4;" horiz-adv-x="940" d="M866 -122v910h-107v-910h107zM694 -82v850h-106v-598h-167v-101h167v-151h106zM540 380v100h-150v132h146v101h-252v-233h-113v132h95v101h-202v-333h476zM573 241v103q-163 -33 -374 -33h-166v-101h161h63v0v0v0v-1v0v0v-1v0v-1v0v-1v0v-1v0v-1v-1v-1v-1v-1v-1v-1v-1v-1 v-1v-1v-1v-1v-1v-1v-1v-1v-1v-1v-1v-1v-1v-1v-1v-1v-1v-1v-1v-1v-1v-1v-1v-1v-1v-1v-1v-1v-1v-1v-1v-1v-1v-1v-1v-1v-1v-1v-1v-1v-1v-1v-1v-1v-1v-1v-1v-2v-1v-1v-1v-1v-1v-1v-1v-1v-2v-1v-1v-1v-1v-1v-2v-1v-1v-1v-1v-2v-1v-1v-1v-1v-2v-1v-1v-1v-2v-1v-1v-2v-1v-1v-1v-2 v-1v-1v-2v-1v-1v-2v-1v-1v-2v-1v-1v-2v-1v-2v-1v-1v-2v-1v-1v-2v-1v-2v-1v-2v-1v-1v-2v-1v-2v-1v-2v-1v-2v-1v-2v-1v-2v-1v-2v-1v-2v-1v-2v-1v-2v-1v-2v-1v-2v-1v-2v-1v-2v-2v-1v-2v-1v-2v-1v-2v-2v-1v-2v-1v-2v-2v-1v-2v-2v-1v-2v-2v-1v-2v-1v-2v-2v-1v-2v-2v-2v-1v-2v-2 v-1v-2v-2v-1v-2v-2v-2v-1v-2v-2v-2v-1v-2v-2v-2v-1v-2v-2v-2v-1v-2v-2v-2v-2v-1v-2v-2v-2v-2v-1v-2v-2v-2v-2v-2v-1v-2v-2v-2v-2v-2v-2v-1v-10h108v323q33 2 63.5 5.5t47.5 6t49 8t48 7.5z" />
<glyph unicode="&#xb6f0;" horiz-adv-x="890" d="M812 -122v910h-106v-910h106zM618 362v102h-175v148h169v101h-275v-249h-128v148h113v101h-219v-351h515zM690 222v103q-173 -35 -416 -35h-227l1 -99h212h51v-300h106v0v0v0v1v0v0v1v0v1v0v1v0v1v0v1v1v1v1v1v1v1v1v1v1v1v1v1v1v1v1v1v1v1v1v1v1v1v1v1v1v1v1v1v1v1v1v1 v1v1v1v1v1v1v1v1v1v2v1v1v1v1v1v1v1v1v1v1v1v1v1v1v2v1v1v1v1v1v1v2v1v1v1v1v1v2v1v1v1v2v1v1v1v2v1v1v1v2v1v1v1v2v1v1v2v1v1v2v1v1v2v1v2v1v1v2v1v1v2v1v2v1v1v2v1v2v1v2v1v2v1v1v2v1v2v1v2v1v2v1v2v1v2v1v2v2v1v2v1v2v1v2v1v2v2v1v2v1v2v2v1v2v1v2v2v1v2v2v1v2v1v2v2v1v2 v2v1v2v2v2v1v2v2v1v2v2v2v1v2v2v1v2v2v2v1v2v2v2v2v1v2v2v2v2v1v2v2v2v2v1v2v2v2v2v2v2v1v2v2v2v2v2v2v8q130 7 273 28z" />
<glyph unicode="&#xb6f4;" horiz-adv-x="890" d="M807 124v664h-105v-664h105zM617 419v102h-177v101h174v101h-280v-202h-131v101h117v101h-224v-304h521zM691 301v102q-163 -36 -406 -36h-237v-97h203h38v-112h105v114q132 5 297 29zM811 -147v102h-401v188h-108v-290h509z" />
<glyph unicode="&#xb6f8;" horiz-adv-x="890" d="M811 253v535h-104v-535h104zM618 460v102h-177v71h174v100h-280v-171h-131v71h110v100h-216v-273h520zM695 357v101q-164 -35 -419 -35h-228v-97h204h38v-76h106v78q134 5 299 29zM808 -156v103h-390v45h365v238h-481v-99h371v-43h-366v-244h501z" />
<glyph unicode="&#xb700;" horiz-adv-x="890" d="M811 197v591h-104v-591h104zM618 421v102h-177v99h174v101h-280v-200h-131v99h116v101h-222v-302h520zM695 307v102q-169 -36 -419 -36h-228v-97h204h38v-91h106v93q134 5 299 29zM788 -149v316h-487v-316h487zM680 -49h-271v115h271v-115z" />
<glyph unicode="&#xb701;" horiz-adv-x="890" d="M811 232v556h-104v-556h104zM618 454v102h-177v77h174v100h-280v-177h-131v77h116v100h-222v-279h520zM695 348v100q-167 -34 -419 -34h-228v-98h204h38v-90h106v92q126 4 299 30zM789 -154v363h-108v-87h-270v87h-108v-363h486zM681 -54h-270v75h270v-75z" />
<glyph unicode="&#xb705;" horiz-adv-x="890" d="M811 218v570h-104v-570h104zM618 426v102h-177v95h174v100h-280v-195h-131v95h116v100h-222v-297h520zM695 308v96q-162 -36 -419 -36h-228v-97h204h38v-91h106v0v0v1v0v1v1v1v1v1v1v1v1v1v1v1v1v1v1v1v1v1v1v1v1v1v1v2v1v1v1v2v1v1v2v1v1v2v1v2v1v2v1v1v2v2v1v2v1v2v1v2 v2v1v2v2v1v2v2v2v1v2v2v2v1v2v10q127 5 299 35zM809 28q0 89 -67.5 143.5t-168.5 54.5t-167 -55t-66 -144q0 -87 67.5 -141t165.5 -54q102 0 169 55.5t67 140.5zM699 29q0 -48 -35.5 -74.5t-90.5 -26.5q-54 0 -89.5 27.5t-35.5 73.5q0 47 35.5 74.5t89.5 27.5t90 -28t36 -74 z" />
<glyph unicode="&#xb728;" d="M739 249v101h-221v236h221v100h-326v-336h-167v236h153v100h-260v-437h600zM878 0v102h-856v-102h856z" />
<glyph unicode="&#xb729;" d="M720 399v102h-202v149h202v102h-308v-251h-146v149h133v102h-240v-353h561zM878 231v100h-856v-100h856zM693 -168v329h-490v-102h383v-227h107z" />
<glyph unicode="&#xb72c;" d="M720 389v101h-202v160h202v102h-308v-262h-146v160h133v102h-240v-363h561zM878 213v101h-856v-101h856zM717 -146v102h-397v201h-105v-303h502z" />
<glyph unicode="&#xb72f;" d="M720 399v102h-202v149h202v102h-308v-251h-146v149h133v102h-240v-353h561zM878 241v100h-856v-100h856zM706 -151v101h-391v128h381v101h-488v-330h498z" />
<glyph unicode="&#xb730;" d="M723 440v101h-201v120h201v101h-307v-221h-147v120h133v101h-239v-322h560zM878 288v100h-856v-100h856zM719 -156v102h-386v48h362v243h-478v-99h367v-46h-362v-248h497z" />
<glyph unicode="&#xb738;" d="M720 413v102h-202v135h202v102h-308v-237h-146v135h133v102h-240v-339h561zM878 250v101h-856v-101h856zM702 -149v332h-487v-332h487zM594 -49h-271v132h271v-132z" />
<glyph unicode="&#xb739;" d="M723 438v101h-201v122h201v101h-307v-223h-147v122h133v101h-239v-324h560zM878 275v100h-856v-100h856zM704 -154v392h-108v-103h-270v103h-108v-392h486zM596 -54h-270v88h270v-88z" />
<glyph unicode="&#xb73b;" d="M720 399v102h-202v149h202v102h-308v-251h-146v149h133v102h-240v-353h561zM878 245v98h-856v-98h856zM768 -82l-267 176q14 39 14 76v38h-115v-26q0 -80 -65.5 -149t-186.5 -106l72 -85q147 46 229 158l247 -163z" />
<glyph unicode="&#xb744;" horiz-adv-x="890" d="M822 -122v910h-106v-910h106zM627 301v102h-189v179h183v99h-288v-278h-140v179l123 -2l-1 101h-228v-380h540zM699 130v101q-154 -32 -382 -34h-279v-101h281q65 0 112.5 1.5t89 5.5t58.5 6.5t61.5 10.5t58.5 10z" />
<glyph unicode="&#xb748;" horiz-adv-x="890" d="M810 115v673h-107v-673h107zM602 368v101h-175v143h172v101h-278v-244h-129v143l110 -2l2 103h-218v-345h516zM687 235v97q-192 -26 -383 -27h-269v-101h263q67 0 116.5 1t94.5 5.5l60 6t63.5 9.5t54.5 9zM815 -147v102h-399v201h-107v-303h506z" />
<glyph unicode="&#xb74c;" horiz-adv-x="890" d="M817 266v522h-107v-522h107zM616 419v102h-175v112h172v100h-278v-212h-129v112h111v100h-217v-314h516zM694 307v98q-192 -28 -383 -29h-269v-100h263q67 0 117.5 1.5t91.5 5.5t62.5 6.5t61.5 9t56 8.5zM804 -156v103h-389v44h365v239h-482v-100h372v-41h-367v-245h501z " />
<glyph unicode="&#xb754;" horiz-adv-x="890" d="M819 220v568h-107v-568h107zM620 399v102h-175v121h172v101h-278v-222h-129v121l110 -2l2 103h-218v-324h516zM694 275v97q-192 -26 -383 -27h-270v-100h264q67 0 117 1.5t92.5 5t62 6t62 9t55.5 8.5zM798 -149v345h-488v-345h488zM689 -49h-270v144h270v-144z" />
<glyph unicode="&#xb755;" horiz-adv-x="890" d="M819 266v522h-107v-522h107zM620 419v102h-175v112h172v100h-278v-212h-129v112h112v100h-218v-314h516zM694 303v98q-192 -28 -383 -29h-270v-100h264q67 0 117.5 1.5t91.5 5.5t62.5 6.5t61.5 9t56 8.5zM789 -154v385h-109v-99h-270v99h-108v-385h487zM680 -54h-270v85 h270v-85z" />
<glyph unicode="&#xb760;" horiz-adv-x="880" d="M802 -122v910h-107v-910h107zM655 156v102h-236v303h187v101h-293v-404h-148v303h131v101h-238v-506h597z" />
<glyph unicode="&#xb764;" horiz-adv-x="880" d="M797 130v658h-107v-658h107zM638 271v101h-226v240h176v101h-282v-341h-147v240h128v101h-236v-442h587zM808 -147v102h-391v228h-107v-330h498z" />
<glyph unicode="&#xb768;" horiz-adv-x="880" d="M803 293v495h-107v-495h107zM644 327v102h-226v204h176v100h-282v-304h-147v204h129v100h-237v-406h587zM795 -156v103h-379v60h355v251h-471v-100h361v-52h-356v-262h490z" />
<glyph unicode="&#xb770;" horiz-adv-x="880" d="M803 231v557h-107v-557h107zM644 297v102h-226v223h176v101h-282v-324h-147v223h128v101h-236v-426h587zM784 -149v345h-477v-345h477zM675 -49h-260v144h260v-144z" />
<glyph unicode="&#xb771;" horiz-adv-x="880" d="M803 265v523h-107v-523h107zM644 327v102h-226v204h176v100h-282v-304h-147v204h129v100h-237v-406h587zM782 -154v388h-109v-104h-259v104h-108v-388h476zM673 -54h-259v83h259v-83z" />
<glyph unicode="&#xb773;" horiz-adv-x="880" d="M791 160v628h-107v-628h107zM632 288v101h-226v223h176v101h-282v-324h-147v223h128v101h-236v-425h587zM814 -84l-257 194q13 38 13 77v44h-113v-26q0 -86 -64.5 -164t-179.5 -115l68 -84q144 47 228 171l233 -174z" />
<glyph unicode="&#xb775;" horiz-adv-x="880" d="M803 221v567h-107v-567h107zM644 297v102h-226v223h176v101h-282v-324h-147v223h128v101h-236v-426h587zM760 37q0 87 -67.5 144.5t-161.5 57.5q-93 0 -160.5 -58.5t-67.5 -144.5t65.5 -145.5t163.5 -59.5q95 0 161.5 60.5t66.5 145.5zM650 35q0 -46 -33.5 -75t-84.5 -29 q-53 0 -86.5 30.5t-33.5 75.5q0 43 35 73t84 30q51 0 85 -29.5t34 -75.5z" />
<glyph unicode="&#xb77c;" d="M893 353v101h-160v334h-108v-910h108v475h160zM550 130v100h-381v122h280v316h-394v-100h283v-115h-278v-323h490z" />
<glyph unicode="&#xb77d;" d="M892 454v102h-157v232h-108v-572h108v238h157zM534 252v101h-369v88h273v288h-386v-100h277v-88h-272v-289h477zM722 -167v346h-490v-101h385v-245h105z" />
<glyph unicode="&#xb780;" d="M890 445v102h-156v241h-107v-658h107v315h156zM534 226v101h-369v97h273v295h-386v-100h277v-94h-272v-299h477zM746 -147v102h-391v203h-108v-305h499z" />
<glyph unicode="&#xb784;" d="M891 481v101h-157v206h-108v-505h108v198h157zM532 295v98h-369v73h273v273h-386v-99h277v-74h-272v-271h477zM741 -156v103h-381v54h355v251h-472v-100h363v-52h-358v-256h493z" />
<glyph unicode="&#xb78c;" d="M892 454v102h-157v232h-108v-572h108v238h157zM534 252v101h-369v88h273v288h-386v-100h277v-88h-272v-289h477zM721 -149v334h-478v-334h478zM613 -49h-261v134h261v-134z" />
<glyph unicode="&#xb78d;" d="M891 485v101h-157v202h-108v-526h108v223h157zM533 289v100h-369v75h273v275h-386v-99h277v-76h-272v-275h477zM722 -154v387h-108v-101h-261v101h-109v-387h478zM614 -54h-261v85h261v-85z" />
<glyph unicode="&#xb78f;" d="M892 463v101h-157v223h-108v-627h108v303h157zM534 250v101h-369v85h273v283h-386v-100h277v-83h-272v-286h477zM774 -84l-256 187q13 38 13 77v24h-113v-6q0 -86 -64.5 -159.5t-179.5 -111.5l68 -85q70 23 132.5 69.5t95.5 94.5l232 -167z" />
<glyph unicode="&#xb790;" d="M892 464v101h-157v223h-108v-567h108v243h157zM534 252v101h-369v88h273v288h-386v-100h277v-88h-272v-289h477zM826 -77l-177 155q8 40 8 67v31h-111v-28q0 -51 -22.5 -98.5t-63.5 -78.5l-94 95q11 31 11 79v31h-113v-28q0 -69 -45.5 -129t-127.5 -89l71 -87 q97 42 153 121l136 -127q44 14 86 50.5t71 87.5l147 -127z" />
<glyph unicode="&#xb791;" d="M891 464v101h-157v223h-108v-561h108v237h157zM533 269v101h-369v80h273v279h-386v-100h277v-79h-272v-281h477zM724 32q0 87 -67.5 142t-161.5 55q-96 0 -162 -56t-66 -142t65.5 -143t163.5 -57q96 0 162 56.5t66 144.5zM614 31q0 -45 -30.5 -72.5t-87.5 -27.5 q-56 0 -88 28t-32 73q0 43 33.5 71.5t85.5 28.5q53 0 86 -27.5t33 -73.5z" />
<glyph unicode="&#xb792;" d="M892 464v101h-157v223h-108v-543h108v219h157zM534 272v100h-369v79h273v278h-386v-100h277v-77h-272v-280h477zM798 -81l-206 111q89 87 115 181h-475v-99h289q-126 -134 -354 -184l68 -87q141 32 267 118l232 -124z" />
<glyph unicode="&#xb796;" d="M891 474v102h-157v212h-108v-562h108v248h157zM533 268v99h-369v83h273v279h-386v-100h277v-81h-272v-280h477zM740 -147v101h-100v133h90v100h-528v-100h92v-133h-103v-101h549zM531 -46h-129v133h129v-133z" />
<glyph unicode="&#xb797;" d="M891 495v101h-157v192h-108v-493q-155 -6 -210 0q-49 5 -106 29l-34 -77q50 -34 133 -44q100 -3 221 0v77h104v215h157zM533 324v99h-369v61h273v255h-386v-99h277v-60h-272v-256h477zM759 67v97h-586v-97h124q-42 -30 -42 -77q0 -77 62.5 -119t151.5 -42t150 41.5 t61 120.5q0 21 -13 43.5t-30 32.5h122zM563 -9q0 -33 -29 -51t-66 -18q-36 0 -66.5 18.5t-30.5 50.5q0 33 29.5 50.5t66.5 17.5q38 0 67 -17.5t29 -50.5z" />
<glyph unicode="&#xb798;" d="M840 -122v910h-105v-314h-103v294h-106v-828h106v433h103v-495h105zM499 130v100h-316v122h245v316h-358v-100h250v-115h-245v-323h424z" />
<glyph unicode="&#xb799;" d="M841 207v581h-106v-225h-96v204h-106v-541h106v236h96v-255h106zM507 252v101h-316v88h231v288h-344v-100h235v-88h-230v-289h424zM799 -167v346h-490v-101h383v-245h107z" />
<glyph unicode="&#xb79c;" d="M841 126v662h-106v-235h-96v214h-106v-601h106v286h96v-326h106zM507 226v101h-316v97h231v295h-344v-100h235v-94h-230v-299h424zM833 -147v102h-391v203h-107v-305h498z" />
<glyph unicode="&#xb7a0;" d="M841 270v518h-106v-190h-96v169h-106v-482h106v213h96v-228h106zM518 293v100h-327v73h231v273h-344v-99h235v-74h-230v-273h435zM818 -156v103h-379v53h360v245h-476v-98h366v-49h-361v-254h490z" />
<glyph unicode="&#xb7a8;" d="M841 214v574h-106v-225h-96v204h-106v-540h106v235h96v-248h106zM507 252v101h-316v88h231v288h-344v-100h235v-88h-230v-289h424zM808 -149v334h-481v-334h481zM699 -49h-264v134h264v-134z" />
<glyph unicode="&#xb7a9;" d="M841 246v542h-106v-206h-96v185h-106v-507h106v223h96v-237h106zM508 286v100h-317v78h231v275h-344v-99h235v-76h-230v-278h425zM798 -154v382h-109v-96h-265v96h-109v-382h483zM689 -54h-265v85h265v-85z" />
<glyph unicode="&#xb7ab;" d="M841 194v594h-106v-225h-96v204h-106v-527h106v222h96v-268h106zM507 252v101h-316v88h231v288h-344v-100h235v-88h-230v-289h424zM836 -84l-257 194q13 38 13 77v24h-113v-6q0 -87 -65 -164t-186 -114l75 -85q143 47 228 172l233 -175z" />
<glyph unicode="&#xb7ac;" d="M840 204v584h-106v-227h-96v206h-106v-542h106v235h96v-256h106zM506 245v100h-316v94h231v290h-344v-100h235v-90h-230v-294h424zM881 -77l-177 155q8 40 8 67v31h-111v-28q0 -51 -22.5 -98.5t-63.5 -78.5l-94 95q11 31 11 79v31h-113v-28q0 -69 -45.5 -129t-127.5 -89 l71 -87q97 42 153 121l136 -127q44 14 86 50.5t71 87.5l147 -127z" />
<glyph unicode="&#xb7ad;" d="M840 221v567h-106v-223h-106v202h-106v-506h106v204h106v-244h106zM496 252v101h-306v88h231v288h-344v-100h235v-88h-230v-289h414zM792 32q0 87 -67.5 142t-161.5 55q-96 0 -162 -56t-66 -142t65.5 -143t163.5 -57q96 0 162 56.5t66 144.5zM682 31q0 -45 -30.5 -72.5 t-87.5 -27.5q-56 0 -88 28t-32 73q0 43 33.5 71.5t85.5 28.5q53 0 86 -27.5t33 -73.5z" />
<glyph unicode="&#xb7b4;" d="M896 221v100h-164v144h164v100h-164v223h-106v-910h106v343h164zM556 130v100h-383v122h282v316h-394v-100h285v-115h-280v-323h490z" />
<glyph unicode="&#xb7b5;" d="M893 348v101h-162v74h162v101h-162v164h-105v-573h105v133h162zM536 252v101h-369v88h273v288h-386v-100h277v-88h-272v-289h477zM724 -167v346h-490v-101h385v-245h105z" />
<glyph unicode="&#xb7b8;" d="M892 317v101h-161v85h161v101h-161v184h-105v-665h105v194h161zM536 226v101h-369v97h273v295h-386v-100h277v-94h-272v-299h477zM748 -147v102h-391v203h-108v-305h499z" />
<glyph unicode="&#xb7c7;" d="M893 328v100h-162v85h162v101h-162v174h-105v-624h105v164h162zM536 250v101h-369v85h273v283h-386v-100h277v-83h-272v-286h477zM776 -84l-256 187q13 38 13 77v24h-113v-6q0 -86 -64.5 -159.5t-179.5 -111.5l68 -85q70 23 132.5 69.5t95.5 94.5l232 -167z" />
<glyph unicode="&#xb7c9;" d="M894 344v101h-162v84h162v101h-162v158h-105v-557h105v113h162zM537 269v101h-369v80h273v279h-386v-100h277v-79h-272v-281h477zM728 32q0 87 -67.5 142t-161.5 55q-96 0 -162 -56t-66 -142t65.5 -143t163.5 -57q96 0 162 56.5t66 144.5zM618 31q0 -45 -30.5 -72.5 t-87.5 -27.5q-56 0 -88 28t-32 73q0 43 33.5 71.5t85.5 28.5q53 0 86 -27.5t33 -73.5z" />
<glyph unicode="&#xb7ec;" horiz-adv-x="850" d="M769 -122v910h-107v-325h-188v-102h188v-483h107zM539 130v100h-381v122h280v316h-394v-100h283v-115h-278v-323h490z" />
<glyph unicode="&#xb7ed;" horiz-adv-x="850" d="M769 216v572h-106v-222h-190v-100h190v-250h106zM528 252v101h-369v88h273v288h-386v-100h277v-88h-272v-289h477zM747 -167v346h-490v-101h383v-245h107z" />
<glyph unicode="&#xb7f0;" horiz-adv-x="850" d="M769 130v658h-106v-236h-190v-101h190v-321h106zM528 226v101h-369v97h273v295h-386v-100h277v-94h-272v-299h477zM781 -147v102h-391v203h-107v-305h498z" />
<glyph unicode="&#xb7f4;" horiz-adv-x="850" d="M768 282v506h-106v-198h-190v-98h190v-210h106zM527 296v100h-369v72h273v271h-386v-99h277v-72h-272v-272h477zM761 -156v103h-379v54h358v250h-475v-100h365v-51h-360v-256h491z" />
<glyph unicode="&#xb7fc;" horiz-adv-x="850" d="M768 221v567h-106v-226h-190v-101h190v-240h106zM527 252v101h-369v88h273v288h-386v-100h277v-88h-272v-289h477zM750 -149v334h-478v-334h478zM641 -49h-260v134h260v-134z" />
<glyph unicode="&#xb7fd;" horiz-adv-x="850" d="M769 262v526h-106v-207h-190v-99h190v-220h106zM528 289v100h-369v75h273v275h-386v-99h277v-76h-272v-275h477zM749 -154v383h-109v-97h-264v97h-109v-383h482zM640 -54h-264v85h264v-85z" />
<glyph unicode="&#xb7ff;" horiz-adv-x="850" d="M769 160v628h-106v-242h-190v-100h190v-286h106zM528 250v101h-369v85h273v283h-386v-100h277v-83h-272v-286h477zM797 -83l-255 186q13 38 13 77v24h-113v-6q0 -86 -66.5 -162t-177.5 -109l68 -85q73 22 133.5 68.5t94.5 95.5l231 -166z" />
</font>
</defs>
</svg>
