<?xml version="1.0" standalone="no"?>
<!DOCTYPE svg PUBLIC "-//W3C//DTD SVG 1.1//EN" "http://www.w3.org/Graphics/SVG/1.1/DTD/svg11.dtd" >
<svg xmlns="http://www.w3.org/2000/svg" xmlns:xlink="http://www.w3.org/1999/xlink" version="1.1">
<metadata></metadata>
<defs>
<font id="seoulnamsanjungbregular" horiz-adv-x="900" >
<font-face units-per-em="1000" ascent="800" descent="-200" />
<missing-glyph horiz-adv-x="330" />
<glyph unicode=" "  horiz-adv-x="330" />
<glyph unicode="&#x09;" horiz-adv-x="330" />
<glyph unicode="&#xa0;" horiz-adv-x="330" />
<glyph unicode="!" horiz-adv-x="310" d="M200 733h-100l12 -575h76zM207 -87v117h-118v-117h118z" />
<glyph unicode="&#x22;" horiz-adv-x="410" d="M324 766h-112l18 -232h74zM166 766h-112l20 -232h74z" />
<glyph unicode="#" horiz-adv-x="640" d="M608 450h-121l55 212h-84l-56 -212h-100l55 212h-84l-55 -212h-117l-21 -73h118l-23 -91h-117l-19 -73h117l-56 -213h84l57 213h100l-55 -213h82l56 213h123l20 73h-123l23 91h121zM383 377l-24 -91h-100l24 91h100z" />
<glyph unicode="$" horiz-adv-x="560" d="M508 186q0 47 -18.5 82.5t-51 56.5t-59 32t-59.5 21q-6 1 -8 2v250q38 -8 60 -34t22 -65h101q0 66 -55 114t-128 51v76h-69v-77q-67 -6 -122.5 -51t-55.5 -126q0 -41 13.5 -73t30.5 -50.5t45 -33t45.5 -20t43.5 -11.5v-273q-84 20 -84 101h-105q24 -157 189 -167v-87h69 v87q81 6 138.5 53.5t57.5 141.5zM243 403q-81 28 -81 109q0 99 81 118v-227zM410 179q0 -54 -31 -87t-67 -37v251q46 -23 72 -51.5t26 -75.5z" />
<glyph unicode="%" horiz-adv-x="860" d="M828 218q0 110 -38.5 163.5t-122.5 53.5q-161 0 -161 -219q0 -108 36 -168.5t125 -60.5q50 0 83.5 19t49.5 54.5t22 72t6 85.5zM572 664h-75l-219 -665h75zM351 449q0 223 -161 223t-161 -225t161 -225q47 0 80 17.5t50 50.5t24 71t7 88zM749 218q0 -79 -17.5 -122 t-64.5 -43q-27 0 -44.5 14t-25 40.5t-10 50.5t-2.5 58q0 76 18.5 115t63.5 39q50 0 66 -39t16 -113zM273 449q0 -77 -18 -119t-65 -42q-27 0 -44.5 13.5t-25 39t-10 49.5t-2.5 57q0 160 82 160q27 0 44 -12.5t25 -36.5t11 -49t3 -60z" />
<glyph unicode="&#x26;" horiz-adv-x="810" d="M760 -19l-141 163l105 100l-65 62l-99 -92l-165 196q1 1 23 16t28 20q93 71 93 149q-3 73 -58.5 110.5t-125.5 37.5q-81 0 -131 -47t-48 -115q2 -62 83 -157q-96 -69 -133 -105q-47 -50 -58 -112.5t17 -117.5q29 -57 88.5 -88.5t126.5 -31.5q112 4 251 116l92 -104h117z M441 595q0 -20 -10.5 -38t-20 -26t-30.5 -24l-42 -34q-20 21 -42 55t-22 61q0 31 24.5 51t57.5 20t59 -18.5t26 -46.5zM492 154q-123 -102 -196 -102q-40 2 -75 26t-51 55q-15 39 -6 71.5t35 58.5q16 16 58.5 49.5t62.5 46.5z" />
<glyph unicode="'" horiz-adv-x="320" d="M189 766h-113l20 -232h74z" />
<glyph unicode="(" horiz-adv-x="350" d="M313 -163v63q-96 47 -104 321q-3 134 0 202q2 105 26.5 189t77.5 113v62q-51 -12 -90 -46.5t-61.5 -84t-34.5 -103t-14 -113.5q-2 -55 -2 -186q0 -47 3.5 -91t16 -99.5t33.5 -98.5t59.5 -79t89.5 -49z" />
<glyph unicode=")" horiz-adv-x="350" d="M239 244q0 141 -2 196q-2 60 -14 113.5t-34.5 103t-61.5 84t-90 46.5v-62q53 -29 77.5 -113t26.5 -189q3 -72 0 -212q-7 -264 -104 -311v-63q202 53 202 407z" />
<glyph unicode="*" horiz-adv-x="370" d="M353 534v71h-84l-47 -12l38 32l41 73l-61 38l-44 -75l-11 -43l-10 43l-43 75l-61 -38l40 -73l33 -28l-46 8h-82v-71h82l48 16l-34 -36l-42 -71l62 -38l44 74l9 51l11 -52l44 -72l63 37l-43 71l-34 32l43 -12h84z" />
<glyph unicode="+" horiz-adv-x="575" d="M533 324v79h-203v202h-86v-202h-203v-79h203v-209h86v209h203z" />
<glyph unicode="," horiz-adv-x="300" d="M193 101h-114l-24 -235h80z" />
<glyph unicode="-" horiz-adv-x="420" d="M375 321v86h-330v-86h330z" />
<glyph unicode="." horiz-adv-x="300" d="M195 -75v126h-126v-126h126z" />
<glyph unicode="/" horiz-adv-x="360" d="M347 793h-92l-239 -941h91z" />
<glyph unicode="0" horiz-adv-x="500" d="M472 356q0 74 -10 135.5t-33.5 116t-69 85.5t-109.5 31q-62 0 -107.5 -33.5t-69 -90t-34 -117t-10.5 -127.5q0 -76 11.5 -139.5t36.5 -116.5t69 -82.5t104 -29.5q54 0 94.5 22t64.5 56t38.5 83.5t19.5 98.5t5 108zM376 356q0 -42 -1 -71.5t-5 -66.5t-12.5 -62t-22 -48 t-35 -34t-50.5 -11q-39 0 -65 25t-38.5 70.5t-17 92t-4.5 105.5t4.5 104.5t17 91.5t38.5 71.5t65 25.5q29 0 50.5 -11.5t35 -35t22 -49t12.5 -62.5t5 -66t1 -69z" />
<glyph unicode="1" horiz-adv-x="500" d="M317 -3v723h-76l-141 -92v-90l123 79v-620h94z" />
<glyph unicode="2" horiz-adv-x="500" d="M469 0v84h-302q5 5 39.5 38.5t46.5 46t42.5 44.5t46 51.5t36.5 47.5t35 53.5t23 50.5q19 43 19 108q0 90 -59.5 145t-142.5 55q-58 0 -102.5 -20.5t-66.5 -51.5t-32.5 -61.5t-10.5 -57.5h101q-2 47 28.5 81.5t81.5 34.5q39 0 64.5 -22t33.5 -46t8 -48q0 -57 -16 -95 q-61 -141 -249 -317q-17 -18 -47 -41v-80h423z" />
<glyph unicode="3" horiz-adv-x="500" d="M466 201q0 78 -50.5 124t-98.5 51v4q44 5 90.5 48.5t46.5 104.5q0 91 -57 140.5t-154 49.5q-100 0 -152.5 -50.5t-52.5 -109.5h94q6 37 35 61t81 24q47 0 79.5 -33t32.5 -85q0 -53 -44 -87t-123 -31v-75q32 0 59.5 -5.5t55.5 -19t44 -40.5t16 -66q0 -64 -34 -103.5 t-95 -39.5q-54 0 -82 27.5t-30 61.5h-102q8 -72 61.5 -118t156.5 -46q107 0 165 60t58 153z" />
<glyph unicode="4" horiz-adv-x="500" d="M499 186v85h-111v453h-94l-282 -464v-74h284v-185h92v185h111zM296 271h-186l180 301h6v-301z" />
<glyph unicode="5" horiz-adv-x="500" d="M476 212q0 102 -57.5 164t-156.5 62q-60 0 -105 -26l9 214h268v86h-353l-18 -400h91q42 55 102 51q55 -3 89 -42.5t34 -106.5q-1 -70 -37.5 -110t-96.5 -40q-51 0 -76.5 27.5t-25.5 60.5h-108q0 -62 53 -113t158 -51q103 0 166.5 65t63.5 159z" />
<glyph unicode="6" horiz-adv-x="500" d="M485 216q0 95 -51.5 157.5t-142.5 62.5q-48 0 -82 -15t-45 -28t-24 -34h-6v40q0 106 36 177.5t103 71.5q47 0 72.5 -27.5t25.5 -58.5h99q0 59 -49.5 110.5t-144.5 51.5q-70 0 -119 -32.5t-73.5 -88.5t-34.5 -115.5t-10 -129.5q0 -64 7 -134q14 -114 67.5 -175t159.5 -61 q102 3 157 69.5t55 158.5zM388 216q0 -70 -32 -111t-83 -41q-58 0 -91.5 45.5t-33.5 107.5q2 63 35.5 103.5t87.5 40.5q55 0 86 -40.5t31 -104.5z" />
<glyph unicode="7" horiz-adv-x="500" d="M473 634v75h-437v-87h336l-256 -626h98z" />
<glyph unicode="8" horiz-adv-x="500" d="M474 193q0 45 -14.5 81t-35.5 55.5t-39.5 30t-33.5 12.5v3q43 9 76.5 53t33.5 114q0 77 -62 129t-147 52q-95 0 -153 -54t-58 -129q0 -37 9.5 -66.5t19 -44.5t29.5 -28t27 -16t24 -9v-4q-46 -11 -84 -55t-38 -121q1 -101 62 -154.5t160 -53.5q103 2 163.5 56t60.5 149z M364 532q0 -56 -28 -89.5t-85 -33.5q-59 0 -86 35t-27 89t31 87t80 33q53 0 84 -32.5t31 -88.5zM377 200q-1 -66 -33.5 -101.5t-90.5 -35.5q-38 0 -64.5 12.5t-40 34.5t-19 44t-5.5 47q1 60 36.5 96.5t89.5 36.5q60 -1 93.5 -39.5t33.5 -94.5z" />
<glyph unicode="9" horiz-adv-x="500" d="M466 342q0 74 -7 144q-34 238 -221 238q-95 0 -156 -66t-61 -163q0 -98 55 -163.5t144 -65.5q98 0 146 76h3v-38q0 -51 -5 -89.5t-18.5 -75t-41 -56.5t-67.5 -20q-49 0 -73.5 28t-24.5 60h-104q0 -63 51.5 -113t149.5 -50q58 0 101 22t67 55.5t38.5 83t19 94t4.5 99.5z M358 494q-2 -65 -33 -109t-85 -44q-60 1 -92 44t-32 110q3 70 36 112t86 42q64 -3 92 -48.5t28 -106.5z" />
<glyph unicode=":" horiz-adv-x="265" d="M196 452v119h-120v-119h120zM196 65v119h-120v-119h120z" />
<glyph unicode=";" horiz-adv-x="265" d="M198 453v119h-119v-119h119zM199 185h-113l-24 -246h78z" />
<glyph unicode="&#x3c;" horiz-adv-x="585" d="M531 28v89l-346 198l346 198v89l-441 -250v-74z" />
<glyph unicode="=" horiz-adv-x="585" d="M533 420v79h-485v-79h485zM533 218v79h-485v-79h485z" />
<glyph unicode="&#x3e;" horiz-adv-x="585" d="M485 278v74l-441 250v-89l346 -198l-346 -198v-89z" />
<glyph unicode="?" horiz-adv-x="435" d="M418 543q0 63 -35 104.5t-83 57.5t-106 16q-24 0 -50.5 -4t-43 -8t-41.5 -11t-32 -9v-93q25 15 76.5 29t87.5 14q52 -2 91 -28t39 -70q0 -9 -2.5 -18.5t-6 -18t-10 -19.5t-11.5 -18t-15 -18.5t-15 -17t-16.5 -17t-16 -15.5t-16 -14.5t-13.5 -12.5q-38 -37 -55.5 -73.5 t-17.5 -95.5v-74h90v53q0 21 2.5 38t5 27.5t10.5 23.5t11.5 18t16 19t16.5 18l33 33t50 52.5t38 59.5t19 72zM232 -90v117h-117v-117h117z" />
<glyph unicode="@" horiz-adv-x="1000" d="M924 383q-2 114 -65 199t-165 118q-140 42 -264.5 9.5t-217.5 -123.5q-95 -94 -124.5 -228t21.5 -241q49 -104 153.5 -156.5t244.5 -52.5q75 1 140 18.5t106.5 43t63.5 43t34 32.5l-41 35q-30 -32 -111.5 -70.5t-187.5 -38.5q-120 2 -204 48.5t-121 123.5 q-38 90 -14.5 195t97.5 188q51 53 115 86.5t139 42t151 -18.5q87 -28 136.5 -94.5t49.5 -158.5q-2 -88 -41.5 -152.5t-94.5 -95.5q-47 -26 -70.5 -15.5t-8.5 54.5l139 357h-99l-19 -45q-20 33 -44.5 49.5t-73.5 16.5q-55 0 -109 -34.5t-91 -87.5q-51 -74 -68 -144t-5 -117 t43 -78q43 -42 103 -40q69 3 130 64l-1 -3q0 -4 -0.5 -9.5t-0.5 -9.5q2 -52 80 -51q17 0 29 1.5t23.5 5t16 5.5t18.5 9l18 9q88 45 139 128.5t51 182.5zM626 438q0 -77 -52 -186q-66 -142 -143 -142q-23 0 -40 14q-33 33 -24 98t50 142q33 57 76.5 94t76.5 37q28 0 42 -17.5 t14 -39.5z" />
<glyph unicode="A" horiz-adv-x="615" d="M616 1l-256 719h-109l-254 -719h97l78 215h263l74 -215h107zM406 300h-207l104 306h4z" />
<glyph unicode="B" horiz-adv-x="595" d="M558 205q0 148 -158 174v2q20 6 38 15t40.5 26t36 46.5t13.5 66.5q-3 94 -68 139t-159 45h-218v-719h218q55 0 97 9q73 19 116.5 68t43.5 128zM433 530q0 -56 -37 -82.5t-82 -29.5q-18 -2 -51 -2h-84v221h95q30 0 55 -3q46 -7 75 -32t29 -72zM459 207q-3 -109 -122 -124 q-19 -2 -52 -2h-106v254h116q39 0 69 -10q95 -26 95 -118z" />
<glyph unicode="C" horiz-adv-x="640" d="M610 508q-2 64 -17 94q-30 60 -92.5 94t-139.5 34q-79 0 -142.5 -29.5t-103 -79.5t-60.5 -114t-21 -135q0 -72 20 -139t59 -122.5t104.5 -89t148.5 -33.5q21 0 40 1t36 3.5t30.5 4.5t27.5 5.5t23 6t20 7t16 6.5t14 6t11 5v103q-28 -22 -42 -30q-23 -17 -66 -27.5 t-90 -9.5q-61 1 -108 23.5t-73 55t-43 75t-22.5 77t-5.5 68.5q0 130 64.5 205.5t162.5 75.5q79 -2 110 -38q34 -37 34 -103h105z" />
<glyph unicode="D" horiz-adv-x="655" d="M620 361q0 129 -50.5 210.5t-138.5 118.5q-67 28 -151 28h-198v-718h173q86 0 135 13q101 29 165.5 115t64.5 233zM523 360q1 -117 -46.5 -182.5t-112.5 -84.5q-35 -10 -108 -10h-78v552h68q60 0 112 -9q71 -14 117.5 -78t47.5 -188z" />
<glyph unicode="E" horiz-adv-x="530" d="M492 -1v84h-313v251h292v84h-292v217h304v83h-401v-719h410z" />
<glyph unicode="F" horiz-adv-x="495" d="M484 634v84h-402v-719h97v334h293v84h-293v217h305z" />
<glyph unicode="G" horiz-adv-x="670" d="M610 509q-2 65 -18 94q-30 61 -91.5 94.5t-139.5 33.5q-156 0 -242 -104t-86 -254q0 -57 12 -111.5t39 -104t65 -87t94 -59.5t123 -22q58 0 108 10t65.5 16.5t43.5 19.5v103q-22 -19 -41 -31q-12 -10 -36 -18q-55 -20 -121 -19q-61 1 -108 23.5t-73 55t-43 75t-22.5 77.5 t-5.5 68q0 131 65 206.5t163 75.5q77 -2 110 -39q34 -39 34 -103h105zM603 39v349h-271v-86h174v-278l77 12z" />
<glyph unicode="H" horiz-adv-x="660" d="M581 -1v719h-97v-304h-307v304h-97v-719h97v332h307v-332h97z" />
<glyph unicode="I" horiz-adv-x="260" d="M179 0v718h-99v-718h99z" />
<glyph unicode="J" horiz-adv-x="365" d="M286 166v556h-97v-547q0 -87 -78 -98q-12 -2 -29 -2q-60 3 -107 20v-89q47 -14 101 -14q60 0 103.5 16t65.5 43t31.5 55t9.5 60z" />
<glyph unicode="K" horiz-adv-x="580" d="M603 -1l-343 381l300 338h-114l-262 -294h-6v294h-95v-719h95v324h6l294 -324h125z" />
<glyph unicode="L" horiz-adv-x="500" d="M503 2v84h-326v635h-97v-719h423z" />
<glyph unicode="M" horiz-adv-x="840" d="M757 0v719h-134l-201 -601h-5l-202 601h-135v-719h89v583h5l199 -583h91l200 583h4v-583h89z" />
<glyph unicode="N" horiz-adv-x="670" d="M586 0v718h-92v-585h-4l-294 585h-116v-718h92v579l5 1l293 -580h116z" />
<glyph unicode="O" horiz-adv-x="720" d="M684 361q0 163 -84 266t-240 103q-153 0 -238.5 -107t-85.5 -263q0 -164 84.5 -268t239.5 -104q83 0 146.5 30t101.5 82.5t57 118t19 142.5zM587 362q0 -131 -59 -213.5t-168 -82.5q-106 0 -166.5 86t-60.5 209q0 124 66 206.5t161 82.5q110 -3 168.5 -83t58.5 -205z" />
<glyph unicode="P" horiz-adv-x="560" d="M539 507q0 59 -23.5 102t-64 65.5t-85.5 32.5t-98 10h-188v-719h95v635h92q71 0 121.5 -30.5t50.5 -95.5q0 -130 -172 -130h-51v-86h52q41 0 78 6t73 22t62 40t42 62t16 86z" />
<glyph unicode="Q" horiz-adv-x="740" d="M725 4v95q-67 -29 -158 -34q113 101 113 300q0 163 -84 266t-240 103q-103 0 -178.5 -52t-111 -134.5t-35.5 -183.5q0 -164 85 -268t240 -104q54 0 97 12h272zM582 366q0 -132 -58.5 -214t-167.5 -82q-107 0 -167 86t-60 209q0 124 66 206.5t161 82.5q110 -3 168 -83 t58 -205z" />
<glyph unicode="R" horiz-adv-x="590" d="M554 0l-39 182q-20 96 -91 151q113 50 113 181q0 59 -23.5 101.5t-64.5 64t-85.5 30.5t-98.5 9h-185v-719h94v636h90q74 0 123 -28.5t49 -93.5q0 -50 -26 -79t-61 -37.5t-85 -8.5h-48v-85h49q16 0 44 2q38 -17 68.5 -57t41.5 -102l27 -147h108z" />
<glyph unicode="S" horiz-adv-x="525" d="M497 197q-1 32 -10 59t-20 44t-31.5 34t-33.5 25t-38 21.5t-34 18.5l-76 36q-4 2 -17 9t-17.5 9.5t-15.5 9t-15 10t-13 10t-12.5 11t-9 11.5t-7.5 13t-4 14t-2 16q0 48 34 73t91 25q113 -5 185 -41v96q-7 1 -42.5 9.5t-70.5 14t-65 5.5q-108 0 -172.5 -47.5t-64.5 -141.5 q0 -19 4.5 -36t14.5 -32.5t19 -27.5t27.5 -26t29.5 -22t34 -20.5t32.5 -18t34.5 -17.5t31 -15l22 -11l24 -12t21 -12t21 -15t16 -16.5t14.5 -20.5t8 -24t3.5 -29q0 -60 -44 -87.5t-113 -27.5q-35 0 -70 6.5t-54.5 13.5t-41.5 16t-26 10v-99q105 -30 183 -30q128 0 199 52.5 t71 156.5z" />
<glyph unicode="T" horiz-adv-x="510" d="M510 631v83h-510v-83h206v-635h96v635h208z" />
<glyph unicode="U" horiz-adv-x="670" d="M592 268v449h-99v-447q0 -86 -38.5 -143t-124.5 -57q-159 0 -159 200v447h-99v-449q0 -40 6 -76t24 -74.5t45.5 -66.5t74.5 -46t108 -18q75 0 129 27t81.5 71.5t39.5 89.5t12 93z" />
<glyph unicode="V" horiz-adv-x="580" d="M594 718h-101l-199 -590h-5l-200 590h-104l249 -719h112z" />
<glyph unicode="W" horiz-adv-x="885" d="M851 718h-90l-105 -587h-4l-156 587h-108l-143 -589h-4l-118 589h-90l145 -719h115l149 590h5l156 -590h114z" />
<glyph unicode="X" horiz-adv-x="560" d="M570 -1l-236 377l213 342h-106l-161 -255l-163 255h-107l215 -342l-236 -377h107l184 289l183 -289h107z" />
<glyph unicode="Y" horiz-adv-x="550" d="M563 716h-102l-183 -304l-182 304h-109l239 -393v-326h96v326z" />
<glyph unicode="Z" horiz-adv-x="540" d="M527 0v83h-391l366 556v79h-462v-83h350l-367 -556v-79h504z" />
<glyph unicode="[" horiz-adv-x="350" d="M312 -158v73h-112v795h112v73h-203v-941h203z" />
<glyph unicode="\" horiz-adv-x="360" d="M17 791h92l239 -941h-91z" />
<glyph unicode="]" horiz-adv-x="350" d="M239 -158v941h-203v-73h112v-795h-112v-73h203z" />
<glyph unicode="^" horiz-adv-x="465" d="M430 538l-144 240h-91l-145 -240h93l98 156l95 -156h94z" />
<glyph unicode="_" horiz-adv-x="500" d="M500 -123v66h-500v-66h500z" />
<glyph unicode="`" horiz-adv-x="300" d="M236 518l-81 196h-109l113 -196h77z" />
<glyph unicode="a" horiz-adv-x="510" d="M447 4v338q0 76 -48.5 124t-144.5 48q-94 0 -146 -46.5t-52 -109.5h101q0 39 25.5 59.5t70.5 20.5q64 0 86 -38q15 -25 15 -63v-36q-109 6 -190 -17q-52 -15 -87 -58t-35 -99q0 -60 44.5 -97.5t102.5 -37.5q48 0 85.5 14.5t52.5 28t23 27.5h4v-58h93zM354 195 q0 -26 -8 -50q-15 -34 -52 -55.5t-69 -21.5q-36 0 -60 16.5t-24 53.5q0 34 29 58t65 32q50 12 119 8v-41z" />
<glyph unicode="b" horiz-adv-x="560" d="M525 250q0 52 -12 100q-41 160 -202 160q-42 0 -75.5 -19.5t-47.5 -38.5t-20 -36h-4v303h-90v-485q0 -44 10.5 -84t34 -78t69 -60.5t108.5 -22.5q103 0 166 67t63 194zM427 245q0 -81 -34 -132.5t-97 -51.5q-44 0 -74 29.5t-42 67.5t-12 79q0 79 35.5 136.5t96.5 57.5 q55 0 85.5 -34.5t36.5 -87.5q5 -34 5 -64z" />
<glyph unicode="c" horiz-adv-x="515" d="M494 336q0 85 -56.5 131t-148.5 46q-117 0 -184 -69.5t-67 -183.5q0 -69 26.5 -124.5t70.5 -89.5q61 -46 155 -53.5t190 34.5v72q-28 -15 -67 -25t-55 -10q-66 0 -112 18.5t-69.5 50.5t-33 66.5t-9.5 75.5q0 76 42.5 119.5t109.5 43.5q60 0 85.5 -31t26.5 -71h96z" />
<glyph unicode="d" horiz-adv-x="560" d="M483 2v719h-89v-302h-4q-8 33 -45 63.5t-90 29.5q-75 -1 -130 -43t-76 -131q-11 -40 -11 -94q0 -111 56.5 -182t145.5 -71q40 0 70.5 10t46.5 25.5t23.5 28t10.5 23.5h3v-76h89zM385 277q0 -52 -7 -87q-10 -56 -41 -92t-76 -36q-61 0 -93.5 54.5t-32.5 122.5q1 34 6 73 q9 61 42 94t77 33q62 0 93.5 -55t31.5 -107z" />
<glyph unicode="e" horiz-adv-x="530" d="M494 228v77q-7 96 -63 152t-142 56q-117 0 -184 -67.5t-67 -181.5q0 -144 98 -220q60 -46 154.5 -53t189.5 36v72q-26 -15 -65 -24.5t-63 -10.5q-187 -7 -215 164h357zM399 304h-264q8 62 47 97.5t100 35.5q58 0 87.5 -40.5t29.5 -92.5z" />
<glyph unicode="f" horiz-adv-x="360" d="M373 627v81q-58 10 -94 10q-105 -3 -151 -64q-29 -42 -29 -136v-24h-90v-75h90v-423h93v423h144v75h-144v45q-1 43 14 72q23 32 78 32q34 -2 89 -16z" />
<glyph unicode="g" horiz-adv-x="560" d="M486 37v466h-92v-82h-4q-9 32 -48 63t-88 31q-81 0 -135.5 -45t-69.5 -112q-10 -52 -10 -113q0 -113 58 -175.5t150 -62.5q36 0 64.5 11.5t44.5 29t23.5 30t11.5 22.5h3v-75q0 -21 -1 -27q-16 -108 -146 -108q-94 0 -172 39v-91q65 -27 162 -27q121 0 185 56.5t64 169.5z M390 266q0 -82 -38 -133.5t-95 -51.5q-64 0 -94 46t-30 114q4 85 5 89q11 56 45.5 84t73.5 28q59 0 96 -52.5t37 -123.5z" />
<glyph unicode="h" horiz-adv-x="560" d="M493 1v359q0 76 -50 115t-116 36q-36 -2 -66.5 -18t-49.5 -39t-29 -40t-15 -32h-3v338h-90v-719h90v216q0 37 10 70q16 61 55.5 101.5t84.5 40.5q48 0 67 -31.5t19 -71.5v-325h93z" />
<glyph unicode="i" horiz-adv-x="250" d="M181 603v114h-114v-114h114zM171 -3v498h-92v-498h92z" />
<glyph unicode="j" horiz-adv-x="260" d="M193 607v113h-114v-113h114zM183 10v489h-92v-513q0 -22 -5.5 -39t-17.5 -26.5t-23 -15.5t-29 -8t-27 -2.5t-27 -0.5v-82q52 0 88.5 7.5t68.5 28t48 61t16 101.5z" />
<glyph unicode="k" horiz-adv-x="480" d="M512 2l-263 277l241 221l-118 -1l-207 -189v410h-90v-718h90v236h4l222 -236h121z" />
<glyph unicode="l" horiz-adv-x="250" d="M171 0v718h-92v-718h92z" />
<glyph unicode="m" horiz-adv-x="820" d="M750 2v350q0 77 -42.5 118.5t-112.5 41.5q-30 0 -55 -10.5t-40 -24t-26.5 -31.5t-16 -29t-7.5 -21h-5q-29 116 -145 116q-42 0 -74 -25t-45 -50.5t-19 -49.5h-3v114h-87v-499h87v202q0 77 29 144q18 35 43 56t52 21q29 0 48 -13t26 -39t9 -46t2 -53v-272h86v202 q2 36 7 72q15 65 47 107t71 42q25 0 42 -10.5t25 -22.5t12.5 -37t5 -39t0.5 -42v-272h86z" />
<glyph unicode="n" horiz-adv-x="570" d="M492 2v350q0 74 -44.5 117t-116.5 43q-119 0 -167 -125h-3v114h-86v-499h86v202q2 40 9 71q18 69 58 111.5t87 38.5q26 -2 44 -11.5t27 -21t13.5 -33.5t5 -35.5t0.5 -39.5v-10v-272h87z" />
<glyph unicode="o" horiz-adv-x="565" d="M526 250q0 121 -65.5 191.5t-180.5 70.5q-117 0 -179.5 -74.5t-62.5 -188.5q0 -122 66.5 -190t177.5 -68q116 0 180 70t64 189zM425 250q0 -80 -34 -131.5t-108 -51.5q-75 0 -110.5 51t-35.5 131q0 83 34.5 135t107.5 52q77 0 111.5 -52t34.5 -134z" />
<glyph unicode="p" horiz-adv-x="560" d="M521 243q0 127 -60 198.5t-151 71.5q-102 0 -141 -104h-4v93h-90v-689h90v278h3q36 -99 137 -99t158.5 73t57.5 178zM427 244q0 -76 -31.5 -125.5t-92.5 -49.5q-45 0 -77 31.5t-44 71t-12 81.5q0 81 38 132.5t93 51.5q60 0 93 -55.5t33 -137.5z" />
<glyph unicode="q" horiz-adv-x="550" d="M475 -187v689h-90v-86h-3q-36 97 -138 97q-91 0 -149.5 -71t-58.5 -198q0 -107 55.5 -179t154.5 -72q54 0 90.5 30.5t44.5 63.5h4v-274h90zM378 254q0 -42 -10.5 -81.5t-40 -71t-72.5 -31.5q-60 0 -92 49t-36 125q0 82 33.5 137.5t93.5 55.5q50 0 87 -51.5t37 -131.5z " />
<glyph unicode="r" horiz-adv-x="375" d="M380 418v92q-53 0 -86 -9t-65 -31q-29 -21 -59 -75h-5v104h-89v-499h89v203q2 53 10 89q16 64 72 95t133 31z" />
<glyph unicode="s" horiz-adv-x="410" d="M390 139q0 44 -29 78t-62 50t-79 34t-59 25q-39 24 -39 61q0 26 26.5 38t61.5 12q68 0 148 -40v90q-84 25 -138 25q-91 0 -140.5 -37.5t-49.5 -104.5q0 -80 92 -122q25 -12 66 -28t59.5 -24.5t34 -25.5t15.5 -40q0 -65 -120 -65q-25 0 -51 6t-41 13t-34 16.5l-23 11.5 v-93q66 -30 152 -30q115 0 162.5 39t47.5 111z" />
<glyph unicode="t" horiz-adv-x="360" d="M335 424v75h-144v168l-93 -56v-112h-86v-75h86v-303q0 -132 155 -132q39 0 79 5v80q-31 -9 -65 -9q-48 0 -62 27.5t-14 78.5v253h144z" />
<glyph unicode="u" horiz-adv-x="570" d="M495 4v498h-87v-208q-2 -41 -8 -74q-14 -63 -52.5 -105t-91.5 -42q-94 0 -94 117v312h-88v-350q0 -67 45.5 -113t111.5 -46q140 0 176 126h3v-115h85z" />
<glyph unicode="v" horiz-adv-x="495" d="M495 500h-91l-147 -369h-3l-159 369h-96l217 -498h81z" />
<glyph unicode="w" horiz-adv-x="725" d="M705 501h-88l-91 -367h-5l-119 367h-76l-114 -370h-6l-94 370h-90l134 -499h89l117 360h4l119 -360h90z" />
<glyph unicode="x" horiz-adv-x="490" d="M490 3l-192 261l175 237h-104l-121 -166l-120 166h-106l174 -238l-193 -260h104l141 188l138 -188h104z" />
<glyph unicode="y" horiz-adv-x="480" d="M481 503h-94l-139 -370h-4l-150 370h-94l201 -486l-76 -205h95z" />
<glyph unicode="z" horiz-adv-x="460" d="M434 3v75h-292l278 353v70h-373v-75h264l-279 -354v-69h402z" />
<glyph unicode="{" horiz-adv-x="450" d="M408 -165v50q-83 20 -101 89q-11 39 -4 88.5t12 78.5t-18 76q-42 65 -102 91q70 33 102 88q23 27 10.5 117t-0.5 129q21 71 101 89v51q-66 -5 -116 -34t-77 -75q-18 -30 -17 -67.5t11.5 -68.5t14 -70t-8.5 -73q-8 -21 -26.5 -35.5t-32 -19.5t-43.5 -13v-36 q110 -35 110 -112q0 -23 -7.5 -56t-13.5 -57.5t-4.5 -58t17.5 -63.5q28 -54 84.5 -82t108.5 -26z" />
<glyph unicode="|" horiz-adv-x="333" d="M210 -158v941h-86v-941h86z" />
<glyph unicode="}" horiz-adv-x="450" d="M335 290v36q-30 8 -43.5 13t-32 19.5t-26.5 35.5q-13 33 -9 73t14.5 70.5t11.5 68.5t-17 67q-27 46 -77 75t-116 34v-51q80 -18 101 -89q12 -39 -0.5 -129t10.5 -117q32 -55 102 -88q-60 -26 -102 -91q-21 -33 -18 -76t12 -78.5t-4 -88.5q-18 -69 -101 -89v-50 q52 -2 108.5 26t84.5 82q16 30 17.5 63.5t-4.5 58t-13.5 57.5t-7.5 56q0 77 110 112z" />
<glyph unicode="~" horiz-adv-x="585" d="M533 346v67h-76v-50q0 -14 -1 -23.5t-4 -21t-11 -17.5t-20 -6q-8 0 -16.5 3t-13.5 6.5t-14.5 10.5t-13.5 10l-104 77q-57 43 -98 42q-55 -1 -82 -38t-27 -90v-63h76v55q0 59 38 59q7 0 15 -3t11.5 -5.5t13 -9.5t12.5 -9l107 -79q20 -15 31 -22t28 -13.5t34 -6.5 q36 0 61 14.5t35.5 37.5t14.5 40.5t4 34.5z" />
<glyph unicode="&#xac00;" d="M887 355v83h-166v349h-89v-901h89v469h166zM468 659h-394v-83h292q-25 -123 -121 -227.5t-232 -161.5l65 -64q62 27 124 71.5t122 110t99.5 158.5t44.5 196z" />
<glyph unicode="&#xac01;" d="M878 467v84h-159v236h-90v-565h90v245h159zM456 721h-377v-84h269q-21 -92 -107.5 -180t-219.5 -140l62 -64q160 66 260 189t113 279zM706 -160v337h-476v-84h388v-253h88z" />
<glyph unicode="&#xac04;" d="M878 430v84h-159v273h-90v-641h90v284h159zM456 711h-377v-84h269q-22 -94 -109 -186.5t-218 -143.5l62 -64q159 65 259.5 193t113.5 285zM731 -139v84h-395v236h-91v-320h486z" />
<glyph unicode="&#xac07;" d="M878 457v84h-159v246h-90v-565h90v235h159zM456 721h-377v-84h269q-21 -92 -107.5 -180t-219.5 -140l62 -64q160 66 260 189t113 279zM721 -144v84h-395v158h384v83h-475v-325h486z" />
<glyph unicode="&#xac08;" d="M878 484v84h-159v219h-90v-493h90v190h159zM456 731h-377v-84h269q-21 -90 -106.5 -173.5t-220.5 -136.5l62 -64q161 66 261 184.5t112 273.5zM723 -149v86h-384v77h363v238h-463v-82h371v-74h-366v-245h479z" />
<glyph unicode="&#xac09;" d="M879 484v84h-159v219h-90v-490h90v187h159zM467 731h-377v-84h269q-21 -90 -106.5 -173.5t-220.5 -136.5l62 -64q161 66 261 184.5t112 273.5zM726 -149v402h-267v-85h175v-317h92zM488 -149v86h-258v79h210v237h-308v-82h215v-73h-210v-247h351z" />
<glyph unicode="&#xac0a;" d="M878 484v84h-159v219h-90v-498h90v195h159zM466 731h-377v-84h269q-21 -90 -106.5 -173.5t-220.5 -136.5l62 -64q161 66 261 184.5t112 273.5zM722 -149v395h-274v-395h274zM434 -149v86h-215v74h192v236h-287v-82h194v-72h-192v-242h308zM630 -67h-91v230h91v-230z" />
<glyph unicode="&#xac10;" d="M878 461v84h-159v241h-90v-555h90v230h159zM456 721h-377v-84h269q-21 -92 -107.5 -180t-219.5 -140l62 -64q160 66 260 189t113 279zM705 -142v331h-464v-331h464zM614 -59h-281v164h281v-164z" />
<glyph unicode="&#xac11;" d="M878 487v84h-159v215h-90v-514h90v215h159zM456 731h-377v-84h269q-21 -90 -106.5 -173.5t-220.5 -136.5l62 -64q161 66 261 184.5t112 273.5zM710 -147v374h-91v-115h-281v115h-92v-374h464zM619 -64h-281v92h281v-92z" />
<glyph unicode="&#xac12;" d="M878 482v84h-156v220h-90v-527h90v223h156zM466 731h-377v-84h269q-21 -90 -106.5 -173.5t-220.5 -136.5l62 -64q161 66 261 184.5t112 273.5zM822 -88l-150 156q12 42 12 87v72h-94v-73q0 -64 -30 -123t-88 -91v287h-92v-113h-141v113h-92v-374h325v35l28 -34 q34 11 70.5 44.5t64.5 81.5l124 -128zM380 -64h-141v94h141v-94z" />
<glyph unicode="&#xac13;" d="M888 456v84h-159v246h-90v-615h90v285h159zM466 711h-377v-84h269q-22 -94 -109 -186.5t-218 -143.5l62 -64q159 65 259.5 193t113.5 285zM756 -90l-255 203q12 39 12 76v55h-95v-37q0 -90 -65.5 -170t-181.5 -115l61 -71q73 24 132.5 72t97.5 109l233 -183z" />
<glyph unicode="&#xac14;" d="M888 467v84h-159v235h-90v-549h90v230h159zM466 721h-377v-84h269q-21 -92 -107.5 -180t-219.5 -140l62 -64q160 66 260 189t113 279zM814 -86l-178 162q7 31 9 70v59h-93v-56q0 -55 -24.5 -108t-67.5 -84l-112 112q8 20 12 77v59h-94v-56q0 -73 -44.5 -136t-125.5 -89 l59 -72q101 45 155 132l139 -139q104 45 154 143l153 -137z" />
<glyph unicode="&#xac15;" d="M887 459v84h-158v244h-89v-552h89v224h158zM467 721h-377v-84h269q-21 -92 -107.5 -180t-219.5 -140l62 -64q160 66 260 189t113 279zM708 36q0 81 -66 138.5t-155 57.5t-155.5 -57.5t-66.5 -138.5q0 -83 64.5 -140.5t157.5 -57.5q89 0 155 58t66 140zM615 36 q0 -49 -38 -82t-90 -33q-56 0 -93 33.5t-37 81.5q0 47 38 80.5t92 33.5q51 0 89.5 -32.5t38.5 -81.5z" />
<glyph unicode="&#xac16;" d="M888 458v85h-158v244h-89v-529h89v200h158zM467 721h-377v-84h269q-21 -92 -107.5 -180t-219.5 -140l62 -64q160 66 260 189t113 279zM790 -84q-210 120 -211 120q95 87 121 178h-460v-83h303q-60 -70 -159 -127t-210 -81l56 -73q139 32 273 126l232 -131z" />
<glyph unicode="&#xac17;" d="M888 477v84h-159v226h-90v-489h90v179h159zM466 731h-377v-84h269q-21 -90 -106.5 -173.5t-220.5 -136.5l62 -64q161 66 261 184.5t112 273.5zM622 221v83q-79 -3 -198 1q-77 14 -102 25l-28 -70q53 -26 122 -39q105 -4 206 0zM790 -84q-209 93 -209 94q88 72 123 157 h-468v-81h296q-129 -123 -360 -166l54 -73q146 28 274 105l231 -104z" />
<glyph unicode="&#xac19;" d="M888 484v84h-159v219h-90v-511h90v208h159zM466 731h-377v-84h269q-21 -90 -106.5 -173.5t-220.5 -136.5l62 -64q161 66 261 184.5t112 273.5zM718 -149v82h-383v70h364v85h-364v62h375v83h-465v-382h473z" />
<glyph unicode="&#xac1a;" d="M888 471v84h-159v231h-90v-534h90v219h159zM466 721h-377v-84h269q-21 -92 -107.5 -180t-219.5 -140l62 -64q160 66 260 189t113 279zM734 -139v83h-101v178h91v83h-511v-83h92v-178h-101v-83h530zM542 -56h-146v178h146v-178z" />
<glyph unicode="&#xac1b;" d="M888 487v84h-159v216h-90v-477h90v177h159zM466 731h-377v-84h269q-21 -90 -106.5 -171t-220.5 -134l62 -64q162 67 261.5 183t111.5 270zM629 220v83q-95 -7 -204 0q-64 11 -102 25l-28 -69q53 -29 121 -39q111 -4 213 0zM757 81v81h-574v-81h134q-19 -9 -30 -34 t-11 -51q0 -69 58.5 -114.5t138.5 -45.5q81 0 138.5 43.5t57.5 118.5q0 26 -12 50t-32 33h132zM571 -2q0 -36 -30 -58.5t-70 -22.5q-38 0 -68 22.5t-30 58.5q0 35 29.5 57t67.5 22q40 0 70.5 -22t30.5 -57z" />
<glyph unicode="&#xac1c;" d="M818 -114v901h-89v-349h-129v329h-89v-819h89v406h129v-468h89zM429 660h-363v-85h260q-16 -116 -101.5 -227.5t-212.5 -168.5l69 -61q159 81 247.5 224t100.5 318z" />
<glyph unicode="&#xac1d;" d="M812 222v565h-89v-238h-128v217h-90v-524h90v224h128v-244h89zM431 722h-351v-84h242q-22 -101 -96.5 -189t-207.5 -140l64 -66q151 62 243.5 189.5t105.5 289.5zM775 -160v337h-477v-84h387v-253h90z" />
<glyph unicode="&#xac20;" d="M812 142v645h-89v-258h-128v237h-90v-584h90v264h128v-304h89zM431 712h-351v-84h242q-22 -101 -96.5 -189t-207.5 -140l64 -66q151 62 243.5 189.5t105.5 289.5zM809 -139v84h-395v236h-90v-320h485z" />
<glyph unicode="&#xac24;" d="M812 282v505h-89v-218h-128v197h-90v-464h90v184h128v-204h89zM431 732h-351v-84h242q-21 -99 -95.5 -183t-208.5 -136l64 -66q152 63 244 185.5t105 283.5zM794 -149v86h-383v77h364v235h-463v-82h370v-71h-365v-245h477z" />
<glyph unicode="&#xac2c;" d="M812 232v555h-89v-238h-128v217h-90v-514h90v214h128v-234h89zM431 722h-351v-84h242q-22 -101 -96.5 -189t-207.5 -140l64 -66q151 62 243.5 189.5t105.5 289.5zM784 -142v331h-464v-331h464zM692 -59h-281v164h281v-164z" />
<glyph unicode="&#xac2d;" d="M812 262v525h-89v-228h-128v207h-90v-484h90v194h128v-214h89zM431 732h-351v-84h242q-21 -99 -95.5 -183t-208.5 -136l64 -66q152 63 244 185.5t105 283.5zM768 -147v374h-92v-112h-280v112h-92v-374h464zM676 -64h-280v95h280v-95z" />
<glyph unicode="&#xac2f;" d="M812 212v575h-89v-248h-128v227h-90v-501h90v191h128v-244h89zM431 712h-351v-84h242q-21 -99 -95.5 -183t-208.5 -136l64 -66q152 63 244 185.5t105 283.5zM808 -90l-255 203q12 39 12 76v35h-95v-17q0 -90 -65.5 -170t-181.5 -115l61 -71q73 24 132.5 72t97.5 109 l233 -183z" />
<glyph unicode="&#xac30;" d="M812 232v555h-89v-238h-128v217h-90v-514h90v214h128v-234h89zM431 722h-351v-84h242q-22 -101 -96.5 -189t-207.5 -140l64 -66q151 62 243.5 189.5t105.5 289.5zM851 -86l-178 162q7 31 9 70v59h-93v-56q0 -55 -24.5 -108t-67.5 -84l-112 112q8 20 12 77v59h-94v-56 q0 -73 -44.5 -136t-125.5 -89l59 -72q101 45 155 132l139 -139q104 45 154 143l153 -137z" />
<glyph unicode="&#xac31;" d="M812 232v555h-89v-238h-128v217h-90v-494h90v194h128v-234h89zM431 722h-351v-84h242q-22 -101 -96.5 -189t-207.5 -140l64 -66q151 62 243.5 189.5t105.5 289.5zM764 36q0 81 -66 138.5t-155 57.5t-155.5 -57.5t-66.5 -138.5q0 -83 64.5 -140.5t157.5 -57.5q89 0 155 58 t66 140zM671 36q0 -49 -38 -82t-90 -33q-56 0 -93 33.5t-37 81.5q0 47 38 80.5t92 33.5q51 0 89.5 -32.5t38.5 -81.5z" />
<glyph unicode="&#xac38;" d="M872 231v84h-156v154h156v83h-156v235h-89v-901h89v345h156zM473 659h-394v-83h292q-25 -123 -121 -227.5t-232 -161.5l65 -64q62 27 124 71.5t122 110t99.5 158.5t44.5 196z" />
<glyph unicode="&#xac39;" d="M868 350v83h-154v115h154v83h-154v156h-88v-563h88v126h154zM457 721h-377v-84h269q-21 -92 -107.5 -180t-219.5 -140l62 -64q160 66 260 189t113 279zM707 -160v337h-476v-84h388v-253h88z" />
<glyph unicode="&#xac3c;" d="M868 319v84h-154v114h154v84h-154v186h-88v-640h88v172h154zM457 711h-377v-84h269q-22 -94 -109 -186.5t-218 -143.5l62 -64q159 65 259.5 193t113.5 285zM732 -139v84h-395v236h-91v-320h486z" />
<glyph unicode="&#xac40;" d="M868 384v83h-154v91h154v83h-154v146h-88v-505h88v102h154zM457 731h-377v-84h269q-21 -90 -106.5 -173.5t-220.5 -136.5l62 -64q161 66 261 184.5t112 273.5zM723 -149v86h-384v76h361v234h-461v-82h369v-70h-364v-244h479z" />
<glyph unicode="&#xac4b;" d="M868 339v84h-154v114h154v84h-154v166h-88v-614h88v166h154zM457 711h-377v-84h269q-21 -92 -107.5 -180t-219.5 -140l62 -64q160 66 260 189t113 279zM757 -90l-255 203q12 39 12 76v55h-95v-37q0 -90 -65.5 -170t-181.5 -115l61 -71q73 24 132.5 72t97.5 109l233 -183z " />
<glyph unicode="&#xac4d;" d="M878 361v83h-164v114h164v83h-164v146h-88v-542h88v116h164zM457 721h-377v-84h269q-21 -92 -107.5 -180t-219.5 -140l62 -64q160 66 260 189t113 279zM718 36q0 81 -66 138.5t-155 57.5t-155.5 -57.5t-66.5 -138.5q0 -83 64.5 -140.5t157.5 -57.5q89 0 155 58t66 140z M625 36q0 -49 -38 -82t-90 -33q-56 0 -93 33.5t-37 81.5q0 47 38 80.5t92 33.5q51 0 89.5 -32.5t38.5 -81.5z" />
<glyph unicode="&#xac54;" d="M817 -114v901h-89v-235h-134v215h-89v-819h89v283h134v-345h89zM429 660h-363v-85h260q-16 -116 -101.5 -227.5t-212.5 -168.5l69 -61q159 81 247.5 224t100.5 318zM728 316h-134v152h134v-152z" />
<glyph unicode="&#xac58;" d="M812 140v647h-89v-177h-131v156h-90v-586h90v149h131v-189h89zM431 712h-351v-84h242q-22 -101 -96.5 -189t-207.5 -140l64 -66q151 62 243.5 189.5t105.5 289.5zM803 -139v84h-395v236h-90v-320h485zM723 414h-131v112h131v-112z" />
<glyph unicode="&#xac5c;" d="M812 281v506h-89v-141h-131v120h-90v-465h90v85h131v-105h89zM431 732h-351v-84h242q-21 -99 -95.5 -183t-208.5 -136l64 -66q152 63 244 185.5t105 283.5zM794 -149v86h-383v77h364v235h-463v-82h370v-71h-365v-245h477zM723 469h-131v94h131v-94z" />
<glyph unicode="&#xac70;" horiz-adv-x="850" d="M753 -114v901h-89v-348h-213v-84h213v-469h89zM472 659h-394v-83h292q-25 -123 -121 -227.5t-232 -161.5l65 -64q62 27 124 71.5t122 110t99.5 158.5t44.5 196z" />
<glyph unicode="&#xac71;" horiz-adv-x="850" d="M737 222v565h-90v-260h-202v-83h202v-222h90zM448 721h-377v-84h269q-21 -92 -107.5 -180t-219.5 -140l62 -64q160 66 260 189t113 279zM723 -160v337h-477v-84h387v-253h90z" />
<glyph unicode="&#xac74;" horiz-adv-x="850" d="M741 150v637h-90v-280h-202v-84h202v-273h90zM452 711h-377v-84h269q-22 -94 -109 -186.5t-218 -143.5l62 -64q159 65 259.5 193t113.5 285zM752 -139v84h-394v236h-91v-320h485z" />
<glyph unicode="&#xac77;" horiz-adv-x="850" d="M746 226v561h-90v-260h-202v-83h202v-218h90zM457 721h-377v-84h269q-21 -92 -107.5 -180t-219.5 -140l62 -64q160 66 260 189t113 279zM740 -144v84h-395v158h387v83h-477v-325h485z" />
<glyph unicode="&#xac78;" horiz-adv-x="850" d="M747 298v489h-90v-229h-202v-83h202v-177h90zM458 731h-377v-84h269q-21 -90 -106.5 -173.5t-220.5 -136.5l62 -64q161 66 261 184.5t112 273.5zM746 -149v86h-383v79h364v238h-464v-82h371v-74h-366v-247h478z" />
<glyph unicode="&#xac7a;" horiz-adv-x="850" d="M747 285v502h-90v-229h-202v-83h202v-190h90zM458 731h-377v-84h269q-21 -90 -106.5 -173.5t-220.5 -136.5l62 -64q161 66 261 184.5t112 273.5zM747 -149v399h-276v-399h276zM452 -149v86h-208v78h190v236h-285v-82h192v-72h-190v-246h301zM655 -67h-93v234h93v-234z " />
<glyph unicode="&#xac80;" horiz-adv-x="850" d="M747 229v558h-90v-260h-202v-83h202v-215h90zM458 721h-377v-84h269q-21 -92 -107.5 -180t-219.5 -140l62 -64q160 66 260 189t113 279zM727 -142v331h-465v-331h465zM635 -59h-282v164h282v-164z" />
<glyph unicode="&#xac81;" horiz-adv-x="850" d="M747 274v513h-90v-239h-202v-83h202v-191h90zM458 731h-377v-84h269q-21 -90 -106.5 -173.5t-220.5 -136.5l62 -64q161 66 261 184.5t112 273.5zM728 -147v381h-92v-122h-281v122h-91v-381h464zM636 -64h-281v92h281v-92z" />
<glyph unicode="&#xac83;" horiz-adv-x="850" d="M744 161v625h-90v-269h-202v-84h202v-272h90zM455 711h-377v-84h269q-21 -92 -107.5 -180t-219.5 -140l62 -64q160 66 260 189t113 279zM770 -90l-256 203q13 42 13 76v55h-95v-37q0 -90 -65.5 -170t-181.5 -115l61 -71q73 23 132.5 71.5t96.5 109.5l234 -183z" />
<glyph unicode="&#xac84;" horiz-adv-x="850" d="M743 232v555h-90v-260h-202v-83h202v-212h90zM454 721h-377v-84h269q-21 -92 -107.5 -180t-219.5 -140l62 -64q160 66 260 189t113 279zM811 -86l-178 162q7 31 9 70v59h-93v-56q0 -55 -24.5 -108t-67.5 -84l-112 112q8 20 12 77v59h-94v-56q0 -73 -44.5 -136t-125.5 -89 l59 -72q101 45 155 132l139 -139q104 45 154 143l153 -137z" />
<glyph unicode="&#xac85;" horiz-adv-x="850" d="M742 232v555h-90v-260h-202v-83h202v-212h90zM453 721h-377v-84h269q-21 -92 -107.5 -180t-219.5 -140l62 -64q160 66 260 189t113 279zM718 36q0 81 -66 138.5t-155 57.5t-155.5 -57.5t-66.5 -138.5q0 -83 64.5 -140.5t157.5 -57.5q89 0 155 58t66 140zM625 36 q0 -49 -38 -82t-90 -33q-56 0 -93 33.5t-37 81.5q0 47 38 80.5t92 33.5q51 0 89.5 -32.5t38.5 -81.5z" />
<glyph unicode="&#xac86;" horiz-adv-x="850" d="M739 258v529h-90v-260h-202v-83h202v-186h90zM450 721h-377v-84h269q-21 -92 -107.5 -180t-219.5 -140l62 -64q160 66 260 189t113 279zM794 -86q-210 120 -211 120q95 87 121 178h-460v-83h303q-60 -70 -159 -127t-210 -81l56 -73q139 32 273 126l232 -131z" />
<glyph unicode="&#xac89;" horiz-adv-x="850" d="M742 282v505h-90v-239h-202v-83h202v-183h90zM453 731h-377v-84h269q-21 -90 -106.5 -173.5t-220.5 -136.5l62 -64q161 66 261 184.5t112 273.5zM731 -149v82h-385v70h367v85h-367v64h378v83h-468v-384h475z" />
<glyph unicode="&#xac8a;" horiz-adv-x="850" d="M742 250v537h-90v-260h-202v-83h202v-194h90zM453 721h-377v-84h269q-21 -92 -107.5 -180t-219.5 -140l62 -64q160 66 260 189t113 279zM744 -139v83h-101v178h91v83h-511v-83h92v-178h-101v-83h530zM552 -56h-146v178h146v-178z" />
<glyph unicode="&#xac8b;" horiz-adv-x="850" d="M752 295v492h-90v-229h-202v-83h202v-180h90zM643 220v83q-100 -9 -204 0q-75 13 -102 25l-28 -69q44 -24 121 -39q118 -7 213 0zM453 731h-377v-84h269q-21 -90 -106.5 -173.5t-220.5 -136.5l62 -64q161 66 261 184.5t112 273.5zM771 81v81h-574v-81h134 q-17 -11 -29 -35.5t-12 -49.5q0 -69 58.5 -114.5t138.5 -45.5q81 0 138.5 43.5t57.5 118.5q0 25 -12.5 48.5t-31.5 34.5h132zM585 -2q0 -36 -30 -58.5t-70 -22.5q-38 0 -68 22.5t-30 58.5q0 35 29.5 57t67.5 22q40 0 70.5 -22t30.5 -57z" />
<glyph unicode="&#xac8c;" d="M830 -114v901h-89v-901h89zM635 -52v819h-88v-348h-171q51 112 60 241h-363v-85h260q-16 -116 -101.5 -227.5t-212.5 -168.5l69 -61q176 89 267 258v-41h192v-387h88z" />
<glyph unicode="&#xac90;" d="M812 140v647h-89v-647h89zM629 180v586h-89v-255h-162q44 90 53 201h-351v-84h242q-22 -101 -96.5 -189t-207.5 -140l64 -66q187 78 280 246v0v-1v-1v-1v-1v-1v-1v-1v-1v-1v-1v-1v-1v-1v-1v-1v-2v-1v-1v-2v-1v-2v-1v-2v-1v-2v-1v-2v-1v-2v-2v-1v-2v-2v-9h178v-247h89z M805 -139v84h-395v236h-90v-320h485z" />
<glyph unicode="&#xac94;" d="M812 283v504h-89v-504h89zM629 303v463h-89v-212h-152q36 85 43 178h-351v-84h242q-21 -99 -95.5 -183t-208.5 -136l64 -66q188 78 280 240v-32h178v-168h89zM791 -149v86h-383v77h364v235h-463v-82h370v-71h-365v-245h477z" />
<glyph unicode="&#xac9c;" d="M812 232v555h-89v-555h89zM629 252v514h-89v-238h-158q40 89 49 194h-351v-84h242q-22 -101 -96.5 -189t-207.5 -140l64 -66q187 78 280 246v0v-1v-1v-1v-1v-1v-1v-1v-1v-1v-1v-1v-1v-1v-2v-1v-1v-2v-1v-2v-1v-2v-1v-2v-1v-2v-2v-1v-10h178v-193h89zM779 -142v331h-464 v-331h464zM687 -59h-281v164h281v-164z" />
<glyph unicode="&#xac9d;" d="M812 259v528h-89v-528h89zM629 279v487h-89v-217h-155q39 86 46 183h-351v-84h242q-21 -99 -95.5 -183t-208.5 -136l64 -66q188 78 280 240v-37h178v-187h89zM776 -147v375h-92v-112h-280v112h-92v-375h464zM684 -64h-280v96h280v-96z" />
<glyph unicode="&#xac9f;" d="M812 202v585h-89v-585h89zM629 262v504h-89v-248h-160q42 87 51 194h-351v-84h242q-21 -99 -95.5 -183t-208.5 -136l64 -66q185 75 280 240v-49h178v-172h89zM808 -90l-256 203q13 42 13 76v35h-95v-17q0 -90 -65.5 -170t-181.5 -115l61 -71q73 23 132.5 71.5t96.5 109.5 l234 -183z" />
<glyph unicode="&#xaca0;" d="M810 234v553h-89v-553h89zM627 254v512h-89v-238h-158q40 89 49 194h-351v-84h242q-22 -101 -96.5 -189t-207.5 -140l64 -66q187 78 280 246v0v-1v-1v-1v-1v-1v-1v-1v-1v-1v-1v-1v-1v-1v-2v-1v-1v-2v-1v-2v-1v-2v-1v-2v-1v-2v-2v-1v-10h178v-191h89zM854 -86l-178 162 q7 31 9 70v59h-93v-56q0 -55 -24.5 -108t-67.5 -84l-112 112q8 20 12 77v59h-94v-56q0 -73 -44.5 -136t-125.5 -89l59 -72q101 45 155 132l139 -139q104 45 154 143l153 -137z" />
<glyph unicode="&#xaca1;" d="M812 232v555h-89v-555h89zM629 267v499h-89v-238h-158q40 89 49 194h-351v-84h242q-22 -101 -96.5 -189t-207.5 -140l64 -66q187 78 280 246v0v-1v-1v-1v-1v-1v-1v-1v-1v-1v-1v-1v-1v-1v-2v-1v-1v-2v-1v-2v-1v-2v-1v-2v-1v-2v-2v-1v-10h178v-178h89zM769 36 q0 81 -66 138.5t-155 57.5t-155.5 -57.5t-66.5 -138.5q0 -83 64.5 -140.5t157.5 -57.5q89 0 155 58t66 140zM676 36q0 -49 -38 -82t-90 -33q-56 0 -93 33.5t-37 81.5q0 47 38 80.5t92 33.5q51 0 89.5 -32.5t38.5 -81.5z" />
<glyph unicode="&#xaca8;" horiz-adv-x="850" d="M765 -114v901h-89v-271h-202v-84h202v-127h-202v-84h202v-335h89zM479 659h-394v-83h292q-25 -123 -121 -227.5t-232 -161.5l65 -64q62 27 124 71.5t122 110t99.5 158.5t44.5 196z" />
<glyph unicode="&#xaca9;" horiz-adv-x="850" d="M759 224v563h-89v-176h-199v-84h199v-104h-199v-83h199v-116h89zM466 721h-377v-84h269q-21 -92 -107.5 -180t-219.5 -140l62 -64q160 66 260 189t113 279zM743 -160v337h-477v-84h387v-253h90z" />
<glyph unicode="&#xacaa;" horiz-adv-x="850" d="M759 227v560h-89v-176h-199v-84h199v-104h-199v-83h199v-113h89zM466 721h-377v-84h269q-21 -92 -107.5 -180t-219.5 -140l62 -64q160 66 260 189t113 279zM749 -160v347h-259v-84h169v-263h90zM471 -160v347h-291v-84h202v-263h89z" />
<glyph unicode="&#xacac;" horiz-adv-x="850" d="M754 147v640h-89v-186h-199v-84h199v-114h-199v-84h199v-172h89zM462 711h-377v-84h269q-22 -94 -109 -186.5t-218 -143.5l62 -64q159 65 259.5 193t113.5 285zM762 -139v84h-394v236h-91v-320h485z" />
<glyph unicode="&#xacaf;" horiz-adv-x="850" d="M759 224v563h-89v-176h-199v-84h199v-104h-199v-84h199v-115h89zM466 721h-377v-84h269q-21 -92 -107.5 -180t-219.5 -140l62 -64q160 66 260 189t113 279zM749 -144v84h-395v158h385v83h-475v-325h485z" />
<glyph unicode="&#xacb0;" horiz-adv-x="850" d="M759 289v498h-89v-166h-199v-83h199v-87h-199v-83h199v-79h89zM466 731h-377v-84h269q-21 -90 -106.5 -173.5t-220.5 -136.5l62 -64q161 66 261 184.5t112 273.5zM756 -149v86h-383v77h364v238h-464v-82h371v-74h-366v-245h478z" />
<glyph unicode="&#xacb8;" horiz-adv-x="850" d="M759 229v558h-89v-176h-199v-84h199v-93h-199v-83h199v-122h89zM466 721h-377v-84h269q-21 -92 -107.5 -180t-219.5 -140l62 -64q160 66 260 189t113 279zM740 -142v331h-465v-331h465zM648 -59h-281v164h281v-164z" />
<glyph unicode="&#xacb9;" horiz-adv-x="850" d="M759 266v521h-89v-156h-199v-83h199v-90h-199v-83h199v-109h89zM466 731h-377v-84h269q-21 -90 -106.5 -173.5t-220.5 -136.5l62 -64q161 66 261 184.5t112 273.5zM736 -147v377h-92v-111h-281v111h-91v-377h464zM644 -64h-281v100h281v-100z" />
<glyph unicode="&#xacbb;" horiz-adv-x="850" d="M748 163v624h-89v-186h-199v-84h199v-104h-199v-84h199v-166h89zM455 711h-377v-84h269q-21 -92 -107.5 -180t-219.5 -140l62 -64q160 66 260 189t113 279zM770 -90l-256 203q13 42 13 76v45h-95v-27q0 -90 -65.5 -170t-181.5 -115l61 -71q73 23 132.5 71.5t96.5 109.5 l234 -183z" />
<glyph unicode="&#xacbc;" horiz-adv-x="850" d="M747 234v553h-89v-181h-199v-84h199v-98h-199v-83h199v-107h89zM454 721h-377v-84h269q-21 -92 -107.5 -180t-219.5 -140l62 -64q160 66 260 189t113 279zM811 -86l-178 162q7 31 9 70v56h-93v-53q0 -55 -24.5 -108t-67.5 -84l-112 112q8 20 12 77v56h-94v-53 q0 -73 -44.5 -136t-125.5 -89l59 -72q101 45 155 132l139 -139q104 45 154 143l153 -137z" />
<glyph unicode="&#xacbd;" horiz-adv-x="850" d="M749 237v550h-89v-176h-199v-84h199v-101h-199v-83h199v-106h89zM456 721h-377v-84h269q-21 -92 -107.5 -180t-219.5 -140l62 -64q160 66 260 189t113 279zM726 36q0 81 -66 138.5t-155 57.5t-155.5 -57.5t-66.5 -138.5q0 -83 64.5 -140.5t157.5 -57.5q89 0 155 58 t66 140zM633 36q0 -49 -38 -82t-90 -33q-56 0 -93 33.5t-37 81.5q0 47 38 80.5t92 33.5q51 0 89.5 -32.5t38.5 -81.5z" />
<glyph unicode="&#xacc1;" horiz-adv-x="850" d="M749 269v518h-89v-157h-199v-83h199v-90h-199v-83h199v-105h89zM456 731h-377v-84h269q-21 -90 -106.5 -173.5t-220.5 -136.5l62 -64q161 66 261 184.5t112 273.5zM740 -149v82h-385v70h367v85h-367v64h378v83h-468v-384h475z" />
<glyph unicode="&#xacc4;" d="M818 -114v901h-89v-901h89zM626 -52v819h-89v-256h-144q20 67 26 149h-363v-85h260q-16 -116 -101.5 -227.5t-212.5 -168.5l69 -61q202 103 292 310h174v-127h-189v-85h189v-268h89z" />
<glyph unicode="&#xacc8;" d="M801 140v647h-89v-647h89zM618 180v586h-89v-173h-136q18 61 22 119h-351v-84h242q-22 -101 -96.5 -189t-207.5 -140l64 -66q203 83 296 277h167v-107h-183v-84h183v-139h89zM788 -139v84h-395v236h-90v-320h485z" />
<glyph unicode="&#xaccc;" d="M809 280v507h-89v-507h89zM626 297v469h-89v-142h-133q14 48 19 108h-351v-84h242q-21 -99 -95.5 -183t-208.5 -136l64 -66q209 86 299 277h164v-92h-183v-83h183v-68h89zM783 -149v86h-383v75h364v233h-463v-82h370v-69h-365v-243h477z" />
<glyph unicode="&#xacd5;" d="M809 259v528h-89v-528h89zM626 277v489h-89v-142h-133q14 48 19 108h-351v-84h242q-21 -99 -95.5 -183t-208.5 -136l64 -66q209 86 299 277h164v-92h-183v-83h183v-88h89zM775 -147v374h-91v-112h-281v112h-91v-374h463zM684 -64h-281v95h281v-95z" />
<glyph unicode="&#xacd7;" d="M809 202v585h-89v-585h89zM626 252v514h-89v-170h-136q16 51 22 116h-351v-84h242q-21 -99 -95.5 -183t-208.5 -136l64 -66q204 84 295 270h168v-102h-183v-84h183v-75h89zM800 -90l-256 203q13 42 13 76v35h-95v-17q0 -90 -65.5 -170t-181.5 -115l61 -71 q73 23 132.5 71.5t96.5 109.5l234 -183z" />
<glyph unicode="&#xace0;" d="M699 490v194h-506v-83h417v-99q0 -178 -56 -302h95q50 113 50 290zM873 -1v84h-436v302h-90v-302h-320v-84h846z" />
<glyph unicode="&#xace1;" d="M684 750h-480v-84h387q-3 -169 -31 -267h94q13 48 21.5 148.5t8.5 202.5zM873 275v82h-430v172h-91v-172h-326v-82h847zM681 -160v336h-476v-84h387v-252h89z" />
<glyph unicode="&#xace4;" d="M684 750h-480v-84h387q-3 -180 -31 -278h94q13 48 21.5 153.5t8.5 208.5zM873 254v82h-431v189h-91v-189h-325v-82h847zM706 -138v84h-401v213h-89v-297h490z" />
<glyph unicode="&#xace7;" d="M684 750h-480v-84h387q-3 -166 -31 -264h94q30 113 30 348zM873 278v82h-430v172h-91v-172h-326v-82h847zM698 -144v84h-394v158h384v83h-475v-325h485z" />
<glyph unicode="&#xace8;" d="M684 760h-480v-83h387q-2 -145 -31 -246h94q30 116 30 329zM873 312v83h-433v167h-91v-167h-323v-83h847zM705 -149v85h-391v72h366v233h-465v-82h372v-69h-367v-239h485z" />
<glyph unicode="&#xacea;" d="M687 760h-480v-83h387q-2 -145 -31 -246h94q30 116 30 329zM873 312v83h-427v167h-91v-167h-329v-83h847zM746 -149v379h-280v-379h280zM448 -149v86h-205v69h181v229h-276v-82h184v-65h-182v-237h298zM654 -67h-97v214h97v-214z" />
<glyph unicode="&#xacec;" d="M689 760h-480v-83h388q-2 -142 -32 -246h94q30 116 30 329zM873 312v83h-425v167h-91v-167h-331v-83h847zM808 -88l-150 156q12 42 12 87v80h-94v-81q0 -65 -31.5 -125.5t-91.5 -91.5h-210v69h202v229h-297v-82h204v-65h-202v-237h313v31l23 -28q34 11 70.5 44.5 t64.5 81.5l124 -128z" />
<glyph unicode="&#xacef;" d="M688 760h-480v-83h388q-2 -133 -32 -238h92q32 134 32 321zM873 320v83h-426v167h-91v-167h-330v-83h847zM738 177v80q-56 -4 -136 -2q-67 11 -101 24l-29 -66q43 -24 122 -38q86 -2 144 2zM814 53v77h-385v-77h74q-45 -37 -45 -89q-1 -60 45 -94.5t115 -35.5 q68 -1 114 34.5t47 97.5q0 50 -42 87h77zM453 -149v86h-220v69h181v229h-276v-82h185v-65h-183v-237h313zM688 -30q-1 -27 -21 -43t-49 -15q-28 1 -47.5 17.5t-20.5 42.5q-1 28 20 46t51 17q33 -1 50.5 -18.5t16.5 -46.5z" />
<glyph unicode="&#xacf0;" d="M684 750h-480v-84h387q-3 -163 -31 -261h94q30 113 30 345zM873 276v82h-430v172h-91v-172h-326v-82h847zM686 -142v319h-475v-319h475zM595 -59h-292v153h292v-153z" />
<glyph unicode="&#xacf1;" d="M686 760h-480v-83h387q-2 -151 -31 -251h94q30 115 30 334zM873 301v82h-428v168h-91v-168h-328v-82h847zM691 -147v381h-91v-113h-291v113h-92v-381h474zM600 -64h-291v102h291v-102z" />
<glyph unicode="&#xacf3;" d="M685 750h-480v-84h387q-3 -169 -31 -267h94q13 48 21.5 148.5t8.5 202.5zM873 265v82h-429v188h-91v-188h-327v-82h847zM752 -85l-266 175q16 43 16 82v29h-97v-17q0 -83 -66.5 -154.5t-184.5 -107.5l61 -71q148 45 228 161l249 -164z" />
<glyph unicode="&#xacf5;" d="M689 750h-480v-84h388q-3 -165 -32 -267h94q13 48 21.5 148.5t8.5 202.5zM873 285v82h-425v167h-91v-167h-331v-82h847zM681 28q0 86 -65.5 139t-164.5 53q-98 0 -162 -53.5t-64 -139.5q0 -84 65.5 -136t160.5 -52q99 0 164.5 53.5t65.5 135.5zM588 29q0 -52 -39 -81.5 t-98 -29.5t-97 30.5t-38 80.5q0 51 38.5 82t96.5 31t97.5 -31t39.5 -82z" />
<glyph unicode="&#xacf6;" d="M684 750h-480v-84h387q-2 -158 -31 -257h94q30 115 30 341zM873 292v81h-430v171h-91v-171h-326v-81h847zM764 -77l-212 115q99 90 123 174h-459v-82h302q-55 -64 -155 -124t-213 -81l57 -73q141 34 271 126l228 -127z" />
<glyph unicode="&#xacfc;" horiz-adv-x="920" d="M914 355v83h-165v349h-90v-901h90v469h165zM509 678h-428v-83h333q-2 -193 -42 -302h97q40 146 40 385zM629 139v83q-160 -32 -340 -32v236h-89v-236h-184v-84h186q107 0 190.5 5t126.5 11t110 17z" />
<glyph unicode="&#xacfd;" horiz-adv-x="920" d="M904 464v85h-155v237h-90v-572h90v250h155zM503 721h-406v-84h314q-4 -125 -39 -232h93q23 79 30.5 143t7.5 173zM634 287v81q-39 -9 -92.5 -15t-90.5 -8t-93 -4t-68 -3v185h-89v-185h-176v-83h188q48 0 90 1t80 3t62 4t57.5 6t45.5 5.5t46 6.5t40 6zM738 -160v326h-478 v-84h388v-242h90z" />
<glyph unicode="&#xad00;" horiz-adv-x="920" d="M906 439v85h-159v263h-90v-662h90v314h159zM501 711h-406v-84h314q-5 -149 -40 -252h94q22 77 30 150t8 186zM632 256v80q-108 -21 -344 -27v196h-89v-196h-176v-84h188q43 0 82.5 1t67 2t61.5 3.5t50 3.5t47.5 5t38 5t39.5 6t35 5zM759 -139v84h-395v215h-91v-299h486z " />
<glyph unicode="&#xad04;" horiz-adv-x="920" d="M906 487v84h-159v216h-90v-505h90v205h159zM501 731h-406v-83h314q-3 -105 -39 -215h93q23 83 30.5 136.5t7.5 161.5zM633 327v83q-68 -14 -169 -22.5t-176 -7.5v163h-89v-163h-176v-82h188q108 0 195.5 5t121.5 9.5t105 14.5zM746 -149v86h-383v74h363v230h-463v-82h371 v-66h-366v-242h478z" />
<glyph unicode="&#xad06;" horiz-adv-x="920" d="M906 487v84h-159v216h-90v-511h90v211h159zM501 731h-406v-83h314q-3 -108 -37 -216h92q23 80 30 135.5t7 163.5zM633 328v83q-157 -30 -345 -30v162h-89v-162h-175v-82h187q108 0 195.5 5t121.5 9.5t105 14.5zM749 -149v382h-277v-382h277zM453 -149v86h-213v68h190v229 h-285v-82h192v-65h-190v-236h306zM657 -67h-95v217h95v-217z" />
<glyph unicode="&#xad0c;" horiz-adv-x="920" d="M904 464v85h-155v237h-90v-562h90v240h155zM503 721h-406v-84h314q-4 -125 -38 -233h92q23 79 30.5 143.5t7.5 173.5zM635 292v80q-95 -18 -345 -28v179h-89v-179h-175v-83h187q108 0 195.5 5.5t121.5 10t105 15.5zM740 -142v321h-465v-321h465zM648 -59h-282v155h282 v-155z" />
<glyph unicode="&#xad0d;" horiz-adv-x="920" d="M906 487v84h-159v216h-90v-514h90v214h159zM501 731h-406v-83h314q-3 -108 -38 -219h92q23 81 30.5 138t7.5 164zM633 320v83q-153 -31 -345 -31v167h-89v-167h-175v-81h187q108 0 195.5 5t121.5 9.5t105 14.5zM738 -147v372h-92v-108h-281v108h-91v-372h464zM646 -64 h-281v97h281v-97z" />
<glyph unicode="&#xad0f;" horiz-adv-x="920" d="M904 454v84h-155v248h-90v-613h90v281h155zM503 721h-406v-84h314q-4 -129 -38 -237h92q22 78 30 144.5t8 176.5zM635 281v81q-102 -20 -345 -29v190h-89v-190h-175v-83h187q43 0 82 1t67.5 2t61.5 3.5t50 3.5t47.5 5t38.5 5t39.5 5.5t35.5 5.5zM793 -86l-259 174 q19 47 19 91v25h-95v-7q0 -89 -65 -165t-182 -112l61 -69q140 45 219 160l244 -164z" />
<glyph unicode="&#xad11;" horiz-adv-x="920" d="M904 464v85h-155v237h-90v-560h90v238h155zM503 721h-406v-84h314q-4 -127 -38 -235h92q22 79 30 144t8 175zM635 291v81q-79 -15 -345 -29v180h-89v-180h-175v-83h187q43 0 82 1t67.5 2t61.5 3.5t50 3.5t47.5 5t38.5 5t39.5 5.5t35.5 5.5zM739 30q0 86 -65.5 139.5 t-164.5 53.5q-97 0 -161.5 -53.5t-64.5 -140.5q0 -84 65.5 -137t160.5 -53q99 0 164.5 54.5t65.5 136.5zM646 31q0 -52 -39 -82.5t-98 -30.5q-58 0 -96.5 31.5t-38.5 81.5q0 51 38.5 82.5t96.5 31.5t97.5 -31.5t39.5 -82.5z" />
<glyph unicode="&#xad18;" horiz-adv-x="920" d="M838 -114v901h-88v-349h-105v329h-86v-819h86v406h105v-468h88zM466 678h-381v-83h285q-2 -193 -42 -302h97q41 144 41 385zM535 139v83q-125 -32 -263 -32v241h-90v-241h-151v-84h153q64 0 110 1.5t82.5 5.5t53.5 6.5t53.5 9.5t51.5 10z" />
<glyph unicode="&#xad1c;" horiz-adv-x="920" d="M828 140v647h-88v-266h-104v245h-87v-586h87v257h104v-297h88zM448 711h-366v-84h273q-5 -146 -38 -252h92q23 76 31 149t8 187zM527 256v80q-124 -24 -272 -27v196h-90v-196h-144v-84h157q49 0 90 1.5t81.5 5.5t59.5 6.5t63.5 9.5t54.5 8zM815 -139v84h-394v215h-90 v-299h484z" />
<glyph unicode="&#xad20;" horiz-adv-x="920" d="M828 274v513h-88v-218h-104v197h-87v-472h87v192h104v-212h88zM448 731h-366v-83h273q-3 -111 -38 -222h92q24 80 31.5 138.5t7.5 166.5zM527 324v81q-122 -25 -272 -28v169h-90v-169h-144v-83h157q141 0 349 30zM804 -149v86h-383v74h363v230h-463v-82h371v-66h-366 v-242h478z" />
<glyph unicode="&#xad29;" horiz-adv-x="920" d="M828 264v523h-88v-218h-104v197h-87v-483h87v203h104v-222h88zM448 731h-366v-83h273q-3 -111 -38 -222h92q24 80 31.5 138.5t7.5 166.5zM527 324v81q-122 -25 -272 -28v169h-90v-169h-144v-83h157q34 0 65 1t60.5 3t49.5 3.5t49 5t41 5t43.5 6.5t40.5 6zM788 -147v377 h-92v-118h-281v118h-91v-377h464zM696 -64h-281v92h281v-92z" />
<glyph unicode="&#xad2c;" horiz-adv-x="920" d="M833 212v575h-88v-240h-104v219h-87v-535h87v233h104v-252h88zM453 721h-366v-84h273q0 -137 -37 -231h92q23 67 30.5 134t7.5 181zM532 283v80q-116 -25 -272 -28v180h-90v-180h-144v-83h157q69 0 126 3.5t82 6.5t76 11t65 10zM864 -86l-178 162q7 31 9 70v39h-93v-36 q0 -55 -24.5 -108t-67.5 -84l-112 112q8 20 12 77v39h-94v-36q0 -73 -44.5 -136t-125.5 -89l59 -72q101 45 155 132l139 -139q104 45 154 143l153 -137z" />
<glyph unicode="&#xad2d;" horiz-adv-x="920" d="M828 232v555h-88v-238h-104v217h-87v-504h87v204h104v-234h88zM448 721h-366v-84h273q0 -137 -37 -231h92q23 67 30.5 134t7.5 181zM527 285v80q-129 -25 -272 -28v180h-90v-180h-144v-83h146q82 0 142.5 3.5t86.5 6.5t68.5 10.5t62.5 10.5zM788 30q0 86 -65.5 139.5 t-164.5 53.5q-97 0 -161.5 -53.5t-64.5 -140.5q0 -84 65.5 -137t160.5 -53q99 0 164.5 54.5t65.5 136.5zM695 31q0 -52 -39 -82.5t-98 -30.5q-58 0 -96.5 31.5t-38.5 81.5q0 51 38.5 82.5t96.5 31.5t97.5 -31.5t39.5 -82.5z" />
<glyph unicode="&#xad34;" horiz-adv-x="870" d="M784 -114v901h-90v-901h90zM535 678h-434v-83h338q-2 -195 -41 -302h96q41 144 41 385zM663 139v83q-160 -32 -349 -32v241h-89v-241h-199v-84h211q106 0 189.5 5t126.5 11t110 17z" />
<glyph unicode="&#xad35;" horiz-adv-x="870" d="M779 204v582h-89v-582h89zM524 721h-412v-84h320q-5 -131 -39 -237h93q22 80 30 146.5t8 174.5zM665 281v81q-101 -19 -357 -29v190h-89v-190h-188v-83h201q218 0 433 31zM768 -160v326h-477v-84h387v-242h90z" />
<glyph unicode="&#xad38;" horiz-adv-x="870" d="M772 125v662h-89v-662h89zM517 711h-412v-84h320q-6 -149 -40 -252h94q38 136 38 336zM658 256v80q-108 -21 -357 -27v196h-89v-196h-188v-84h201q218 0 433 31zM785 -139v84h-395v215h-90v-299h485z" />
<glyph unicode="&#xad3c;" horiz-adv-x="870" d="M769 276v511h-89v-511h89zM514 731h-412v-83h320q-4 -106 -39 -217h94q23 82 30 138t7 162zM655 325v83q-67 -14 -172.5 -22.5t-182.5 -8.5v156h-89v-156h-190v-81h203q230 0 431 29zM761 -149v86h-383v74h364v230h-464v-82h371v-66h-366v-242h478z" />
<glyph unicode="&#xad44;" horiz-adv-x="870" d="M766 214v572h-89v-572h89zM511 721h-407v-84h315q-5 -126 -39 -233h93q22 80 30 144.5t8 172.5zM642 292v80q-96 -18 -345 -28v179h-89v-179h-185v-83h198q108 0 195 5.5t121 10t105 15.5zM747 -142v321h-465v-321h465zM655 -59h-281v155h281v-155z" />
<glyph unicode="&#xad45;" horiz-adv-x="870" d="M769 267v520h-89v-520h89zM514 731h-412v-83h320q-5 -111 -39 -221h94q22 81 29.5 139t7.5 165zM645 315v83q-153 -31 -345 -31v160h-89v-160h-190v-81h193q230 0 431 29zM750 -147v377h-92v-118h-280v118h-92v-377h464zM658 -64h-280v92h280v-92z" />
<glyph unicode="&#xad47;" horiz-adv-x="870" d="M767 179v608h-89v-608h89zM511 721h-411v-84h319q-5 -131 -39 -237h93q22 80 30 146.5t8 174.5zM642 277v81q-96 -19 -345 -29v187h-89v-187h-189v-83h192q107 0 198.5 6t124 10t108.5 15zM790 -86l-259 174q19 47 19 91v25h-95v-7q0 -89 -65 -165t-182 -112l61 -69 q140 45 219 160l244 -164z" />
<glyph unicode="&#xad49;" horiz-adv-x="870" d="M769 230v557h-89v-557h89zM513 721h-412v-84h320q-5 -128 -39 -235h94q22 79 29.5 144.5t7.5 174.5zM644 294v80q-131 -25 -345 -27v171h-89v-171h-190v-83h193q237 0 431 30zM748 30q0 86 -65.5 139.5t-164.5 53.5q-97 0 -161.5 -53.5t-64.5 -140.5q0 -84 65.5 -137 t160.5 -53q99 0 164.5 54.5t65.5 136.5zM655 31q0 -52 -39 -82.5t-98 -30.5q-58 0 -96.5 31.5t-38.5 81.5q0 51 38.5 82.5t96.5 31.5t97.5 -31.5t39.5 -82.5z" />
<glyph unicode="&#xad50;" d="M698 490v194h-506v-83h417v-99q0 -178 -56 -302h95q50 113 50 290zM873 -1v84h-354v274h-90v-274h-96v274h-90v-274h-217v-84h847z" />
<glyph unicode="&#xad54;" d="M684 750h-480v-84h387q-3 -180 -31 -278h94q13 48 21.5 153.5t8.5 208.5zM874 240v82h-349v199h-91v-199h-85v199h-91v-199h-232v-82h848zM706 -138v84h-401v213h-88v-297h489z" />
<glyph unicode="&#xad58;" d="M684 760h-480v-83h387q-2 -145 -31 -246h94q30 116 30 329zM874 304v82h-349v178h-91v-178h-85v178h-91v-178h-232v-82h848zM705 -149v85h-391v71h367v233h-465v-82h371v-69h-366v-238h484z" />
<glyph unicode="&#xad61;" d="M686 760h-480v-83h387q-2 -151 -31 -251h94q30 108 30 334zM874 288v82h-349v189h-91v-189h-85v189h-91v-189h-232v-82h848zM691 -147v381h-91v-122h-291v122h-91v-381h473zM600 -64h-291v92h291v-92z" />
<glyph unicode="&#xad63;" d="M682 760h-480v-83h387q-3 -180 -31 -278h94q13 48 21.5 153t8.5 208zM874 263v82h-351v198h-91v-198h-85v198h-91v-198h-230v-82h848zM742 -85q-265 175 -266 175q16 41 16 82v29h-97v-17q0 -83 -66.5 -154.5t-184.5 -107.5l61 -71q147 46 229 161l248 -164z" />
<glyph unicode="&#xad6c;" d="M691 732h-499v-83h407q-3 -153 -48 -293h90q50 180 50 376zM873 241v84h-847v-84h363v-373h91v373h393z" />
<glyph unicode="&#xad6d;" d="M869 328v83h-231q38 168 38 339h-480v-84h386q-3 -143 -36 -255h-525v-83h365v-140h-186v-84h387v-264h90v348h-201v140h393z" />
<glyph unicode="&#xad70;" d="M869 295v82h-234q41 160 41 373h-480v-84h386q-3 -177 -40 -289h-521v-82h390v-230h90v230h368zM692 -138v84h-402v234h-88v-318h490z" />
<glyph unicode="&#xad73;" d="M869 323v83h-232q39 157 39 344h-480v-84h386q-3 -146 -38 -260h-523v-83h375v-136h-187v-331h484v84h-394v164h384v83h-197v136h383z" />
<glyph unicode="&#xad74;" d="M869 354v82h-230q37 166 37 324h-480v-84h386q-2 -132 -35 -240v0v0v0v0v0h-1v0v0v0h-1v0v0h-1v0h-1v0h-1v0h-1v0h-1h-1v0h-1h-1v0h-1h-1h-1h-1h-1h-1h-1h-1h-1h-1h-1h-1h-1h-1h-1h-1h-1h-1h-1h-1h-1h-1h-1h-1h-1h-1h-1h-1h-1h-1h-1h-1h-1h-1h-1h-1h-1h-1h-1h-1h-1h-1h-1 h-1h-1h-1h-1h-1h-1h-1h-1h-1h-1h-1h-1h-1h-1h-1h-1h-1h-1h-1h-1h-1h-1h-1h-1h-1h-1h-1h-1h-1h-1h-1h-1h-1h-1h-1h-1h-1h-1h-2h-1h-1h-1h-1h-1h-1h-1h-1h-1h-1h-1h-1h-1h-2h-1h-1h-1h-1h-1h-1h-1h-2h-1h-1h-1h-1h-1h-1h-2h-1h-1h-1h-1h-1h-2h-1h-1h-1h-1h-2h-1h-1h-1h-1h-2 h-1h-1h-1h-2h-1h-1h-1h-2h-1h-1h-1h-2h-1h-1h-1h-2h-1h-1h-1h-2h-1h-1h-2h-1h-1h-2h-1h-1h-2h-1h-1h-1h-2h-1h-1h-2h-1h-2h-1h-1h-2h-1h-1h-2h-1h-1h-2h-1h-2h-1h-1h-2h-1h-2h-1h-1h-2h-1h-2h-1h-1h-2h-1h-2h-1h-2h-1h-1h-2h-1h-2h-1h-2h-1h-2h-1h-2h-1h-1h-2h-1h-2h-1h-2 h-1h-2h-1h-2h-1h-2h-1h-2h-1h-2h-1h-2h-1h-2h-2h-1h-2h-1h-2h-1h-2h-1h-2h-1h-2h-2h-1h-2h-1h-2h-1h-2h-2h-1h-2h-1h-2h-1h-2h-2h-1h-2h-1h-2h-2h-1h-2h-2h-1h-2h-1h-2h-2h-1h-2h-2h-1h-2h-2h-1h-2h-1h-2h-2h-1h-2h-2h-1h-2h-2h-2h-1h-2h-2h-1h-2h-2h-1h-2h-2h-1h-2h-2h-2 h-1h-2h-2h-1h-2h-2h-2h-1h-2h-2h-2h-1h-2h-2h-2h-1h-2h-2h-2h-1h-2h-2h-2h-1h-2h-2h-2h-2h-1h-2h-2h-2h-2h-1h-2h-2h-2h-2h-1h-2h-2h-2h-2h-2h-1h-2h-2h-2h-2h-2h-1h-2h-2h-2h-2h-2h-2h-1h-2h-2h-2h-2h-2h-2h-2h-1h-2h-2h-2h-9v-82h375v-101h-185v-82h371v-77h-366v-243h484 v85h-391v76h367v241h-190v101h383z" />
<glyph unicode="&#xad75;" d="M869 354v82h-233q37 152 37 324h-480v-84h386q-2 -127 -35 -240h-523v-82h369v-101h-247v-82h214v-75h-212v-245h339v86h-246v77h212v154h195v-317h92v402h-257v101h389z" />
<glyph unicode="&#xad76;" d="M869 354v82h-230q37 166 37 324h-480v-84h386q-2 -132 -35 -240v0v0v0v0v0h-1v0v0v0h-1v0v0h-1v0h-1v0h-1v0h-1v0h-1h-1v0h-1h-1v0h-1h-1h-1h-1h-1h-1h-1h-1h-1h-1h-1h-1h-1h-1h-1h-1h-1h-1h-1h-1h-1h-1h-1h-1h-1h-1h-1h-1h-1h-1h-1h-1h-1h-1h-1h-1h-1h-1h-1h-1h-1h-1h-1 h-1h-1h-1h-1h-1h-1h-1h-1h-1h-1h-1h-1h-1h-1h-1h-1h-1h-1h-1h-1h-1h-1h-1h-1h-1h-1h-1h-1h-1h-1h-1h-1h-1h-1h-1h-1h-1h-1h-2h-1h-1h-1h-1h-1h-1h-1h-1h-1h-1h-1h-1h-1h-2h-1h-1h-1h-1h-1h-1h-1h-2h-1h-1h-1h-1h-1h-1h-2h-1h-1h-1h-1h-1h-2h-1h-1h-1h-1h-2h-1h-1h-1h-1h-2 h-1h-1h-1h-2h-1h-1h-1h-2h-1h-1h-1h-2h-1h-1h-1h-2h-1h-1h-1h-2h-1h-1h-2h-1h-1h-2h-1h-1h-2h-1h-1h-1h-2h-1h-1h-2h-1h-2h-1h-1h-2h-1h-1h-2h-1h-1h-2h-1h-2h-1h-1h-2h-1h-2h-1h-1h-2h-1h-2h-1h-1h-2h-1h-2h-1h-2h-1h-1h-2h-1h-2h-1h-2h-1h-2h-1h-2h-1h-1h-2h-1h-2h-1h-2 h-1h-2h-1h-2h-1h-2h-1h-2h-1h-2h-1h-2h-1h-2h-2h-1h-2h-1h-2h-1h-2h-1h-2h-1h-2h-2h-1h-2h-1h-2h-1h-2h-2h-1h-2h-1h-2h-1h-2h-2h-1h-2h-1h-2h-2h-1h-2h-2h-1h-2h-1h-2h-2h-1h-2h-2h-1h-2h-2h-1h-2h-1h-2h-2h-1h-2h-2h-1h-2h-2h-2h-1h-2h-2h-1h-2h-2h-1h-2h-2h-1h-2h-2h-2 h-1h-2h-2h-1h-2h-2h-2h-1h-2h-2h-2h-1h-2h-2h-2h-1h-2h-2h-2h-1h-2h-2h-2h-1h-2h-2h-2h-2h-1h-2h-2h-2h-2h-1h-2h-2h-2h-2h-1h-2h-2h-2h-2h-2h-1h-2h-2h-2h-2h-2h-1h-2h-2h-2h-2h-2h-2h-1h-2h-2h-2h-2h-2h-2h-2h-1h-2h-2h-2h-9v-82h372v-102h-250v-82h191v-74h-189v-245h306 v86h-213v77h189v167h38v-330h276v396h-258v107h386zM649 -67h-95v231h95v-231z" />
<glyph unicode="&#xad7b;" d="M869 354v82h-230q39 159 39 324h-480v-84h386q-2 -132 -35 -240h-528v-82h374v-95h-260v-82h194v-78h-192v-248h313v86h-220v80h188v168h67v33q54 -29 115 -34q81 -3 138 2v77q-38 -5 -130 -1q-68 9 -101 25l-22 -52v119h384zM811 53v77h-379v-77h78q-19 -11 -34 -37 t-15 -52q-1 -60 45 -94.5t115 -35.5q68 -1 114 34.5t47 97.5q0 56 -48 87h77zM691 -30q-1 -27 -21 -43t-49 -15q-28 1 -47.5 17.5t-20.5 42.5q-1 28 20 46t51 17q33 -1 50.5 -18.5t16.5 -46.5z" />
<glyph unicode="&#xad7c;" d="M869 323v83h-233q40 165 40 344h-480v-84h386q-3 -146 -38 -260h-523v-83h374v-134h-183v-331h474v331h-201v134h384zM595 -59h-292v164h292v-164z" />
<glyph unicode="&#xad7d;" d="M869 356v82h-233q40 166 40 322h-480v-84h386q-2 -129 -38 -238h-523v-82h381v-171h90v171h377zM686 -147v395h-91v-126h-291v126h-91v-395h473zM595 -64h-291v103h291v-103z" />
<glyph unicode="&#xad7f;" d="M869 320v83h-237q40 173 40 347h-480v-84h386q-3 -148 -39 -263v0v0v0v0h-1v0v0v0h-1v0h-1v0v0h-1v0h-1v0h-1v0h-1v0h-1v0h-1h-1h-1v0h-1h-1h-1h-1h-1h-1h-1h-1h-1h-1h-1h-1h-1h-1h-1h-1h-1h-1h-1h-1h-1h-1h-1h-1h-1h-1h-1h-1h-1h-1h-1h-1h-1h-1h-1h-1h-1h-1h-1h-1h-1h-1 h-1h-1h-1h-1h-1h-1h-1h-1h-1h-1h-1h-1h-1h-1h-1h-1h-1h-1h-1h-1h-1h-1h-1h-1h-1h-1h-1h-1h-1h-1h-1h-1h-1h-1h-1h-1h-1h-1h-1h-2h-1h-1h-1h-1h-1h-1h-1h-1h-1h-1h-1h-2h-1h-1h-1h-1h-1h-1h-1h-1h-2h-1h-1h-1h-1h-1h-2h-1h-1h-1h-1h-1h-2h-1h-1h-1h-1h-2h-1h-1h-1h-1h-2h-1 h-1h-1h-2h-1h-1h-1h-2h-1h-1h-1h-2h-1h-1h-1h-2h-1h-1h-2h-1h-1h-1h-2h-1h-1h-2h-1h-1h-2h-1h-1h-2h-1h-1h-2h-1h-1h-2h-1h-1h-2h-1h-2h-1h-1h-2h-1h-1h-2h-1h-2h-1h-1h-2h-1h-2h-1h-1h-2h-1h-2h-1h-2h-1h-1h-2h-1h-2h-1h-2h-1h-2h-1h-2h-1h-2h-1h-1h-2h-1h-2h-1h-2h-1h-2 h-1h-2h-1h-2h-1h-2h-1h-2h-1h-2h-2h-1h-2h-1h-2h-1h-2h-1h-2h-1h-2h-2h-1h-2h-1h-2h-1h-2h-2h-1h-2h-1h-2h-1h-2h-2h-1h-2h-1h-2h-2h-1h-2h-2h-1h-2h-1h-2h-2h-1h-2h-2h-1h-2h-1h-2h-2h-1h-2h-2h-1h-2h-2h-1h-2h-2h-1h-2h-2h-2h-1h-2h-2h-1h-2h-2h-1h-2h-2h-2h-1h-2h-2h-1 h-2h-2h-2h-1h-2h-2h-2h-1h-2h-2h-2h-1h-2h-2h-2h-1h-2h-2h-2h-2h-1h-2h-2h-2h-1h-2h-2h-2h-2h-1h-2h-2h-2h-2h-2h-1h-2h-2h-2h-2h-1h-2h-2h-2h-2h-2h-2h-1h-2h-2h-2h-2h-2h-2h-1h-2h-2h-2h-2h-2h-2h-2h-1h-10v-83h370v-130q0 -84 -68 -158t-186 -110l61 -71q145 45 228 162 l249 -165l60 67l-268 177q14 34 14 96v132h388z" />
<glyph unicode="&#xad81;" d="M869 323v83h-231q39 149 39 344h-480v-84h386q-3 -146 -38 -260h-524v-83h373v-107q-79 -13 -128 -63.5t-49 -125.5q0 -84 65.5 -136t160.5 -52q99 0 164.5 53.5t65.5 135.5q0 76 -52.5 127t-136.5 62v106h385zM580 29q0 -52 -39 -81.5t-98 -29.5t-97 30.5t-38 80.5 q0 51 38.5 82t96.5 31t97.5 -31t39.5 -82z" />
<glyph unicode="&#xad82;" d="M869 333v83h-230q37 169 37 334h-480v-84h386q-2 -138 -35 -250h-526v-83h372v-121h-182v-82h302q-55 -64 -155 -124t-213 -81l57 -73q141 34 271 126l228 -127l58 72l-212 115q99 90 123 174h-187v121h386z" />
<glyph unicode="&#xad88;" horiz-adv-x="870" d="M785 -114v901h-89v-612h-220v-84h220v-205h89zM535 711h-421v-84h329q-4 -158 -44 -265h95q23 76 32 152.5t9 196.5zM637 276v85q-165 -33 -391 -33h-221v-83h185h61v-346h89v349q122 5 277 28z" />
<glyph unicode="&#xad89;" horiz-adv-x="870" d="M784 193v594h-87v-463h-206v-80h206v-51h87zM637 390v84q-35 -7 -133 -19q24 103 24 276h-407v-82h314q-4 -138 -22 -201q-83 -5 -167 -5h-211v-82h175h48v-168h89v170q125 3 290 27zM768 -160v306h-476v-84h386v-222h90z" />
<glyph unicode="&#xad8c;" horiz-adv-x="870" d="M784 100v687h-87v-504h-206v-80h206v-103h87zM637 359v83q-68 -13 -135 -20q26 114 26 299h-407v-83h314q-4 -148 -23 -224q-67 -4 -166 -4h-211v-81h175h48v-157h89v159q123 4 290 28zM784 -139v84h-395v195h-90v-279h485z" />
<glyph unicode="&#xad90;" horiz-adv-x="870" d="M783 256v531h-87v-420h-206v-80h206v-31h87zM636 413v83q-56 -13 -133 -22q24 95 24 257h-407v-82h313q-3 -112 -24 -183q-65 -4 -164 -4h-211v-79h175h48v-127h89v129q123 4 290 28zM785 -149v86h-383v66h363v221h-463v-82h370v-58h-365v-233h478z" />
<glyph unicode="&#xad9c;" horiz-adv-x="870" d="M779 197v590h-87v-462h-206v-80h206v-48h87zM632 395v82q-65 -13 -132 -20q23 103 23 274h-407v-82h314q-3 -128 -22 -200q-67 -4 -167 -4h-211v-80h175h48v-168h89v170q133 4 290 28zM839 -86l-178 162q7 31 9 70v19h-93v-16q0 -55 -24.5 -108t-67.5 -84l-112 112 q8 20 12 77v19h-94v-16q0 -73 -44.5 -136t-125.5 -89l59 -72q101 45 155 132l139 -139q104 45 154 143l153 -137z" />
<glyph unicode="&#xad9d;" horiz-adv-x="870" d="M784 213v574h-87v-439h-206v-80h206v-55h87zM637 406v83q-62 -12 -131 -21q22 100 22 263h-407v-82h314q-3 -100 -24 -189q-65 -4 -165 -4h-211v-80h175h48v-163h89v165q133 4 290 28zM767 28q0 86 -65.5 138t-164.5 52q-98 0 -162 -52.5t-64 -138.5q0 -84 65.5 -136 t160.5 -52q99 0 164.5 53.5t65.5 135.5zM674 29q0 -52 -39 -81.5t-98 -29.5t-97 30.5t-38 80.5q0 51 38 81t97 30t98 -30.5t39 -80.5z" />
<glyph unicode="&#xada4;" horiz-adv-x="920" d="M835 -114v901h-88v-901h88zM655 -74v841h-87v-585h-175v-84h175v-172h87zM451 711h-357v-84h266q-4 -148 -44 -260h94q23 78 32 152t9 192zM539 279v85q-165 -33 -337 -33h-158v-83h132h48v-349h89v352q57 3 226 28z" />
<glyph unicode="&#xadb7;" horiz-adv-x="920" d="M833 181v606h-89v-606h89zM661 221v545h-87v-428h-177v-83h177v-34h87zM542 395v82q-70 -16 -126 -21q25 99 25 275h-351v-82h259q-5 -113 -26 -202l-123 -2h-164v-80h177v-179h88v180q46 2 83.5 5.5t56.5 6.5t51 8.5t50 8.5zM827 -86l-258 167q18 44 18 88v25h-95v-7 q0 -88 -64.5 -159.5t-182.5 -107.5l61 -69q139 45 220 155l243 -159z" />
<glyph unicode="&#xadc0;" horiz-adv-x="870" d="M775 -114v901h-89v-901h89zM540 711h-421v-84h330q-4 -148 -44 -260h95q22 77 31 151t9 193zM647 283v85q-165 -33 -385 -33h-232v-83h196h51v-353h89v0v0v0v1v0v0v1v0v1v0v1v0v1v1v0v1v1v1v0v1v1v1v1v1v1v1v1v1v1v1v1v1v1v1v1v1v1v1v1v1v1v1v1v1v1v1v1v1v1v1v1v1v1v1v1 v1v1v1v1v1v1v1v1v1v1v1v1v1v1v1v1v1v1v1v1v1v1v1v1v1v1v1v2v1v1v1v1v1v1v1v2v1v1v1v1v1v2v1v1v1v1v2v1v1v1v2v1v1v1v2v1v1v1v2v1v1v2v1v1v1v2v1v1v2v1v1v2v1v1v2v1v2v1v1v2v1v1v2v1v2v1v1v2v1v2v1v2v1v1v2v1v2v1v2v1v2v1v2v1v2v1v2v1v2v1v2v1v2v1v2v1v2v1v2v2v1v2v1v2v1v2v2 v1v2v1v2v1v2v2v1v2v2v1v2v1v2v2v1v2v2v1v2v2v1v2v2v1v2v2v1v2v2v2v1v2v2v1v2v2v2v1v2v2v2v1v2v2v2v1v2v2v2v1v2v2v2v2v1v2v2v2v2v2v1v2v2v2v2v2v1v2v2v2v2v2v2v1v2v2v2v2v9q119 5 281 29z" />
<glyph unicode="&#xadc1;" horiz-adv-x="870" d="M779 182v605h-87v-605h87zM652 378v83q-61 -13 -146 -22q27 104 27 292h-407v-82h315q-5 -124 -30 -217q-65 -4 -160 -4h-221v-80h196h17v-162h89v163q145 3 320 29zM764 -160v306h-476v-84h387v-222h89z" />
<glyph unicode="&#xadc4;" horiz-adv-x="870" d="M779 100v687h-87v-687h87zM652 354v83q-65 -14 -146 -21q27 116 27 305h-407v-83h314q-3 -128 -27 -229q-67 -4 -162 -4h-221v-81h186h37v-152h89v154q151 4 310 28zM779 -139v84h-395v195h-90v-279h485z" />
<glyph unicode="&#xadc8;" horiz-adv-x="870" d="M779 261v526h-87v-526h87zM652 408v83q-57 -12 -143 -22q24 92 24 262h-407v-82h314q-3 -101 -26 -187q-67 -4 -163 -4h-221v-80h196h23v-117h89v118q141 3 314 29zM776 -149v86h-383v69h363v223h-463v-82h370v-59h-365v-237h478z" />
<glyph unicode="&#xadd0;" horiz-adv-x="870" d="M779 210v577h-87v-577h87zM652 386v83q-78 -15 -144 -21q25 103 25 283h-407v-82h314q-3 -119 -27 -209q-65 -4 -162 -4h-221v-80h196h27v-142h89v143q47 1 85.5 3t72.5 6t53.5 6t53 7t45.5 7zM758 -142v317h-464v-317h464zM666 -59h-281v151h281v-151z" />
<glyph unicode="&#xadd1;" horiz-adv-x="870" d="M779 254v533h-87v-533h87zM652 408v83q-57 -12 -143 -22q24 92 24 262h-407v-82h314q-3 -101 -26 -187q-67 -4 -163 -4h-221v-80h196h27v-124h89v125q47 1 85.5 3t72.5 6t53.5 6t53 7t45.5 7zM757 -147v365h-92v-108h-286v108h-91v-365h469zM665 -64h-286v90h286v-90z " />
<glyph unicode="&#xadd3;" horiz-adv-x="870" d="M777 160v627h-87v-627h87zM650 371v83q-61 -14 -147 -22q28 102 28 289h-407v-83h314q-5 -125 -29 -213q-65 -4 -162 -4h-219v-81h221v-168h89v169q30 1 58 2t47.5 2t45 4t35.5 3.5t36 4.5t29.5 4.5t31.5 5t29 4.5zM802 -86l-259 174q19 47 19 91v25h-95v-7 q0 -89 -65 -165t-182 -112l61 -69q140 45 219 160l244 -164z" />
<glyph unicode="&#xaddc;" d="M690 732h-499v-83h407q-3 -148 -48 -288h90q50 180 50 371zM872 246v84h-847v-84h231v-378h90v378h189v-378h91v378h246z" />
<glyph unicode="&#xade0;" d="M874 313v83h-233q40 168 40 354h-470v-84h376q-3 -153 -38 -270h-523v-83h315v-230h91v230h97v-230h89v230h256zM696 -138v84h-402v238h-88v-322h490z" />
<glyph unicode="&#xade4;" d="M874 362v80h-232q39 159 39 318h-480v-84h386q-2 -129 -36 -234h-525v-80h248v-108h-58v-82h371v-77h-366v-244h484v85h-391v77h367v241h-58v108h251zM533 254h-169v108h169v-108z" />
<glyph unicode="&#xadf8;" d="M696 482v202h-506v-83h415v-108q0 -79 -14.5 -163t-41.5 -140h97q50 126 50 292zM878 9v85h-856v-85h856z" />
<glyph unicode="&#xadf9;" d="M878 311v83h-240q42 173 42 356h-479v-84h386q-1 -56 -11.5 -134t-30.5 -138h-524v-83h857zM671 -160v357h-476v-84h387v-273h89z" />
<glyph unicode="&#xadfc;" d="M878 284v82h-239q41 181 41 384h-479v-84h386q-1 -61 -11.5 -149.5t-29.5 -150.5h-525v-82h857zM706 -138v84h-401v240h-89v-324h490z" />
<glyph unicode="&#xadff;" d="M873 313v83h-234q41 173 41 354h-479v-84h386q-3 -153 -41 -270h-520v-83h847zM698 -144v84h-394v168h384v85l-475 -1v-336h485z" />
<glyph unicode="&#xae00;" d="M873 349v82h-226q36 163 36 329h-480v-84h386q-2 -133 -34 -245v0v0v0v0v0h-1v0v0v0h-1v0v0h-1v0h-1v0h-1v0h-1v0h-1h-1v0h-1v0h-1h-1h-1h-1h-1v0h-1h-1h-1h-1h-1h-1h-1h-1h-1h-1h-1h-1h-1h-1h-1h-1h-1h-1h-1h-1h-1h-1h-1h-1h-1h-1h-1h-1h-1h-1h-1h-1h-1h-1h-1h-1h-1h-1 h-1h-1h-1h-1h-1h-1h-1h-1h-1h-1h-1h-1h-1h-1h-1h-1h-1h-1h-1h-1h-1h-1h-1h-1h-1h-1h-1h-1h-1h-1h-1h-1h-1h-1h-1h-1h-1h-1h-1h-1h-1h-1h-1h-1h-1h-1h-2h-1h-1h-1h-1h-1h-1h-1h-1h-1h-1h-2h-1h-1h-1h-1h-1h-1h-1h-2h-1h-1h-1h-1h-1h-2h-1h-1h-1h-1h-1h-2h-1h-1h-1h-1h-2h-1 h-1h-1h-2h-1h-1h-1h-1h-2h-1h-1h-1h-2h-1h-1h-1h-2h-1h-1h-2h-1h-1h-1h-2h-1h-1h-2h-1h-1h-2h-1h-1h-1h-2h-1h-1h-2h-1h-1h-2h-1h-2h-1h-1h-2h-1h-1h-2h-1h-1h-2h-1h-2h-1h-1h-2h-1h-2h-1h-1h-2h-1h-2h-1h-1h-2h-1h-2h-1h-2h-1h-1h-2h-1h-2h-1h-2h-1h-2h-1h-2h-1h-2h-1h-1 h-2h-1h-2h-1h-2h-1h-2h-1h-2h-1h-2h-1h-2h-2h-1h-2h-1h-2h-1h-2h-1h-2h-1h-2h-1h-2h-2h-1h-2h-1h-2h-1h-2h-1h-2h-2h-1h-2h-1h-2h-2h-1h-2h-1h-2h-2h-1h-2h-1h-2h-2h-1h-2h-2h-1h-2h-1h-2h-2h-1h-2h-2h-1h-2h-2h-1h-2h-2h-1h-2h-2h-1h-2h-2h-1h-2h-2h-1h-2h-2h-1h-2h-2h-2 h-1h-2h-2h-1h-2h-2h-2h-1h-2h-2h-1h-2h-2h-2h-1h-2h-2h-2h-1h-2h-2h-2h-1h-2h-2h-2h-2h-1h-2h-2h-2h-1h-2h-2h-2h-2h-1h-2h-2h-2h-2h-2h-1h-2h-2h-2h-2h-1h-2h-2h-2h-2h-2h-2h-1h-2h-2h-2h-2h-2h-2h-1h-2h-2h-2h-2h-2h-2h-1h-2h-2h-2h-10v-82h847zM705 -149v85h-391v82h366 v244h-465v-82h372v-80h-367v-249h485z" />
<glyph unicode="&#xae01;" d="M873 352v82h-228q35 157 35 326h-479v-84h386q-2 -130 -33 -242h-528v-82h847zM742 -149v410h-275v-85h183v-325h92zM489 -149v86h-246v80h208v244h-303v-82h210v-80h-208v-248h339z" />
<glyph unicode="&#xae08;" d="M873 317v83h-233q40 168 40 350h-479v-84h386q-2 -148 -40 -266h-521v-83h847zM687 -142v343h-475v-343h475zM596 -59h-292v176h292v-176z" />
<glyph unicode="&#xae09;" d="M873 340v83h-230q37 163 37 337h-479v-84h386q-2 -137 -36 -253h-525v-83h847zM691 -147v399h-91v-122h-291v122h-92v-399h474zM600 -64h-291v111h291v-111z" />
<glyph unicode="&#xae0b;" d="M873 298v82h-235q42 174 42 370h-479v-84h386q-3 -163 -41 -286h-520v-82h847zM752 -85l-266 184q16 45 16 83v34h-97v-22q0 -84 -67 -160t-184 -112l61 -71q144 44 229 169l248 -172z" />
<glyph unicode="&#xae0d;" d="M873 313v83h-232q39 170 39 354h-479v-84h386q-3 -149 -38 -270h-523v-83h847zM683 35q0 86 -65.5 139t-164.5 53q-98 0 -162 -53.5t-64 -139.5q0 -84 65.5 -136t160.5 -52q99 0 164.5 53.5t65.5 135.5zM590 36q0 -52 -39 -81.5t-98 -29.5t-97 30.5t-38 80.5 q0 51 38.5 82t96.5 31t97.5 -31t39.5 -82z" />
<glyph unicode="&#xae14;" horiz-adv-x="870" d="M780 -114v901h-90v-901h90zM534 678h-430v-83h334q-2 -209 -42 -318h97q41 144 41 401zM658 144v83q-20 -4 -57.5 -9.5t-149.5 -14.5t-222 -8h-200v-84h204q106 0 189.5 5t126 11t109.5 17z" />
<glyph unicode="&#xae30;" horiz-adv-x="850" d="M749 -114v901h-90v-901h90zM482 659h-400v-83h298q-25 -122 -123.5 -227t-235.5 -162l65 -64q49 21 98.5 52.5t102.5 80.5t94 107t69 135t32 161z" />
<glyph unicode="&#xae31;" horiz-adv-x="850" d="M743 222v565h-90v-565h90zM466 721h-382v-84h274q-21 -91 -109.5 -179t-222.5 -140l62 -64q161 66 263.5 189t114.5 278zM721 -160v337h-478v-84h388v-253h90z" />
<glyph unicode="&#xae34;" horiz-adv-x="850" d="M739 150v637h-90v-637h90zM462 711h-382v-84h274q-21 -93 -110.5 -185t-221.5 -144l62 -64q160 66 262.5 193.5t115.5 283.5zM748 -139v84h-395v236h-90v-320h485z" />
<glyph unicode="&#xae37;" horiz-adv-x="850" d="M743 222v565h-90v-565h90zM466 721h-382v-84h274q-21 -91 -109.5 -179t-222.5 -140l62 -64q161 66 263.5 189t114.5 278zM737 -144v84h-395v158h385v83h-476v-325h486z" />
<glyph unicode="&#xae38;" horiz-adv-x="850" d="M742 295v492h-90v-492h90zM465 731h-382v-84h274q-21 -89 -108.5 -172.5t-223.5 -136.5l62 -64q163 67 264.5 185t113.5 272zM745 -149v86h-384v79h360v235h-459v-82h366v-71h-361v-247h478z" />
<glyph unicode="&#xae3a;" horiz-adv-x="850" d="M743 293v494h-90v-494h90zM466 731h-382v-84h274q-21 -89 -108.5 -172.5t-223.5 -136.5l62 -64q163 67 264.5 185t113.5 272zM743 -149v400h-274v-400h274zM455 -149v86h-216v78h192v236h-286v-82h194v-72h-192v-246h308zM651 -67h-93v235h93v-235z" />
<glyph unicode="&#xae40;" horiz-adv-x="850" d="M743 228v559h-90v-559h90zM466 721h-382v-84h274q-21 -91 -109.5 -179t-222.5 -140l62 -64q161 66 263.5 189t114.5 278zM722 -142v331h-466v-331h466zM630 -59h-282v164h282v-164z" />
<glyph unicode="&#xae41;" horiz-adv-x="850" d="M743 274v513h-90v-513h90zM466 731h-382v-84h274q-21 -89 -108.5 -172.5t-223.5 -136.5l62 -64q163 67 264.5 185t113.5 272zM724 -147v381h-92v-112h-281v112h-92v-381h465zM632 -64h-281v103h281v-103z" />
<glyph unicode="&#xae43;" horiz-adv-x="850" d="M743 171v616h-90v-616h90zM466 711h-382v-84h274q-21 -91 -109.5 -179t-222.5 -140l62 -64q161 66 263.5 189t114.5 278zM769 -90l-255 203q12 39 12 76v55h-95v-37q0 -90 -65.5 -170t-181.5 -115l61 -71q73 24 132.5 72t97.5 109l233 -183z" />
<glyph unicode="&#xae45;" horiz-adv-x="850" d="M743 232v555h-90v-555h90zM466 721h-382v-84h274q-21 -91 -109.5 -179t-222.5 -140l62 -64q161 66 263.5 189t114.5 278zM713 36q0 81 -66 138.5t-155 57.5t-155.5 -57.5t-66.5 -138.5q0 -83 64.5 -140.5t157.5 -57.5q89 0 155 58t66 140zM620 36q0 -49 -38 -82t-90 -33 q-56 0 -93 33.5t-37 81.5q0 47 38 80.5t92 33.5q51 0 89.5 -32.5t38.5 -81.5z" />
<glyph unicode="&#xae46;" horiz-adv-x="850" d="M743 253v534h-90v-534h90zM466 721h-382v-84h274q-21 -91 -109.5 -179t-222.5 -140l62 -64q161 66 263.5 189t114.5 278zM792 -84l-211 120q95 87 121 178h-460v-83h303q-60 -70 -159 -127t-210 -81l56 -73q139 32 273 126l232 -131z" />
<glyph unicode="&#xae4a;" horiz-adv-x="850" d="M743 253v534h-90v-534h90zM466 721h-382v-84h274q-21 -91 -109.5 -179t-222.5 -140l62 -64q161 66 263.5 189t114.5 278zM744 -139v83h-101v178h91v83h-511v-83h92v-178h-101v-83h530zM552 -56h-146v178h146v-178z" />
<glyph unicode="&#xae4c;" horiz-adv-x="920" d="M916 355v83h-160v349h-90v-901h90v469h160zM571 660h-521v-83h183q-39 -256 -226 -368l70 -57q99 63 162.5 172.5t84.5 252.5h145q-13 -105 -65 -214t-147 -178l74 -54q106 77 167 215t73 314z" />
<glyph unicode="&#xae4d;" horiz-adv-x="920" d="M914 467v84h-152v236h-90v-565h90v245h152zM567 721h-509v-84h166q-5 -34 -17 -68t-35.5 -76t-66 -82.5t-99.5 -70.5l64 -62q61 36 105.5 78t72 89t43.5 92t26 100h148q-40 -219 -211 -308l64 -62q236 142 249 454zM751 -160v337h-478v-84h388v-253h90z" />
<glyph unicode="&#xae4e;" horiz-adv-x="920" d="M915 467v84h-153v236h-90v-555h90v235h153zM569 721h-511v-84h166q-32 -204 -218 -297l64 -62q62 36 106.5 78t72 89t43 92t25.5 100h150q-40 -223 -210 -308l64 -62q66 34 115.5 89.5t76.5 119.5t40.5 124.5t15.5 120.5zM754 -160v347h-264v-84h174v-263h90zM470 -160 v347h-281v-84h191v-263h90z" />
<glyph unicode="&#xae50;" horiz-adv-x="920" d="M915 429v85h-153v273h-90v-641h90v283h153zM570 711h-512v-84h166q-33 -215 -217 -307l64 -62q81 47 134 111t75.5 123t36.5 135h151q-42 -234 -209 -318l64 -61q66 34 115 91t76 123t40.5 127t15.5 122zM774 -139v84h-395v226h-90v-310h485z" />
<glyph unicode="&#xae54;" horiz-adv-x="920" d="M915 484v84h-153v219h-90v-496h90v193h153zM568 731h-511v-83h166q-29 -182 -218 -275l64 -64q116 71 171 153t76 186h150q-38 -203 -210 -288l64 -62q236 133 248 433zM772 -150v86h-383v77h359v235h-459v-82h366v-71h-361v-245h478z" />
<glyph unicode="&#xae56;" horiz-adv-x="920" d="M915 484v84h-153v219h-90v-500h90v197h153zM568 731h-511v-83h167q-32 -185 -219 -275l64 -64q118 69 173 151t75 188h149q-38 -203 -210 -288l64 -62q67 34 116 86t76 112t40.5 117.5t15.5 117.5zM755 -149v395h-279v-395h279zM461 -149v86h-212v72h195v236h-290v-82 h197v-72h-195v-240h305zM663 -67h-96v230h96v-230z" />
<glyph unicode="&#xae5c;" horiz-adv-x="920" d="M914 457v83h-152v247h-90v-559h90v229h152zM569 721h-511v-84h166q-32 -203 -219 -297l64 -62q118 70 173 157.5t75 201.5h150q-40 -222 -211 -308l64 -62q66 34 116 89.5t77 119.5t40.5 124.5t15.5 120.5zM750 -142v326h-476v-326h476zM658 -59h-292v160h292v-160z" />
<glyph unicode="&#xae5d;" horiz-adv-x="920" d="M915 487v84h-153v215h-90v-516h90v217h153zM568 731h-511v-83h166q-29 -184 -218 -275l64 -64q118 69 172.5 151t74.5 188h150q-38 -203 -210 -288l64 -62q67 34 116 86t76 112t40.5 117.5t15.5 117.5zM754 -147v377h-92v-112h-291v112h-92v-377h475zM662 -64h-291v98 h291v-98z" />
<glyph unicode="&#xae5f;" horiz-adv-x="920" d="M914 446v84h-152v256h-90v-615h90v275h152zM569 711h-511v-84h166q-32 -203 -219 -297l64 -62q118 70 173 157t75 202h150q-40 -222 -211 -308l64 -62q66 34 115.5 89t76.5 119t41 124.5t16 121.5zM801 -90l-255 203q12 39 12 76v45h-95v-27q0 -90 -65.5 -170 t-181.5 -115l61 -71q73 24 132.5 72t97.5 109l233 -183z" />
<glyph unicode="&#xae60;" horiz-adv-x="920" d="M914 467v84h-152v235h-90v-552l90 3v230h152zM569 721h-511v-84h166q-32 -204 -218 -297l64 -62q62 36 106.5 78t72 89t43 92t25.5 100h150q-40 -223 -210 -308l64 -62q66 34 115.5 89.5t76.5 119.5t40.5 124.5t15.5 120.5zM839 -86l-178 162q7 31 9 70v56h-93v-53 q0 -55 -24.5 -108t-67.5 -84l-112 112q8 20 12 77v56h-94v-53q0 -73 -44.5 -136t-125.5 -89l59 -72q101 45 155 132l139 -139q104 45 154 143l153 -137z" />
<glyph unicode="&#xae61;" horiz-adv-x="920" d="M914 467v84h-152v236h-90v-555h90v235h152zM569 721h-511v-84h166q-32 -204 -218 -297l64 -62q62 36 106.5 78t72 89t43 92t25.5 100h150q-40 -223 -210 -308l64 -62q66 34 115.5 89.5t76.5 119.5t40.5 124.5t15.5 120.5zM755 36q0 81 -67 138.5t-157 57.5t-157.5 -57.5 t-67.5 -138.5q0 -83 65.5 -140.5t159.5 -57.5q90 0 157 58t67 140zM662 36q0 -49 -39.5 -82t-91.5 -33q-56 0 -94.5 33.5t-38.5 81.5q0 47 39.5 80.5t93.5 33.5q52 0 91.5 -32.5t39.5 -81.5z" />
<glyph unicode="&#xae65;" horiz-adv-x="920" d="M915 487v84h-153v215h-90v-515h90v216h153zM568 731h-511v-83h166q-29 -184 -218 -275l64 -64q118 69 172.5 151t74.5 188h150q-38 -203 -210 -288l64 -62q67 34 116 86t76 112t40.5 117.5t15.5 117.5zM755 -149v82h-387v70h365v81h-365v63h377v83h-467v-379h477z" />
<glyph unicode="&#xae68;" horiz-adv-x="930" d="M869 -114v901h-90v-349h-101v329h-90v-819h90v406h101v-468h90zM533 660h-473v-83h158q-3 -38 -14 -81.5t-33.5 -96.5t-64.5 -102.5t-98 -81.5l71 -57q98 61 155.5 170.5t74.5 248.5h122q-27 -263 -187 -392l73 -55q102 89 152 218.5t64 311.5z" />
<glyph unicode="&#xae69;" horiz-adv-x="930" d="M860 217v570h-90v-238h-99v217h-90v-530h90v230h99v-249h90zM528 721h-473v-84h145q-15 -196 -195 -298l62 -61q199 116 226 359h134q-23 -205 -192 -310l61 -60q219 127 232 454zM817 -160v337h-477v-84h387v-253h90z" />
<glyph unicode="&#xae6c;" horiz-adv-x="930" d="M860 150v637h-90v-259h-99v238h-90v-581h90v261h99v-296h90zM529 711h-473v-84h145q-6 -41 -13.5 -71.5t-27.5 -78.5t-59 -89t-95 -69l62 -61q57 33 98.5 75.5t66 92.5t38 95.5t23.5 105.5h134q-3 -35 -12 -72t-28.5 -84.5t-58.5 -91t-93 -72.5l61 -60q218 118 232 464z M851 -139v84h-394v236h-91v-320h485z" />
<glyph unicode="&#xae70;" horiz-adv-x="930" d="M860 285v502h-90v-215h-99v194h-90v-461h90v184h99v-204h90zM519 731h-473v-83h145q-4 -28 -7 -43t-10.5 -44.5t-20 -51t-31.5 -48t-49 -49.5t-68 -42l62 -61q57 34 97 72.5t63 84t35 85t22 97.5h134q-2 -31 -9.5 -63t-25.5 -74.5t-56.5 -83t-91.5 -69.5l61 -60 q67 36 112.5 88t67.5 113.5t31 114t12 117.5zM836 -149v86h-382v79h358v235h-458v-82h365v-71h-360v-247h477z" />
<glyph unicode="&#xae78;" horiz-adv-x="930" d="M860 232v555h-90v-238h-99v217h-90v-514h90v214h99v-234h90zM523 721h-473v-84h145q-5 -33 -9 -53.5t-17 -60t-31.5 -68t-53 -61t-79.5 -55.5l62 -61q57 33 97.5 74.5t64.5 90.5t36.5 92t22.5 102h134q-20 -202 -187 -310l61 -60q214 130 227 454zM826 -142v331h-474 v-331h474zM735 -59h-292v164h292v-164z" />
<glyph unicode="&#xae79;" horiz-adv-x="930" d="M863 257v530h-90v-214h-104v193h-90v-489h90v213h104v-233h90zM519 731h-473v-83h145q-5 -32 -8.5 -51t-16.5 -55t-31 -61.5t-52 -55.5t-79 -53l65 -63q57 34 96.5 72t62.5 84.5t34 85.5t22 97h134q-18 -96 -44 -146q-47 -92 -145 -142l62 -62q215 113 228 433zM813 -147 v375h-92v-112h-280v112h-92v-375h464zM721 -64h-280v96h280v-96z" />
<glyph unicode="&#xae7b;" horiz-adv-x="930" d="M863 212v575h-90v-249h-104v228h-90v-514h90v203h104v-243h90zM524 711h-473v-84h145q-5 -38 -13.5 -69t-28 -75t-57 -83.5t-91.5 -69.5l65 -62q104 68 151 154.5t67 204.5h134q-3 -41 -19.5 -92t-62.5 -115.5t-112 -100.5l62 -62q220 138 233 454zM862 -90l-255 203 q12 39 12 76v35h-95v-17q0 -90 -65.5 -170t-181.5 -115l61 -71q73 24 132.5 72t97.5 109l233 -183z" />
<glyph unicode="&#xae7c;" horiz-adv-x="930" d="M863 232v555h-90v-238h-104v217h-90v-514h90v214h104v-234h90zM893 -86l-178 162q7 31 9 70v52h-93v-49q0 -55 -24.5 -108t-67.5 -84l-112 112q8 20 12 77v52h-94v-49q0 -73 -44.5 -136t-125.5 -89l59 -72q101 45 155 132l139 -139q104 45 154 143l153 -137zM523 721 h-473v-84h145q-5 -38 -13.5 -69t-28 -75t-57 -83.5t-91.5 -69.5l65 -62q104 68 151 154.5t67 204.5h134q-3 -41 -19.5 -92t-62.5 -115.5t-112 -100.5l62 -62q220 138 233 454z" />
<glyph unicode="&#xae7d;" horiz-adv-x="930" d="M863 232v555h-90v-233h-104v212h-90v-493h90v198h104v-239h90zM816 45q0 81 -65 138.5t-154 57.5t-154 -57.5t-65 -138.5t65 -139t154 -58t154 58t65 139zM724 45q0 -48 -38 -81t-89 -33q-50 0 -88.5 34t-38.5 80q0 47 38 80.5t89 33.5t89 -32t38 -82zM523 721h-473v-84 h145q-5 -38 -13.5 -69t-28 -75t-57 -83.5t-91.5 -69.5l65 -62q104 68 151 154.5t67 204.5h134q-3 -41 -19.5 -92t-62.5 -115.5t-112 -100.5l62 -62q220 138 233 454z" />
<glyph unicode="&#xae84;" horiz-adv-x="920" d="M912 231v84h-155v154h155v83h-155v235h-90v-901h90v345h155zM581 660h-529v-83h183q-40 -264 -230 -378l70 -57q100 62 165 176.5t86 258.5h153q-8 -66 -28.5 -131t-69 -139.5t-116.5 -121.5l74 -54q107 77 168.5 215t73.5 314z" />
<glyph unicode="&#xae85;" horiz-adv-x="920" d="M911 350v83h-153v115h153v83h-153v156h-89v-563h89v126h153zM570 721h-511v-84h166q-32 -204 -218 -297l64 -62q62 36 106.5 78t72 89t43 92t25.5 100h150q-41 -224 -209 -309l63 -61q66 34 115.5 89.5t76.5 119.5t40.5 124.5t15.5 120.5zM752 -160v337h-478v-84h388 v-253h90z" />
<glyph unicode="&#xae8c;" horiz-adv-x="920" d="M910 398v83h-153v83h153v84h-153v139h-89v-501h89v112h153zM571 731h-511v-83h166q-29 -182 -218 -275l64 -64q116 71 171 153t76 186h150q-38 -203 -210 -288l64 -62q236 133 248 433zM773 -150v86h-383v75h363v235h-462v-82h369v-71h-365v-243h478z" />
<glyph unicode="&#xaebc;" horiz-adv-x="880" d="M804 -114v901h-89v-348h-171v-84h171v-469h89zM578 660h-529v-83h183q-41 -266 -227 -378l70 -57q99 62 163 176t85 259h153q-8 -67 -27.5 -131.5t-67.5 -139t-116 -121.5l74 -54q106 77 166.5 214.5t72.5 314.5z" />
<glyph unicode="&#xaebd;" horiz-adv-x="880" d="M792 222v565h-90v-250h-170v-83h170v-232h90zM552 721h-506v-84h166q-6 -39 -14.5 -69.5t-29.5 -75t-61.5 -84t-98.5 -68.5l64 -62q61 36 104 78t68 90t38 90.5t23 100.5h144q-17 -95 -37 -141q-49 -112 -158 -167l63 -62q66 34 113.5 89t72 120.5t35.5 123.5t14 121z M769 -160v337h-476v-84h387v-253h89z" />
<glyph unicode="&#xaebe;" horiz-adv-x="880" d="M792 225v562h-90v-250h-170v-83h170v-229h90zM552 721h-506v-84h166q-31 -198 -204 -297l64 -62q111 72 162 158.5t71 200.5h144q-18 -98 -45 -151q-50 -97 -150 -157l63 -62q63 34 110 89t72.5 119.5t38 124.5t14.5 121zM783 -160v347h-264v-84h174v-263h90zM504 -160 v347h-291v-84h202v-263h89z" />
<glyph unicode="&#xaec0;" horiz-adv-x="880" d="M786 151v636h-90v-260h-170v-83h170v-293h90zM797 -139v84h-395v226h-90v-310h485zM547 711h-506v-84h166q-31 -198 -204 -297l64 -62q111 72 162 158.5t71 200.5h144q-18 -98 -45 -151q-50 -97 -150 -157l63 -62q221 123 235 454z" />
<glyph unicode="&#xaec4;" horiz-adv-x="880" d="M792 283v504h-90v-219h-170v-84h170v-201h90zM552 731h-506v-83h166q-19 -185 -204 -277l64 -62q196 105 233 339h144q-19 -187 -195 -288l63 -62q223 130 235 433zM785 -149v86h-384v73h359v235h-458v-82h365v-71h-360v-241h478z" />
<glyph unicode="&#xaecc;" horiz-adv-x="880" d="M792 232v555h-90v-250h-170v-83h170v-222h90zM552 721h-506v-84h166q-6 -39 -14.5 -69.5t-29.5 -75t-61.5 -84t-98.5 -68.5l64 -62q61 36 104 78t68 90t38 90.5t23 100.5h144q-17 -95 -37 -141q-49 -112 -158 -167l63 -62q66 34 113.5 89t72 120.5t35.5 123.5t14 121z M773 -142v331h-464v-331h464zM682 -59h-282v164h282v-164z" />
<glyph unicode="&#xaecd;" horiz-adv-x="880" d="M792 270v517h-90v-219h-170v-84h170v-214h90zM552 731h-506v-83h166q-29 -186 -204 -277l64 -62q113 70 163 150t70 189h144q-5 -28 -10 -48.5t-19 -57.5t-33 -65.5t-54 -61t-79 -55.5l63 -62q63 37 110 89t72.5 111.5t38 116t14.5 116.5zM762 -147v378h-91v-113h-281 v113h-91v-378h463zM671 -64h-281v98h281v-98z" />
<glyph unicode="&#xaecf;" horiz-adv-x="880" d="M789 171v616h-90v-260h-170v-83h170v-273h90zM549 711h-506v-84h166q-32 -205 -204 -297l64 -62q58 37 100 79t68 88.5t40.5 91.5t24.5 100h144q-19 -106 -49 -164q-50 -95 -146 -144l63 -62q63 34 110 89t72.5 119.5t38 124.5t14.5 121zM814 -90l-256 203q13 42 13 76 v55h-95v-37q0 -90 -65.5 -170t-181.5 -115l61 -71q73 23 132.5 71.5t96.5 109.5l234 -183z" />
<glyph unicode="&#xaed0;" horiz-adv-x="880" d="M789 232v555h-90v-250h-170v-83h170v-222h90zM549 721h-506v-84h167q-2 -31 -11.5 -65t-30.5 -77.5t-63 -84.5t-100 -70l64 -62q202 119 234 359h143q-17 -95 -37 -141q-49 -112 -158 -167l63 -62q66 34 113.5 89t72 120.5t35.5 123.5t14 121zM838 -86l-178 162 q7 31 9 70v46h-93v-43q0 -55 -24.5 -108t-67.5 -84l-112 112q8 20 12 77v46h-94v-43q0 -73 -44.5 -136t-125.5 -89l59 -72q101 45 155 132l138 -139q105 45 155 143l153 -137z" />
<glyph unicode="&#xaed1;" horiz-adv-x="880" d="M792 232v555h-90v-250h-170v-83h170v-222h90zM552 721h-506v-84h166q-30 -193 -207 -297l64 -62q113 74 164.5 159.5t71.5 199.5h144q-40 -223 -198 -308l63 -62q66 37 113.5 93t73 119.5t37 122t14.5 119.5zM755 36q0 81 -66 138.5t-155 57.5t-155.5 -57.5t-66.5 -138.5 q0 -83 64.5 -140.5t157.5 -57.5q89 0 155 58t66 140zM662 36q0 -49 -38 -82t-90 -33q-56 0 -93 33.5t-37 81.5q0 47 38 80.5t92 33.5q51 0 89.5 -32.5t38.5 -81.5z" />
<glyph unicode="&#xaed8;" horiz-adv-x="930" d="M861 -114v901h-90v-901h90zM683 -52v819h-89v-328h-107q23 72 34 221h-479v-83h162q-3 -34 -6.5 -58.5t-16.5 -73.5t-32.5 -87t-57 -82.5t-87.5 -76.5l71 -57q187 131 220 435h126q-6 -54 -16 -98t-30 -101.5t-57 -107t-88 -85.5l72 -55q50 39 96.5 104.5t64.5 120.5h131 v-407h89z" />
<glyph unicode="&#xaed9;" horiz-adv-x="930" d="M852 222v565h-90v-565h90zM686 242v524h-89v-207h-104q21 65 25 162h-463v-84h145q-29 -205 -198 -297l64 -62q108 69 157.5 155.5t69.5 203.5h124q-2 -28 -10.5 -62t-27.5 -81t-59.5 -92t-95.5 -74l61 -61q63 34 111.5 92.5t71.5 116.5h129v-234h89zM809 -160v337h-477 v-84h387v-253h90z" />
<glyph unicode="&#xaedc;" horiz-adv-x="930" d="M852 140v647h-90v-647h90zM684 180v586h-89v-238h-107q26 74 30 183h-463v-84h145q-3 -32 -12 -65.5t-29 -80t-60.5 -89.5t-96.5 -72l64 -62q191 112 227 369h124q-2 -22 -6.5 -46t-18 -64.5t-33.5 -75t-55.5 -71.5t-81.5 -60l62 -64q55 29 104 85t72 114h135v-265h89z M843 -139v84h-394v236h-91v-320h485z" />
<glyph unicode="&#xaee8;" horiz-adv-x="930" d="M852 232v555h-90v-555h90zM686 252v514h-89v-217h-105q24 95 26 172h-463v-84h145q-4 -31 -9 -53.5t-18.5 -60t-33 -66t-54.5 -60.5t-80 -55l63 -64q57 34 98 75t65.5 89.5t38 92.5t23.5 102h124q-19 -103 -44 -156q-49 -103 -147 -153l61 -61q111 58 179 199h131v-214 h89zM818 -142v331h-464v-331h464zM723 -59h-277v164h277v-164z" />
<glyph unicode="&#xaeeb;" horiz-adv-x="930" d="M854 212v575h-90v-575h90zM680 252v514h-90v-238h-98q24 79 28 183h-463v-84h145q-6 -39 -14 -69.5t-28 -75.5t-59.5 -84t-95.5 -68l65 -62q57 34 98 75t65.5 89t38 92.5t23.5 102.5h124q-19 -106 -48 -163q-49 -97 -144 -145l62 -62q109 58 174 188h127v-193h90z M840 -90l-256 203q13 42 13 76v25h-95v-7q0 -90 -65.5 -170t-181.5 -115l61 -71q73 23 132.5 71.5t96.5 109.5l234 -183z" />
<glyph unicode="&#xaeed;" horiz-adv-x="930" d="M852 232v555h-90v-555h90zM681 273v493h-90v-217h-101q25 82 28 172h-463v-84h145q-14 -194 -194 -297l63 -62q199 117 223 358l125 1q-41 -226 -190 -309l61 -61q113 69 176 199h127v-193h90zM806 36q0 81 -64.5 138.5t-154.5 57.5q-89 0 -153.5 -57.5t-64.5 -138.5 q0 -82 64.5 -140t153.5 -58q90 0 154.5 58t64.5 140zM714 36q0 -49 -38 -82t-89 -33q-50 0 -88 34t-38 81t37.5 80.5t88.5 33.5q52 0 89.5 -32t37.5 -82z" />
<glyph unicode="&#xaef4;" horiz-adv-x="880" d="M806 -114v901h-89v-251h-157q11 56 16 124h-530v-83h183q-41 -270 -222 -378l70 -57q99 62 162 176t84 259h150q-33 -272 -206 -392l74 -54q70 50 122.5 138t78.5 184h175v-128h-181v-83h181v-356h89z" />
<glyph unicode="&#xaef8;" horiz-adv-x="880" d="M790 147v640h-89v-186h-151q13 61 14 110h-513v-84h166q-33 -218 -211 -307l64 -62q61 36 105 79.5t70 93t40.5 94.5t24.5 102h151q-30 -213 -203 -318l63 -63q145 89 210 271h170v-114h-189v-84h189v-172h89zM806 -139v84h-395v226h-90v-310h485z" />
<glyph unicode="&#xaefc;" horiz-adv-x="880" d="M788 288v499h-89v-156h-150q10 51 12 100h-511v-83h166q-5 -33 -17 -65t-34.5 -71t-63.5 -75.5t-96 -63.5l64 -64q111 65 165.5 149t74.5 190h150q-38 -204 -203 -288l64 -62q147 80 209 250h170v-84h-179v-83h179v-93h89zM787 -149v86h-384v76h359v234h-458v-81h365v-72 h-360v-243h478z" />
<glyph unicode="&#xaf07;" horiz-adv-x="880" d="M791 163v624h-88v-186h-161q8 38 10 110h-511v-84h166q-5 -32 -9.5 -53.5t-19 -60t-34 -67t-55 -61t-82.5 -55.5l64 -62q61 36 103.5 77.5t66.5 90.5t36 90t23 101h150q-13 -206 -192 -308l64 -62q53 27 95.5 73t67 92t38.5 95h180v-94h-179v-84h179v-176h88zM817 -90 l-256 203q13 42 13 76v45h-95v-27q0 -90 -65.5 -170t-181.5 -115l61 -71q73 23 132.5 71.5t96.5 109.5l234 -183z" />
<glyph unicode="&#xaf08;" horiz-adv-x="880" d="M795 234v553h-88v-166h-160q7 34 9 100h-511v-84l165 -1q-21 -205 -203 -296l64 -62q81 47 132.5 110.5t72 121t28.5 127.5h150q-2 -32 -10 -65.5t-27 -80t-60 -90t-99 -72.5l64 -62q149 85 208 270h177v-93h-190v-83h190v-127h88zM844 -86l-178 162q7 31 9 70v46h-93 v-43q0 -55 -24.5 -108t-67.5 -84l-112 112q8 20 12 77v46h-94v-43q0 -73 -44.5 -136t-125.5 -89l59 -72q101 45 155 132l139 -139q104 45 154 143l153 -137z" />
<glyph unicode="&#xaf0d;" horiz-adv-x="880" d="M788 268v519h-89v-156h-150q10 51 12 100h-511v-83h166q-30 -191 -208 -275l64 -64q110 66 163.5 149.5t73.5 189.5h149q-5 -28 -8 -39.5t-12 -44.5t-22.5 -55t-34 -51.5t-52 -54t-70.5 -43.5l64 -62q159 90 206 250h170v-88h-179v-83h179v-109h89zM782 -149v82h-387v71 h365v83h-365v63h376v83h-465v-382h476z" />
<glyph unicode="&#xaf10;" horiz-adv-x="930" d="M863 -114v901h-90v-901h90zM691 -52v819h-90v-231h-95q11 56 16 124h-483v-83h162q-20 -267 -195 -378l70 -57q92 66 148 179t68 256h128q-6 -107 -48.5 -212t-140.5 -180l72 -55q87 66 136 170v-58h162v-294h90zM450 326q18 41 44 127h107v-127h-151z" />
<glyph unicode="&#xaf2c;" d="M745 482v202h-303v-83h209v-108q0 -165 -55 -289h96q53 117 53 278zM873 -1v84h-378v292h-83q7 53 7 107v202h-306v-83h213v-108q0 -167 -55 -289h98q24 61 37 135v-256h-380v-84h847z" />
<glyph unicode="&#xaf2d;" d="M727 751h-287v-84h194q-2 -98 -49 -277h91q19 73 26 105t16 104t9 152zM874 267v82h-370v182h-90v-182h-388v-82h848zM422 751h-297v-84h204q-2 -88 -47 -277h89q19 73 26 105t16 104t9 152zM682 -160v331h-477v-84h387v-247h90z" />
<glyph unicode="&#xaf30;" d="M727 751h-287v-84h194q-2 -109 -49 -287h91q17 66 25.5 105.5t17 112.5t8.5 153zM422 751h-297v-84h204q-2 -106 -48 -287h90q17 66 25.5 105.5t17 112.5t8.5 153zM874 249v82h-370v193h-90v-193h-388v-82h848zM706 -138v84h-401v213h-88v-297h489z" />
<glyph unicode="&#xaf32;" d="M731 761h-291v-83h198q-3 -134 -48 -251h92q1 4 7 24.5t7 26t6.5 25.5t7 28.5t5.5 28.5t5.5 33.5t4 35t3.5 40.5t2 43t1 49zM874 311v83h-367v161h-90v-161h-391v-83h848zM422 761h-297v-83h204q-3 -146 -48 -251h89q52 144 52 334zM721 177v80q-58 -10 -139 -2 q-73 9 -102 24l-28 -66q57 -29 122 -38q95 -7 147 2zM808 53v75h-419v-75h103q-22 -11 -36 -36t-14 -53q-1 -60 44.5 -94.5t115.5 -35.5q68 -1 114 34.5t47 97.5q0 27 -14 51t-36 36h95zM442 -139v84h-209v267h-91v-351h300zM673 -31q-1 -27 -21.5 -42.5t-49.5 -14.5 t-48 15.5t-20 41.5t20.5 42.5t50.5 14.5q30 -1 49.5 -15.5t18.5 -41.5z" />
<glyph unicode="&#xaf34;" d="M731 761h-291v-83h198q-3 -134 -48 -251h92q1 4 7 24.5t7 26t6.5 25.5t7 28.5t5.5 28.5t5.5 33.5t4 35t3.5 40.5t2 43t1 49zM874 311v83h-367v161h-90v-161h-391v-83h848zM422 761h-297v-83h204q-3 -146 -48 -251h89q52 144 52 334zM705 -149v85h-391v71h367v230h-465 v-81h371v-68h-366v-237h484z" />
<glyph unicode="&#xaf3c;" d="M727 751h-287v-84h194q-2 -98 -49 -277h91q19 73 26 105t16 104t9 152zM423 751h-297v-84h204q-2 -88 -47 -277h89q19 73 26 105t16 104t9 152zM874 267v82h-370v182h-90v-182h-388v-82h848zM691 -142v319h-474v-319h474zM600 -59h-292v153h292v-153z" />
<glyph unicode="&#xaf3d;" d="M731 761h-291v-83h198q-2 -94 -49 -257h91q3 11 12.5 47t12.5 49t10 46t9 57t4.5 61.5t2.5 79.5zM874 296v82h-367v172h-90v-172h-391v-82h848zM425 761h-297v-83h204q-2 -100 -48 -257h89q52 125 52 340zM692 -147v381h-91v-115h-291v115h-91v-381h473zM601 -64h-291 v100h291v-100z" />
<glyph unicode="&#xaf3f;" d="M727 751h-287v-84h194q-2 -98 -49 -277h91q19 73 26 105t16 104t9 152zM423 751h-297v-84h204q-2 -88 -47 -277h89q19 73 26 105t16 104t9 152zM874 260v82h-370v189h-90v-189h-388v-82h848zM742 -85l-266 175q16 43 16 82v36h-97v-24q0 -83 -66.5 -154.5t-184.5 -107.5 l61 -71q148 45 228 161l249 -164z" />
<glyph unicode="&#xaf41;" d="M727 751h-287v-84h194q-2 -97 -49 -268h91q51 167 51 352zM874 278v82h-370v172h-90v-172h-388v-82h848zM423 751h-297v-84h204q-2 -100 -48 -268h90q51 181 51 352zM681 28q0 86 -65.5 139t-164.5 53q-98 0 -162 -53.5t-64 -139.5q0 -84 65.5 -136t160.5 -52 q99 0 164.5 53.5t65.5 135.5zM588 29q0 -52 -39 -81.5t-98 -29.5t-97 30.5t-38 80.5q0 51 38.5 82t96.5 31t97.5 -31t39.5 -82z" />
<glyph unicode="&#xaf42;" d="M731 751h-291v-84h198q-2 -93 -49 -256h91q3 11 12.5 47t12.5 49t10 46t9 57t4.5 61.5t2.5 79.5zM874 286v82h-367v176h-90v-176h-391v-82h848zM422 751h-297v-84h204q-2 -99 -48 -256h89q52 125 52 340zM767 -77l-212 115q99 90 123 174h-459v-82h302q-55 -64 -155 -124 t-213 -81l57 -73q141 34 271 126l228 -127z" />
<glyph unicode="&#xaf43;" d="M731 761h-291v-83h198q-3 -112 -49 -238h92q50 146 50 321zM874 323v83h-367v164h-90v-164h-391v-83h848zM422 761h-297v-83h204q-2 -104 -49 -238h91q51 118 51 321zM610 190v81q-101 -11 -208 0q-58 7 -101 25l-28 -69q47 -27 121 -37q98 -8 216 0zM770 -77l-192 78 q80 69 112 145h-469v-80h293q-47 -46 -142.5 -87.5t-208.5 -60.5l58 -73q151 26 271 97l220 -94z" />
<glyph unicode="&#xaf48;" horiz-adv-x="940" d="M935 355v83h-162v349h-90v-901h90v469h162zM575 678h-249v-83h157q-1 -68 -12 -163t-30 -148h94q40 146 40 394zM663 131v86q-102 -20 -285 -30v231h-81q15 124 15 260h-263v-83h172q-1 -68 -13 -163t-32 -148h96q8 28 17 79v-179h-273v-83h210q229 0 437 30z" />
<glyph unicode="&#xaf49;" horiz-adv-x="940" d="M927 464v85h-155v237h-90v-582h90v260h155zM568 721h-251v-83h160q-4 -130 -38 -238h90q23 77 31 143.5t8 177.5zM658 279v83q-116 -22 -280 -29v190h-85q11 76 11 198h-254v-83h164q-4 -127 -39 -238h91q13 48 22 91v-158h-260v-83h213q108 0 195 5t117.5 9t104.5 15z M761 -160v326h-488v-84h398v-242h90z" />
<glyph unicode="&#xaf50;" horiz-adv-x="940" d="M922 487v84h-159v216h-90v-515h90v215h159zM559 731h-251v-82h160q-3 -108 -38 -219h90q24 81 31.5 137.5t7.5 163.5zM649 325v80q-99 -20 -280 -30v168h-85q11 69 11 188h-254v-82h164q-3 -104 -39 -219h91q14 51 22 86v0v0v-1v0v-1v0v-1v-1v-1v-1v-1v-1v-1v-1v-1v-1v-1 v-1v-1v-1v-1v-1v-1v-1v-1v-1v-1v-1v-1v-2v-1v-1v-1v-1v-1v-1v-1v-2v-1v-1v-1v-1v-2v-1v-1v-2v-1v-1v-1v-2v-1v-2v-1v-1v-2v-1v-1v-2v-1v-2v-1v-2v-1v-2v-1v-2v-1v-2v-1v-2v-1v-2v-2v-1v-2v-1v-2v-2v-1v-2v-2v-1v-2v-2v-1v-2v-2v-1v-2v-2v-2v-1v-2v-2v-2v-1v-2v-2v-2v-2v-1 v-9h-260v-79h213q108 0 195 5t117.5 9t104.5 15zM763 -149v86h-394v72h369v227h-469v-81h377v-66h-372v-238h489z" />
<glyph unicode="&#xaf5c;" horiz-adv-x="940" d="M927 464v85h-155v237h-90v-572h90v250h155zM571 721h-251v-83h160q-4 -130 -38 -238h90q23 77 31 143.5t8 177.5zM658 279v83q-117 -22 -277 -29v190h-85q11 76 11 198h-254v-83h164q-4 -127 -39 -238h91q14 48 23 96v0v0v-1v0v-1v0v-1v0v-1v-1v-1v-1v-1v-1v-1v-1v-1v-1 v-1v-1v-1v-1v-1v-1v-1v-1v-1v-1v-1v-1v-1v-1v-1v-1v-1v-1v-1v-1v-1v-1v-2v-1v-1v-1v-1v-1v-2v-1v-1v-1v-2v-1v-1v-1v-2v-1v-1v-2v-1v-1v-2v-1v-2v-1v-1v-2v-1v-2v-1v-1v-2v-1v-2v-1v-2v-1v-2v-1v-2v-1v-2v-2v-1v-2v-1v-2v-1v-2v-2v-1v-2v-2v-1v-2v-1v-2v-2v-2v-1v-2v-2v-1 v-2v-2v-2v-1v-2v-2v-2v-1v-2v-2v-2v-2v-1v-2v-2v-2v-9h-264v-83h216q34 0 66 0.5t56.5 1t51.5 2t43 2.5t41 3.5t34.5 3t34 4t29 4t30 4.5t28.5 4zM850 -85l-175 161q7 31 9 70v33h-93v-30q0 -55 -24.5 -108t-67.5 -84l-110 112q8 20 12 77v33h-94v-30q0 -73 -44.5 -136 t-125.5 -89l59 -72q101 45 155 132l137 -139q104 45 154 143l150 -136z" />
<glyph unicode="&#xaf5d;" horiz-adv-x="940" d="M927 464v85h-155v237h-90v-562h90v240h155zM568 721h-251v-83h160q-4 -128 -38 -236h90q23 77 31 143t8 176zM658 287v83q-110 -21 -280 -28v183h-85q11 74 11 196h-254v-83h164q-4 -125 -39 -236h91q13 46 22 90v0v0v-1v0v-1v0v-1v-1v-1v-1v-1v-1v-1v-1v-1v-1v-1v-1v-1 v-1v-1v-1v-1v-1v-1v-1v-1v-1v-1v-1v-1v-2v-1v-1v-1v-1v-1v-1v-1v-2v-1v-1v-1v-1v-2v-1v-1v-1v-2v-1v-1v-2v-1v-1v-2v-1v-2v-1v-1v-2v-1v-2v-1v-1v-2v-1v-2v-1v-2v-1v-2v-1v-2v-2v-1v-2v-1v-2v-1v-2v-2v-1v-2v-2v-1v-2v-2v-1v-2v-2v-1v-2v-2v-1v-2v-2v-2v-1v-2v-2v-2v-1v-2 v-2v-2v-2v-2v-9h-260v-83h213q223 0 417 28zM771 30q0 86 -65.5 139.5t-164.5 53.5q-97 0 -161.5 -53.5t-64.5 -140.5q0 -84 65.5 -137t160.5 -53q99 0 164.5 54.5t65.5 136.5zM678 31q0 -52 -39 -82.5t-98 -30.5q-58 0 -96.5 31.5t-38.5 81.5q0 51 38.5 82.5t96.5 31.5 t97.5 -31.5t39.5 -82.5z" />
<glyph unicode="&#xaf64;" horiz-adv-x="940" d="M876 -114v901h-90v-349h-97v329h-90v-819h90v406h97v-468h90zM577 131v85q-94 -21 -221 -29v241h-80q10 73 13 167h150q-1 -69 -12.5 -164t-31.5 -147h95q40 146 40 394h-478v-83h147q-1 -66 -13 -162t-31 -149h96q13 51 19 95v-195h-246v-83h190q58 0 104 1.5t85.5 5.5 t60 6.5t60.5 8.5t53 8z" />
<glyph unicode="&#xaf65;" horiz-adv-x="940" d="M868 202v585h-90v-238h-90v217h-90v-545h90v245h90v-264h90zM575 279v82q-132 -24 -220 -28v180h-79q8 48 11 125h153q-4 -130 -38 -238h90q22 78 30 144.5t8 176.5h-477v-83h145q-4 -125 -38 -238h91q11 35 19 78v-145h-239v-83h194q75 0 133.5 3t81.5 5.5t72.5 10.5 t62.5 10zM825 -160v326h-487v-84h398v-242h89z" />
<glyph unicode="&#xaf79;" horiz-adv-x="940" d="M868 222v565h-90v-238h-90v217h-90v-504h90v204h90v-244h90zM575 279v82q-132 -24 -220 -28v180h-79q8 48 11 125h153q-4 -130 -38 -238h90q22 78 30 144.5t8 176.5h-477v-83h145q-4 -125 -38 -238h91q11 35 19 78v-145h-239v-83h194q75 0 133.5 3t81.5 5.5t72.5 10.5 t62.5 10zM817 30q0 86 -65.5 139.5t-164.5 53.5q-97 0 -161.5 -53.5t-64.5 -140.5q0 -84 65.5 -137t160.5 -53q99 0 164.5 54.5t65.5 136.5zM724 31q0 -52 -39 -82.5t-98 -30.5q-58 0 -96.5 31.5t-38.5 81.5q0 51 38.5 82.5t96.5 31.5t97.5 -31.5t39.5 -82.5z" />
<glyph unicode="&#xaf80;" horiz-adv-x="890" d="M811 -114v901h-89v-901h89zM601 678h-251v-83h160q-1 -67 -12.5 -162.5t-31.5 -148.5h95q40 146 40 394zM691 131v86q-91 -19 -292 -30v231h-81q16 119 16 260h-270v-83h178q-1 -67 -12.5 -162.5t-31.5 -148.5h95q11 43 17 78v0v0v0v-1v0v-1v0v-1v-1v0v-1v-1v-1v-1v-1v-1 v-1v-1v-1v-1v-1v-1v-1v-1v-1v-1v-1v-1v-1v-1v-1v-1v-1v-1v-1v-1v-1v-1v-1v-1v-2v-1v-1v-1v-1v-1v-1v-1v-2v-1v-1v-1v-1v-2v-1v-1v-1v-2v-1v-1v-2v-1v-1v-2v-1v-1v-2v-1v-1v-2v-1v-2v-1v-1v-2v-1v-2v-1v-2v-1v-2v-1v-2v-1v-2v-1v-2v-1v-2v-1v-2v-1v-2v-2v-1v-2v-1v-2v-2v-1 v-2v-2v-1v-2v-2v-1v-2v-2v-1v-2v-2v-2v-1v-2v-2v-1v-2v-2v-2v-2v-1v-2v-2v-2v-2v-1v-2v-2v-2v-2v-8h-281v-83h228q226 0 434 30z" />
<glyph unicode="&#xaf84;" horiz-adv-x="890" d="M804 144v642h-89v-642h89zM590 711h-253v-83h163q-4 -137 -39 -247h91q22 78 30 148t8 182zM323 711h-257v-83h167q-4 -135 -38 -247h90q22 77 30 147.5t8 182.5zM690 256v83q-107 -21 -288 -28v173h-89v-173h-281v-84h227q230 0 431 29zM808 -139v84h-405v205h-90v-289 h495z" />
<glyph unicode="&#xaf88;" horiz-adv-x="890" d="M804 280v507h-89v-507h89zM590 731h-254v-82h163q-2 -69 -10.5 -116t-27.5 -108h91q23 82 30.5 141t7.5 165zM690 325v80q-95 -19 -295 -30v161h-86q12 71 12 195h-255v-82h165q-3 -110 -39 -224h91q14 51 23 95v-145h-271v-79h222q232 0 433 29zM801 -149v86h-394v72 h369v229h-468v-81h375v-68h-370v-238h488z" />
<glyph unicode="&#xaf90;" horiz-adv-x="890" d="M806 221v565h-89v-565h89zM592 721h-249v-83h159q-4 -125 -39 -236h91q22 79 30 144t8 175zM326 721h-257v-83h166q-4 -128 -38 -236h90q23 77 31 143t8 176zM692 287v83q-108 -21 -288 -28v170h-89v-170h-281v-83h227q237 0 431 28zM785 -142v320h-475v-320h475z M693 -59h-292v154h292v-154z" />
<glyph unicode="&#xaf91;" horiz-adv-x="890" d="M804 264v523h-89v-523h89zM590 731h-255v-82h164q-2 -69 -10.5 -116t-27.5 -108h91q23 82 30.5 141t7.5 165zM690 318v80q-112 -23 -295 -30v164h-87q13 70 13 199h-255v-82h165q-3 -110 -39 -224h91q14 51 23 95v-152h-271v-80h212q235 0 443 30zM784 -147v373h-91v-116 h-291v116h-91v-373h473zM693 -64h-291v90h291v-90z" />
<glyph unicode="&#xaf95;" horiz-adv-x="890" d="M806 226v560h-89v-560h89zM592 721h-253v-83h163q-4 -123 -39 -234h91q23 79 30.5 143.5t7.5 173.5zM326 721h-257v-83h166q-4 -126 -38 -234h90q20 67 28 120v-180h-281v-83h217q247 0 441 28v83q-108 -21 -288 -28v183h-89q11 73 11 194zM776 29q0 86 -65.5 139.5 t-164.5 53.5q-97 0 -161.5 -53.5t-64.5 -140.5q0 -84 65.5 -137t160.5 -53q99 0 164.5 54.5t65.5 136.5zM683 30q0 -52 -39 -82.5t-98 -30.5q-58 0 -96.5 31.5t-38.5 81.5q0 51 38.5 82.5t96.5 31.5t97.5 -31.5t39.5 -82.5z" />
<glyph unicode="&#xaf9c;" d="M873 -1v84h-267v121h88q49 108 49 278v202h-316v-83h224v-108q0 -163 -45 -272v136h-89v-274h-104v274h-24q14 70 14 125v202h-290v-83h199v-108q0 -141 -67 -289h78v-121h-297v-84h847z" />
<glyph unicode="&#xafb8;" d="M728 732h-294v-83h201q-3 -123 -47 -309h89q51 196 51 392zM419 732h-297v-83h204q-3 -148 -47 -309h89q51 196 51 392zM873 225v85h-847v-85h369v-357h91v357h387z" />
<glyph unicode="&#xafb9;" d="M874 329v83h-193q40 162 40 339h-279v-84h187q-3 -117 -37 -255h-205q40 170 40 339h-297v-84h204q-3 -119 -37 -255h-271v-83h375v-140h-194v-84h387v-265h90v349h-193v140h383z" />
<glyph unicode="&#xafbc;" d="M874 297v82h-192q42 179 42 365h-280v-83h187q-3 -127 -41 -282h-204q43 178 43 365h-297v-83h204q-3 -121 -39 -282h-271v-82h403v-225h91v225h354zM696 -138v84h-402v234h-88v-318h490z" />
<glyph unicode="&#xafc0;" d="M874 354v82h-192q42 159 42 325h-280v-83h187q-3 -109 -39 -242h-205q42 159 42 325h-297v-83h204q-3 -123 -37 -242h-273v-82h377v-101h-187v-82h371v-76h-366v-244h484v85h-391v77h367v240h-188v101h381z" />
<glyph unicode="&#xafc7;" d="M874 364v83h-190q40 151 40 314h-280v-83h187q-3 -104 -37 -231h-205q40 151 40 314h-297v-83h204q-3 -120 -35 -231h-275v-83h377v-104h-262v-82h187v-80h-188v-247h319v86h-226v79h188v169h72v26q48 -25 108 -30q81 -6 148 2v80q-58 -10 -140 -1q-53 6 -101 25l-15 -37 v114h381zM814 56v77h-378v-77h79q-50 -34 -50 -92q-1 -60 45 -94.5t116 -35.5q68 -1 114 34.5t47 97.5q0 60 -50 90h77zM695 -28q-1 -29 -20 -45t-48 -15q-69 2 -70 60q-1 29 20.5 45t51.5 15q29 -1 48 -17t18 -43z" />
<glyph unicode="&#xafc8;" d="M874 318v83h-195q43 165 43 350h-279v-84h187q-3 -129 -41 -266h-204q43 172 43 350h-297v-84h204q-3 -129 -40 -266h-269v-83h379v-129h-188v-331h474v331h-196v129h379zM600 -59h-292v164h292v-164z" />
<glyph unicode="&#xafc9;" d="M874 348v82h-192q40 160 40 331h-279v-84h187q-3 -115 -38 -247h-205q41 164 41 331h-297v-84h204q-3 -112 -37 -247h-272v-82h381v-178h90v178h377zM691 -147v395h-91v-126h-291v126h-91v-395h473zM600 -64h-291v103h291v-103z" />
<glyph unicode="&#xafcb;" d="M874 320v83h-193q41 170 41 348h-279v-84h187q-3 -109 -40 -264h-204q42 166 42 348h-297v-84h204q-3 -107 -39 -264h-270v-83h370v-136q0 -83 -67.5 -154.5t-186.5 -107.5l61 -71q145 45 228 162l249 -165l60 67l-268 177q14 42 14 80v148h388z" />
<glyph unicode="&#xafcd;" d="M876 323v83h-192q42 166 42 345h-279v-84h187q-3 -120 -39 -261h-205q42 166 42 345h-297v-84h204q-3 -117 -38 -261h-273v-83h381v-107q-82 -13 -133 -63t-51 -126q0 -84 66.5 -136t161.5 -52q99 0 164.5 53.5t65.5 135.5q0 74 -51.5 124.5t-132.5 63.5v107h377zM590 29 q0 -52 -39 -81.5t-98 -29.5t-98 31t-39 80q0 51 39 82t98 31q58 0 97.5 -31t39.5 -82z" />
<glyph unicode="&#xafce;" d="M876 333v83h-192q39 156 39 335h-279v-84h187q-3 -115 -37 -251h-204q39 163 39 335h-297v-84h204q-3 -119 -36 -251h-272v-83h372v-121h-179v-82h302q-55 -64 -155 -124t-213 -81l57 -73q141 34 271 126l228 -127l58 72l-212 115q99 90 123 174h-190v121h386z" />
<glyph unicode="&#xafd4;" horiz-adv-x="890" d="M591 711h-242v-82h153q-4 -151 -44 -262h93q22 78 31 152.5t9 191.5zM805 -114v901h-89v-607h-220v-84h220v-210h89zM340 711h-254v-82h164q-4 -151 -44 -262h93q23 76 32 150.5t9 193.5zM667 273v85q-157 -33 -411 -33h-222v-83h257v-343h90v346q133 5 286 28z" />
<glyph unicode="&#xafdc;" horiz-adv-x="890" d="M802 244v543h-87v-427h-206v-80h206v-36h87zM655 411v84q-50 -11 -102 -18q20 85 20 254h-236v-79h149q-4 -99 -25 -184q-65 -5 -160 -7q25 90 25 270h-239v-79h152q-3 -97 -26 -191h-180v-80h243v-137h89v139q123 4 290 28zM806 -149v86h-394v66h369v219h-468v-80h376 v-60h-371v-231h488z" />
<glyph unicode="&#xafe8;" horiz-adv-x="890" d="M803 186v601h-87v-462h-206v-80h206v-59h87zM656 390v83q-37 -8 -103 -17q21 91 21 275h-236v-79h149q-5 -115 -26 -205q-63 -5 -160 -7q26 100 26 291h-239v-79h152q-3 -114 -27 -212h-179v-79h243v-168h89v170q125 3 290 27zM855 -85l-175 161q7 31 9 70v9h-93v-6 q0 -55 -24.5 -108t-67.5 -84l-110 112q8 20 12 77v9h-94v-6q0 -73 -44.5 -136t-125.5 -89l59 -72q101 45 155 132l137 -139q104 45 154 143l150 -136z" />
<glyph unicode="&#xafe9;" horiz-adv-x="890" d="M804 206v581h-87v-434h-206v-80h206v-67h87zM657 406v83q-35 -8 -102 -17q20 86 20 259h-236v-79h149q-4 -103 -25 -189q-65 -5 -160 -7q25 96 25 275h-239v-79h152q-3 -101 -26 -196h-180v-80h243v-171h89v173q134 4 290 28zM783 28q0 86 -65.5 138t-164.5 52 q-98 0 -162 -52.5t-64 -138.5q0 -84 65.5 -136t160.5 -52q99 0 164.5 53.5t65.5 135.5zM690 29q0 -52 -39 -81.5t-98 -29.5t-97 30.5t-38 80.5q0 51 38 81t97 30t98 -30.5t39 -80.5z" />
<glyph unicode="&#xaff0;" horiz-adv-x="940" d="M859 -114v901h-89v-901h89zM523 711h-213v-82h125q-6 -152 -45 -260h93q22 78 31 150.5t9 191.5zM691 -74v841h-90v-585h-188v-84h188v-172h90zM300 711h-224v-82h136q-4 -145 -44 -260h93q22 78 30.5 151t8.5 191zM572 285v85q-165 -33 -356 -33h-175v-83h210v-355h89 v358q75 4 232 28z" />
<glyph unicode="&#xaff1;" horiz-adv-x="940" d="M858 200v587h-89v-587h89zM688 219v547h-90v-432h-179v-82h179v-33h90zM564 403v83q-39 -9 -75 -15q21 94 21 260h-423v-80h127q-3 -103 -26 -198h-147v-80h213v-168h88v171q40 2 74 5t52 6l48 8zM813 -160v324h-487v-84h397v-240h90zM421 651q-3 -105 -25 -192 q-55 -5 -117 -5q20 83 24 197h118z" />
<glyph unicode="&#xaff4;" horiz-adv-x="940" d="M859 129v658h-89v-658h89zM689 160v606h-90v-454h-179v-84h179v-68h90zM565 374v83q-62 -12 -75 -14q22 100 22 278h-422v-81h127q-4 -141 -23 -216h-153v-80h214v-188h88v191q40 2 74 5t52 6l48 8zM847 -139v84h-405v195h-90v-279h495zM423 640q-4 -131 -23 -209 q-46 -5 -119 -7q20 85 25 216h117z" />
<glyph unicode="&#xaff8;" horiz-adv-x="940" d="M859 251v536h-89v-536h89zM689 262v504h-90v-393h-179v-82h179v-29h90zM565 425v84q-71 -14 -73 -14q20 87 20 236h-422v-80h127q-3 -112 -22 -176h-154v-79h214v-148h88v151q41 2 75 5t51 5.5t49 8t47 7.5zM840 -149v86h-393v64h369v219h-469v-82h376v-58h-371v-229h488 zM423 651q-3 -107 -21 -169q-53 -5 -120 -6q20 75 24 175h117z" />
<glyph unicode="&#xb000;" horiz-adv-x="940" d="M859 202v585h-89v-585h89zM689 221v545h-90v-423h-179v-83h179v-39h90zM565 405v83q-39 -9 -75 -15q21 93 21 258h-423v-80h127q0 -96 -27 -196h-147v-80h214v-178h88v181q40 2 74 5t52 6l48 8zM834 -142v309h-474v-309h474zM422 651q-3 -98 -25 -190q-52 -5 -117 -6 q20 83 24 196h118zM743 -59h-292v143h292v-143z" />
<glyph unicode="&#xb001;" horiz-adv-x="940" d="M859 245v542h-89v-542h89zM689 256v510h-90v-394h-179v-83h179v-33h90zM565 424v84q-71 -14 -73 -14q20 85 20 237h-422v-80h127q0 -98 -23 -177h-153v-79h214v-164h88v167q41 2 75 5t51 5.5t49 8t47 7.5zM827 -147v358h-91v-106h-291v106h-91v-358h473zM423 651 q-3 -100 -22 -170q-52 -5 -119 -6q20 75 24 176h117zM736 -64h-291v85h291v-85z" />
<glyph unicode="&#xb004;" horiz-adv-x="940" d="M859 185v602h-89v-602h89zM689 206v560h-90v-434h-179v-83h179v-43h90zM565 404v84q-71 -14 -73 -14q20 85 20 257h-422v-80h127q0 -118 -23 -197h-153v-79h214v-184h88v187q41 2 75 5t51 5.5t49 8t47 7.5zM888 -85l-175 161q7 31 9 70v9h-93v-6q0 -55 -24.5 -108 t-67.5 -84l-110 112q8 20 12 77v9h-94v-6q0 -73 -44.5 -136t-125.5 -89l59 -72q101 45 155 132l137 -139q104 45 154 143l150 -136zM423 651q-4 -123 -22 -190q-52 -5 -119 -6q19 71 24 196h117z" />
<glyph unicode="&#xb00c;" horiz-adv-x="890" d="M809 -114v901h-89v-901h89zM617 711h-242v-82h154q-4 -158 -44 -270h92q40 139 40 352zM361 711h-257v-82h168q-4 -163 -43 -275h92q40 139 40 357zM692 266v85q-162 -34 -422 -34h-219v-83h265v-335h89v338q127 5 287 29z" />
<glyph unicode="&#xb010;" horiz-adv-x="890" d="M796 145v642h-87v-642h87zM679 370v83q-52 -11 -113 -18q22 94 22 296h-237v-79h149q-4 -145 -24 -226q-73 -4 -161 -6q26 103 26 311h-249v-79h161q-4 -140 -27 -232h-189v-80h234v-147h89v149q154 4 319 28zM803 -139v84h-405v205h-90v-289h495z" />
<glyph unicode="&#xb014;" horiz-adv-x="890" d="M797 262v525h-87v-525h87zM680 411v84q-45 -10 -103 -18q22 98 22 254h-247v-79h160q-3 -106 -25 -184q-70 -5 -172 -7q27 109 27 270h-249v-79h161q-3 -104 -26 -191h-190v-80h234v-119h89v121q154 4 319 28zM801 -149v86h-394v68h369v220h-468v-80h376v-61h-371v-233 h488z" />
<glyph unicode="&#xb01c;" horiz-adv-x="890" d="M799 207v580h-87v-580h87zM693 390v83q-65 -13 -125 -19q23 90 23 277h-237v-79h149q-3 -111 -27 -206q-74 -4 -159 -6q27 98 27 291h-249v-79h161q-3 -121 -27 -212h-189v-79h244v-148h89v150q160 4 320 27zM787 -142v309h-475v-309h475zM695 -59h-292v143h292v-143z " />
<glyph unicode="&#xb01d;" horiz-adv-x="890" d="M799 257v530h-87v-530h87zM682 411v84q-46 -10 -104 -18q23 96 23 254h-247v-79h160q-3 -107 -25 -184q-102 -6 -172 -7q27 109 27 270h-249v-79h161q-3 -104 -26 -191h-190v-80h234v-124h89v126q154 4 319 28zM783 -147v358h-91v-101h-291v101h-91v-358h473zM692 -64 h-291v90h291v-90z" />
<glyph unicode="&#xb028;" d="M727 732h-294v-83h201q-3 -123 -47 -309h89q51 196 51 392zM418 732h-297v-83h204q-3 -148 -47 -309h89q51 196 51 392zM873 225v85h-847v-85h232v-357h90v357h193v-357h91v357h241z" />
<glyph unicode="&#xb044;" d="M743 482v202h-301v-83h209v-108q0 -165 -55 -289h96q51 113 51 278zM419 482v202h-306v-83h214v-108q0 -165 -56 -289h98q50 126 50 278zM878 11v85h-857v-85h857z" />
<glyph unicode="&#xb045;" d="M879 317v83h-198q40 167 40 351h-279v-84h187q-3 -115 -39 -267h-203q40 175 40 351h-297v-84h204q-3 -109 -37 -267h-276v-83h858zM684 -160v349h-477v-84h387v-265h90z" />
<glyph unicode="&#xb048;" d="M874 284v82h-193q43 181 43 378h-280v-83h187q-3 -126 -41 -295h-204q43 181 43 378h-297v-83h204q-3 -123 -40 -295h-270v-82h848zM698 -138v84h-402v234h-88v-318h490z" />
<glyph unicode="&#xb04a;" d="M874 342v82h-190q41 164 41 337h-280v-83h187q-3 -109 -39 -254h-204q41 157 41 337h-297v-83h204q-3 -107 -38 -254h-273v-82h848zM725 180v80q-57 -9 -143 -2q-60 7 -102 24l-28 -66q41 -27 122 -38q92 -7 151 2zM812 48v75h-413v-75h93q-19 -11 -33 -34.5t-14 -49.5 q-1 -60 44 -94.5t115 -35.5q69 -1 115 34t47 98q0 54 -48 82h94zM442 -139v84h-206v267h-91v-351h297zM675 -32q-1 -27 -21 -42t-50 -14q-29 1 -47.5 15.5t-19.5 41.5t19.5 42.5t49.5 14.5q30 -1 50 -16t19 -42z" />
<glyph unicode="&#xb04c;" d="M874 344v82h-188q39 163 39 335h-280v-83h187q-3 -103 -38 -252h-203q39 156 39 335h-297v-83h204q-3 -125 -35 -252h-276v-82h848zM704 -149v85h-391v80h367v243h-465v-82h371v-79h-366v-247h484z" />
<glyph unicode="&#xb04e;" d="M874 344v82h-186q39 163 39 335h-280v-83h187q-3 -103 -38 -252h-203q39 156 39 335h-297v-83h204q-3 -99 -37 -252h-276v-82h848zM746 -149v407h-279v-407h279zM458 -149v86h-215v77h191v243h-286v-82h193v-79h-191v-245h308zM654 -67h-96v242h96v-242z" />
<glyph unicode="&#xb053;" d="M874 344v82h-185q39 163 39 335h-280v-83h187q-3 -103 -38 -252h-204q40 160 40 335h-297v-83h204q-3 -99 -37 -252h-277v-82h848zM737 184v80q-60 -7 -140 -1q-61 7 -101 25l-29 -68q44 -26 122 -38q99 -6 148 2zM805 58v77h-378v-77h79q-50 -34 -50 -94 q-1 -60 45 -94.5t116 -35.5q68 -1 114 34.5t47 97.5q0 62 -50 92h77zM450 -149v86h-222v77h191v243h-286v-82h193v-79h-191v-245h315zM686 -28q-1 -29 -20 -45t-48 -15q-69 2 -70 60q-1 29 20.5 45t51.5 15q29 -1 48 -17t18 -43z" />
<glyph unicode="&#xb054;" d="M874 313v83h-196q41 173 41 355h-279v-84h187q-3 -113 -40 -271h-204q42 170 42 355h-297v-84h204q-3 -111 -39 -271h-268v-83h849zM691 -142v331h-474v-331h474zM600 -59h-292v164h292v-164z" />
<glyph unicode="&#xb055;" d="M874 337v83h-196q41 160 41 341h-279v-83h187q-3 -103 -39 -258h-204q41 168 41 341h-297v-83h204q-3 -111 -39 -258h-267v-83h848zM691 -147v401h-91v-126h-291v126h-91v-401h473zM600 -64h-291v109h291v-109z" />
<glyph unicode="&#xb057;" d="M874 296v82h-195q43 172 43 373h-279v-84h187q-3 -124 -41 -289h-204q43 179 43 373h-297v-84h204q-3 -114 -39 -289h-270v-82h848zM753 -85l-266 175q16 43 16 82v36h-97v-24q0 -83 -66.5 -154.5t-184.5 -107.5l61 -71q148 45 228 161l249 -164z" />
<glyph unicode="&#xb059;" d="M874 307v83h-196q41 173 41 361h-279v-84h187q-3 -120 -40 -277h-204q42 170 42 361h-297v-84h204q-3 -117 -39 -277h-268v-83h849zM682 38q0 86 -65.5 139t-164.5 53q-98 0 -162 -53.5t-64 -139.5q0 -84 65.5 -136t160.5 -52q99 0 164.5 53.5t65.5 135.5zM589 39 q0 -52 -39 -81.5t-98 -29.5t-97 30.5t-38 80.5q0 51 38.5 82t96.5 31t97.5 -31t39.5 -82z" />
<glyph unicode="&#xb05d;" d="M874 336v83h-193q41 160 41 342h-279v-83h187q-3 -102 -39 -259h-204q41 168 41 342h-297v-83h204q-3 -104 -39 -259h-270v-83h848zM704 -149v82h-396v80h375v83h-375v71h386v83h-475v-399h485z" />
<glyph unicode="&#xb07c;" horiz-adv-x="880" d="M799 -114v901h-89v-901h89zM596 660h-542v-83h183q-3 -43 -14 -87t-34 -98.5t-67.5 -105.5t-104.5 -87l71 -57q99 62 162 177.5t79 257.5h163q-6 -67 -24.5 -132t-65 -139t-114.5 -121l73 -54q106 76 164.5 213t70.5 316z" />
<glyph unicode="&#xb07d;" horiz-adv-x="880" d="M797 222v565h-90v-565h90zM585 721h-524v-84h167q-35 -209 -212 -297l64 -62q116 69 167.5 155.5t73.5 203.5h161q-5 -26 -7 -34.5t-10.5 -40t-16.5 -49t-24.5 -48t-35.5 -51.5t-48 -44.5t-63 -40.5l65 -62q66 34 114.5 89.5t74.5 120t38.5 124t15.5 120.5zM774 -160v337 h-476v-84h387v-253h89z" />
<glyph unicode="&#xb080;" horiz-adv-x="880" d="M796 150v637h-90v-637h90zM584 711h-524v-84h167q-37 -220 -212 -307l64 -62q115 69 167 158.5t74 210.5h161q-34 -234 -205 -318l65 -62q66 34 114.5 91t74.5 123.5t38.5 127t15.5 122.5zM797 -139v84h-395v226h-90v-310h485z" />
<glyph unicode="&#xb084;" horiz-adv-x="880" d="M797 295v492h-90v-492h90zM585 731h-524v-83h167q-31 -186 -213 -277l64 -62q117 70 168.5 149.5t72.5 189.5h162q-7 -38 -15 -64t-29.5 -71.5t-62.5 -84.5t-99 -68l65 -62q66 34 114.5 86t75 112.5t39 117t15.5 117.5zM792 -149v86h-384v79h359v235h-458v-82h365v-71 h-360v-247h478z" />
<glyph unicode="&#xb08c;" horiz-adv-x="880" d="M797 229v558h-90v-558h90zM585 721h-524v-84h167q-35 -209 -212 -297l64 -62q116 69 167.5 155.5t73.5 203.5h161q-5 -26 -7 -34.5t-10.5 -40t-16.5 -49t-24.5 -48t-35.5 -51.5t-48 -44.5t-63 -40.5l65 -62q66 34 114.5 89.5t74.5 120t38.5 124t15.5 120.5zM768 -142v331 h-464v-331h464zM676 -59h-281v164h281v-164z" />
<glyph unicode="&#xb08d;" horiz-adv-x="880" d="M797 271v516h-90v-516h90zM585 731h-524v-83h167q-6 -36 -16 -66t-32 -69.5t-63.5 -76t-99.5 -65.5l64 -62q61 36 104 75.5t69.5 83.5t41 85t24.5 95h162q-6 -31 -10.5 -49t-19.5 -56.5t-34.5 -66t-56 -60.5t-83.5 -56l65 -62q66 34 114 86t74 112.5t38.5 117t15.5 117.5 zM777 -147v378h-91v-112h-281v112h-91v-378h463zM686 -64h-281v100h281v-100z" />
<glyph unicode="&#xb08f;" horiz-adv-x="880" d="M796 171v615h-90v-615h90zM584 711h-524v-84h167q-35 -209 -211 -297l64 -62q116 69 167 155t73 204h161q-6 -28 -7 -34.5t-10 -40t-16.5 -49.5t-24.5 -47.5t-35.5 -51.5t-47.5 -44t-63 -41l65 -62q66 34 114.5 89.5t74 120t38 123.5t15.5 121zM817 -90l-256 203 q13 42 13 76v55h-95v-37q0 -90 -65.5 -170t-181.5 -115l61 -71q73 23 132.5 71.5t96.5 109.5l234 -183z" />
<glyph unicode="&#xb091;" horiz-adv-x="880" d="M797 232v555h-90v-555h90zM583 721h-522v-84h167q-35 -209 -212 -297l64 -62q117 69 168 155t73 204h160q-6 -28 -7 -34.5t-10 -40t-16.5 -49.5t-24.5 -47.5t-35.5 -51.5t-47.5 -44t-63 -41l65 -62q66 34 114 89.5t73.5 120t38 123.5t15.5 121zM776 36q0 81 -66 138.5 t-155 57.5t-155.5 -57.5t-66.5 -138.5q0 -83 64.5 -140.5t157.5 -57.5q89 0 155 58t66 140zM683 36q0 -49 -38 -82t-90 -33q-56 0 -93 33.5t-37 81.5q0 47 38 80.5t92 33.5q51 0 89.5 -32.5t38.5 -81.5z" />
<glyph unicode="&#xb098;" d="M889 411v84h-165v292h-90v-901h90v525h165zM518 179v84h-357v417h-90v-501h447z" />
<glyph unicode="&#xb099;" d="M891 509v84h-159v194h-90v-555h90v277h159zM506 330v85h-349v321h-88v-406h437zM719 -160v347h-476v-84h388v-263h88z" />
<glyph unicode="&#xb09a;" d="M891 509v84h-159v194h-90v-555h90v277h159zM506 330v85h-349v321h-88v-406h437zM726 -160v347h-259v-84h170v-263h89zM448 -160v347h-292v-84h202v-263h90z" />
<glyph unicode="&#xb09c;" d="M890 489v85h-158v213h-89v-647h89v349h158zM507 310v85h-349v331h-88v-416h437zM745 -139v84h-395v236h-91v-320h486z" />
<glyph unicode="&#xb09f;" d="M891 498v83h-159v206h-90v-565h90v276h159zM506 330v85h-349v321h-88v-406h437zM734 -149v84h-395v163h384v83h-475v-330h486z" />
<glyph unicode="&#xb0a0;" d="M891 515v85h-159v187h-90v-492h90v220h159zM506 363v84h-349v299h-88v-383h437zM739 -149v86h-384v79h358v237h-458v-82h366v-73h-361v-247h479z" />
<glyph unicode="&#xb0a1;" d="M891 515v85h-159v187h-90v-494h90v222h159zM507 361v84h-350v301h-88v-385h438zM734 -149v402h-273v-85h181v-317h92zM491 -149v86h-258v79h210v237h-308v-82h215v-73h-210v-247h351z" />
<glyph unicode="&#xb0a2;" d="M891 515v85h-159v187h-90v-494h90v222h159zM507 361v84h-350v301h-88v-385h438zM733 -149v395h-273v-395h273zM442 -149v86h-218v76h195v236h-290v-82h197v-72h-195v-244h311zM641 -67h-90v230h90v-230z" />
<glyph unicode="&#xb0a8;" d="M891 509v84h-159v194h-90v-555h90v277h159zM506 330v85h-349v321h-88v-406h437zM718 -142v331h-464v-331h464zM627 -59h-281v164h281v-164z" />
<glyph unicode="&#xb0a9;" d="M891 518v85h-159v183h-90v-512h90v244h159zM506 361v84h-349v301h-88v-385h437zM713 -147v381h-92v-122h-280v122h-92v-381h464zM621 -64h-280v92h280v-92z" />
<glyph unicode="&#xb0ab;" d="M891 498v83h-159v205h-90v-615h90v327h159zM506 320v85h-349v321h-88v-406h437zM763 -90l-255 203q12 39 12 76v55h-95v-37q0 -90 -65.5 -170t-181.5 -115l61 -71q73 24 132.5 72t97.5 109l233 -183z" />
<glyph unicode="&#xb0ac;" d="M891 508v84h-159v194h-90v-549h90v271h159zM506 330v85h-349v321h-88v-406h437zM819 -86l-178 162q7 31 9 70v59h-93v-56q0 -55 -24.5 -108t-67.5 -84l-112 112q8 20 12 77v59h-94v-56q0 -73 -44.5 -136t-125.5 -89l59 -72q101 45 155 132l139 -139q104 45 154 143 l153 -137z" />
<glyph unicode="&#xb0ad;" d="M891 498v83h-159v206h-90v-555h90v266h159zM506 330v85h-349v321h-88v-406h437zM720 36q0 81 -66 138.5t-155 57.5t-155.5 -57.5t-66.5 -138.5q0 -83 64.5 -140.5t157.5 -57.5q89 0 155 58t66 140zM627 36q0 -49 -38 -82t-90 -33q-56 0 -93 33.5t-37 81.5q0 47 38 80.5 t92 33.5q51 0 89.5 -32.5t38.5 -81.5z" />
<glyph unicode="&#xb0ae;" d="M891 513v85h-159v189h-90v-530h90v256h159zM506 330v85h-349v321h-88v-406h437zM792 -84q-210 120 -211 120q95 87 121 178h-460v-83h303q-60 -70 -159 -127t-210 -81l56 -73q139 32 273 126l232 -131z" />
<glyph unicode="&#xb0af;" d="M891 528v85h-159v174h-90v-506h90v247h159zM506 372v84h-349v290h-88v-374h437zM615 221v83q-83 -8 -198 1q-69 10 -102 25l-28 -70q47 -28 122 -39q97 -7 206 0zM783 -84q-209 93 -209 94q88 72 123 157h-468v-81h296q-129 -123 -360 -166l54 -73q146 28 274 105 l231 -104z" />
<glyph unicode="&#xb0b1;" d="M891 515v85h-159v187h-90v-501h90v229h159zM506 362v84h-349v300h-88v-384h437zM716 -149v82h-378v75h364v84h-364v68h373v83h-463v-392h468z" />
<glyph unicode="&#xb0b3;" d="M891 528v85h-159v174h-90v-492h90v233h159zM506 374v84h-349v288h-88v-372h437zM629 221v83q-89 -6 -210 0q-73 9 -104 25l-27 -69q43 -26 123 -39q107 -7 218 0zM760 89v80h-574v-80h151q-22 -14 -37.5 -40.5t-15.5 -53.5q0 -73 55.5 -116t136.5 -43t136 43.5t55 118.5 q0 27 -14 52t-35 39h142zM570 -6q0 -36 -28 -56.5t-68 -20.5q-38 0 -66 20.5t-28 56.5q0 35 27.5 55.5t65.5 20.5q40 0 68.5 -20.5t28.5 -55.5z" />
<glyph unicode="&#xb0b4;" d="M819 -114v901h-89v-286h-134v266h-89v-819h89v468h134v-530h89zM456 179v84h-296v417h-89v-501h385z" />
<glyph unicode="&#xb0b5;" d="M817 232v555h-89v-197h-130v176h-90v-514h90v255h130v-275h89zM449 330v85h-288v321h-89v-406h377zM775 -160v347h-477v-84h387v-263h90z" />
<glyph unicode="&#xb0b8;" d="M817 140v647h-89v-215h-130v194h-90v-586h90v309h130v-349h89zM449 300v84h-288v342h-89v-426h377zM809 -139v84h-395v226h-90v-310h485z" />
<glyph unicode="&#xb0bc;" d="M817 287v500h-89v-186h-130v165h-90v-459h90v210h130v-230h89zM449 356v84h-288v306h-89v-390h377zM794 -149v86h-383v79h359v235h-458v-82h365v-71h-360v-247h477z" />
<glyph unicode="&#xb0c4;" d="M817 232v555h-89v-197h-130v176h-90v-514h90v255h130v-275h89zM449 328v85h-288v323h-89v-408h377zM784 -142v331h-464v-331h464zM692 -59h-281v164h281v-164z" />
<glyph unicode="&#xb0c5;" d="M817 265v522h-89v-195h-130v174h-90v-481h90v224h130v-244h89zM449 340v85h-288v321h-89v-406h377zM768 -147v376h-92v-117h-280v117h-92v-376h464zM676 -64h-280v92h280v-92z" />
<glyph unicode="&#xb0c7;" d="M817 212v575h-89v-208h-130v187h-90v-513h90v244h130v-285h89zM449 300v84h-288v342h-89v-426h377zM818 -90l-255 203q12 39 12 76v35h-95v-17q0 -90 -65.5 -170t-181.5 -115l61 -71q73 24 132.5 72t97.5 109l233 -183z" />
<glyph unicode="&#xb0c8;" d="M814 230v557h-89v-208h-130v187h-90v-516h90v247h130v-267h89zM446 320v85h-288v331h-89v-416h377zM860 -86l-178 162q7 31 9 70v57h-93v-54q0 -55 -24.5 -108t-67.5 -84l-112 112q8 20 12 77v57h-94v-54q0 -73 -44.5 -136t-125.5 -89l59 -72q101 45 155 132l139 -139 q104 45 154 143l153 -137z" />
<glyph unicode="&#xb0c9;" d="M817 232v555h-89v-197h-130v176h-90v-493h90v234h130v-275h89zM449 330v85h-288v321h-89v-406h377zM774 36q0 81 -66 138.5t-155 57.5t-155.5 -57.5t-66.5 -138.5q0 -83 64.5 -140.5t157.5 -57.5q89 0 155 58t66 140zM681 36q0 -49 -38 -82t-90 -33q-56 0 -93 33.5 t-37 81.5q0 47 38 80.5t92 33.5q51 0 89.5 -32.5t38.5 -81.5z" />
<glyph unicode="&#xb0d0;" d="M886 263v83h-166v154h166v83h-166v204h-89v-901h89v377h166zM520 179v84h-357v417h-90v-501h447z" />
<glyph unicode="&#xb0d1;" d="M890 371v83h-164v115h164v83h-164v135h-88v-563h88v147h164zM506 330v85h-349v321h-88v-406h437zM719 -160v347h-476v-84h388v-263h88z" />
<glyph unicode="&#xb0d4;" d="M890 350v83h-164v115h164v83h-164v156h-88v-651h88v214h164zM506 310v85h-349v331h-88v-416h437zM744 -139v84h-395v226h-91v-310h486z" />
<glyph unicode="&#xb0d8;" d="M890 416v84h-164v93h164v83h-164v111h-88v-496h88v125h164zM507 361v84h-349v301h-88v-385h437zM740 -149v86h-384v79h358v235h-458v-82h366v-71h-361v-247h479z" />
<glyph unicode="&#xb0e0;" d="M890 371v83h-164v115h164v83h-164v135h-88v-558h88v142h164zM506 330v85h-349v321h-88v-406h437zM718 -142v331h-464v-331h464zM627 -59h-281v164h281v-164z" />
<glyph unicode="&#xb0e5;" d="M890 371v83h-164v115h164v83h-164v135h-88v-553h88v137h164zM506 330v85h-349v321h-88v-406h437zM720 36q0 81 -66 138.5t-155 57.5t-155.5 -57.5t-66.5 -138.5q0 -83 64.5 -140.5t157.5 -57.5q89 0 155 58t66 140zM627 36q0 -49 -38 -82t-90 -33q-56 0 -93 33.5 t-37 81.5q0 47 38 80.5t92 33.5q51 0 89.5 -32.5t38.5 -81.5z" />
<glyph unicode="&#xb108;" horiz-adv-x="850" d="M760 -114v901h-90v-267h-242v-85h242v-549h90zM524 179v84h-357v417h-90v-501h447z" />
<glyph unicode="&#xb109;" horiz-adv-x="850" d="M762 232v555h-89v-177h-223v-84h223v-294h89zM506 330v85h-350v321h-88v-406h438zM740 -160v347h-477v-84h387v-263h90z" />
<glyph unicode="&#xb10b;" horiz-adv-x="850" d="M761 254v533h-89v-177h-223v-84h223v-272h89zM505 330v85h-350v321h-88v-406h438zM823 -88l-150 156q12 42 12 87v59h-94v-60q0 -70 -35 -133t-103 -91v283h-302v-85h209v-277h93v62l48 -59q34 11 70.5 44.5t64.5 81.5l124 -128z" />
<glyph unicode="&#xb10c;" horiz-adv-x="850" d="M761 150v637h-89v-198h-223v-83h223v-356h89zM505 312v85h-350v329h-88v-414h438zM762 -139v84h-394v233h-90v-317h484z" />
<glyph unicode="&#xb110;" horiz-adv-x="850" d="M761 295v492h-89v-167h-223v-84h223v-241h89zM506 361v84h-350v301h-88v-385h438zM754 -149v86h-383v79h359v235h-459v-82h366v-71h-361v-247h478z" />
<glyph unicode="&#xb112;" horiz-adv-x="850" d="M761 286v501h-89v-167h-223v-84h223v-250h89zM506 361v84h-350v301h-88v-385h438zM753 -149v397h-275v-397h275zM459 -149v86h-209v75h192v236h-287v-82h194v-72h-191v-243h301zM661 -67h-92v232h92v-232z" />
<glyph unicode="&#xb113;" horiz-adv-x="850" d="M761 284v503h-89v-167h-223v-84h223v-252h89zM506 361v84h-350v301h-88v-385h438zM756 -148v399h-88v-137h-116v137h-88v-399h292zM443 -149v86h-209v77h192v239h-287v-82h194v-75h-192v-245h302zM668 -65h-116v95h116v-95z" />
<glyph unicode="&#xb118;" horiz-adv-x="850" d="M752 228v559h-89v-177h-223v-84h223v-298h89zM496 330v85h-350v321h-88v-406h438zM730 -142v331h-465v-331h465zM638 -59h-281v164h281v-164z" />
<glyph unicode="&#xb119;" horiz-adv-x="850" d="M752 274v513h-89v-167h-223v-84h223v-262h89zM496 351v84h-350v311h-88v-395h438zM727 -147v381h-92v-114h-280v114h-92v-381h464zM635 -64h-280v101h280v-101z" />
<glyph unicode="&#xb11b;" horiz-adv-x="850" d="M752 171v616h-89v-198h-223v-83h223v-335h89zM496 320v85h-350v321h-88v-406h438zM772 -90l-256 203q13 42 13 76v35h-95v-17q0 -90 -65.5 -170t-181.5 -115l61 -71q73 23 132.5 71.5t96.5 109.5l234 -183z" />
<glyph unicode="&#xb11c;" horiz-adv-x="850" d="M753 232v555h-89v-182h-223v-84h223v-289h89zM497 325v85h-350v326h-88v-411h438zM821 -86l-178 162q7 31 9 70v59h-93v-56q0 -55 -24.5 -108t-67.5 -84l-112 112q8 20 12 77v59h-94v-56q0 -73 -44.5 -136t-125.5 -89l59 -72q101 45 155 132l139 -139q104 45 154 143 l153 -137z" />
<glyph unicode="&#xb11d;" horiz-adv-x="850" d="M752 232v555h-89v-177h-223v-84h223v-294h89zM496 330v85h-350v321h-88v-406h438zM718 36q0 81 -66 138.5t-155 57.5t-155.5 -57.5t-66.5 -138.5q0 -83 64.5 -140.5t157.5 -57.5q89 0 155 58t66 140zM625 36q0 -49 -38 -82t-90 -33q-56 0 -93 33.5t-37 81.5q0 47 38 80.5 t92 33.5q51 0 89.5 -32.5t38.5 -81.5z" />
<glyph unicode="&#xb123;" horiz-adv-x="850" d="M752 305v482h-89v-157h-223v-83h223v-242h89zM496 382v84h-350v280h-88v-364h438zM639 221v83q-98 -5 -209 0q-67 9 -104 25l-28 -69q47 -28 124 -39q97 -7 217 0zM771 89v80h-574v-80h144q-20 -13 -33 -39t-13 -55q0 -69 56.5 -114t135.5 -45q80 0 135.5 43.5 t55.5 118.5q0 28 -13 54.5t-33 36.5h139zM582 -6q0 -36 -28.5 -56.5t-68.5 -20.5q-39 0 -67 20.5t-28 56.5q0 35 27.5 55t66.5 20q40 0 69 -19.5t29 -55.5z" />
<glyph unicode="&#xb124;" d="M822 -114v901h-89v-901h89zM621 -52v819h-89v-267h-209v-85h209v-467h89zM452 179v84h-296v417h-89v-501h385z" />
<glyph unicode="&#xb125;" d="M817 222v565h-89v-565h89zM623 242v524h-89v-165h-197v-84h197v-275h89zM449 330v85h-288v321h-89v-406h377zM775 -160v337h-477v-84h387v-253h90z" />
<glyph unicode="&#xb128;" d="M817 140v647h-89v-647h89zM623 180v586h-89v-183h-197v-83h197v-320h89zM449 300v84h-288v342h-89v-426h377zM809 -139v84h-395v226h-90v-310h485z" />
<glyph unicode="&#xb12c;" d="M817 280v507h-89v-507h89zM623 300v466h-89v-148h-197v-84h197v-234h89zM449 356v84h-288v306h-89v-390h377zM794 -149v86h-383v75h359v235h-458v-82h365v-71h-360v-243h477z" />
<glyph unicode="&#xb134;" d="M817 232v555h-89v-555h89zM623 252v514h-89v-165h-197v-84h197v-265h89zM449 328v85h-288v323h-89v-408h377zM784 -142v331h-464v-331h464zM692 -59h-281v164h281v-164z" />
<glyph unicode="&#xb135;" d="M817 267v520h-89v-520h89zM623 287v479h-89v-153h-197v-84h197v-242h89zM449 340v85h-288v321h-89v-406h377zM778 -147v381h-92v-122h-280v122h-92v-381h464zM686 -64h-280v92h280v-92z" />
<glyph unicode="&#xb137;" d="M817 212v575h-89v-575h89zM623 263v503h-89v-176h-197v-83h197v-244h89zM449 300v84h-288v342h-89v-426h377zM813 -90l-256 203q13 42 13 76v35h-95v-17q0 -90 -65.5 -170t-181.5 -115l61 -71q73 23 132.5 71.5t96.5 109.5l234 -183z" />
<glyph unicode="&#xb138;" d="M810 230v557h-89v-557h89zM616 250v516h-89v-181h-197v-83h197v-252h89zM442 310v85h-288v341h-89v-426h377zM854 -86l-178 162q7 31 9 70v59h-93v-56q0 -55 -24.5 -108t-67.5 -84l-112 112q8 20 12 77v59h-94v-56q0 -73 -44.5 -136t-125.5 -89l59 -72q101 45 155 132 l139 -139q104 45 154 143l153 -137z" />
<glyph unicode="&#xb139;" d="M807 232v555h-89v-555h89zM613 273v493h-89v-165h-197v-84h197v-244h89zM439 320v85h-288v331h-89v-416h377zM771 36q0 81 -66 138.5t-155 57.5t-155.5 -57.5t-66.5 -138.5q0 -83 64.5 -140.5t157.5 -57.5q89 0 155 58t66 140zM678 36q0 -49 -38 -82t-90 -33 q-56 0 -93 33.5t-37 81.5q0 47 38 80.5t92 33.5q51 0 89.5 -32.5t38.5 -81.5z" />
<glyph unicode="&#xb140;" horiz-adv-x="850" d="M752 -114v901h-90v-204h-243v-82h243v-93h-243v-84h243v-438h90zM515 179v84h-357v417h-90v-501h447z" />
<glyph unicode="&#xb141;" horiz-adv-x="850" d="M751 224v563h-88v-120h-226v-83h226v-73h-226v-84h226v-203h88zM485 310v85h-338v341h-89v-426h427zM728 -160v347h-477v-84h387v-263h90z" />
<glyph unicode="&#xb144;" horiz-adv-x="850" d="M756 121v666h-89v-125h-229v-82h229v-93h-228v-82h228v-284h89zM500 279v84h-350v363h-88v-447h438zM768 -139v84h-395v232h-90v-316h485z" />
<glyph unicode="&#xb148;" horiz-adv-x="850" d="M761 297v490h-88v-105h-226v-82h226v-64h-226v-83h226v-156h88zM495 340v85h-338v321h-89v-406h427zM757 -149v86h-383v79h359v235h-459v-82h366v-71h-361v-247h478z" />
<glyph unicode="&#xb150;" horiz-adv-x="850" d="M751 234v553h-88v-118h-226v-83h226v-73h-226v-84h226v-195h88zM485 310v85h-338v341h-89v-426h427zM732 -142v331h-465v-331h465zM640 -59h-281v164h281v-164z" />
<glyph unicode="&#xb151;" horiz-adv-x="850" d="M751 276v511h-88v-110h-226v-83h226v-63h-226v-83h226v-172h88zM485 325v85h-338v336h-89v-421h427zM730 -147v381h-92v-114h-280v114h-92v-381h464zM638 -64h-280v101h280v-101z" />
<glyph unicode="&#xb154;" horiz-adv-x="850" d="M748 231v556h-88v-122h-226v-83h226v-73h-226v-84h226v-194h88zM482 303v84h-338v349h-89v-433h427zM815 -86l-178 162q7 31 9 70v59h-93v-56q0 -55 -24.5 -108t-67.5 -84l-112 112q8 20 12 77v59h-94v-56q0 -73 -44.5 -136t-125.5 -89l59 -72q101 45 155 132l139 -139 q104 45 154 143l153 -137z" />
<glyph unicode="&#xb155;" horiz-adv-x="850" d="M751 230v557h-88v-125h-226v-83h226v-73h-226v-84h226v-192h88zM485 304v84h-338v348h-89v-432h427zM730 36q0 81 -66 138.5t-155 57.5t-155.5 -57.5t-66.5 -138.5q0 -83 64.5 -140.5t157.5 -57.5q89 0 155 58t66 140zM637 36q0 -49 -38 -82t-90 -33q-56 0 -93 33.5 t-37 81.5q0 47 38 80.5t92 33.5q51 0 89.5 -32.5t38.5 -81.5z" />
<glyph unicode="&#xb158;" horiz-adv-x="850" d="M751 236v551h-88v-125h-226v-83h226v-73h-226v-84h226v-186h88zM485 310v85h-338v341h-89v-426h427zM728 -160v360h-477v-85h387v-64h-380v-84h380v-127h90z" />
<glyph unicode="&#xb15c;" d="M814 -114v901h-89v-901h89zM620 -52v819h-90v-168h-210v-84h210v-96h-212v-85h212v-386h90zM441 179v84h-296v417h-89v-501h385z" />
<glyph unicode="&#xb160;" d="M810 140v647h-89v-647h89zM627 180v586h-89v-122h-203v-83h203v-78h-203v-82h203v-221h89zM447 268v84h-298v374h-89v-458h387zM807 -139v84h-395v226h-90v-310h485z" />
<glyph unicode="&#xb178;" d="M695 297v84h-410v323h-89v-407h499zM873 -1v84h-386v188h-91v-188h-370v-84h847z" />
<glyph unicode="&#xb179;" d="M873 264v83h-381v113h195v81h-391v230h-90v-311h196v-113h-376v-83h847zM683 -160v336h-477v-84h387v-252h90z" />
<glyph unicode="&#xb17c;" d="M873 243v83h-382v120h193v81h-391v244h-90v-325h196v-120h-373v-83h847zM703 -138v84h-401v213h-89v-297h490z" />
<glyph unicode="&#xb180;" d="M873 307v83h-384v94h193v81h-390v216h-90v-297h195v-94h-371v-83h847zM703 -149v85h-391v71h366v233h-465v-82h372v-69h-367v-238h485z" />
<glyph unicode="&#xb182;" d="M873 307v83h-384v94h194v81h-391v216h-90v-297h195v-94h-371v-83h847zM747 -149v383h-280v-383h280zM459 -149v86h-215v67h192v227h-287v-82h194v-64h-192v-234h308zM655 -67h-97v218h97v-218z" />
<glyph unicode="&#xb188;" d="M873 261v83h-380v116h194v81h-391v230h-90v-311h196v-116h-376v-83h847zM691 -142v319h-475v-319h475zM600 -59h-292v153h292v-153z" />
<glyph unicode="&#xb189;" d="M874 292v82h-385v105h194v81h-391v221h-90v-302h195v-105h-371v-82h848zM687 -147v378h-91v-109h-291v109h-92v-378h474zM596 -64h-291v103h291v-103z" />
<glyph unicode="&#xb18b;" d="M874 265v83h-385v110h192v81h-391v232h-90v-313h198v-110h-372v-83h848zM743 -85l-266 175q16 43 16 82v29h-97v-17q0 -83 -66.5 -154.5t-184.5 -107.5l61 -71q148 45 228 161l249 -164z" />
<glyph unicode="&#xb18d;" d="M873 276v83h-380v101h194v81h-391v230h-90v-311h196v-101h-376v-83h847zM675 28q0 86 -65.5 139t-164.5 53q-98 0 -162 -53.5t-64 -139.5q0 -84 65.5 -136t160.5 -52q99 0 164.5 53.5t65.5 135.5zM582 29q0 -52 -39 -81.5t-98 -29.5t-97 30.5t-38 80.5q0 51 38.5 82 t96.5 31t97.5 -31t39.5 -82z" />
<glyph unicode="&#xb192;" d="M873 264v83h-380v118h194v81h-391v225h-90v-306h196v-118h-376v-83h847zM725 -139v83h-106v152h97v83h-517v-83h97v-152h-105v-83h534zM529 -56h-143v152h143v-152z" />
<glyph unicode="&#xb193;" d="M873 350v82h-378v74h195v79h-391v196h-90v-275h197v-74h-380v-82h847zM623 213v83q-91 -8 -219 0q-77 13 -102 25l-28 -69q53 -27 122 -39q107 -8 227 0zM762 89v78h-594v-78h152q-22 -10 -39 -37.5t-17 -56.5q0 -71 56 -115t145 -44q92 0 147.5 44.5t55.5 117.5 q0 29 -16 53.5t-43 37.5h153zM567 -5q0 -36 -31 -56.5t-72 -20.5t-71.5 21t-30.5 56t30 55t71 20q42 0 73 -20t31 -55z" />
<glyph unicode="&#xb194;" horiz-adv-x="920" d="M912 357v83h-163v347h-90v-901h90v471h163zM635 139v82q-162 -31 -292 -31v157h169v83h-345v272h-91v-355h175v-157h-235v-84h247q66 0 113.5 1.5t87.5 5.5t57 6t59 10t55 10z" />
<glyph unicode="&#xb198;" horiz-adv-x="920" d="M913 439v85h-166v263h-90v-662h90v314h166zM632 254v80q-116 -22 -282 -27v115h169v84h-341v220h-89v-304h171v-115h-247v-84h249q82 0 145 3.5t89 6.5t73 11t63 10zM760 -139v84h-395v205h-91v-289h486z" />
<glyph unicode="&#xb19c;" horiz-adv-x="920" d="M907 487v84h-159v216h-90v-505h90v205h159zM632 326v81q-115 -23 -282 -28v88h169v81h-341v198h-89v-279h171v-88h-247v-81h249q67 0 116.5 1.5t88.5 5t58 5.5t56 8t51 8zM754 -149v86h-384v74h359v230h-459v-82h367v-66h-362v-242h479z" />
<glyph unicode="&#xb1a8;" horiz-adv-x="920" d="M910 477v84h-162v226h-90v-566h90v256h162zM633 285v80q-124 -24 -283 -28v109h169v81h-341v219h-89v-300h171v-109h-247v-81h249q83 0 147 3t86 5.5t76 11t62 9.5zM825 -85l-175 161q7 31 9 70v29h-93v-26q0 -55 -24.5 -108t-67.5 -84l-110 112q8 20 12 77v29h-94v-26 q0 -73 -44.5 -136t-125.5 -89l59 -72q101 45 155 132l137 -139q104 45 154 143l150 -136z" />
<glyph unicode="&#xb1cc;" horiz-adv-x="870" d="M781 -114v901h-89v-901h89zM661 139v83q-143 -32 -287 -32v156h174v84h-354v272h-89v-356h178v-156h-254v-84h254q55 0 100.5 1.5t74 3t61 5.5t46.5 6t48 8.5t48 8.5z" />
<glyph unicode="&#xb1d0;" horiz-adv-x="870" d="M782 125v662h-89v-662h89zM668 254v80q-116 -22 -293 -27v115h170v84h-342v220h-89v-304h172v-115h-247v-84h249q82 0 147 3.5t90.5 6t78.5 11t64 10.5zM791 -139v84h-395v205h-90v-289h485z" />
<glyph unicode="&#xb1d4;" horiz-adv-x="870" d="M782 274v513h-89v-513h89zM667 328v81q-115 -23 -293 -28v88h170v81h-342v196h-89v-277h172v-88h-247v-81h249q67 0 117 1t92.5 5t59 5.5t60 8.5t51.5 8zM782 -149v86h-383v74h359v230h-458v-82h365v-66h-360v-242h477z" />
<glyph unicode="&#xb1dc;" horiz-adv-x="870" d="M782 224v562h-89v-562h89zM667 296v79q-116 -22 -293 -27v105h170v81h-342v212h-89v-293h172v-105h-247v-81h249q56 0 103.5 1.5t76 2.5t62.5 5t47 5.5t47 7t44 7.5zM761 -142v321h-464v-321h464zM669 -59h-281v155h281v-155z" />
<glyph unicode="&#xb1dd;" horiz-adv-x="870" d="M777 264v523h-89v-523h89zM662 316v81q-106 -21 -293 -29v99h170v81h-342v198h-89v-279h172v-99h-247v-81h249q67 0 117.5 1.5t91.5 5t60.5 6t58.5 8.5zM758 -147v368h-92v-103h-280v103h-91v-368h463zM666 -64h-280v98h280v-98z" />
<glyph unicode="&#xb1df;" horiz-adv-x="870" d="M773 179v608h-89v-608h89zM658 285v80q-122 -23 -293 -28v113h170v81h-342v215h-89v-296h172v-113h-247v-81h249q67 0 117.5 1.5t91.5 5t60.5 6t58.5 8.5zM800 -86l-259 174q19 47 19 91v25h-95v-7q0 -89 -65 -165t-182 -112l61 -69q140 45 219 160l244 -164z" />
<glyph unicode="&#xb1e8;" d="M693 297v84h-410v323h-89v-407h499zM873 -1v84h-253v188h-92v-188h-170v188h-91v-188h-241v-84h847z" />
<glyph unicode="&#xb1e9;" d="M873 254v83h-244v123h62v81h-391v230h-90v-311h63v-123h-247v-83h847zM686 -160v325h-477v-84h387v-241h90zM537 337h-174v123h174v-123z" />
<glyph unicode="&#xb1ec;" d="M873 233v84h-244v129h62v81h-391v244h-90v-325h63v-129h-247v-84h847zM710 -138v84h-401v213h-88v-297h489zM537 317h-174v129h174v-129z" />
<glyph unicode="&#xb1f0;" d="M873 299v83h-246v102h63v81h-391v216h-90v-297h63v-102h-246v-83h847zM709 -149v85h-391v71h367v233h-466v-82h372v-69h-366v-238h484zM536 382h-174v102h174v-102z" />
<glyph unicode="&#xb1f9;" d="M873 288v83h-244v111h62v81h-391v218h-90v-299h63v-111h-247v-83h847zM696 -147v381h-91v-122h-291v122h-91v-381h473zM537 371h-174v111h174v-111zM605 -64h-291v92h291v-92z" />
<glyph unicode="&#xb1fb;" d="M874 256v82h-249v119h62v81h-391v233h-90v-314h63v-119h-243v-82h848zM754 -85l-266 175q16 43 16 82v29h-97v-17q0 -83 -66.5 -154.5t-184.5 -107.5l61 -71q148 45 228 161l249 -164zM533 338h-174v119h174v-119z" />
<glyph unicode="&#xb1fd;" d="M873 270v83h-249v112h63v81h-391v225h-90v-306h63v-112h-243v-83h847zM685 28q0 86 -65.5 139t-164.5 53q-98 0 -162 -53.5t-64 -139.5q0 -84 65.5 -136t160.5 -52q99 0 164.5 53.5t65.5 135.5zM533 353h-174v112h174v-112zM592 29q0 -52 -39 -81.5t-98 -29.5t-97 30.5 t-38 80.5q0 51 38.5 82t96.5 31t97.5 -31t39.5 -82z" />
<glyph unicode="&#xb204;" d="M686 420v85h-390v250h-89v-335h479zM873 215v85h-847v-85h375v-347h91v347h381z" />
<glyph unicode="&#xb205;" d="M685 460v81h-387v230h-90v-311h477zM873 283v82h-847v-82h380v-112h-191v-84h387v-247h89v331h-195v112h377z" />
<glyph unicode="&#xb208;" d="M687 450v81h-390v240h-90v-321h480zM873 266v82h-847v-82h398v-199h90v199h359zM705 -138v84h-401v213h-88v-297h489z" />
<glyph unicode="&#xb20b;" d="M688 460v81h-391v230h-90v-311h481zM873 285v82h-847v-82h380v-104h-196v-325h485v84h-395v158h385v83h-189v104h377z" />
<glyph unicode="&#xb20c;" d="M686 487v81h-391v213h-90v-294h481zM873 324v83h-847v-83h380v-84h-188v-82h371v-69h-366v-238h484v85h-390v71h366v233h-187v84h377z" />
<glyph unicode="&#xb214;" d="M686 460v81h-391v230h-90v-311h481zM873 285v82h-847v-82h380v-109h-190v-318h474v318h-194v109h377zM599 -59h-292v152h292v-152z" />
<glyph unicode="&#xb215;" d="M686 481v81h-391v219h-90v-300h481zM873 311v83h-847v-83h380v-156h90v156h377zM692 -147v381h-91v-122h-291v122h-91v-381h473zM601 -64h-291v92h291v-92z" />
<glyph unicode="&#xb217;" d="M686 460v81h-391v230h-90v-311h481zM873 288v82h-847v-82h380v-104q0 -83 -67.5 -154.5t-186.5 -107.5l61 -71q145 45 228 162l249 -165l60 67l-268 177q14 42 14 80v116h377z" />
<glyph unicode="&#xb219;" d="M689 471v81h-391v219h-90v-300h481zM872 303v82h-847v-82h381v-86q-80 -12 -130 -63t-50 -127q0 -84 65.5 -136t160.5 -52q99 0 164.5 53.5t65.5 135.5q0 76 -52 126.5t-134 62.5v86h376zM589 29q0 -52 -39 -81.5t-98 -29.5t-97 30.5t-38 80.5q0 51 38.5 82t96.5 31 t97.5 -31t39.5 -82z" />
<glyph unicode="&#xb220;" horiz-adv-x="870" d="M785 -114v901h-89v-614h-210v-84h210v-203h89zM541 419v85h-335v219h-90v-304h425zM637 271v85q-157 -33 -391 -33h-221v-83h246v-341h90v343q138 6 276 29z" />
<glyph unicode="&#xb234;" horiz-adv-x="870" d="M774 181v606h-88v-488h-206v-80h206v-38h88zM527 483v82h-337v178h-89v-260h426zM627 364v83q-157 -33 -391 -33h-211v-81h223v-152h89v154q133 4 290 29zM834 -87l-178 162q7 31 9 70v9h-93v-6q0 -55 -24.5 -108t-67.5 -84l-112 112q8 20 12 77v9h-94v-6 q0 -73 -44.5 -136t-125.5 -89l59 -72q101 45 155 132l139 -139q104 45 154 143l153 -137z" />
<glyph unicode="&#xb23c;" horiz-adv-x="920" d="M848 -114v901h-88v-901h88zM671 -74v841h-90v-588h-173v-84h173v-169h90zM476 421v83h-273v219h-90v-302h363zM551 280v85q-64 -13 -96.5 -18.5t-96 -10.5t-144.5 -5h-173v-82h147q45 0 65 1v-351h89v355q48 3 209 26z" />
<glyph unicode="&#xb258;" horiz-adv-x="870" d="M785 -114v901h-89v-901h89zM551 400v83h-340v240h-90v-323h430zM657 250v84q-155 -31 -385 -31h-232v-84h247v-320h89v322q129 5 281 29z" />
<glyph unicode="&#xb25c;" horiz-adv-x="870" d="M775 100v687h-87v-687h87zM548 458v84h-335v191h-90v-275h425zM648 323v84q-162 -34 -401 -34h-221v-79h234v-138h88v140q136 4 300 27zM775 -139v84h-395v182h-90v-266h485z" />
<glyph unicode="&#xb260;" horiz-adv-x="870" d="M789 259v528h-87v-528h87zM562 496v82h-335v168h-90v-250h425zM662 379v83q-157 -33 -401 -33h-221v-80h234v-90h88v92q121 3 300 28zM786 -149v86h-384v69h359v223h-458v-82h365v-59h-360v-237h478z" />
<glyph unicode="&#xb268;" horiz-adv-x="870" d="M789 211v576h-87v-576h87zM562 480v82h-335v181h-90v-263h425zM662 357v83q-160 -32 -401 -32h-221v-81h234v-112h88v114q121 3 300 28zM768 -142v310h-464v-310h464zM677 -59h-282v144h282v-144z" />
<glyph unicode="&#xb269;" horiz-adv-x="870" d="M789 246v541h-87v-541h87zM562 493v82h-335v168h-90v-250h425zM662 379v83q-157 -33 -401 -33h-221v-80h234v-103h88v105q121 3 300 28zM767 -147v364h-91v-108h-281v108h-91v-364h463zM676 -64h-281v89h281v-89z" />
<glyph unicode="&#xb274;" d="M685 420v85h-390v250h-89v-335h479zM873 215v85h-847v-85h240v-347h90v347h181v-347h91v347h245z" />
<glyph unicode="&#xb275;" d="M691 466v81h-391v224h-90v-305h481zM873 294v81h-847v-81h251v-118h-57v-84h387v-252h89v336h-63v118h240zM543 176h-176v118h176v-118z" />
<glyph unicode="&#xb27c;" d="M691 493v81h-391v207h-90v-288h481zM873 330v83h-847v-83h251v-90h-54v-82h371v-69h-366v-238h484v85h-390v71h366v233h-55v90h240zM543 240h-176v90h176v-90z" />
<glyph unicode="&#xb284;" d="M691 466v81h-391v224h-90v-305h481zM873 292v81h-847v-81h251v-115h-58v-319h474v319h-60v115h240zM543 177h-176v115h176v-115zM602 -59h-292v153h292v-153z" />
<glyph unicode="&#xb285;" d="M691 486v81h-391v214h-90v-295h481zM873 319v83h-847v-83h269v-87h-71v-379h473v379h-69v87h245zM606 112h-291v71h70v136h154v-136h67v-71zM606 -64h-291v92h291v-92z" />
<glyph unicode="&#xb289;" d="M692 477v81h-391v213h-90v-294h481zM873 309v82h-847v-82h247v-161q-45 -50 -45 -121q0 -84 65.5 -136t160.5 -52q99 0 164.5 53.5t65.5 135.5q0 72 -47 122v159h236zM547 205q-43 15 -93 15q-47 0 -91 -14v103h184v-104zM591 29q0 -52 -39 -81.5t-98 -29.5t-97 30.5 t-38 80.5q0 51 38.5 82t96.5 31t97.5 -31t39.5 -82z" />
<glyph unicode="&#xb290;" d="M695 286v84h-410v334h-89v-418h499zM878 9v85h-857v-85h857z" />
<glyph unicode="&#xb291;" d="M689 460v81h-391v230h-90v-311h481zM878 278v82h-857v-82h857zM689 -160v336h-477v-84h388v-252h89z" />
<glyph unicode="&#xb294;" d="M692 444v81h-391v246h-90v-327h481zM878 255v82h-857v-82h857zM710 -138v84h-401v213h-88v-297h489z" />
<glyph unicode="&#xb298;" d="M691 487v81h-391v213h-90v-294h481zM873 319v83h-847v-83h847zM712 -149v85h-390v71h366v233h-465v-82h371v-69h-366v-238h484z" />
<glyph unicode="&#xb299;" d="M689 487v81h-391v213h-90v-294h481zM873 325v83h-847v-83h847zM748 -149v392h-272v-85h180v-307h92zM495 -149v86h-244v72h205v234h-300v-82h207v-70h-205v-240h337z" />
<glyph unicode="&#xb29a;" d="M687 487v81h-391v213h-90v-294h481zM873 324v83h-847v-83h847zM751 -149v389h-280v-389h280zM463 -149v86h-215v71h192v235h-287v-83h194v-69h-192v-240h308zM659 -67h-97v223h97v-223z" />
<glyph unicode="&#xb2a0;" d="M691 458v81h-391v232h-90v-313h481zM873 275v82h-847v-82h847zM695 -142v319h-474v-319h474zM604 -59h-292v153h292v-153z" />
<glyph unicode="&#xb2a1;" d="M691 477v81h-391v223h-90v-304h481zM873 307v82h-847v-82h847zM697 -147v379h-91v-116h-291v116h-91v-379h473zM606 -64h-291v96h291v-96z" />
<glyph unicode="&#xb2a3;" d="M690 450v81h-391v240h-90v-321h481zM872 278v82h-847v-82h847zM748 -85l-259 184q16 45 16 83v34h-97v-22q0 -85 -64.5 -161t-180.5 -111l56 -69q145 44 228 167l241 -172z" />
<glyph unicode="&#xb2a5;" d="M689 460v81h-391v230h-90v-311h481zM873 293v81h-847v-81h847zM682 28q0 86 -65.5 139t-164.5 53q-98 0 -162 -53.5t-64 -139.5q0 -84 65.5 -136t160.5 -52q99 0 164.5 53.5t65.5 135.5zM589 29q0 -52 -39 -81.5t-98 -29.5t-97 30.5t-38 80.5q0 51 38.5 82t96.5 31 t97.5 -31t39.5 -82z" />
<glyph unicode="&#xb2a6;" d="M693 460v81h-389v230h-90v-311h479zM873 297v82h-847v-82h847zM772 -77l-212 115q99 90 123 174h-459v-82h302q-55 -64 -155 -124t-213 -81l57 -73q141 34 271 126l228 -127z" />
<glyph unicode="&#xb2aa;" d="M689 459v81h-391v231h-90v-312h481zM873 281v82h-847v-82h847zM724 -139v83h-106v155h97v83h-516v-83h97v-155h-105v-83h533zM528 -56h-142v155h142v-155z" />
<glyph unicode="&#xb2ac;" horiz-adv-x="870" d="M790 -114v901h-90v-901h90zM559 346v84h-344v272h-89v-356h433zM672 144v83q-19 -4 -54.5 -9.5t-145 -14.5t-219.5 -8h-204v-84h208q106 0 188 5.5t119 10.5t108 17z" />
<glyph unicode="&#xb2b0;" horiz-adv-x="870" d="M796 125v662h-89v-662h89zM556 422v84h-332v220h-89v-304h421zM672 275v80q-23 -4 -61 -10t-138 -14t-178 -4h-245v-83h238q83 0 149 3.5t90.5 6t80.5 11.5t64 10zM800 -139v84h-394v215h-90v-299h484z" />
<glyph unicode="&#xb2b4;" horiz-adv-x="870" d="M798 284v503h-89v-503h89zM557 471v81h-332v194h-89v-275h421zM673 344v80q-23 -4 -61 -9.5t-138 -13.5t-178 -4h-245v-83h238q39 0 74.5 1t60.5 1.5t55.5 3t44.5 3.5t42 5l35 5t37.5 5.5t34.5 5.5zM787 -149v86h-383v76h359v230h-459v-82h366v-66h-361v-244h478z" />
<glyph unicode="&#xb2c8;" horiz-adv-x="850" d="M747 -114v901h-90v-901h90zM549 179v84h-377v417h-89v-501h466z" />
<glyph unicode="&#xb2c9;" horiz-adv-x="850" d="M739 232v555h-90v-555h90zM534 330v85h-376v321h-88v-406h464zM717 -160v347h-478v-84h388v-263h90z" />
<glyph unicode="&#xb2cc;" horiz-adv-x="850" d="M734 150v637h-90v-637h90zM529 313v85h-376v328h-88v-413h464zM745 -139v84h-395v236h-90v-320h485z" />
<glyph unicode="&#xb2d0;" horiz-adv-x="850" d="M739 295v492h-90v-492h90zM525 361v84h-366v301h-88v-385h454zM732 -149v86h-384v79h358v235h-458v-82h367v-71h-362v-247h479z" />
<glyph unicode="&#xb2d2;" horiz-adv-x="850" d="M739 284v503h-90v-503h90zM525 361v84h-366v301h-88v-385h454zM731 -149v395h-280v-395h280zM443 -149v86h-215v78h192v236h-287v-82h194v-72h-192v-246h308zM639 -67h-97v230h97v-230z" />
<glyph unicode="&#xb2d8;" horiz-adv-x="850" d="M734 228v559h-90v-559h90zM519 330v85h-366v321h-88v-406h454zM705 -142v331h-465v-331h465zM614 -59h-282v164h282v-164z" />
<glyph unicode="&#xb2d9;" horiz-adv-x="850" d="M734 274v513h-90v-513h90zM519 351v84h-366v311h-88v-395h454zM714 -147v381h-92v-112h-281v112h-92v-381h465zM622 -64h-281v103h281v-103z" />
<glyph unicode="&#xb2db;" horiz-adv-x="850" d="M737 171v616h-90v-616h90zM532 320v85h-376v321h-88v-406h464zM757 -90l-256 203q13 42 13 76v35h-95v-17q0 -90 -65.5 -170t-181.5 -115l61 -71q73 23 132.5 71.5t96.5 109.5l234 -183z" />
<glyph unicode="&#xb2dd;" horiz-adv-x="850" d="M739 243v544h-90v-544h90zM524 330v85h-366v321h-88v-406h454zM715 36q0 81 -66 138.5t-155 57.5t-155.5 -57.5t-66.5 -138.5q0 -83 64.5 -140.5t157.5 -57.5q89 0 155 58t66 140zM622 36q0 -49 -38 -82t-90 -33q-56 0 -93 33.5t-37 81.5q0 47 38 80.5t92 33.5 q51 0 89.5 -32.5t38.5 -81.5z" />
<glyph unicode="&#xb2e2;" horiz-adv-x="850" d="M739 253v534h-90v-534h90zM524 330v85h-366v321h-88v-406h454zM738 -139v83h-109v182h100v84h-520v-84h94v-182h-106v-83h541zM538 -56h-143v182h143v-182z" />
<glyph unicode="&#xb2e4;" d="M889 386v83h-165v318h-90v-901h90v500h165zM518 167v84h-357v325h296v83h-386v-492h447z" />
<glyph unicode="&#xb2e5;" d="M891 488v84h-159v215h-90v-560h90v261h159zM524 310v84h-367v243h295v84h-383v-411h455zM719 -160v342h-476v-84h388v-258h88z" />
<glyph unicode="&#xb2e6;" d="M891 488v84h-159v215h-90v-555h90v256h159zM524 310v84h-367v243h295v84h-383v-411h455zM734 -160v347h-260v-84h170v-263h90zM455 -160v347h-292v-84h202v-263h90z" />
<glyph unicode="&#xb2e8;" d="M890 489v85h-158v213h-89v-647h89v349h158zM525 289v83h-367v255h295v84h-383v-422h455zM745 -139v84h-395v216h-91v-300h486z" />
<glyph unicode="&#xb2eb;" d="M891 488v84h-159v215h-90v-565h90v266h159zM524 310v84h-367v243h295v84h-383v-411h455zM734 -144v84h-395v158h384v83h-475v-325h486z" />
<glyph unicode="&#xb2ec;" d="M891 505v84h-159v198h-90v-496h90v214h159zM523 354v83h-367v211h295v83h-383v-377h455zM739 -149v86h-384v77h358v235h-458v-82h366v-71h-361v-245h479z" />
<glyph unicode="&#xb2ed;" d="M891 505v84h-159v198h-90v-496h90v214h159zM524 359v83h-368v206h295v83h-383v-372h456zM734 -149v402h-273v-85h181v-317h92zM491 -149v86h-258v79h210v237h-308v-82h215v-73h-210v-247h351z" />
<glyph unicode="&#xb2ee;" d="M891 505v84h-159v198h-90v-507h90v225h159zM524 359v83h-368v206h295v83h-383v-372h456zM736 -149v395h-278v-395h278zM445 -149v86h-218v78h195v236h-290v-82h197v-72h-195v-246h311zM646 -67h-99v230h99v-230z" />
<glyph unicode="&#xb2ef;" d="M891 505v84h-159v198h-90v-496h90v214h159zM524 359v83h-368v206h295v83h-383v-372h456zM742 -148v399h-89v-133h-111v133h-89v-399h289zM440 -149v86h-214v78h191v236h-286v-82h193v-72h-191v-246h307zM653 -65h-111v99h111v-99z" />
<glyph unicode="&#xb2f3;" d="M891 505v84h-159v198h-90v-486h90v204h159zM524 359v83h-368v206h295v83h-383v-372h456zM730 185v78q-54 -7 -137 -2q-64 7 -102 25l-28 -65q51 -27 122 -38q81 -6 145 2zM808 57v76h-386v-76h81q-19 -8 -34 -32.5t-15 -49.5q0 -62 43 -100t112 -39t112.5 38t43.5 102 q0 24 -13 46.5t-34 34.5h90zM445 -149v86h-218v78h184v236h-279v-82h187v-72h-185v-246h311zM676 -24q0 -26 -20.5 -44.5t-48.5 -17.5q-27 1 -45 18t-18 44q0 29 18.5 46t47.5 16t47.5 -18t18.5 -44z" />
<glyph unicode="&#xb2f4;" d="M891 488v84h-159v215h-90v-555h90v256h159zM524 318v84h-367v235h295v84h-383v-403h455zM718 -142v331h-464v-331h464zM627 -59h-281v164h281v-164z" />
<glyph unicode="&#xb2f5;" d="M891 519v85h-159v183h-90v-515h90v247h159zM524 340v84h-367v224h295v83h-383v-391h455zM723 -147v379h-91v-114h-281v114h-92v-379h464zM632 -64h-281v98h281v-98z" />
<glyph unicode="&#xb2f7;" d="M891 477v84h-159v225h-90v-615h90v306h159zM524 310v84h-367v233h295v84h-383v-401h455zM769 -100l-255 203q12 39 12 76v45h-95v-27q0 -90 -65.5 -170t-181.5 -115l61 -71q73 24 132.5 72t97.5 109l233 -183z" />
<glyph unicode="&#xb2f8;" d="M891 488v84h-159v215h-90v-545h90v246h159zM524 310v84h-367v243h295v84h-383v-411h455zM825 -86l-178 162q7 31 9 70v59h-93v-56q0 -55 -24.5 -108t-67.5 -84l-112 112q8 20 12 77v59h-94v-56q0 -73 -44.5 -136t-125.5 -89l59 -72q101 45 155 132l139 -139 q104 45 154 143l153 -137z" />
<glyph unicode="&#xb2f9;" d="M891 498v83h-159v206h-90v-555h90v266h159zM524 313v83h-367v241h295v84h-383v-408h455zM720 36q0 81 -66 138.5t-155 57.5t-155.5 -57.5t-66.5 -138.5q0 -83 64.5 -140.5t157.5 -57.5q89 0 155 58t66 140zM627 36q0 -49 -38 -82t-90 -33q-56 0 -93 33.5t-37 81.5 q0 47 38 80.5t92 33.5q51 0 89.5 -32.5t38.5 -81.5z" />
<glyph unicode="&#xb2fa;" d="M891 488v84h-159v215h-90v-534h90v235h159zM524 336v84h-367v217h295v84h-383v-385h455zM797 -84q-210 120 -211 120q95 87 121 178h-460v-83h303q-60 -70 -159 -127t-210 -81l56 -73q139 32 273 126l232 -131z" />
<glyph unicode="&#xb2fb;" d="M891 518v85h-159v184h-90v-510h90v241h159zM524 367v83h-367v198h295v83h-383v-364h455zM615 218v83q-93 -6 -198 1q-56 7 -102 25l-28 -70q60 -30 122 -39q108 -6 206 0zM783 -84q-209 93 -209 94q88 72 123 157h-468v-81h296q-129 -123 -360 -166l54 -73 q146 28 274 105l231 -104z" />
<glyph unicode="&#xb2ff;" d="M891 528v85h-159v174h-90v-492h90v233h159zM524 372v83h-367v193h295v83h-383v-359h455zM629 221v83q-95 -8 -210 0q-65 7 -104 25l-27 -69q49 -30 123 -39q87 -5 218 0zM760 89v80h-574v-80h149q-21 -13 -37.5 -40.5t-16.5 -53.5q0 -70 55 -114.5t140 -44.5 q83 0 138 43.5t55 118.5q0 27 -14.5 52.5t-36.5 38.5h142zM570 -6q0 -36 -28 -56.5t-68 -20.5q-38 0 -66 20.5t-28 56.5q0 35 27.5 55.5t65.5 20.5q40 0 68.5 -20.5t28.5 -55.5z" />
<glyph unicode="&#xb300;" d="M819 -114v901h-89v-318h-124v298h-89v-819h89v437h124v-499h89zM465 167v84h-305v325h261v83h-350v-492h394z" />
<glyph unicode="&#xb301;" d="M817 222v565h-89v-218h-120v197h-89v-524h89v244h120v-264h89zM476 310v84h-315v243h263v84h-352v-411h404zM775 -160v342h-477v-84h387v-258h90z" />
<glyph unicode="&#xb304;" d="M817 140v647h-89v-225h-120v204h-89v-586h89v299h120v-339h89zM476 289v83h-315v255h263v84h-352v-422h404zM809 -139v84h-395v226h-90v-310h485z" />
<glyph unicode="&#xb308;" d="M817 282v505h-89v-192h-120v171h-89v-464h89v210h120v-230h89zM476 346v83h-315v219h263v83h-352v-385h404zM794 -149v86h-383v76h359v233h-458v-82h365v-69h-360v-244h477z" />
<glyph unicode="&#xb310;" d="M817 232v555h-89v-218h-120v197h-89v-514h89v234h120v-254h89zM476 310v84h-315v243h263v84h-352v-411h404zM784 -142v331h-464v-331h464zM692 -59h-281v164h281v-164z" />
<glyph unicode="&#xb311;" d="M817 260v527h-89v-206h-120v185h-89v-486h89v219h120v-239h89zM476 330v84h-315v234h263v83h-352v-401h404zM768 -147v376h-92v-114h-280v114h-92v-376h464zM676 -64h-280v95h280v-95z" />
<glyph unicode="&#xb313;" d="M817 212v575h-89v-228h-120v207h-89v-503h89v213h120v-264h89zM476 300v83h-315v244h263v84h-352v-411h404zM813 -90l-255 203q12 39 12 76v35h-95v-17q0 -90 -65.5 -170t-181.5 -115l61 -71q73 24 132.5 72t97.5 109l233 -183z" />
<glyph unicode="&#xb314;" d="M814 230v557h-89v-218h-120v197h-89v-514h89v234h120v-256h89zM473 310v84h-315v243h263v84h-352v-411h404zM855 -86l-178 162q7 31 9 70v57h-93v-54q0 -55 -24.5 -108t-67.5 -84l-112 112q8 20 12 77v57h-94v-54q0 -73 -44.5 -136t-125.5 -89l59 -72q101 45 155 132 l139 -139q104 45 154 143l153 -137z" />
<glyph unicode="&#xb315;" d="M817 232v555h-89v-215h-125v194h-90v-493h90v216h125v-257h89zM476 310v84h-315v243h263v84h-352v-411h404zM770 36q0 81 -66 138.5t-155 57.5t-155.5 -57.5t-66.5 -138.5q0 -83 64.5 -140.5t157.5 -57.5q89 0 155 58t66 140zM677 36q0 -49 -38 -82t-90 -33 q-56 0 -93 33.5t-37 81.5q0 47 38 80.5t92 33.5q51 0 89.5 -32.5t38.5 -81.5z" />
<glyph unicode="&#xb31c;" d="M876 242v83h-165v154h165v83h-165v225h-90v-901h90v356h165zM510 167v84h-357v325h297v83h-386v-492h446z" />
<glyph unicode="&#xb354;" horiz-adv-x="850" d="M760 -114v901h-90v-319h-242v-84h242v-498h90zM525 167v84h-367v325h307v83h-396v-492h456z" />
<glyph unicode="&#xb355;" horiz-adv-x="850" d="M767 227v560h-89v-224h-223v-83h223v-253h89zM529 314v84h-378v239h305v84h-393v-407h466zM745 -160v342h-477v-84h387v-258h90z" />
<glyph unicode="&#xb356;" horiz-adv-x="850" d="M767 232v555h-89v-224h-223v-83h223v-248h89zM529 315v84h-378v238h305v84h-393v-406h466zM758 -160v347h-259v-84h169v-263h90zM480 -160v347h-291v-84h202v-263h89z" />
<glyph unicode="&#xb358;" horiz-adv-x="850" d="M761 140v647h-89v-239h-223v-83h223v-325h89zM523 291v82h-378v254h305v84h-393v-420h466zM773 -139v84h-395v231h-90v-315h485z" />
<glyph unicode="&#xb35b;" horiz-adv-x="850" d="M766 222v565h-89v-219h-223v-83h223v-263h89zM528 318v84h-378v235h305v84h-393v-403h466zM767 -144v84h-394v158h384v83h-475v-325h485z" />
<glyph unicode="&#xb35c;" horiz-adv-x="850" d="M767 295v492h-89v-198h-223v-83h223v-211h89zM529 349v83h-378v216h305v83h-393v-382h466zM760 -149v86h-383v77h361v237h-461v-82h368v-73h-363v-245h478z" />
<glyph unicode="&#xb35e;" horiz-adv-x="850" d="M767 294v493h-89v-198h-223v-83h223v-212h89zM529 349v83h-378v216h305v83h-393v-382h466zM759 -149v398h-279v-398h279zM472 -149v86h-216v78h192v236h-287v-82h194v-72h-191v-246h308zM667 -67h-97v233h97v-233z" />
<glyph unicode="&#xb35f;" horiz-adv-x="850" d="M767 290v497h-89v-198h-223v-83h223v-216h89zM529 349v83h-378v216h305v83h-393v-382h466zM762 -148v399h-88v-127h-113v127h-88v-399h289zM459 -149v86h-218v78h192v236h-287v-82h194v-72h-192v-246h311zM674 -65h-113v106h113v-106z" />
<glyph unicode="&#xb364;" horiz-adv-x="850" d="M767 232v555h-89v-219h-223v-83h223v-253h89zM529 318v84h-378v235h305v84h-393v-403h466zM739 -142v331h-465v-331h465zM647 -59h-282v164h282v-164z" />
<glyph unicode="&#xb365;" horiz-adv-x="850" d="M767 274v513h-89v-208h-223v-83h223v-222h89zM529 338v84h-378v226h305v83h-393v-393h466zM747 -147v381h-92v-112h-280v112h-92v-381h464zM655 -64h-280v103h280v-103z" />
<glyph unicode="&#xb367;" horiz-adv-x="850" d="M767 171v616h-89v-239h-223v-83h223v-294h89zM529 300v83h-378v244h305v84h-393v-411h466zM787 -90l-256 203q13 42 13 76v35h-95v-17q0 -90 -65.5 -170t-181.5 -115l61 -71q73 23 132.5 71.5t96.5 109.5l234 -183z" />
<glyph unicode="&#xb369;" horiz-adv-x="850" d="M767 232v555h-89v-224h-223v-83h223v-248h89zM529 314v84h-378v239h305v84h-393v-407h466zM745 36q0 81 -66 138.5t-155 57.5t-155.5 -57.5t-66.5 -138.5q0 -83 64.5 -140.5t157.5 -57.5q89 0 155 58t66 140zM652 36q0 -49 -38 -82t-90 -33q-56 0 -93 33.5t-37 81.5 q0 47 38 80.5t92 33.5q51 0 89.5 -32.5t38.5 -81.5z" />
<glyph unicode="&#xb36b;" horiz-adv-x="850" d="M766 274v513h-89v-193h-223v-83h223v-237h89zM528 366v83h-378v199h305v83h-393v-365h466zM644 218v83q-78 -5 -198 1q-61 7 -102 25l-28 -70q43 -28 122 -39q109 -7 206 0zM812 -84q-209 93 -209 94q88 72 123 157h-468v-81h296q-129 -123 -360 -166l54 -73 q146 28 274 105l231 -104z" />
<glyph unicode="&#xb36e;" horiz-adv-x="850" d="M767 243v544h-89v-224h-223v-83h223v-237h89zM529 319v84h-378v234h305v84h-393v-402h466zM766 -139v83h-107v168h98v84h-519v-84h98v-168h-109v-83h539zM568 -56h-141v168h141v-168z" />
<glyph unicode="&#xb370;" d="M823 -114v901h-89v-901h89zM627 -52v819h-90v-309h-209v-84h209v-426h90zM456 167v84h-300v325h256v83h-345v-492h389z" />
<glyph unicode="&#xb371;" d="M817 217v570h-89v-570h89zM628 236v530h-89v-207h-197v-83h197v-240h89zM466 310v84h-305v243h253v84h-342v-411h394zM775 -160v334h-477v-84h387v-250h90z" />
<glyph unicode="&#xb374;" d="M817 129v658h-89v-658h89zM628 170v596h-89v-228h-197v-83h197v-285h89zM466 289v83h-305v255h253v84h-342v-422h394zM809 -139v84h-395v224h-90v-308h485z" />
<glyph unicode="&#xb378;" d="M817 280v507h-89v-507h89zM628 300v466h-89v-190h-197v-83h197v-193h89zM466 336v84h-305v228h253v83h-342v-395h394zM794 -149v86h-383v73h359v232h-458v-82h365v-68h-360v-241h477z" />
<glyph unicode="&#xb380;" d="M817 232v555h-89v-555h89zM628 252v514h-89v-209h-197v-83h197v-222h89zM466 308v83h-305v246h253v84h-342v-413h394zM784 -142v331h-464v-331h464zM692 -59h-281v164h281v-164z" />
<glyph unicode="&#xb381;" d="M817 260v527h-89v-527h89zM628 280v486h-89v-198h-197v-83h197v-205h89zM466 320v84h-305v244h253v83h-342v-411h394zM768 -147v371h-92v-112h-280v112h-92v-371h464zM676 -64h-280v92h280v-92z" />
<glyph unicode="&#xb383;" d="M817 200v587h-89v-587h89zM628 255v511h-89v-222h-197v-83h197v-206h89zM466 300v83h-305v244h253v84h-342v-411h394zM813 -90l-256 203q13 42 13 76v35h-95v-17q0 -90 -65.5 -170t-181.5 -115l61 -71q73 23 132.5 71.5t96.5 109.5l234 -183z" />
<glyph unicode="&#xb384;" d="M815 215v572h-89v-572h89zM626 234v532h-89v-210h-197v-83h197v-239h89zM464 307v83h-305v247h253v84h-342v-414h394zM859 -86l-178 162q7 31 9 70v39h-93v-36q0 -55 -24.5 -108t-67.5 -84l-112 112q8 20 12 77v39h-94v-36q0 -73 -44.5 -136t-125.5 -89l59 -72 q101 45 155 132l139 -139q104 45 154 143l153 -137z" />
<glyph unicode="&#xb385;" d="M817 229v558h-89v-558h89zM628 270v496h-89v-208h-197v-83h197v-205h89zM466 310v84h-305v243h253v84h-342v-411h394zM781 36q0 81 -66 138.5t-155 57.5t-155.5 -57.5t-66.5 -138.5q0 -83 64.5 -140.5t157.5 -57.5q89 0 155 58t66 140zM688 36q0 -49 -38 -82t-90 -33 q-56 0 -93 33.5t-37 81.5q0 47 38 80.5t92 33.5q51 0 89.5 -32.5t38.5 -81.5z" />
<glyph unicode="&#xb38c;" horiz-adv-x="850" d="M772 -114v901h-90v-249h-233v-83h233v-79h-233v-83h233v-407h90zM533 167v84h-367v325h307v83h-396v-492h456z" />
<glyph unicode="&#xb390;" horiz-adv-x="850" d="M771 121v666h-89v-176h-229v-83h229v-62h-228v-82h228v-263h89zM533 270v83h-378v274h305v84h-393v-441h466zM783 -139v84h-393v226h-92v-310h485z" />
<glyph unicode="&#xb394;" horiz-adv-x="850" d="M777 289v498h-88v-133h-224v77h-393v-400h466v84h-378v233h303v-77h226v-52h-226v-84h226v-146h88zM769 -149v86h-383v75h359v232h-459v-82h366v-68h-361v-243h478z" />
<glyph unicode="&#xb3a0;" horiz-adv-x="850" d="M772 227v560h-88v-168h-226v-84h226v-52h-226v-83h226v-173h88zM533 291v83h-378v263h305v84h-393v-430h466zM839 -86l-178 162q7 31 9 70v49h-93v-46q0 -55 -24.5 -108t-67.5 -84l-112 112q8 20 12 77v49h-94v-46q0 -73 -44.5 -136t-125.5 -89l59 -72q101 45 155 132 l139 -139q104 45 154 143l153 -137z" />
<glyph unicode="&#xb3a1;" horiz-adv-x="850" d="M767 227v560h-88v-163h-226v-84h226v-52h-226v-83h226v-178h88zM528 301v83h-378v253h305v84h-393v-420h466zM753 36q0 81 -66 138.5t-155 57.5t-155.5 -57.5t-66.5 -138.5q0 -83 64.5 -140.5t157.5 -57.5q89 0 155 58t66 140zM660 36q0 -49 -38 -82t-90 -33 q-56 0 -93 33.5t-37 81.5q0 47 38 80.5t92 33.5q51 0 89.5 -32.5t38.5 -81.5z" />
<glyph unicode="&#xb3a8;" d="M824 -114v901h-89v-901h89zM635 -52v819h-90v-230h-210v-83h210v-80h-210v-83h210v-343h90zM444 167v84h-290v325h256v83h-345v-492h379z" />
<glyph unicode="&#xb3ac;" d="M819 140v647h-89v-647h89zM638 180v586h-89v-163h-203v-84h203v-67h-203v-83h203v-189h89zM465 260v83h-305v284h253v84h-342v-451h394zM818 -139v84h-395v224h-92v-308h487z" />
<glyph unicode="&#xb3c4;" d="M692 270v84h-402v247h402v83h-492v-414h492zM873 -1v84h-379v161h-91v-161h-376v-84h846z" />
<glyph unicode="&#xb3c5;" d="M873 242v83h-378v96h185v84h-381v161h379v84h-468v-329h193v-96h-377v-83h847zM686 -160v317h-477v-84h387v-233h90z" />
<glyph unicode="&#xb3c8;" d="M874 222v84h-377v105h183v84h-381v171h379v84h-468v-339h195v-105h-379v-84h848zM710 -138v84h-401v203h-88v-287h489z" />
<glyph unicode="&#xb3cb;" d="M873 252v83h-376v97h183v84h-381v150h379v84h-468v-318h195v-97h-379v-83h847zM700 -144v84h-395v145h385v84l-475 -1v-312h485z" />
<glyph unicode="&#xb3cc;" d="M873 292v82h-376v82h183v83h-381v138h379v83h-468v-304h195v-82h-379v-82h847zM709 -149v85h-391v67h367v227h-465v-82h371v-64h-366v-233h484z" />
<glyph unicode="&#xb3ce;" d="M873 292v82h-376v83h183v83h-381v137h379v83h-468v-303h195v-83h-379v-82h847zM750 -149v370h-280v-370h280zM462 -149v86h-215v62h192v222h-287v-81h194v-64h-192v-225h308zM658 -67h-97v205h97v-205z" />
<glyph unicode="&#xb3d0;" d="M873 292v82h-376v83h183v83h-381v137h379v83h-468v-303h195v-83h-379v-82h847zM811 -88l-150 156q12 42 12 87v65h-94v-66q0 -65 -31.5 -125.5t-91.5 -91.5h-219v61h206v223h-301v-82h208v-63h-206v-225h319v35l26 -32q34 11 70.5 44.5t64.5 81.5l124 -128z" />
<glyph unicode="&#xb3d4;" d="M873 246v83h-376v95h183v84h-381v158h379v84h-468v-326h195v-95h-379v-83h847zM695 -142v308h-474v-308h474zM604 -59h-292v142h292v-142z" />
<glyph unicode="&#xb3d5;" d="M873 279v83h-376v93h183v83h-381v139h379v83h-468v-305h195v-93h-379v-83h847zM696 -147v369h-91v-105h-291v105h-91v-369h473zM605 -64h-291v97h291v-97z" />
<glyph unicode="&#xb3d7;" d="M874 251v83h-377v91h183v84h-381v157h379v84h-468v-325h195v-91h-379v-83h848zM748 -87l-266 175q16 43 16 82v29h-97v-17q0 -84 -62 -155t-179 -107l54 -71q144 44 225 161l249 -164z" />
<glyph unicode="&#xb3d9;" d="M874 260v83h-382v88h183v84h-380v151h378v84h-467v-319h194v-88h-374v-83h848zM680 28q0 86 -65.5 139t-164.5 53q-98 0 -162 -53.5t-64 -139.5q0 -84 65.5 -136t160.5 -52q99 0 164.5 53.5t65.5 135.5zM587 29q0 -52 -39 -81.5t-98 -29.5t-97 30.5t-38 80.5 q0 51 38.5 82t96.5 31t97.5 -31t39.5 -82z" />
<glyph unicode="&#xb3db;" d="M874 308v82h-379v72h185v84h-379v131h377v83h-468v-298h193v-72h-377v-82h848zM610 180v78q-123 -6 -207 0q-70 10 -102 24l-28 -65q53 -29 121 -37q108 -6 216 0zM775 -84l-208 82q95 71 118 143h-462v-77h288q-54 -48 -146.5 -87t-204.5 -60l59 -73q145 23 269 101 l230 -98z" />
<glyph unicode="&#xb3dd;" d="M873 282v83h-376v88h183v83h-381v141h379v83h-468v-307h195v-88h-379v-83h847zM700 -149v82h-391v63h370v82h-370v57h381v84h-470v-368h480z" />
<glyph unicode="&#xb3e0;" horiz-adv-x="920" d="M910 357v83h-161v347h-90v-901h90v471h161zM629 139v82q-162 -31 -284 -31v131h156v85h-325v191h322v82h-411v-358h166v-131h-237v-84h249q66 0 113 1.5t84.5 5.5t56 6.5t55.5 9.5t55 10z" />
<glyph unicode="&#xb3e4;" horiz-adv-x="920" d="M906 429v85h-159v273h-90v-662h90v304h159zM622 242v80q-118 -23 -272 -27v102h150v84h-318v146h315v84h-405v-314h168v-102h-246v-84h238q50 0 93.5 1.5t70.5 3t63 5.5t48 6t49.5 8t45.5 7zM760 -139v84h-395v195h-90v-279h485z" />
<glyph unicode="&#xb3e8;" horiz-adv-x="920" d="M906 477v84h-159v226h-90v-519h90v209h159zM625 321v81q-110 -22 -277 -29v78h157v84h-325v113h322v83h-412v-280h168v-78h-244v-82h238q49 0 92.5 1.5t71.5 3t63 5.5t50 6t50 7t46 7zM752 -149v86h-383v74h359v227h-459v-81h366v-64h-361v-242h478z" />
<glyph unicode="&#xb3fc;" horiz-adv-x="920" d="M855 -114v901h-88v-349h-105v329h-89v-819h89v406h105v-468h88zM554 139v82q-95 -27 -212 -30v130h127v85h-285v191h282v82h-372v-358h157v-131h-216v-84h197q118 0 180 7.5t142 25.5z" />
<glyph unicode="&#xb410;" horiz-adv-x="920" d="M838 208v579h-88v-253h-104v232h-90v-539h90v224h104v-243h88zM534 261v82q-92 -22 -220 -28v99h135v85h-284v138h281v84h-371v-307h150v-99h-206v-84h208q53 0 90.5 1t71 5t46 5.5t50.5 9t49 9.5zM861 -86l-178 162q7 31 9 70v39h-93v-36q0 -55 -24.5 -108t-67.5 -84 l-112 112q8 20 12 77v39h-94v-36q0 -72 -45.5 -135.5t-124.5 -89.5l59 -72q101 45 155 132l139 -139q104 45 154 143l153 -137z" />
<glyph unicode="&#xb418;" horiz-adv-x="870" d="M787 -114v901h-90v-901h90zM664 139v82q-162 -31 -288 -31v131h162v85h-342v191h339v82h-428v-358h177v-131h-262v-84h259q55 0 101 1.5t74 3t63 5.5t47.5 6t49.5 8.5t48 8.5z" />
<glyph unicode="&#xb41c;" horiz-adv-x="870" d="M775 125v662h-89v-662h89zM654 242v80q-117 -22 -289 -27v102h151v84h-325v146h322v84h-412v-314h175v-102h-253v-84h244q67 0 117.5 1.5t94.5 5.5t61 6t62 9.5t52 8.5zM786 -139v84h-393v203h-92v-287h485z" />
<glyph unicode="&#xb420;" horiz-adv-x="870" d="M781 282v505h-89v-505h89zM659 324v81q-116 -23 -289 -28v77h151v84h-325v110h322v83h-412v-277h175v-77h-253v-83h244q67 0 118 1.5t93 5.5t62.5 6t60.5 8.5t53 8.5zM776 -149v86h-383v74h359v230h-459v-82h366v-66h-361v-242h478z" />
<glyph unicode="&#xb428;" horiz-adv-x="870" d="M781 223v563h-89v-563h89zM660 282v80q-123 -24 -289 -28v87h151v85h-325v131h322v84h-412v-300h175v-87h-253v-83h244q67 0 118.5 1.5t92.5 5.5t63 7t59.5 9t53.5 8zM762 -142v320h-465v-320h465zM670 -59h-281v154h281v-154z" />
<glyph unicode="&#xb429;" horiz-adv-x="870" d="M781 262v525h-89v-525h89zM659 308v80q-120 -24 -289 -28v88h151v84h-325v116h322v83h-412v-283h175v-88h-253v-83h244q49 0 94.5 1.5t73.5 3t67.5 6t52 6t53 7.5t46.5 7zM762 -147v367h-92v-108h-280v108h-92v-367h464zM670 -64h-280v92h280v-92z" />
<glyph unicode="&#xb42b;" horiz-adv-x="870" d="M781 179v608h-89v-608h89zM659 280v80q-123 -24 -289 -28v92h151v85h-325v128h322v84h-412v-297h175v-92h-253v-83h244q67 0 118.5 1.5t92.5 5.5t63 7t59.5 9t53.5 8zM803 -86l-259 174q19 47 19 91v25h-95v-7q0 -89 -65 -165t-182 -112l61 -69q140 45 219 160l244 -164z " />
<glyph unicode="&#xb434;" d="M694 270v84h-401v247h401v83h-492v-414h492zM873 -1v84h-242v157h-92v-157h-177v157h-90v-157h-245v-84h846z" />
<glyph unicode="&#xb450;" d="M684 376v83h-392v190h384v83h-475v-356h483zM873 195v84h-847v-84h377v-327h93v327h377z" />
<glyph unicode="&#xb451;" d="M675 431v84h-381v151h379v84h-468v-319h470zM869 263v82h-848v-82h382v-100h-198v-84h388v-239h89v323h-189v100h376z" />
<glyph unicode="&#xb454;" d="M677 421v84h-381v161h379v84h-468v-329h470zM869 250v82h-848v-82h400v-191h90v191h358zM703 -138v84h-401v213h-88v-297h489z" />
<glyph unicode="&#xb458;" d="M677 462v84h-381v131h379v83h-468v-298h470zM868 314v83h-847v-83h385v-78h-188v-81h371v-68h-366v-236h484v85h-390v69h366v231h-185v78h370z" />
<glyph unicode="&#xb460;" d="M675 434v84h-381v148h379v84h-468v-316h470zM868 271v82h-847v-82h385v-99h-190v-314h474v314h-192v99h370zM599 -59h-292v148h292v-148z" />
<glyph unicode="&#xb461;" d="M676 459v83h-381v135h379v83h-468v-301h470zM868 303v82h-847v-82h385v-145h90v145h372zM692 -147v381h-91v-122h-291v122h-91v-381h473zM601 -64h-291v92h291v-92z" />
<glyph unicode="&#xb463;" d="M675 430v84h-381v152h379v84h-468v-320h470zM868 268v82h-847v-82h385v-78q0 -84 -66.5 -158t-183.5 -110l61 -71q139 44 224 162l249 -165l60 67l-268 177q14 42 14 86v90h372z" />
<glyph unicode="&#xb465;" d="M679 432v84h-381v150h379v84h-468v-318h470zM873 286v82h-847v-82h380v-69q-80 -12 -130 -63t-50 -127q0 -84 65.5 -136t160.5 -52q99 0 164.5 53.5t65.5 135.5q0 75 -51 126t-133 63v69h375zM589 29q0 -52 -39 -81.5t-98 -29.5t-97 30.5t-38 80.5q0 51 38.5 82t96.5 31 t97.5 -31t39.5 -82z" />
<glyph unicode="&#xb46c;" horiz-adv-x="870" d="M785 -114v901h-89v-615h-220v-84h220v-202h89zM515 394v83h-316v150h313v84h-402v-317h405zM637 255v85q-157 -33 -391 -33h-221v-84h246v-324h90v327q130 5 276 29z" />
<glyph unicode="&#xb480;" horiz-adv-x="870" d="M774 176v611h-88v-492h-206v-81h206v-38h88zM502 466v81h-315v103h312v81h-401v-265h404zM627 353v83q-160 -32 -391 -32h-221v-81h233v-147h89v149q133 4 290 28zM834 -87l-178 162q7 31 9 70v9h-93v-6q0 -55 -24.5 -108t-67.5 -84l-112 112q8 20 12 77v9h-94v-6 q0 -73 -44.5 -136t-125.5 -89l59 -72q101 45 155 132l139 -139q104 45 154 143l153 -137z" />
<glyph unicode="&#xb488;" horiz-adv-x="920" d="M838 -114v901h-88v-901h88zM661 -74v841h-90v-599h-169v-84h169v-158h90zM466 394v83h-274v150h271v84h-361v-317h364zM542 265v85q-87 -18 -153.5 -25.5t-184.5 -7.5h-173v-84h212v-334h89v337q48 3 82.5 7.5t69.5 11.5t58 10z" />
<glyph unicode="&#xb49d;" horiz-adv-x="920" d="M840 187v600h-89v-600h89zM668 231v535h-90v-433h-177v-82h177v-20h90zM454 472v82h-275v95h272v82h-361v-259h364zM546 376v81q-78 -16 -148 -22.5t-194 -6.5h-174v-78h187v-157h88v159q94 2 241 24zM790 15q0 80 -67 130t-161 50t-160.5 -50t-66.5 -130 q0 -81 66 -131.5t161 -50.5q94 0 161 51t67 131zM697 15q0 -48 -39 -74.5t-96 -26.5q-58 0 -96 28t-38 74q0 47 38.5 73t95.5 26q59 0 97 -25.5t38 -74.5z" />
<glyph unicode="&#xb4a4;" horiz-adv-x="870" d="M790 -114v901h-89v-901h89zM542 380v84h-326v163h323v84h-413v-331h416zM667 238v86q-158 -32 -411 -32h-221v-84h186q56 0 81 1v-310h89v312q134 6 276 27z" />
<glyph unicode="&#xb4a8;" horiz-adv-x="870" d="M777 134v653h-88v-653h88zM527 431v84h-316v123h313v83h-402v-290h405zM660 312v84q-155 -34 -401 -34h-231v-80h244v-116h88v118q127 3 300 28zM781 -139v84h-395v200h-90v-284h485z" />
<glyph unicode="&#xb4ac;" horiz-adv-x="870" d="M779 255v532h-87v-532h87zM529 479v83h-315v87h312v82h-402v-252h405zM652 373v83q-157 -33 -401 -33h-221v-80h234v-96h88v98q139 4 300 28zM776 -149v86h-384v67h359v222h-458v-82h365v-59h-360v-234h478z" />
<glyph unicode="&#xb4b5;" horiz-adv-x="870" d="M779 245v542h-87v-542h87zM529 475v83h-315v91h312v82h-402v-256h405zM652 368v83q-157 -33 -401 -33h-221v-81h234v-95h88v97q131 3 300 29zM757 -147v358h-91v-97h-280v97h-92v-358h463zM666 -64h-280v94h280v-94z" />
<glyph unicode="&#xb4b7;" horiz-adv-x="870" d="M777 134v653h-88v-653h88zM527 428v84h-316v126h313v83h-402v-293h405zM660 307v83q-157 -33 -401 -33h-231v-80h244v-129h88v131q127 3 300 28zM802 -86l-259 174q19 47 19 91v25h-95v-7q0 -89 -65 -165t-182 -112l61 -69q140 45 219 160l244 -164z" />
<glyph unicode="&#xb4b9;" horiz-adv-x="870" d="M779 190v597h-87v-597h87zM529 439v84h-315v115h312v83h-402v-282h405zM652 322v83q-157 -33 -401 -33h-221v-79h234v-110h88v112q130 3 300 27zM752 27q0 80 -66 133.5t-159 53.5t-158.5 -53t-65.5 -134q0 -82 65 -135.5t159 -53.5q93 0 159 54t66 135zM659 27 q0 -49 -38 -77.5t-94 -28.5q-57 0 -94 30t-37 77t37.5 75.5t93.5 28.5q58 0 95 -28t37 -77z" />
<glyph unicode="&#xb4c0;" d="M684 383v83h-394v183h386v83h-475v-349h483zM873 195v84h-847v-84h240v-327h90v327h181v-327h91v327h245z" />
<glyph unicode="&#xb4c4;" d="M682 421v84h-381v161h379v84h-468v-329h470zM874 250v82h-848v-82h312v-193h91v193h112v-193h90v193h243zM708 -138v84h-401v213h-88v-297h489z" />
<glyph unicode="&#xb4c8;" d="M682 462v84h-381v131h379v83h-468v-298h470zM873 314v83h-847v-83h258v-82h-61v-82h368v-66h-367v-233h485v85h-392v67h368v229h-52v82h240zM543 232h-168v82h168v-82z" />
<glyph unicode="&#xb4d0;" d="M681 434v84h-381v148h379v84h-468v-316h470zM873 274v82h-847v-82h259v-97h-64v-319h474v319h-62v97h240zM543 177h-167v97h167v-97zM604 -59h-292v153h292v-153z" />
<glyph unicode="&#xb4d5;" d="M678 441v84h-380v141h378v84h-467v-309h469zM873 294v81h-847v-81h235v-158q-35 -48 -35 -109q0 -84 65.5 -136t160.5 -52q99 0 164.5 53.5t65.5 135.5q0 72 -48 122v144h239zM544 206q-44 14 -92 14q-55 0 -100 -18v92h192v-88zM589 29q0 -52 -39 -81.5t-98 -29.5 t-97 30.5t-38 80.5q0 51 38.5 82t96.5 31t97.5 -31t39.5 -82z" />
<glyph unicode="&#xb4dc;" d="M694 260v84h-403v257h403v83h-492v-424h492zM878 9v85h-856v-85h856z" />
<glyph unicode="&#xb4dd;" d="M680 425v84h-381v157h378v84h-467v-325h470zM878 256v82h-857v-82h857zM687 -160v328h-477v-84h388v-244h89z" />
<glyph unicode="&#xb4e0;" d="M682 415v84h-381v167h379v84h-468v-335h470zM878 240v82h-857v-82h857zM708 -138v84h-401v203h-89v-287h490z" />
<glyph unicode="&#xb4e3;" d="M679 432v84h-380v150h378v84h-467v-318h469zM873 252v83h-847v-83h847zM700 -144v84h-395v145h385v84l-475 -1v-312h485z" />
<glyph unicode="&#xb4e4;" d="M679 452v83h-380v142h378v83h-467v-308h469zM873 298v83h-847v-83h847zM709 -149v85h-391v67h367v227h-466v-82h372v-64h-366v-233h484z" />
<glyph unicode="&#xb4e6;" d="M679 452v83h-380v142h378v83h-467v-308h469zM873 297v83h-847v-83h847zM750 -149v370h-280v-370h280zM462 -149v86h-215v62h192v223h-287v-80h194v-64h-192v-227h308zM658 -67h-97v205h97v-205z" />
<glyph unicode="&#xb4ec;" d="M679 430v84h-380v152h378v84h-467v-320h469zM873 263v82h-847v-82h847zM695 -142v319h-475v-319h475zM604 -59h-292v153h292v-153z" />
<glyph unicode="&#xb4ed;" d="M680 446v83h-380v148h378v83h-467v-314h469zM873 292v81h-847v-81h847zM697 -147v377h-91v-110h-291v110h-91v-377h473zM606 -64h-291v101h291v-101z" />
<glyph unicode="&#xb4ef;" d="M676 424v84h-380v158h378v84h-467v-326h469zM873 262v82h-847v-82h847zM750 -84l-262 183q16 45 16 83v30h-97v-18q0 -85 -63.5 -160.5t-179.5 -110.5l55 -72q142 43 227 169l248 -172z" />
<glyph unicode="&#xb4f1;" d="M679 428v84h-380v154h378v84h-467v-322h469zM873 277v82h-847v-82h847zM688 28q0 86 -65.5 139t-164.5 53q-98 0 -162 -53.5t-64 -139.5q0 -84 65.5 -136t160.5 -52q99 0 164.5 53.5t65.5 135.5zM595 29q0 -52 -39 -81.5t-98 -29.5t-97 30.5t-38 80.5q0 51 38.5 82 t96.5 31t97.5 -31t39.5 -82z" />
<glyph unicode="&#xb4f8;" horiz-adv-x="870" d="M784 -114v901h-90v-901h90zM548 321v85h-341v191h338v82h-427v-358h430zM656 144v83q-19 -4 -54.5 -9.5t-145 -14.5t-219.5 -8h-204v-84h208q106 0 188 5.5t119 10.5t108 17z" />
<glyph unicode="&#xb514;" horiz-adv-x="850" d="M749 -114v901h-89v-901h89zM545 167v84h-377v325h317v83h-406v-492h466z" />
<glyph unicode="&#xb515;" horiz-adv-x="850" d="M747 227v560h-90v-560h90zM539 318v84h-388v235h315v84h-403v-403h476zM725 -160v342h-478v-84h388v-258h90z" />
<glyph unicode="&#xb518;" horiz-adv-x="850" d="M747 140v647h-90v-647h90zM539 289v83h-388v255h315v84h-403v-422h476zM755 -139v84h-394v226h-91v-310h485z" />
<glyph unicode="&#xb51b;" horiz-adv-x="850" d="M737 222v565h-90v-565h90zM529 318v84h-388v235h315v84h-403v-403h476zM736 -144v84h-395v158h385v83h-475v-325h485z" />
<glyph unicode="&#xb51c;" horiz-adv-x="850" d="M747 295v492h-90v-492h90zM539 349v83h-388v216h315v83h-403v-382h476zM740 -149v86h-384v79h360v235h-459v-82h366v-71h-361v-247h478z" />
<glyph unicode="&#xb524;" horiz-adv-x="850" d="M737 232v555h-90v-555h90zM529 318v84h-388v235h315v84h-403v-403h476zM719 -142v331h-465v-331h465zM627 -59h-282v164h282v-164z" />
<glyph unicode="&#xb525;" horiz-adv-x="850" d="M737 268v519h-90v-519h90zM529 349v83h-388v216h315v83h-403v-382h476zM717 -147v375h-92v-109h-281v109h-91v-375h464zM625 -64h-281v100h281v-100z" />
<glyph unicode="&#xb527;" horiz-adv-x="850" d="M742 171v616h-90v-616h90zM534 316v84h-388v227h315v84h-403v-395h476zM772 -90l-256 203q13 42 13 76v35h-95v-17q0 -90 -65.5 -170t-181.5 -115l61 -71q73 23 132.5 71.5t96.5 109.5l234 -183z" />
<glyph unicode="&#xb528;" horiz-adv-x="850" d="M742 232v555h-90v-555h90zM534 314v84h-388v239h315v84h-403v-407h476zM805 -86l-178 162q7 31 9 70v46h-93v-43q0 -55 -24.5 -108t-67.5 -84l-112 112q8 20 12 77v46h-94v-43q0 -73 -44.5 -136t-125.5 -89l59 -72q101 45 155 132l139 -139q104 45 154 143l153 -137z" />
<glyph unicode="&#xb529;" horiz-adv-x="850" d="M742 232v555h-90v-555h90zM534 319v84h-388v234h315v84h-403v-402h476zM712 36q0 81 -66 138.5t-155 57.5t-155.5 -57.5t-66.5 -138.5q0 -83 64.5 -140.5t157.5 -57.5q89 0 155 58t66 140zM619 36q0 -49 -38 -82t-90 -33q-56 0 -93 33.5t-37 81.5q0 47 38 80.5t92 33.5 q51 0 89.5 -32.5t38.5 -81.5z" />
<glyph unicode="&#xb52a;" horiz-adv-x="850" d="M742 257v530h-90v-530h90zM534 332v84h-388v221h315v84h-403v-389h476zM791 -84l-211 120q95 87 121 178h-460v-83h303q-60 -70 -159 -127t-210 -81l56 -73q139 32 273 126l232 -131z" />
<glyph unicode="&#xb530;" horiz-adv-x="920" d="M914 386v83h-165v318h-90v-901h90v500h165zM609 167v84h-218v325h178v83h-267v-408h-167v325h150v83h-240v-492h564z" />
<glyph unicode="&#xb531;" horiz-adv-x="920" d="M911 488v84h-154v215h-90v-555h90v256h154zM607 309v85h-217v243h178v84h-267v-327h-167v243h150v84h-240v-412h563zM746 -160v347h-478v-84h388v-263h90z" />
<glyph unicode="&#xb534;" horiz-adv-x="920" d="M909 469v85h-152v233h-89v-647h89v329h152zM608 288v84h-217v255h178v84h-267v-339h-167v255h150v84h-240v-423h563zM770 -139v84h-395v236h-90v-320h485z" />
<glyph unicode="&#xb538;" horiz-adv-x="920" d="M911 505v84h-154v198h-90v-496h90v214h154zM606 350v84h-217v214h178v83h-267v-297h-167v214h150v83h-240v-381h563zM764 -149v86h-383v77h359v235h-459v-82h366v-71h-361v-245h478z" />
<glyph unicode="&#xb540;" horiz-adv-x="920" d="M911 488v84h-154v215h-90v-555h90v256h154zM607 309v85h-217v243h178v84h-267v-327h-167v243h150v84h-240v-412h563zM745 -142v331h-465v-331h465zM653 -59h-282v164h282v-164z" />
<glyph unicode="&#xb541;" horiz-adv-x="920" d="M911 509v84h-154v194h-90v-515h90v237h154zM607 337v85h-217v226h178v83h-267v-309h-167v226h150v83h-240v-394h563zM747 -147v379h-92v-112h-281v112h-91v-379h464zM655 -64h-281v101h281v-101z" />
<glyph unicode="&#xb543;" horiz-adv-x="920" d="M911 478v84h-154v225h-90v-616h90v307h154zM607 304v84h-217v239h178v84h-267v-323h-167v239h150v84h-240v-407h563zM789 -90l-255 203q12 39 12 76v45h-95v-27q0 -90 -65.5 -170t-181.5 -115l61 -71q73 24 132.5 72t97.5 109l233 -183z" />
<glyph unicode="&#xb544;" horiz-adv-x="920" d="M911 488v84h-154v215h-90v-558h90v259h154zM607 306v84h-217v247h178v84h-267v-331h-167v247h150v84h-240v-415h563zM834 -86l-178 162q7 31 9 70v49h-93v-46q0 -55 -24.5 -108t-67.5 -84l-112 112q8 20 12 77v49h-94v-46q0 -73 -44.5 -136t-125.5 -89l59 -72 q101 45 155 132l139 -139q104 45 154 143l153 -137z" />
<glyph unicode="&#xb545;" horiz-adv-x="920" d="M910 477v84h-153v226h-90v-555h90v245h153zM607 309v85h-217v243h178v84h-267v-327h-167v243h150v84h-240v-412h563zM750 36q0 81 -67 138.5t-157 57.5t-157.5 -57.5t-67.5 -138.5q0 -83 65.5 -140.5t159.5 -57.5q90 0 157 58t67 140zM657 36q0 -49 -39.5 -82t-91.5 -33 q-56 0 -94.5 33.5t-38.5 81.5q0 47 39.5 80.5t93.5 33.5q52 0 91.5 -32.5t39.5 -81.5z" />
<glyph unicode="&#xb54b;" horiz-adv-x="920" d="M911 519v85h-154v183h-90v-503h90v235h154zM607 371v84h-217v193h178v83h-267v-276h-167v193h150v83h-240v-360h563zM657 212v82q-107 -7 -204 0q-66 8 -102 25l-28 -68q48 -28 122 -39q128 -8 212 0zM785 83v79h-573v-79h142q-18 -13 -32 -38t-14 -50q0 -69 57 -114 t136 -45q82 0 138 42.5t56 119.5q0 50 -46 85h136zM596 -6q0 -36 -28 -56.5t-68 -20.5q-39 0 -67 20.5t-28 56.5q0 35 27.5 55t66.5 20q40 0 68.5 -20t28.5 -55z" />
<glyph unicode="&#xb54c;" horiz-adv-x="930" d="M852 -114v901h-90v-327h-100v307h-90v-819h90v428h100v-490h90zM552 167v84h-181v325h141v83h-230v-408h-144v325h122v83h-212v-492h504z" />
<glyph unicode="&#xb54d;" horiz-adv-x="930" d="M859 222v565h-88v-218h-104v197h-90v-524h90v244h104v-264h88zM536 309v85h-181v243h142v84h-232v-327h-136v243h120v84h-209v-412h496zM798 -160v337h-477v-84h387v-253h90z" />
<glyph unicode="&#xb550;" horiz-adv-x="920" d="M859 140v647h-88v-238h-104v217h-90v-586h90v286h104v-326h88zM537 288v84h-181v255h142v84h-232v-339h-136v255h120v84h-209v-423h496zM832 -139v84h-394v216h-90v-300h484z" />
<glyph unicode="&#xb554;" horiz-adv-x="920" d="M859 275v512h-88v-202h-104v181h-90v-471h90v207h104v-227h88zM536 339v85h-181v224h142v83h-232v-307h-136v224h120v83h-209v-392h496zM817 -149v86h-383v76h358v233h-458v-82h366v-69h-360v-244h477z" />
<glyph unicode="&#xb55c;" horiz-adv-x="920" d="M855 219v568h-88v-218h-104v197h-90v-528h90v248h104v-267h88zM540 309v85h-181v243h142v84h-232v-327h-136v243h120v84h-209v-412h496zM811 -142v327h-464v-327h464zM719 -59h-281v161h281v-161z" />
<glyph unicode="&#xb55d;" horiz-adv-x="920" d="M855 253v534h-88v-214h-104v193h-90v-493h90v217h104v-237h88zM540 329v85h-181v234h142v83h-232v-317h-136v234h120v83h-209v-402h496zM807 -147v373h-91v-114h-291v114h-91v-373h473zM716 -64h-291v92h291v-92z" />
<glyph unicode="&#xb55f;" horiz-adv-x="920" d="M854 202v585h-88v-238h-104v217h-90v-519h90v219h104v-264h88zM531 299v84h-171v244h142v84h-232v-328h-136v244h120v84h-209v-412h486zM849 -90l-261 190q18 49 18 89v25h-95v-7q0 -90 -65.5 -170t-181.5 -115l61 -71q138 44 221 171l242 -173z" />
<glyph unicode="&#xb560;" horiz-adv-x="920" d="M852 216v571h-88v-224h-104v203h-90v-521h90v235h104v-264h88zM529 303v84h-181v250h142v84h-232v-334h-136v250h120v84h-209v-418h496zM866 -86l-178 162q7 31 9 70v52h-93v-49q0 -55 -24.5 -108t-67.5 -84l-112 112q8 20 12 77v52h-94v-49q0 -73 -44.5 -136t-125.5 -89 l59 -72q101 45 155 132l139 -139q104 45 154 143l153 -137z" />
<glyph unicode="&#xb561;" horiz-adv-x="920" d="M864 222v565h-88v-220h-104v199h-90v-504h90v222h104v-262h88zM531 307v84h-181v246h142v84h-232v-330h-136v246h120v84h-209v-414h496zM813 36q0 81 -67 138.5t-157 57.5t-157.5 -57.5t-67.5 -138.5q0 -83 65.5 -140.5t159.5 -57.5q90 0 157 58t67 140zM720 36 q0 -49 -39.5 -82t-91.5 -33q-56 0 -94.5 33.5t-38.5 81.5q0 47 39.5 80.5t93.5 33.5q52 0 91.5 -32.5t39.5 -81.5z" />
<glyph unicode="&#xb5a0;" horiz-adv-x="880" d="M805 -114v901h-89v-319h-191v-84h191v-498h89zM626 167v84h-222v325h193v83h-282v-408h-171v325h149v83h-239v-492h572z" />
<glyph unicode="&#xb5a1;" horiz-adv-x="880" d="M807 228v559h-90v-229h-181v-83h181v-247h90zM615 304v84h-217v249h178v84h-267v-333h-167v249h150v84h-240v-417h563zM784 -160v343h-476v-84h387v-259h89z" />
<glyph unicode="&#xb5a4;" horiz-adv-x="880" d="M802 135v652h-90v-249h-191v-83h191v-320h90zM610 279v84h-217v264h178v84h-267v-348h-167v264h150v84h-240v-432h563zM813 -139v84h-395v227h-90v-311h485z" />
<glyph unicode="&#xb5a8;" horiz-adv-x="880" d="M807 288v499h-90v-209h-191v-82h191v-208h90zM615 339v85h-217v224h178v83h-267v-307h-167v224h150v83h-240v-392h563zM800 -149v86h-384v79h359v235h-458v-82h365v-71h-360v-247h478z" />
<glyph unicode="&#xb5aa;" horiz-adv-x="880" d="M807 284v503h-90v-209h-191v-82h191v-212h90zM615 339v85h-217v224h178v83h-267v-307h-167v224h150v83h-240v-392h563zM799 -149v395h-276v-395h276zM511 -149v86h-215v74h189v234h-284v-81h194v-72h-191v-241h307zM707 -67h-94v230h94v-230z" />
<glyph unicode="&#xb5ab;" horiz-adv-x="880" d="M807 284v503h-90v-209h-191v-82h191v-212h90zM615 339v85h-217v224h178v83h-267v-307h-167v224h150v83h-240v-392h563zM800 -148v399h-89v-127h-112v127h-89v-399h290zM494 -149v86h-216v78h192v236h-286v-82h193v-72h-191v-246h308zM711 -65h-112v106h112v-106z" />
<glyph unicode="&#xb5b0;" horiz-adv-x="880" d="M807 232v555h-90v-229h-181v-83h181v-243h90zM615 304v84h-217v249h178v84h-267v-333h-167v249h150v84h-240v-417h563zM788 -142v331h-464v-331h464zM697 -59h-282v164h282v-164z" />
<glyph unicode="&#xb5b1;" horiz-adv-x="880" d="M807 274v513h-90v-209h-181v-83h181v-221h90zM615 333v85h-217v230h178v83h-267v-313h-167v230h150v83h-240v-398h563zM786 -147v381h-91v-112h-281v112h-91v-381h463zM695 -64h-281v103h281v-103z" />
<glyph unicode="&#xb5b3;" horiz-adv-x="880" d="M800 171v616h-90v-237h-181v-83h181v-296h90zM608 304v84h-217v239h178v84h-267v-323h-167v239h150v84h-240v-407h563zM825 -90l-256 203q13 42 13 76v35h-95v-17q0 -90 -65.5 -170t-181.5 -115l61 -71q73 23 132.5 71.5t96.5 109.5l234 -183z" />
<glyph unicode="&#xb5b4;" horiz-adv-x="880" d="M801 229v558h-90v-234h-181v-83h181v-241h90zM609 305v84h-217v248h178v84h-267v-332h-167v248h150v84h-240v-416h563zM851 -86l-178 162q7 31 9 70v49h-93v-46q0 -55 -24.5 -108t-67.5 -84l-112 112q8 20 12 77v49h-94v-46q0 -73 -44.5 -136t-125.5 -89l59 -72 q101 45 155 132l139 -139q104 45 154 143l153 -137z" />
<glyph unicode="&#xb5b5;" horiz-adv-x="880" d="M807 222v565h-90v-230h-181v-83h181v-252h90zM615 309v85h-217v243h178v84h-267v-327h-167v243h150v84h-240v-412h563zM781 36q0 81 -66 138.5t-155 57.5t-155.5 -57.5t-66.5 -138.5q0 -83 64.5 -140.5t157.5 -57.5q89 0 155 58t66 140zM688 36q0 -49 -38 -82t-90 -33 q-56 0 -93 33.5t-37 81.5q0 47 38 80.5t92 33.5q51 0 89.5 -32.5t38.5 -81.5z" />
<glyph unicode="&#xb5bb;" horiz-adv-x="880" d="M802 284v503h-90v-194h-181v-83h181v-226h90zM610 371v84h-217v193h178v83h-267v-276h-167v193h150v83h-240v-360h563zM674 212v82q-97 -8 -204 0q-64 9 -102 25l-27 -69q39 -28 121 -38q124 -6 212 0zM805 83v79h-573v-79h142q-18 -13 -32 -38t-14 -50q0 -69 57 -114 t136 -45q82 0 138 42.5t56 119.5q0 50 -46 85h136zM616 -6q0 -36 -28 -56.5t-68 -20.5q-39 0 -67 20.5t-28 56.5q0 35 27.5 55t66.5 20q40 0 68.5 -20t28.5 -55z" />
<glyph unicode="&#xb5bc;" horiz-adv-x="920" d="M854 -114v901h-90v-901h90zM674 -52v819h-89v-306h-154v-84h154v-429h89zM543 167v84h-178v325h138v83h-228v-408h-140v325h129v83h-219v-492h498z" />
<glyph unicode="&#xb5bd;" horiz-adv-x="920" d="M849 223v564h-88v-564h88zM680 243v523h-90v-212h-146v-83h146v-228h90zM544 301v83h-181v254h142v83h-232v-337h-134v254h118v83h-207v-420h494zM808 -160v338h-477v-84h387v-254h90z" />
<glyph unicode="&#xb5c0;" horiz-adv-x="920" d="M849 135v652h-88v-652h88zM680 166v600h-90v-228h-146v-82h146v-290h90zM544 279v84h-181v265h142v83h-232v-348h-134v265h118v83h-207v-432h494zM841 -139v84h-394v222h-90v-306h484z" />
<glyph unicode="&#xb5c4;" horiz-adv-x="920" d="M849 276v511h-88v-511h88zM680 294v472h-90v-193h-146v-83h146v-196h90zM544 325v84h-181v240h142v82h-232v-322h-134v240h118v82h-207v-406h494zM827 -149v86h-383v74h358v231h-458v-82h366v-67h-360v-242h477z" />
<glyph unicode="&#xb5cc;" horiz-adv-x="920" d="M849 228v559h-88v-559h88zM680 248v518h-90v-207h-146v-83h146v-228h90zM544 305v83h-181v250h142v83h-232v-333h-134v250h118v83h-207v-416h494zM817 -142v331h-464v-331h464zM725 -59h-281v164h281v-164z" />
<glyph unicode="&#xb5cd;" horiz-adv-x="920" d="M849 263v524h-88v-524h88zM680 273v493h-90v-197h-146v-83h146v-213h90zM544 325v84h-181v240h142v82h-232v-322h-134v240h118v82h-207v-406h494zM800 -147v376h-91v-111h-281v111h-91v-376h463zM709 -64h-281v98h281v-98z" />
<glyph unicode="&#xb5cf;" horiz-adv-x="920" d="M843 202v585h-88v-585h88zM674 240v526h-90v-220h-146v-83h146v-223h90zM538 292v83h-181v253h142v83h-232v-336h-134v253h118v83h-207v-419h494zM848 -90l-256 203q13 42 13 76v25h-95v-7q0 -90 -65.5 -170t-181.5 -115l61 -71q73 23 132.5 71.5t96.5 109.5l234 -183z " />
<glyph unicode="&#xb5d0;" horiz-adv-x="920" d="M846 210v577h-88v-577h88zM677 234v532h-90v-215h-146v-83h146v-234h90zM541 297v83h-181v258h142v83h-232v-341h-134v258h118v83h-207v-424h494zM872 -86l-178 162q7 31 9 70v39h-93v-36q0 -55 -24.5 -108t-67.5 -84l-112 112q8 20 12 77v39h-94v-36q0 -73 -44.5 -136 t-125.5 -89l59 -72q101 45 155 132l139 -139q104 45 154 143l153 -137z" />
<glyph unicode="&#xb5d1;" horiz-adv-x="920" d="M849 238v549h-88v-549h88zM680 263v503h-90v-213h-146v-83h146v-207h90zM544 303v83h-181v252h142v83h-232v-335h-134v252h118v83h-207v-418h494zM809 36q0 81 -67 138.5t-157 57.5t-157.5 -57.5t-67.5 -138.5q0 -83 65.5 -140.5t159.5 -57.5q90 0 157 58t67 140zM716 36 q0 -49 -39.5 -82t-91.5 -33q-56 0 -94.5 33.5t-38.5 81.5q0 47 39.5 80.5t93.5 33.5q52 0 91.5 -32.5t39.5 -81.5z" />
<glyph unicode="&#xb5d8;" horiz-adv-x="880" d="M805 -114v901h-89v-249h-181v-83h181v-76h-181v-83h181v-410h89zM621 167v84h-217v325h188v83h-277v-408h-171v325h149v83h-239v-492h567z" />
<glyph unicode="&#xb5ec;" horiz-adv-x="880" d="M800 207v580h-88v-177h-179v-79h179v-59h-179v-79h179v-186h88zM607 282v84h-217v272h188v83h-277v-355h-167v272h149v83h-239v-439h563zM845 -86l-178 162q7 31 9 70v46h-93v-43q0 -55 -24.5 -108t-67.5 -84l-112 112q8 20 12 77v46h-94v-43q0 -73 -44.5 -136 t-125.5 -89l59 -72q101 45 155 132l139 -139q104 45 154 143l153 -137z" />
<glyph unicode="&#xb610;" d="M732 602v82h-317v-340h-180v258h161v82h-251v-424h586v84h-227v258h228zM873 -1v84h-378v161h-90v-161h-379v-84h847z" />
<glyph unicode="&#xb611;" d="M873 238v84h-376v94h220v85h-209v165h209v84h-298v-249h-165v165h149v84h-239v-334h243v-94h-381v-84h847zM684 -160v314h-477v-84h387v-230h90z" />
<glyph unicode="&#xb614;" d="M873 218v84h-376v104h220v84h-209v176h209v84h-298v-260h-165v176h149v84h-239v-344h243v-104h-381v-84h847zM710 -138v84h-401v202h-88v-286h489z" />
<glyph unicode="&#xb618;" d="M873 291v82h-376v84h220v84h-209v136h209v83h-298v-219h-165v136h149v83h-239v-303h243v-84h-381v-82h847zM709 -149v85h-391v67h367v227h-465v-82h371v-64h-366v-233h484z" />
<glyph unicode="&#xb625;" d="M873 260v83h-376v83h220v85h-209v155h209v84h-298v-239h-165v155h149v84h-239v-324h243v-83h-381v-83h847zM688 26q0 86 -65.5 138t-164.5 52q-98 0 -162 -52.5t-64 -138.5q0 -84 65.5 -135t160.5 -51q100 0 165 52.5t65 134.5zM595 27q0 -52 -38.5 -80.5t-98.5 -28.5 q-59 0 -97 30t-38 79q0 51 38 81t97 30t98 -30.5t39 -80.5z" />
<glyph unicode="&#xb62c;" horiz-adv-x="940" d="M929 357v83h-166v347h-90v-901h90v471h166zM653 139v83q-167 -32 -286 -32v124h201v85h-179v198h176v82h-265v-280h-150v198h137v82h-227v-365h216v-124h-266v-84h276q66 0 113.5 1.5t85.5 5.5t56.5 6.5t56.5 9.5t55 10z" />
<glyph unicode="&#xb634;" horiz-adv-x="940" d="M927 477v84h-159v226h-90v-517h90v207h159zM654 320v81q-106 -21 -290 -29v77h212v84h-179v116h176v82h-266v-198h-149v116h137v82h-227v-282h206v-77h-257v-83h259q82 0 146.5 3.5t90 6t77 11t64.5 10.5zM773 -149v86h-394v72h370v224h-470v-80h377v-64h-372v-238h489z " />
<glyph unicode="&#xb648;" horiz-adv-x="940" d="M867 -114v901h-90v-349h-96v329h-89v-819h89v406h96v-468h90zM573 139v84q-102 -29 -222 -31v122h180v85h-164v198h159v82h-249v-280h-124v198h108v82h-198v-365h196v-124h-227v-84h204q126 0 191 7.5t146 25.5z" />
<glyph unicode="&#xb664;" horiz-adv-x="890" d="M810 -114v901h-89v-901h89zM693 139v83q-167 -32 -296 -32v124h211v85h-189v198h186v82h-275v-280h-161v198h143v82h-232v-365h226v-124h-276v-84h286q55 0 100.5 1.5t73.5 3t60.5 5.5t47 6.5t47.5 8t48 8.5z" />
<glyph unicode="&#xb668;" horiz-adv-x="890" d="M810 125v662h-90v-662h90zM694 241v81q-116 -22 -298 -27v96h213v84h-180v152h177v84h-266v-236h-150v152h132v84h-221v-320h206v-96h-268v-84h270q31 0 59.5 0.5t51 1t47 2t39.5 2.5t38 3.5t32.5 3.5t31.5 4t28 4t30 4.5t28 4.5zM820 -139v84h-393v207h-90v-291h483z " />
<glyph unicode="&#xb69c;" d="M713 376v84h-212v188h212v83h-300v-271h-175v188h153v83h-243v-355h565zM868 192v84h-847v-84h378v-324h91v324h378z" />
<glyph unicode="&#xb69d;" d="M715 432v85h-204v149h204v84h-293v-233h-171v149h149v84h-238v-318h553zM869 267v82h-848v-82h382v-99h-198v-84h388v-244h89v328h-189v99h376z" />
<glyph unicode="&#xb6a0;" d="M716 418v85h-204v163h204v84h-293v-247h-171v163h149v84h-238v-332h553zM869 247v82h-848v-82h395v-190h90v190h363zM703 -138v84h-401v209h-88v-293h489z" />
<glyph unicode="&#xb6a4;" d="M718 461v83h-209v133h209v83h-298v-216h-166v133h144v83h-233v-299h553zM868 312v83h-847v-83h385v-76h-188v-81h371v-68h-366v-236h484v85h-390v69h366v231h-187v76h372z" />
<glyph unicode="&#xb6ab;" d="M718 465v84h-209v128h209v83h-298v-211h-166v128h144v83h-233v-295h553zM818 56v77h-383v-77h80q-50 -34 -50 -88q0 -62 43.5 -98t114.5 -36q73 0 117 35.5t44 100.5q0 54 -52 86h86zM868 318v82h-847v-82h385v-72h-269v-82h194v-71h-192v-242h313v86h-220v74h190v156h74 v38q46 -24 106 -29q78 -5 140 2v80q-45 -7 -132 -1q-63 7 -101 24l-13 -32v69h372zM692 -34q0 -26 -19.5 -40t-49.5 -14q-29 0 -47.5 14.5t-18.5 41.5t20 42t49 15t47.5 -16t18.5 -43z" />
<glyph unicode="&#xb6ac;" d="M718 431v85h-209v150h209v84h-298v-234h-166v150h144v84h-233v-319h553zM868 269v82h-847v-82h388v-94h-190v-317h474v317h-194v94h369zM602 -59h-292v151h292v-151z" />
<glyph unicode="&#xb6b1;" d="M717 431v85h-209v150h209v84h-298v-234h-166v150h144v84h-233v-319h553zM868 282v82h-847v-82h385v-69q-81 -11 -131.5 -61.5t-50.5 -126.5q0 -84 65.5 -136t160.5 -52q99 0 164.5 53.5t65.5 135.5q0 75 -51 125t-133 62v69h372zM587 27q0 -52 -39 -81.5t-98 -29.5 t-97 30.5t-38 80.5q0 51 38 81t97 30t98 -30.5t39 -80.5z" />
<glyph unicode="&#xb6d4;" horiz-adv-x="940" d="M862 -114v901h-90v-901h90zM688 -74v841h-89v-604h-169v-84h169v-153h89zM535 393v83h-151v151h147v84h-236v-235h-132v151h116v84h-206v-318h462zM576 251v85q-155 -31 -369 -31h-169v-84h231v-322h90v325q47 2 82 6t76.5 11.5t58.5 9.5z" />
<glyph unicode="&#xb6f0;" horiz-adv-x="890" d="M797 -114v901h-89v-901h89zM601 375v84h-177v168h171v84h-260v-252h-147v168h131v84h-220v-336h502zM674 232v85q-165 -33 -411 -33h-221l1 -82h266v-303h89v306q139 6 276 27z" />
<glyph unicode="&#xb6f4;" horiz-adv-x="890" d="M792 134v653h-88v-653h88zM600 432v85h-179v120h176v84h-265v-204h-150v120h132v84h-222v-289h508zM675 312v84q-155 -34 -401 -34h-231v-80h224v-120h88v122q152 4 320 28zM796 -139v84h-405v190h-91v-274h496z" />
<glyph unicode="&#xb6f8;" horiz-adv-x="890" d="M796 254v533h-87v-533h87zM601 474v84h-179v90h176v83h-265v-173h-150v90h132v83h-221v-257h507zM679 369v82q-156 -33 -414 -33h-221v-80h224v-87h89v89q166 4 322 29zM793 -149v86h-394v64h369v222h-468v-82h375v-59h-370v-231h488z" />
<glyph unicode="&#xb700;" horiz-adv-x="890" d="M796 198v589h-87v-589h87zM601 434v85h-179v118h176v84h-265v-202h-150v118h132v84h-221v-287h507zM679 318v84q-160 -34 -414 -34h-221v-80h224v-92h89v94q157 4 322 28zM773 -142v301h-474v-301h474zM682 -59h-292v135h292v-135z" />
<glyph unicode="&#xb701;" horiz-adv-x="890" d="M796 241v546h-87v-546h87zM601 468v84h-179v96h176v83h-265v-179h-150v96h132v83h-221v-263h507zM679 359v82q-158 -32 -414 -32h-221v-81h224v-93h89v95q166 4 322 29zM774 -147v349h-91v-98h-291v98h-91v-349h473zM683 -64h-291v84h291v-84z" />
<glyph unicode="&#xb705;" horiz-adv-x="890" d="M796 210v577h-87v-577h87zM601 439v85h-179v114h176v83h-265v-197h-150v114h137v83h-226v-282h507zM679 319v78q-153 -34 -414 -34h-221v-80h224v-92h89v94q175 7 322 34zM762 30q0 81 -64.5 136.5t-154.5 55.5t-154.5 -55.5t-64.5 -136.5t64.5 -136.5t154.5 -55.5 t154.5 55.5t64.5 136.5zM670 30q0 -48 -37.5 -78.5t-89.5 -30.5q-51 0 -89.5 31.5t-38.5 77.5q0 47 38 78.5t90 31.5q53 0 90 -30t37 -80z" />
<glyph unicode="&#xb728;" d="M732 260v84h-223v257h223v83h-311v-340h-186v257h164v83h-254v-424h587zM878 9v85h-857v-85h857z" />
<glyph unicode="&#xb729;" d="M713 412v85h-204v169h204v84h-293v-253h-165v169h144v84h-234v-338h548zM878 242v83h-857v-83h857zM686 -160v314h-477v-84h387v-230h90z" />
<glyph unicode="&#xb72c;" d="M713 402v84h-204v180h204v84h-293v-264h-165v180h144v84h-234v-348h548zM873 224v84h-847v-84h847zM710 -138v84h-401v203h-88v-287h489z" />
<glyph unicode="&#xb72f;" d="M714 412v85h-204v169h204v84h-293v-253h-165v169h144v84h-234v-338h548zM874 252v83h-847v-83h847zM700 -144v84h-395v148h385v84l-475 -1v-315h485z" />
<glyph unicode="&#xb730;" d="M718 453v84h-203v140h203v83h-292v-223h-166v140h144v83h-233v-307h547zM875 300v83h-847v-83h847zM714 -149v85h-390v67h366v227h-465v-82h371v-64h-366v-233h484z" />
<glyph unicode="&#xb738;" d="M713 426v85h-204v155h204v84h-293v-239h-165v155h144v84h-234v-324h548zM873 262v83h-847v-83h847zM695 -142v318h-474v-318h474zM604 -59h-292v152h292v-152z" />
<glyph unicode="&#xb739;" d="M716 451v84h-203v142h203v83h-292v-225h-166v142h144v83h-233v-309h547zM873 287v83h-847v-83h847zM697 -147v378h-91v-114h-291v114h-91v-378h473zM606 -64h-291v97h291v-97z" />
<glyph unicode="&#xb73b;" d="M713 412v85h-204v169h204v84h-293v-253h-165v169h144v84h-234v-338h548zM873 256v81h-847v-81h847zM748 -82l-262 172q16 43 16 82v29h-96v-17q0 -80 -62 -153.5t-176 -108.5l51 -71q145 44 225 160l248 -163z" />
<glyph unicode="&#xb744;" horiz-adv-x="890" d="M807 -114v901h-89v-901h89zM610 313v85h-186v199h180v82h-268v-281h-154v199h136v82h-225v-366h517zM692 139v83q-141 -30 -372 -32h-277v-84h279q66 0 113.5 1.5t86.5 5.5t57 6.5t58 9.5t55 10z" />
<glyph unicode="&#xb748;" horiz-adv-x="890" d="M805 125v662h-90v-662h90zM604 381v84h-177v162h174v84h-263v-246h-148v162h130v84h-219v-330h503zM691 245v80q-184 -25 -378 -26h-273v-84h267q56 0 103.5 1.5t77 3t63.5 5t48 5.5t47 7.5zM810 -139v84h-403v203h-90v-287h493z" />
<glyph unicode="&#xb74c;" horiz-adv-x="890" d="M802 268v519h-90v-519h90zM601 432v85h-177v131h174v83h-263v-214h-148v131h130v83h-219v-299h503zM688 318v81q-184 -27 -378 -28h-273v-83h267q67 0 118 1.5t92 5.5t62 6.5t59.5 8.5t52.5 8zM789 -149v86h-393v64h369v222h-469v-82h376v-59h-371v-231h488z" />
<glyph unicode="&#xb754;" horiz-adv-x="890" d="M804 228v559h-90v-559h90zM603 412v85h-177v140h174v84h-263v-224h-148v140h130v84h-219v-309h503zM688 286v80q-184 -26 -378 -27h-274v-83h268q67 0 118 1.5t92 5.5t62 6.5t59.5 8.5t52.5 8zM780 -142v331h-475v-331h475zM688 -59h-291v164h291v-164z" />
<glyph unicode="&#xb755;" horiz-adv-x="890" d="M804 268v519h-90v-519h90zM603 432v85h-177v131h174v83h-263v-214h-148v131h130v83h-219v-299h503zM688 314v81q-184 -27 -378 -28h-274v-83h268q67 0 118 1.5t92 5.5t62 6.5t59.5 8.5t52.5 8zM774 -147v371h-92v-110h-291v110h-91v-371h474zM682 -64h-291v94h291v-94z " />
<glyph unicode="&#xb760;" horiz-adv-x="880" d="M796 -114v901h-90v-901h90zM648 167v84h-239v325h189v83h-278v-408h-167v325h150v83h-240v-492h585z" />
<glyph unicode="&#xb764;" horiz-adv-x="880" d="M782 140v647h-90v-647h90zM621 283v84h-228v260h178v84h-267v-344h-167v260h150v84h-240v-428h574zM793 -139v84h-395v231h-90v-315h485z" />
<glyph unicode="&#xb768;" horiz-adv-x="880" d="M787 295v492h-90v-492h90zM626 339v85h-228v224h178v83h-267v-307h-167v224h150v83h-240v-392h574zM779 -149v86h-383v79h359v235h-458v-82h365v-71h-360v-247h477z" />
<glyph unicode="&#xb770;" horiz-adv-x="880" d="M787 232v555h-90v-555h90zM626 309v85h-228v243h178v84h-267v-327h-167v243h150v84h-240v-412h574zM768 -142v331h-464v-331h464zM676 -59h-281v164h281v-164z" />
<glyph unicode="&#xb771;" horiz-adv-x="880" d="M787 267v520h-90v-520h90zM626 339v85h-228v224h178v83h-267v-307h-167v224h150v83h-240v-392h574zM766 -147v374h-92v-115h-280v115h-91v-374h463zM674 -64h-280v92h280v-92z" />
<glyph unicode="&#xb773;" horiz-adv-x="880" d="M789 171v616h-90v-616h90zM628 300v84h-228v243h178v84h-267v-327h-167v243h150v84h-240v-411h574zM806 -90l-261 189q18 47 18 90v25h-95v-7q0 -90 -65.5 -170t-181.5 -115l61 -71q69 22 127 67t95 103l241 -172z" />
<glyph unicode="&#xb775;" horiz-adv-x="880" d="M787 232v555h-90v-555h90zM626 309v85h-228v243h178v84h-267v-327h-167v243h150v84h-240v-412h574zM765 36q0 81 -66 138.5t-155 57.5t-155.5 -57.5t-66.5 -138.5q0 -83 64.5 -140.5t157.5 -57.5q89 0 155 58t66 140zM672 36q0 -49 -38 -82t-90 -33q-56 0 -93 33.5 t-37 81.5q0 47 38 80.5t92 33.5q51 0 89.5 -32.5t38.5 -81.5z" />
<glyph unicode="&#xb77c;" d="M894 366v83h-162v338h-90v-901h90v480h162zM548 140v83h-387v142h285v301h-380v-83h288v-135h-283v-308h477z" />
<glyph unicode="&#xb77d;" d="M895 468v84h-159v235h-90v-570h90v251h159zM533 264v83h-372v107h275v273h-371v-83h279v-107h-274v-273h463zM723 -160v332h-476v-84h388v-248h88z" />
<glyph unicode="&#xb780;" d="M894 458v85h-158v244h-89v-647h89v318h158zM534 237v84h-372v116h275v280h-371v-83h279v-113h-274v-284h463zM749 -139v84h-395v205h-91v-289h486z" />
<glyph unicode="&#xb784;" d="M895 495v84h-159v208h-90v-502h90v210h159zM532 305v83h-372v92h275v257h-371v-82h279v-92h-274v-258h463zM743 -149v86h-384v73h358v235h-458v-82h366v-71h-361v-241h479z" />
<glyph unicode="&#xb78c;" d="M895 468v84h-159v235h-90v-570h90v251h159zM533 264v83h-372v107h275v273h-371v-83h279v-107h-274v-273h463zM722 -142v320h-464v-320h464zM631 -59h-281v154h281v-154z" />
<glyph unicode="&#xb78d;" d="M895 499v84h-159v204h-90v-523h90v235h159zM533 301v83h-372v94h275v259h-371v-82h279v-94h-274v-260h463zM724 -147v373h-91v-112h-281v112h-92v-373h464zM633 -64h-281v94h281v-94z" />
<glyph unicode="&#xb78f;" d="M895 477v84h-159v225h-90v-615h90v306h159zM533 262v83h-372v104h275v268h-371v-83h279v-102h-274v-270h463zM783 -90l-260 189q17 48 17 90v25h-95v-7q0 -90 -65.5 -170t-181.5 -115l61 -71q141 46 223 170l240 -172z" />
<glyph unicode="&#xb790;" d="M895 478v84h-159v225h-90v-565h90v256h159zM533 264v83h-372v107h275v273h-371v-83h279v-107h-274v-273h463zM829 -86l-176 162q7 31 9 70v42h-93v-39q0 -55 -24.5 -108t-67.5 -84l-109 112q8 20 12 77v42h-94v-39q0 -73 -44.5 -136t-125.5 -89l59 -72q101 45 155 132 l136 -139q104 45 154 143l151 -137z" />
<glyph unicode="&#xb791;" d="M895 478v84h-159v225h-90v-555h90v246h159zM533 271v83h-372v105h275v268h-371v-83h279v-102h-274v-271h463zM716 28q0 81 -65.5 136t-155.5 55t-156 -55.5t-66 -135.5q0 -82 64 -137.5t158 -55.5q90 0 155.5 56t65.5 137zM623 28q0 -49 -36.5 -79.5t-91.5 -30.5 q-56 0 -93 31.5t-37 78.5t37 78t93 31q54 0 91 -29.5t37 -79.5z" />
<glyph unicode="&#xb792;" d="M895 478v84h-159v225h-90v-541h90v232h159zM533 284v83h-372v98h275v262h-371v-83h279v-96h-274v-264h463zM794 -79q-201 112 -202 112q90 84 115 170h-454v-81h299q-48 -62 -140.5 -114t-215.5 -82l55 -74q143 34 269 122l215 -123z" />
<glyph unicode="&#xb796;" d="M895 488v85h-159v214h-90v-560h90v261h159zM533 280v82h-372v102h275v263h-371v-83h279v-100h-274v-264h463zM742 -139v83h-105v153h95v83h-515v-83h96v-153h-107v-83h536zM546 -56h-142v153h142v-153z" />
<glyph unicode="&#xb797;" d="M895 509v84h-159v194h-90v-504h90v226h159zM533 325v82h-372v84h275v246h-371v-82h279v-83h-274v-247h463zM634 198v82q-84 -7 -204 0q-69 10 -102 26l-28 -70q51 -29 121 -38q121 -8 213 0zM764 76v81h-574v-81h140q-17 -11 -29.5 -35t-12.5 -48q0 -75 55.5 -117 t137.5 -42q84 0 137 43t53 119q0 55 -43 80h136zM574 -8q0 -36 -27.5 -56.5t-66.5 -20.5t-67.5 20.5t-28.5 56.5q0 35 28 55.5t66 20.5q40 0 68 -20.5t28 -55.5z" />
<glyph unicode="&#xb798;" d="M824 -114v901h-88v-317h-122v297h-89v-819h89v438h122v-500h88zM480 140v83h-319v142h247v301h-343v-83h252v-135h-247v-308h410z" />
<glyph unicode="&#xb799;" d="M821 213v574h-89v-228h-115v207h-89v-534h89v244h115v-263h89zM484 264v83h-319v107h233v273h-329v-83h237v-107h-232v-273h410zM779 -160v332h-477v-84h387v-248h90z" />
<glyph unicode="&#xb79c;" d="M821 136v651h-89v-238h-115v217h-89v-589h89v289h115v-330h89zM484 237v84h-319v116h233v280h-329v-83h237v-113h-232v-284h410zM813 -139v84h-395v205h-90v-289h485z" />
<glyph unicode="&#xb7a0;" d="M821 277v510h-89v-192h-115v171h-89v-469h89v215h115v-235h89zM495 305v83h-330v92h233v257h-329v-82h237v-92h-232v-258h421zM798 -149v86h-383v72h359v229h-458v-81h365v-67h-360v-239h477z" />
<glyph unicode="&#xb7a8;" d="M821 219v568h-89v-228h-115v207h-89v-528h89v238h115v-257h89zM484 264v83h-319v107h233v273h-329v-83h237v-107h-232v-273h410zM788 -142v320h-464v-320h464zM696 -59h-281v154h281v-154z" />
<glyph unicode="&#xb7a9;" d="M821 252v535h-89v-208h-115v187h-89v-494h89v225h115v-245h89zM495 298v83h-330v97h233v259h-329v-82h237v-94h-232v-263h421zM779 -147v368h-92v-107h-280v107h-92v-368h464zM687 -64h-280v94h280v-94z" />
<glyph unicode="&#xb7ab;" d="M821 202v585h-89v-228h-115v207h-89v-514h89v224h115v-274h89zM484 264v83h-319v107h233v273h-329v-83h237v-107h-232v-273h410zM816 -90l-261 190q18 49 18 89v25h-95v-7q0 -90 -65.5 -170t-181.5 -115l61 -71q138 44 221 171l242 -173z" />
<glyph unicode="&#xb7ac;" d="M820 215v572h-89v-230h-115v209h-89v-530h89v238h115v-259h89zM483 256v83h-319v113h233v275h-329v-83h237v-109h-232v-279h410zM851 -86l-176 162q7 31 9 70v42h-93v-39q0 -55 -24.5 -108t-67.5 -84l-109 112q8 20 12 77v42h-94v-39q0 -73 -44.5 -136t-125.5 -89l59 -72 q101 45 155 132l136 -139q104 45 154 143l151 -137z" />
<glyph unicode="&#xb7ad;" d="M821 226v561h-89v-218h-120v197h-89v-499h89v219h120v-260h89zM484 264v83h-319v107h233v273h-329v-83h237v-107h-232v-273h410zM775 36q0 81 -65.5 137.5t-155.5 56.5t-156 -56.5t-66 -137.5q0 -83 64.5 -140.5t157.5 -57.5q89 0 155 58t66 140zM682 36q0 -49 -38 -82 t-90 -33q-56 0 -93 33.5t-37 81.5q0 47 38 79.5t92 32.5q52 0 90 -31.5t38 -80.5z" />
<glyph unicode="&#xb7b4;" d="M882 242v83h-166v154h166v83h-166v225h-89v-901h89v356h166zM539 140v83h-387v142h285v301h-380v-83h288v-135h-283v-308h477z" />
<glyph unicode="&#xb7b5;" d="M884 361v83h-164v93h164v84h-164v166h-88v-571h88v145h164zM523 264v83h-372v107h275v273h-371v-83h279v-107h-274v-273h463zM713 -160v332h-476v-84h388v-248h88z" />
<glyph unicode="&#xb7b8;" d="M894 329v84h-164v104h164v84h-164v186h-88v-654h88v196h164zM533 237v84h-372v116h275v280h-371v-83h279v-113h-274v-284h463zM748 -139v84h-395v205h-91v-289h486z" />
<glyph unicode="&#xb7c7;" d="M884 350v83h-164v94h164v84h-164v176h-88v-612h88v175h164zM523 262v83h-372v104h275v268h-371v-83h279v-102h-274v-270h463zM772 -90l-260 189q17 48 17 90v25h-95v-7q0 -90 -65.5 -170t-181.5 -115l61 -71q141 46 223 170l240 -172z" />
<glyph unicode="&#xb7c9;" d="M884 367v83h-164v93h164v84h-164v160h-88v-555h88v135h164zM523 272v83h-372v104h275v268h-371v-83h279v-102h-274v-270h463zM712 36q0 81 -65.5 137.5t-155.5 56.5t-156 -56.5t-66 -137.5q0 -83 64.5 -140.5t157.5 -57.5q89 0 155 58t66 140zM619 36q0 -49 -38 -82 t-90 -33q-56 0 -93 33.5t-37 81.5q0 47 38 79.5t92 32.5q52 0 90 -31.5t38 -80.5z" />
<glyph unicode="&#xb7ec;" horiz-adv-x="850" d="M772 -114v901h-90v-329h-190v-84h190v-488h90zM540 140v83h-387v142h285v301h-380v-83h288v-135h-283v-308h477z" />
<glyph unicode="&#xb7ed;" horiz-adv-x="850" d="M771 217v570h-89v-224h-192v-83h192v-263h89zM527 264v83h-372v107h275v273h-371v-83h279v-107h-274v-273h463zM749 -160v332h-477v-84h387v-248h90z" />
<glyph unicode="&#xb7f0;" horiz-adv-x="850" d="M769 140v647h-89v-239h-192v-83h192v-325h89zM525 237v84h-372v116h275v280h-371v-83h279v-113h-274v-284h463zM781 -139v84h-395v205h-90v-289h485z" />
<glyph unicode="&#xb7f4;" horiz-adv-x="850" d="M771 284v503h-89v-200h-192v-81h192v-222h89zM527 308v83h-372v91h275v255h-371v-82h279v-90h-274v-257h463zM764 -149v86h-383v73h359v234h-459v-82h366v-70h-361v-241h478z" />
<glyph unicode="&#xb7fc;" horiz-adv-x="850" d="M771 222v565h-89v-229h-192v-83h192v-253h89zM527 264v83h-372v107h275v273h-371v-83h279v-107h-274v-273h463zM753 -142v320h-465v-320h465zM661 -59h-281v154h281v-154z" />
<glyph unicode="&#xb7fd;" horiz-adv-x="850" d="M771 264v523h-89v-209h-192v-82h192v-232h89zM527 301v83h-372v94h275v259h-371v-82h279v-94h-274v-260h463zM751 -147v369h-92v-108h-280v108h-92v-369h464zM659 -64h-280v94h280v-94z" />
<glyph unicode="&#xb7ff;" horiz-adv-x="850" d="M768 171v616h-89v-245h-192v-83h192v-288h89zM524 262v83h-372v104h275v268h-371v-83h279v-102h-274v-270h463zM794 -90l-261 189q18 47 18 90v25h-95v-7q0 -90 -65.5 -170t-181.5 -115l61 -71q69 22 127 67t95 103l241 -172z" />
<glyph unicode="&#xb800;" horiz-adv-x="850" d="M771 222v565h-89v-224h-192v-83h192v-258h89zM527 266v83h-372v105h275v273h-371v-83h279v-107h-273v-271h462zM831 -86l-176 162q7 31 9 70v42h-93v-39q0 -55 -24.5 -108t-67.5 -84l-109 112q8 20 12 77v42h-94v-39q0 -73 -44.5 -136t-125.5 -89l59 -72q101 45 155 132 l136 -139q104 45 154 143l151 -137z" />
</font>
</defs>
</svg>
