<?xml version="1.0" standalone="no"?>
<!DOCTYPE svg PUBLIC "-//W3C//DTD SVG 1.1//EN" "http://www.w3.org/Graphics/SVG/1.1/DTD/svg11.dtd" >
<svg xmlns="http://www.w3.org/2000/svg" xmlns:xlink="http://www.w3.org/1999/xlink" version="1.1">
<metadata></metadata>
<defs>
<font id="seoulnamsanjangebregular" horiz-adv-x="826" >
<font-face units-per-em="1024" ascent="879" descent="-145" />
<missing-glyph horiz-adv-x="307" />
<glyph unicode=" "  horiz-adv-x="307" />
<glyph unicode="&#x09;" horiz-adv-x="307" />
<glyph unicode="&#xa0;" horiz-adv-x="307" />
<glyph unicode="!" horiz-adv-x="289" d="M201 811l-6 -582h-101l-6 582h113zM212 -21h-133v138h133v-138z" />
<glyph unicode="&#x22;" horiz-adv-x="379" d="M321 832l-17 -257h-86l-14 257h117zM178 832l-14 -257h-85l-19 257h118z" />
<glyph unicode="#" horiz-adv-x="587" d="M559 503l-19 -89h-110l-16 -69h111l-21 -89h-110l-51 -225h-96l50 225h-68l-52 -225h-98l52 225h-105l19 89h106l15 69h-107l22 89h104l53 228h98l-52 -228h67l53 228h99l-53 -228h109zM332 414h-68l-15 -69h67z" />
<glyph unicode="$" horiz-adv-x="497" d="M287 104h1q18 6 31 21q15 15 25 38t10 53q0 26 -9 47.5t-21 35.5q-15 16 -37 30v-225zM202 366q-13 4 -26 10q-42 18 -70 39q-26 24 -45 61.5t-19 97.5q0 50 17.5 85.5t43.5 58.5q26 22 65 36q16 6 34 9v80h85v-79q26 -3 46 -12q34 -15 58 -37q25 -23 42 -54.5t17 -79.5 h-112q-1 48 -25 76q-11 12 -26 18v-242q11 -6 25 -11q44 -19 74 -43q30 -23 52.5 -60.5t22.5 -94.5t-18 -96t-46 -63t-68 -37q-21 -7 -42 -11v-89h-85v88q-72 8 -112 47q-51 48 -59 140h115q0 -53 26 -79q12 -13 30 -19v261zM202 677q-16 -6 -27 -18q-12 -12 -20 -32t-8 -49 q0 -32 7 -53t17 -34q9 -12 31 -24v210z" />
<glyph unicode="%" horiz-adv-x="784" d="M583 737l-280 -703h-102l279 703h103zM244 515q0 65 -18.5 101t-45.5 36q-24 0 -42.5 -36t-18.5 -101q0 -63 18 -98.5t43 -35.5q27 0 45.5 35.5t18.5 98.5zM348 515q0 -44 -12 -86.5t-35 -72.5q-22 -30 -53.5 -45t-67.5 -15q-35 0 -66 15t-54 45q-22 30 -34 72.5 t-12 86.5q0 46 12 88.5t34 71.5q23 30 54 46t66 16q36 0 67.5 -16t53.5 -46q23 -29 35 -71.5t12 -88.5zM667 253q0 65 -18.5 101t-45.5 36q-24 0 -42.5 -36t-18.5 -101q0 -63 18 -98.5t43 -35.5q27 0 45.5 35.5t18.5 98.5zM771 253q0 -44 -12.5 -86.5t-34.5 -72.5 q-23 -30 -54 -45t-67 -15q-35 0 -66 15t-54 45q-22 30 -34 72.5t-12 86.5q0 45 12 87.5t34 72.5q23 30 54 46t66 16q36 0 67 -16t54 -46q22 -30 34.5 -72.5t12.5 -87.5z" />
<glyph unicode="&#x26;" horiz-adv-x="705" d="M705 21h-133l-71 95q-31 -32 -86 -65q-31 -17 -66 -28.5t-73 -12.5q-61 -3 -119 28.5t-86 94.5q-25 54 -15 119t55 111q45 48 80.5 73t40.5 29q-32 41 -51 76.5t-22 70.5t8.5 65t33.5 54q23 22 55 36t72 14q29 0 60.5 -9.5t56.5 -26.5q25 -19 41.5 -48.5t17.5 -68.5 q1 -37 -23 -77t-61 -69q-17 -14 -29.5 -23t-13.5 -10l134 -176l74 87l77 -68l-89 -98zM396 634q0 26 -20 45.5t-47 19.5q-24 0 -42.5 -21t-18.5 -50q0 -30 20.5 -63.5t27.5 -42.5l28 23q16 16 34 40t18 49zM442 192l-151 197q-45 -28 -93 -83q-22 -25 -31 -62.5t6 -75.5 q11 -26 41 -46.5t59 -21.5q38 -1 89 28t80 64z" />
<glyph unicode="'" horiz-adv-x="298" d="M181 832l-14 -257h-91l-17 257h122z" />
<glyph unicode="(" horiz-adv-x="348" d="M224 268q0 -58 6.5 -111t17.5 -97q11 -43 26.5 -73.5t44.5 -45.5v-76q-89 24 -124.5 75.5t-53.5 115.5q-16 61 -21 126.5t-5 117.5v129q0 54 5 119.5t21 126.5q18 64 53.5 115.5t124.5 75.5v-76q-29 -15 -44.5 -45.5t-26.5 -74.5q-11 -43 -17.5 -96t-6.5 -112v-194z" />
<glyph unicode=")" horiz-adv-x="348" d="M124 268v194q0 59 -6 112t-18 96q-11 44 -26.5 74.5t-44.5 45.5v76q89 -24 124.5 -75.5t53.5 -115.5q16 -61 21 -126.5t5 -119.5v-129q0 -52 -5 -117.5t-21 -126.5q-18 -64 -53.5 -115.5t-124.5 -75.5v76q29 15 44.5 45.5t26.5 73.5q12 44 18 97t6 111z" />
<glyph unicode="*" horiz-adv-x="369" d="M247 641l33 10h74v-84h-74l-36 9l25 -24l39 -65l-72 -44l-40 66l-11 34l-11 -34l-40 -66l-73 44l39 65l26 24l-38 -9h-73v84h73l36 -11l-23 24l-40 67l75 43l39 -68l10 -33l10 33l38 68l75 -43l-40 -67z" />
<glyph unicode="+" horiz-adv-x="528" d="M498 351h-184v-206h-100v206h-182v95h182v207h100v-207h184v-95z" />
<glyph unicode="," horiz-adv-x="229" d="M189 125l-57 -258h-97l25 258h129z" />
<glyph unicode="-" horiz-adv-x="388" d="M357 347h-328v102h328v-102z" />
<glyph unicode="." horiz-adv-x="229" d="M181 -21h-133v138h133v-138z" />
<glyph unicode="/" horiz-adv-x="352" d="M340 853l-224 -975h-104l224 975h104z" />
<glyph unicode="0" horiz-adv-x="502" d="M251 98q19 0 40.5 16t37.5 55q15 40 22.5 98t7.5 120q0 63 -8 120.5t-22 97.5q-16 41 -37.5 56.5t-40.5 15.5q-20 0 -41.5 -15.5t-36.5 -56.5q-14 -40 -22.5 -97.5t-8.5 -120.5q0 -62 8 -120t22 -98q16 -39 37.5 -55t41.5 -16zM251 2q-45 0 -90 26t-73 80 q-29 53 -42 126.5t-13 152.5t13 153t42 127q29 54 73.5 80t89.5 26t89.5 -26t73.5 -80q28 -53 41.5 -127t13.5 -153t-13.5 -152.5t-41.5 -126.5q-28 -54 -73 -80t-90 -26z" />
<glyph unicode="1" horiz-adv-x="502" d="M326 12h-107v626l-127 -76v108l147 94h87v-752z" />
<glyph unicode="2" horiz-adv-x="502" d="M464 20h-417v92q61 53 160.5 177.5t119.5 183.5q15 42 15 85q0 15 -5.5 38.5t-15.5 40.5q-12 18 -29 29.5t-40 11.5q-48 0 -72 -30q-23 -32 -23 -106h-111q0 92 37 150q22 32 66.5 54.5t104.5 22.5q37 0 76.5 -14t64.5 -43q27 -29 41.5 -67t14.5 -87q0 -32 -6 -62.5 t-16 -52.5q-38 -83 -107.5 -169t-134.5 -154h277v-100z" />
<glyph unicode="3" horiz-adv-x="502" d="M466 231q0 -37 -13 -80.5t-37 -74.5q-27 -35 -70.5 -53t-97.5 -18q-51 0 -91.5 13.5t-65.5 35.5q-28 23 -41 56.5t-18 83.5h120q0 -27 6.5 -43.5t18.5 -29.5q10 -10 27 -18t41 -8q47 0 79.5 37.5t32.5 98.5q0 40 -15.5 65t-36.5 38q-22 15 -50 21t-65 6v89 q90 0 123.5 33.5t33.5 84.5q0 55 -30 82t-64 27q-45 0 -70 -24.5t-29 -71.5h-108q0 37 11 70.5t34 59.5q25 25 64.5 40.5t92.5 15.5q37 -1 79.5 -13t68.5 -38q31 -27 45.5 -63.5t14.5 -84.5q0 -28 -11.5 -63t-35.5 -61q-33 -29 -51 -37q27 -13 57 -39q23 -24 37 -55.5 t14 -81.5z" />
<glyph unicode="4" horiz-adv-x="502" d="M488 209h-102v-192h-104v192h-268v83l278 477h94v-459h102v-101zM282 310v256l-149 -256h149z" />
<glyph unicode="5" horiz-adv-x="502" d="M467 244q0 -47 -15.5 -91t-42.5 -77q-28 -34 -72.5 -52.5t-97.5 -18.5q-56 0 -95 15t-63 42q-22 24 -32 54t-10 72h115q1 -25 5 -41t13 -26q9 -9 25.5 -17t41.5 -8q46 0 80.5 38.5t37.5 109.5q0 71 -32 107t-78 36q-28 0 -51.5 -14.5t-37.5 -45.5h-102l20 431h353v-100 h-253l-12 -207q43 27 93 28q107 0 158.5 -65.5t51.5 -169.5z" />
<glyph unicode="6" horiz-adv-x="502" d="M58 151q-10 33 -16.5 96t-6.5 154q0 65 8 126.5t31 114.5q23 57 68 91.5t116 34.5q48 0 86 -15t63 -40q24 -25 36.5 -59t12.5 -76h-119q0 23 -4 42t-14 31q-9 12 -25 19.5t-38 7.5q-29 0 -52 -21.5t-35 -58.5q-14 -36 -20.5 -77.5t-6.5 -56.5v-27q11 12 28 23 q42 28 86 28q54 0 91.5 -16t66.5 -50q26 -31 40 -79t14 -98q0 -49 -14.5 -96t-40.5 -79q-30 -35 -73 -50t-84 -15q-40 0 -83.5 15.5t-72.5 50.5q-25 33 -42 80zM360 246q0 32 -7.5 61t-21.5 49t-33.5 30.5t-40.5 10.5q-20 0 -40 -10.5t-34 -30.5t-21.5 -49t-7.5 -61t7.5 -61 t21.5 -48q14 -21 34 -31t40 -10q21 0 40.5 10t33.5 31q14 19 21.5 48t7.5 61z" />
<glyph unicode="7" horiz-adv-x="502" d="M462 668l-243 -656h-114l238 640h-305v102h424v-86z" />
<glyph unicode="8" horiz-adv-x="502" d="M350 564q0 53 -29 84t-71 31q-41 0 -69.5 -31t-28.5 -84t28.5 -84t69.5 -31q43 0 71.5 31t28.5 84zM458 564q0 -41 -14.5 -78t-44.5 -65q-11 -11 -24 -18q16 -9 32 -24q29 -30 45 -68.5t16 -85.5q0 -44 -13.5 -85.5t-42.5 -74.5q-31 -32 -75.5 -47t-86.5 -15t-86.5 15 t-75.5 47q-30 33 -43 74.5t-13 85.5q0 47 15.5 85.5t45.5 68.5q16 15 32 24q-13 7 -25 18q-28 29 -42 65.5t-14 77.5q0 42 14.5 79t41.5 66q28 29 69.5 44t80.5 15q40 0 81.5 -15t68.5 -44q28 -29 43 -65.5t15 -79.5zM250 97q46 0 77.5 35t31.5 93q0 59 -32 95t-77 36 t-77.5 -36t-32.5 -95q0 -58 32 -93t78 -35z" />
<glyph unicode="9" horiz-adv-x="502" d="M443 622q11 -33 17.5 -96t6.5 -154q0 -65 -8 -126.5t-31 -115.5q-24 -56 -69 -90.5t-115 -34.5q-48 0 -86 15t-63 40q-24 25 -36.5 59t-12.5 76h119q0 -24 4 -42.5t13 -30.5t25.5 -19.5t38.5 -7.5q28 0 51.5 21.5t35.5 57.5q14 37 20 78.5t6 56.5v27q-10 -12 -27 -23 q-42 -28 -86 -28q-55 0 -92 16t-66 50q-27 31 -40.5 79t-13.5 98q0 49 14 96t41 79q30 35 73 50t84 15q40 0 83.5 -15.5t71.5 -50.5q26 -33 42 -80zM141 527q0 -32 8 -61t22 -49q13 -20 33 -30.5t41 -10.5q20 0 40 10.5t33 30.5q15 20 22.5 49t7.5 61q0 31 -7.5 60.5 t-22.5 48.5q-13 21 -33 31t-40 10q-21 0 -41 -10t-33 -31q-14 -19 -22 -48.5t-8 -60.5z" />
<glyph unicode=":" horiz-adv-x="371" d="M252 87h-133v139h133v-139zM252 492h-133v138h133v-138z" />
<glyph unicode=";" horiz-adv-x="371" d="M256 226l-57 -258h-98l26 258h129zM252 492h-133v138h133v-138z" />
<glyph unicode="&#x3c;" horiz-adv-x="537" d="M76 360v79l419 379v-121l-327 -298l327 -297v-121z" />
<glyph unicode="=" horiz-adv-x="537" d="M497 460h-458v95h458v-95zM497 243h-458v95h458v-95z" />
<glyph unicode="&#x3e;" horiz-adv-x="537" d="M461 360l-419 -379v121l327 297l-327 298v121l419 -379v-79z" />
<glyph unicode="?" horiz-adv-x="425" d="M407 612q0 -40 -17.5 -77t-39.5 -65q-21 -28 -41.5 -50t-30.5 -34q-13 -16 -22.5 -28.5t-16.5 -25.5q-7 -15 -10.5 -31.5t-3.5 -55.5v-49h-103v73q0 70 17.5 103.5t47.5 68.5q16 16 35 35.5t36 43.5q15 20 26.5 44t11.5 45q0 19 -8.5 37.5t-23.5 30.5q-15 13 -34 20 t-41 7q-18 0 -36.5 -3.5t-38.5 -9.5q-19 -7 -38.5 -13.5t-52.5 -24.5v114q22 9 42 14.5t38 9.5t41 7.5t47 3.5q35 0 74 -10.5t71 -34.5q31 -22 51 -59t20 -86zM242 -21h-133v138h133v-138z" />
<glyph unicode="@" horiz-adv-x="911" d="M852 368q-5 -106 -51.5 -191t-127.5 -133q-49 -29 -95 -32q-47 -3 -66.5 18.5t-22.5 42.5q-18 -19 -46 -34.5t-61 -15.5q-25 0 -54.5 10t-47.5 33q-20 25 -30.5 59t-8.5 79q2 39 17 95.5t54 116.5q34 52 82 91t104 39q47 0 71 -20t31 -37l12 36h104q-21 -63 -63 -182 q-42 -118 -66 -191q-13 -40 1.5 -45.5t54.5 19.5q20 13 41.5 36t34.5 48q16 31 28.5 79.5t13.5 79.5q4 91 -39.5 175.5t-116.5 115.5q-50 19 -97.5 19t-90.5 -16q-47 -17 -88 -51t-70 -75q-40 -56 -58.5 -112t-27.5 -105q-10 -51 -7.5 -106t19.5 -98q32 -77 101.5 -125 t176.5 -48q52 0 96.5 11t77.5 31q28 16 51 33.5t46 41.5l46 -61q-12 -18 -34 -38.5t-60 -45.5q-38 -23 -94.5 -41t-131.5 -18q-127 0 -225.5 58t-144.5 171q-22 56 -26.5 125t7.5 134q12 64 39 132.5t73 128.5q43 56 93.5 92t107.5 56q60 18 125 15.5t129 -27.5 q98 -36 159 -139t55 -234zM551 400q0 23 -11.5 42t-29.5 19q-20 0 -54 -31.5t-64 -87.5q-19 -35 -30.5 -71.5t-15.5 -72.5q-4 -32 1.5 -49.5t16.5 -26.5q7 -6 12 -8t15 -2q31 0 62 30.5t56 94.5q23 59 32.5 102.5t9.5 60.5z" />
<glyph unicode="A" horiz-adv-x="584" d="M583 20h-114l-69 224h-219l-67 -224h-114l238 746h107zM371 343l-79 264l-80 -264h159z" />
<glyph unicode="B" horiz-adv-x="542" d="M512 238q0 -87 -43.5 -138t-108.5 -71q-21 -5 -49 -7t-44 -2h-212v746h200q106 0 168 -52t62 -150q0 -58 -27 -94.5t-67 -54.5q42 -14 81.5 -54.5t39.5 -122.5zM163 117h92q12 0 33.5 1.5t32.5 5.5q43 14 62.5 44t19.5 70q0 42 -19.5 71t-62.5 43q-11 4 -31 7t-35 3h-92 v-245zM377 564q0 50 -26 74t-72 29q-11 1 -23.5 1.5t-21.5 0.5h-71v-210h74h20.5t21.5 1q44 6 71 32.5t27 71.5z" />
<glyph unicode="C" horiz-adv-x="587" d="M565 541h-113q0 48 -11.5 71.5t-27.5 39.5q-18 14 -40.5 21.5t-43.5 8.5q-38 0 -72.5 -16t-62.5 -52q-28 -37 -44 -94.5t-16 -114.5q0 -37 9 -89t33 -102q25 -46 67 -77.5t108 -31.5q48 0 91 16.5t100 51.5v-115q-17 -9 -32.5 -17t-41.5 -16q-60 -17 -137 -17 q-80 0 -138.5 35t-98.5 93q-39 58 -54.5 127t-15.5 142t17 140t56 118q38 50 96 83.5t136 33.5q47 0 90 -16.5t75 -45.5t51.5 -69.5t19.5 -107.5z" />
<glyph unicode="D" horiz-adv-x="592" d="M163 667v-548h60q18 0 46.5 2t44.5 7q21 6 45 24t45 50q22 32 36 78.5t14 112.5q0 67 -14 113t-36 78q-21 32 -45 50.5t-45 23.5q-16 5 -44.5 7t-46.5 2h-60zM55 766h163q31 0 66 -3.5t63 -9.5q45 -12 83 -41.5t68 -73.5q28 -43 46 -104.5t18 -140.5q0 -78 -18 -140 t-46 -105q-30 -44 -68 -73.5t-83 -41.5q-28 -6 -63 -9.5t-66 -3.5h-163v746z" />
<glyph unicode="E" horiz-adv-x="492" d="M457 20h-402v746h394v-99h-285v-208h272v-99h-272v-241h293v-99z" />
<glyph unicode="F" horiz-adv-x="468" d="M449 667h-285v-208h274v-99h-274v-340h-109v746h394v-99z" />
<glyph unicode="G" horiz-adv-x="613" d="M565 541h-113q0 48 -11.5 71.5t-27.5 39.5q-18 14 -40.5 21.5t-43.5 8.5q-38 0 -73 -16t-62 -52q-28 -37 -44 -94t-16 -114q0 -37 9.5 -89t32.5 -102q23 -45 66 -77t109 -32q36 0 65.5 7t34.5 10v208h-157v101h265v-366q-56 -31 -107.5 -44t-120.5 -13q-80 0 -139 35.5 t-98 93.5q-38 57 -54 126t-16 142t17 139.5t56 117.5q38 50 96 83.5t136 33.5q47 0 90 -16.5t75 -45.5t51.5 -69.5t19.5 -107.5z" />
<glyph unicode="H" horiz-adv-x="593" d="M538 20h-109v338h-265v-338h-109v746h109v-309h265v309h109v-746z" />
<glyph unicode="I" horiz-adv-x="227" d="M168 20h-109v746h109v-746z" />
<glyph unicode="J" horiz-adv-x="351" d="M296 192q0 -30 -10 -63.5t-30 -58.5q-24 -28 -62 -44.5t-100 -16.5q-21 0 -45 3t-53 13v108q36 -15 60 -20.5t44 -5.5q18 0 34 4.5t30 18.5q9 10 16 28t7 48v560h109v-574z" />
<glyph unicode="K" horiz-adv-x="532" d="M553 20h-137l-254 313v-313h-107v746h107v-284l235 284h132l-292 -351z" />
<glyph unicode="L" horiz-adv-x="461" d="M458 20h-403v746h109v-647h294v-99z" />
<glyph unicode="M" horiz-adv-x="749" d="M693 20h-102v541l-174 -541h-86l-173 541v-541h-103v746h133l187 -578l184 578h134v-746z" />
<glyph unicode="N" horiz-adv-x="593" d="M538 20h-117l-261 555v-555h-105v746h116l262 -556v556h105v-746z" />
<glyph unicode="O" horiz-adv-x="668" d="M529 394q0 60 -14.5 117t-42.5 96q-26 39 -63 58t-76 19t-76.5 -19t-62.5 -58q-28 -39 -43 -96t-15 -117q0 -61 15 -117t43 -95q25 -39 62.5 -58.5t76.5 -19.5t76 19.5t63 58.5q28 39 42.5 95t14.5 117zM639 394q0 -79 -21.5 -152t-62.5 -125q-41 -53 -100 -80.5 t-122 -27.5q-64 0 -122.5 27.5t-99.5 80.5q-41 52 -62.5 125t-21.5 152q0 78 21.5 151t62.5 126q41 52 99.5 80.5t122.5 28.5q63 0 122 -28.5t100 -80.5q41 -53 62.5 -126t21.5 -151z" />
<glyph unicode="P" horiz-adv-x="524" d="M505 541q0 -58 -23 -103.5t-59 -72.5q-37 -26 -81.5 -37.5t-95.5 -11.5h-60v102h58q34 0 60.5 5t43.5 20q21 15 34.5 40.5t13.5 57.5q0 39 -14 62t-34 36q-20 17 -46.5 23t-50.5 6h-87v-648h-109v746h194q48 0 91.5 -12t79.5 -35q39 -25 62 -70t23 -108z" />
<glyph unicode="Q" horiz-adv-x="686" d="M544 103h4q72 0 136 12v-95h-272q-38 -11 -79 -11q-64 0 -122.5 27.5t-99.5 80.5q-41 52 -62.5 125t-21.5 152q0 78 21.5 151t62.5 126q41 52 99.5 80.5t122.5 28.5q63 0 122 -28.5t100 -80.5q41 -53 62.5 -126t21.5 -151q0 -79 -21.5 -152t-62.5 -125q-6 -7 -11 -14z M529 394q0 60 -14.5 117t-42.5 96q-26 39 -63 58t-76 19t-76.5 -19t-62.5 -58q-28 -39 -43 -96t-15 -117q0 -61 15 -117t43 -95q25 -39 62.5 -58.5t76.5 -19.5t76 19.5t63 58.5q28 39 42.5 95t14.5 117z" />
<glyph unicode="R" horiz-adv-x="535" d="M505 547q0 -52 -23 -94.5t-60 -67.5q-22 -13 -36 -19q52 -30 80 -107q36 -98 58 -239h-113q-28 185 -68 243q-43 63 -103 63h-54v102h58q34 0 60 6t45 21q20 13 33.5 37.5t13.5 54.5q0 34 -13.5 57t-33.5 36q-21 15 -47.5 21.5t-50.5 6.5h-87v-648h-109v746h194 q48 0 92 -12t80 -35q38 -26 61 -67.5t23 -104.5z" />
<glyph unicode="S" horiz-adv-x="478" d="M460 228q0 -112 -69.5 -165.5t-186.5 -53.5q-44 0 -89 10t-85 23v114q46 -20 83 -32q20 -6 47 -11.5t52 -5.5q27 0 50.5 5t42.5 19q18 12 31 32.5t13 51.5q0 30 -12 51t-29 35q-37 32 -79 54q-29 16 -64.5 36.5t-67.5 46.5t-52.5 61.5t-20.5 80.5q0 103 62 151.5 t160 48.5q25 0 50 -4.5t45 -9.5q38 -9 77 -22v-108q-38 21 -86 34.5t-92 13.5q-46 0 -77 -25.5t-31 -71.5q0 -19 9.5 -33.5t22.5 -27.5q14 -15 32 -27.5t40 -23.5q70 -38 106 -61.5t59 -45.5q27 -25 42 -57.5t17 -82.5z" />
<glyph unicode="T" horiz-adv-x="543" d="M530 667h-204v-647h-109v647h-205v99h518v-99z" />
<glyph unicode="U" horiz-adv-x="605" d="M302 108q38 -2 65.5 15t43.5 42q15 31 22.5 66.5t7.5 76.5v458h109v-464q0 -47 -9 -98t-36 -94q-28 -44 -77.5 -72.5t-125.5 -28.5t-125.5 28.5t-77.5 72.5q-27 43 -35.5 94.5t-8.5 97.5v464h109v-458q0 -41 7 -76.5t23 -66.5q15 -25 42 -41t66 -16z" />
<glyph unicode="V" horiz-adv-x="579" d="M577 766l-234 -746h-109l-232 746h110l178 -582l175 582h112z" />
<glyph unicode="W" horiz-adv-x="785" d="M776 766l-133 -746h-115l-135 561l-136 -561h-115l-133 746h105l92 -553l135 553h103l136 -553l92 553h104z" />
<glyph unicode="X" horiz-adv-x="553" d="M555 20h-120l-160 285l-158 -285h-117l217 390l-200 356h120l139 -249l139 249h120l-199 -356z" />
<glyph unicode="Y" horiz-adv-x="553" d="M275 469l156 297h120l-220 -407v-339h-109v339l-220 407h119z" />
<glyph unicode="Z" horiz-adv-x="512" d="M504 20h-485v89l335 558h-319v99h447v-91l-336 -556h358v-99z" />
<glyph unicode="[" horiz-adv-x="326" d="M303 -122h-205v975h205v-90h-99v-795h99v-90z" />
<glyph unicode="\" horiz-adv-x="911" d="M879 377h-139l-64 -357h-107l-75 357h-72l-74 -357h-107l-65 357h-137v83h122l-51 281h99l48 -281h94l58 281h99l57 -281h94l49 281h99l-51 -281h123v-83zM645 377h-62l33 -166zM334 377h-63l29 -166zM439 460h37l-18 88z" />
<glyph unicode="]" horiz-adv-x="326" d="M228 -122h-205v90h99v795h-99v90h205v-975z" />
<glyph unicode="^" horiz-adv-x="433" d="M172 788h91l150 -264h-110l-85 156l-88 -156h-108z" />
<glyph unicode="_" horiz-adv-x="461" d="M460 -98h-458v82h458v-82z" />
<glyph unicode="`" horiz-adv-x="281" d="M220 570h-95l-94 203h123z" />
<glyph unicode="a" horiz-adv-x="483" d="M434 20h-106v47q-13 -13 -33 -27q-25 -16 -57 -23.5t-75 -7.5q-20 0 -47.5 10t-46.5 29q-22 19 -33 46t-11 61q0 61 32.5 106t79.5 61q31 11 65 16t57 5h69v35q0 8 -3.5 26.5t-13.5 33.5q-9 15 -28 25t-46 10q-34 0 -58.5 -18.5t-24.5 -62.5h-117q0 44 11.5 71.5 t37.5 49.5q25 23 64.5 37.5t86.5 14.5q96 0 146.5 -54t50.5 -129v-362zM328 220v37q-7 0 -35 -0.5t-70 -7.5q-34 -6 -60 -25q-30 -25 -30 -59q0 -36 18.5 -50.5t46.5 -14.5q11 0 32 5t37 16q34 23 52 56q9 16 9 43z" />
<glyph unicode="b" horiz-adv-x="512" d="M379 286q0 39 -9 76t-24 62q-15 24 -36.5 36t-42.5 12q-20 0 -40.5 -14t-35.5 -37q-16 -25 -25 -60.5t-9 -74.5t8.5 -76t23.5 -62t36.5 -36.5t41.5 -11.5q21 0 43 11.5t36 36.5q15 25 24 62t9 76zM268 9q-53 0 -94 18t-68 55q-26 35 -41 89t-15 120v475h106v-261 q47 60 117 60q52 0 95 -23t70 -61q25 -39 37 -88.5t12 -101.5q0 -66 -14.5 -120t-41.5 -89q-27 -37 -68.5 -55t-94.5 -18z" />
<glyph unicode="c" horiz-adv-x="483" d="M455 366h-112q0 49 -22 78t-65 29q-50 0 -85.5 -46t-35.5 -131q0 -20 3.5 -42.5t11.5 -44.5q8 -26 25.5 -49t44.5 -42q9 -6 29.5 -11.5t48.5 -5.5q20 0 52 5.5t90 38.5v-94q-49 -30 -97 -38t-96 -3q-42 4 -83.5 24.5t-67.5 48.5q-30 36 -50.5 90t-20.5 124q0 58 15 106.5 t44 83.5q29 36 73 57t101 21q41 0 76 -13t61 -37q27 -23 43.5 -57t16.5 -92z" />
<glyph unicode="d" horiz-adv-x="512" d="M25 291q0 52 13 100.5t38 87.5q26 38 68.5 62t94.5 24q73 0 117 -60v261h106v-746h-106v45q-15 -20 -45 -38t-77 -18q-44 0 -84 19.5t-67 55.5q-26 34 -42 87.5t-16 119.5zM133 286q0 -39 9.5 -74.5t25.5 -61.5q14 -25 35 -37.5t42 -12.5q20 0 40.5 13t35.5 38 q16 26 25 61t9 74t-9 74.5t-25 60.5q-15 23 -35.5 37t-40.5 14q-21 0 -41.5 -13t-35.5 -37q-16 -25 -25.5 -61t-9.5 -75z" />
<glyph unicode="e" horiz-adv-x="483" d="M137 338h209q0 55 -18 94q-11 18 -29 29.5t-43 11.5q-50 0 -85 -46q-27 -33 -34 -89zM140 247q3 -19 10 -38q8 -25 25.5 -48.5t44.5 -42.5q9 -6 29.5 -11.5t48.5 -5.5q20 0 53 6t89 38v-94q-49 -30 -97 -38t-96 -3q-42 4 -83.5 24.5t-67.5 48.5q-30 36 -50.5 90 t-20.5 124q0 58 15 106.5t44 83.5t72 56.5t100 21.5q47 0 89 -20.5t66 -52.5q44 -58 44 -185v-60h-315z" />
<glyph unicode="f" horiz-adv-x="358" d="M370 670q-40 10 -59.5 14.5t-41.5 4.5t-34 -6.5t-22 -23.5q-6 -12 -8.5 -29t-2.5 -38v-40h134v-91h-134v-441h-109v441h-82v91h82v24q0 29 3.5 64.5t22.5 68.5q18 30 52 50t94 21q29 0 52 -4.5t53 -9.5v-96z" />
<glyph unicode="g" horiz-adv-x="512" d="M132 296q0 -39 9.5 -69.5t25.5 -55.5q15 -25 35.5 -38t41.5 -13q20 0 40.5 14t36.5 37q16 24 25 55t9 70t-8.5 69.5t-25.5 55.5q-16 23 -36.5 37t-40.5 14q-21 0 -41.5 -13t-35.5 -37q-17 -26 -26 -56.5t-9 -69.5zM462 83q-4 -125 -65 -173q-64 -52 -178 -52 q-36 0 -81 6.5t-79 23.5v112q52 -28 92 -36.5t75 -8.5q61 0 92.5 21.5t35.5 68.5q2 18 2 41q-6 -11 -40 -33q-34 -24 -83 -24q-44 0 -84 19.5t-67 56.5q-26 34 -42 82t-16 114q0 53 13 96t39 82q25 38 68 62t95 24q74 0 117 -61v48h106v-469z" />
<glyph unicode="h" horiz-adv-x="512" d="M462 20h-107v336q0 54 -23 88q-17 24 -58 24q-35 0 -66 -35t-45 -107q-4 -17 -5.5 -34.5t-1.5 -38.5v-233h-106v746h106v-268q17 25 50 46t74 21q85 0 132 -46q50 -51 50 -145v-354z" />
<glyph unicode="i" horiz-adv-x="217" d="M169 637h-123v129h123v-129zM163 20h-109v532h109v-532z" />
<glyph unicode="j" horiz-adv-x="244" d="M202 637h-123v129h123v-129zM194 44h-1q-3 -53 -14 -85q-14 -39 -45 -64q-32 -24 -74 -30.5t-96 -6.5v98q60 -2 76 4q47 19 47 91v501h107v-508z" />
<glyph unicode="k" horiz-adv-x="471" d="M480 20h-134l-190 220v-220h-106v746h106v-395l181 181h141l-249 -239z" />
<glyph unicode="l" horiz-adv-x="217" d="M163 20h-109v746h109v-746z" />
<glyph unicode="m" horiz-adv-x="733" d="M683 20h-103v301q0 29 -3 59t-9 46q-8 20 -20.5 28t-31.5 8q-33 0 -59 -35.5t-35 -102.5q-3 -22 -4 -38.5t-1 -36.5v-229h-101v301q0 29 -2.5 57.5t-9.5 47.5q-8 20 -20.5 28t-33.5 8q-23 0 -41 -16t-31 -49q-12 -33 -17.5 -69t-6.5 -77v-231h-104v532h104v-49 q15 22 43 42t61 20q65 0 104 -38q18 -17 32 -45q8 14 21 30q40 53 110 53q68 0 113 -48.5t45 -147.5v-349z" />
<glyph unicode="n" horiz-adv-x="512" d="M462 20h-107v336q0 54 -23 88q-17 24 -58 24q-35 0 -66 -35t-45 -107q-4 -17 -5.5 -34.5t-1.5 -38.5v-233h-106v532h106v-54q17 25 50 46t74 21q85 0 132 -46q50 -51 50 -145v-354z" />
<glyph unicode="o" horiz-adv-x="512" d="M377 286q0 39 -9 77t-26 62q-16 26 -39 38t-47 12t-47 -12t-40 -38q-16 -24 -25 -62t-9 -77t9 -76.5t25 -61.5q17 -26 40 -37.5t47 -11.5t47 11.5t39 37.5q17 24 26 61.5t9 76.5zM487 286q0 -56 -16 -108.5t-46 -90.5q-32 -38 -76.5 -58t-92.5 -20t-92.5 20t-76.5 58 q-30 38 -46 90.5t-16 108.5t16 108.5t46 90.5q32 40 76.5 60t92.5 20t92.5 -20t76.5 -60q30 -38 46 -90.5t16 -108.5z" />
<glyph unicode="p" horiz-adv-x="512" d="M487 293q0 -66 -16 -118.5t-42 -86.5q-27 -36 -67 -55.5t-84 -19.5q-73 0 -122 54v-209h-106v694h106v-48q48 61 117 61q52 0 94.5 -24t68.5 -62q25 -39 38 -86.5t13 -99.5zM379 288q0 39 -9.5 74t-25.5 60q-15 24 -35.5 37t-41.5 13q-20 0 -40.5 -14t-35.5 -37 q-16 -25 -25 -59.5t-9 -73.5t9 -73t25 -60q15 -25 35.5 -38t40.5 -13q21 0 42 12.5t35 37.5q16 26 25.5 60.5t9.5 73.5z" />
<glyph unicode="q" horiz-adv-x="512" d="M25 293q0 52 13 99.5t38 86.5q26 38 68.5 62t94.5 24q69 0 117 -61v48h106v-694h-106v209q-49 -54 -122 -54q-44 0 -84 19.5t-67 55.5q-26 34 -42 86.5t-16 118.5zM133 288q0 -39 9.5 -73.5t25.5 -60.5q14 -25 35 -37.5t42 -12.5q20 0 40.5 13t35.5 38q16 26 25 60t9 73 t-9 73.5t-25 59.5q-15 23 -35.5 37t-40.5 14q-21 0 -41.5 -13t-35.5 -37q-16 -25 -25.5 -60t-9.5 -74z" />
<glyph unicode="r" horiz-adv-x="358" d="M354 458q-45 0 -72 -7t-51 -21q-23 -13 -42.5 -38t-25.5 -59q-8 -42 -8 -93v-220h-105v532h105v-73q21 30 54 52q51 33 145 34v-107z" />
<glyph unicode="s" horiz-adv-x="403" d="M385 166q0 -35 -12.5 -64.5t-35.5 -48.5q-26 -22 -69 -33t-93 -11q-58 0 -152 29v114q45 -28 83.5 -39.5t68.5 -11.5q50 0 73 12q31 18 31 48q0 20 -11 34t-31 26q-21 11 -57.5 26t-71.5 32q-30 15 -56.5 47.5t-26.5 85.5q0 73 51.5 113t132.5 40q67 0 147 -27v-108 q-40 23 -76 34t-75 11q-33 0 -54.5 -14.5t-21.5 -40.5q0 -17 6.5 -28.5t24.5 -23.5q18 -11 60 -28t74 -33q36 -19 63.5 -53t27.5 -88z" />
<glyph unicode="t" horiz-adv-x="338" d="M323 461h-129v-260v-41.5t7 -36.5q5 -11 16.5 -16.5t33.5 -5.5q21 0 70 9v-95q-42 -6 -88 -6q-72 0 -109 35.5t-37 98.5v318h-78v91h78v111l107 55v-166h129v-91z" />
<glyph unicode="u" horiz-adv-x="512" d="M50 552h107v-336q0 -54 23 -88q17 -24 58 -24q35 0 66 35t45 107q4 18 5.5 35t1.5 38v233h106v-532h-106v54q-17 -24 -50 -45t-74 -21q-85 0 -132 46q-50 50 -50 144v354z" />
<glyph unicode="v" horiz-adv-x="481" d="M478 552l-183 -532h-91l-201 532h111l135 -376l125 376h104z" />
<glyph unicode="w" horiz-adv-x="655" d="M648 552l-123 -532h-94l-103 345l-102 -345h-92l-127 532h104l75 -345l101 345h82l101 -346l77 346h101z" />
<glyph unicode="x" horiz-adv-x="476" d="M476 20h-119l-118 187l-121 -187h-118l180 280l-162 252h118l103 -160l103 160h118l-163 -252z" />
<glyph unicode="y" horiz-adv-x="466" d="M352 552h110l-236 -694h-107l68 205l-186 489h113l124 -342z" />
<glyph unicode="z" horiz-adv-x="430" d="M411 20h-392v81l255 360h-237v91h361v-87l-252 -354h265v-91z" />
<glyph unicode="{" horiz-adv-x="416" d="M99 334v65q51 15 75 39.5t24 63.5q0 25 -8.5 58t-11.5 55q-4 31 -4 64.5t15 67.5q16 33 37 55t45 34q25 12 51.5 19.5t64.5 4.5v-60q-50 -14 -69 -38t-25 -50q-8 -34 -4.5 -65t8.5 -63t2.5 -66.5t-14.5 -60.5q-22 -45 -47 -66t-33 -25q8 -4 33 -24.5t47 -65.5 q12 -26 14.5 -60.5t-2.5 -66.5t-8.5 -63t4.5 -65q6 -26 25 -50t69 -38v-60q-38 -3 -64.5 4.5t-51.5 19.5q-24 12 -45 34t-37 55q-15 34 -15 67.5t4 64.5q3 22 11.5 55t8.5 58q0 39 -24 63t-75 40z" />
<glyph unicode="|" horiz-adv-x="310" d="M204 -109h-98v949h98v-949z" />
<glyph unicode="}" horiz-adv-x="416" d="M316 334q-50 -16 -74 -40t-24 -63q0 -25 8 -58t12 -55q4 -31 4 -64.5t-16 -67.5q-15 -33 -36 -55t-46 -34q-24 -12 -50.5 -19.5t-64.5 -4.5v60q50 14 69 38t25 50q8 34 4.5 65t-8.5 63t-2.5 66.5t14.5 60.5q22 45 47 65.5t33 24.5q-8 4 -33 25t-47 66q-12 26 -14.5 60.5 t2.5 66.5t8.5 63t-4.5 65q-6 26 -25 50t-69 38v60q38 3 64.5 -4.5t50.5 -19.5q25 -12 46 -34t36 -55q16 -34 16 -67.5t-4 -64.5q-4 -22 -12 -55t-8 -58q0 -39 24 -63.5t74 -39.5v-65z" />
<glyph unicode="~" horiz-adv-x="537" d="M510 481q0 -101 -37 -153.5t-106 -52.5q-35 0 -65 15t-61 54q-31 38 -45 47.5t-25 9.5q-21 0 -35 -22t-14 -92h-94q0 105 39 156.5t102 51.5q37 0 66.5 -17t60.5 -55q28 -33 41.5 -43.5t26.5 -10.5q23 0 37 22.5t14 89.5h95z" />
<glyph unicode="&#x25fc;" horiz-adv-x="550" d="M0 550h550v-550h-550v550z" />
<glyph unicode="&#xac00;" horiz-adv-x="828" d="M459 743q-20 -379 -372 -595l-70 73q289 178 321 424h-276v98h397zM824 405h-144v-508h-109v972h109v-361h144v-103z" />
<glyph unicode="&#xac01;" horiz-adv-x="828" d="M458 797q-6 -155 -95.5 -286.5t-276.5 -227.5l-68 75q149 77 224.5 169.5t90.5 171.5h-271v98h396zM820 509h-140v-226h-109v586h109v-255h140v-105zM680 -129h-109v275h-402v98h511v-373z" />
<glyph unicode="&#xac04;" horiz-adv-x="828" d="M458 788q-11 -178 -106.5 -312t-269.5 -223l-67 76q160 84 236 188t83 173h-272v98h396zM820 470h-140v-306h-109v705h109v-294h140v-105zM698 -108h-497v331h108v-233h389v-98z" />
<glyph unicode="&#xac07;" horiz-adv-x="828" d="M458 797q-8 -159 -98.5 -283t-272.5 -222l-68 77q143 70 221.5 164.5t92.5 165.5h-271v98h396zM820 515h-140v-221h-109v575h109v-251h140v-103zM689 -113h-475v368h466v-98h-357v-172h366v-98z" />
<glyph unicode="&#xac08;" horiz-adv-x="828" d="M459 808q-10 -149 -93 -271t-280 -223l-67 78q144 69 223 157.5t91 160.5h-271v98h397zM820 541h-140v-191h-109v519h109v-224h140v-104zM703 -118h-489v268h357v63h-361v98h470v-256h-357v-76h380v-97z" />
<glyph unicode="&#xac09;" horiz-adv-x="828" d="M459 808q-10 -149 -93 -271t-280 -223l-67 78q144 69 223 157.5t91 160.5h-271v98h397zM820 541h-140v-191h-109v519h109v-224h140v-104zM680 -118h-101v332h-159v98h260v-430zM454 -118h-332v267h175v65h-179v98h276v-257h-171v-76h231v-97z" />
<glyph unicode="&#xac0a;" horiz-adv-x="828" d="M459 808q-10 -149 -93 -271t-280 -223l-67 78q144 69 223 157.5t91 160.5h-271v98h397zM820 541h-140v-191h-109v519h109v-224h140v-104zM680 -118h-263v430h263v-430zM395 -118h-273v265h169v68h-173v97h268v-257h-165v-77h174v-96zM582 -22v237h-72v-237h72z" />
<glyph unicode="&#xac10;" horiz-adv-x="828" d="M458 797q-8 -159 -98.5 -283t-272.5 -222l-68 77q143 70 221.5 164.5t92.5 165.5h-271v98h396zM820 515h-140v-221h-109v575h109v-251h140v-103zM680 -113h-466v368h466v-368zM572 -16v174h-250v-174h250z" />
<glyph unicode="&#xac11;" horiz-adv-x="828" d="M459 797q-10 -151 -92 -270t-280 -228l-68 76q144 74 221.5 162t92.5 162h-271v98h397zM820 529h-140v-211h-109v551h109v-237h140v-103zM680 -118h-466v412h108v-102h250v102h108v-412zM572 -22v119h-250v-119h250z" />
<glyph unicode="&#xac12;" horiz-adv-x="828" d="M459 797q-10 -151 -92 -270t-280 -228l-68 76q144 74 221.5 162t92.5 162h-271v98h397zM820 529h-140v-211h-109v551h109v-237h140v-103zM435 -118h-312v412h100v-118h112v118h100v-318q40 37 68 89q39 73 39 184v46h101v-59q0 -60 -11 -113l155 -185l-72 -64l-122 145 q-42 -79 -124 -142l-34 33v-28zM335 -23v106h-112v-106h112z" />
<glyph unicode="&#xac13;" horiz-adv-x="828" d="M459 797q-14 -174 -108 -309.5t-268 -224.5l-67 73q160 87 234.5 190.5t83.5 172.5h-272v98h397zM820 501h-140v-277h-109v645h109v-263h140v-105zM472 150l249 -207l-68 -76l-226 194q-9 -16 -20 -30q-83 -104 -213 -162l-63 80q100 40 174.5 126.5t74.5 188.5v16h108 v-29q0 -51 -16 -101z" />
<glyph unicode="&#xac14;" horiz-adv-x="828" d="M458 797q-8 -159 -98.5 -283t-272.5 -222l-68 77q143 70 221.5 164.5t92.5 165.5h-271v98h396zM820 515h-140v-221h-109v575h109v-251h140v-103zM335 229q0 -53 -16 -105l100 -116q22 25 40 56q38 67 38 173v30h106v-38q0 -53 -12 -103l171 -180l-72 -66l-137 148 q-53 -95 -145 -154l-130 154q-55 -91 -150 -148l-68 70q77 45 122.5 117t45.5 170v30h107v-38z" />
<glyph unicode="&#xac15;" horiz-adv-x="828" d="M459 797q-14 -174 -108 -309.5t-268 -224.5l-67 73q160 87 234.5 190.5t83.5 172.5h-272v98h397zM820 510h-140v-228h-109v587h109v-254h140v-105zM575 76q0 46 -35 78t-85 32q-51 0 -86 -32t-35 -78t35 -77.5t86 -31.5q50 0 85 31.5t35 77.5zM684 76q0 -43 -17.5 -81.5 t-48.5 -66.5q-30 -29 -73 -44.5t-90 -15.5t-90 15.5t-74 44.5q-31 28 -48.5 66.5t-17.5 81.5t17.5 81.5t48.5 67.5q31 28 74 43.5t90 15.5t90 -15.5t73 -43.5q31 -29 48.5 -67.5t17.5 -81.5z" />
<glyph unicode="&#xac16;" horiz-adv-x="828" d="M458 797q-8 -159 -98.5 -283t-272.5 -222l-68 77q143 70 221.5 164.5t92.5 165.5h-271v98h396zM820 513h-140v-219h-109v575h109v-251h140v-105zM679 255q-9 -88 -115 -186l214 -113l-53 -86l-244 132q-114 -76 -287 -123l-53 80q122 31 225 87q108 62 148 114h-306v95 h471z" />
<glyph unicode="&#xac17;" horiz-adv-x="828" d="M459 808q-10 -149 -93 -271t-280 -223l-67 78q144 69 223 157.5t91 160.5h-271v98h397zM820 541h-140v-191h-109v519h109v-224h140v-104zM601 310v-85h-186q-93 0 -160 36l25 73q82 -24 147 -24h174zM679 184q-35 -82 -115 -148l197 -87l-48 -78l-234 106 q-136 -80 -289 -106l-54 79q115 25 212.5 66.5t132.5 74.5h-283v93h481z" />
<glyph unicode="&#xac19;" horiz-adv-x="828" d="M459 808q-10 -149 -93 -271t-280 -223l-67 78q144 69 223 157.5t91 160.5h-271v98h397zM820 541h-140v-191h-109v519h109v-224h140v-104zM689 -118h-475v429h466v-98h-357v-66h346v-94h-346v-74h366v-97z" />
<glyph unicode="&#xac1a;" horiz-adv-x="828" d="M458 797q-8 -159 -98.5 -283t-272.5 -222l-68 77q143 70 221.5 164.5t92.5 165.5h-271v98h396zM820 515h-140v-221h-109v575h109v-251h140v-103zM698 -17v-96h-541v96h96v176h-94v96h537v-96h-88v-176h90zM358 -17h145v176h-145v-176z" />
<glyph unicode="&#xac1b;" horiz-adv-x="828" d="M459 808q-10 -149 -92.5 -266.5t-280.5 -219.5l-67 78q144 68 223 153t91 157h-271v98h397zM820 542h-140v-192h-109v519h109v-223h140v-104zM605 323v-90h-189q-95 0 -159 36l26 79q87 -25 146 -25h176zM724 104h-124q7 -9 13 -19q18 -26 18 -59q0 -34 -15 -65.5 t-42 -54.5q-26 -23 -63 -35t-78 -12q-40 0 -77 12t-63 35q-27 23 -41 54.5t-14 65.5q0 33 17 59q5 10 12 19h-124v91h581v-91zM524 27q0 30 -26.5 51.5t-63.5 21.5q-39 0 -64.5 -21.5t-25.5 -51.5q0 -32 25.5 -52.5t64.5 -20.5q37 0 63.5 20.5t26.5 52.5z" />
<glyph unicode="&#xac1c;" horiz-adv-x="837" d="M423 743q-26 -386 -332 -600l-75 70q251 181 287 432h-241v98h361zM575 522h79v347h106v-972h-106v526h-79v-463h-102v888h102v-326z" />
<glyph unicode="&#xac1d;" horiz-adv-x="837" d="M422 797q-3 -151 -80 -289.5t-250 -246.5l-72 70q124 77 194.5 173t88.5 195h-241v98h360zM573 617h81v252h106v-586h-106v236h-81v-221h-103v550h103v-231zM755 -129h-109v275h-413v98h522v-373z" />
<glyph unicode="&#xac20;" horiz-adv-x="837" d="M422 787q-1 -47 -8 -94q-23 -145 -113.5 -261.5t-212.5 -191.5l-72 71q125 80 199.5 181.5t88.5 196.5h-242v98h360zM573 596h81v273h106v-705h-106v334h-81v-311h-103v661h103v-252zM772 -108h-508v329h109v-231h399v-98z" />
<glyph unicode="&#xac24;" horiz-adv-x="837" d="M423 808q-1 -134 -77 -262t-254 -241l-72 72q131 76 200.5 167t82.5 166h-241v98h361zM573 646h81v223h106v-524h-106v202h-81v-186h-103v487h103v-202zM778 -118h-499v266h367v61h-372v98h481v-254h-368v-74h391v-97z" />
<glyph unicode="&#xac2c;" horiz-adv-x="837" d="M422 797q0 -49 -8 -94q-24 -133 -110.5 -244.5t-211.5 -184.5l-72 73q131 77 199.5 171.5t83.5 180.5h-241v98h360zM573 622h81v248h106v-579h-106v233h-81v-217h-103v541h103v-226zM752 -113h-477v365h477v-365zM644 -16v171h-261v-171h261z" />
<glyph unicode="&#xac2d;" horiz-adv-x="837" d="M422 797q0 -49 -8 -94q-24 -130 -110.5 -241t-211.5 -183l-72 73q131 74 199.5 169t83.5 178h-241v98h360zM573 630h81v239h106v-556h-106v219h-81v-209h-103v525h103v-218zM755 -118h-476v407h107v-102h261v102h108v-407zM647 -22v114h-261v-114h261z" />
<glyph unicode="&#xac2f;" horiz-adv-x="837" d="M422 797q0 -42 -8 -94q-23 -145 -115.5 -263.5t-210.5 -189.5l-72 71q125 81 199.5 183t88.5 195h-242v98h360zM573 612h81v257h106v-643h-106v287h-81v-224h-103v559h103v-236zM523 140l250 -193l-66 -80l-231 183l-18 -25q-83 -99 -213 -156l-63 80q108 48 178.5 124 t70.5 175v9h109v-22q0 -49 -17 -95z" />
<glyph unicode="&#xac30;" horiz-adv-x="837" d="M422 797q0 -49 -8 -94q-24 -133 -110.5 -244.5t-211.5 -184.5l-72 73q131 77 199.5 171.5t83.5 180.5h-241v98h360zM573 622h81v248h106v-579h-106v233h-81v-217h-103v541h103v-226zM392 229q0 -53 -14 -104l100 -117q24 25 41 55q41 67 41 174v27h107v-34 q0 -53 -13 -103l173 -180l-68 -67l-144 149q-55 -95 -147 -156l-135 154q-54 -87 -151 -147l-66 70q77 44 123.5 116t46.5 171v27h106v-35z" />
<glyph unicode="&#xac31;" horiz-adv-x="837" d="M422 797q0 -42 -8 -94q-23 -145 -115.5 -263.5t-210.5 -189.5l-72 71q125 81 199.5 183t88.5 195h-242v98h360zM654 262v257h-81v-214h-103v543h103v-231h81v252h106v-607h-106zM627 71q0 44 -36 75t-88 31t-88 -31t-36 -75t36 -74.5t88 -30.5t88 30.5t36 74.5zM735 71 q0 -42 -17.5 -80t-48.5 -65q-32 -28 -75.5 -43.5t-90.5 -15.5t-90.5 15.5t-75.5 43.5q-32 27 -49.5 65t-17.5 80t17.5 80t49.5 65q32 28 75.5 43.5t90.5 15.5t90.5 -15.5t75.5 -43.5q31 -27 48.5 -65t17.5 -80z" />
<glyph unicode="&#xac38;" horiz-adv-x="828" d="M459 743q-20 -379 -372 -595l-70 73q289 178 321 424h-276v98h397zM824 515h-144v-149h144v-98h-144v-371h-108v972h108v-255h144v-99z" />
<glyph unicode="&#xac39;" horiz-adv-x="828" d="M458 797q-6 -155 -95.5 -286.5t-276.5 -227.5l-68 75q149 77 224.5 169.5t90.5 171.5h-271v98h396zM820 606h-140v-101h140v-99h-140v-123h-108v586h108v-164h140v-99zM680 -129h-109v275h-402v98h511v-373z" />
<glyph unicode="&#xac3c;" horiz-adv-x="828" d="M458 788q-11 -178 -106.5 -312t-269.5 -223l-67 76q160 84 236 188t83 173h-272v98h396zM820 586h-140v-113h140v-99h-140v-210h-108v705h108v-184h140v-99zM698 -108h-497v331h108v-233h389v-98z" />
<glyph unicode="&#xac40;" horiz-adv-x="828" d="M459 808q-10 -149 -93 -271t-280 -223l-67 78q144 69 223 157.5t91 160.5h-271v98h397zM820 618h-140v-85h140v-98h-140v-85h-108v519h108v-152h140v-99zM703 -118h-489v268h357v63h-361v98h470v-256h-357v-76h380v-97z" />
<glyph unicode="&#xac4b;" horiz-adv-x="828" d="M459 797q-14 -174 -108 -309.5t-268 -224.5l-67 73q160 87 234.5 190.5t83.5 172.5h-272v98h397zM820 597h-140v-107h140v-99h-140v-166h-108v644h108v-172h140v-100zM472 150l249 -207l-68 -76l-226 194q-9 -16 -20 -30q-83 -104 -213 -162l-63 80q100 40 174.5 126.5 t74.5 188.5v16h108v-29q0 -51 -16 -101z" />
<glyph unicode="&#xac4d;" horiz-adv-x="828" d="M459 797q-14 -174 -108 -309.5t-268 -224.5l-67 73q160 87 234.5 190.5t83.5 172.5h-272v98h397zM820 605h-140v-100h140v-99h-140v-124h-108v587h108v-165h140v-99zM575 76q0 46 -35 78t-85 32q-51 0 -86 -32t-35 -78t35 -77.5t86 -31.5q50 0 85 31.5t35 77.5zM684 76 q0 -43 -17.5 -81.5t-48.5 -66.5q-30 -29 -73 -44.5t-90 -15.5t-90 15.5t-74 44.5q-31 28 -48.5 66.5t-17.5 81.5t17.5 81.5t48.5 67.5q31 28 74 43.5t90 15.5t90 -15.5t73 -43.5q31 -29 48.5 -67.5t17.5 -81.5z" />
<glyph unicode="&#xac54;" horiz-adv-x="837" d="M423 743q-26 -386 -332 -600l-75 70q251 181 287 432h-241v98h361zM654 -103v389h-79v-326h-103v888h103v-198h79v219h106v-972h-106zM654 384v167h-79v-167h79z" />
<glyph unicode="&#xac58;" horiz-adv-x="837" d="M422 787q-1 -47 -8 -94q-23 -145 -113.5 -261.5t-212.5 -191.5l-72 71q125 80 199.5 181.5t88.5 196.5h-242v98h360zM572 472h83v115h-83v-115zM655 376h-83v-189h-103v661h103v-165h83v186h105v-705h-105v212zM772 -108h-508v329h109v-231h399v-98z" />
<glyph unicode="&#xac5c;" horiz-adv-x="837" d="M423 808q-1 -134 -77 -262t-254 -241l-72 72q131 76 200.5 167t82.5 166h-241v98h361zM655 345v103h-83v-87h-103v487h103v-117h83v138h105v-524h-105zM655 544v90h-83v-90h83zM778 -118h-499v266h367v61h-372v98h481v-254h-368v-74h391v-97z" />
<glyph unicode="&#xac70;" horiz-adv-x="791" d="M459 743q-6 -123 -47 -229h193v355h109v-972h-109v518h-194v97q-86 -219 -324 -364l-70 73q289 178 321 424h-276v98h397z" />
<glyph unicode="&#xac71;" horiz-adv-x="791" d="M458 797q-6 -155 -95.5 -286.5t-276.5 -227.5l-68 75q149 77 224.5 169.5t90.5 171.5h-271v98h396zM714 283h-109v214h-192v98h192v274h109v-586zM711 -129h-109v275h-402v98h511v-373z" />
<glyph unicode="&#xac74;" horiz-adv-x="791" d="M458 788q-11 -178 -106.5 -312t-269.5 -223l-67 76q160 84 236 188t83 173h-272v98h396zM714 164h-109v313h-195v99h195v293h109v-705zM728 -108h-498v329h109v-231h389v-98z" />
<glyph unicode="&#xac77;" horiz-adv-x="791" d="M458 797q-5 -105 -47 -197h194v269h109v-575h-109v208h-195v97q-21 -45 -51 -85q-90 -124 -272 -222l-68 77q143 70 221.5 164.5t92.5 165.5h-271v98h396zM720 -113h-475v368h466v-98h-358v-172h367v-98z" />
<glyph unicode="&#xac78;" horiz-adv-x="791" d="M459 808q-6 -96 -43 -181h189v242h109v-519h-109v179h-191v94q-20 -44 -48 -86q-83 -122 -280 -223l-67 78q144 69 223 157.5t91 160.5h-271v98h397zM734 -118h-489v268h357v63h-361v98h470v-256h-358v-76h381v-97z" />
<glyph unicode="&#xac7a;" horiz-adv-x="791" d="M459 808q-6 -96 -43 -181h189v242h109v-519h-109v179h-191v94q-20 -44 -48 -86q-83 -122 -280 -223l-67 78q144 69 223 157.5t91 160.5h-271v98h397zM713 -118h-263v430h263v-430zM428 -118h-273v265h169v68h-173v97h268v-257h-165v-77h174v-96zM614 -22v237h-71v-237h71 z" />
<glyph unicode="&#xac80;" horiz-adv-x="791" d="M458 797q-5 -105 -47 -197h194v269h109v-575h-109v208h-195v97q-21 -45 -51 -85q-90 -124 -272 -222l-68 77q143 70 221.5 164.5t92.5 165.5h-271v98h396zM713 -113h-466v368h466v-368zM605 -16v174h-251v-174h251z" />
<glyph unicode="&#xac81;" horiz-adv-x="791" d="M459 797q-10 -151 -92 -270t-280 -228l-68 76q144 74 221.5 162t92.5 162h-271v98h397zM714 318h-109v196h-189v100h189v255h109v-551zM711 -118h-466v412h107v-102h251v102h108v-412zM603 -22v119h-251v-119h251z" />
<glyph unicode="&#xac83;" horiz-adv-x="791" d="M459 797q-14 -174 -108 -309.5t-268 -224.5l-67 73q160 87 234.5 190.5t83.5 172.5h-272v98h397zM714 224h-109v264h-193v99h193v282h109v-645zM506 150l249 -207l-68 -76l-226 194q-9 -16 -21 -30q-83 -104 -213 -162l-62 80q100 40 174.5 126.5t74.5 188.5v16h108v-29 q0 -51 -16 -101z" />
<glyph unicode="&#xac84;" horiz-adv-x="791" d="M458 797q-5 -105 -47 -197h194v269h109v-575h-109v208h-195v97q-21 -45 -51 -85q-90 -124 -272 -222l-68 77q143 70 221.5 164.5t92.5 165.5h-271v98h396zM372 229q0 -53 -16 -105l100 -116q22 25 40 56q38 67 38 173v30h106v-38q0 -53 -12 -103l171 -180l-72 -66 l-137 148q-53 -95 -146 -154l-130 154q-54 -91 -149 -148l-68 70q77 45 122.5 117t45.5 170v30h107v-38z" />
<glyph unicode="&#xac85;" horiz-adv-x="791" d="M459 797q-14 -174 -108 -309.5t-268 -224.5l-67 73q160 87 234.5 190.5t83.5 172.5h-272v98h397zM714 280h-109v208h-193v98h193v283h109v-589zM604 76q0 46 -35 78t-86 32q-50 0 -85.5 -32t-35.5 -78t35.5 -77.5t85.5 -31.5q51 0 86 31.5t35 77.5zM713 76 q0 -43 -17.5 -81.5t-48.5 -66.5q-31 -29 -74 -44.5t-90 -15.5t-90 15.5t-74 44.5q-30 28 -47.5 66.5t-17.5 81.5t17.5 81.5t47.5 67.5q31 28 74 43.5t90 15.5t90 -15.5t74 -43.5q31 -29 48.5 -67.5t17.5 -81.5z" />
<glyph unicode="&#xac86;" horiz-adv-x="791" d="M458 797q-5 -105 -47 -196h194v268h109v-575h-109v209h-195v96q-21 -45 -51 -85q-90 -124 -272 -222l-68 77q143 70 221.5 164.5t92.5 165.5h-271v98h396zM699 255q-9 -88 -114 -186l214 -113l-54 -86l-243 132q-115 -76 -288 -123l-52 80q122 31 224 87q109 62 149 114 h-307v95h471z" />
<glyph unicode="&#xac89;" horiz-adv-x="791" d="M459 808q-6 -96 -43 -181h189v242h109v-519h-109v179h-191v94q-20 -44 -48 -86q-83 -122 -280 -223l-67 78q144 69 223 157.5t91 160.5h-271v98h397zM720 -118h-475v429h466v-98h-358v-66h346v-94h-346v-74h367v-97z" />
<glyph unicode="&#xac8a;" horiz-adv-x="791" d="M458 797q-5 -105 -47 -197h194v269h109v-575h-109v208h-195v97q-21 -45 -51 -85q-90 -124 -272 -222l-68 77q143 70 221.5 164.5t92.5 165.5h-271v98h396zM729 -17v-96h-542v96h97v176h-95v96h538v-96h-88v-176h90zM389 -17h145v176h-145v-176z" />
<glyph unicode="&#xac8b;" horiz-adv-x="791" d="M459 808q-6 -95 -42 -177h188v238h109v-519h-109v183h-192v90q-20 -43 -46 -81q-83 -118 -281 -220l-67 78q144 68 223 153t91 157h-271v98h397zM636 323v-90h-190q-95 0 -158 36l25 79q87 -25 147 -25h176zM755 104h-124q7 -9 13 -19q18 -26 18 -59q0 -34 -15 -65.5 t-42 -54.5q-26 -23 -63 -35t-78 -12q-40 0 -77 12t-63 35q-27 23 -41.5 54.5t-14.5 65.5q0 33 18 59q5 10 12 19h-124v91h581v-91zM555 27q0 30 -26.5 51.5t-63.5 21.5q-39 0 -64.5 -21.5t-25.5 -51.5q0 -32 25.5 -52.5t64.5 -20.5q37 0 63.5 20.5t26.5 52.5z" />
<glyph unicode="&#xac8c;" horiz-adv-x="837" d="M423 743q-8 -127 -47 -236h107v341h105v-888h-105v449h-151q-83 -156 -241 -266l-75 70q251 181 287 432h-241v98h361zM760 -103h-106v972h106v-972z" />
<glyph unicode="&#xac90;" horiz-adv-x="837" d="M422 787q-1 -47 -8 -94q-10 -62 -32 -118h101v273h105v-665h-105v294h-150q-16 -23 -32 -45q-91 -117 -213 -192l-72 71q125 80 199.5 181.5t88.5 196.5h-242v98h360zM760 160h-106v709h106v-709zM772 -108h-508v329h109v-231h399v-98z" />
<glyph unicode="&#xac94;" horiz-adv-x="837" d="M423 808q-1 -93 -38 -183h98v223h105v-487h-105v166h-149q-77 -117 -242 -222l-72 72q131 76 200.5 167t82.5 166h-241v98h361zM760 345h-106v524h106v-524zM778 -118h-499v266h367v61h-372v98h481v-254h-368v-74h391v-97z" />
<glyph unicode="&#xac9c;" horiz-adv-x="837" d="M422 797q0 -49 -8 -94q-10 -53 -29 -103h98v248h105v-541h-105v195h-148q-14 -22 -31 -44q-87 -111 -212 -184l-72 73q131 77 199.5 171.5t83.5 180.5h-241v98h360zM760 291h-106v578h106v-578zM752 -113h-477v365h477v-365zM644 -16v171h-261v-171h261z" />
<glyph unicode="&#xac9d;" horiz-adv-x="837" d="M422 797q0 -49 -8 -94t-24 -88h93v233h105v-525h-105v194h-141q-17 -28 -38 -55q-87 -111 -212 -183l-72 73q131 74 199.5 169t83.5 178h-241v98h360zM760 313h-106v556h106v-556zM755 -118h-476v407h107v-102h261v102h108v-407zM647 -22v114h-261v-114h261z" />
<glyph unicode="&#xac9f;" horiz-adv-x="837" d="M422 797q0 -42 -8 -94q-10 -56 -29 -110h98v255h105v-559h-105v206h-146q-18 -29 -38 -55q-93 -119 -211 -190l-72 71q125 81 199.5 183t88.5 195h-242v98h360zM760 226h-106v643h106v-643zM523 140l250 -193l-66 -80l-231 183l-18 -25q-83 -99 -213 -156l-63 80 q108 48 178.5 124t70.5 175v9h109v-22q0 -49 -17 -95z" />
<glyph unicode="&#xaca0;" horiz-adv-x="837" d="M422 797q0 -49 -8 -94q-10 -53 -29 -103h98v248h105v-541h-105v195h-148q-14 -22 -31 -44q-87 -111 -212 -184l-72 73q131 77 199.5 171.5t83.5 180.5h-241v98h360zM760 291h-106v578h106v-578zM392 229q0 -53 -14 -104l100 -117q24 25 41 55q41 67 41 174v27h107v-34 q0 -53 -13 -103l173 -180l-68 -67l-144 149q-55 -95 -147 -156l-135 154q-54 -87 -151 -147l-66 70q77 44 123.5 116t46.5 171v27h106v-35z" />
<glyph unicode="&#xaca1;" horiz-adv-x="837" d="M422 797q0 -42 -8 -94q-10 -56 -29 -110h98v255h105v-543h-105v190h-146q-18 -29 -38 -55q-93 -119 -211 -190l-72 71q125 81 199.5 183t88.5 195h-242v98h360zM760 262h-106v607h106v-607zM627 71q0 44 -36 75t-88 31t-88 -31t-36 -75t36 -74.5t88 -30.5t88 30.5 t36 74.5zM735 71q0 -42 -17.5 -80t-48.5 -65q-32 -28 -75.5 -43.5t-90.5 -15.5t-90.5 15.5t-75.5 43.5q-32 27 -49.5 65t-17.5 80t17.5 80t49.5 65q32 28 75.5 43.5t90.5 15.5t90.5 -15.5t75.5 -43.5q31 -27 48.5 -65t17.5 -80z" />
<glyph unicode="&#xaca8;" horiz-adv-x="791" d="M459 743q-4 -76 -21 -145h168v271h108v-972h-108v385h-214v98h214v120h-200q-89 -211 -319 -352l-70 73q289 178 321 424h-276v98h397z" />
<glyph unicode="&#xaca9;" horiz-adv-x="791" d="M458 797q-2 -51 -14 -99h162v171h108v-586h-108v119h-214v98h214v99h-194q-21 -45 -50 -88q-89 -132 -276 -228l-68 75q149 77 224.5 169.5t90.5 171.5h-271v98h396zM711 -129h-109v275h-402v98h511v-373z" />
<glyph unicode="&#xacaa;" horiz-adv-x="791" d="M458 797q-2 -51 -14 -99h162v171h108v-586h-108v119h-214v98h214v99h-194q-21 -45 -50 -88q-89 -132 -276 -228l-68 75q149 77 224.5 169.5t90.5 171.5h-271v98h396zM438 244v-373h-105v275h-185v98h290zM713 244v-373h-106v275h-148v98h254z" />
<glyph unicode="&#xacac;" horiz-adv-x="791" d="M458 788q-3 -60 -17 -114h165v195h108v-705h-108v205h-214v98h214v109h-197q-24 -52 -57 -99q-96 -135 -270 -224l-67 76q160 84 236 188t83 173h-272v98h396zM728 -108h-498v329h109v-231h389v-98z" />
<glyph unicode="&#xacaf;" horiz-adv-x="791" d="M458 797q-3 -52 -15 -101h163v173h108v-575h-108v114h-214v98h214v91h-197q-21 -43 -50 -83q-90 -124 -272 -222l-68 77q143 70 221.5 164.5t92.5 165.5h-271v98h396zM720 -113h-475v368h466v-98h-358v-172h367v-98z" />
<glyph unicode="&#xacb0;" horiz-adv-x="791" d="M459 808q-3 -50 -16 -97h163v158h108v-519h-108v75h-214v99h214v88h-197q-19 -39 -43 -75q-83 -122 -280 -223l-67 78q144 69 223 157.5t91 160.5h-271v98h397zM734 -118h-489v268h357v63h-361v98h470v-256h-358v-76h381v-97z" />
<glyph unicode="&#xacb8;" horiz-adv-x="791" d="M458 797q-3 -52 -15 -101h163v173h108v-575h-108v114h-214v98h214v91h-197q-21 -43 -50 -83q-90 -124 -272 -222l-68 77q143 70 221.5 164.5t92.5 165.5h-271v98h396zM713 -113h-466v368h466v-368zM605 -16v174h-251v-174h251z" />
<glyph unicode="&#xacb9;" horiz-adv-x="791" d="M459 797q-3 -50 -15 -96h162v168h108v-551h-108v100h-214v99h214v86h-196q-19 -39 -43 -76q-82 -119 -280 -228l-68 76q144 74 221.5 162t92.5 162h-271v98h397zM711 -118h-466v412h107v-102h251v102h108v-412zM603 -22v119h-251v-119h251z" />
<glyph unicode="&#xacbb;" horiz-adv-x="791" d="M459 797q-4 -53 -16 -102h163v174h108v-645h-108v180h-216v98h216v94h-194q-25 -57 -61 -108q-94 -136 -268 -225l-67 73q160 87 234.5 190.5t83.5 172.5h-272v98h397zM506 150l249 -207l-68 -76l-226 194q-9 -16 -21 -30q-83 -104 -213 -162l-62 80q100 40 174.5 126.5 t74.5 188.5v16h108v-29q0 -51 -16 -101z" />
<glyph unicode="&#xacbc;" horiz-adv-x="791" d="M458 797q-3 -52 -15 -101h163v173h108v-575h-108v114h-214v98h214v91h-197q-21 -43 -50 -83q-90 -124 -272 -222l-68 77q143 70 221.5 164.5t92.5 165.5h-271v98h396zM372 229q0 -53 -16 -105l100 -116q22 25 40 56q38 67 38 173v30h106v-38q0 -53 -12 -103l171 -180 l-72 -66l-137 148q-53 -95 -146 -154l-130 154q-54 -91 -149 -148l-68 70q77 45 122.5 117t45.5 170v30h107v-38z" />
<glyph unicode="&#xacbd;" horiz-adv-x="791" d="M459 797q-4 -53 -16 -102h163v174h108v-589h-108v124h-216v98h216v94h-194q-25 -57 -61 -108q-94 -136 -268 -225l-67 73q160 87 234.5 190.5t83.5 172.5h-272v98h397zM604 76q0 46 -35 78t-86 32q-50 0 -85.5 -32t-35.5 -78t35.5 -77.5t85.5 -31.5q51 0 86 31.5t35 77.5 zM713 76q0 -43 -17.5 -81.5t-48.5 -66.5q-31 -29 -74 -44.5t-90 -15.5t-90 15.5t-74 44.5q-30 28 -47.5 66.5t-17.5 81.5t17.5 81.5t47.5 67.5q31 28 74 43.5t90 15.5t90 -15.5t74 -43.5q31 -29 48.5 -67.5t17.5 -81.5z" />
<glyph unicode="&#xacc1;" horiz-adv-x="791" d="M459 808q-3 -50 -16 -97h163v158h108v-519h-108v75h-214v99h214v88h-197q-19 -39 -43 -75q-83 -122 -280 -223l-67 78q144 69 223 157.5t91 160.5h-271v98h397zM720 -118h-475v429h466v-98h-358v-66h346v-94h-346v-74h367v-97z" />
<glyph unicode="&#xacc4;" horiz-adv-x="837" d="M423 743q-5 -74 -20 -140h80v245h104v-888h-104v327h-122v97h122v121h-108q-79 -220 -284 -362l-75 70q251 181 287 432h-241v98h361zM760 -103h-106v972h106v-972z" />
<glyph unicode="&#xacc8;" horiz-adv-x="837" d="M422 787q-1 -47 -8 -94q-2 -15 -5 -28h75v183h104v-661h-104v182h-133v97h133v101h-105q-29 -72 -78 -135q-91 -117 -213 -192l-72 71q125 80 199.5 181.5t88.5 196.5h-242v98h360zM760 164h-106v705h106v-705zM772 -108h-508v329h109v-231h399v-98z" />
<glyph unicode="&#xaccc;" horiz-adv-x="837" d="M423 808q0 -55 -13 -108h74v148h104v-487h-104v74h-134v98h134v68h-109q-13 -27 -29 -55q-76 -128 -254 -241l-72 72q131 76 200.5 167t82.5 166h-241v98h361zM760 345h-106v524h106v-524zM778 -118h-499v266h367v61h-372v98h481v-254h-368v-74h391v-97z" />
<glyph unicode="&#xacd5;" horiz-adv-x="837" d="M422 797q0 -49 -8 -94q-1 -6 -2 -11h72v156h104v-525h-104v96h-134v99h134v75h-103q-29 -68 -77 -131q-87 -111 -212 -183l-72 73q131 74 199.5 169t83.5 178h-241v98h360zM760 313h-106v556h106v-556zM755 -118h-476v407h107v-102h261v102h108v-407zM647 -22v114h-261 v-114h261z" />
<glyph unicode="&#xacd7;" horiz-adv-x="837" d="M422 797q0 -42 -8 -94l-4 -22h74v167h104v-559h-104v111h-134v97h134v87h-102q-31 -77 -83 -144q-93 -119 -211 -190l-72 71q125 81 199.5 183t88.5 195h-242v98h360zM760 226h-106v643h106v-643zM523 140l250 -193l-66 -80l-231 183l-18 -25q-83 -99 -213 -156l-63 80 q108 48 178.5 124t70.5 175v9h109v-22q0 -49 -17 -95z" />
<glyph unicode="&#xace0;" d="M659 577q-1 -161 -49 -342h-108q50 189 50 342v90h-421v98h528v-188zM814 20h-803v99h291v326h109v-326h403v-99z" />
<glyph unicode="&#xace1;" d="M657 828q0 -119 -7 -209.5t-24 -160.5h-107q18 79 24 155.5t6 115.5h-413v99h521zM11 404h290v177h110v-177h403v-99h-803v99zM654 -128h-108v256h-401v99h509v-355z" />
<glyph unicode="&#xace4;" d="M657 828q0 -119 -7 -219t-24 -171h-107q18 81 24 166.5t6 124.5h-413v99h521zM11 370h290v211h110v-211h403v-98h-803v98zM689 -108h-522v308h108v-210h414v-98z" />
<glyph unicode="&#xace7;" d="M657 828q0 -119 -7 -209.5t-24 -160.5h-107q18 79 24 155.5t6 115.5h-413v99h521zM11 407h290v182h110v-182h403v-98h-803v98zM678 -114h-513v354h504v-98h-396v-158h405v-98z" />
<glyph unicode="&#xace8;" d="M657 840q0 -119 -7 -195.5t-24 -147.5h-107q18 80 24 143t6 103h-413v97h521zM11 467h290v156h110v-156h403v-98h-803v98zM679 -118h-514v262h386v68h-392v97h499v-258h-386v-73h407v-96z" />
<glyph unicode="&#xacea;" d="M657 840q0 -119 -7 -195.5t-24 -147.5h-107q18 80 24 143t6 103h-413v97h521zM11 467h290v156h110v-156h403v-98h-803v98zM713 -118h-282v426h282v-426zM407 -118h-295v264h189v66h-193v96h289v-254h-185v-77h195v-95zM613 -23v235h-88v-235h88z" />
<glyph unicode="&#xacec;" d="M657 840q0 -119 -7 -195.5t-24 -147.5h-107q18 80 24 143t6 103h-413v97h521zM11 467h290v156h110v-156h403v-98h-803v98zM420 -118h-308v264h199v66h-203v96h303v-254h-198v-77h207v-14q54 46 83 109q35 75 35 163v73h104v-86q0 -50 -12 -98l152 -187l-75 -65l-117 147 q-49 -91 -124 -144l-46 48v-41z" />
<glyph unicode="&#xacef;" d="M657 840q0 -119 -7 -195.5t-24 -147.5h-107q18 80 24 143t6 103h-413v97h521zM11 467h290v156h110v-156h403v-98h-803v98zM429 -23v-95h-317v264h185v66h-189v96h285v-254h-181v-77h217zM769 105h-62q8 -11 15 -23q14 -26 14 -57q0 -32 -11 -61.5t-33 -51.5 q-20 -20 -49.5 -32t-60.5 -12q-32 0 -61 12t-50 32q-21 22 -32.5 51.5t-11.5 61.5q0 31 15 57q7 12 15 23h-45v86h357v-86zM694 308v-81h-106q-58 0 -122 23l16 72q77 -14 119 -14h93zM639 24q0 30 -17 50t-41 20t-40.5 -20t-16.5 -50q0 -29 16.5 -48.5t40.5 -19.5t41 19.5 t17 48.5z" />
<glyph unicode="&#xacf0;" d="M657 828q0 -119 -7 -209.5t-24 -160.5h-107q18 79 24 155.5t6 115.5h-413v99h521zM11 407h290v182h110v-182h403v-98h-803v98zM552 -16v159h-280v-159h280zM165 240h494v-353h-494v353z" />
<glyph unicode="&#xacf1;" d="M657 828q0 -119 -7 -201t-24 -152h-107q18 79 24 147t6 107h-413v99h521zM11 419h290v191h110v-191h403v-98h-803v98zM659 -118h-494v401h108v-104h278v104h108v-401zM551 -22v105h-278v-105h278z" />
<glyph unicode="&#xacf3;" d="M657 828q0 -119 -7 -209.5t-24 -160.5h-107q18 79 24 155.5t6 115.5h-413v99h521zM11 387h290v194h110v-194h403v-98h-803v98zM454 133l269 -186l-61 -84l-259 178q-90 -114 -248 -174l-60 85q117 41 190 114.5t73 163.5v9h109v-23q0 -43 -13 -83z" />
<glyph unicode="&#xacf5;" d="M657 828q0 -119 -7 -209.5t-24 -160.5h-107q18 79 24 155.5t6 115.5h-413v99h521zM11 412h290v177h110v-177h403v-98h-803v98zM549 73q0 44 -39 75.5t-97 31.5t-96 -31.5t-38 -75.5t38 -75t96 -31t97 31t39 75zM657 73q0 -42 -18.5 -81t-51.5 -65q-33 -28 -79 -43.5 t-95 -15.5q-48 0 -94.5 15.5t-78.5 43.5q-33 27 -51.5 65.5t-18.5 80.5t18.5 80.5t51.5 66.5q32 27 78.5 42.5t94.5 15.5q49 0 95 -15.5t79 -42.5q33 -28 51.5 -66.5t18.5 -80.5z" />
<glyph unicode="&#xacf6;" d="M657 828q0 -119 -7 -209.5t-24 -160.5h-107q18 79 24 155.5t6 115.5h-413v99h521zM11 407h290v182h110v-182h403v-98h-803v98zM617 154q-30 -50 -81 -96l210 -113l-56 -83l-243 130q-118 -78 -281 -124l-58 83q117 27 232 91.5t139 100.5h-304v97h472q-1 -39 -30 -86z " />
<glyph unicode="&#xacfc;" horiz-adv-x="845" d="M510 755q0 -143 -9 -244.5t-32 -187.5h-109q19 74 30 163.5t11 170.5h-332v98h441zM841 395h-139v-498h-108v972h108v-372h139v-102zM189 224v264h109v-264q40 1 99 3q96 2 180 18v-97q-83 -17 -171.5 -20t-149.5 -3h-241v99h174z" />
<glyph unicode="&#xacfd;" horiz-adv-x="845" d="M510 810q0 -125 -7 -198t-30 -155h-109q20 68 28.5 137t8.5 122h-332v94h441zM841 526h-139v-274h-108v617h108v-245h139v-98zM189 380v200h109v-200q36 1 93 2q97 2 186 20v-93q-84 -17 -172 -20t-149 -3h-241v94h174zM701 -129h-108v252h-390v94h498v-346z" />
<glyph unicode="&#xad00;" horiz-adv-x="845" d="M510 795q0 -131 -7 -207.5t-30 -157.5h-109q20 68 28.5 136.5t8.5 134.5h-332v94h441zM841 454h-139v-325h-108v740h108v-317h139v-98zM189 360v201h109v-201q42 1 98 2q87 2 181 19v-93q-84 -16 -172 -19t-149 -3h-241v94h174zM709 -108h-506v308h107v-212h399v-96z" />
<glyph unicode="&#xad04;" horiz-adv-x="845" d="M510 820q0 -114 -7 -177t-30 -142h-109q20 67 28.5 126t8.5 100h-332v93h441zM841 545h-139v-225h-108v549h108v-226h139v-98zM189 440v168h109v-168q39 1 95 2q90 2 184 19v-92q-84 -16 -174 -18.5t-147 -2.5h-241v92h174zM723 -118h-509v252h379v64h-384v91h492v-244 h-376v-72h398v-91z" />
<glyph unicode="&#xad06;" horiz-adv-x="845" d="M510 820q0 -114 -7 -177t-30 -142h-109q20 67 28.5 126t8.5 100h-332v93h441zM841 545h-139v-225h-108v549h108v-226h139v-98zM189 440v168h109v-168q39 1 95 2q90 2 184 19v-92q-84 -16 -174 -18.5t-147 -2.5h-241v92h174zM702 -118h-272v407h272v-407zM406 -118h-286 v253h179v63h-183v91h280v-243h-175v-73h185v-91zM602 -27v225h-77v-225h77z" />
<glyph unicode="&#xad0c;" horiz-adv-x="845" d="M510 810q0 -115 -7 -190.5t-30 -156.5h-109q20 68 28.5 138.5t8.5 114.5h-332v94h441zM841 526h-139v-265h-108v608h108v-245h139v-98zM189 392v188h109v-188q36 1 93 2q97 2 186 19v-93q-84 -16 -172 -19.5t-149 -3.5h-241v95h174zM701 -113h-487v343h487v-343zM594 -20 v157h-272v-157h272z" />
<glyph unicode="&#xad0d;" horiz-adv-x="845" d="M510 810q0 -115 -7 -185.5t-30 -151.5h-109q20 68 28.5 134.5t8.5 109.5h-332v93h441zM841 536h-139v-232h-108v565h108v-235h139v-98zM189 412v174h109v-174q36 1 93 2q97 2 186 20v-93q-84 -16 -172 -19t-149 -3h-241v93h174zM701 -118h-487v393h108v-97h272v97h107 v-393zM594 -26v113h-272v-113h272z" />
<glyph unicode="&#xad0f;" horiz-adv-x="845" d="M510 810q0 -125 -7 -198t-30 -155h-109q20 68 28.5 137t8.5 122h-332v94h441zM841 526h-139v-315h-108v658h108v-245h139v-98zM189 393v187h109v-187q36 1 93 2q97 2 186 19v-93q-84 -16 -172 -19.5t-149 -3.5h-241v95h174zM496 134l244 -192l-63 -75l-227 179 q-13 -17 -28 -34q-88 -100 -208 -143l-57 77q110 45 177 122.5t67 168.5v16h109v-28q0 -47 -14 -91z" />
<glyph unicode="&#xad11;" horiz-adv-x="845" d="M510 810q0 -115 -7 -185.5t-30 -151.5h-109q20 68 28.5 134t8.5 109h-332v94h441zM841 526h-139v-263h-108v606h108v-245h139v-98zM189 408v182h109v-182q36 1 93 2q97 2 186 19v-93q-84 -16 -172 -19t-149 -3h-241v94h174zM593 67q0 48 -35 77.5t-90 29.5 q-56 0 -89.5 -29.5t-33.5 -77.5t33.5 -77t89.5 -29q55 0 90 29t35 77zM701 67q0 -41 -17 -78.5t-50 -64.5q-32 -28 -75.5 -42.5t-90.5 -14.5q-46 0 -89.5 14.5t-75.5 42.5q-33 27 -49.5 64.5t-16.5 78.5q0 42 16.5 79.5t49.5 64.5q32 28 75.5 43t89.5 15q47 0 90.5 -15 t75.5 -43q33 -27 50 -64.5t17 -79.5z" />
<glyph unicode="&#xad18;" horiz-adv-x="859" d="M441 755q0 -143 -9 -244.5t-32 -187.5h-107q18 75 30 164t12 170h-280v98h386zM607 504h69v365h106v-972h-106v509h-69v-446h-105v888h105v-344zM148 224v264h109v-264q44 1 91 3q60 2 135 15v-98q-70 -14 -132 -16.5t-115 -2.5h-221v99h133z" />
<glyph unicode="&#xad1c;" horiz-adv-x="859" d="M441 795q0 -132 -9.5 -209.5t-32.5 -157.5h-107q20 68 31.5 138t11.5 135h-280v94h386zM604 592h72v277h106v-735h-106v364h-72v-342h-105v692h105v-256zM148 363v207h109v-207q42 0 86 2q56 2 137 16v-94q-76 -14 -137 -16t-111 -2h-217v94h133zM793 -108h-537v311h108 v-215h429v-96z" />
<glyph unicode="&#xad20;" horiz-adv-x="859" d="M441 820q0 -110 -9 -181t-32 -151h-107q20 67 31 135.5t11 103.5h-280v93h386zM604 622h72v247h106v-546h-106v207h-72v-198h-105v516h105v-226zM148 432v167h109v-167q42 0 86 2q56 2 137 16v-92q-76 -15 -137 -17t-111 -2h-217v93h133zM800 -118h-530v253h400v65h-405 v91h513v-245h-397v-73h419v-91z" />
<glyph unicode="&#xad29;" horiz-adv-x="859" d="M441 810q0 -115 -9 -193t-32 -158h-107q20 68 31 141.5t11 116.5h-280v93h386zM604 622h72v247h106v-565h-106v225h-72v-221h-105v540h105v-226zM148 406v183h109v-183q42 0 86 2q56 2 137 16v-93q-76 -14 -137 -16t-111 -2h-217v93h133zM778 -118h-508v393h108v-97h293 v97h107v-393zM671 -25v111h-293v-111h293z" />
<glyph unicode="&#xad2c;" horiz-adv-x="859" d="M441 810q0 -115 -9 -193.5t-32 -158.5h-107q20 68 31 141.5t11 116.5h-280v94h386zM604 622h72v247h106v-606h-106v265h-72v-248h-105v568h105v-226zM148 389v195h109v-195q42 0 86 2q56 2 137 16v-94q-76 -15 -137 -17t-111 -2h-217v95h133zM604 21q-61 -94 -144 -149 l-137 145q-53 -81 -146 -137l-66 68q74 43 118.5 109t44.5 153v26h107v-34q0 -48 -14 -94l99 -107q23 24 43 55q40 62 40 154v26h106v-34q0 -45 -11 -87l172 -167l-67 -68z" />
<glyph unicode="&#xad2d;" horiz-adv-x="859" d="M441 810q0 -115 -9 -191t-32 -156h-107q20 68 31 139t11 114h-280v94h386zM604 622h72v247h106v-617h-106v276h-72v-239h-105v559h105v-226zM148 394v190h109v-190q42 0 86 2q56 2 137 16v-94q-76 -14 -137 -16.5t-111 -2.5h-217v95h133zM639 66q0 45 -35.5 75t-89.5 30 q-53 0 -88 -30t-35 -75t35 -74t88 -29q54 0 89.5 29t35.5 74zM748 66q0 -40 -17.5 -77t-50.5 -64q-32 -28 -75.5 -42.5t-90.5 -14.5q-46 0 -89.5 14.5t-75.5 42.5q-33 27 -49.5 64t-16.5 77q0 41 16.5 78t49.5 64q32 28 75.5 43t89.5 15q47 0 90.5 -15t75.5 -43 q33 -27 50.5 -64t17.5 -78z" />
<glyph unicode="&#xad34;" horiz-adv-x="803" d="M519 755q0 -143 -9 -244.5t-32 -187.5h-108q18 74 29.5 163.5t11.5 170.5h-337v98h445zM197 224v254h108v-254q40 1 103 3q95 2 179 19v-97q-83 -18 -171 -21t-150 -3h-251v99h182zM726 -103h-109v972h109v-972z" />
<glyph unicode="&#xad35;" horiz-adv-x="803" d="M519 810q0 -125 -7 -198t-30 -155h-109q20 68 29 137t9 122h-337v94h445zM197 380v200h108v-200q37 1 96 2q98 2 186 21v-93q-84 -18 -171.5 -21t-149.5 -3h-251v94h182zM726 869v-617h-109v617h109zM725 -129h-109v252h-390v94h499v-346z" />
<glyph unicode="&#xad38;" horiz-adv-x="803" d="M519 795q0 -131 -7 -207.5t-30 -157.5h-109q20 68 29 136.5t9 134.5h-337v94h445zM197 360v201h108v-201q43 1 102 2q87 2 180 20v-93q-84 -17 -171.5 -20t-149.5 -3h-251v94h182zM726 869v-740h-109v740h109zM742 -108h-505v307h107v-211h398v-96z" />
<glyph unicode="&#xad3c;" horiz-adv-x="803" d="M520 820q0 -114 -7 -177t-30 -142h-109q20 67 29 126t9 100h-337v93h445zM197 440v167h108v-167q40 1 98 2q91 2 184 20v-92q-84 -17 -173.5 -19.5t-147.5 -2.5h-251v92h182zM726 869v-549h-109v549h109zM746 -118h-508v253h378v63h-384v91h493v-244h-377v-72h398v-91z " />
<glyph unicode="&#xad44;" horiz-adv-x="803" d="M519 810q0 -115 -7 -190.5t-30 -156.5h-109q20 68 29 138.5t9 114.5h-337v94h445zM197 392v188h108v-188q37 1 96 2q98 2 186 20v-93q-84 -17 -171.5 -20.5t-149.5 -3.5h-251v95h182zM726 869v-608h-109v608h109zM725 -113h-487v343h487v-343zM617 -20v157h-272v-157h272 z" />
<glyph unicode="&#xad45;" horiz-adv-x="803" d="M519 810q0 -115 -7 -185.5t-30 -151.5h-109q20 68 29 134.5t9 109.5h-337v93h445zM197 412v173h108v-173q37 1 96 2q98 2 186 21v-93q-84 -17 -171.5 -20t-149.5 -3h-251v93h182zM726 869v-565h-109v565h109zM725 -118h-487v393h107v-97h272v97h108v-393zM617 -26v113 h-272v-113h272z" />
<glyph unicode="&#xad47;" horiz-adv-x="803" d="M519 810q0 -125 -7 -198t-30 -155h-109q20 68 29 137t9 122h-337v94h445zM726 869v-658h-109v658h109zM197 393v187h108v-187q37 1 96 2q98 2 186 20v-93q-84 -17 -171.5 -20.5t-149.5 -3.5h-251v95h182zM519 134l245 -192l-64 -75l-227 179q-12 -17 -28 -34 q-88 -100 -207 -143l-58 77q111 45 178 122.5t67 168.5v16h109v-28q0 -47 -15 -91z" />
<glyph unicode="&#xad49;" horiz-adv-x="803" d="M519 810q0 -115 -7 -185.5t-30 -151.5h-109q20 68 29 134t9 109h-337v94h445zM197 408v182h108v-182q37 1 96 2q98 2 186 20v-93q-84 -17 -171.5 -20t-149.5 -3h-251v94h182zM726 869v-606h-109v606h109zM613 67q0 48 -34.5 77.5t-90.5 29.5t-89 -29.5t-33 -77.5t33 -77 t89 -29t90.5 29t34.5 77zM722 67q0 -41 -17.5 -78.5t-50.5 -64.5q-31 -28 -74.5 -42.5t-91.5 -14.5q-46 0 -89.5 14.5t-74.5 42.5q-33 27 -50 64.5t-17 78.5q0 42 17 79.5t50 64.5q31 28 74.5 43t89.5 15q48 0 91.5 -15t74.5 -43q33 -27 50.5 -64.5t17.5 -79.5z" />
<glyph unicode="&#xad50;" d="M664 574q-1 -158 -44 -329h-109q45 179 45 329v93h-425v98h533v-191zM814 20h-803v98h191v293h105v-293h82v293h106v-293h319v-98z" />
<glyph unicode="&#xad54;" d="M657 828q0 -119 -7 -219t-24 -171h-107q18 81 24 166.5t6 124.5h-413v99h521zM210 365v212h105v-212h78v212h104v-212h317v-98h-803v98h199zM689 -108h-522v308h108v-210h414v-98z" />
<glyph unicode="&#xad58;" d="M657 840q0 -119 -7 -195.5t-24 -147.5h-107q18 80 24 143t6 103h-413v97h521zM211 460v152h105v-152h77v152h104v-152h317v-97h-803v97h200zM679 -118h-514v262h386v68h-392v97h499v-258h-386v-73h407v-96z" />
<glyph unicode="&#xad61;" d="M657 828q0 -119 -7 -201t-24 -152h-107q18 79 24 147t6 107h-413v99h521zM210 416v182h105v-182h78v182h104v-182h317v-97h-803v97h199zM659 -118h-494v401h108v-104h278v104h108v-401zM551 -22v105h-278v-105h278z" />
<glyph unicode="&#xad63;" d="M657 828q0 -119 -7 -209.5t-24 -160.5h-107q18 79 24 155.5t6 115.5h-413v99h521zM210 379v191h105v-191h78v191h104v-191h317v-98h-803v98h199zM454 133l269 -186l-61 -84l-259 178q-90 -114 -248 -174l-60 85q117 41 190 114.5t73 163.5v9h109v-23q0 -43 -13 -83z" />
<glyph unicode="&#xad6c;" d="M657 807q0 -97 -9.5 -203t-24.5 -187h-108q19 97 26.5 182.5t7.5 109.5h-413v98h521zM814 276h-358v-379h-109v379h-336v99h803v-99z" />
<glyph unicode="&#xad6d;" d="M657 828q0 -102 -8 -201q-7 -73 -16 -138h181v-99h-347v-151h187v-367h-108v269h-401v98h213v151h-347v99h515q12 73 17 135q6 82 6 105h-413v99h521z" />
<glyph unicode="&#xad70;" d="M657 828q0 -110 -10 -224q-7 -86 -17 -155h184v-99h-329v-243h-108v243h-366v99h511q13 77 19 155q8 100 8 125h-413v99h521zM687 -108h-521v338h108v-240h413v-98z" />
<glyph unicode="&#xad73;" d="M657 828q0 -102 -8 -200q-7 -79 -18 -148h183v-100h-347v-125h202v-98h-396v-173h405v-98h-513v369h193v125h-347v100h513q14 78 19 145q6 81 6 104h-413v99h521z" />
<glyph unicode="&#xad74;" d="M657 840q0 -101 -7 -194q-6 -66 -15 -128h179v-98h-348v-91h192v-268h-386v-83h407v-96h-514v272h386v79h-392v96h200v91h-348v98h517q10 59 15 117q6 84 6 108h-413v97h521z" />
<glyph unicode="&#xad75;" d="M657 840q0 -101 -7 -194q-6 -66 -15 -128h179v-98h-348v-92h247v-446h-102v351h-181v47h-26v-216h-192v-87h252v-95h-353v274h196v77h-201v95h253v92h-348v98h517q10 59 15 117q6 84 6 108h-413v97h521z" />
<glyph unicode="&#xad76;" d="M657 840q0 -101 -7 -194q-6 -66 -15 -128h179v-98h-348v-92h247v-446h-282v398h-34v-216h-185v-87h195v-95h-295v274h189v77h-193v95h251v92h-348v98h517q10 59 15 117q6 84 6 108h-413v97h521zM613 -23v256h-87v-256h87z" />
<glyph unicode="&#xad7b;" d="M657 840q0 -101 -7 -194q-6 -66 -15 -128h179v-98h-348v-140h-73v-216h-181v-87h217v-95h-317v274h185v78h-189v95h251v91h-348v98h517q10 59 15 117q6 84 6 108h-413v97h521zM769 122h-67q12 -14 20 -29q14 -28 14 -61q0 -34 -10.5 -65t-32.5 -54q-20 -21 -50 -33 t-61 -12q-32 0 -62 12t-50 33q-21 23 -32 54t-11 65q0 33 14 61q9 15 20 29h-49v86h357v-86zM694 328v-81h-106q-52 0 -117 23l16 72q76 -14 114 -14h93zM639 31q0 32 -17.5 54.5t-40.5 22.5t-40 -22.5t-17 -54.5q0 -31 17 -53t40 -22t40.5 22t17.5 53z" />
<glyph unicode="&#xad7c;" d="M657 828q0 -102 -8 -200q-7 -79 -18 -148h183v-100h-347v-126h192v-367h-494v367h193v126h-347v100h513q14 78 19 145q6 81 6 104h-413v99h521zM552 -16v173h-280v-173h280z" />
<glyph unicode="&#xad7d;" d="M657 828q0 -102 -7 -200q-6 -77 -17 -145h181v-99h-347v-139h-109v139h-347v99h515q14 77 18 142q5 81 5 104h-413v99h521zM659 -118h-494v411h108v-109h278v109h108v-411zM551 -22v110h-278v-110h278z" />
<glyph unicode="&#xad7f;" d="M657 828q0 -102 -8 -201q-7 -82 -19 -155h184v-99h-347v-115h-109v115h-347v99h512q15 82 20 152q6 82 6 105h-413v99h521zM456 135l267 -189l-65 -83l-251 179q-13 -16 -28 -31q-89 -90 -224 -144l-59 85q118 46 190 114.5t72 158.5v14h109v-27q0 -40 -11 -77z" />
<glyph unicode="&#xad81;" d="M657 828q0 -102 -8 -200q-7 -76 -17 -143h182v-100h-347v-98q20 -4 41 -10q46 -16 79 -45q34 -29 52 -68.5t18 -83.5t-18 -83.5t-52 -67.5q-33 -29 -79 -45t-95 -16q-48 0 -94.5 16t-78.5 45q-34 28 -52 67.5t-18 83.5t18 83.5t52 68.5q32 29 78 45q20 6 40 10v98h-347 v100h514q13 76 18 140q6 81 6 104h-413v99h521zM548 80q0 23 -10.5 45t-27.5 37q-18 16 -43 24t-54 8t-53.5 -8t-43.5 -24q-17 -15 -26.5 -37t-9.5 -45q0 -22 9.5 -44t26.5 -38q19 -15 43.5 -23t53.5 -8t54 8t43 23q17 16 27.5 38t10.5 44z" />
<glyph unicode="&#xad82;" d="M657 828q0 -102 -8 -200q-7 -79 -18 -148h183v-100h-347v-125h181q-5 -40 -32 -85q-31 -56 -85 -106l215 -120l-58 -82l-242 134q-122 -84 -281 -128l-56 84q115 29 230 95.5t142 110.5h-306v97h183v125h-347v100h513q14 78 19 145q6 81 6 104h-413v99h521z" />
<glyph unicode="&#xad88;" horiz-adv-x="803" d="M516 788q0 -143 -9 -245q-6 -73 -21 -138q53 5 101 14v-97q-83 -16 -171 -20q-40 -1 -74 -2v-388h-109v387h-218v99h252q37 0 110 2q11 55 19 120q12 89 12 170h-337v98h445zM617 -103v232h-189v99h189v641h109v-972h-109z" />
<glyph unicode="&#xad89;" horiz-adv-x="803" d="M519 810q0 -115 -7 -186q-5 -54 -19 -114q47 5 94 15v-96q-81 -16 -172 -18q-46 -2 -83 -2v-189h-109v188h-208v94h252q45 0 115 2q13 51 20 103q9 66 9 109h-340v94h448zM617 219v54h-189v93h189v503h109v-650h-109zM725 -129h-109v216h-423v99h532v-315z" />
<glyph unicode="&#xad8c;" horiz-adv-x="803" d="M518 799q0 -131 -7 -212q-5 -60 -18 -120q47 5 94 15v-96q-81 -16 -172 -18q-46 -2 -83 -2v-161h-109v160h-208v94h252q45 0 115 2q12 50 19 105q9 73 9 139h-339v94h447zM617 100v104h-189v94h189v571h109v-769h-109zM740 -108h-527v279h110v-185h417v-94z" />
<glyph unicode="&#xad90;" horiz-adv-x="803" d="M519 821q0 -111 -7 -184q-4 -43 -14 -89q45 5 89 14v-94q-83 -16 -174 -18q-45 -2 -81 -2v-154h-109v153h-208v92h252q47 0 121 2q9 39 14 80q9 69 9 107h-340v93h448zM617 289v39h-189v91h189v450h109v-580h-109zM746 -118h-534v240h404v54h-409v91h518v-233h-402v-61 h423v-91z" />
<glyph unicode="&#xad9c;" horiz-adv-x="803" d="M519 810q0 -115 -7 -186q-5 -47 -16 -98q46 5 91 14v-95q-81 -17 -172 -19q-46 -2 -83 -2v-179h-109v178h-208v95h252q46 0 119 2q10 43 16 87q9 66 9 109h-340v94h448zM617 244v40h-189v93h189v492h109v-625h-109zM367 196q0 -47 -12 -91l98 -106q20 19 39 46 q40 61 40 158v18h107v-25q0 -42 -9 -82l170 -167l-69 -67l-140 139q-53 -92 -150 -145l-128 137q-50 -76 -149 -131l-68 69q81 42 122.5 101t41.5 153v18h107v-25z" />
<glyph unicode="&#xad9d;" horiz-adv-x="803" d="M519 810q0 -95 -7 -174q-5 -55 -17 -111q46 5 92 14v-95q-81 -17 -172 -19q-46 -2 -83 -2v-184h-109v183h-208v95h252q46 0 117 2q12 48 18 99q9 74 9 98h-340v94h448zM617 238v56h-189v93h189v482h109v-631h-109zM613 59q0 42 -35 70t-90 28q-53 0 -87.5 -28t-34.5 -70 q0 -41 34.5 -68.5t87.5 -27.5q55 0 90 27.5t35 68.5zM722 59q0 -39 -18 -75.5t-50 -60.5q-31 -27 -74.5 -41t-91.5 -14q-46 0 -89.5 14t-74.5 41q-32 24 -49.5 60.5t-17.5 75.5q0 40 17.5 75.5t49.5 61.5q31 27 74.5 41t89.5 14q48 0 91.5 -14t74.5 -41q32 -26 50 -61.5 t18 -75.5z" />
<glyph unicode="&#xada4;" horiz-adv-x="859" d="M452 788q0 -143 -10 -241q-7 -70 -20 -135q34 4 71 11v-98q-71 -14 -133 -16q-32 -2 -62 -2v-384h-108v383h-175v98h230q33 0 68 1q13 56 21 119q11 85 11 166h-290v98h397zM354 228h160v620h106v-925h-106v206h-160v99zM676 -103v972h106v-972h-106z" />
<glyph unicode="&#xadb7;" horiz-adv-x="859" d="M451 810q0 -115 -8 -190q-5 -49 -15 -100q31 4 65 10v-95q-71 -14 -133 -16q-31 -2 -61 -2v-203h-109v202h-175v94h230q36 0 74 1q11 44 17 90q8 71 8 115h-289v94h396zM354 371h160v477h106v-612h-106v42h-160v93zM676 194v675h106v-675h-106zM530 127l250 -182l-63 -78 l-231 174q-13 -17 -28 -33q-84 -90 -208 -139l-62 77q97 38 170.5 105.5t73.5 156.5v9h109v-23q0 -34 -11 -67z" />
<glyph unicode="&#xadc0;" horiz-adv-x="803" d="M516 788q0 -143 -9 -246q-7 -80 -23 -149q54 5 103 14v-97q-83 -17 -171 -20q-40 -1 -74 -2v-376h-109v375h-218v98h252q36 0 108 2q12 60 21 131q12 90 12 172h-337v98h445zM617 -103v972h109v-972h-109z" />
<glyph unicode="&#xadc1;" horiz-adv-x="803" d="M519 810q0 -115 -7 -200q-5 -63 -18 -123q46 5 93 14v-95q-82 -16 -172 -19q-46 -2 -83 -2v-155h-109v154h-208v95h252q45 0 116 2q12 51 19 110q9 81 9 125h-340v94h448zM617 229v640h109v-640h-109zM725 -129h-109v232h-423v94h532v-326z" />
<glyph unicode="&#xadc4;" horiz-adv-x="803" d="M518 799q0 -131 -7 -222q-5 -71 -19 -134q47 5 95 14v-95q-81 -17 -172 -19q-46 -2 -83 -2v-136h-109v135h-208v95h252q44 0 114 2q13 54 20 118q9 84 9 150h-339v94h447zM617 100v769h109v-769h-109zM740 -108h-527v279h110v-185h417v-94z" />
<glyph unicode="&#xadc8;" horiz-adv-x="803" d="M519 821q0 -111 -7 -184q-5 -54 -19 -113q47 5 94 14v-93q-83 -17 -174 -19q-45 -2 -81 -2v-119h-109v118h-208v92h252q45 0 115 3q13 51 20 103q9 69 9 107h-340v93h448zM617 304v565h109v-565h-109zM746 -118h-534v245h404v59h-409v91h518v-238h-402v-66h423v-91z" />
<glyph unicode="&#xadd0;" horiz-adv-x="803" d="M519 810q0 -115 -7 -197q-5 -62 -19 -122q47 5 94 14v-95q-81 -16 -172 -18q-46 -2 -83 -2v-135h-109v134h-208v94h252q45 0 116 2q12 52 19 109q9 78 9 122h-340v94h448zM617 254v615h109v-615h-109zM725 -113h-513v337h513v-337zM617 -20v150h-298v-150h298z" />
<glyph unicode="&#xadd1;" horiz-adv-x="803" d="M519 810q0 -115 -7 -196q-6 -65 -20 -129q47 5 95 14v-94q-81 -16 -172 -19q-46 -2 -83 -2v-110h-109v109h-208v94h252q44 0 114 2q14 55 21 117q9 77 9 121h-340v93h448zM617 273v596h109v-596h-109zM725 -118h-513v362h107v-92h298v92h108v-362zM617 -26v88h-298v-88 h298z" />
<glyph unicode="&#xadd3;" horiz-adv-x="803" d="M519 810q0 -115 -7 -200q-5 -65 -19 -126q47 5 94 14v-95q-81 -17 -172 -19q-46 -2 -83 -2v-173h-109v172h-208v95h252q45 0 115 2q13 53 20 113q9 81 9 125h-340v94h448zM617 208v661h109v-661h-109zM498 135l248 -190l-62 -78l-231 181l-24 -30q-83 -98 -206 -149 l-62 77q104 43 173 119.5t69 165.5v26h109v-40q0 -41 -14 -82z" />
<glyph unicode="&#xaddc;" d="M657 807q0 -97 -9.5 -203t-24.5 -187h-108q19 97 26.5 182.5t7.5 109.5h-413v98h521zM814 276h-209v-379h-108v379h-169v-379h-109v379h-208v99h803v-99z" />
<glyph unicode="&#xade0;" d="M657 828q0 -110 -10 -224q-7 -84 -17 -153h184v-99h-225v-230h-106v230h-76v-230h-106v230h-290v99h511q13 76 19 153q8 100 8 125h-413v99h521zM687 -108h-527v330h106v-232h421v-98z" />
<glyph unicode="&#xade4;" d="M657 840q0 -101 -7 -194q-6 -66 -15 -127h179v-98h-224v-92h68v-268h-386v-83h407v-96h-514v272h386v79h-392v96h75v92h-223v98h517q10 58 15 116q6 84 6 108h-413v97h521zM482 329v92h-140v-92h140z" />
<glyph unicode="&#xadf8;" d="M659 574q-1 -162 -49 -352h-108q50 198 50 352v93h-421v98h528v-191zM11 119h803v-99h-803v99z" />
<glyph unicode="&#xadf9;" d="M657 828q0 -102 -8 -218q-7 -85 -16 -154h181v-99h-803v99h515q12 76 17 151q6 99 6 122h-413v99h521zM654 -128h-108v277h-401v98h509v-375z" />
<glyph unicode="&#xadfc;" d="M657 828q0 -110 -10 -237q-7 -95 -18 -167h185v-99h-803v99h511q13 80 19 167q8 113 8 138h-413v99h521zM687 -108h-521v349h108v-251h413v-98z" />
<glyph unicode="&#xadff;" d="M657 828q0 -102 -8 -210q-7 -86 -18 -157h183v-99h-803v99h513q14 80 19 154q6 91 6 114h-413v99h521zM678 -114h-513v382h504v-99h-396v-185h405v-98z" />
<glyph unicode="&#xae00;" d="M657 840q0 -101 -7 -200q-6 -71 -15 -137h179v-97h-803v97h516q12 69 16 132q6 84 6 108h-413v97h521zM679 -118h-514v272h386v79h-392v96h499v-268h-386v-83h407v-96z" />
<glyph unicode="&#xae01;" d="M657 840q0 -101 -7 -200q-6 -71 -15 -137h179v-97h-803v97h516q12 69 16 132q6 84 6 108h-413v97h521zM713 -118h-102v351h-181v95h283v-446zM464 -118h-353v274h196v77h-201v95h298v-264h-192v-87h252v-95z" />
<glyph unicode="&#xae08;" d="M657 828q0 -102 -8 -210q-7 -86 -18 -157h183v-99h-803v99h513q14 80 19 154q6 91 6 114h-413v99h521zM552 -16v186h-280v-186h280zM165 268h494v-381h-494v381z" />
<glyph unicode="&#xae09;" d="M657 828q0 -102 -7 -210q-7 -89 -18 -162h182v-98h-803v98h514q15 82 19 159q5 91 5 114h-413v99h521zM659 -118h-494v422h108v-110h278v110h108v-422zM551 -22v121h-278v-121h278z" />
<glyph unicode="&#xae0b;" d="M657 828q0 -102 -8 -218q-8 -97 -19 -172h184v-100h-803v100h512q15 85 20 169q6 99 6 122h-413v99h521zM453 142l270 -195l-61 -84l-256 186q-13 -17 -26 -31q-87 -97 -225 -151l-59 85q119 46 190.5 121.5t71.5 177.5v19h109v-31q0 -51 -14 -97z" />
<glyph unicode="&#xae0d;" d="M657 828q0 -102 -8 -212q-8 -91 -19 -166h184v-99h-803v99h512q15 84 20 163q6 93 6 116h-413v99h521zM548 80q0 23 -10.5 45t-27.5 37q-18 16 -43 24t-54 8t-53.5 -8t-43.5 -24q-17 -15 -26.5 -37t-9.5 -45q0 -22 9.5 -44t26.5 -38q19 -15 43.5 -23t53.5 -8t54 8t43 23 q17 16 27.5 38t10.5 44zM657 80q0 -44 -18 -83.5t-52 -67.5q-33 -29 -79 -45t-95 -16q-48 0 -94.5 16t-78.5 45q-34 28 -52 67.5t-18 83.5t18 83.5t52 68.5q32 29 78.5 44.5t94.5 15.5q49 0 95 -15.5t79 -44.5q34 -29 52 -68.5t18 -83.5z" />
<glyph unicode="&#xae14;" horiz-adv-x="803" d="M519 755q0 -143 -9 -244.5t-32 -187.5h-108q18 74 29.5 163.5t11.5 170.5h-337v98h445zM726 -103h-109v972h109v-972zM587 148q-83 -17 -171 -20t-150 -3h-251v99h252q44 0 140 2.5t180 18.5v-97z" />
<glyph unicode="&#xae30;" horiz-adv-x="791" d="M463 743q-20 -379 -376 -595l-70 73q290 175 325 424h-280v98h401zM714 -103h-109v972h109v-972z" />
<glyph unicode="&#xae31;" horiz-adv-x="791" d="M462 797q-6 -156 -96.5 -286.5t-278.5 -225.5l-68 75q149 75 227 168t92 171h-276v98h400zM605 283v586h109v-586h-109zM711 -129h-109v275h-402v98h511v-373z" />
<glyph unicode="&#xae34;" horiz-adv-x="791" d="M462 788q-10 -178 -107 -312.5t-273 -222.5l-67 76q161 84 238.5 188t84.5 173h-276v98h400zM605 164v705h109v-705h-109zM728 -108h-498v329h109v-231h389v-98z" />
<glyph unicode="&#xae37;" horiz-adv-x="791" d="M462 797q-8 -163 -100.5 -285.5t-274.5 -219.5l-68 76q143 72 224 163.5t94 167.5h-275v98h400zM605 294v575h109v-575h-109zM720 -113h-475v368h466v-98h-358v-172h367v-98z" />
<glyph unicode="&#xae38;" horiz-adv-x="791" d="M462 808q-8 -151 -94 -274t-282 -220l-67 78q143 67 225 156t94 162h-276v98h400zM605 350v519h109v-519h-109zM734 -118h-489v268h357v63h-361v98h470v-256h-358v-76h381v-97z" />
<glyph unicode="&#xae3a;" horiz-adv-x="791" d="M462 808q-8 -151 -94 -274t-282 -220l-67 78q143 67 225 156t94 162h-276v98h400zM605 350v519h109v-519h-109zM713 -118h-263v430h263v-430zM428 -118h-273v265h169v68h-173v97h268v-257h-165v-77h174v-96zM614 -22v237h-71v-237h71z" />
<glyph unicode="&#xae40;" horiz-adv-x="791" d="M462 797q-8 -163 -100.5 -285.5t-274.5 -219.5l-68 76q143 72 224 163.5t94 167.5h-275v98h400zM605 294v575h109v-575h-109zM713 -113h-466v368h466v-368zM605 -16v174h-251v-174h251z" />
<glyph unicode="&#xae41;" horiz-adv-x="791" d="M462 797q-7 -149 -92 -271t-283 -227l-68 76q144 72 224.5 162t93.5 162h-275v98h400zM605 318v551h109v-551h-109zM711 -118h-466v412h107v-102h251v102h108v-412zM603 -22v119h-251v-119h251z" />
<glyph unicode="&#xae43;" horiz-adv-x="791" d="M462 797q-11 -176 -107 -310.5t-272 -223.5l-67 74q163 86 238.5 190t82.5 172h-275v98h400zM605 224v645h109v-645h-109zM506 150l249 -207l-68 -76l-226 194q-9 -16 -21 -30q-83 -104 -213 -162l-62 80q100 40 174.5 126.5t74.5 188.5v16h108v-29q0 -51 -16 -101z" />
<glyph unicode="&#xae45;" horiz-adv-x="791" d="M462 797q-11 -176 -107 -310.5t-272 -223.5l-67 74q163 86 238.5 190t82.5 172h-275v98h400zM605 280v589h109v-589h-109zM604 76q0 46 -35 78t-86 32q-50 0 -85.5 -32t-35.5 -78t35.5 -77.5t85.5 -31.5q51 0 86 31.5t35 77.5zM713 76q0 -43 -17.5 -81.5t-48.5 -66.5 q-31 -29 -74 -44.5t-90 -15.5t-90 15.5t-74 44.5q-30 28 -47.5 66.5t-17.5 81.5t17.5 81.5t47.5 67.5q31 28 74 43.5t90 15.5t90 -15.5t74 -43.5q31 -29 48.5 -67.5t17.5 -81.5z" />
<glyph unicode="&#xae46;" horiz-adv-x="791" d="M462 797q-8 -163 -100.5 -285.5t-274.5 -219.5l-68 76q143 72 224 163.5t94 167.5h-275v98h400zM605 294v575h109v-575h-109zM699 255q-9 -88 -114 -186l214 -113l-54 -86l-243 132q-115 -76 -288 -123l-52 80q122 31 224 87q109 62 149 114h-307v95h471z" />
<glyph unicode="&#xae4a;" horiz-adv-x="791" d="M462 797q-8 -163 -100.5 -285.5t-274.5 -219.5l-68 76q143 72 224 163.5t94 167.5h-275v98h400zM605 294v575h109v-575h-109zM729 -17v-96h-542v96h97v176h-95v96h538v-96h-88v-176h90zM389 -17h145v176h-145v-176z" />
<glyph unicode="&#xae4c;" horiz-adv-x="847" d="M532 743q0 -23 -2 -50q-22 -335 -193 -552l-85 57q150 201 168 447h-113v98h225zM290 743q0 -29 -2 -59q-17 -285 -204 -511l-84 57q161 195 179 415h-132v98h243zM840 427h-140v-530h-105v972h105v-338h140v-104z" />
<glyph unicode="&#xae4d;" horiz-adv-x="847" d="M527 800q0 -24 -2 -52q-7 -117 -48.5 -231.5t-141.5 -223.5l-82 61q94 103 128.5 202t34.5 146h-111v98h222zM288 800q0 -37 -1 -57q-4 -101 -51.5 -208t-155.5 -209l-78 64q94 89 133 176t42 136h-130v98h241zM837 531h-137v-248h-105v586h105v-235h137v-103zM700 -129 h-108v275h-413v98h521v-373z" />
<glyph unicode="&#xae4e;" horiz-adv-x="847" d="M527 800q0 -24 -2 -52q-7 -117 -48.5 -231.5t-141.5 -223.5l-82 61q94 103 128.5 202t34.5 146h-111v98h222zM288 800q0 -37 -1 -57q-4 -101 -51.5 -208t-155.5 -209l-78 64q94 89 133 176t42 136h-130v98h241zM837 531h-137v-248h-105v586h105v-235h137v-103zM421 244 v-373h-106v275h-189v98h295zM700 244v-373h-105v275h-154v98h259z" />
<glyph unicode="&#xae50;" horiz-adv-x="847" d="M527 789q0 -25 -2 -52q-7 -111 -50 -232.5t-145 -237.5l-81 58q84 97 124 201t42 165h-110v98h222zM288 789q0 -32 -1 -57q-3 -93 -49.5 -208t-155.5 -225l-80 59q97 103 134.5 190.5t40.5 142.5h-130v98h241zM837 510h-137v-346h-105v705h105v-255h137v-104zM719 -108 h-508v329h108v-231h400v-98z" />
<glyph unicode="&#xae54;" horiz-adv-x="847" d="M527 810q0 -23 -2 -52q-8 -105 -50.5 -210.5t-139.5 -199.5l-81 58q89 90 124.5 178t37.5 129h-111v97h222zM288 810q0 -35 -1 -56q-7 -100 -61 -199t-147 -175l-76 64q92 78 130.5 152.5t42.5 116.5h-129v97h241zM837 555h-137v-205h-105v519h105v-211h137v-103z M724 -118h-500v268h368v63h-372v98h480v-256h-367v-76h391v-97z" />
<glyph unicode="&#xae56;" horiz-adv-x="847" d="M527 810q0 -23 -2 -52q-8 -105 -50.5 -210.5t-139.5 -199.5l-81 58q89 90 124.5 178t37.5 129h-111v97h222zM288 810q0 -35 -1 -56q-7 -100 -61 -199t-147 -175l-76 64q92 78 130.5 152.5t42.5 116.5h-129v97h241zM837 555h-137v-205h-105v519h105v-211h137v-103z M700 -118h-266v430h266v-430zM410 -118h-280v265h174v68h-178v97h274v-257h-170v-77h180v-96zM601 -22v237h-73v-237h73z" />
<glyph unicode="&#xae5c;" horiz-adv-x="847" d="M527 800q0 -24 -2 -52q-7 -114 -49 -226t-142 -216l-81 60q93 98 128 193t35 143h-111v98h222zM288 800q0 -37 -1 -57q-6 -103 -57.5 -209.5t-149.5 -193.5l-78 63q89 77 131 163t44 136h-130v98h241zM837 533h-137v-239h-105v575h105v-233h137v-103zM700 -113h-476v368 h476v-368zM593 -16v174h-261v-174h261z" />
<glyph unicode="&#xae5d;" horiz-adv-x="847" d="M527 800q0 -23 -2 -51q-7 -114 -49 -220t-141 -208l-81 60q93 99 127.5 187.5t34.5 134.5h-111v97h222zM288 800q0 -36 -1 -56q-6 -107 -58.5 -207.5t-148.5 -180.5l-77 62q91 80 130.5 158.5t43.5 126.5h-130v97h241zM837 541h-137v-228h-105v556h105v-226h137v-102z M700 -118h-476v407h108v-102h261v102h107v-407zM593 -22v114h-261v-114h261z" />
<glyph unicode="&#xae5f;" horiz-adv-x="847" d="M527 800q0 -24 -2 -52q-7 -117 -49 -235.5t-142 -227.5l-81 60q94 104 128.5 207t34.5 150h-111v98h222zM288 800q0 -37 -1 -57q-4 -101 -52 -212t-156 -213l-77 63q94 90 133 181.5t42 139.5h-130v98h241zM837 521h-137v-297h-105v645h105v-245h137v-103zM492 150 l248 -207l-67 -76l-227 194q-9 -16 -20 -30q-83 -104 -213 -162l-62 80q100 40 174 126.5t74 188.5v16h109v-29q0 -51 -16 -101z" />
<glyph unicode="&#xae60;" horiz-adv-x="847" d="M527 800q0 -24 -2 -52q-7 -114 -49 -226t-142 -216l-81 60q93 98 128 193t35 143h-111v98h222zM288 800q0 -37 -1 -57q-6 -103 -57.5 -209.5t-149.5 -193.5l-78 63q89 77 131 163t44 136h-130v98h241zM837 533h-137v-239h-105v575h105v-233h137v-103zM347 229 q0 -53 -14 -104l98 -116q23 25 40 54q40 67 40 174v30h106v-38q0 -53 -12 -102l171 -181l-69 -66l-141 149q-50 -93 -145 -156l-131 153q-53 -88 -150 -146l-67 70q77 44 122.5 116t45.5 171v30h106v-38z" />
<glyph unicode="&#xae61;" horiz-adv-x="847" d="M527 800q0 -24 -2 -52q-7 -117 -49 -235.5t-142 -227.5l-81 60q94 104 128.5 207t34.5 150h-111v98h222zM288 800q0 -37 -1 -57q-4 -101 -52 -212t-156 -213l-77 63q94 90 133 181.5t42 139.5h-130v98h241zM837 533h-137v-251h-105v587h105v-233h137v-103zM596 76 q0 46 -36 78t-87 32t-87 -32t-36 -78t36 -77.5t87 -31.5t87 31.5t36 77.5zM705 76q0 -43 -17.5 -81.5t-49.5 -66.5q-31 -29 -74.5 -44.5t-90.5 -15.5t-90.5 15.5t-74.5 44.5q-32 28 -49 66.5t-17 81.5t17 81.5t49 67.5q31 28 74.5 43.5t90.5 15.5t90.5 -15.5t74.5 -43.5 q32 -29 49.5 -67.5t17.5 -81.5z" />
<glyph unicode="&#xae65;" horiz-adv-x="847" d="M527 810q0 -23 -2 -52q-8 -105 -50.5 -210.5t-139.5 -199.5l-81 58q89 90 124.5 178t37.5 129h-111v97h222zM288 810q0 -35 -1 -56q-7 -100 -61 -199t-147 -175l-76 64q92 78 130.5 152.5t42.5 116.5h-129v97h241zM837 555h-137v-205h-105v519h105v-211h137v-103z M710 -118h-486v429h476v-98h-367v-66h356v-94h-356v-74h377v-97z" />
<glyph unicode="&#xae68;" horiz-adv-x="855" d="M481 743q0 -52 -2 -83q-20 -302 -185 -525l-87 55q150 205 165 455h-96v98h205zM262 743q-5 -345 -188 -566l-84 51q156 199 163 417h-113v98h222zM677 -103v526h-63v-463h-100v888h100v-326h63v347h101v-972h-101z" />
<glyph unicode="&#xae69;" horiz-adv-x="855" d="M480 799q-3 -151 -44.5 -277.5t-143.5 -234.5l-79 60q83 90 117.5 188.5t37.5 165.5h-93v98h205zM262 799q-5 -175 -55 -281.5t-137 -194.5l-77 59q74 76 113 159t46 160h-112v98h222zM677 283v244h-56v-229h-101v550h101v-223h56v244h101v-586h-101zM773 -129h-108v275 h-423v98h531v-373z" />
<glyph unicode="&#xae6c;" horiz-adv-x="855" d="M480 789q-6 -169 -51.5 -300.5t-140.5 -233.5l-80 60q82 90 119.5 195.5t40.5 180.5h-93v98h205zM262 789q-3 -179 -52 -289t-139 -200l-77 58q74 75 113.5 162.5t45.5 170.5h-113v98h222zM677 164v339h-56v-316h-101v661h101v-247h56v268h101v-705h-101zM791 -108h-519 v329h109v-231h410v-98z" />
<glyph unicode="&#xae70;" horiz-adv-x="855" d="M480 809q-4 -138 -44.5 -253.5t-143.5 -218.5l-79 61q79 80 115.5 168t39.5 146h-93v97h205zM262 809q-5 -158 -55 -256t-135 -178l-80 58q76 72 115 145.5t45 133.5h-112v97h222zM677 345v213h-56v-197h-101v487h101v-191h56v212h101v-524h-101zM797 -118h-510v266h378 v61h-382v98h490v-254h-378v-74h402v-97z" />
<glyph unicode="&#xae78;" horiz-adv-x="855" d="M480 799q-4 -153 -46 -274.5t-143 -225.5l-79 62q81 85 117 179.5t39 160.5h-93v98h205zM262 799q-5 -171 -54.5 -274.5t-136.5 -187.5l-79 59q74 73 113.5 152t46.5 153h-112v98h222zM677 291v241h-56v-225h-101v541h101v-218h56v239h101v-578h-101zM770 -113h-486v365 h486v-365zM663 -16v171h-272v-171h272z" />
<glyph unicode="&#xae79;" horiz-adv-x="855" d="M480 799q-3 -138 -44.5 -258.5t-143.5 -225.5l-79 61q82 89 117 178t38 148h-93v97h205zM262 799q-4 -161 -55 -265t-134 -181l-80 57q74 76 113 150.5t46 141.5h-112v97h222zM677 313v230h-56v-220h-101v525h101v-207h56v228h101v-556h-101zM773 -118h-486v407h107v-102 h272v102h107v-407zM666 -22v114h-272v-114h272z" />
<glyph unicode="&#xae7b;" horiz-adv-x="855" d="M480 799q-6 -167 -52 -297.5t-141 -231.5l-81 58q82 90 120.5 196.5t41.5 176.5h-93v98h205zM262 799q-3 -173 -53 -285.5t-139 -198.5l-78 56q74 75 115 163.5t46 166.5h-113v98h222zM621 614h56v255h101v-643h-101v289h-56v-226h-101v559h101v-234zM545 140l249 -193 l-67 -80l-230 183q-9 -13 -19 -25q-83 -99 -213 -156l-62 80q107 48 178 124t71 175v9h108v-22q0 -49 -15 -95z" />
<glyph unicode="&#xae7c;" horiz-adv-x="855" d="M480 799q-4 -153 -46 -274.5t-143 -225.5l-79 62q81 85 117 179.5t39 160.5h-93v98h205zM262 799q-5 -171 -54.5 -274.5t-136.5 -187.5l-79 59q74 73 113.5 152t46.5 153h-112v98h222zM677 291v241h-56v-225h-101v541h101v-218h56v239h101v-578h-101zM407 229 q0 -52 -16 -104l104 -118q23 26 43 57q41 66 41 173v27h106v-34q0 -53 -12 -103l175 -180l-69 -67l-146 151q-50 -93 -149 -158l-137 156q-56 -90 -152 -149l-67 70q76 44 124 116t48 171v27h107v-35z" />
<glyph unicode="&#xae7d;" horiz-adv-x="855" d="M480 799q-6 -167 -52 -297.5t-141 -231.5l-81 58q82 90 120.5 196.5t41.5 176.5h-93v98h205zM262 799q-3 -173 -53 -285.5t-139 -198.5l-78 56q74 75 115 163.5t46 166.5h-113v98h222zM677 262v264h-56v-221h-101v543h101v-224h56v245h101v-607h-101zM645 71q0 44 -36 75 t-88 31t-88 -31t-36 -75t36 -74.5t88 -30.5t88 30.5t36 74.5zM754 71q0 -42 -17.5 -80t-49.5 -65q-32 -28 -75.5 -43.5t-90.5 -15.5t-90.5 15.5t-75.5 43.5q-31 27 -48.5 65t-17.5 80t17.5 80t48.5 65q32 28 75.5 43.5t90.5 15.5t90.5 -15.5t75.5 -43.5q32 -27 49.5 -65 t17.5 -80z" />
<glyph unicode="&#xae84;" horiz-adv-x="847" d="M532 743q0 -23 -2 -50q-22 -335 -193 -552l-85 57q150 201 168 447h-113v98h225zM290 743q0 -29 -2 -59q-17 -285 -204 -511l-84 57q161 195 179 415h-132v98h243zM840 532h-140v-150h140v-98h-140v-387h-104v972h104v-239h140v-98z" />
<glyph unicode="&#xae85;" horiz-adv-x="847" d="M527 800q0 -24 -2 -52q-7 -117 -48.5 -231.5t-141.5 -223.5l-82 61q94 103 128.5 202t34.5 146h-111v98h222zM288 800q0 -37 -1 -57q-4 -101 -51.5 -208t-155.5 -209l-78 64q94 89 133 176t42 136h-130v98h241zM837 612h-137v-101h137v-98h-137v-130h-104v586h104v-159 h137v-98zM700 -129h-108v275h-413v98h521v-373z" />
<glyph unicode="&#xae8c;" horiz-adv-x="847" d="M527 810q0 -23 -2 -52q-8 -105 -50.5 -210.5t-139.5 -199.5l-81 58q89 90 124.5 178t37.5 129h-111v97h222zM288 810q0 -35 -1 -56q-7 -100 -61 -199t-147 -175l-76 64q92 78 130.5 152.5t42.5 116.5h-129v97h241zM837 638h-137v-84h137v-98h-137v-106h-104v519h104v-132 h137v-99zM724 -118h-500v268h368v63h-372v98h480v-256h-367v-76h391v-97z" />
<glyph unicode="&#xaebc;" horiz-adv-x="809" d="M532 743q0 -23 -2 -50q-6 -97 -25 -184h132v360h104v-972h-104v513h-159q-49 -152 -141 -269l-85 57q150 201 168 447h-113v98h225zM290 743q0 -29 -2 -59q-17 -285 -204 -511l-84 57q161 195 179 415h-132v98h243z" />
<glyph unicode="&#xaebd;" horiz-adv-x="809" d="M527 800q0 -24 -2 -52q-4 -71 -21 -140h133v261h104v-586h-104v225h-163q-43 -110 -139 -215l-82 61q94 103 128.5 202t34.5 146h-111v98h222zM288 800q0 -37 -1 -57q-4 -101 -51.5 -208t-155.5 -209l-78 64q94 89 133 176t42 136h-130v98h241zM738 -129h-108v275h-413 v98h521v-373z" />
<glyph unicode="&#xaebe;" horiz-adv-x="809" d="M527 800q0 -24 -2 -52q-4 -71 -21 -140h133v261h104v-586h-104v225h-163q-43 -110 -139 -215l-82 61q94 103 128.5 202t34.5 146h-111v98h222zM288 800q0 -37 -1 -57q-4 -101 -51.5 -208t-155.5 -209l-78 64q94 89 133 176t42 136h-130v98h241zM461 244v-373h-106v275 h-189v98h295zM740 244v-373h-105v275h-154v98h259z" />
<glyph unicode="&#xaec0;" horiz-adv-x="809" d="M527 789q0 -25 -2 -52q-4 -70 -23 -144h135v276h104v-705h-104v331h-165q-44 -117 -142 -228l-81 58q84 97 124 201t42 165h-110v98h222zM288 789q0 -32 -1 -57q-3 -93 -49.5 -208t-155.5 -225l-80 59q97 103 134.5 190.5t40.5 142.5h-130v98h241zM758 -108h-508v329h108 v-231h400v-98z" />
<glyph unicode="&#xaec4;" horiz-adv-x="809" d="M527 810q0 -23 -2 -52q-5 -61 -21 -124h133v235h104v-519h-104v184h-168q-43 -98 -134 -186l-81 58q89 90 124.5 178t37.5 129h-111v97h222zM288 810q0 -35 -1 -56q-7 -100 -61 -199t-147 -175l-76 64q92 78 130.5 152.5t42.5 116.5h-129v97h241zM762 -118h-500v268h368 v63h-372v98h480v-256h-367v-76h391v-97z" />
<glyph unicode="&#xaecc;" horiz-adv-x="809" d="M527 800q0 -24 -2 -52q-4 -69 -21 -137h133v258h104v-575h-104v217h-165q-43 -106 -138 -205l-81 60q93 98 128 193t35 143h-111v98h222zM288 800q0 -37 -1 -57q-6 -103 -57.5 -209.5t-149.5 -193.5l-78 63q89 77 131 163t44 136h-130v98h241zM740 -113h-476v368h476 v-368zM633 -16v174h-261v-174h261z" />
<glyph unicode="&#xaecd;" horiz-adv-x="809" d="M527 800q0 -23 -2 -51q-4 -65 -19 -126h131v246h104v-556h-104v210h-164q-42 -103 -138 -202l-81 60q93 99 127.5 187.5t34.5 134.5h-111v97h222zM288 800q0 -36 -1 -56q-6 -107 -58.5 -207.5t-148.5 -180.5l-77 62q91 80 130.5 158.5t43.5 126.5h-130v97h241zM740 -118 h-476v407h108v-102h261v102h107v-407zM633 -22v114h-261v-114h261z" />
<glyph unicode="&#xaecf;" horiz-adv-x="809" d="M527 800q0 -24 -2 -52q-4 -73 -22 -145h134v266h104v-645h-104v279h-164q-43 -113 -139 -218l-81 60q94 104 128.5 207t34.5 150h-111v98h222zM288 800q0 -37 -1 -57q-4 -101 -52 -212t-156 -213l-77 63q94 90 133 181.5t42 139.5h-130v98h241zM524 150l249 -207l-67 -76 l-227 194q-9 -16 -20 -30q-83 -104 -213 -162l-63 80q101 40 175 126.5t74 188.5v16h109v-29q0 -51 -17 -101z" />
<glyph unicode="&#xaed0;" horiz-adv-x="809" d="M527 800q0 -24 -2 -52q-4 -69 -21 -137h133v258h104v-575h-104v217h-165q-43 -106 -138 -205l-81 60q93 98 128 193t35 143h-111v98h222zM288 800q0 -37 -1 -57q-6 -103 -57.5 -209.5t-149.5 -193.5l-78 63q89 77 131 163t44 136h-130v98h241zM384 229q0 -53 -15 -104 l101 -117q23 24 40 54q42 69 42 175v30h106v-38q0 -52 -12 -102l173 -180l-68 -67l-144 150q-54 -96 -147 -157l-135 155q-55 -90 -151 -148l-66 70q76 44 123 116t47 171v30h106v-38z" />
<glyph unicode="&#xaed1;" horiz-adv-x="809" d="M527 800q0 -24 -2 -52q-4 -69 -20 -137h132v258h104v-589h-104v231h-161q-42 -117 -142 -226l-81 60q94 104 128.5 207t34.5 150h-111v98h222zM288 800q0 -37 -1 -57q-4 -101 -52 -212t-156 -213l-77 63q94 90 133 181.5t42 139.5h-130v98h241zM632 76q0 46 -36 78 t-87 32t-87 -32t-36 -78t36 -77.5t87 -31.5t87 31.5t36 77.5zM740 76q0 -43 -17 -81.5t-49 -66.5q-31 -29 -74.5 -44.5t-90.5 -15.5t-90.5 15.5t-74.5 44.5q-32 28 -49 66.5t-17 81.5t17 81.5t49 67.5q31 28 74.5 43.5t90.5 15.5t90.5 -15.5t74.5 -43.5q32 -29 49 -67.5 t17 -81.5z" />
<glyph unicode="&#xaed8;" horiz-adv-x="855" d="M481 743q0 -52 -2 -83q-5 -78 -20 -151h67v339h101v-888h-101v450h-93q-47 -151 -139 -275l-87 55q150 205 165 455h-96v98h205zM262 743q-5 -345 -188 -566l-84 51q156 199 163 417h-113v98h222zM677 -103v972h101v-972h-101z" />
<glyph unicode="&#xaed9;" horiz-adv-x="855" d="M480 799q-2 -100 -20 -189h65v238h101v-548h-101v211h-93q-42 -120 -140 -224l-79 60q83 90 117.5 188.5t37.5 165.5h-93v98h205zM262 799q-5 -175 -55 -281.5t-137 -194.5l-77 59q74 76 113 159t46 160h-112v98h222zM677 283v586h101v-586h-101zM773 -129h-108v275h-423 v98h531v-373z" />
<glyph unicode="&#xaedc;" horiz-adv-x="855" d="M480 789q-4 -103 -21 -192h66v251h101v-661h-101v312h-93q-2 -5 -3 -10q-46 -132 -141 -234l-80 60q82 90 119.5 195.5t40.5 180.5h-93v98h205zM262 789q-3 -179 -52 -289t-139 -200l-77 58q74 75 113.5 162.5t45.5 170.5h-113v98h222zM677 164v705h101v-705h-101z M791 -108h-519v329h109v-231h410v-98z" />
<glyph unicode="&#xaee8;" horiz-adv-x="855" d="M480 799q-2 -95 -19 -178h64v227h101v-541h-101v216h-92q-42 -121 -142 -224l-79 62q81 85 117 179.5t39 160.5h-93v98h205zM262 799q-5 -171 -54.5 -274.5t-136.5 -187.5l-79 59q74 73 113.5 152t46.5 153h-112v98h222zM677 291v578h101v-578h-101zM770 -113h-486v365 h486v-365zM663 -16v171h-272v-171h272z" />
<glyph unicode="&#xaeeb;" horiz-adv-x="855" d="M480 799q-4 -102 -22 -191h67v240h101v-559h-101v220h-94q-2 -4 -3 -7q-46 -131 -141 -232l-81 58q82 90 120.5 196.5t41.5 176.5h-93v98h205zM262 799q-3 -173 -53 -285.5t-139 -198.5l-78 56q74 75 115 163.5t46 166.5h-113v98h222zM677 226v643h101v-643h-101z M545 140l249 -193l-67 -80l-230 183q-9 -13 -19 -25q-83 -99 -213 -156l-62 80q107 48 178 124t71 175v9h108v-22q0 -49 -15 -95z" />
<glyph unicode="&#xaeed;" horiz-adv-x="855" d="M480 799q-4 -102 -22 -191h67v240h101v-543h-101v204h-94q-2 -4 -3 -7q-46 -131 -141 -232l-81 58q82 90 120.5 196.5t41.5 176.5h-93v98h205zM262 799q-3 -173 -53 -285.5t-139 -198.5l-78 56q74 75 115 163.5t46 166.5h-113v98h222zM677 262v607h101v-607h-101zM645 71 q0 44 -36 75t-88 31t-88 -31t-36 -75t36 -74.5t88 -30.5t88 30.5t36 74.5zM754 71q0 -42 -17.5 -80t-49.5 -65q-32 -28 -75.5 -43.5t-90.5 -15.5t-90.5 15.5t-75.5 43.5q-31 27 -48.5 65t-17.5 80t17.5 80t48.5 65q32 28 75.5 43.5t90.5 15.5t90.5 -15.5t75.5 -43.5 q32 -27 49.5 -65t17.5 -80z" />
<glyph unicode="&#xaef4;" horiz-adv-x="809" d="M532 743q0 -23 -2 -50q-3 -47 -9 -92h117v268h103v-972h-103v389h-157v97h157v120h-134q-47 -210 -167 -362l-85 57q150 201 168 447h-113v98h225zM290 743q0 -29 -2 -59q-17 -285 -204 -511l-84 57q161 195 179 415h-132v98h243z" />
<glyph unicode="&#xaef8;" horiz-adv-x="809" d="M527 789q0 -25 -2 -52q-2 -35 -8 -72h121v204h103v-705h-103v206h-157v98h157v99h-143q-9 -31 -20 -62q-43 -122 -145 -238l-81 58q84 97 124 201t42 165h-110v98h222zM288 789q0 -32 -1 -57q-3 -93 -49.5 -208t-155.5 -225l-80 59q97 103 134.5 190.5t40.5 142.5h-130 v98h241zM758 -108h-508v329h108v-231h400v-98z" />
<glyph unicode="&#xaefc;" horiz-adv-x="809" d="M527 810q0 -23 -2 -52q-2 -22 -5 -45h118v156h103v-519h-103v91h-157v98h157v75h-140q-10 -33 -23 -67q-43 -105 -140 -199l-81 58q89 90 124.5 178t37.5 129h-111v97h222zM288 810q0 -35 -1 -56q-7 -100 -61 -199t-147 -175l-76 64q92 78 130.5 152.5t42.5 116.5h-129 v97h241zM762 -118h-500v268h368v63h-372v98h480v-256h-367v-76h391v-97z" />
<glyph unicode="&#xaf07;" horiz-adv-x="809" d="M527 800q0 -24 -2 -52q-2 -31 -6 -62h119v183h103v-645h-103v178h-157v98h157v88h-138q-11 -38 -24 -76q-42 -118 -142 -227l-81 60q94 104 128.5 207t34.5 150h-111v98h222zM288 800q0 -37 -1 -57q-4 -101 -52 -212t-156 -213l-77 63q94 90 133 181.5t42 139.5h-130v98 h241zM524 150l249 -207l-67 -76l-227 194q-9 -16 -20 -30q-83 -104 -213 -162l-63 80q101 40 175 126.5t74 188.5v16h109v-29q0 -51 -17 -101z" />
<glyph unicode="&#xaf08;" horiz-adv-x="809" d="M527 800q0 -24 -2 -52q-1 -22 -4 -42h117v163h103v-575h-103v131h-157v99h157v83h-135q-11 -42 -27 -84q-42 -113 -142 -217l-81 60q93 98 128 193t35 143h-111v98h222zM288 800q0 -37 -1 -57q-6 -103 -57.5 -209.5t-149.5 -193.5l-78 63q89 77 131 163t44 136h-130v98 h241zM384 229q0 -53 -15 -104l101 -117q23 24 40 54q42 69 42 175v30h106v-38q0 -52 -12 -102l173 -180l-68 -67l-144 150q-54 -96 -147 -157l-135 155q-55 -90 -151 -148l-66 70q76 44 123 116t47 171v30h106v-38z" />
<glyph unicode="&#xaf0d;" horiz-adv-x="809" d="M527 810q0 -23 -2 -52q-2 -22 -5 -45h118v156h103v-519h-103v91h-157v98h157v75h-140q-10 -33 -23 -67q-43 -105 -140 -199l-81 58q89 90 124.5 178t37.5 129h-111v97h222zM288 810q0 -35 -1 -56q-7 -100 -61 -199t-147 -175l-76 64q92 78 130.5 152.5t42.5 116.5h-129 v97h241zM748 -118h-486v429h476v-98h-367v-66h356v-94h-356v-74h377v-97z" />
<glyph unicode="&#xaf10;" horiz-adv-x="855" d="M481 743q0 -52 -2 -83l-4 -51h51v239h100v-888h-100v333h-100v94q-47 -137 -132 -252l-87 55q150 205 165 455h-96v98h205zM459 509q-13 -60 -31 -116h98v116h-67zM262 743q-5 -345 -188 -566l-84 51q156 199 163 417h-113v98h222zM677 -103v972h101v-972h-101z" />
<glyph unicode="&#xaf2c;" d="M376 560q0 -159 -53 -310h-107q54 155 54 298v120h-191v98h297v-206zM690 560q0 -159 -53 -310h-107q55 155 55 298v120h-186v98h291v-206zM814 20h-803v99h379v326h109v-326h315v-99z" />
<glyph unicode="&#xaf2d;" d="M680 735q0 -145 -47 -286h-106q47 145 47 267v17h-175v98h281v-96zM376 735q0 -144 -47 -286h-107q48 146 48 267v17h-181v98h287v-96zM386 394v187h110v-187h318v-100h-803v100h375zM654 -128h-108v256h-401v99h509v-355z" />
<glyph unicode="&#xaf30;" d="M680 740q0 -157 -47 -311h-106q47 159 47 291v13h-175v98h281v-91zM376 740q0 -156 -47 -311h-107q48 160 48 291v13h-181v98h287v-91zM11 362h375v219h110v-219h318v-98h-803v98zM689 -108h-522v308h108v-210h414v-98z" />
<glyph unicode="&#xaf32;" d="M680 736q0 -132 -47 -271h-106q47 143 47 252v17h-175v97h281v-95zM376 736q0 -131 -47 -271h-107q48 144 48 252v17h-181v97h287v-95zM386 419v182h110v-182h318v-98h-803v98h375zM431 -108h-314v382h106v-286h205q-3 15 -3 32q0 31 17 58q3 5 8 10h-69v88h415v-88h-74 q4 -5 7 -10q17 -27 17 -58t-11.5 -59t-33.5 -49q-22 -20 -52.5 -31t-62.5 -11q-33 0 -63 11t-53 31q-21 21 -33 49q-4 8 -6 16v-85zM702 290v-83h-112q-53 0 -132 24l16 75q87 -16 129 -16h99zM647 20q0 25 -18 42.5t-43 17.5q-26 0 -44 -17.5t-18 -42.5q0 -26 18 -43.5 t44 -17.5q25 0 43 17.5t18 43.5z" />
<glyph unicode="&#xaf34;" d="M680 747q0 -130 -47 -264h-106q47 138 47 245v17h-175v96h281v-94zM376 747q0 -129 -47 -264h-107q48 139 48 245v17h-181v96h287v-94zM386 454v158h110v-158h318v-98h-803v98h375zM679 -118h-514v262h386v68h-392v97h499v-258h-386v-73h407v-96z" />
<glyph unicode="&#xaf3c;" d="M680 735q0 -145 -47 -286h-106q47 145 47 267v17h-175v98h281v-96zM376 735q0 -144 -47 -286h-107q48 146 48 267v17h-181v98h287v-96zM386 403v178h110v-178h318v-98h-803v98h375zM552 -16v159h-280v-159h280zM165 240h494v-353h-494v353z" />
<glyph unicode="&#xaf3d;" d="M680 736q0 -132 -47 -271h-106q47 143 47 252v17h-175v97h281v-95zM376 736q0 -131 -47 -271h-107q48 144 48 252v17h-181v97h287v-95zM386 419v182h110v-182h318v-98h-803v98h375zM659 -118h-494v401h108v-104h278v104h108v-401zM551 -22v105h-278v-105h278z" />
<glyph unicode="&#xaf3f;" d="M680 735q0 -145 -47 -286h-106q47 145 47 267v17h-175v98h281v-96zM376 735q0 -144 -47 -286h-107q48 146 48 267v17h-181v98h287v-96zM386 381v200h110v-200h318v-98h-803v98h375zM454 133l269 -186l-61 -84l-259 178q-90 -114 -248 -174l-60 85q117 41 190 114.5 t73 163.5v9h109v-23q0 -43 -13 -83z" />
<glyph unicode="&#xaf41;" d="M680 735q0 -145 -47 -286h-106q47 145 47 267v17h-175v98h281v-96zM376 735q0 -144 -47 -286h-107q48 146 48 267v17h-181v98h287v-96zM386 406v180h110v-180h318v-98h-803v98h375zM549 73q0 44 -39 75.5t-97 31.5t-96 -31.5t-38 -75.5t38 -75t96 -31t97 31t39 75z M657 73q0 -42 -18.5 -81t-51.5 -65q-33 -28 -79 -43.5t-95 -15.5q-48 0 -94.5 15.5t-78.5 43.5q-33 27 -51.5 65.5t-18.5 80.5t18.5 80.5t51.5 66.5q32 27 78.5 42.5t94.5 15.5q49 0 95 -15.5t79 -42.5q33 -28 51.5 -66.5t18.5 -80.5z" />
<glyph unicode="&#xaf42;" d="M680 735q0 -145 -47 -286h-106q47 145 47 267v17h-175v98h281v-96zM376 735q0 -144 -47 -286h-107q48 146 48 267v17h-181v98h287v-96zM386 403v178h110v-178h318v-98h-803v98h375zM617 154q-30 -50 -81 -96l210 -113l-56 -83l-243 130q-118 -78 -281 -124l-58 83 q117 27 232 91.5t139 100.5h-304v97h472q-1 -39 -30 -86z" />
<glyph unicode="&#xaf43;" d="M680 747q0 -130 -47 -264h-106q47 138 47 245v17h-175v96h281v-94zM376 747q0 -129 -47 -264h-107q48 139 48 245v17h-181v96h287v-94zM386 454v158h110v-158h318v-98h-803v98h375zM639 137q-41 -63 -103 -112l205 -76l-46 -79l-251 97q-114 -62 -285 -94l-54 80 q165 36 249.5 77t108.5 62h-297v90h491q-7 -29 -18 -45zM581 222h-211q-52 0 -141 29l22 76q92 -20 134 -20h196v-85z" />
<glyph unicode="&#xaf48;" horiz-adv-x="860" d="M546 668q0 -167 -44 -333h-107q44 170 44 312v10h-126v98h233v-87zM290 668q0 -167 -44 -333h-107q44 169 44 312v10h-146v98h253v-87zM856 395h-138v-498h-108v972h108v-372h138v-102zM284 224v259h104v-257q11 0 25 1q95 2 179 18v-97q-83 -17 -171 -20t-150 -3h-256 v99h269z" />
<glyph unicode="&#xaf49;" horiz-adv-x="860" d="M546 714q0 -131 -45 -270h-107q45 142 45 255v16h-126v94h233v-95zM290 714q0 -131 -45 -270h-107q45 142 45 255v16h-146v94h253v-95zM856 525h-138v-289h-108v633h108v-246h138v-98zM284 366v200h104v-198h19q97 2 185 19v-93q-84 -16 -171.5 -19t-149.5 -3h-256v94 h269zM717 -129h-109v237h-405v94h514v-331z" />
<glyph unicode="&#xaf50;" horiz-adv-x="860" d="M546 729q0 -121 -45 -249h-107q45 131 45 234v13h-126v93h233v-91zM290 729q0 -121 -45 -249h-107q45 131 45 234v13h-146v93h253v-91zM856 545h-138v-233h-108v557h108v-226h138v-98zM284 424v167h104v-165h21q90 2 183 20v-92q-84 -17 -173.5 -19.5t-147.5 -2.5h-256 v92h269zM738 -118h-524v247h394v61h-399v91h508v-240h-392v-68h413v-91z" />
<glyph unicode="&#xaf5c;" horiz-adv-x="860" d="M546 720q0 -128 -45 -269h-107q45 144 45 253v11h-126v94h233v-89zM290 720q0 -128 -45 -269h-107q45 144 45 253v11h-146v94h253v-89zM856 525h-138v-278h-108v622h108v-246h138v-98zM284 381v185h104v-183h19q97 2 185 20v-93q-84 -17 -171.5 -20t-149.5 -3h-256v94 h269zM360 204q0 -47 -14 -93l99 -110q23 24 42 55q39 63 39 154v16h107v-22q0 -45 -10 -86l171 -170l-68 -68l-142 144q-55 -91 -149 -150l-132 146q-53 -85 -147 -140l-66 70q75 42 119.5 107.5t44.5 152.5v16h106v-22z" />
<glyph unicode="&#xaf5d;" horiz-adv-x="860" d="M546 714q0 -133 -45 -268h-107q45 138 45 253v16h-126v94h233v-95zM290 714q0 -133 -45 -268h-107q45 138 45 253v16h-146v94h253v-95zM856 525h-138v-270h-108v614h108v-246h138v-98zM284 381v185h104v-183h19q97 2 185 20v-93q-84 -17 -171.5 -20t-149.5 -3h-256v94 h269zM609 60q0 43 -35 71t-90 28q-53 0 -88 -28t-35 -71q0 -42 35 -69.5t88 -27.5q55 0 90 27.5t35 69.5zM718 60q0 -39 -18 -75.5t-50 -61.5q-32 -27 -75.5 -41t-90.5 -14q-46 0 -89.5 14t-75.5 41q-31 26 -48.5 62t-17.5 75q0 40 17.5 75.5t48.5 62.5q32 27 75.5 41 t89.5 14q47 0 90.5 -14t75.5 -41t50 -62.5t18 -75.5z" />
<glyph unicode="&#xaf64;" horiz-adv-x="877" d="M262 668q0 -165 -46 -333h-103q47 173 47 311v11h-123v98h225v-87zM489 668q0 -164 -46 -333h-100v-110q19 1 40 2q59 2 135 15v-98q-71 -14 -132.5 -16.5t-115.5 -2.5h-255v99h232v243h96v-120q44 165 44 299v11h-100v98h202v-87zM641 538h53v331h106v-972h-106v542h-53 v-479h-104v888h104v-310z" />
<glyph unicode="&#xaf65;" horiz-adv-x="877" d="M262 714q0 -75 -13 -149h96v-117q42 136 42 250v17h-100v94h202v-95q0 -141 -47 -286h-97v-69q17 0 36 1q56 2 137 16v-94q-76 -14 -137.5 -16t-110.5 -2h-255v94h234v205q-12 -68 -34 -135h-103q48 148 48 270v17h-123v94h225v-95zM640 621h54v248h106v-639h-106v296 h-54v-279h-103v601h103v-227zM795 -129h-109v232h-436v94h545v-326z" />
<glyph unicode="&#xaf79;" horiz-adv-x="877" d="M262 714q0 -75 -13 -149q-12 -66 -34 -131h-103q48 143 48 264v17h-123v94h225v-95zM489 714q0 -140 -47 -280h-97v-68q17 0 36 1q56 2 137 16v-94q-76 -14 -137.5 -16t-110.5 -2h-255v94h234v200h96v-113q42 133 42 246v17h-100v94h202v-95zM640 621h54v248h106v-639 h-106v296h-54v-258h-103v580h103v-227zM658 55q0 40 -35 67t-89 27t-88.5 -27t-34.5 -67q0 -39 34.5 -65.5t88.5 -26.5t89 26.5t35 65.5zM767 55q0 -38 -18 -73.5t-50 -59.5q-31 -27 -74.5 -40.5t-90.5 -13.5t-90.5 13.5t-74.5 40.5q-32 24 -49.5 59.5t-17.5 73.5 q0 39 17.5 73.5t49.5 60.5q31 26 74.5 40t90.5 14t90.5 -14t74.5 -40q32 -26 50 -60.5t18 -73.5z" />
<glyph unicode="&#xaf80;" horiz-adv-x="821" d="M555 668q0 -167 -44 -333h-107q45 170 45 312v10h-128v98h234v-87zM297 668q0 -167 -44 -333h-107q44 169 44 312v10h-148v98h255v-87zM292 224v259h104v-257q13 0 27 1q95 2 179 19v-97q-83 -18 -171 -21t-149 -3h-267v99h277zM744 869v-972h-107v972h107z" />
<glyph unicode="&#xaf84;" horiz-adv-x="821" d="M555 704q0 -139 -45 -287h-107q46 151 46 272v16h-128v94h234v-95zM297 704q0 -139 -45 -287h-107q45 151 45 272v16h-148v94h255v-95zM292 340v197h104v-196q13 1 26 1q87 2 180 21v-93q-84 -18 -171.5 -21t-148.5 -3h-267v94h277zM744 869v-734h-107v734h107zM759 -108 h-517v298h107v-202h410v-96z" />
<glyph unicode="&#xaf88;" horiz-adv-x="821" d="M555 729q0 -121 -45 -249h-107q46 131 46 234v13h-128v93h234v-91zM297 729q0 -121 -45 -249h-107q45 131 45 234v13h-148v93h255v-91zM292 424v167h104v-166q12 1 24 1q90 2 183 21v-92q-84 -18 -173.5 -20.5t-146.5 -2.5h-268v92h277zM744 869v-558h-107v558h107z M762 -118h-524v247h394v61h-400v91h508v-240h-392v-68h414v-91z" />
<glyph unicode="&#xaf90;" horiz-adv-x="821" d="M555 714q0 -133 -45 -268h-107q46 138 46 253v16h-128v94h234v-95zM297 714q0 -133 -45 -268h-107q45 138 45 253v16h-148v94h255v-95zM293 377v189h104v-187h20q97 2 185 21v-93q-84 -18 -171.5 -21t-148.5 -3h-267v94h278zM744 869v-617h-107v617h107zM740 -113h-502 v333h502v-333zM633 -20v146h-288v-146h288z" />
<glyph unicode="&#xaf91;" horiz-adv-x="821" d="M555 718q0 -133 -45 -262h-107q46 132 46 247v13h-128v93h234v-91zM297 718q0 -133 -45 -262h-107q45 132 45 247v13h-148v93h255v-91zM292 390v181h104v-179h21q97 2 185 20v-92q-84 -18 -171.5 -21t-148.5 -3h-267v94h277zM744 869v-582h-107v582h107zM740 -118h-502 v377h107v-92h288v92h107v-377zM633 -26v103h-288v-103h288z" />
<glyph unicode="&#xaf95;" horiz-adv-x="821" d="M555 714q0 -133 -45 -268h-107q46 138 46 253v16h-128v94h234v-95zM297 714q0 -133 -45 -268h-107q45 138 45 253v16h-148v94h255v-95zM292 381v185h104v-183h21q97 2 185 21v-93q-84 -18 -171.5 -21t-148.5 -3h-267v94h277zM744 869v-614h-107v614h107zM629 60 q0 43 -35.5 71t-89.5 28q-53 0 -88 -28t-35 -71q0 -42 35 -69.5t88 -27.5q54 0 89.5 27.5t35.5 69.5zM737 60q0 -39 -18 -75.5t-49 -61.5q-32 -27 -75.5 -41t-90.5 -14q-46 0 -89.5 14t-75.5 41q-32 26 -49.5 62t-17.5 75q0 40 17.5 75.5t49.5 62.5t75.5 41t89.5 14 q47 0 90.5 -14t75.5 -41q31 -27 49 -62.5t18 -75.5z" />
<glyph unicode="&#xaf9c;" d="M701 567q0 -158 -36 -306h-94v-143h243v-98h-803v98h307v213q-11 -35 -25 -70h-109q73 181 74 328v79h-173v98h277v-172q0 -104 -29 -215h86v-261h52v261h100v-69q26 124 26 245v113h-210v98h314v-199z" />
<glyph unicode="&#xafb8;" d="M686 719q0 -139 -46 -306h-105q46 171 46 286v10h-168v98h273v-88zM389 719q0 -139 -46 -306h-106q47 171 47 286v10h-189v98h294v-88zM814 276h-358v-379h-109v379h-336v99h803v-99z" />
<glyph unicode="&#xafb9;" d="M686 740q0 -132 -32 -274h160v-99h-347v-128h187v-367h-108v269h-401v98h213v128h-347v99h240q33 142 33 254v13h-189v98h294v-91q0 -132 -32 -274h192q32 142 32 254v13h-168v98h273v-91z" />
<glyph unicode="&#xafbc;" d="M686 741q0 -155 -37 -315h165v-99h-329v-220h-108v220h-366v99h235q38 161 38 293v14h-189v98h294v-90q0 -155 -37 -315h191q38 161 38 293v14h-168v98h273v-90zM687 -108h-521v338h108v-240h413v-98z" />
<glyph unicode="&#xafc0;" d="M686 749q0 -110 -28 -235h156v-97h-347v-88h191v-268h-386v-83h407v-96h-514v272h386v79h-392v96h199v88h-347v97h243q30 124 30 217v14h-189v96h294v-92q0 -110 -28 -235h191q29 124 29 217v14h-168v96h273v-92z" />
<glyph unicode="&#xafc7;" d="M686 749q0 -110 -28 -235h156v-97h-347v-143h-74v-210h-181v-87h217v-95h-317v274h185v78h-189v95h250v88h-347v97h243q30 124 30 217v14h-189v96h294v-92q0 -110 -28 -235h191q29 124 29 217v14h-168v96h273v-92zM769 122h-67q12 -14 20 -29q14 -28 14 -61 q0 -34 -10.5 -65t-32.5 -54q-20 -21 -50 -33t-61 -12q-32 0 -62 12t-50 33q-21 23 -32 54t-11 65q0 33 14 61q9 15 20 29h-49v86h357v-86zM694 328v-81h-106q-52 0 -117 23l16 72q76 -14 114 -14h93zM639 31q0 32 -17.5 54.5t-40.5 22.5t-40 -22.5t-17 -54.5q0 -31 17 -53 t40 -22t40.5 22t17.5 53z" />
<glyph unicode="&#xafc8;" d="M686 739q0 -124 -34 -270h162v-99h-347v-116h192v-367h-494v367h193v116h-347v99h238q35 147 35 251v13h-189v98h294v-92q0 -124 -34 -270h191q35 147 35 251v13h-168v98h273v-92zM552 -16v173h-280v-173h280z" />
<glyph unicode="&#xafc9;" d="M686 739q0 -123 -34 -269h162v-98h-347v-127h-109v127h-347v98h238q35 146 35 250v14h-189v97h294v-92q0 -123 -34 -269h192q34 146 34 250v14h-168v97h273v-92zM659 -118h-494v411h108v-109h278v109h108v-411zM551 -22v110h-278v-110h278z" />
<glyph unicode="&#xafcb;" d="M686 740q0 -139 -35 -288h163v-99h-347v-95h-109v95h-347v99h237q36 151 36 268v13h-189v98h294v-91q0 -139 -35 -288h192q35 151 35 268v13h-168v98h273v-91zM456 135l267 -189l-65 -83l-251 179q-13 -16 -28 -31q-89 -90 -224 -144l-59 85q118 46 190 114.5t72 158.5 v14h109v-27q0 -40 -11 -77z" />
<glyph unicode="&#xafcd;" d="M686 740q0 -130 -33 -271h161v-99h-347v-83q20 -4 41 -10q46 -16 79 -45q34 -29 52 -68.5t18 -83.5t-18 -83.5t-52 -67.5q-33 -29 -79 -45t-95 -16q-48 0 -94.5 16t-78.5 45q-34 28 -52 67.5t-18 83.5t18 83.5t52 68.5q32 29 78 45q20 6 40 10v83h-347v99h238 q35 141 35 251v13h-189v98h294v-91q0 -130 -33 -271h192q33 141 33 251v13h-168v98h273v-91zM548 80q0 23 -10.5 45t-27.5 37q-18 16 -43 24t-54 8t-53.5 -8t-43.5 -24q-17 -15 -26.5 -37t-9.5 -45q0 -22 9.5 -44t26.5 -38q19 -15 43.5 -23t53.5 -8t54 8t43 23 q17 16 27.5 38t10.5 44z" />
<glyph unicode="&#xafce;" d="M686 739q0 -124 -34 -270h162v-99h-347v-115h181q-5 -40 -32 -85q-31 -56 -85 -106l215 -120l-58 -82l-242 134q-122 -84 -281 -128l-56 84q115 29 230 95.5t142 110.5h-306v97h183v115h-347v99h238q35 147 35 251v13h-189v98h294v-92q0 -124 -34 -270h191q35 147 35 251 v13h-168v98h273v-92z" />
<glyph unicode="&#xafd4;" horiz-adv-x="821" d="M551 669q0 -140 -34 -274q46 5 89 13v-97q-83 -17 -171 -20q-41 -1 -77 -2v-377h-108v376h-235v98h145q37 144 37 266v38h-155v98h261v-119q0 -142 -36 -283h20q40 0 123 3q34 137 34 263v38h-117v98h224v-119zM637 -103v220h-184v98h184v654h107v-972h-107z" />
<glyph unicode="&#xafdc;" horiz-adv-x="821" d="M551 719q-1 -84 -26 -186q40 4 81 12v-93q-83 -16 -174 -18q-54 -2 -95 -4v-159h-109v159h-213v93h152q28 114 30 196v8h-155v93h261v-101q-1 -85 -29 -196h13q49 0 130 2q25 109 27 194v8h-117v93h224v-101zM637 271v36h-206v91h206v471h107v-598h-107zM765 -118h-545 v230h415v43h-420v91h528v-222h-412v-51h434v-91z" />
<glyph unicode="&#xafe8;" horiz-adv-x="821" d="M551 719q0 -95 -30 -211q42 5 85 14v-96q-81 -16 -172 -18q-54 -2 -97 -3v-181h-109v181h-213v94h148q34 125 34 205v11h-155v94h261v-90q0 -96 -33 -220h17q48 0 126 2q31 119 31 203v11h-117v94h224v-90zM637 224v44h-206v93h206v508h107v-645h-107zM369 183 q0 -44 -12 -84l99 -103q21 19 41 44q42 58 42 149v14h106v-20q0 -40 -8 -76l172 -161l-69 -66l-141 134q-53 -81 -153 -141l-131 135q-51 -73 -151 -128l-67 69q81 42 123 97t42 143v14h107v-20z" />
<glyph unicode="&#xafe9;" horiz-adv-x="821" d="M551 709q-1 -85 -27 -190q41 5 82 13v-95q-81 -17 -172 -19q-54 -2 -97 -3v-198h-109v198h-213v94h151q29 117 31 200v6h-155v94h261v-100q-1 -86 -29 -200h13q49 0 129 2q26 112 28 198v6h-117v94h224v-100zM637 217v61h-206v93h206v498h107v-652h-107zM634 48 q0 36 -35.5 61.5t-89.5 25.5q-53 0 -88 -25.5t-35 -61.5t35 -60.5t88 -24.5q54 0 89.5 24.5t35.5 60.5zM742 48q0 -37 -17.5 -71t-49.5 -60q-32 -23 -75.5 -36t-90.5 -13q-46 0 -89.5 13t-75.5 36q-32 26 -49 60t-17 71t17 70.5t49 59.5q32 24 75.5 37.5t89.5 13.5 q47 0 90.5 -13.5t75.5 -37.5q32 -25 49.5 -59t17.5 -71z" />
<glyph unicode="&#xaff0;" horiz-adv-x="877" d="M486 670q0 -128 -34 -265q30 4 64 10v-98q-71 -15 -132 -17q-32 -2 -61 -2v-375h-108v374h-200v99h105q40 149 40 257v37h-123v98h227v-118q0 -128 -38 -274h42q37 0 76 1q38 143 38 256v37h-94v98h198v-118zM379 219h160v629h104v-925h-104v197h-160v99zM695 -103v972 h106v-972h-106z" />
<glyph unicode="&#xaff1;" horiz-adv-x="877" d="M486 715q0 -95 -28 -208q27 3 58 10v-96q-71 -13 -132 -15q-30 -2 -56 -2v-197h-109v196h-204v94h112q33 120 33 202v16h-123v94h227v-94q0 -98 -32 -218h36q40 0 83 1q31 117 31 201v16h-94v94h198v-94zM383 364h156v484h104v-631h-104v56h-156v91zM695 207v662h106 v-662h-106zM797 -129h-109v216h-465v95h574v-311z" />
<glyph unicode="&#xaff4;" horiz-adv-x="877" d="M486 711q0 -101 -31 -223q29 4 61 10v-95q-71 -13 -132 -16q-30 -2 -56 -2v-171h-109v170h-204v95h108q37 132 37 217v9h-123v94h227v-88q0 -102 -36 -232h40q38 0 79 1q35 127 35 215v10h-94v94h198v-88zM383 323h156v525h104v-726h-104v107h-156v94zM695 100v769h106 v-769h-106zM801 -108h-558v289h109v-195h449v-94z" />
<glyph unicode="&#xaff8;" horiz-adv-x="877" d="M486 725q0 -87 -28 -185q27 3 58 9v-93q-71 -13 -132 -15q-30 -2 -56 -2v-164h-109v163h-204v92h112q33 107 33 180v17h-123v93h227v-95q0 -89 -32 -195h36q39 0 82 1q32 105 32 179v17h-94v93h198v-95zM383 410h156v438h104v-563h-104v34h-156v91zM695 275v594h106v-594 h-106zM818 -118h-565v230h435v43h-440v91h549v-222h-433v-51h454v-91z" />
<glyph unicode="&#xb000;" horiz-adv-x="877" d="M486 715q0 -99 -30 -205q28 4 60 11v-95q-71 -13 -132 -15q-30 -2 -56 -2v-180h-109v179h-204v93h109q36 114 36 198v17h-123v93h227v-94q0 -101 -35 -214h39q38 0 79 1q33 114 35 207v7h-94v93h198v-94zM383 373h156v475h104v-604h-104v37h-156v92zM695 229v640h106 v-640h-106zM797 -113h-552v310h552v-310zM689 -21v126h-337v-126h337z" />
<glyph unicode="&#xb001;" horiz-adv-x="877" d="M486 715q0 -95 -28 -196q27 3 58 9v-94q-71 -14 -132 -16q-30 -2 -56 -2v-172h-109v171h-204v93h111q34 110 34 191v17h-123v93h227v-94q0 -98 -33 -207h37q39 0 81 1q31 110 33 200v7h-94v93h198v-94zM383 383h156v465h104v-600h-104v43h-156v92zM695 244v625h106v-625 h-106zM797 -118h-544v331h107v-74h329v74h108v-331zM689 -26v75h-329v-75h329z" />
<glyph unicode="&#xb004;" horiz-adv-x="877" d="M486 715q0 -99 -30 -205q28 4 60 11v-95q-71 -13 -132 -15q-30 -2 -56 -2v-180h-109v179h-204v93h109q36 114 36 198v17h-123v93h227v-94q0 -101 -35 -214h39q38 0 79 1q33 114 35 207v7h-94v93h198v-94zM383 373h156v475h104v-604h-104v37h-156v92zM695 229v640h106 v-640h-106zM392 183q0 -44 -11 -84l98 -103q23 20 41 44q42 58 42 149v14h107v-20q0 -41 -9 -77l171 -161l-67 -65l-141 134q-53 -81 -154 -140l-130 134q-50 -73 -152 -128l-66 69q81 42 123 97t42 143v14h106v-20z" />
<glyph unicode="&#xb00c;" horiz-adv-x="821" d="M551 669q0 -144 -35 -280q46 5 90 13v-97q-83 -17 -171 -20q-42 -1 -78 -2v-371h-108v370h-234v98h143q39 147 39 272v38h-155v98h261v-119q0 -145 -38 -289h22q40 0 121 2q36 141 36 270v38h-117v98h224v-119zM637 -103v972h107v-972h-107z" />
<glyph unicode="&#xb010;" horiz-adv-x="821" d="M551 699q-1 -114 -33 -246q44 5 88 13v-95q-81 -16 -172 -18q-54 -2 -97 -3v-156h-109v156h-213v94h145q35 144 37 255v6h-155v94h261v-100q-1 -115 -36 -255h20q47 0 123 2q32 138 34 253v6h-117v94h224v-100zM637 100v769h107v-769h-107zM759 -108h-538v268h110v-174 h428v-94z" />
<glyph unicode="&#xb014;" horiz-adv-x="821" d="M551 719q-1 -93 -31 -209q43 5 86 14v-94q-83 -16 -174 -18q-54 -2 -95 -3v-128h-109v128h-213v92h147q33 129 35 218v8h-155v93h261v-101q-1 -93 -34 -218h18q48 0 124 2q31 123 33 216v8h-117v93h224v-101zM637 281v588h107v-588h-107zM765 -118h-545v235h415v48h-420 v91h528v-227h-412v-56h434v-91z" />
<glyph unicode="&#xb01c;" horiz-adv-x="821" d="M551 709q-1 -104 -33 -226q44 5 88 13v-95q-81 -17 -172 -19q-54 -2 -97 -3v-145h-109v145h-213v94h145q35 135 37 236v6h-155v94h261v-100q-1 -105 -36 -236h20q47 0 122 3q33 128 35 233v6h-117v94h224v-100zM637 234v635h107v-635h-107zM743 -113h-531v320h531v-320z M636 -20v134h-317v-134h317z" />
<glyph unicode="&#xb01d;" horiz-adv-x="821" d="M551 709q-1 -101 -32 -220q44 5 87 13v-94q-81 -16 -172 -18q-54 -3 -97 -4v-137h-109v137h-213v94h146q34 131 36 229v7h-155v93h261v-100q-1 -102 -34 -229h18q48 0 124 2q31 125 33 227v7h-117v93h224v-100zM637 249v620h107v-620h-107zM743 -118h-523v342h108v-82 h308v82h107v-342zM636 -26v78h-308v-78h308z" />
<glyph unicode="&#xb028;" d="M686 719q0 -139 -46 -306h-105q46 171 46 286v10h-168v98h273v-88zM389 719q0 -139 -46 -306h-106q47 171 47 286v10h-189v98h294v-88zM814 276h-209v-379h-108v379h-169v-379h-109v379h-208v99h803v-99z" />
<glyph unicode="&#xb044;" d="M389 549q0 -158 -53 -309h-107q55 155 55 298v130h-199v98h304v-217zM696 549q0 -158 -53 -309h-106q54 155 54 298v130h-178v98h283v-217zM11 119h803v-99h-803v99z" />
<glyph unicode="&#xb045;" d="M686 741q0 -150 -34 -301h162v-100h-803v100h238q35 151 35 279v14h-189v98h294v-90q0 -150 -34 -301h192q34 151 34 279v14h-168v98h273v-90zM654 -128h-108v277h-401v98h509v-375z" />
<glyph unicode="&#xb048;" d="M686 741q0 -168 -35 -324h163v-99h-803v99h238q35 156 35 302v14h-189v98h294v-90q0 -168 -35 -324h192q35 156 35 302v14h-168v98h273v-90zM687 -108h-521v349h108v-251h413v-98z" />
<glyph unicode="&#xb04a;" d="M686 740q0 -135 -38 -290h166v-98h-803v98h234q39 157 39 270v14h-189v97h294v-91q0 -135 -38 -290h192q38 157 38 270v14h-168v97h273v-91zM431 -108h-314v392h106v-296h207q-5 20 -5 40q0 32 16 59q5 10 12 19h-72v86h415v-86h-77l12 -19q15 -27 15 -59t-11 -62 t-33 -52q-22 -21 -53 -32.5t-63 -11.5q-33 0 -63.5 12t-53.5 33q-22 22 -33 52q-3 8 -5 15v-90zM702 310v-84h-112q-53 0 -132 23l16 76q87 -15 129 -15h99zM647 28q0 30 -17.5 49.5t-43.5 19.5q-28 0 -45 -19t-17 -50t17 -50t45 -19q26 0 43.5 19t17.5 50z" />
<glyph unicode="&#xb04c;" d="M686 749q0 -118 -33 -253h161v-97h-803v97h239q34 135 34 235v14h-189v96h294v-92q0 -118 -33 -253h192q33 135 33 235v14h-168v96h273v-92zM679 -118h-514v272h386v79h-392v96h499v-268h-386v-83h407v-96z" />
<glyph unicode="&#xb04e;" d="M686 749q0 -118 -33 -253h161v-97h-803v97h239q34 135 34 235v14h-189v96h294v-92q0 -118 -33 -253h192q33 135 33 235v14h-168v96h273v-92zM713 -118h-282v446h282v-446zM407 -118h-295v274h189v77h-193v95h289v-264h-185v-87h195v-95zM613 -23v256h-87v-256h87z" />
<glyph unicode="&#xb053;" d="M686 749q0 -118 -33 -253h161v-97h-803v97h239q34 135 34 235v14h-189v96h294v-92q0 -118 -33 -253h192q33 135 33 235v14h-168v96h273v-92zM429 -23v-95h-317v274h185v78h-189v95h285v-265h-181v-87h217zM769 122h-67q12 -14 20 -29q14 -28 14 -61q0 -34 -10.5 -65 t-32.5 -54q-20 -21 -50 -33t-61 -12q-32 0 -62 12t-50 33q-21 23 -32 54t-11 65q0 33 14 61q9 15 20 29h-49v86h357v-86zM694 328v-81h-106q-52 0 -117 23l16 72q76 -14 114 -14h93zM639 31q0 32 -17.5 54.5t-40.5 22.5t-40 -22.5t-17 -54.5q0 -31 17 -53t40 -22t40.5 22 t17.5 53z" />
<glyph unicode="&#xb054;" d="M686 740q0 -136 -36 -286h164v-99h-803v99h236q37 151 37 266v13h-189v98h294v-91q0 -136 -36 -286h192q36 151 36 266v13h-168v98h273v-91zM552 -16v186h-280v-186h280zM165 268h494v-381h-494v381z" />
<glyph unicode="&#xb055;" d="M686 740q0 -135 -38 -290h166v-98h-803v98h234q39 157 39 270v14h-189v97h294v-91q0 -135 -38 -290h192q38 157 38 270v14h-168v97h273v-91zM659 -118h-494v422h108v-110h278v110h108v-422zM551 -22v121h-278v-121h278z" />
<glyph unicode="&#xb057;" d="M686 741q0 -157 -37 -316h165v-99h-803v99h235q38 160 38 294v14h-189v98h294v-90q0 -157 -37 -316h192q37 160 37 294v14h-168v98h273v-90zM453 142l270 -195l-61 -84l-256 186q-13 -17 -26 -31q-87 -97 -225 -151l-59 85q119 46 190.5 121.5t71.5 177.5v19h109v-31 q0 -51 -14 -97z" />
<glyph unicode="&#xb059;" d="M686 741q0 -145 -37 -298h165v-100h-803v100h235q38 154 38 276v14h-189v98h294v-90q0 -145 -37 -298h192q37 154 37 276v14h-168v98h273v-90zM548 80q0 23 -10.5 45t-27.5 37q-18 16 -43 24t-54 8t-53.5 -8t-43.5 -24q-17 -15 -26.5 -37t-9.5 -45q0 -22 9.5 -44 t26.5 -38q19 -15 43.5 -23t53.5 -8t54 8t43 23q17 16 27.5 38t10.5 44zM657 80q0 -44 -18 -83.5t-52 -67.5q-33 -29 -79 -45t-95 -16q-48 0 -94.5 16t-78.5 45q-34 28 -52 67.5t-18 83.5t18 83.5t52 68.5q32 29 78.5 44.5t94.5 15.5q49 0 95 -15.5t79 -44.5q34 -29 52 -68.5 t18 -83.5z" />
<glyph unicode="&#xb05d;" d="M686 749q0 -118 -33 -253h161v-97h-803v97h239q34 135 34 235v14h-189v96h294v-92q0 -118 -33 -253h192q33 135 33 235v14h-168v96h273v-92zM165 329h492v-95h-387v-80h376v-92h-376v-85h396v-95h-501v447z" />
<glyph unicode="&#xb07c;" horiz-adv-x="809" d="M543 743q0 -23 -2 -50q-23 -335 -194 -552l-85 57q151 201 168 447h-123v98h236zM290 743q0 -29 -2 -59q-17 -285 -204 -511l-84 57q161 195 179 415h-132v98h243zM741 -103h-105v972h105v-972z" />
<glyph unicode="&#xb07d;" horiz-adv-x="809" d="M538 800q0 -24 -2 -52q-8 -117 -49.5 -231.5t-141.5 -223.5l-82 61q94 103 128.5 202t34.5 146h-121v98h233zM288 800q0 -37 -1 -57q-4 -101 -51.5 -208t-155.5 -209l-78 64q94 89 133 176t42 136h-130v98h241zM636 283v586h105v-586h-105zM738 -129h-108v275h-413v98 h521v-373z" />
<glyph unicode="&#xb080;" horiz-adv-x="809" d="M538 789q0 -25 -2 -52q-8 -111 -51 -232.5t-145 -237.5l-81 58q84 97 124 201.5t42 164.5h-120v98h233zM288 789q0 -32 -1 -57q-3 -93 -49.5 -208t-155.5 -225l-80 59q97 103 134.5 190.5t40.5 142.5h-130v98h241zM634 164v705h107v-705h-107zM758 -108h-508v329h108 v-231h400v-98z" />
<glyph unicode="&#xb084;" horiz-adv-x="809" d="M538 810q0 -23 -2 -52q-9 -105 -51.5 -210.5t-139.5 -199.5l-81 58q89 90 124.5 178t37.5 129h-121v97h233zM288 810q0 -35 -1 -56q-7 -100 -61 -199t-147 -175l-76 64q92 78 130.5 152.5t42.5 116.5h-129v97h241zM634 350v519h107v-519h-107zM762 -118h-500v268h368v63 h-372v98h480v-256h-367v-76h391v-97z" />
<glyph unicode="&#xb08c;" horiz-adv-x="809" d="M538 800q0 -24 -2 -52q-8 -114 -50 -226t-142 -216l-81 60q93 98 128 193t35 143h-121v98h233zM288 800q0 -37 -1 -57q-6 -103 -57.5 -209.5t-149.5 -193.5l-78 63q89 77 131 163t44 136h-130v98h241zM634 294v575h107v-575h-107zM740 -113h-476v368h476v-368zM633 -16 v174h-261v-174h261z" />
<glyph unicode="&#xb08d;" horiz-adv-x="809" d="M538 800q0 -23 -2 -51q-8 -114 -50 -220t-141 -208l-81 60q93 99 127.5 187.5t34.5 134.5h-121v97h233zM288 800q0 -36 -1 -56q-6 -107 -58.5 -207.5t-148.5 -180.5l-77 62q91 80 130.5 158.5t43.5 126.5h-130v97h241zM634 313v556h107v-556h-107zM740 -118h-476v407h108 v-102h261v102h107v-407zM633 -22v114h-261v-114h261z" />
<glyph unicode="&#xb08f;" horiz-adv-x="809" d="M538 800q0 -24 -2 -52q-8 -117 -50 -235.5t-142 -227.5l-81 60q94 104 128.5 207t34.5 150h-121v98h233zM288 800q0 -37 -1 -57q-4 -101 -52 -212t-156 -213l-77 63q94 90 133 181.5t42 139.5h-130v98h241zM634 224v645h107v-645h-107zM524 150l249 -207l-67 -76 l-227 194q-9 -16 -20 -30q-83 -104 -213 -162l-63 80q101 40 175 126.5t74 188.5v16h109v-29q0 -51 -17 -101z" />
<glyph unicode="&#xb091;" horiz-adv-x="809" d="M538 800q0 -24 -2 -52q-8 -117 -50 -235.5t-142 -227.5l-81 60q94 104 128.5 207t34.5 150h-121v98h233zM288 800q0 -37 -1 -57q-4 -101 -52 -212t-156 -213l-77 63q94 90 133 181.5t42 139.5h-130v98h241zM634 280v589h107v-589h-107zM632 76q0 46 -36 78t-87 32 t-87 -32t-36 -78t36 -77.5t87 -31.5t87 31.5t36 77.5zM740 76q0 -43 -17 -81.5t-49 -66.5q-31 -29 -74.5 -44.5t-90.5 -15.5t-90.5 15.5t-74.5 44.5q-32 28 -49 66.5t-17 81.5t17 81.5t49 67.5q31 28 74.5 43.5t90.5 15.5t90.5 -15.5t74.5 -43.5q32 -29 49 -67.5t17 -81.5z " />
<glyph unicode="&#xb098;" horiz-adv-x="828" d="M505 214h-455v544h110v-445h345v-99zM824 430h-144v-533h-109v972h109v-335h144v-104z" />
<glyph unicode="&#xb099;" horiz-adv-x="828" d="M505 342h-455v462h110v-362h345v-100zM820 523h-140v-240h-109v586h109v-242h140v-104zM680 -129h-109v275h-402v98h511v-373z" />
<glyph unicode="&#xb09a;" horiz-adv-x="828" d="M505 342h-455v462h110v-362h345v-100zM820 523h-140v-240h-109v586h109v-242h140v-104zM406 244v-373h-106v275h-184v98h290zM680 244v-373h-106v275h-148v98h254z" />
<glyph unicode="&#xb09c;" horiz-adv-x="828" d="M505 315h-455v483h110v-385h345v-98zM820 510h-140v-346h-109v705h109v-255h140v-104zM698 -108h-497v331h108v-233h389v-98z" />
<glyph unicode="&#xb09f;" horiz-adv-x="828" d="M505 358h-455v446h110v-348h345v-98zM820 533h-140v-239h-109v575h109v-232h140v-104zM689 -113h-475v368h466v-98h-357v-172h366v-98z" />
<glyph unicode="&#xb0a0;" horiz-adv-x="828" d="M505 399h-455v419h110v-321h345v-98zM820 547h-140v-197h-109v519h109v-218h140v-104zM703 -118h-489v268h357v63h-361v98h470v-256h-357v-76h380v-97z" />
<glyph unicode="&#xb0a1;" horiz-adv-x="828" d="M505 399h-455v419h110v-321h345v-98zM820 547h-140v-197h-109v519h109v-218h140v-104zM680 -118h-101v332h-159v98h260v-430zM454 -118h-332v267h175v65h-179v98h276v-257h-171v-76h231v-97z" />
<glyph unicode="&#xb0a2;" horiz-adv-x="828" d="M505 399h-455v419h110v-321h345v-98zM820 547h-140v-197h-109v519h109v-218h140v-104zM680 -118h-263v430h263v-430zM395 -118h-273v265h169v68h-173v97h268v-257h-165v-77h174v-96zM582 -22v237h-72v-237h72z" />
<glyph unicode="&#xb0a8;" horiz-adv-x="828" d="M505 358h-455v446h110v-348h345v-98zM820 533h-140v-239h-109v575h109v-232h140v-104zM680 -113h-466v368h466v-368zM572 -16v174h-250v-174h250z" />
<glyph unicode="&#xb0a9;" horiz-adv-x="828" d="M505 373h-455v434h110v-336h345v-98zM820 540h-140v-222h-109v551h109v-226h140v-103zM680 -118h-466v412h108v-102h250v102h108v-412zM572 -22v119h-250v-119h250z" />
<glyph unicode="&#xb0ab;" horiz-adv-x="828" d="M505 348h-455v456h110v-358h345v-98zM820 523h-140v-299h-109v645h109v-242h140v-104zM472 150l249 -207l-68 -76l-226 194q-9 -16 -20 -30q-83 -104 -213 -162l-63 80q100 40 174.5 126.5t74.5 188.5v16h108v-29q0 -51 -16 -101z" />
<glyph unicode="&#xb0ac;" horiz-adv-x="828" d="M505 358h-455v446h110v-348h345v-98zM820 533h-140v-239h-109v575h109v-232h140v-104zM335 229q0 -53 -16 -105l100 -116q22 25 40 56q38 67 38 173v30h106v-38q0 -53 -12 -103l171 -180l-72 -66l-137 148q-53 -95 -145 -154l-130 154q-55 -91 -150 -148l-68 70 q77 45 122.5 117t45.5 170v30h107v-38z" />
<glyph unicode="&#xb0ad;" horiz-adv-x="828" d="M505 348h-455v456h110v-358h345v-98zM820 532h-140v-250h-109v587h109v-233h140v-104zM575 76q0 46 -35 78t-85 32q-51 0 -86 -32t-35 -78t35 -77.5t86 -31.5q50 0 85 31.5t35 77.5zM684 76q0 -43 -17.5 -81.5t-48.5 -66.5q-30 -29 -73 -44.5t-90 -15.5t-90 15.5 t-74 44.5q-31 28 -48.5 66.5t-17.5 81.5t17.5 81.5t48.5 67.5q31 28 74 43.5t90 15.5t90 -15.5t73 -43.5q31 -29 48.5 -67.5t17.5 -81.5z" />
<glyph unicode="&#xb0ae;" horiz-adv-x="828" d="M505 358h-455v446h110v-348h345v-98zM820 534h-140v-240h-109v575h109v-231h140v-104zM679 255q-9 -88 -115 -186l214 -113l-53 -86l-244 132q-114 -76 -287 -123l-53 80q122 31 225 87q108 62 148 114h-306v95h471z" />
<glyph unicode="&#xb0af;" horiz-adv-x="828" d="M505 399h-455v419h110v-321h345v-98zM820 547h-140v-197h-109v519h109v-218h140v-104zM601 310v-85h-186q-93 0 -160 36l25 73q82 -24 147 -24h174zM679 184q-35 -82 -115 -148l197 -87l-48 -78l-234 106q-136 -80 -289 -106l-54 79q115 25 212.5 66.5t132.5 74.5h-283 v93h481z" />
<glyph unicode="&#xb0b1;" horiz-adv-x="828" d="M505 399h-455v419h110v-321h345v-98zM820 547h-140v-197h-109v519h109v-218h140v-104zM689 -118h-475v429h466v-98h-357v-66h346v-94h-346v-74h366v-97z" />
<glyph unicode="&#xb0b3;" horiz-adv-x="828" d="M505 402h-455v416h110v-318h345v-98zM820 558h-140v-208h-109v519h109v-207h140v-104zM605 323v-90h-189q-95 0 -159 36l26 79q87 -25 146 -25h176zM724 104h-124q7 -9 13 -19q18 -26 18 -59q0 -34 -15 -65.5t-42 -54.5q-26 -23 -63 -35t-78 -12q-40 0 -77 12t-63 35 q-27 23 -41 54.5t-14 65.5q0 33 17 59q5 10 12 19h-124v91h581v-91zM524 27q0 30 -26.5 51.5t-63.5 21.5q-39 0 -64.5 -21.5t-25.5 -51.5q0 -32 25.5 -52.5t64.5 -20.5q37 0 63.5 20.5t26.5 52.5z" />
<glyph unicode="&#xb0b4;" horiz-adv-x="837" d="M418 214h-368v544h109v-445h259v-99zM563 522h91v347h106v-972h-106v525h-91v-462h-103v888h103v-326z" />
<glyph unicode="&#xb0b5;" horiz-adv-x="837" d="M413 331h-363v473h109v-375h254v-98zM558 632h96v237h106v-586h-106v251h-96v-236h-103v550h103v-216zM755 -129h-109v275h-413v98h522v-373z" />
<glyph unicode="&#xb0b8;" horiz-adv-x="837" d="M413 311h-363v487h109v-389h254v-98zM558 618h96v251h106v-705h-106v356h-96v-333h-103v661h103v-230zM772 -108h-508v329h109v-231h399v-98z" />
<glyph unicode="&#xb0bc;" horiz-adv-x="837" d="M413 395h-363v423h109v-325h254v-98zM558 659h96v210h106v-524h-106v216h-96v-200h-103v487h103v-189zM778 -118h-499v266h367v61h-372v98h481v-254h-368v-74h391v-97z" />
<glyph unicode="&#xb0c4;" horiz-adv-x="837" d="M413 349h-363v455h109v-357h254v-98zM558 636h96v233h106v-578h-106v247h-96v-231h-103v541h103v-212zM752 -113h-477v365h477v-365zM644 -16v171h-261v-171h261z" />
<glyph unicode="&#xb0c5;" horiz-adv-x="837" d="M413 360h-363v447h109v-349h254v-98zM558 651h96v218h106v-556h-106v239h-96v-229h-103v525h103v-197zM755 -118h-476v407h107v-102h261v102h108v-407zM647 -22v114h-261v-114h261z" />
<glyph unicode="&#xb0c7;" horiz-adv-x="837" d="M413 333h-363v471h109v-372h254v-99zM558 624h96v245h106v-643h-106v300h-96v-237h-103v559h103v-224zM523 140l250 -193l-66 -80l-231 183l-18 -25q-83 -99 -213 -156l-63 80q108 48 178.5 124t70.5 175v9h109v-22q0 -49 -17 -95z" />
<glyph unicode="&#xb0c8;" horiz-adv-x="837" d="M413 349h-363v455h109v-357h254v-98zM558 636h96v233h106v-578h-106v247h-96v-231h-103v541h103v-212zM392 229q0 -53 -14 -104l100 -117q24 25 41 55q41 67 41 174v27h107v-34q0 -53 -13 -103l173 -180l-68 -67l-144 149q-55 -95 -147 -156l-135 154q-54 -87 -151 -147 l-66 70q77 44 123.5 116t46.5 171v27h106v-35z" />
<glyph unicode="&#xb0c9;" horiz-adv-x="837" d="M413 333h-363v471h109v-372h254v-99zM654 262v269h-96v-226h-103v543h103v-219h96v240h106v-607h-106zM627 71q0 44 -36 75t-88 31t-88 -31t-36 -75t36 -74.5t88 -30.5t88 30.5t36 74.5zM735 71q0 -42 -17.5 -80t-48.5 -65q-32 -28 -75.5 -43.5t-90.5 -15.5t-90.5 15.5 t-75.5 43.5q-32 27 -49.5 65t-17.5 80t17.5 80t49.5 65q32 28 75.5 43.5t90.5 15.5t90.5 -15.5t75.5 -43.5q31 -27 48.5 -65t17.5 -80z" />
<glyph unicode="&#xb0d0;" horiz-adv-x="828" d="M505 214h-455v544h110v-445h345v-99zM824 551h-144v-149h144v-98h-144v-407h-108v972h108v-219h144v-99z" />
<glyph unicode="&#xb0d1;" horiz-adv-x="828" d="M505 342h-455v462h110v-362h345v-100zM820 615h-140v-101h140v-99h-140v-132h-108v586h108v-155h140v-99zM680 -129h-109v275h-402v98h511v-373z" />
<glyph unicode="&#xb0d4;" horiz-adv-x="828" d="M505 315h-455v483h110v-385h345v-98zM820 608h-140v-112h140v-98h-140v-234h-108v705h108v-163h140v-98zM698 -108h-497v331h108v-233h389v-98z" />
<glyph unicode="&#xb0d8;" horiz-adv-x="828" d="M505 399h-455v419h110v-321h345v-98zM820 638h-140v-84h140v-99h-140v-105h-108v519h108v-131h140v-100zM703 -118h-489v268h357v63h-361v98h470v-256h-357v-76h380v-97z" />
<glyph unicode="&#xb0e0;" horiz-adv-x="828" d="M505 358h-455v446h110v-348h345v-98zM820 624h-140v-100h140v-100h-140v-130h-108v575h108v-146h140v-99zM680 -113h-466v368h466v-368zM572 -16v174h-250v-174h250z" />
<glyph unicode="&#xb0e5;" horiz-adv-x="828" d="M505 348h-455v456h110v-358h345v-98zM820 621h-140v-102h140v-100h-140v-137h-108v587h108v-149h140v-99zM575 76q0 46 -35 78t-85 32q-51 0 -86 -32t-35 -78t35 -77.5t86 -31.5q50 0 85 31.5t35 77.5zM684 76q0 -43 -17.5 -81.5t-48.5 -66.5q-30 -29 -73 -44.5 t-90 -15.5t-90 15.5t-74 44.5q-31 28 -48.5 66.5t-17.5 81.5t17.5 81.5t48.5 67.5q31 28 74 43.5t90 15.5t90 -15.5t73 -43.5q31 -29 48.5 -67.5t17.5 -81.5z" />
<glyph unicode="&#xb108;" horiz-adv-x="791" d="M505 214h-455v544h110v-445h345v-99zM714 -103h-109v570h-220v100h220v302h109v-972z" />
<glyph unicode="&#xb109;" horiz-adv-x="791" d="M505 342h-455v462h110v-362h345v-100zM714 283h-109v274h-220v99h220v213h109v-586zM711 -129h-109v275h-402v98h511v-373z" />
<glyph unicode="&#xb10b;" horiz-adv-x="791" d="M505 358h-455v446h110v-348h345v-98zM714 294h-109v273h-220v98h220v204h109v-575zM418 255v-286q48 43 74 98q32 72 32 142v47h109v-56q0 -39 -10 -82l155 -182l-75 -65l-121 142q-43 -83 -125 -140l-39 40v-33h-109v276h-193v99h302z" />
<glyph unicode="&#xb10c;" horiz-adv-x="791" d="M505 315h-455v483h110v-385h345v-98zM714 164h-109v373h-220v99h220v233h109v-705zM728 -108h-498v329h109v-231h389v-98z" />
<glyph unicode="&#xb110;" horiz-adv-x="791" d="M505 399h-455v419h110v-321h345v-98zM714 350h-109v244h-220v99h220v176h109v-519zM734 -118h-489v268h357v63h-361v98h470v-256h-358v-76h381v-97z" />
<glyph unicode="&#xb112;" horiz-adv-x="791" d="M505 399h-455v419h110v-321h345v-98zM714 350h-109v244h-220v99h220v176h109v-519zM713 -118h-263v430h263v-430zM428 -118h-273v265h169v68h-173v97h268v-257h-165v-77h174v-96zM614 -22v237h-71v-237h71z" />
<glyph unicode="&#xb113;" horiz-adv-x="791" d="M505 399h-455v419h110v-321h345v-98zM714 350h-109v244h-220v99h220v176h109v-519zM428 -118h-273v265h168v68h-172v97h268v-257h-164v-77h173v-96zM713 -118h-260v430h94v-121h66v121h100v-430zM613 -22v119h-66v-119h66z" />
<glyph unicode="&#xb118;" horiz-adv-x="791" d="M505 358h-455v446h110v-348h345v-98zM714 294h-109v273h-220v98h220v204h109v-575zM713 -113h-466v368h466v-368zM605 -16v174h-251v-174h251z" />
<glyph unicode="&#xb119;" horiz-adv-x="791" d="M505 373h-455v434h110v-336h345v-98zM714 318h-109v261h-220v98h220v192h109v-551zM711 -118h-466v412h107v-102h251v102h108v-412zM603 -22v119h-251v-119h251z" />
<glyph unicode="&#xb11b;" horiz-adv-x="791" d="M505 348h-455v456h110v-358h345v-98zM714 224h-109v329h-220v100h220v216h109v-645zM506 150l249 -207l-68 -76l-226 194q-9 -16 -21 -30q-83 -104 -213 -162l-62 80q100 40 174.5 126.5t74.5 188.5v16h108v-29q0 -51 -16 -101z" />
<glyph unicode="&#xb11c;" horiz-adv-x="791" d="M505 358h-455v446h110v-348h345v-98zM714 294h-109v273h-220v98h220v204h109v-575zM372 229q0 -53 -16 -105l100 -116q22 25 40 56q38 67 38 173v30h106v-38q0 -53 -12 -103l171 -180l-72 -66l-137 148q-53 -95 -146 -154l-130 154q-54 -91 -149 -148l-68 70 q77 45 122.5 117t45.5 170v30h107v-38z" />
<glyph unicode="&#xb11d;" horiz-adv-x="791" d="M505 348h-455v456h110v-358h345v-98zM714 280h-109v274h-220v99h220v216h109v-589zM604 76q0 46 -35 78t-86 32q-50 0 -85.5 -32t-35.5 -78t35.5 -77.5t85.5 -31.5q51 0 86 31.5t35 77.5zM713 76q0 -43 -17.5 -81.5t-48.5 -66.5q-31 -29 -74 -44.5t-90 -15.5t-90 15.5 t-74 44.5q-30 28 -47.5 66.5t-17.5 81.5t17.5 81.5t47.5 67.5q31 28 74 43.5t90 15.5t90 -15.5t74 -43.5q31 -29 48.5 -67.5t17.5 -81.5z" />
<glyph unicode="&#xb123;" horiz-adv-x="791" d="M505 402h-455v416h110v-318h345v-98zM714 350h-109v245h-220v100h220v174h109v-519zM636 323v-90h-190q-95 0 -158 36l25 79q87 -25 147 -25h176zM755 104h-124q7 -9 13 -19q18 -26 18 -59q0 -34 -15 -65.5t-42 -54.5q-26 -23 -63 -35t-78 -12q-40 0 -77 12t-63 35 q-27 23 -41.5 54.5t-14.5 65.5q0 33 18 59q5 10 12 19h-124v91h581v-91zM555 27q0 30 -26.5 51.5t-63.5 21.5q-39 0 -64.5 -21.5t-25.5 -51.5q0 -32 25.5 -52.5t64.5 -20.5q37 0 63.5 20.5t26.5 52.5z" />
<glyph unicode="&#xb124;" horiz-adv-x="837" d="M433 214h-383v544h109v-445h274v-99zM760 -103h-106v972h106v-972zM309 567h167v281h105v-888h-105v508h-167v99z" />
<glyph unicode="&#xb125;" horiz-adv-x="837" d="M433 331h-383v473h109v-375h274v-98zM760 283h-106v586h106v-586zM319 648h164v200h105v-550h-105v251h-164v99zM755 -129h-109v275h-413v98h522v-373z" />
<glyph unicode="&#xb128;" horiz-adv-x="837" d="M433 311h-383v487h109v-389h274v-98zM760 164h-106v705h106v-705zM321 626h162v222h105v-661h-105v341h-162v98zM772 -108h-508v329h109v-231h399v-98z" />
<glyph unicode="&#xb12c;" horiz-adv-x="837" d="M433 395h-383v423h109v-325h274v-98zM760 345h-106v524h106v-524zM319 684h164v164h105v-487h-105v225h-164v98zM778 -118h-499v266h367v61h-372v98h481v-254h-368v-74h391v-97z" />
<glyph unicode="&#xb134;" horiz-adv-x="837" d="M433 349h-383v455h109v-357h274v-98zM760 291h-106v578h106v-578zM319 658h164v190h105v-541h-105v253h-164v98zM752 -113h-477v365h477v-365zM644 -16v171h-261v-171h261z" />
<glyph unicode="&#xb135;" horiz-adv-x="837" d="M433 360h-383v447h109v-349h274v-98zM760 313h-106v556h106v-556zM319 666h164v182h105v-525h-105v245h-164v98zM755 -118h-476v407h107v-102h261v102h108v-407zM647 -22v114h-261v-114h261z" />
<glyph unicode="&#xb137;" horiz-adv-x="837" d="M433 333h-383v471h109v-372h274v-99zM760 226h-106v643h106v-643zM483 289v254h-164v98h164v207h105v-559h-105zM523 140l250 -193l-66 -80l-231 183l-18 -25q-83 -99 -213 -156l-63 80q108 48 178.5 124t70.5 175v9h109v-22q0 -49 -17 -95z" />
<glyph unicode="&#xb138;" horiz-adv-x="837" d="M433 349h-383v455h109v-357h274v-98zM760 291h-106v578h106v-578zM319 658h164v190h105v-541h-105v253h-164v98zM392 229q0 -53 -14 -104l100 -117q24 25 41 55q41 67 41 174v27h107v-34q0 -53 -13 -103l173 -180l-68 -67l-144 149q-55 -95 -147 -156l-135 154 q-54 -87 -151 -147l-66 70q77 44 123.5 116t46.5 171v27h106v-35z" />
<glyph unicode="&#xb139;" horiz-adv-x="837" d="M433 333h-383v471h109v-372h274v-99zM760 262h-106v607h106v-607zM319 646h164v202h105v-543h-105v242h-164v99zM627 71q0 44 -36 75t-88 31t-88 -31t-36 -75t36 -74.5t88 -30.5t88 30.5t36 74.5zM735 71q0 -42 -17.5 -80t-48.5 -65q-32 -28 -75.5 -43.5t-90.5 -15.5 t-90.5 15.5t-75.5 43.5q-32 27 -49.5 65t-17.5 80t17.5 80t49.5 65q32 28 75.5 43.5t90.5 15.5t90.5 -15.5t75.5 -43.5q31 -27 48.5 -65t17.5 -80z" />
<glyph unicode="&#xb140;" horiz-adv-x="791" d="M505 214h-455v544h110v-445h345v-99zM714 -103h-108v475h-211v98h211v93h-211v98h211v208h108v-972z" />
<glyph unicode="&#xb141;" horiz-adv-x="791" d="M506 325h-455v479h110v-380h345v-99zM606 469h-211v99h211v82h-211v98h211v121h108v-586h-108v186zM711 -129h-109v275h-402v98h511v-373z" />
<glyph unicode="&#xb144;" horiz-adv-x="791" d="M505 298h-455v500h110v-401h345v-99zM714 164h-108v288h-211v98h211v75h-211v98h211v146h108v-705zM728 -108h-498v329h109v-231h389v-98z" />
<glyph unicode="&#xb148;" horiz-adv-x="791" d="M505 375h-455v443h110v-345h345v-98zM714 350h-108v160h-211v99h211v57h-211v98h211v105h108v-519zM734 -118h-489v268h357v63h-361v98h470v-256h-358v-76h381v-97z" />
<glyph unicode="&#xb150;" horiz-adv-x="791" d="M505 338h-455v466h110v-367h345v-99zM714 294h-108v189h-211v98h211v69h-211v98h211v121h108v-575zM713 -113h-466v368h466v-368zM605 -16v174h-251v-174h251z" />
<glyph unicode="&#xb151;" horiz-adv-x="791" d="M505 354h-455v453h110v-355h345v-98zM714 318h-108v175h-211v98h211v59h-211v98h211v121h108v-551zM711 -118h-466v412h107v-102h251v102h108v-412zM603 -22v119h-251v-119h251z" />
<glyph unicode="&#xb154;" horiz-adv-x="791" d="M505 338h-455v466h110v-367h345v-99zM714 294h-108v189h-211v98h211v69h-211v98h211v121h108v-575zM372 229q0 -53 -16 -105l100 -116q22 25 40 56q38 67 38 173v30h106v-38q0 -53 -12 -103l171 -180l-72 -66l-137 148q-53 -95 -146 -154l-130 154q-54 -91 -149 -148 l-68 70q77 45 122.5 117t45.5 170v30h107v-38z" />
<glyph unicode="&#xb155;" horiz-adv-x="791" d="M505 333h-455v471h110v-371h345v-100zM606 477h-211v98h211v75h-211v98h211v121h108v-589h-108v197zM604 76q0 46 -35 78t-86 32q-50 0 -85.5 -32t-35.5 -78t35.5 -77.5t85.5 -31.5q51 0 86 31.5t35 77.5zM713 76q0 -43 -17.5 -81.5t-48.5 -66.5q-31 -29 -74 -44.5 t-90 -15.5t-90 15.5t-74 44.5q-30 28 -47.5 66.5t-17.5 81.5t17.5 81.5t47.5 67.5q31 28 74 43.5t90 15.5t90 -15.5t74 -43.5q31 -29 48.5 -67.5t17.5 -81.5z" />
<glyph unicode="&#xb158;" horiz-adv-x="791" d="M505 338h-455v466h110v-367h345v-99zM714 294h-108v189h-211v98h211v69h-211v98h211v121h108v-575zM711 255v-384h-109v118h-384v93h384v78h-385v95h494z" />
<glyph unicode="&#xb15c;" horiz-adv-x="837" d="M433 214h-383v544h109v-445h274v-99zM760 -103h-106v972h106v-972zM309 661h168v187h104v-888h-104v412h-168v98h168v93h-168v98z" />
<glyph unicode="&#xb160;" horiz-adv-x="837" d="M433 295h-383v503h109v-404h274v-99zM760 164h-106v705h106v-705zM319 714h165v134h105v-661h-105v264h-165v98h165v67h-165v98zM772 -108h-508v329h109v-231h399v-98z" />
<glyph unicode="&#xb178;" d="M683 314h-211v-195h342v-99h-803v99h353v195h-209v473h108v-375h420v-98z" />
<glyph unicode="&#xb179;" d="M681 490h-209v-94h342v-100h-803v100h353v94h-201v350h108v-252h410v-98zM654 -128h-108v248h-401v99h509v-347z" />
<glyph unicode="&#xb17c;" d="M681 467h-209v-111h342v-100h-803v100h353v111h-201v371h108v-272h410v-99zM687 -108h-521v300h108v-202h413v-98z" />
<glyph unicode="&#xb180;" d="M681 519h-209v-82h342v-99h-803v99h353v82h-201v329h108v-233h410v-96zM679 -118h-514v249h386v58h-392v96h499v-247h-386v-60h407v-96z" />
<glyph unicode="&#xb182;" d="M681 519h-209v-82h342v-99h-803v99h353v82h-201v329h108v-233h410v-96zM713 -118h-282v403h282v-403zM407 -118h-295v252h189v56h-193v95h289v-244h-185v-64h195v-95zM613 -23v213h-88v-213h88z" />
<glyph unicode="&#xb188;" d="M681 496h-209v-93h342v-99h-803v99h353v93h-201v344h108v-246h410v-98zM552 -16v154h-280v-154h280zM165 235h494v-348h-494v348z" />
<glyph unicode="&#xb189;" d="M681 499h-209v-92h342v-98h-803v98h353v92h-201v342h108v-245h410v-97zM659 -118h-494v391h108v-100h278v100h108v-391zM551 -22v100h-278v-100h278z" />
<glyph unicode="&#xb18b;" d="M681 490h-209v-119h342v-99h-803v99h353v119h-201v350h108v-252h410v-98zM455 131l268 -185l-61 -83l-256 178q-14 -17 -30 -33q-92 -93 -221 -141l-60 85q112 39 187.5 110.5t75.5 164.5v7h109v-21q0 -42 -12 -82z" />
<glyph unicode="&#xb18d;" d="M681 497h-209v-93h342v-98h-803v98h353v93h-201v343h108v-245h410v-98zM549 69q0 43 -39 72.5t-97 29.5t-96 -29.5t-38 -72.5t38 -72.5t96 -29.5t97 29.5t39 72.5zM657 69q0 -41 -18.5 -79t-51.5 -64q-33 -28 -79 -43t-95 -15q-48 0 -94.5 15t-78.5 43q-33 26 -51.5 64 t-18.5 79t18.5 78.5t51.5 64.5q32 28 78.5 43t94.5 15q49 0 95 -15t79 -43q33 -27 51.5 -64.5t18.5 -78.5z" />
<glyph unicode="&#xb192;" d="M681 496h-209v-93h342v-99h-803v99h353v93h-201v344h108v-246h410v-98zM688 -18v-96h-551v96h90v156h-88v96h547v-96h-88v-156h90zM333 -18h160v156h-160v-156z" />
<glyph unicode="&#xb193;" d="M681 525h-209v-72h342v-96h-803v96h353v72h-201v323h108v-229h410v-94zM717 103h-126q7 -8 14 -18q22 -31 22 -64q0 -32 -16 -63t-45 -54q-29 -22 -68.5 -33.5t-83.5 -11.5t-83.5 11.5t-69.5 33.5q-29 23 -44.5 54t-15.5 63q0 33 22 64q6 10 14 18h-132v86h612v-86z M580 305v-85h-222q-69 0 -139 34l32 72q75 -22 122 -21h207zM519 23q0 30 -30.5 50.5t-74.5 20.5t-75 -20.5t-31 -50.5t31 -50.5t75 -20.5t74.5 20.5t30.5 50.5z" />
<glyph unicode="&#xb194;" horiz-adv-x="845" d="M515 379h-163v-151q21 1 45 2q96 2 180 18v-97q-83 -16 -171.5 -19.5t-149.5 -3.5h-241v99h228v152h-170v380h108v-281h334v-99zM841 407h-139v-510h-108v972h108v-360h139v-102z" />
<glyph unicode="&#xb198;" horiz-adv-x="845" d="M515 446h-164v-107q22 0 45 1q87 2 181 20v-93q-84 -17 -172 -20t-149 -3h-241v94h228v108h-170v360h108v-266h334v-94zM841 485h-139v-351h-108v735h108v-286h139v-98zM719 -108h-506v297h108v-201h398v-96z" />
<glyph unicode="&#xb19c;" horiz-adv-x="845" d="M515 511h-164v-83q20 1 42 1q90 3 184 20v-92q-84 -17 -174 -19.5t-147 -2.5h-241v92h228v84h-170v316h108v-223h334v-93zM841 545h-139v-233h-108v557h108v-226h139v-98zM723 -118h-509v247h379v61h-384v91h492v-240h-376v-68h398v-91z" />
<glyph unicode="&#xb1a8;" horiz-adv-x="845" d="M515 481h-164v-98q19 1 40 1q97 2 186 20v-93q-84 -17 -172 -20t-149 -3h-241v94h228v99h-170v336h108v-242h334v-94zM841 525h-139v-279h-108v623h108v-246h139v-98zM578 23q-49 -86 -147 -150l-129 145q-51 -81 -145 -138l-67 70q75 42 118.5 107.5t43.5 152.5v16h106 v-22q0 -48 -13 -93l94 -109q24 25 42 54q39 63 39 154v16h107v-22q0 -45 -11 -87l169 -169l-67 -68z" />
<glyph unicode="&#xb1cc;" horiz-adv-x="803" d="M524 379h-165v-151q22 1 49 2q95 2 179 19v-97q-83 -17 -171 -20.5t-150 -3.5h-251v99h235v152h-172v380h108v-281h338v-99zM726 -103h-109v972h109v-972z" />
<glyph unicode="&#xb1d0;" horiz-adv-x="803" d="M524 445h-166v-106q23 0 49 1q87 2 180 20v-93q-84 -17 -171.5 -20t-149.5 -3h-251v94h235v107h-172v361h108v-267h338v-94zM726 869v-735h-109v735h109zM742 -108h-505v297h107v-201h398v-96z" />
<glyph unicode="&#xb1d4;" horiz-adv-x="803" d="M524 511h-166v-83q21 0 45 1q91 3 184 21v-92q-84 -18 -173.5 -20.5t-147.5 -2.5h-251v92h235v84h-172v316h108v-223h338v-93zM726 869v-557h-109v557h109zM746 -118h-508v247h378v61h-384v91h493v-240h-377v-68h398v-91z" />
<glyph unicode="&#xb1dc;" horiz-adv-x="803" d="M524 481h-166v-98q20 1 43 1q98 2 186 21v-93q-84 -18 -171.5 -21t-149.5 -3h-251v94h235v99h-172v336h108v-242h338v-94zM726 869v-617h-109v617h109zM724 -113h-487v333h487v-333zM616 -20v146h-272v-146h272z" />
<glyph unicode="&#xb1dd;" horiz-adv-x="803" d="M524 486h-166v-97q20 1 43 1q98 2 186 20v-92q-84 -18 -171.5 -21t-149.5 -3h-251v93h235v99h-172v331h108v-238h338v-93zM726 869v-582h-109v582h109zM725 -118h-487v377h107v-92h272v92h108v-377zM617 -26v103h-272v-103h272z" />
<glyph unicode="&#xb1df;" horiz-adv-x="803" d="M524 476h-166v-107q20 1 43 1q98 2 186 21v-94q-84 -17 -171.5 -20t-149.5 -3h-251v94h235v108h-172v341h108v-247h338v-94zM726 869v-679h-109v679h109zM520 123l246 -180l-66 -76l-225 169q-13 -17 -30 -34q-88 -92 -206 -131l-58 76q111 41 177.5 110t66.5 164v16h109 v-29q0 -44 -14 -85z" />
<glyph unicode="&#xb1e8;" d="M683 324h-90v-206h221v-98h-803v98h232v206h-88v463h108v-365h420v-98zM486 324h-137v-206h137v206z" />
<glyph unicode="&#xb1e9;" d="M681 490h-91v-99h224v-100h-803v100h234v99h-82v350h108v-252h410v-98zM482 490h-130v-99h130v99zM654 -128h-108v248h-401v99h509v-347z" />
<glyph unicode="&#xb1ec;" d="M681 467h-91v-116h224v-100h-803v100h234v116h-82v371h108v-272h410v-99zM482 467h-130v-116h130v116zM687 -108h-521v300h108v-202h413v-98z" />
<glyph unicode="&#xb1f0;" d="M681 519h-91v-85h224v-98h-803v98h234v85h-82v329h108v-233h410v-96zM482 519h-130v-85h130v85zM679 -118h-514v249h386v58h-392v96h499v-247h-386v-60h407v-96z" />
<glyph unicode="&#xb1f9;" d="M681 499h-91v-98h224v-99h-803v99h234v98h-82v342h108v-245h410v-97zM482 499h-130v-98h130v98zM659 -118h-494v391h108v-100h278v100h108v-391zM551 -22v100h-278v-100h278z" />
<glyph unicode="&#xb1fb;" d="M681 490h-91v-124h224v-99h-803v99h234v124h-82v350h108v-252h410v-98zM482 490h-130v-124h130v124zM455 131l268 -185l-61 -83l-256 178q-14 -17 -30 -33q-92 -93 -221 -141l-60 85q112 39 187.5 110.5t75.5 164.5v7h109v-21q0 -42 -12 -82z" />
<glyph unicode="&#xb1fd;" d="M681 497h-91v-96h224v-99h-803v99h234v96h-82v343h108v-245h410v-98zM482 497h-130v-96h130v96zM549 69q0 43 -39 72.5t-97 29.5t-96 -29.5t-38 -72.5t38 -72.5t96 -29.5t97 29.5t39 72.5zM657 69q0 -41 -18.5 -79t-51.5 -64q-33 -28 -79 -43t-95 -15q-48 0 -94.5 15 t-78.5 43q-33 26 -51.5 64t-18.5 79t18.5 78.5t51.5 64.5q32 28 78.5 43t94.5 15q49 0 95 -15t79 -43q33 -27 51.5 -64.5t18.5 -78.5z" />
<glyph unicode="&#xb204;" d="M676 443h-512v386h108v-288h404v-98zM814 244h-348v-347h-109v347h-346v99h803v-99z" />
<glyph unicode="&#xb205;" d="M681 494h-518v346h108v-248h410v-98zM358 219v91h-347v99h803v-99h-347v-91h187v-347h-108v248h-401v99h213z" />
<glyph unicode="&#xb208;" d="M681 471h-518v367h108v-268h410v-99zM814 279h-329v-183h-108v183h-366v99h803v-99zM687 -108h-521v295h108v-197h413v-98z" />
<glyph unicode="&#xb20b;" d="M681 500h-518v340h108v-242h410v-98zM358 234v88h-347v99h803v-99h-347v-88h202v-98h-396v-152h405v-98h-513v348h193z" />
<glyph unicode="&#xb20c;" d="M681 523h-518v325h108v-229h410v-96zM358 285v75h-347v97h803v-97h-347v-75h191v-247h-386v-60h407v-96h-514v249h386v58h-392v96h199z" />
<glyph unicode="&#xb214;" d="M681 500h-518v340h108v-242h410v-98zM358 235v87h-347v99h803v-99h-347v-87h192v-348h-494v348h193zM552 -16v154h-280v-154h280z" />
<glyph unicode="&#xb215;" d="M681 503h-518v338h108v-241h410v-97zM467 228h-109v110h-347v99h803v-99h-347v-110zM659 -118h-494v391h108v-100h278v100h108v-391zM551 -22v100h-278v-100h278z" />
<glyph unicode="&#xb217;" d="M681 494h-518v346h108v-248h410v-98zM468 214h-111v95h-346v99h803v-99h-346v-95zM459 115l264 -168l-60 -84l-254 162q-16 -17 -35 -34q-93 -83 -220 -124l-59 85q110 32 186.5 95t76.5 141v7h109v-22q0 -29 -8 -58z" />
<glyph unicode="&#xb219;" d="M681 501h-518v339h108v-241h410v-98zM358 261v73h-347v100h803v-100h-347v-73q20 -4 41 -10q45 -15 78 -42q32 -27 51 -64t19 -78t-19 -78.5t-51 -63.5q-33 -27 -78.5 -42t-94.5 -15t-95 15t-78 42q-33 26 -52 63.5t-19 78.5t19 78t52 64q32 27 78 42q20 6 40 10zM548 67 q0 42 -39 71t-96 29q-58 0 -96.5 -29t-38.5 -71t38.5 -71t96.5 -29q57 0 96 29t39 71z" />
<glyph unicode="&#xb220;" horiz-adv-x="803" d="M523 412h-448v385h108v-287h340v-98zM617 -103v190h-189v99h189v683h109v-972h-109zM345 244v-332h-108v331h-222v98h252q44 0 140 3t180 19v-97q-83 -17 -171 -20q-38 -1 -71 -2z" />
<glyph unicode="&#xb234;" horiz-adv-x="803" d="M523 522h-448v295h108v-201h340v-94zM332 380v-155h-109v154h-208v94h252q54 0 142.5 3t177.5 20v-95q-81 -17 -172 -19q-46 -2 -83 -2zM617 224v29h-189v94h189v522h109v-645h-109zM367 183q0 -44 -12 -84l97 -103q21 19 40 44q40 58 40 149v14h107v-20q0 -41 -8 -78 l168 -159l-66 -66l-140 133q-50 -81 -150 -140l-130 134q-49 -72 -149 -127l-67 69q81 42 122 97t41 143v14h107v-20z" />
<glyph unicode="&#xb23c;" horiz-adv-x="859" d="M457 427h-398v370h107v-271h291v-99zM360 193h154v655h106v-925h-106v172h-154v98zM676 -103v972h106v-972h-106zM304 261v-338h-107v336h-182v99h230q53 0 112.5 2.5t135.5 16.5v-98q-71 -14 -133 -16q-29 -2 -56 -2z" />
<glyph unicode="&#xb258;" horiz-adv-x="803" d="M523 412h-448v385h108v-287h340v-98zM617 -103v972h109v-972h-109zM345 242v-330h-108v329h-222v98h252q44 0 140 2.5t180 19.5v-97q-83 -17 -171 -20q-38 -1 -71 -2z" />
<glyph unicode="&#xb25c;" horiz-adv-x="803" d="M523 461h-448v346h108v-252h340v-94zM332 301v-112h-109v111h-208v95h252q54 0 142.5 2.5t177.5 19.5v-95q-81 -16 -172 -18q-46 -3 -83 -3zM617 95v774h109v-774h-109zM740 -108h-527v263h110v-169h417v-94z" />
<glyph unicode="&#xb260;" horiz-adv-x="803" d="M523 529h-448v298h108v-206h340v-92zM332 374v-93h-109v92h-208v92h252q54 0 142.5 2.5t177.5 20.5v-93q-83 -17 -174 -19q-45 -2 -81 -2zM617 280v589h109v-589h-109zM746 -118h-534v235h404v48h-409v91h518v-227h-402v-56h423v-91z" />
<glyph unicode="&#xb268;" horiz-adv-x="803" d="M523 508h-448v309h108v-214h340v-95zM332 349v-114h-109v113h-208v94h252q54 0 142.5 2.5t177.5 19.5v-95q-81 -16 -172 -18q-46 -2 -83 -2zM617 234v635h109v-635h-109zM725 -113h-513v320h513v-320zM617 -20v134h-298v-134h298z" />
<glyph unicode="&#xb269;" horiz-adv-x="803" d="M523 508h-448v309h108v-216h340v-93zM332 354v-104h-109v103h-208v93h252q54 0 142.5 2.5t177.5 19.5v-94q-81 -16 -172 -18q-46 -2 -83 -2zM617 249v620h109v-620h-109zM725 -118h-513v342h107v-87h298v87h108v-342zM617 -26v72h-298v-72h298z" />
<glyph unicode="&#xb274;" d="M676 443h-512v386h108v-288h404v-98zM814 245h-209v-348h-108v348h-169v-348h-109v348h-208v99h803v-99z" />
<glyph unicode="&#xb275;" d="M681 494h-518v346h108v-248h410v-98zM489 219v98h-154v-98h154zM227 219v98h-216v98h803v-98h-217v-98h57v-347h-108v248h-401v99h82z" />
<glyph unicode="&#xb27c;" d="M681 523h-518v325h108v-229h410v-96zM590 363v-78h68v-247h-386v-60h407v-96h-514v249h386v58h-392v96h75v78h-223v97h803v-97h-224zM482 285v78h-140v-78h140z" />
<glyph unicode="&#xb284;" d="M681 500h-518v340h108v-242h410v-98zM485 235v92h-146v-92h146zM231 235v92h-220v98h803v-98h-221v-92h66v-348h-494v348h66zM552 -16v154h-280v-154h280z" />
<glyph unicode="&#xb285;" d="M681 503h-518v338h108v-241h410v-97zM266 273v72h-255v99h803v-99h-256v-72h101v-391h-494v391h101zM551 238h-98v107h-81v-107h-99v-65h278v65zM551 -22v100h-278v-100h278z" />
<glyph unicode="&#xb289;" d="M681 501h-518v339h108v-241h410v-98zM492 255v83h-159v-83q39 11 80 11t79 -11zM225 196v142h-214v98h803v-98h-215v-141q24 -24 39 -52q18 -37 18 -78t-19 -78.5t-51 -63.5q-33 -27 -78.5 -42t-94.5 -15t-95 15t-78 42q-33 26 -52 63.5t-19 78.5t19 78q15 28 37 51z M548 67q0 42 -39 71t-96 29q-58 0 -96.5 -29t-38.5 -71t38.5 -71t96.5 -29q57 0 96 29t39 71z" />
<glyph unicode="&#xb290;" d="M683 304h-528v483h108v-385h420v-98zM11 119h803v-99h-803v99z" />
<glyph unicode="&#xb291;" d="M681 490h-518v350h108v-252h410v-98zM11 406h803v-99h-803v99zM654 -128h-108v248h-401v99h509v-347z" />
<glyph unicode="&#xb294;" d="M681 467h-518v371h108v-272h410v-99zM11 362h803v-100h-803v100zM687 -108h-521v300h108v-202h413v-98z" />
<glyph unicode="&#xb298;" d="M681 519h-518v329h108v-233h410v-96zM11 451h803v-98h-803v98zM679 -118h-514v249h386v58h-392v96h499v-247h-386v-60h407v-96z" />
<glyph unicode="&#xb299;" d="M681 519h-518v329h108v-233h410v-96zM11 451h803v-98h-803v98zM713 -118h-102v308h-181v95h283v-403zM464 -118h-353v252h196v56h-201v95h298v-244h-192v-64h252v-95z" />
<glyph unicode="&#xb29a;" d="M681 519h-518v329h108v-233h410v-96zM11 451h803v-98h-803v98zM713 -118h-282v403h282v-403zM407 -118h-295v252h189v56h-193v95h289v-244h-185v-64h195v-95zM613 -23v213h-88v-213h88z" />
<glyph unicode="&#xb2a0;" d="M681 496h-518v344h108v-246h410v-98zM814 316h-803v99h803v-99zM552 -16v154h-280v-154h280zM165 235h494v-348h-494v348z" />
<glyph unicode="&#xb2a1;" d="M681 499h-518v342h108v-245h410v-97zM11 418h803v-98h-803v98zM659 -118h-494v391h108v-100h278v100h108v-391zM551 -22v100h-278v-100h278z" />
<glyph unicode="&#xb2a3;" d="M681 490h-518v350h108v-252h410v-98zM814 287h-803v99h803v-99zM455 131l268 -185l-61 -83l-256 178q-14 -17 -30 -33q-92 -93 -221 -141l-60 85q112 39 187.5 110.5t75.5 164.5v7h109v-21q0 -42 -12 -82z" />
<glyph unicode="&#xb2a5;" d="M681 497h-518v343h108v-245h410v-98zM814 315h-803v99h803v-99zM548 67q0 42 -39 71t-96 29q-58 0 -96.5 -29t-38.5 -71t38.5 -71t96.5 -29q57 0 96 29t39 71zM656 67q0 -41 -19 -78.5t-51 -63.5q-33 -27 -78.5 -42t-94.5 -15t-95 15t-78 42q-33 26 -52 63.5t-19 78.5 t19 78t52 64q32 27 78 42t95 15t94.5 -15t78.5 -42q32 -27 51 -64t19 -78z" />
<glyph unicode="&#xb2a6;" d="M681 496h-518v344h108v-246h410v-98zM814 316h-803v99h803v-99zM617 146q-31 -48 -80 -91l211 -111l-60 -82l-241 126q-128 -78 -282 -120l-57 83q117 29 232 89.5t139 96.5h-304v97h472q-2 -46 -30 -88z" />
<glyph unicode="&#xb2aa;" d="M681 496h-518v344h108v-246h410v-98zM814 316h-803v99h803v-99zM688 -18v-96h-551v96h90v156h-88v96h547v-96h-88v-156h90zM333 -18h160v156h-160v-156z" />
<glyph unicode="&#xb2ac;" horiz-adv-x="803" d="M524 379h-446v380h108v-281h338v-99zM726 -103h-109v972h109v-972zM587 151q-83 -16 -171 -19.5t-150 -3.5h-251v99h252q44 0 140 2.5t180 18.5v-97z" />
<glyph unicode="&#xb2b0;" horiz-adv-x="803" d="M524 446h-446v360h108v-266h338v-94zM726 869v-735h-109v735h109zM587 287q-84 -16 -171.5 -19t-149.5 -3h-251v94h252q52 0 139.5 2t180.5 19v-93zM742 -108h-505v297h107v-201h398v-96z" />
<glyph unicode="&#xb2b4;" horiz-adv-x="803" d="M524 510h-446v317h108v-224h338v-93zM726 869v-557h-109v557h109zM587 364q-84 -16 -173.5 -19t-147.5 -3h-251v93h252q46 0 136.5 2t183.5 19v-92zM746 -118h-508v247h378v61h-384v91h493v-240h-377v-68h398v-91z" />
<glyph unicode="&#xb2c8;" horiz-adv-x="791" d="M519 214h-469v544h110v-445h359v-99zM714 -103h-109v972h109v-972z" />
<glyph unicode="&#xb2c9;" horiz-adv-x="791" d="M509 342h-459v462h110v-362h349v-100zM605 283v586h109v-586h-109zM711 -129h-109v275h-402v98h511v-373z" />
<glyph unicode="&#xb2cc;" horiz-adv-x="791" d="M509 315h-459v483h110v-385h349v-98zM605 164v705h109v-705h-109zM728 -108h-498v329h109v-231h389v-98z" />
<glyph unicode="&#xb2d0;" horiz-adv-x="791" d="M509 399h-459v419h110v-321h349v-98zM605 350v519h109v-519h-109zM734 -118h-489v268h357v63h-361v98h470v-256h-358v-76h381v-97z" />
<glyph unicode="&#xb2d2;" horiz-adv-x="791" d="M509 399h-459v419h110v-321h349v-98zM605 350v519h109v-519h-109zM713 -118h-263v430h263v-430zM428 -118h-273v265h169v68h-173v97h268v-257h-165v-77h174v-96zM614 -22v237h-71v-237h71z" />
<glyph unicode="&#xb2d8;" horiz-adv-x="791" d="M509 358h-459v446h110v-348h349v-98zM605 294v575h109v-575h-109zM713 -113h-466v368h466v-368zM605 -16v174h-251v-174h251z" />
<glyph unicode="&#xb2d9;" horiz-adv-x="791" d="M509 373h-459v434h110v-336h349v-98zM605 318v551h109v-551h-109zM711 -118h-466v412h107v-102h251v102h108v-412zM603 -22v119h-251v-119h251z" />
<glyph unicode="&#xb2db;" horiz-adv-x="791" d="M509 348h-459v456h110v-358h349v-98zM605 224v645h109v-645h-109zM506 150l249 -207l-68 -76l-226 194q-9 -16 -21 -30q-83 -104 -213 -162l-62 80q100 40 174.5 126.5t74.5 188.5v16h108v-29q0 -51 -16 -101z" />
<glyph unicode="&#xb2dd;" horiz-adv-x="791" d="M509 348h-459v456h110v-358h349v-98zM605 280v589h109v-589h-109zM604 76q0 46 -35 78t-86 32q-50 0 -85.5 -32t-35.5 -78t35.5 -77.5t85.5 -31.5q51 0 86 31.5t35 77.5zM713 76q0 -43 -17.5 -81.5t-48.5 -66.5q-31 -29 -74 -44.5t-90 -15.5t-90 15.5t-74 44.5 q-30 28 -47.5 66.5t-17.5 81.5t17.5 81.5t47.5 67.5q31 28 74 43.5t90 15.5t90 -15.5t74 -43.5q31 -29 48.5 -67.5t17.5 -81.5z" />
<glyph unicode="&#xb2e2;" horiz-adv-x="791" d="M509 358h-459v446h110v-348h349v-98zM605 294v575h109v-575h-109zM729 -17v-96h-542v96h97v176h-95v96h538v-96h-88v-176h90zM389 -17h145v176h-145v-176z" />
<glyph unicode="&#xb2e4;" horiz-adv-x="828" d="M505 204h-455v541h393v-98h-284v-345h346v-98zM824 424h-144v-527h-109v972h109v-341h144v-104z" />
<glyph unicode="&#xb2e5;" horiz-adv-x="828" d="M505 337h-455v461h393v-98h-284v-264h346v-99zM820 523h-140v-240h-109v586h109v-242h140v-104zM680 -129h-109v275h-402v98h511v-373z" />
<glyph unicode="&#xb2e6;" horiz-adv-x="828" d="M505 337h-455v461h393v-98h-284v-264h346v-99zM820 523h-140v-240h-109v586h109v-242h140v-104zM406 244v-373h-106v275h-184v98h290zM680 244v-373h-106v275h-148v98h254z" />
<glyph unicode="&#xb2e8;" horiz-adv-x="828" d="M505 312h-455v477h393v-98h-284v-281h346v-98zM820 510h-140v-346h-109v705h109v-255h140v-104zM698 -108h-497v331h108v-233h389v-98z" />
<glyph unicode="&#xb2eb;" horiz-adv-x="828" d="M505 353h-455v445h393v-98h-284v-249h346v-98zM820 533h-140v-239h-109v575h109v-232h140v-104zM689 -113h-475v368h466v-98h-357v-172h366v-98z" />
<glyph unicode="&#xb2ec;" horiz-adv-x="828" d="M505 391h-455v417h393v-98h-284v-221h346v-98zM820 547h-140v-197h-109v519h109v-218h140v-104zM703 -118h-489v268h357v63h-361v98h470v-256h-357v-76h380v-97z" />
<glyph unicode="&#xb2ed;" horiz-adv-x="828" d="M505 391h-455v417h393v-98h-284v-221h346v-98zM820 547h-140v-197h-109v519h109v-218h140v-104zM680 -118h-101v332h-159v98h260v-430zM454 -118h-332v267h175v65h-179v98h276v-257h-171v-76h231v-97z" />
<glyph unicode="&#xb2ee;" horiz-adv-x="828" d="M505 391h-455v417h393v-98h-284v-221h346v-98zM820 547h-140v-197h-109v519h109v-218h140v-104zM680 -118h-263v430h263v-430zM395 -118h-273v265h169v68h-173v97h268v-257h-165v-77h174v-96zM582 -22v237h-72v-237h72z" />
<glyph unicode="&#xb2ef;" horiz-adv-x="828" d="M505 391h-455v417h393v-98h-284v-221h346v-98zM820 547h-140v-197h-109v519h109v-218h140v-104zM395 -118h-273v265h168v68h-172v97h268v-257h-164v-77h173v-96zM680 -118h-260v430h94v-121h67v121h99v-430zM581 -22v119h-67v-119h67z" />
<glyph unicode="&#xb2f3;" horiz-adv-x="828" d="M505 391h-455v417h393v-98h-284v-221h346v-98zM820 547h-140v-197h-109v519h109v-218h140v-104zM417 -24v-94h-295v265h164v68h-168v97h263v-257h-160v-77h196q-5 20 -5 41q0 32 14 60q7 15 17 27h-44v82h332v-82h-59q10 -12 18 -27q17 -28 17 -60q0 -30 -11.5 -58.5 t-31.5 -51.5q-21 -21 -49 -31.5t-60 -10.5q-28 0 -56 10.5t-48 31.5q-21 23 -30 52zM666 312v-85h-101q-64 0 -129 23l17 76q76 -14 126 -14h87zM608 19q0 29 -16.5 47.5t-36.5 18.5q-16 0 -30.5 -18.5t-14.5 -47.5q0 -26 14.5 -43.5t30.5 -17.5q20 0 36.5 17.5t16.5 43.5z " />
<glyph unicode="&#xb2f4;" horiz-adv-x="828" d="M505 353h-455v445h393v-98h-284v-249h346v-98zM820 533h-140v-239h-109v575h109v-232h140v-104zM680 -113h-466v368h466v-368zM572 -16v174h-250v-174h250z" />
<glyph unicode="&#xb2f5;" horiz-adv-x="828" d="M505 367h-455v431h393v-98h-284v-235h346v-98zM820 540h-140v-222h-109v551h109v-226h140v-103zM680 -118h-466v412h108v-102h250v102h108v-412zM572 -22v119h-250v-119h250z" />
<glyph unicode="&#xb2f7;" horiz-adv-x="828" d="M505 343h-455v455h393v-98h-284v-258h346v-99zM820 523h-140v-299h-109v645h109v-242h140v-104zM472 150l249 -207l-68 -76l-226 194q-9 -16 -20 -30q-83 -104 -213 -162l-63 80q100 40 174.5 126.5t74.5 188.5v16h108v-29q0 -51 -16 -101z" />
<glyph unicode="&#xb2f8;" horiz-adv-x="828" d="M505 353h-455v445h393v-98h-284v-249h346v-98zM820 533h-140v-239h-109v575h109v-232h140v-104zM335 229q0 -53 -16 -105l100 -116q22 25 40 56q38 67 38 173v30h106v-38q0 -53 -12 -103l171 -180l-72 -66l-137 148q-53 -95 -145 -154l-130 154q-55 -91 -150 -148l-68 70 q77 45 122.5 117t45.5 170v30h107v-38z" />
<glyph unicode="&#xb2f9;" horiz-adv-x="828" d="M505 343h-455v455h393v-98h-284v-258h346v-99zM820 532h-140v-250h-109v587h109v-233h140v-104zM575 76q0 46 -35 78t-85 32q-51 0 -86 -32t-35 -78t35 -77.5t86 -31.5q50 0 85 31.5t35 77.5zM684 76q0 -43 -17.5 -81.5t-48.5 -66.5q-30 -29 -73 -44.5t-90 -15.5 t-90 15.5t-74 44.5q-31 28 -48.5 66.5t-17.5 81.5t17.5 81.5t48.5 67.5q31 28 74 43.5t90 15.5t90 -15.5t73 -43.5q31 -29 48.5 -67.5t17.5 -81.5z" />
<glyph unicode="&#xb2fa;" horiz-adv-x="828" d="M505 353h-455v445h393v-98h-284v-249h346v-98zM820 534h-140v-240h-109v575h109v-231h140v-104zM679 255q-9 -88 -115 -186l214 -113l-53 -86l-244 132q-114 -76 -287 -123l-53 80q122 31 225 87q108 62 148 114h-306v95h471z" />
<glyph unicode="&#xb2fb;" horiz-adv-x="828" d="M505 391h-455v417h393v-98h-284v-221h346v-98zM820 547h-140v-197h-109v519h109v-218h140v-104zM601 310v-85h-186q-93 0 -160 36l25 73q82 -24 147 -24h174zM679 184q-35 -82 -115 -148l197 -87l-48 -78l-234 106q-136 -80 -289 -106l-54 79q115 25 212.5 66.5 t132.5 74.5h-283v93h481z" />
<glyph unicode="&#xb2ff;" horiz-adv-x="828" d="M505 393h-455v415h393v-98h-284v-219h346v-98zM820 558h-140v-208h-109v519h109v-207h140v-104zM605 323v-90h-189q-95 0 -159 36l26 79q87 -25 146 -25h176zM724 104h-124q7 -9 13 -19q18 -26 18 -59q0 -34 -15 -65.5t-42 -54.5q-26 -23 -63 -35t-78 -12q-40 0 -77 12 t-63 35q-27 23 -41 54.5t-14 65.5q0 33 17 59q5 10 12 19h-124v91h581v-91zM524 27q0 30 -26.5 51.5t-63.5 21.5q-39 0 -64.5 -21.5t-25.5 -51.5q0 -32 25.5 -52.5t64.5 -20.5q37 0 63.5 20.5t26.5 52.5z" />
<glyph unicode="&#xb300;" horiz-adv-x="837" d="M422 204h-372v541h346v-98h-238v-345h264v-98zM558 526h96v343h106v-972h-106v529h-96v-466h-103v888h103v-322z" />
<glyph unicode="&#xb301;" horiz-adv-x="837" d="M422 324h-372v474h346v-98h-238v-278h264v-98zM577 625h77v244h106v-586h-106v244h-77v-229h-104v550h104v-223zM755 -129h-109v275h-413v98h522v-373z" />
<glyph unicode="&#xb304;" horiz-adv-x="837" d="M422 299h-372v489h346v-98h-238v-292h264v-99zM577 601h77v268h106v-705h-106v339h-77v-316h-104v661h104v-247zM772 -108h-508v329h109v-231h399v-98z" />
<glyph unicode="&#xb308;" horiz-adv-x="837" d="M422 378h-372v430h346v-98h-238v-233h264v-99zM577 657h77v212h106v-524h-106v213h-77v-197h-104v487h104v-191zM778 -118h-499v266h367v61h-372v98h481v-254h-368v-74h391v-97z" />
<glyph unicode="&#xb310;" horiz-adv-x="837" d="M422 345h-372v453h346v-98h-238v-256h264v-99zM577 630h77v239h106v-578h-106v241h-77v-225h-104v541h104v-218zM752 -113h-477v365h477v-365zM644 -16v171h-261v-171h261z" />
<glyph unicode="&#xb311;" horiz-adv-x="837" d="M422 352h-372v446h346v-98h-238v-250h264v-98zM577 641h77v228h106v-556h-106v230h-77v-220h-104v525h104v-207zM755 -118h-476v407h107v-102h261v102h108v-407zM647 -22v114h-261v-114h261z" />
<glyph unicode="&#xb313;" horiz-adv-x="837" d="M422 325h-372v473h346v-98h-238v-277h264v-98zM577 614h77v255h106v-643h-106v289h-77v-226h-104v559h104v-234zM523 140l250 -193l-66 -80l-231 183l-18 -25q-83 -99 -213 -156l-63 80q108 48 178.5 124t70.5 175v9h109v-22q0 -49 -17 -95z" />
<glyph unicode="&#xb314;" horiz-adv-x="837" d="M422 345h-372v453h346v-98h-238v-256h264v-99zM577 630h77v239h106v-578h-106v241h-77v-225h-104v541h104v-218zM392 229q0 -53 -14 -104l100 -117q24 25 41 55q41 67 41 174v27h107v-34q0 -53 -13 -103l173 -180l-68 -67l-144 149q-55 -95 -147 -156l-135 154 q-54 -87 -151 -147l-66 70q77 44 123.5 116t46.5 171v27h106v-35z" />
<glyph unicode="&#xb315;" horiz-adv-x="837" d="M422 325h-372v473h346v-98h-238v-277h264v-98zM654 262v259h-77v-216h-104v543h104v-229h77v250h106v-607h-106zM627 71q0 44 -36 75t-88 31t-88 -31t-36 -75t36 -74.5t88 -30.5t88 30.5t36 74.5zM735 71q0 -42 -17.5 -80t-48.5 -65q-32 -28 -75.5 -43.5t-90.5 -15.5 t-90.5 15.5t-75.5 43.5q-32 27 -49.5 65t-17.5 80t17.5 80t49.5 65q32 28 75.5 43.5t90.5 15.5t90.5 -15.5t75.5 -43.5q31 -27 48.5 -65t17.5 -80z" />
<glyph unicode="&#xb31c;" horiz-adv-x="828" d="M505 204h-455v541h393v-98h-284v-345h346v-98zM824 541h-144v-149h144v-99h-144v-396h-108v972h108v-230h144v-98z" />
<glyph unicode="&#xb354;" horiz-adv-x="791" d="M502 204h-452v541h383v-98h-274v-345h343v-98zM714 -103h-109v538h-217v99h217v335h109v-972z" />
<glyph unicode="&#xb355;" horiz-adv-x="791" d="M505 337h-455v461h393v-98h-284v-264h346v-99zM714 283h-109v241h-210v97h210v248h109v-586zM711 -129h-109v275h-402v98h511v-373z" />
<glyph unicode="&#xb356;" horiz-adv-x="791" d="M505 337h-455v461h393v-98h-284v-264h346v-99zM714 283h-109v241h-210v97h210v248h109v-586zM438 244v-373h-105v275h-185v98h290zM713 244v-373h-106v275h-148v98h254z" />
<glyph unicode="&#xb358;" horiz-adv-x="791" d="M505 312h-455v477h393v-98h-284v-281h346v-98zM714 164h-109v343h-210v100h210v262h109v-705zM728 -108h-498v329h109v-231h389v-98z" />
<glyph unicode="&#xb35b;" horiz-adv-x="791" d="M506 353h-455v445h393v-98h-284v-249h346v-98zM714 294h-109v239h-210v97h210v239h109v-575zM720 -113h-475v368h466v-98h-358v-172h367v-98z" />
<glyph unicode="&#xb35c;" horiz-adv-x="791" d="M505 386h-455v422h393v-98h-284v-225h346v-99zM714 350h-109v202h-210v100h210v217h109v-519zM734 -118h-489v268h357v63h-361v98h470v-256h-358v-76h381v-97z" />
<glyph unicode="&#xb35e;" horiz-adv-x="791" d="M505 386h-455v422h393v-98h-284v-225h346v-99zM714 350h-109v202h-210v100h210v217h109v-519zM713 -118h-263v430h263v-430zM428 -118h-273v265h169v68h-173v97h268v-257h-165v-77h174v-96zM614 -22v237h-71v-237h71z" />
<glyph unicode="&#xb35f;" horiz-adv-x="791" d="M505 386h-455v422h393v-98h-284v-225h346v-99zM714 350h-109v202h-210v100h210v217h109v-519zM428 -118h-273v265h168v68h-172v97h268v-257h-164v-77h173v-96zM713 -118h-260v430h94v-121h66v121h100v-430zM613 -22v119h-66v-119h66z" />
<glyph unicode="&#xb364;" horiz-adv-x="791" d="M506 353h-455v445h393v-98h-284v-249h346v-98zM714 294h-109v239h-210v97h210v239h109v-575zM713 -113h-466v368h466v-368zM605 -16v174h-251v-174h251z" />
<glyph unicode="&#xb365;" horiz-adv-x="791" d="M505 367h-455v431h393v-98h-284v-235h346v-98zM714 318h-109v220h-210v99h210v232h109v-551zM711 -118h-466v412h107v-102h251v102h108v-412zM603 -22v119h-251v-119h251z" />
<glyph unicode="&#xb367;" horiz-adv-x="791" d="M505 343h-455v455h393v-98h-284v-258h346v-99zM714 224h-109v302h-210v98h210v245h109v-645zM506 150l249 -207l-68 -76l-226 194q-9 -16 -21 -30q-83 -104 -213 -162l-62 80q100 40 174.5 126.5t74.5 188.5v16h108v-29q0 -51 -16 -101z" />
<glyph unicode="&#xb369;" horiz-adv-x="791" d="M505 343h-455v455h393v-98h-284v-258h346v-99zM714 280h-109v247h-210v98h210v244h109v-589zM604 76q0 46 -35 78t-86 32q-50 0 -85.5 -32t-35.5 -78t35.5 -77.5t85.5 -31.5q51 0 86 31.5t35 77.5zM713 76q0 -43 -17.5 -81.5t-48.5 -66.5q-31 -29 -74 -44.5t-90 -15.5 t-90 15.5t-74 44.5q-30 28 -47.5 66.5t-17.5 81.5t17.5 81.5t47.5 67.5q31 28 74 43.5t90 15.5t90 -15.5t74 -43.5q31 -29 48.5 -67.5t17.5 -81.5z" />
<glyph unicode="&#xb36b;" horiz-adv-x="791" d="M505 386h-455v422h393v-98h-284v-225h346v-99zM714 350h-109v202h-210v100h210v217h109v-519zM629 310v-85h-187q-93 0 -159 36l24 73q83 -24 148 -24h174zM707 184q-35 -82 -115 -148l196 -87l-48 -78l-233 106q-136 -80 -289 -106l-54 79q115 25 212.5 66.5t132.5 74.5 h-284v93h482z" />
<glyph unicode="&#xb36e;" horiz-adv-x="791" d="M506 353h-455v445h393v-98h-284v-249h346v-98zM714 294h-109v239h-210v97h210v239h109v-575zM729 -17v-96h-542v96h97v176h-95v96h538v-96h-88v-176h90zM389 -17h145v176h-145v-176z" />
<glyph unicode="&#xb370;" horiz-adv-x="837" d="M422 204h-372v541h346v-98h-238v-345h264v-98zM760 -103h-106v972h106v-972zM314 529h167v319h105v-888h-105v470h-167v99z" />
<glyph unicode="&#xb371;" horiz-adv-x="837" d="M422 324h-372v474h346v-98h-238v-278h264v-98zM760 283h-106v586h106v-586zM324 612h159v236h105v-550h-105v215h-159v99zM755 -129h-109v275h-413v98h522v-373z" />
<glyph unicode="&#xb374;" horiz-adv-x="837" d="M422 299h-372v489h346v-98h-238v-292h264v-99zM760 164h-106v705h106v-705zM325 597h158v251h105v-661h-105v312h-158v98zM772 -108h-508v329h109v-231h399v-98z" />
<glyph unicode="&#xb378;" horiz-adv-x="837" d="M422 378h-372v430h346v-97h-238v-235h264v-98zM760 345h-106v524h106v-524zM324 646h159v202h105v-487h-105v186h-159v99zM778 -118h-499v266h367v61h-372v98h481v-254h-368v-74h391v-97z" />
<glyph unicode="&#xb380;" horiz-adv-x="837" d="M422 345h-372v453h346v-98h-238v-256h264v-99zM760 291h-106v578h106v-578zM325 624h158v224h105v-541h-105v219h-158v98zM752 -113h-477v365h477v-365zM644 -16v171h-261v-171h261z" />
<glyph unicode="&#xb381;" horiz-adv-x="837" d="M422 352h-372v446h346v-98h-238v-250h264v-98zM760 313h-106v556h106v-556zM324 627h159v221h105v-525h-105v206h-159v98zM755 -118h-476v407h107v-102h261v102h108v-407zM647 -22v114h-261v-114h261z" />
<glyph unicode="&#xb383;" horiz-adv-x="837" d="M422 325h-372v473h346v-98h-238v-277h264v-98zM760 226h-106v643h106v-643zM325 614h158v234h105v-559h-105v226h-158v99zM523 140l250 -193l-66 -80l-231 183l-18 -25q-83 -99 -213 -156l-63 80q108 48 178.5 124t70.5 175v9h109v-22q0 -49 -17 -95z" />
<glyph unicode="&#xb384;" horiz-adv-x="837" d="M422 345h-372v453h346v-98h-238v-256h264v-99zM760 291h-106v578h106v-578zM325 624h158v224h105v-541h-105v219h-158v98zM392 229q0 -53 -14 -104l100 -117q24 25 41 55q41 67 41 174v27h107v-34q0 -53 -13 -103l173 -180l-68 -67l-144 149q-55 -95 -147 -156l-135 154 q-54 -87 -151 -147l-66 70q77 44 123.5 116t46.5 171v27h106v-35z" />
<glyph unicode="&#xb385;" horiz-adv-x="837" d="M422 325h-372v473h346v-98h-238v-277h264v-98zM760 262h-106v607h106v-607zM483 305v210h-158v99h158v234h105v-543h-105zM627 71q0 44 -36 75t-88 31t-88 -31t-36 -75t36 -74.5t88 -30.5t88 30.5t36 74.5zM735 71q0 -42 -17.5 -80t-48.5 -65q-32 -28 -75.5 -43.5 t-90.5 -15.5t-90.5 15.5t-75.5 43.5q-32 27 -49.5 65t-17.5 80t17.5 80t49.5 65q32 28 75.5 43.5t90.5 15.5t90.5 -15.5t75.5 -43.5q31 -27 48.5 -65t17.5 -80z" />
<glyph unicode="&#xb38c;" horiz-adv-x="791" d="M502 204h-452v541h383v-98h-274v-345h343v-98zM714 -103h-108v441h-180v99h180v80h-180v98h180v254h108v-972z" />
<glyph unicode="&#xb390;" horiz-adv-x="791" d="M505 289h-455v500h393v-94h-284v-312h346v-94zM714 164h-108v256h-180v92h180v60h-180v92h180v205h108v-705zM728 -108h-498v329h109v-231h389v-98z" />
<glyph unicode="&#xb394;" horiz-adv-x="791" d="M505 358h-455v450h393v-94h-284v-262h346v-94zM714 350h-108v126h-180v92h180v42h-180v92h180v167h108v-519zM734 -118h-489v268h357v63h-361v98h470v-256h-358v-76h381v-97z" />
<glyph unicode="&#xb3a0;" horiz-adv-x="791" d="M505 325h-455v473h393v-94h-284v-285h346v-94zM714 294h-108v157h-180v92h180v46h-180v92h180v188h108v-575zM372 229q0 -53 -16 -105l100 -116q22 25 40 56q38 67 38 173v30h106v-38q0 -53 -12 -103l171 -180l-72 -66l-137 148q-53 -95 -146 -154l-130 154 q-54 -91 -149 -148l-68 70q77 45 122.5 117t45.5 170v30h107v-38z" />
<glyph unicode="&#xb3a1;" horiz-adv-x="791" d="M505 331h-455v467h393v-94h-284v-279h346v-94zM606 589h-180v92h180v188h108v-589h-108v174h-180v92h180v43zM604 76q0 46 -35 78t-86 32q-50 0 -85.5 -32t-35.5 -78t35.5 -77.5t85.5 -31.5q51 0 86 31.5t35 77.5zM713 76q0 -43 -17.5 -81.5t-48.5 -66.5 q-31 -29 -74 -44.5t-90 -15.5t-90 15.5t-74 44.5q-30 28 -47.5 66.5t-17.5 81.5t17.5 81.5t47.5 67.5q31 28 74 43.5t90 15.5t90 -15.5t74 -43.5q31 -29 48.5 -67.5t17.5 -81.5z" />
<glyph unicode="&#xb3a8;" horiz-adv-x="837" d="M422 204h-372v541h346v-98h-238v-345h264v-98zM760 -103h-106v972h106v-972zM325 614h157v234h104v-888h-104v380h-157v99h157v76h-157v99z" />
<glyph unicode="&#xb3ac;" horiz-adv-x="837" d="M422 289h-372v499h346v-94h-238v-311h264v-94zM760 164h-106v705h106v-705zM335 658h148v190h104v-661h-104v233h-148v92h148v54h-148v92zM772 -108h-508v329h109v-231h399v-98z" />
<glyph unicode="&#xb3c4;" d="M668 304h-196v-185h342v-99h-803v99h353v185h-209v464h512v-98h-404v-268h405v-98z" />
<glyph unicode="&#xb3c5;" d="M663 464h-194v-78h345v-99h-803v99h349v78h-196v366h498v-98h-390v-169h391v-99zM654 -128h-108v248h-401v99h509v-347z" />
<glyph unicode="&#xb3c8;" d="M663 455h-194v-106h345v-100h-803v100h349v106h-196v375h498v-98h-390v-179h391v-98zM687 -108h-521v300h108v-202h413v-98z" />
<glyph unicode="&#xb3cb;" d="M663 467h-193v-76h344v-100h-803v100h350v76h-197v363h498v-98h-390v-166h391v-99zM678 -114h-513v348h504v-98h-396v-152h405v-98z" />
<glyph unicode="&#xb3cc;" d="M663 498h-193v-64h344v-99h-803v99h350v64h-196v342h497v-96h-389v-150h390v-96zM679 -118h-514v249h386v58h-392v96h499v-247h-386v-60h407v-96z" />
<glyph unicode="&#xb3ce;" d="M663 498h-193v-64h344v-99h-803v99h350v64h-196v342h497v-96h-389v-150h390v-96zM713 -118h-282v403h282v-403zM407 -118h-295v252h189v56h-193v95h289v-244h-185v-64h195v-95zM613 -23v213h-88v-213h88z" />
<glyph unicode="&#xb3d0;" d="M663 498h-193v-64h344v-99h-803v99h350v64h-196v342h497v-96h-389v-150h390v-96zM420 -118h-308v252h199v56h-203v95h303v-244h-198v-64h207v-12q54 45 83 103q35 71 35 162v55h104v-69q0 -48 -10 -94l151 -186l-77 -65l-116 144q-51 -92 -128 -141l-42 47v-39z" />
<glyph unicode="&#xb3d4;" d="M663 467h-193v-76h344v-100h-803v100h350v76h-197v363h498v-98h-390v-166h391v-99zM552 -16v154h-280v-154h280zM165 235h494v-348h-494v348z" />
<glyph unicode="&#xb3d5;" d="M663 478h-193v-72h344v-98h-803v98h350v72h-197v352h498v-98h-390v-156h391v-98zM659 -118h-494v391h108v-100h278v100h108v-391zM551 -22v100h-278v-100h278z" />
<glyph unicode="&#xb3d7;" d="M663 464h-193v-97h344v-99h-803v99h350v97h-197v366h498v-98h-390v-169h391v-99zM455 131l268 -185l-61 -83l-256 178q-14 -17 -30 -33q-92 -93 -221 -141l-60 85q112 39 187.5 110.5t75.5 164.5v7h109v-21q0 -42 -12 -82z" />
<glyph unicode="&#xb3d9;" d="M663 478h-193v-77h344v-100h-803v100h350v77h-197v352h498v-98h-390v-156h391v-98zM549 69q0 43 -39 72.5t-97 29.5t-96 -29.5t-38 -72.5t38 -72.5t96 -29.5t97 29.5t39 72.5zM657 69q0 -41 -18.5 -79t-51.5 -64q-33 -28 -79 -43t-95 -15q-48 0 -94.5 15t-78.5 43 q-33 26 -51.5 64t-18.5 79t18.5 78.5t51.5 64.5q32 28 78.5 43t94.5 15q49 0 95 -15t79 -43q33 -27 51.5 -64.5t18.5 -78.5z" />
<glyph unicode="&#xb3db;" d="M663 498h-193v-64h344v-99h-803v99h350v64h-196v342h497v-96h-389v-150h390v-96zM581 200h-211q-52 0 -141 30l22 76q92 -21 134 -21h196v-85zM639 116q-40 -56 -98 -100l201 -67l-46 -79l-252 86q-116 -56 -287 -84l-54 79q127 24 205.5 51t151.5 69h-294v90h491 q-7 -28 -18 -45z" />
<glyph unicode="&#xb3dd;" d="M663 498h-193v-64h344v-99h-803v99h350v64h-196v342h497v-96h-389v-150h390v-96zM165 285h492v-95h-387v-59h376v-92h-376v-62h396v-95h-501v403z" />
<glyph unicode="&#xb3e0;" horiz-adv-x="845" d="M500 369h-149v-141q22 1 46 2q96 2 180 18v-97q-83 -16 -171.5 -19.5t-149.5 -3.5h-241v99h227v142h-169v385h427v-98h-319v-189h319v-98zM841 407h-139v-510h-108v972h108v-360h139v-102z" />
<glyph unicode="&#xb3e4;" horiz-adv-x="845" d="M500 447h-151v-108q23 0 47 1q87 2 181 20v-93q-84 -17 -172 -20t-149 -3h-241v94h226v109h-168v352h427v-94h-319v-164h319v-94zM841 464h-139v-330h-108v735h108v-306h139v-99zM719 -108h-506v297h108v-201h398v-96z" />
<glyph unicode="&#xb3e8;" horiz-adv-x="845" d="M500 505h-151v-80q21 0 44 1q90 2 184 20v-92q-84 -17 -174 -19.5t-147 -2.5h-241v92h226v81h-168v315h427v-93h-319v-130h319v-92zM841 545h-139v-233h-108v557h108v-226h139v-98zM723 -118h-509v247h379v61h-384v91h492v-240h-376v-68h398v-91z" />
<glyph unicode="&#xb3fc;" horiz-adv-x="859" d="M441 369h-123v-144l30 2q60 2 135 15v-98q-70 -14 -132 -16.5t-115 -2.5h-221v99h195v145h-151v385h382v-98h-275v-189h275v-98zM609 514h67v355h106v-972h-106v519h-67v-456h-105v888h105v-334z" />
<glyph unicode="&#xb410;" horiz-adv-x="859" d="M441 468h-123v-99q15 0 30 1q56 2 137 16v-94q-75 -14 -136.5 -16t-110.5 -2h-223v94h195v100h-151v341h382v-94h-275v-152h275v-95zM609 622h67v247h106v-623h-106v282h-67v-264h-105v584h105v-226zM381 198q0 -46 -13 -91l98 -106q23 23 43 53q40 60 40 151v21h106v-28 q0 -44 -10 -85l172 -166l-67 -67l-145 141q-55 -89 -146 -147l-135 141q-53 -80 -147 -135l-66 69q75 41 119 105.5t44 150.5v21h107v-28z" />
<glyph unicode="&#xb418;" horiz-adv-x="803" d="M507 369h-150v-141q23 1 51 2q95 2 179 19v-97q-83 -17 -171 -20.5t-150 -3.5h-251v99h233v142h-170v385h429v-98h-321v-189h321v-98zM726 -103h-109v972h109v-972z" />
<glyph unicode="&#xb41c;" horiz-adv-x="803" d="M509 447h-153v-108q24 0 51 1q87 2 180 21v-93q-84 -18 -171.5 -21t-149.5 -3h-251v94h233v109h-170v352h431v-94h-323v-164h323v-94zM726 869v-735h-109v735h109zM742 -108h-505v297h107v-201h398v-96z" />
<glyph unicode="&#xb420;" horiz-adv-x="803" d="M509 505h-153v-80q22 0 47 1q91 2 184 21v-92q-84 -18 -173.5 -20.5t-147.5 -2.5h-251v92h233v81h-170v315h431v-93h-323v-130h323v-92zM726 869v-557h-109v557h109zM746 -118h-508v247h378v61h-384v91h493v-240h-377v-68h398v-91z" />
<glyph unicode="&#xb428;" horiz-adv-x="803" d="M509 469h-153v-91q21 0 45 1q98 2 186 21v-93q-84 -18 -171.5 -21t-149.5 -3h-251v94h233v92h-170v340h431v-94h-323v-151h323v-95zM726 869v-617h-109v617h109zM724 -113h-487v333h487v-333zM616 -20v146h-272v-146h272z" />
<glyph unicode="&#xb429;" horiz-adv-x="803" d="M509 478h-153v-89q21 0 45 1q98 2 186 20v-92q-84 -18 -171.5 -21t-149.5 -3h-251v93h233v91h-170v331h431v-93h-323v-145h323v-93zM726 869v-581h-109v581h109zM725 -118h-487v377h107v-92h272v92h108v-377zM617 -26v103h-272v-103h272z" />
<glyph unicode="&#xb42b;" horiz-adv-x="803" d="M509 463h-153v-98q21 0 45 1q98 2 186 20v-93q-84 -17 -171.5 -20t-149.5 -3h-251v94h233v99h-170v346h431v-94h-323v-158h323v-94zM726 869v-679h-109v679h109zM520 123l246 -180l-66 -76l-225 169q-13 -17 -30 -34q-88 -92 -206 -131l-58 76q111 41 177.5 110t66.5 164 v16h109v-29q0 -44 -14 -85z" />
<glyph unicode="&#xb434;" d="M668 314h-75v-196h221v-98h-803v98h232v196h-88v454h512v-98h-404v-258h405v-98zM486 314h-137v-196h137v196z" />
<glyph unicode="&#xb450;" d="M663 419h-499v389h498v-98h-390v-192h391v-99zM814 224h-348v-327h-109v327h-346v99h803v-99z" />
<glyph unicode="&#xb451;" d="M663 468h-499v362h498v-98h-390v-165h391v-99zM358 219v78h-347v100h803v-100h-347v-78h187v-347h-108v248h-401v99h213z" />
<glyph unicode="&#xb454;" d="M663 459h-499v371h498v-98h-390v-175h391v-98zM814 276h-329v-180h-108v180h-366v99h803v-99zM687 -108h-521v295h108v-197h413v-98z" />
<glyph unicode="&#xb458;" d="M663 504h-498v336h497v-96h-389v-144h390v-96zM359 285v64h-348v97h803v-97h-348v-64h192v-247h-386v-60h407v-96h-514v249h386v58h-392v96h200z" />
<glyph unicode="&#xb460;" d="M663 471h-499v359h498v-98h-390v-162h391v-99zM358 235v72h-347v99h803v-99h-347v-72h192v-348h-494v348h193zM552 -16v154h-280v-154h280z" />
<glyph unicode="&#xb461;" d="M663 482h-499v348h498v-98h-390v-152h391v-98zM467 230h-109v97h-347v98h803v-98h-347v-97zM659 -118h-494v391h108v-100h278v100h108v-391zM551 -22v100h-278v-100h278z" />
<glyph unicode="&#xb463;" d="M663 468h-499v362h498v-98h-390v-165h391v-99zM468 214h-111v85h-346v100h803v-100h-346v-85zM459 115l264 -168l-60 -84l-254 162q-16 -17 -35 -34q-93 -83 -220 -124l-59 85q110 32 186.5 95t76.5 141v7h109v-22q0 -29 -8 -58z" />
<glyph unicode="&#xb465;" d="M663 481h-499v349h498v-98h-390v-153h391v-98zM358 261v56h-347v99h803v-99h-347v-56q20 -4 41 -10q45 -15 78 -42q32 -27 51 -64t19 -78t-19 -78.5t-51 -63.5q-33 -27 -78.5 -42t-94.5 -15t-95 15t-78 42q-33 26 -52 63.5t-19 78.5t19 78t52 64q32 27 78 42q20 6 40 10z M548 67q0 42 -39 71t-96 29q-58 0 -96.5 -29t-38.5 -71t38.5 -71t96.5 -29q57 0 96 29t39 71z" />
<glyph unicode="&#xb46c;" horiz-adv-x="803" d="M513 410h-438v380h438v-98h-330v-184h330v-98zM345 244v-332h-108v331h-222v98h252q44 0 140 3t180 19v-97q-83 -17 -171 -20q-38 -1 -71 -2zM617 -103v191h-189v99h189v682h109v-972h-109z" />
<glyph unicode="&#xb480;" horiz-adv-x="803" d="M513 505h-438v304h438v-94h-330v-116h330v-94zM332 365v-140h-109v139h-208v94h252q54 0 142.5 2.5t177.5 20.5v-96q-81 -16 -172 -18q-46 -2 -83 -2zM617 224v25h-189v93h189v527h109v-645h-109zM367 183q0 -44 -12 -84l97 -103q21 19 40 44q40 58 40 149v14h107v-20 q0 -41 -8 -78l168 -159l-66 -66l-140 133q-50 -81 -150 -140l-130 134q-49 -72 -149 -127l-67 69q81 42 122 97t41 143v14h107v-20z" />
<glyph unicode="&#xb488;" horiz-adv-x="859" d="M446 425h-387v365h387v-98h-280v-168h280v-99zM360 193h154v655h106v-925h-106v172h-154v98zM676 -103v972h106v-972h-106zM304 262v-339h-107v338h-182v98h230q53 0 112.5 2.5t135.5 16.5v-98q-71 -14 -133 -16q-29 -2 -56 -2z" />
<glyph unicode="&#xb49d;" horiz-adv-x="859" d="M446 511h-387v299h387v-93h-280v-112h280v-94zM365 350h149v498h106v-614h-106v25h-149v91zM676 203v666h106v-666h-106zM309 378v-154h-108v153h-186v93h230q53 0 112.5 3t135.5 17v-94q-71 -13 -133 -16q-26 -1 -51 -2zM644 39q0 33 -36 56.5t-91 23.5t-91 -23.5 t-36 -56.5q0 -31 36 -54.5t91 -23.5t91 23.5t36 54.5zM753 39q0 -34 -18 -67t-50 -59q-35 -21 -78 -33.5t-90 -12.5t-90 12.5t-78 33.5q-32 26 -49.5 59t-17.5 67q0 36 17.5 69t49.5 58q35 22 78 34.5t90 12.5t90 -12.5t78 -34.5q32 -25 50 -58t18 -69z" />
<glyph unicode="&#xb4a4;" horiz-adv-x="803" d="M513 410h-438v380h438v-98h-330v-184h330v-98zM345 237v-325h-108v324h-222v98h252q44 0 140 2.5t180 19.5v-98q-83 -16 -171 -19q-38 -1 -71 -2zM617 -103v972h109v-972h-109z" />
<glyph unicode="&#xb4a8;" horiz-adv-x="803" d="M514 463h-438v337h438v-94h-330v-149h330v-94zM332 306v-117h-109v116h-208v94h252q54 0 142.5 2.5t177.5 19.5v-95q-81 -16 -172 -18q-46 -2 -83 -2zM617 95v774h109v-774h-109zM740 -108h-527v263h110v-169h417v-94z" />
<glyph unicode="&#xb4ac;" horiz-adv-x="803" d="M513 519h-438v301h438v-93h-330v-116h330v-92zM332 373v-92h-109v91h-208v92h252q54 0 142.5 3t177.5 21v-93q-83 -17 -174 -20q-45 -1 -81 -2zM617 280v589h109v-589h-109zM746 -118h-534v235h404v48h-409v91h518v-227h-402v-56h423v-91z" />
<glyph unicode="&#xb4b5;" horiz-adv-x="803" d="M513 492h-438v317h438v-93h-330v-131h330v-93zM332 349v-99h-109v98h-208v92h252q54 0 142.5 2.5t177.5 19.5v-93q-81 -16 -172 -18q-46 -2 -83 -2zM617 249v620h109v-620h-109zM725 -118h-513v342h107v-87h298v87h108v-342zM617 -26v72h-298v-72h298z" />
<glyph unicode="&#xb4b7;" horiz-adv-x="803" d="M513 480h-438v329h438v-94h-330v-141h330v-94zM332 317v-128h-109v127h-208v94h252q54 0 142.5 2.5t177.5 20.5v-96q-81 -16 -172 -18q-46 -2 -83 -2zM617 188v681h109v-681h-109zM498 125l248 -179l-61 -79l-234 174q-11 -13 -22 -25q-83 -94 -206 -147l-61 78 q104 43 172.5 115.5t68.5 158.5v13h109v-26q0 -42 -14 -83z" />
<glyph unicode="&#xb4b9;" horiz-adv-x="803" d="M513 496h-438v313h438v-94h-330v-125h330v-94zM332 340v-101h-109v100h-208v95h252q54 0 142.5 2.5t177.5 19.5v-95q-81 -17 -172 -19q-46 -2 -83 -2zM617 238v631h109v-631h-109zM613 58q0 42 -35 69.5t-90 27.5q-54 0 -89 -27.5t-35 -69.5q0 -41 35 -68t89 -27 q55 0 90 27t35 68zM722 58q0 -39 -18 -75t-50 -61q-31 -26 -74.5 -40t-91.5 -14q-47 0 -90.5 14t-74.5 40q-32 25 -50 61t-18 75q0 40 18 75t50 62q31 26 74.5 40t90.5 14q48 0 91.5 -14t74.5 -40q32 -27 50 -62t18 -75z" />
<glyph unicode="&#xb4c0;" d="M663 419h-499v389h498v-98h-390v-192h391v-99zM814 224h-209v-327h-108v327h-169v-327h-109v327h-208v99h803v-99z" />
<glyph unicode="&#xb4c4;" d="M663 459h-499v371h498v-98h-390v-175h391v-98zM814 282h-225v-179h-106v179h-76v-179h-106v179h-290v99h803v-99zM687 -108h-527v290h106v-192h421v-98z" />
<glyph unicode="&#xb4c8;" d="M663 504h-498v336h497v-96h-389v-144h390v-96zM590 352v-67h68v-247h-386v-60h407v-96h-514v249h386v58h-392v96h75v67h-223v97h803v-97h-224zM482 285v67h-140v-67h140z" />
<glyph unicode="&#xb4d0;" d="M663 471h-499v359h498v-98h-390v-162h391v-99zM485 235v75h-146v-75h146zM231 235v75h-220v98h803v-98h-221v-75h66v-348h-494v348h66zM552 -16v154h-280v-154h280z" />
<glyph unicode="&#xb4d5;" d="M663 481h-499v349h498v-98h-390v-153h391v-98zM492 255v67h-159v-67q39 11 80 11t79 -11zM225 196v126h-214v97h803v-97h-215v-125q24 -24 39 -52q18 -37 18 -78t-19 -78.5t-51 -63.5q-33 -27 -78.5 -42t-94.5 -15t-95 15t-78 42q-33 26 -52 63.5t-19 78.5t19 78 q15 28 37 51zM548 67q0 42 -39 71t-96 29q-58 0 -96.5 -29t-38.5 -71t38.5 -71t96.5 -29q57 0 96 29t39 71z" />
<glyph unicode="&#xb4dc;" d="M668 293h-513v475h512v-98h-404v-278h405v-99zM11 119h803v-99h-803v99z" />
<glyph unicode="&#xb4dd;" d="M663 464h-499v366h498v-98h-390v-169h391v-99zM11 391h803v-100h-803v100zM654 -128h-108v248h-401v99h509v-347z" />
<glyph unicode="&#xb4e0;" d="M663 455h-499v375h498v-98h-390v-179h391v-98zM11 355h803v-101h-803v101zM687 -108h-521v300h108v-202h413v-98z" />
<glyph unicode="&#xb4e3;" d="M663 467h-499v363h498v-98h-390v-166h391v-99zM814 300h-803v100h803v-100zM678 -114h-513v348h504v-98h-396v-152h405v-98z" />
<glyph unicode="&#xb4e4;" d="M663 498h-498v342h497v-96h-389v-150h390v-96zM11 440h803v-99h-803v99zM679 -118h-514v249h386v58h-392v96h499v-247h-386v-60h407v-96z" />
<glyph unicode="&#xb4e6;" d="M663 498h-498v342h497v-96h-389v-150h390v-96zM11 440h803v-99h-803v99zM713 -118h-282v403h282v-403zM407 -118h-295v252h189v56h-193v95h289v-244h-185v-64h195v-95zM613 -23v213h-88v-213h88z" />
<glyph unicode="&#xb4ec;" d="M663 467h-499v363h498v-98h-390v-166h391v-99zM814 300h-803v100h803v-100zM552 -16v154h-280v-154h280zM165 235h494v-348h-494v348z" />
<glyph unicode="&#xb4ed;" d="M663 478h-499v352h498v-98h-390v-156h391v-98zM11 406h803v-98h-803v98zM659 -118h-494v391h108v-100h278v100h108v-391zM551 -22v100h-278v-100h278z" />
<glyph unicode="&#xb4ef;" d="M663 464h-499v366h498v-98h-390v-169h391v-99zM814 280h-803v99h803v-99zM455 131l268 -185l-61 -83l-256 178q-14 -17 -30 -33q-92 -93 -221 -141l-60 85q112 39 187.5 110.5t75.5 164.5v7h109v-21q0 -42 -12 -82z" />
<glyph unicode="&#xb4f1;" d="M663 478h-499v352h498v-98h-390v-156h391v-98zM814 307h-803v99h803v-99zM548 67q0 42 -39 71t-96 29q-58 0 -96.5 -29t-38.5 -71t38.5 -71t96.5 -29q57 0 96 29t39 71zM656 67q0 -41 -19 -78.5t-51 -63.5q-33 -27 -78.5 -42t-94.5 -15t-95 15t-78 42q-33 26 -52 63.5 t-19 78.5t19 78t52 64q32 27 78 42t95 15t94.5 -15t78.5 -42q32 -27 51 -64t19 -78z" />
<glyph unicode="&#xb4f8;" horiz-adv-x="803" d="M507 369h-429v385h429v-98h-321v-189h321v-98zM726 -103h-109v972h109v-972zM587 151q-83 -16 -171 -19.5t-150 -3.5h-251v99h252q44 0 139.5 2.5t180.5 18.5v-97z" />
<glyph unicode="&#xb514;" horiz-adv-x="791" d="M509 204h-459v541h397v-98h-288v-345h350v-98zM714 -103h-109v972h109v-972z" />
<glyph unicode="&#xb515;" horiz-adv-x="791" d="M509 337h-459v461h397v-98h-288v-264h350v-99zM605 283v586h109v-586h-109zM711 -129h-109v275h-402v98h511v-373z" />
<glyph unicode="&#xb518;" horiz-adv-x="791" d="M509 312h-459v477h397v-98h-288v-281h350v-98zM605 164v705h109v-705h-109zM728 -108h-498v329h109v-231h389v-98z" />
<glyph unicode="&#xb51b;" horiz-adv-x="791" d="M509 353h-459v445h397v-98h-288v-249h350v-98zM605 294v575h109v-575h-109zM720 -113h-475v368h466v-98h-358v-172h367v-98z" />
<glyph unicode="&#xb51c;" horiz-adv-x="791" d="M509 390h-459v418h397v-98h-288v-222h350v-98zM605 350v519h109v-519h-109zM734 -118h-489v268h357v63h-361v98h470v-256h-358v-76h381v-97z" />
<glyph unicode="&#xb524;" horiz-adv-x="791" d="M509 353h-459v445h397v-98h-288v-249h350v-98zM605 294v575h109v-575h-109zM713 -113h-466v368h466v-368zM605 -16v174h-251v-174h251z" />
<glyph unicode="&#xb525;" horiz-adv-x="791" d="M509 367h-459v431h397v-98h-288v-235h350v-98zM605 318v551h109v-551h-109zM711 -118h-466v412h107v-102h251v102h108v-412zM603 -22v119h-251v-119h251z" />
<glyph unicode="&#xb527;" horiz-adv-x="791" d="M509 343h-459v455h397v-98h-288v-258h350v-99zM605 224v645h109v-645h-109zM506 150l249 -207l-68 -76l-226 194q-9 -16 -21 -30q-83 -104 -213 -162l-62 80q100 40 174.5 126.5t74.5 188.5v16h108v-29q0 -51 -16 -101z" />
<glyph unicode="&#xb528;" horiz-adv-x="791" d="M509 353h-459v445h397v-98h-288v-249h350v-98zM605 294v575h109v-575h-109zM372 229q0 -53 -16 -105l100 -116q22 25 40 56q38 67 38 173v30h106v-38q0 -53 -12 -103l171 -180l-72 -66l-137 148q-53 -95 -146 -154l-130 154q-54 -91 -149 -148l-68 70q77 45 122.5 117 t45.5 170v30h107v-38z" />
<glyph unicode="&#xb529;" horiz-adv-x="791" d="M509 343h-459v455h397v-98h-288v-258h350v-99zM605 280v589h109v-589h-109zM604 76q0 46 -35 78t-86 32q-50 0 -85.5 -32t-35.5 -78t35.5 -77.5t85.5 -31.5q51 0 86 31.5t35 77.5zM713 76q0 -43 -17.5 -81.5t-48.5 -66.5q-31 -29 -74 -44.5t-90 -15.5t-90 15.5t-74 44.5 q-30 28 -47.5 66.5t-17.5 81.5t17.5 81.5t47.5 67.5q31 28 74 43.5t90 15.5t90 -15.5t74 -43.5q31 -29 48.5 -67.5t17.5 -81.5z" />
<glyph unicode="&#xb52a;" horiz-adv-x="791" d="M509 353h-459v445h397v-98h-288v-249h350v-98zM605 294v575h109v-575h-109zM699 255q-9 -88 -114 -186l214 -113l-54 -86l-243 132q-115 -76 -288 -123l-52 80q122 31 224 87q109 62 149 114h-307v95h471z" />
<glyph unicode="&#xb530;" horiz-adv-x="847" d="M558 209h-508v537h207v-98h-102v-340h125v438h248v-98h-144v-340h174v-99zM840 427h-140v-530h-105v972h105v-338h140v-104z" />
<glyph unicode="&#xb531;" horiz-adv-x="847" d="M558 334h-508v465h207v-98h-102v-268h125v366h248v-98h-144v-268h174v-99zM837 531h-137v-248h-105v586h105v-235h137v-103zM700 -129h-108v275h-413v98h521v-373z" />
<glyph unicode="&#xb534;" horiz-adv-x="847" d="M558 307h-508v483h207v-98h-102v-287h125v385h248v-98h-144v-287h174v-98zM837 510h-137v-346h-105v705h105v-255h137v-104zM719 -108h-508v329h108v-231h400v-98z" />
<glyph unicode="&#xb538;" horiz-adv-x="847" d="M558 389h-508v421h207v-98h-102v-225h125v323h248v-98h-144v-225h174v-98zM837 555h-137v-205h-105v519h105v-211h137v-103zM724 -118h-500v268h368v63h-372v98h480v-256h-367v-76h391v-97z" />
<glyph unicode="&#xb540;" horiz-adv-x="847" d="M558 351h-508v449h207v-98h-102v-253h125v351h248v-98h-144v-253h174v-98zM837 533h-137v-239h-105v575h105v-233h137v-103zM700 -113h-476v368h476v-368zM593 -16v174h-261v-174h261z" />
<glyph unicode="&#xb541;" horiz-adv-x="847" d="M558 361h-508v439h207v-98h-102v-243h125v341h248v-98h-144v-243h174v-98zM837 541h-137v-228h-105v556h105v-226h137v-102zM700 -118h-476v407h108v-102h261v102h107v-407zM593 -22v114h-261v-114h261z" />
<glyph unicode="&#xb543;" horiz-adv-x="847" d="M558 344h-508v456h207v-98h-102v-259h125v357h248v-98h-144v-259h174v-99zM837 521h-137v-297h-105v645h105v-245h137v-103zM492 150l248 -207l-67 -76l-227 194q-9 -16 -20 -30q-83 -104 -213 -162l-62 80q100 40 174 126.5t74 188.5v16h109v-29q0 -51 -16 -101z" />
<glyph unicode="&#xb544;" horiz-adv-x="847" d="M558 351h-508v449h207v-98h-102v-253h125v351h248v-98h-144v-253h174v-98zM837 533h-137v-239h-105v575h105v-233h137v-103zM347 229q0 -53 -14 -104l98 -116q23 25 40 54q40 67 40 174v30h106v-38q0 -53 -12 -102l171 -181l-69 -66l-141 149q-50 -93 -145 -156l-131 153 q-53 -88 -150 -146l-67 70q77 44 122.5 116t45.5 171v30h106v-38z" />
<glyph unicode="&#xb545;" horiz-adv-x="847" d="M558 344h-508v456h207v-98h-102v-259h125v357h248v-98h-144v-259h174v-99zM837 533h-137v-251h-105v587h105v-233h137v-103zM596 76q0 46 -36 78t-87 32t-87 -32t-36 -78t36 -77.5t87 -31.5t87 31.5t36 77.5zM705 76q0 -43 -17.5 -81.5t-49.5 -66.5q-31 -29 -74.5 -44.5 t-90.5 -15.5t-90.5 15.5t-74.5 44.5q-32 28 -49 66.5t-17 81.5t17 81.5t49 67.5q31 28 74.5 43.5t90.5 15.5t90.5 -15.5t74.5 -43.5q32 -29 49.5 -67.5t17.5 -81.5z" />
<glyph unicode="&#xb54b;" horiz-adv-x="847" d="M558 385h-508v425h207v-98h-102v-228h125v326h248v-98h-144v-228h174v-99zM837 562h-137v-212h-105v519h105v-205h137v-102zM623 323v-90h-190q-95 0 -159 36l26 79q87 -25 146 -25h177zM741 104h-124q8 -9 14 -19q17 -26 17 -59q0 -34 -15 -65.5t-41 -54.5 q-27 -23 -63.5 -35t-77.5 -12q-40 0 -77 12t-64 35q-26 23 -40.5 54.5t-14.5 65.5q0 33 17 59q6 10 13 19h-124v91h580v-91zM542 27q0 30 -27 51.5t-63 21.5q-39 0 -65 -21.5t-26 -51.5q0 -32 26 -52.5t65 -20.5q36 0 63 20.5t27 52.5z" />
<glyph unicode="&#xb54c;" horiz-adv-x="855" d="M483 209h-433v537h182v-98h-77v-340h102v438h213v-98h-108v-340h121v-99zM677 -103v526h-63v-463h-100v888h100v-326h63v347h101v-972h-101z" />
<glyph unicode="&#xb54d;" horiz-adv-x="855" d="M483 329h-432v470h181v-98h-76v-274h101v372h213v-98h-108v-274h121v-98zM677 283v244h-56v-229h-101v550h101v-223h56v244h101v-586h-101zM773 -129h-108v275h-423v98h531v-373z" />
<glyph unicode="&#xb550;" horiz-adv-x="855" d="M483 299h-432v490h181v-98h-76v-293h101v391h213v-98h-108v-293h121v-99zM677 164v339h-56v-316h-101v661h101v-247h56v268h101v-705h-101zM791 -108h-519v329h109v-231h410v-98z" />
<glyph unicode="&#xb554;" horiz-adv-x="855" d="M483 379h-432v431h181v-98h-76v-234h101v332h213v-98h-108v-234h121v-99zM677 345v213h-56v-197h-101v487h101v-191h56v212h101v-524h-101zM797 -118h-510v266h378v61h-382v98h490v-254h-378v-74h402v-97z" />
<glyph unicode="&#xb55c;" horiz-adv-x="855" d="M483 342h-432v458h181v-98h-76v-261h101v359h213v-98h-108v-261h121v-99zM677 291v241h-56v-225h-101v541h101v-218h56v239h101v-578h-101zM770 -113h-486v365h486v-365zM663 -16v171h-272v-171h272z" />
<glyph unicode="&#xb55d;" horiz-adv-x="855" d="M483 355h-432v445h181v-98h-76v-249h101v347h213v-98h-108v-249h121v-98zM677 313v230h-56v-220h-101v525h101v-207h56v228h101v-556h-101zM773 -118h-486v407h107v-102h272v102h107v-407zM666 -22v114h-272v-114h272z" />
<glyph unicode="&#xb55f;" horiz-adv-x="855" d="M483 334h-432v465h181v-98h-76v-268h101v366h213v-98h-108v-268h121v-99zM621 614h56v255h101v-643h-101v289h-56v-226h-101v559h101v-234zM545 140l249 -193l-67 -80l-230 183q-9 -13 -19 -25q-83 -99 -213 -156l-62 80q107 48 178 124t71 175v9h108v-22q0 -49 -15 -95z " />
<glyph unicode="&#xb560;" horiz-adv-x="855" d="M483 342h-432v458h181v-98h-76v-261h101v359h213v-98h-108v-261h121v-99zM677 291v241h-56v-225h-101v541h101v-218h56v239h101v-578h-101zM407 229q0 -52 -16 -104l104 -118q23 26 43 57q41 66 41 173v27h106v-34q0 -53 -12 -103l175 -180l-69 -67l-146 151 q-50 -93 -149 -158l-137 156q-56 -90 -152 -149l-67 70q76 44 124 116t48 171v27h107v-35z" />
<glyph unicode="&#xb561;" horiz-adv-x="855" d="M483 334h-432v465h181v-98h-76v-268h101v366h213v-98h-108v-268h121v-99zM677 262v264h-56v-221h-101v543h101v-224h56v245h101v-607h-101zM645 71q0 44 -36 75t-88 31t-88 -31t-36 -75t36 -74.5t88 -30.5t88 30.5t36 74.5zM754 71q0 -42 -17.5 -80t-49.5 -65 q-32 -28 -75.5 -43.5t-90.5 -15.5t-90.5 15.5t-75.5 43.5q-31 27 -48.5 65t-17.5 80t17.5 80t48.5 65q32 28 75.5 43.5t90.5 15.5t90.5 -15.5t75.5 -43.5q32 -27 49.5 -65t17.5 -80z" />
<glyph unicode="&#xb5a0;" horiz-adv-x="809" d="M558 209h-508v537h207v-98h-102v-340h125v438h248v-98h-144v-340h174v-99zM741 -103h-104v539h-156v99h156v334h104v-972z" />
<glyph unicode="&#xb5a1;" horiz-adv-x="809" d="M558 334h-508v465h207v-98h-102v-268h125v366h248v-98h-144v-268h174v-99zM741 283h-104v240h-156v97h156v249h104v-586zM738 -129h-108v275h-413v98h521v-373z" />
<glyph unicode="&#xb5a4;" horiz-adv-x="809" d="M558 307h-508v483h207v-98h-102v-287h125v385h248v-98h-144v-287h174v-98zM741 164h-104v342h-156v98h156v265h104v-705zM758 -108h-508v329h108v-231h400v-98z" />
<glyph unicode="&#xb5a8;" horiz-adv-x="809" d="M558 389h-508v421h207v-98h-102v-225h125v323h248v-98h-144v-225h174v-98zM741 350h-104v205h-156v98h156v216h104v-519zM762 -118h-500v268h368v63h-372v98h480v-256h-367v-76h391v-97z" />
<glyph unicode="&#xb5aa;" horiz-adv-x="809" d="M558 389h-508v421h207v-98h-102v-225h125v323h248v-98h-144v-225h174v-98zM741 350h-104v205h-156v98h156v216h104v-519zM740 -118h-271v430h271v-430zM444 -118h-284v265h179v68h-183v97h279v-257h-175v-77h184v-96zM641 -22v237h-78v-237h78z" />
<glyph unicode="&#xb5ab;" horiz-adv-x="809" d="M558 389h-508v421h207v-98h-102v-225h125v323h248v-98h-144v-225h174v-98zM741 350h-104v205h-156v98h156v216h104v-519zM444 -118h-284v265h179v68h-183v97h279v-257h-175v-77h184v-96zM740 -118h-271v430h94v-121h78v121h99v-430zM641 -22v119h-78v-119h78z" />
<glyph unicode="&#xb5b0;" horiz-adv-x="809" d="M558 351h-508v449h207v-98h-102v-253h125v351h248v-98h-144v-253h174v-98zM741 294h-104v237h-156v97h156v241h104v-575zM740 -113h-476v368h476v-368zM633 -16v174h-261v-174h261z" />
<glyph unicode="&#xb5b1;" horiz-adv-x="809" d="M558 361h-508v439h207v-98h-102v-243h125v341h248v-98h-144v-243h174v-98zM741 313h-104v224h-156v97h156v235h104v-556zM740 -118h-476v407h108v-102h261v102h107v-407zM633 -22v114h-261v-114h261z" />
<glyph unicode="&#xb5b3;" horiz-adv-x="809" d="M558 344h-508v456h207v-98h-102v-259h125v357h248v-98h-144v-259h174v-99zM637 224v303h-156v97h156v245h104v-645h-104zM524 150l249 -207l-67 -76l-227 194q-9 -16 -20 -30q-83 -104 -213 -162l-63 80q101 40 175 126.5t74 188.5v16h109v-29q0 -51 -17 -101z" />
<glyph unicode="&#xb5b4;" horiz-adv-x="809" d="M558 351h-508v449h207v-98h-102v-253h125v351h248v-98h-144v-253h174v-98zM741 294h-104v237h-156v97h156v241h104v-575zM384 229q0 -53 -15 -104l101 -117q23 24 40 54q42 69 42 175v30h106v-38q0 -52 -12 -102l173 -180l-68 -67l-144 150q-54 -96 -147 -157l-135 155 q-55 -90 -151 -148l-66 70q76 44 123 116t47 171v30h106v-38z" />
<glyph unicode="&#xb5b5;" horiz-adv-x="809" d="M558 344h-508v456h207v-98h-102v-259h125v357h248v-98h-144v-259h174v-99zM636 280v247h-155v97h155v245h105v-589h-105zM632 76q0 46 -36 78t-87 32t-87 -32t-36 -78t36 -77.5t87 -31.5t87 31.5t36 77.5zM740 76q0 -43 -17 -81.5t-49 -66.5q-31 -29 -74.5 -44.5 t-90.5 -15.5t-90.5 15.5t-74.5 44.5q-32 28 -49 66.5t-17 81.5t17 81.5t49 67.5q31 28 74.5 43.5t90.5 15.5t90.5 -15.5t74.5 -43.5q32 -29 49 -67.5t17 -81.5z" />
<glyph unicode="&#xb5bb;" horiz-adv-x="809" d="M558 385h-508v425h207v-98h-102v-228h125v326h248v-98h-144v-228h174v-99zM741 350h-104v204h-156v100h156v215h104v-519zM656 323v-90h-189q-95 0 -159 36l26 79q87 -25 146 -25h176zM775 104h-124q7 -9 14 -19q17 -26 17 -59q0 -34 -15 -65.5t-41 -54.5 q-27 -23 -64 -35t-78 -12q-40 0 -76.5 12t-63.5 35t-41 54.5t-14 65.5q0 33 17 59q5 10 12 19h-123v91h580v-91zM575 27q0 30 -26.5 51.5t-63.5 21.5q-39 0 -64.5 -21.5t-25.5 -51.5q0 -32 25.5 -52.5t64.5 -20.5q37 0 63.5 20.5t26.5 52.5z" />
<glyph unicode="&#xb5bc;" horiz-adv-x="855" d="M483 209h-433v537h182v-98h-77v-340h102v438h213v-98h-108v-340h121v-99zM520 430h-104v100h104v318h101v-888h-101v470zM677 -103v972h101v-972h-101z" />
<glyph unicode="&#xb5bd;" horiz-adv-x="855" d="M483 329h-432v470h181v-98h-76v-274h101v372h213v-98h-108v-274h121v-98zM422 615h99v233h101v-550h-101v219h-99v98zM677 283v586h101v-586h-101zM773 -129h-108v275h-423v98h531v-373z" />
<glyph unicode="&#xb5c0;" horiz-adv-x="855" d="M483 299h-432v490h181v-98h-76v-293h101v391h213v-98h-108v-293h121v-99zM422 596h99v252h101v-661h-101v311h-99v98zM677 164v705h101v-705h-101zM791 -108h-519v329h109v-231h410v-98z" />
<glyph unicode="&#xb5c4;" horiz-adv-x="855" d="M483 379h-432v431h181v-98h-76v-234h101v332h213v-98h-108v-234h121v-99zM422 645h99v203h101v-487h-101v185h-99v99zM677 345v524h101v-524h-101zM797 -118h-510v266h378v61h-382v98h490v-254h-378v-74h402v-97z" />
<glyph unicode="&#xb5cc;" horiz-adv-x="855" d="M483 342h-432v458h181v-98h-76v-261h101v359h213v-98h-108v-261h121v-99zM677 291v578h101v-578h-101zM622 848v-541h-101v219h-99v98h99v224h101zM770 -113h-486v365h486v-365zM663 -16v171h-272v-171h272z" />
<glyph unicode="&#xb5cd;" horiz-adv-x="855" d="M483 355h-432v445h181v-98h-76v-249h101v347h213v-98h-108v-249h121v-98zM422 629h99v219h101v-525h-101v208h-99v98zM677 313v556h101v-556h-101zM773 -118h-486v407h107v-102h272v102h107v-407zM666 -22v114h-272v-114h272z" />
<glyph unicode="&#xb5cf;" horiz-adv-x="855" d="M483 334h-432v465h181v-98h-76v-268h101v366h213v-98h-108v-268h121v-99zM677 226v643h101v-643h-101zM422 619h99v229h101v-558h-101v231h-99v98zM545 140l249 -193l-67 -80l-230 183q-9 -13 -19 -25q-83 -99 -213 -156l-62 80q107 48 178 124t71 175v9h108v-22 q0 -49 -15 -95z" />
<glyph unicode="&#xb5d0;" horiz-adv-x="855" d="M483 342h-432v458h181v-98h-76v-261h101v359h213v-98h-108v-261h121v-99zM677 291v578h101v-578h-101zM622 848v-541h-101v219h-99v98h99v224h101zM407 229q0 -52 -16 -104l104 -118q23 26 43 57q41 66 41 173v27h106v-34q0 -53 -12 -103l175 -180l-69 -67l-146 151 q-50 -93 -149 -158l-137 156q-56 -90 -152 -149l-67 70q76 44 124 116t48 171v27h107v-35z" />
<glyph unicode="&#xb5d1;" horiz-adv-x="855" d="M483 334h-432v465h181v-98h-76v-268h101v366h213v-98h-108v-268h121v-99zM521 520h-99v98h99v230h101v-543h-101v215zM677 262v607h101v-607h-101zM645 71q0 44 -36 75t-88 31t-88 -31t-36 -75t36 -74.5t88 -30.5t88 30.5t36 74.5zM754 71q0 -42 -17.5 -80t-49.5 -65 q-32 -28 -75.5 -43.5t-90.5 -15.5t-90.5 15.5t-75.5 43.5q-31 27 -48.5 65t-17.5 80t17.5 80t48.5 65q32 28 75.5 43.5t90.5 15.5t90.5 -15.5t75.5 -43.5q32 -27 49.5 -65t17.5 -80z" />
<glyph unicode="&#xb5d8;" horiz-adv-x="809" d="M558 209h-508v537h207v-98h-102v-340h125v438h248v-98h-144v-340h174v-99zM741 -103h-103v447h-146v97h146v77h-146v98h146v253h103v-972z" />
<glyph unicode="&#xb5ec;" horiz-adv-x="809" d="M559 324h-508v476h206v-94h-101v-288h124v382h249v-94h-145v-288h175v-94zM638 295v154h-146v92h146v47h-146v92h146v190h103v-575h-103zM384 229q0 -53 -15 -104l101 -117q23 24 40 54q42 69 42 175v30h106v-38q0 -52 -12 -102l173 -180l-68 -67l-144 150 q-54 -96 -147 -157l-135 155q-55 -90 -151 -148l-66 70q76 44 123 116t47 171v30h106v-38z" />
<glyph unicode="&#xb610;" d="M710 304h-238v-185h342v-99h-803v99h353v185h-245v463h248v-98h-143v-268h166v366h319v-98h-215v-268h216v-97z" />
<glyph unicode="&#xb611;" d="M706 459h-237v-73h345v-99h-803v99h349v73h-237v372h244v-98h-139v-177h162v275h315v-98h-211v-177h212v-97zM654 -128h-108v248h-401v99h509v-347z" />
<glyph unicode="&#xb614;" d="M706 449h-237v-100h345v-100h-803v100h349v100h-237v382h244v-98h-139v-187h162v285h315v-98h-211v-187h212v-97zM687 -108h-521v300h108v-202h413v-98z" />
<glyph unicode="&#xb618;" d="M706 500h-236v-66h344v-99h-803v99h350v66h-238v342h244v-96h-139v-151h162v247h315v-96h-211v-151h212v-95zM679 -118h-514v249h386v58h-392v96h499v-247h-386v-60h407v-96z" />
<glyph unicode="&#xb625;" d="M706 472h-236v-71h344v-100h-803v100h350v71h-238v359h244v-98h-139v-163h162v261h315v-98h-211v-163h212v-98zM549 69q0 43 -39 72.5t-97 29.5t-96 -29.5t-38 -72.5t38 -72.5t96 -29.5t97 29.5t39 72.5zM657 69q0 -41 -18.5 -79t-51.5 -64q-33 -28 -79 -43t-95 -15 q-48 0 -94.5 15t-78.5 43q-33 26 -51.5 64t-18.5 79t18.5 78.5t51.5 64.5q32 28 78.5 43t94.5 15q49 0 95 -15t79 -43q33 -27 51.5 -64.5t18.5 -78.5z" />
<glyph unicode="&#xb62c;" horiz-adv-x="860" d="M548 365h-180v-137q21 1 46 2q95 2 179 18v-97q-83 -16 -171 -19.5t-150 -3.5h-257v99h243v138h-201v389h210v-98h-105v-193h130v291h255v-98h-151v-193h152v-98zM856 407h-138v-510h-108v972h108v-360h138v-102z" />
<glyph unicode="&#xb634;" horiz-adv-x="860" d="M548 496h-180v-72q19 1 42 1q90 2 183 20v-92q-84 -17 -173.5 -19.5t-147.5 -2.5h-257v92h243v73h-201v324h210v-93h-105v-139h130v232h255v-93h-151v-139h152v-92zM856 545h-138v-234h-108v558h108v-226h138v-98zM738 -118h-524v247h394v61h-399v91h508v-240h-392v-68 h413v-91z" />
<glyph unicode="&#xb648;" horiz-adv-x="877" d="M497 365h-154v-140q19 1 40 2q59 2 135 15v-98q-71 -14 -132.5 -16.5t-115.5 -2.5h-255v99h222v141h-180v389h185v-98h-82v-193h106v291h230v-98h-127v-193h128v-98zM641 518h53v351h106v-972h-106v521h-53v-458h-104v888h104v-330z" />
<glyph unicode="&#xb664;" horiz-adv-x="821" d="M557 365h-184v-137q23 1 51 2q95 2 179 19v-97q-83 -17 -171 -20.5t-149 -3.5h-268v99h248v138h-201v389h212v-98h-107v-193h132v291h257v-98h-153v-193h154v-98zM744 869v-972h-107v972h107z" />
<glyph unicode="&#xb668;" horiz-adv-x="821" d="M557 444h-184v-106q23 0 50 1q87 2 180 21v-93q-84 -18 -171.5 -21t-148.5 -3h-268v94h248v107h-201v355h212v-94h-107v-167h132v261h257v-94h-153v-167h154v-94zM744 869v-735h-107v735h107zM759 -108h-517v298h107v-202h410v-96z" />
<glyph unicode="&#xb69c;" d="M706 415h-583v392h244v-98h-139v-197h162v295h315v-98h-211v-197h212v-97zM814 224h-348v-327h-109v327h-346v99h803v-99z" />
<glyph unicode="&#xb69d;" d="M706 463h-583v368h244v-98h-139v-172h162v270h315v-98h-211v-172h212v-98zM358 219v78h-347v100h803v-100h-347v-78h187v-347h-108v248h-401v99h213z" />
<glyph unicode="&#xb6a0;" d="M706 455h-583v376h244v-98h-139v-181h162v279h315v-98h-211v-181h212v-97zM814 276h-329v-180h-108v180h-366v99h803v-99zM687 -108h-521v295h108v-197h413v-98z" />
<glyph unicode="&#xb6a4;" d="M706 506h-583v336h244v-96h-139v-145h162v241h315v-96h-211v-145h212v-95zM359 285v64h-348v97h803v-97h-348v-64h192v-247h-386v-60h407v-96h-514v249h386v58h-392v96h200z" />
<glyph unicode="&#xb6ab;" d="M706 506h-583v336h244v-96h-139v-145h162v241h315v-96h-211v-145h212v-95zM466 240h-73v-198h-181v-65h217v-95h-317v253h185v55h-189v95h251v64h-348v97h803v-97h-348v-109zM769 82h-56q5 -6 9 -12q14 -26 14 -54q0 -30 -10.5 -58.5t-32.5 -48.5q-20 -20 -50 -30.5 t-61 -10.5q-32 0 -62 10.5t-50 30.5q-21 20 -32 48.5t-11 58.5q0 28 15 54q3 6 9 12h-39v86h357v-86zM694 286v-81h-106q-52 0 -117 23l16 72q77 -14 114 -14h93zM639 15q0 25 -17 42.5t-41 17.5q-25 0 -41 -17.5t-16 -42.5q0 -26 16 -42.5t41 -16.5q24 0 41 16.5t17 42.5z " />
<glyph unicode="&#xb6ac;" d="M706 467h-583v364h244v-98h-139v-168h162v266h315v-98h-211v-168h212v-98zM358 235v72h-347v99h803v-99h-347v-72h192v-348h-494v348h193zM552 -16v154h-280v-154h280z" />
<glyph unicode="&#xb6b1;" d="M706 473h-583v358h244v-98h-139v-162h162v260h315v-98h-211v-162h212v-98zM358 261v56h-347v99h803v-99h-347v-56q20 -4 41 -10q45 -15 78 -42q32 -27 51 -64t19 -78t-19 -78.5t-51 -63.5q-33 -27 -78.5 -42t-94.5 -15t-95 15t-78 42q-33 26 -52 63.5t-19 78.5t19 78 t52 64q32 27 78 42q20 6 40 10zM548 67q0 42 -39 71t-96 29q-58 0 -96.5 -29t-38.5 -71t38.5 -71t96.5 -29q57 0 96 29t39 71z" />
<glyph unicode="&#xb6d4;" horiz-adv-x="877" d="M493 421h-436v369h183v-98h-80v-172h104v270h228v-98h-125v-172h126v-99zM383 193h156v655h104v-925h-104v172h-156v98zM694 -103v972h106v-972h-106zM327 262v-339h-108v338h-204v98h253q54 0 113 2.5t135 16.5v-98q-71 -14 -132 -16q-30 -2 -57 -2z" />
<glyph unicode="&#xb6f0;" horiz-adv-x="821" d="M553 406h-491v384h210v-98h-105v-188h130v286h255v-98h-151v-188h152v-98zM357 242v-330h-108v329h-234v98h272q44 0 139.5 2.5t179.5 19.5v-97q-83 -17 -171 -20q-42 -1 -78 -2zM637 -103v972h107v-972h-107z" />
<glyph unicode="&#xb6f4;" horiz-adv-x="821" d="M553 454h-491v345h210v-94h-105v-157h130v251h255v-94h-151v-157h152v-94zM337 292v-98h-109v98h-213v94h272q53 0 141.5 3t177.5 20v-95q-81 -17 -172 -19q-54 -2 -97 -3zM637 100v769h107v-769h-107zM759 -108h-538v268h110v-174h428v-94z" />
<glyph unicode="&#xb6f8;" horiz-adv-x="821" d="M553 518h-491v302h210v-93h-105v-117h130v210h255v-93h-151v-117h152v-92zM337 374v-94h-109v94h-213v92h272q53 0 141.5 2.5t177.5 20.5v-93q-83 -17 -174 -19q-54 -2 -95 -3zM637 280v589h107v-589h-107zM765 -118h-545v235h415v48h-420v91h528v-227h-412v-56h434v-91z " />
<glyph unicode="&#xb700;" horiz-adv-x="821" d="M553 489h-491v320h210v-94h-105v-132h130v226h255v-94h-151v-132h152v-94zM337 336v-102h-109v102h-213v94h272q53 0 141.5 3t177.5 20v-95q-81 -17 -172 -19q-54 -2 -97 -3zM637 234v635h107v-635h-107zM743 -113h-531v320h531v-320zM636 -20v134h-317v-134h317z" />
<glyph unicode="&#xb701;" horiz-adv-x="821" d="M553 496h-491v313h210v-93h-105v-127h130v220h255v-93h-151v-127h152v-93zM337 347v-98h-109v98h-213v93h272q53 0 141.5 2.5t177.5 19.5v-94q-81 -16 -172 -18q-54 -2 -97 -3zM637 249v620h107v-620h-107zM743 -118h-523v342h108v-82h308v82h107v-342zM636 -26v78h-308 v-78h308z" />
<glyph unicode="&#xb705;" horiz-adv-x="821" d="M553 489h-491v320h210v-94h-105v-132h130v226h255v-94h-151v-132h152v-94zM337 336v-98h-109v98h-213v94h272q53 0 141.5 3t177.5 20v-95q-81 -17 -172 -19q-54 -2 -97 -3zM637 238v631h107v-631h-107zM634 58q0 42 -36.5 69.5t-90.5 27.5t-90.5 -27.5t-36.5 -69.5 q0 -41 36 -68t91 -27q54 0 90.5 27t36.5 68zM742 58q0 -39 -17.5 -75t-49.5 -61q-33 -26 -77 -40t-91 -14t-91 14t-77 40q-32 25 -50 61t-18 75q0 40 18 75t50 62q33 26 77 40t91 14t91 -14t77 -40q32 -27 49.5 -62t17.5 -75z" />
<glyph unicode="&#xb728;" d="M710 293h-591v474h248v-98h-143v-278h166v376h319v-98h-215v-278h216v-98zM11 119h803v-99h-803v99z" />
<glyph unicode="&#xb729;" d="M706 459h-583v372h244v-98h-139v-177h162v275h315v-98h-211v-177h212v-97zM11 391h803v-100h-803v100zM654 -128h-108v248h-401v99h509v-347z" />
<glyph unicode="&#xb72c;" d="M706 449h-583v382h244v-98h-139v-187h162v285h315v-98h-211v-187h212v-97zM11 355h803v-101h-803v101zM687 -108h-521v300h108v-202h413v-98z" />
<glyph unicode="&#xb72f;" d="M706 463h-583v368h244v-98h-139v-172h162v270h315v-98h-211v-172h212v-98zM814 300h-803v100h803v-100zM678 -114h-513v348h504v-98h-396v-152h405v-98z" />
<glyph unicode="&#xb730;" d="M706 500h-583v342h244v-96h-139v-151h162v247h315v-96h-211v-151h212v-95zM11 440h803v-99h-803v99zM679 -118h-514v249h386v58h-392v96h499v-247h-386v-60h407v-96z" />
<glyph unicode="&#xb738;" d="M706 463h-583v368h244v-98h-139v-172h162v270h315v-98h-211v-172h212v-98zM814 300h-803v100h803v-100zM552 -16v154h-280v-154h280zM165 235h494v-348h-494v348z" />
<glyph unicode="&#xb739;" d="M706 478h-583v352h244v-97h-139v-159h162v256h315v-97h-211v-159h212v-96zM11 406h803v-98h-803v98zM659 -118h-494v391h108v-100h278v100h108v-391zM551 -22v100h-278v-100h278z" />
<glyph unicode="&#xb73b;" d="M706 459h-583v372h244v-98h-139v-177h162v275h315v-98h-211v-177h212v-97zM814 280h-803v99h803v-99zM455 131l268 -185l-61 -83l-256 178q-14 -17 -30 -33q-92 -93 -221 -141l-60 85q112 39 187.5 110.5t75.5 164.5v7h109v-21q0 -42 -12 -82z" />
</font>
</defs>
</svg>
